<svg xmlns="http://www.w3.org/2000/svg" width="40" height="40" viewBox="0 0 40 40">
    <g fill="none" fill-rule="evenodd">
        <rect width="40" height="40" fill="#1ABC9C" rx="20"/>
        <path fill="#FFF" d="M24.925 26.573a.482.482 0 1 0 .965 0 .482.482 0 0 0-.965 0zm4.857.575v1.727h-.345v-.92h-4.605v.921h-.345v-3.568h.345v1.84h4.95zm-.23-.64v.526h-3.454v-.527c0-.344.224-.394.357-.394h2.74c.133 0 .356.051.356.394zm1.481.584a3.903 3.903 0 0 1-3.898 3.898 3.903 3.903 0 0 1-3.899-3.898 3.903 3.903 0 0 1 3.899-3.899 3.903 3.903 0 0 1 3.898 3.899zm.967 0a4.87 4.87 0 0 0-4.865-4.865 4.87 4.87 0 0 0-4.865 4.865 4.87 4.87 0 0 0 4.865 4.865A4.87 4.87 0 0 0 32 27.092zM16.66 25.32h2.475v-2.475H16.66v2.475zm0-7.424h2.475v-2.474H16.66v2.474zm-4.948 0h2.474v-2.474h-2.474v2.474zm4.948 3.712h2.475v-2.474H16.66v2.474zm-4.948 0h2.474v-2.474h-2.474v2.474zm0 3.712h2.474v-2.475h-2.474v2.475zm9.939 1.835c0-.202.011-.402.033-.598H9.237V14.186h17.32v7.528a5.507 5.507 0 0 1 1.238.013V10.474h-3.093a1.858 1.858 0 0 1-1.856 1.856 1.858 1.858 0 0 1-1.856-1.856h-6.185a1.858 1.858 0 0 1-1.856 1.856 1.858 1.858 0 0 1-1.856-1.856H8v17.321h13.688a5.506 5.506 0 0 1-.037-.64zm-.042-9.259h2.474v-2.474H21.61v2.474zm-8.66-6.185c.683 0 1.237-.554 1.237-1.238V9.237a1.237 1.237 0 1 0-2.474 0v1.237c0 .684.554 1.238 1.237 1.238zm9.897 0c.684 0 1.237-.554 1.237-1.238V9.237a1.236 1.236 0 1 0-2.474 0v1.237c0 .684.553 1.238 1.237 1.238zm-1.237 9.897h2.474v-2.474H21.61v2.474z"/>
    </g>
</svg>
