<svg xmlns="http://www.w3.org/2000/svg" width="24" height="24" viewBox="0 0 24 24">
    <g fill="none" fill-rule="evenodd">
        <path d="M0 0h24v24H0z"/>
        <path fill="#00BF8F" d="M4.63 20.4h3.26v-3.2H4.63v3.2zm0-4.001h3.26v-3.2H4.63v3.2zm0-3.998h3.26V9.2H4.63v3.2zm4.076 8h3.26v-3.2h-3.26v3.2zm0-4.002h3.26v-3.2h-3.26v3.2zm0-3.998h3.26V9.2h-3.26v3.2zm4.077 8h3.26v-3.2h-3.26v3.2zm0-4.002h3.26v-3.2h-3.26v3.2zm0-3.998h3.26V9.2h-3.26v3.2zm4.075 8h3.26v-3.2h-3.26v3.2zm0-4.002h3.26v-3.2h-3.26v3.2zm0-3.998h3.26V9.2h-3.26v3.2zM3 21.2c0 .442.366.8.815.8h17.12c.45 0 .814-.358.814-.8V7.6H3v13.6zM17.674 4.4V6h-.003V2h-1.629v2.4H8.707V6 2h-1.63v4-1.6H3v2.4h18.75V4.4h-4.076z"/>
    </g>
</svg>
