<svg xmlns="http://www.w3.org/2000/svg" width="14" height="14" viewBox="0 0 14 14">
    <g fill="none" fill-rule="evenodd">
        <path d="M0 0h14v14H0z"/>
        <path fill="#00BF8F" d="M7.219 1A4.224 4.224 0 0 0 3 5.219c0 .786.218 1.553.63 2.218l3.349 5.397a.352.352 0 0 0 .298.166h.003a.351.351 0 0 0 .299-.17l3.263-5.45c.39-.651.595-1.399.595-2.161A4.224 4.224 0 0 0 7.22 1"/>
        <path fill="#FFF" d="M10.239 7.02l-2.967 4.953-3.045-4.906a3.511 3.511 0 0 1-.529-1.848 3.528 3.528 0 0 1 3.52-3.52 3.526 3.526 0 0 1 3.519 3.52c0 .635-.174 1.258-.498 1.8"/>
        <path fill="#00BF8F" d="M7.219 3.11c-1.163 0-2.11.946-2.11 2.109 0 1.155.931 2.11 2.11 2.11 1.193 0 2.11-.967 2.11-2.11 0-1.163-.947-2.11-2.11-2.11"/>
        <path fill="#CCF2E9" d="M7.219 6.63c-.78 0-1.411-.634-1.411-1.411 0-.776.635-1.411 1.41-1.411a1.41 1.41 0 1 1 0 2.822"/>
    </g>
</svg>
