<svg xmlns="http://www.w3.org/2000/svg" width="28" height="28" viewBox="0 0 28 28">
    <g fill="none" fill-rule="evenodd">
        <path d="M0 0h28v28H0z"/>
        <path fill="#9E9E9E" d="M15.6 10.4h.8v-.8h-.8v.8zm0 3.2h.8v-.8h-.8v.8zm0-6.4h.8v-.8h-.8v.8zm-4.4 18h2.4v-4h-2.4v4zm4.4-8.4h.8V16h-.8v.8zm-1.2 8.4h2.4v-4h-2.4v4zm-2.8-8.4h.8V16h-.8v.8zm0-3.2h.8v-.8h-.8v.8zm0-6.4h.8v-.8h-.8v.8zm0 3.2h.8v-.8h-.8v.8zM5.2 10H6v-.8h-.8v.8zm0 6.4H6v-.8h-.8v.8zm0 3.2H6v-.8h-.8v.8zm0-6.4H6v-.8h-.8v.8zm12-6c0 .44-.359.8-.8.8h-.8a.801.801 0 0 1-.8-.8v-.8c0-.441.359-.8.8-.8h.8c.441 0 .8.359.8.8v.8zm0 3.2c0 .44-.359.8-.8.8h-.8a.801.801 0 0 1-.8-.8v-.8c0-.441.359-.8.8-.8h.8c.441 0 .8.359.8.8v.8zm0 3.2c0 .44-.359.8-.8.8h-.8a.801.801 0 0 1-.8-.8v-.8c0-.441.359-.8.8-.8h.8c.441 0 .8.359.8.8v.8zm0 3.2c0 .44-.359.8-.8.8h-.8a.801.801 0 0 1-.8-.8V16c0-.441.359-.8.8-.8h.8c.441 0 .8.359.8.8v.8zm-4-9.6c0 .44-.359.8-.8.8h-.8a.801.801 0 0 1-.8-.8v-.8c0-.441.359-.8.8-.8h.8c.441 0 .8.359.8.8v.8zm0 3.2c0 .44-.359.8-.8.8h-.8a.801.801 0 0 1-.8-.8v-.8c0-.441.359-.8.8-.8h.8c.441 0 .8.359.8.8v.8zm0 3.2c0 .44-.359.8-.8.8h-.8a.801.801 0 0 1-.8-.8v-.8c0-.441.359-.8.8-.8h.8c.441 0 .8.359.8.8v.8zm0 3.2c0 .44-.359.8-.8.8h-.8a.801.801 0 0 1-.8-.8V16c0-.441.359-.8.8-.8h.8c.441 0 .8.359.8.8v.8zM6.8 10c0 .44-.359.8-.8.8h-.8a.801.801 0 0 1-.8-.8v-.8c0-.441.359-.8.8-.8H6c.441 0 .8.359.8.8v.8zm0 3.2c0 .44-.359.8-.8.8h-.8a.801.801 0 0 1-.8-.8v-.8c0-.441.359-.8.8-.8H6c.441 0 .8.359.8.8v.8zm0 3.2c0 .44-.359.8-.8.8h-.8a.801.801 0 0 1-.8-.8v-.8a.8.8 0 0 1 .8-.8H6a.8.8 0 0 1 .8.8v.8zm0 3.2c0 .44-.359.8-.8.8h-.8a.801.801 0 0 1-.8-.8v-.8c0-.441.359-.8.8-.8H6c.441 0 .8.359.8.8v.8zm14.4-.8c0-.441.359-.8.8-.8h.8c.441 0 .8.359.8.8v.8c0 .44-.359.8-.8.8H22a.801.801 0 0 1-.8-.8v-.8zm0-3.2a.8.8 0 0 1 .8-.8h.8a.8.8 0 0 1 .8.8v.8c0 .44-.359.8-.8.8H22a.801.801 0 0 1-.8-.8v-.8zm0-3.2c0-.441.359-.8.8-.8h.8c.441 0 .8.359.8.8v.8c0 .44-.359.8-.8.8H22a.801.801 0 0 1-.8-.8v-.8zm0-3.2c0-.441.359-.8.8-.8h.8c.441 0 .8.359.8.8v.8c0 .44-.359.8-.8.8H22a.801.801 0 0 1-.8-.8v-.8zm4.8 12v-14a.4.4 0 0 0-.4-.4h-1.2v-.4a.4.4 0 1 0-.8 0v.4H22v-.4a.4.4 0 1 0-.8 0v.4h-1.6V3.2a.4.4 0 0 0-.4-.4h-3.6v-.4a.4.4 0 1 0-.8 0v.4h-1.6v-.4a.4.4 0 1 0-.8 0v.4H8.8a.4.4 0 0 0-.4.4v3.6H6.8v-.4a.4.4 0 1 0-.8 0v.4H4.4v-.4a.4.4 0 1 0-.8 0v.4H2.4a.4.4 0 0 0-.4.4v14h6.4v.8H2v2.8a.4.4 0 0 0 .4.4h8v-4.4a.4.4 0 0 1 .4-.4h6.4a.4.4 0 0 1 .4.4v4.4h8a.4.4 0 0 0 .4-.4V22h-6.4v-.8H26zm-4-8h.8v-.8H22v.8zm0-3.2h.8v-.8H22v.8zm0 9.6h.8v-.8H22v.8zm0-3.2h.8v-.8H22v.8z"/>
    </g>
</svg>
