<svg xmlns="http://www.w3.org/2000/svg" width="40" height="40" viewBox="0 0 40 40">
    <g fill="none" fill-rule="evenodd">
        <rect width="40" height="40" fill="#1ABC9C" rx="20"/>
        <path fill="#FFF" d="M10 8v24h20.663V13.622L25.04 8H10zm1.717 1.717h12.11v5.119h5.118v15.447H11.717V9.717zm13.827 1.215l2.187 2.187h-2.187v-2.187zm-10.861 6.437l-.675-.675-1.215 1.215 1.89 1.89 3.12-3.122-1.214-1.214-1.906 1.906zm4.489 1.703h8.334v-1.717h-8.334v1.717zm-4.49 2.575l-.674-.675-1.215 1.215 1.89 1.889 3.12-3.12-1.214-1.215-1.906 1.906zm4.49 1.706h8.334v-1.718h-8.334v1.718zm-4.49 2.572l-.674-.675-1.215 1.215 1.89 1.889 3.12-3.121-1.214-1.214-1.906 1.906zm4.49 1.708h8.334v-1.717h-8.334v1.717z"/>
    </g>
</svg>
