<svg xmlns="http://www.w3.org/2000/svg" width="40" height="40" viewBox="0 0 40 40">
    <g fill="none" fill-rule="evenodd">
        <rect width="40" height="40" fill="#1ABC9C" rx="20"/>
        <path fill="#FFF" d="M18 30.483h14v-1H18v1zm0-2.5h8.5v-1H18v1zm-2.024-.768a.498.498 0 0 0-.345-.33l-2.045-.555-1.165-1.78c-.185-.28-.655-.28-.84 0l-1.165 1.78-2.045.555a.498.498 0 0 0-.345.33.488.488 0 0 0 .085.465l1.33 1.66-.105 2.12c-.005.17.07.33.21.43.135.095.31.12.47.06L12 31.2l1.985.75c.06.025.12.035.18.035a.504.504 0 0 0 .5-.525l-.105-2.12 1.33-1.66a.488.488 0 0 0 .085-.465zM18 21.983h14v-1H18v1zm0-2.5h8.5v-1H18v1zm-2.024-.438a.498.498 0 0 0-.345-.33l-2.045-.56-1.165-1.775c-.185-.28-.655-.28-.84 0l-1.165 1.775-2.045.56a.498.498 0 0 0-.345.33.488.488 0 0 0 .085.465l1.33 1.655-.105 2.125c-.005.165.07.33.21.425.135.1.31.125.47.065L12 23.03l1.985.75c.06.02.12.035.18.035.1 0 .205-.035.29-.1a.495.495 0 0 0 .21-.425l-.105-2.125 1.33-1.655a.488.488 0 0 0 .085-.465zM18 13.983h14v-1H18v1zm0-2.5h8.5v-1H18v1zm-2.024-.613a.491.491 0 0 0-.345-.325l-2.045-.56L12.42 8.21c-.185-.28-.655-.28-.84 0l-1.165 1.775-2.045.56a.498.498 0 0 0-.26.795l1.33 1.655-.105 2.12c-.005.17.07.33.21.43.135.1.31.125.47.065L12 14.855l1.985.755c.06.02.12.03.18.03a.504.504 0 0 0 .5-.525l-.105-2.12 1.33-1.655c.105-.13.14-.31.085-.47z"/>
    </g>
</svg>
