<svg xmlns="http://www.w3.org/2000/svg" width="24" height="25" viewBox="0 0 24 25">
    <g fill="none" fill-rule="evenodd">
        <path d="M0 .708h24v24H0z"/>
        <path fill="#757575" d="M12 19.072a6.325 6.325 0 0 1-6.363-6.364A6.325 6.325 0 0 1 12 6.345a6.325 6.325 0 0 1 6.363 6.363A6.325 6.325 0 0 1 12 19.072zm8.09-7.273c-.453-3.818-3.454-6.818-7.18-7.182V2.708h-1.82v1.91a7.953 7.953 0 0 0-7.18 7.181H2v1.818h1.91c.453 3.819 3.454 6.819 7.18 7.182v1.91h1.82v-1.91c3.817-.454 6.817-3.454 7.18-7.182H22V11.8h-1.91zM12 9.072c-2 0-3.637 1.636-3.637 3.636 0 2.001 1.637 3.637 3.637 3.637s3.637-1.636 3.637-3.637c0-2-1.637-3.636-3.637-3.636z"/>
    </g>
</svg>
