<svg xmlns="http://www.w3.org/2000/svg" width="16" height="16" viewBox="0 0 16 16">
    <g fill="none" fill-rule="evenodd">
        <path d="M0 0h16v16H0z"/>
        <path fill="#FFF" d="M8.346 1.252L9.82 5.831l4.815-.005c.2 0 .365.159.365.36a.375.375 0 0 1-.149.292l-3.9 2.821 1.495 4.579a.357.357 0 0 1-.23.452.368.368 0 0 1-.35-.067L8 11.443l-3.89 2.836a.36.36 0 0 1-.554-.401H3.55l1.5-4.579-3.9-2.82a.358.358 0 0 1-.082-.505.35.35 0 0 1 .319-.149l4.79.006 1.48-4.58a.364.364 0 0 1 .451-.235c.119.041.2.128.237.236"/>
    </g>
</svg>
