<svg xmlns="http://www.w3.org/2000/svg" width="60" height="74" viewBox="0 0 60 74">
    <defs>
        <radialGradient id="a" cy="100%" r="106.978%" fx="50%" fy="100%" gradientTransform="matrix(0 -1 .4744 0 .026 1.5)">
            <stop offset="0%" stop-opacity=".1"/>
            <stop offset="43.645%" stop-opacity=".1"/>
            <stop offset="100%" stop-opacity="0"/>
        </radialGradient>
    </defs>
    <g fill="none" fill-rule="evenodd">
        <path fill="url(#a)" d="M30.3 39c-16.569 0-30 5.828-30 13.017 0 6.34 10.445 11.621 24.275 12.78 1.154.22 2.528.592 3.392 1.203.542.383.82.674.99.891.336.431.599.573.949.573s.588-.149.912-.587c.16-.216.429-.503.959-.877.746-.527 1.872-.877 2.908-1.104 14.49-.92 25.615-6.336 25.615-12.879C60.3 44.828 46.869 39 30.3 39z"/>
        <g>
            <circle cx="30" cy="71" r="3" fill="#F26522"/>
            <path fill="#00BF8F" d="M31 65a1 1 0 0 1-2 0h-.008A6.002 6.002 0 0 0 24 59.403V59.4C10.307 56.62 0 44.514 0 30 0 13.431 13.431 0 30 0c16.569 0 30 13.431 30 30 0 14.514-10.307 26.62-24 29.4v.003A6.002 6.002 0 0 0 31.008 65H31z"/>
            <path d="M12 12h36v36H12z"/>
            <path fill="#FFF" d="M34.922 24.818h5.45v-3.842h-5.45v3.842zm0 6.41h5.45v-3.842h-5.45v3.841zm0 6.41h5.45v-3.843h-5.45v3.842zm-8.017-12.82h5.45v-3.842h-5.45v3.842zm0 6.41h5.45v-3.842h-5.45v3.841zm0 10.62h5.45v-8.053h-5.45v8.053zm-8.015-17.03h5.45v-3.842h-5.45v3.842zm0 6.41h5.45v-3.842h-5.45v3.841zm0 6.41h5.45v-3.843h-5.45v3.842zm8.183-23.773h.019c0-.149.11-.278.258-.278h.997c.148 0 .26.129.26.278v1.366c0 .148.11.277.257.277h1.569c.148 0 .259-.13.259-.277v-1.366c0-.149.111-.278.258-.278h.997c.148 0 .258.129.258.278v4.857c0 .149-.11.278-.258.278h-1.016c-.148 0-.258-.13-.258-.278v-1.55c0-.149-.11-.278-.258-.278h-1.57c-.148 0-.258.13-.258.277v1.552c0 .149-.111.278-.257.278h-.998c-.149 0-.259-.13-.259-.278v-4.858zm19.312 31.567h-3.073V15.16a.985.985 0 0 0-.894-.887h-.79V12.95a.996.996 0 0 0-.99-.95H18.613a.987.987 0 0 0-.96.872v1.382h-.84a.973.973 0 0 0-.844.822v30.356h-3.074a.99.99 0 0 0-.895.98V48h35.28v-1.588a.99.99 0 0 0-.895-.98z"/>
        </g>
    </g>
</svg>
