<svg xmlns="http://www.w3.org/2000/svg" width="24" height="24" viewBox="0 0 24 24">
    <g fill="none" fill-rule="evenodd">
        <path d="M0 0h24v24H0z"/>
        <path fill="#FFF" d="M18.5 7.5a2 2 0 1 1-4.001-.001A2 2 0 0 1 18.5 7.5m-2 8.5c2.61-3.37 4.5-5.9 4.5-8.43C21 5.05 19 3 16.5 3S12 5.05 12 7.57c0 2.53 1.87 5.06 4.5 8.43M3 20a2 2 0 0 0 2 2h8.79l-7.04-7.04L3 18.71V20m15 2a2 2 0 0 0 2-2v-7.14c-.76 1.14-1.69 2.35-2.71 3.64l-.79 1-.78-1c-1.33-1.65-2.5-3.18-3.33-4.59-.34-.58-.63-1.15-.86-1.73l-4.07 4.07L15.21 22H18M5 5a2 2 0 0 0-2 2v10.29l8.18-8.18A6.96 6.96 0 0 1 11 7.53c0-.91.2-1.77.59-2.53H5"/>
    </g>
</svg>
