<svg xmlns="http://www.w3.org/2000/svg" width="24" height="24" viewBox="0 0 24 24">
    <g fill="none" fill-rule="evenodd">
        <path fill="#00BF8F" d="M19.4 4.8v-.4c0-.24-.16-.4-.4-.4-.24 0-.4.16-.4.4v.4H17v-.4c0-.24-.16-.4-.4-.4-.24 0-.4.16-.4.4v.4h-1.6V1.2c0-.24-.16-.4-.4-.4h-3.6V.4c0-.24-.16-.4-.4-.4-.24 0-.4.16-.4.4v.4H8.2V.4c0-.24-.16-.4-.4-.4-.24 0-.4.16-.4.4v.4H3.8c-.24 0-.4.16-.4.4v22H20.6c.24 0 .4-.16.4-.4V5.2c0-.24-.16-.4-.4-.4h-1.2z"/>
        <path fill="#CCF2E9" d="M14.6 22.4h5.6V20h-5.6zM9.4 22.4h2.4v-3.2H9.4zM6.2 22.4h2.4v-3.2H6.2z"/>
        <path fill="#FFF" d="M4.2 19.6v-18h9.6v20.8h-1.2v-3.6c0-.24-.16-.4-.4-.4H5.8c-.24 0-.4.16-.4.4v3.6H4.2v-2.8z"/>
        <path fill="#CCF2E9" d="M14.6 19.2h5.6V5.6h-5.6z"/>
        <path fill="#00BF8F" d="M17 18.4h.8c.44 0 .8-.36.8-.8v-.8c0-.44-.36-.8-.8-.8H17c-.44 0-.8.36-.8.8v.8c0 .44.36.8.8.8zM17 15.2h.8c.44 0 .8-.36.8-.8v-.8c0-.44-.36-.8-.8-.8H17c-.44 0-.8.36-.8.8v.8c0 .44.36.8.8.8zM17 12h.8c.44 0 .8-.36.8-.8v-.8c0-.44-.36-.8-.8-.8H17c-.44 0-.8.36-.8.8v.8c0 .44.36.8.8.8zM17 8.8h.8c.44 0 .8-.36.8-.8v-.8c0-.44-.36-.8-.8-.8H17c-.44 0-.8.36-.8.8V8c0 .44.36.8.8.8z"/>
        <path fill="#FFF" d="M17 17.6h.8v-.8H17zM17 14.4h.8v-.8H17zM17 11.2h.8v-.8H17zM17 8h.8v-.8H17z"/>
        <g fill="#FFF">
            <path d="M10.6 14.8h.8V14h-.8zM6.6 14.8h.8V14h-.8zM10.6 11.6h.8v-.8h-.8zM6.6 11.6h.8v-.8h-.8zM10.6 8.4h.8v-.8h-.8zM6.6 8.4h.8v-.8h-.8zM10.6 5.2h.8v-.8h-.8zM6.6 5.2h.8v-.8h-.8z"/>
        </g>
        <text fill="#00BF8F" font-family="SFUIText-Semibold, SF UI Text" font-size="11" font-weight="500" letter-spacing="-.393" transform="translate(3)">
            <tspan x="2.5" y="14">9</tspan>
        </text>
    </g>
</svg>
