<svg xmlns="http://www.w3.org/2000/svg" width="24" height="24" viewBox="0 0 24 24">
    <g fill="none" fill-rule="evenodd">
        <path d="M0 0h24v24H0z"/>
        <path fill="#00BF8F" d="M19.64 17.208l-2.917-1.263a.593.593 0 0 1-.211-.231l1.958-.002s.113.011.288.011c.322 0 .791-.036 1.2-.212a.89.89 0 0 0 .373-1.33c-.56-.795-1.865-2.876-1.906-4.986-.001-.036-.12-3.625-3.663-3.654a4.45 4.45 0 0 0-1.012.124 3.24 3.24 0 0 1 .2 1.373v1.42c.194.276.3.605.3.942v1.2c0 .572-.302 1.102-.782 1.399a7.29 7.29 0 0 1-1.018 1.867v.858c0 .133.071.248.19.307l2.865 1.433a3.138 3.138 0 0 1 1.745 2.823V20.5H21v-1.11c0-.926-.515-1.76-1.36-2.182m-4.336-.341l-2.866-1.433a.789.789 0 0 1-.438-.71V13.71c.069-.084.141-.18.216-.285.371-.525.67-1.11.886-1.74A1.19 1.19 0 0 0 13.8 10.6V9.4c0-.289-.108-.569-.3-.787V7.017c.017-.165.083-1.147-.628-1.958C12.256 4.356 11.256 4 9.9 4c-1.356 0-2.356.356-2.972 1.059-.71.81-.645 1.793-.628 1.957v1.596c-.192.219-.3.499-.3.788v1.2c0 .365.166.705.45.932a6.296 6.296 0 0 0 1.05 2.171v.993c0 .29-.158.557-.413.696l-2.676 1.46A2.706 2.706 0 0 0 3 19.229V20.5h13.8v-1.213c0-1.032-.573-1.959-1.496-2.42"/>
    </g>
</svg>
