<svg xmlns="http://www.w3.org/2000/svg" width="24" height="24" viewBox="0 0 24 24">
    <g fill="none" fill-rule="evenodd">
        <path fill="#FFF" d="M-18-803h360v1818H-18z"/>
        <path fill="#F2F2F5" d="M-18 1556h375V-60H-18z"/>
        <g transform="translate(-10 -14)">
            <rect width="344" height="316" fill="#FFF" rx="5"/>
            <path fill="#00BF8F" d="M29.4 18.8v-.4c0-.24-.16-.4-.4-.4-.24 0-.4.16-.4.4v.4H27v-.4c0-.24-.16-.4-.4-.4-.24 0-.4.16-.4.4v.4h-1.6v-3.6c0-.24-.16-.4-.4-.4h-3.6v-.4c0-.24-.16-.4-.4-.4-.24 0-.4.16-.4.4v.4h-1.6v-.4c0-.24-.16-.4-.4-.4-.24 0-.4.16-.4.4v.4h-3.6c-.24 0-.4.16-.4.4v22H30.6c.24 0 .4-.16.4-.4V19.2c0-.24-.16-.4-.4-.4h-1.2z"/>
            <path fill="#CCF2E9" d="M24.6 36.4h5.6V34h-5.6zM19.4 36.4h2.4v-3.2h-2.4zM16.2 36.4h2.4v-3.2h-2.4z"/>
            <path fill="#FFF" d="M14.2 33.6v-18h9.6v20.8h-1.2v-3.6c0-.24-.16-.4-.4-.4h-6.4c-.24 0-.4.16-.4.4v3.6h-1.2v-2.8z"/>
            <path fill="#CCF2E9" d="M24.6 33.2h5.6V19.6h-5.6z"/>
            <path fill="#00BF8F" d="M27 32.4h.8c.44 0 .8-.36.8-.8v-.8c0-.44-.36-.8-.8-.8H27c-.44 0-.8.36-.8.8v.8c0 .44.36.8.8.8zM27 29.2h.8c.44 0 .8-.36.8-.8v-.8c0-.44-.36-.8-.8-.8H27c-.44 0-.8.36-.8.8v.8c0 .44.36.8.8.8zM27 26h.8c.44 0 .8-.36.8-.8v-.8c0-.44-.36-.8-.8-.8H27c-.44 0-.8.36-.8.8v.8c0 .44.36.8.8.8zM27 22.8h.8c.44 0 .8-.36.8-.8v-.8c0-.44-.36-.8-.8-.8H27c-.44 0-.8.36-.8.8v.8c0 .44.36.8.8.8z"/>
            <path fill="#FFF" d="M27 31.6h.8v-.8H27zM27 28.4h.8v-.8H27zM27 25.2h.8v-.8H27zM27 22h.8v-.8H27z"/>
            <g fill="#FFF">
                <path d="M20.6 28.8h.8V28h-.8zM16.6 28.8h.8V28h-.8zM20.6 25.6h.8v-.8h-.8zM16.6 25.6h.8v-.8h-.8zM20.6 22.4h.8v-.8h-.8zM16.6 22.4h.8v-.8h-.8zM20.6 19.2h.8v-.8h-.8zM16.6 19.2h.8v-.8h-.8z"/>
            </g>
            <text fill="#00BF8F" font-family="SFUIText-Semibold, SF UI Text" font-size="11" font-weight="500" letter-spacing="-.393" transform="translate(13 14)">
                <tspan x="3" y="14">1</tspan>
            </text>
        </g>
    </g>
</svg>
