<svg xmlns="http://www.w3.org/2000/svg" width="24" height="24" viewBox="0 0 24 24">
    <g fill="none" fill-rule="evenodd">
        <path d="M0 0h24v24H0z"/>
        <path fill="#00BF8F" d="M18.712 6.274l.521 1.495 1.583.033c.178.004.251.23.11.338l-1.262.958.458 1.516c.051.17-.14.31-.287.208l-1.301-.902-1.3.902a.187.187 0 0 1-.287-.208l.456-1.516-1.261-.958c-.141-.107-.068-.334.11-.338l1.583-.033.52-1.495c.06-.168.298-.168.357 0m.131 7.218l.347.995 1.055.023a.162.162 0 0 1 .094.29l-.84.638.304 1.009c.044.146-.122.266-.246.178l-.867-.6-.866.6a.161.161 0 0 1-.246-.178l.304-1.01-.84-.637a.161.161 0 0 1 .094-.29l1.054-.023.348-.995a.162.162 0 0 1 .305 0M12.108 5.29l.36 1.036 1.098.024c.14.003.196.18.086.263l-.874.664.317 1.05c.04.133-.11.242-.224.163l-.902-.626-.901.626a.147.147 0 0 1-.224-.163l.317-1.05-.874-.664a.147.147 0 0 1 .085-.263l1.098-.024.36-1.036a.147.147 0 0 1 .278 0M7.8 9.095c0-1.308.353-2.53.963-3.586.148-.256-.075-.571-.36-.498a7.194 7.194 0 0 0-5.378 7.59c.29 3.425 3.057 6.22 6.48 6.54a7.172 7.172 0 0 0 5.989-2.301c.197-.215.029-.564-.262-.552A7.198 7.198 0 0 1 7.8 9.094"/>
    </g>
</svg>
