<svg xmlns="http://www.w3.org/2000/svg" xmlns:xlink="http://www.w3.org/1999/xlink" width="32" height="32" viewBox="0 0 32 32">
    <defs>
        <path id="a" d="M15.475 32.466c0-.968-3.384-8.395-6.348-11.505C7.356 19.099 5 16.169 5 12.216 5 6.03 9.934 1 16 1s11 5.031 11 11.216c0 3.373-1.651 6.569-4.774 9.24-3.72 3.183-5.702 10.011-5.702 11.009a.533.533 0 0 1-.525.535.53.53 0 0 1-.524-.534z"/>
    </defs>
    <g fill="none" fill-rule="evenodd">
        <path d="M0-1h32v32H0z"/>
        <g transform="translate(0 -1)">
            <use fill="#F26522" xlink:href="#a"/>
            <path stroke="#FFF" d="M15.975 32.466c0 .02.014.034.021.034.013 0 .028-.015.028-.035 0-2.252 2.803-8.758 5.877-11.39 3.017-2.58 4.599-5.641 4.599-8.86C26.5 6.306 21.787 1.5 16 1.5S5.5 6.305 5.5 12.216c0 3.14 1.422 5.701 3.989 8.4 2.574 2.7 6.486 10.311 6.486 11.85z"/>
        </g>
        <path fill="#FFF" d="M16 17c-3.309 0-6-2.691-6-6s2.691-6 6-6 6 2.691 6 6-2.691 6-6 6"/>
    </g>
</svg>
