<svg xmlns="http://www.w3.org/2000/svg" width="24" height="24" viewBox="0 0 24 24">
    <g fill="none" fill-rule="evenodd">
        <path d="M0 0h24v24H0z"/>
        <path fill="#00BF8F" d="M15.6 9.6h1.8V8.4h-1.8v1.2zm0-3.3h1.8V5.1h-1.8v1.2zm0 6.6h1.8v-1.2h-1.8v1.2zm-9 0h1.8v-1.2H6.6v1.2zm0-3.3h1.8V8.4H6.6v1.2zm0-3.3h1.8V5.1H6.6v1.2zm4.5 3.3h1.8V8.4h-1.8v1.2zm0 3.3h1.8v-1.2h-1.8v1.2zm0-6.6h1.8V5.1h-1.8v1.2zm9.3 14.1H3.6v-.6h16.8v.6zM6 11.4a.3.3 0 0 1 .3-.3h2.4a.3.3 0 0 1 .3.3v1.8a.3.3 0 0 1-.3.3H6.3a.3.3 0 0 1-.3-.3v-1.8zm0-3.3a.3.3 0 0 1 .3-.3h2.4a.3.3 0 0 1 .3.3v1.8a.3.3 0 0 1-.3.3H6.3a.3.3 0 0 1-.3-.3V8.1zm0-3.3a.3.3 0 0 1 .3-.3h2.4a.3.3 0 0 1 .3.3v1.8a.3.3 0 0 1-.3.3H6.3a.3.3 0 0 1-.3-.3V4.8zm3.3 11.1a.3.3 0 0 1 .3-.3h4.8a.3.3 0 0 1 .3.3v3.3h-.6v-3h-1.8v3h-.6v-3H9.9v3h-.6v-3.3zm.9-1.5h3.6a.3.3 0 1 1 0 .6h-3.6a.3.3 0 1 1 0-.6zm.3-3a.3.3 0 0 1 .3-.3h2.4a.3.3 0 0 1 .3.3v1.8a.3.3 0 0 1-.3.3h-2.4a.3.3 0 0 1-.3-.3v-1.8zm0-3.3a.3.3 0 0 1 .3-.3h2.4a.3.3 0 0 1 .3.3v1.8a.3.3 0 0 1-.3.3h-2.4a.3.3 0 0 1-.3-.3V8.1zm0-3.3a.3.3 0 0 1 .3-.3h2.4a.3.3 0 0 1 .3.3v1.8a.3.3 0 0 1-.3.3h-2.4a.3.3 0 0 1-.3-.3V4.8zm4.5 6.6a.3.3 0 0 1 .3-.3h2.4a.3.3 0 0 1 .3.3v1.8a.3.3 0 0 1-.3.3h-2.4a.3.3 0 0 1-.3-.3v-1.8zm0-3.3a.3.3 0 0 1 .3-.3h2.4a.3.3 0 0 1 .3.3v1.8a.3.3 0 0 1-.3.3h-2.4a.3.3 0 0 1-.3-.3V8.1zm0-3.3a.3.3 0 0 1 .3-.3h2.4a.3.3 0 0 1 .3.3v1.8a.3.3 0 0 1-.3.3h-2.4a.3.3 0 0 1-.3-.3V4.8zm5.7 14.4h-.9V3.3a.3.3 0 0 0-.3-.3h-15a.3.3 0 0 0-.3.3v15.9h-.9a.3.3 0 0 0-.3.3v1.2a.3.3 0 0 0 .3.3h17.4a.3.3 0 0 0 .3-.3v-1.2a.3.3 0 0 0-.3-.3z"/>
    </g>
</svg>
