<svg xmlns="http://www.w3.org/2000/svg" width="40" height="40" viewBox="0 0 40 40">
    <g fill="none" fill-rule="evenodd">
        <rect width="40" height="40" fill="#1ABC9C" rx="20"/>
        <path fill="#FFF" d="M26.32 22.611a4.843 4.843 0 0 0-.42-1.024 3.467 3.467 0 0 0-.71-.85 8.48 8.48 0 0 0-.83-.67 8.1 8.1 0 0 0-1.012-.57 18.14 18.14 0 0 0-1.018-.468c-.25-.103-.612-.243-1.085-.422-.42-.16-.732-.283-.937-.368a20.66 20.66 0 0 1-.81-.362 4.722 4.722 0 0 1-.75-.415 5.894 5.894 0 0 1-.53-.442 1.508 1.508 0 0 1-.395-.556 1.772 1.772 0 0 1-.113-.643c0-.607.267-1.102.803-1.486.536-.384 1.228-.576 2.076-.576.375 0 .757.051 1.145.154.388.103.72.219.998.348.277.13.538.273.783.429.246.156.42.274.523.355.103.08.168.134.194.16.116.09.237.121.362.094.133-.009.236-.08.308-.214l1.085-1.955c.107-.179.085-.349-.067-.51a4.555 4.555 0 0 0-.201-.187c-.08-.071-.255-.2-.523-.388a6.464 6.464 0 0 0-.85-.503 8.602 8.602 0 0 0-1.165-.448 7.43 7.43 0 0 0-1.48-.308V8.429a.418.418 0 0 0-.12-.308.418.418 0 0 0-.309-.121h-1.808a.412.412 0 0 0-.301.127.412.412 0 0 0-.128.302v2.41c-1.401.268-2.54.866-3.415 1.795-.875.929-1.312 2.009-1.312 3.241 0 .366.038.714.114 1.044.075.331.17.628.28.891.112.264.271.523.476.777.206.255.4.473.583.656.183.183.422.373.716.57.295.196.547.355.757.475.21.12.49.259.837.415.348.156.623.274.824.355l.824.334c.482.188.84.333 1.071.436.233.103.527.245.884.428.358.183.619.35.784.503.165.151.315.339.449.562.134.223.2.46.2.71 0 .705-.274 1.25-.823 1.634-.55.384-1.186.576-1.909.576-.33 0-.66-.036-.99-.107-1.161-.233-2.246-.79-3.255-1.675l-.027-.026a.332.332 0 0 0-.321-.12c-.143.017-.246.07-.308.16l-1.38 1.808c-.134.179-.125.362.027.55.045.053.123.133.234.24.112.108.32.275.623.503.304.228.634.442.991.643.358.2.81.4 1.36.596.549.196 1.118.334 1.707.415v2.343c0 .117.043.217.128.302a.411.411 0 0 0 .3.127h1.81c.124 0 .227-.04.307-.12.08-.08.12-.183.12-.309v-2.343c1.42-.232 2.575-.842 3.463-1.829.888-.986 1.333-2.163 1.333-3.529 0-.446-.059-.866-.176-1.259"/>
    </g>
</svg>
