<svg xmlns="http://www.w3.org/2000/svg" width="16" height="16" viewBox="0 0 16 16">
    <g fill="none" fill-rule="evenodd" opacity=".6">
        <path d="M0 0h16v16H0z"/>
        <path fill="#FFF" d="M10.545 7.818a1.909 1.909 0 1 0 0-3.818 1.909 1.909 0 0 0 0 3.818m-5.09 0a1.909 1.909 0 1 0 0-3.818 1.909 1.909 0 0 0 0 3.818m0 1.273C3.972 9.09 1 9.835 1 11.318v1.591h8.91v-1.59c0-1.484-2.973-2.228-4.455-2.228m5.09 0c-.184 0-.394 0-.617.032.738.534 1.254 1.24 1.254 2.195v1.591H15v-1.59c0-1.484-2.972-2.228-4.455-2.228"/>
    </g>
</svg>
