<svg xmlns="http://www.w3.org/2000/svg" width="56" height="56" viewBox="0 0 56 56">
    <g fill="none" fill-rule="evenodd">
        <rect width="56" height="56" fill="#1ABC9C" rx="28"/>
        <path fill="#FFF" d="M34.4 23.733h3.2V21.6h-3.2v2.133zm0-5.866h3.2v-2.134h-3.2v2.134zm0 11.733h3.2v-2.133h-3.2V29.6zm-16 0h3.2v-2.133h-3.2V29.6zm0-5.867h3.2V21.6h-3.2v2.133zm0-5.866h3.2v-2.134h-3.2v2.134zm8 5.866h3.2V21.6h-3.2v2.133zm0 5.867h3.2v-2.133h-3.2V29.6zm0-11.733h3.2v-2.134h-3.2v2.134zm16.533 25.066H13.067v-1.066H42.933v1.066zm-25.6-16c0-.295.239-.533.534-.533h4.266c.295 0 .534.238.534.533v3.2a.533.533 0 0 1-.534.534h-4.266a.533.533 0 0 1-.534-.534v-3.2zm0-5.866c0-.295.239-.534.534-.534h4.266c.295 0 .534.239.534.534v3.2a.533.533 0 0 1-.534.533h-4.266a.533.533 0 0 1-.534-.533v-3.2zm0-5.867c0-.295.239-.533.534-.533h4.266c.295 0 .534.238.534.533v3.2a.533.533 0 0 1-.534.533h-4.266a.533.533 0 0 1-.534-.533v-3.2zM23.2 34.933c0-.295.238-.533.533-.533h8.534c.295 0 .533.238.533.533V40.8h-1.067v-5.333h-3.2V40.8h-1.066v-5.333h-3.2V40.8H23.2v-5.867zm1.6-2.666h6.4a.533.533 0 1 1 0 1.066h-6.4a.533.533 0 1 1 0-1.066zm.533-5.334c0-.295.239-.533.534-.533h4.266c.295 0 .534.238.534.533v3.2a.533.533 0 0 1-.534.534h-4.266a.533.533 0 0 1-.534-.534v-3.2zm0-5.866c0-.295.239-.534.534-.534h4.266c.295 0 .534.239.534.534v3.2a.533.533 0 0 1-.534.533h-4.266a.533.533 0 0 1-.534-.533v-3.2zm0-5.867c0-.295.239-.533.534-.533h4.266c.295 0 .534.238.534.533v3.2a.533.533 0 0 1-.534.533h-4.266a.533.533 0 0 1-.534-.533v-3.2zm8 11.733c0-.295.239-.533.534-.533h4.266c.295 0 .534.238.534.533v3.2a.533.533 0 0 1-.534.534h-4.266a.533.533 0 0 1-.534-.534v-3.2zm0-5.866c0-.295.239-.534.534-.534h4.266c.295 0 .534.239.534.534v3.2a.533.533 0 0 1-.534.533h-4.266a.533.533 0 0 1-.534-.533v-3.2zm0-5.867c0-.295.239-.533.534-.533h4.266c.295 0 .534.238.534.533v3.2a.533.533 0 0 1-.534.533h-4.266a.533.533 0 0 1-.534-.533v-3.2zm10.134 25.6h-1.6V12.533a.533.533 0 0 0-.534-.533H14.667a.533.533 0 0 0-.534.533V40.8h-1.6a.533.533 0 0 0-.533.533v2.134c0 .295.238.533.533.533h30.934a.533.533 0 0 0 .533-.533v-2.134a.533.533 0 0 0-.533-.533z"/>
    </g>
</svg>
