<svg xmlns="http://www.w3.org/2000/svg" width="40" height="40" viewBox="0 0 40 40">
    <g fill="none" fill-rule="evenodd">
        <path fill="#EBEBEB" d="M20.342.003C9.298-.186.192 8.614.003 19.658c-.107 6.262 2.684 11.89 7.128 15.632.29-.253.602-.486.948-.674l5.968-3.255a2.438 2.438 0 0 0 1.27-2.14v-2.445s-1.752-2.095-2.42-5.006a2.007 2.007 0 0 1-.925-1.684V17.41c0-.589.262-1.115.669-1.483v-3.869s-.795-6.02 7.358-6.02c8.154 0 7.359 6.02 7.359 6.02v3.869c.407.368.668.894.668 1.483v2.676c0 .9-.603 1.656-1.423 1.91a14.725 14.725 0 0 1-1.986 4.002c-.22.31-.425.573-.605.778v2.507c0 .924.522 1.767 1.347 2.18l6.39 3.194c.384.192.73.434 1.05.704 4.309-3.594 7.093-8.968 7.197-15.02.19-11.043-8.61-20.15-19.654-20.338"/>
        <path fill="#BDBDBD" d="M14.047 31.36L8.08 34.615c-.35.19-.665.426-.958.681A19.903 19.903 0 0 0 20 40a19.92 19.92 0 0 0 12.803-4.636 5.281 5.281 0 0 0-1.052-.706l-6.39-3.194a2.437 2.437 0 0 1-1.347-2.18v-2.508c.179-.204.384-.466.604-.777a14.64 14.64 0 0 0 1.986-4.003 2.007 2.007 0 0 0 1.424-1.91V17.41c0-.588-.262-1.114-.669-1.483V12.06s.795-6.02-7.358-6.02c-8.154 0-7.359 6.02-7.359 6.02v3.868a1.995 1.995 0 0 0-.669 1.483v2.677c0 .704.37 1.325.926 1.683.668 2.911 2.42 5.006 2.42 5.006v2.446c-.001.891-.489 1.711-1.272 2.138"/>
    </g>
</svg>
