<svg xmlns="http://www.w3.org/2000/svg" width="72" height="72">
    <path fill="none" d="M0 0h72v72H0V0z"/>
    <path fill="#BEEFE2" fill-rule="evenodd" d="M55.5 11.697c4.142 0 7.5 3.387 7.5 7.564 0 4.178-3.358 7.564-7.5 7.564-4.142 0-7.5-3.386-7.5-7.564 0-4.177 3.358-7.564 7.5-7.564m-42 48.409c-2.485 0-4.5-2.032-4.5-4.538 0-2.507 2.015-4.539 4.5-4.539h21c2.485 0 4.5 2.032 4.5 4.539 0 2.506-2.015 4.538-4.5 4.538h-21m34.77-3.026l-4.2-12.102H33L20.25 32.12S27 24.556 37.5 24.556c9 0 10.05 3.026 10.68 4.901l8.58 24.598c.84 2.36-.42 4.961-2.76 5.809a4.498 4.498 0 0 1-5.73-2.784z"/>
</svg>
