<svg xmlns="http://www.w3.org/2000/svg" width="150" height="40" viewBox="0 0 150 40">
    <defs>
        <linearGradient id="a" x1="94.97%" x2="32.479%" y1="50.228%" y2="50.228%">
            <stop offset="0%" stop-color="#19BFA9"/>
            <stop offset="100%" stop-color="#4FDEA0"/>
        </linearGradient>
    </defs>
    <path fill="url(#a)" fill-rule="evenodd" d="M39.334 3.648h.332v-.385h-.332v.385zM32 7.576l-.688-.315c-.105.04-.208.08-.312.122l.808.268.192-.075zm234.334 29.073h.332v-.386h-.332v.386zm-20-13h.332v-.386h-.332v.385zm-245 0h.332v-.386h-.332v.386zm245 0h.332v-.386h-.332v.386zM14.192 22.65l.808-.27-.312-.12-.688.315.192.075zm250.142-.002h.332v-.386h-.332v.386zm0 0h.332v-.386h-.332v.386zm-8.332 17.87h.996v-.127h-.996v.128zm28-4h.996v-.127h-.996v.128zM31.334 31.65h.332v-.386h-.332v.386zM17 29.336l.689.315.311-.122-.807-.269-.193.076zm1 .24l-.689-.315-.311.12.807.27.193-.075zm-10.666.073h.332v-.386h-.332v.386zm263-1h.332v-.386h-.332v.386zm-253-1h.332v-.386h-.332v.386zm249 0h.332v-.386h-.332v.386zm9-2h.332v-.386h-.332v.386zm-225 11h.332v-.386h-.332v.386zM31 35.336l.688.315.312-.12-.807-.27-.193.075zm-2.666.313h.332v-.386h-.332v.386zm-11 0h.332v-.386h-.332v.386zm256-1h.332v-.386h-.332v.386zM21.808 34.26l-.808.27.312.121.688-.315-.192-.076zm-.616-.61c.27-.088.54-.178.808-.268l-.312-.121-.688.315.192.075zM266.334 14.65h.332v-.386h-.332v.386zm-259 1h.332v-.386h-.332v.386zm239 0h.332v-.386h-.332v.386zm1-10h.332v-.386h-.332v.386zm-228 2h.332v-.386h-.332v.386zm-16 5h.332v-.386h-.332v.386zm254 2h.332v-.386h-.332v.386zm-245 2h.332v-.386h-.332v.386zm157-15h.332v-.386h-.332v.386zm1 0h.332v-.386h-.332v.386zm40 0h.332v-.386h-.332v.386zm18 0h.332v-.386h-.332v.386zm-80 0h.332v-.386h-.332v.386zm98 10h.332v-.386h-.332v.386zM257 8.336l.688.315.312-.121-.808-.27-.192.076zm-63.666-4.687h.332v-.386h-.332v.386zm42 0h.332v-.386h-.332v.386zm16.74 7.496l.362.644c.165-.01.327-.018.49-.026v-.64l-.852.022zM17.061 34.622l.938-.15-.045-.183H17l.062.333zm14.36 1.05c.197-.026.386-.107.578-.167l-1-.265c.28.295.363.44.421.432zm1.647-.509l.387.627.474-.03v-.639c-.286.014-.574.027-.86.042zM270.942 24.29l-.942.15.045.184H271l-.058-.334zm-247.364-.05c-.197.026-.386.107-.578.167l1 .266c-.28-.296-.362-.44-.422-.433zM199.033 3.621l.967-.14a63.265 63.265 0 0 1-.038-.19H199l.033.33zm3.307.201l.658-.028V3.09h-.996l.338.733zm57.591 36.93l-.389-.63c-.158.01-.315.02-.473.028v.64l.862-.038zm-2.004.015l-.363-.644-.491.026v.64l.854-.022zM41.251 3.84h.498v-.77h-.498v.77zm83.781 38.78l.968-.14-.038-.19H125l.032.33zm4 0l.968-.14a63.265 63.265 0 0 0-.038-.19H129l.033.33zm-12.962.541l.386.628.474-.03v-.639l-.86.041zm150.18-20.32h.5v-.772h-.5v.771zm-259.18.321l.386.627.474-.03v-.639c-.287.013-.573.027-.86.042zm218-22l.387.627.473-.03v-.639c-.287.013-.574.027-.86.042zm-6.996-.019l.362.644.49-.026v-.639l-.852.021zm43.852 22.623c-.12-.215-.241-.43-.363-.644l-.49.025v.64l.853-.02zM223.938 1.29l-.938.15c.016.06.03.122.045.184H224l-.062-.334zm17.989 11.478c-.12-.215-.242-.429-.363-.644-.163.01-.327.017-.49.026v.64l.852-.022zm10.324 3.074h.498v-.77h-.498v.77zM212 .858L211.287 0c-.734 1.115.1.921.713.858zm-38.106.997L173 .987v.937l.894-.069zM24 7.711l-.149-.51-.851.51h1zm2.251.245h.498v-1h-.498v1zm224.68 7.335l-.931.374h1l-.07-.374zm22.667 23.557l.402-.122v-.663h-1l.598.785zM72 42.141l-1 .172c.522.24.79.361 1 .457v-.629zm3.942.782l-.377-.967-.507.02v.98l.883-.033zM223 43.77l1-.172-1-.457v.63zm-90 .069l-.745-.821c-.636 1.027.032.908.745.82zm154.032-17.212c.323-.05.646-.097.968-.146l-.02-.196H287l.032.342zM283 27.956v1h1l-1-1zM10 29.219l.936.508c.14-.582.14-.582-.936-.508zm33.874 5.959l-.874.29.17.213.83.053-.126-.556zM287 36.278l1 .494v-.633l-1 .138zM4.401 11.062L4 11.185v.663h1l-.599-.785zm-3.7 10.893L0 22.062l.212.894L1 22.19l-.3-.235zm260.299.91l1-.143-.201-.677H261v.82zm-23-10.82l.142.82c.276-.266.458-.439.858-.82h-1zm-9 31.58l-.106-.597-.894.18.765.673.235-.256zm-128-.67l1-1h-1v1zm-9.7 0c.202-.03.404-.06.7-.106l-.211-.894-.789.765.3.235zM288 36.817l-.405-.723-.595.723h1zm-244.958.004H44l-1-.73.042.73zM266 35.046l.142.82.858-.82h-1zm-240-.785l.136.568h.86c.043-.86-.355-.867-.996-.568zm2.019-.64l.981-.092a69.645 69.645 0 0 1-.011-.238H28l.019.33zM208.933.66L211 .417a31.35 31.35 0 0 0-.31-.172H207l1.933.415zM184 1.046l.142.82.858-.82h-1zM14 7.012l.096.887.904-.887h-1zm247 13.944l1-.751c-.4-.1-.63-.156-1-.25v1zm-239.003 4.2c.028-.055-.128-.187-.075-.114l-.922.849c.635-.06.642-.057.997-.735zM282 28.321h-4c1.339.27 2.71.44 4 0zM9 26.956v1c.793-.225 1.078-.534.982-1H9zm54 15.93l-.235-.861-.765.862h1zm198-3.93l1-.113-1-.887v1zm16-1l1-.871-1-.13v1zM251.17 2.972l-.17.968h1l-.83-.968zM103 41.956v1l1-.119-1-.881zm99-39l-1 .067.15.933h.85v-1zm74 37.192h-1v.578c.891.083.891.083 1-.578zm-133.19 1.808l-.81.758.6.242.4-.817-.19-.183zM83 42.802l-.55-.846-.45.488a540 540 0 0 0 .822.512l.178-.154zm39.35-.721l-2.35.089 1.453.66H124c-.745-.337-1.13-.513-1.65-.75zm1.661 1.875c.222-.186.324-.31.458-.374.147-.07.325-.088.531-.139l-.213-.487c-.496.108-.856.274-.776 1zM281 25.87h4l-.339-.83c-1.152.26-2.082.472-3.661.83zM6.715 11.838L10 11.073H6l.715.765zm214.283-9.874c-.648-.064-.819.264-.998.992.685-.246 1.032-.406.998-.992zm-4.065-.008c-.605.119-1.008.288-.921 1 .752-.157 1.157-.358.92-1zM256 9.9l-1-.944v1l1-.056zm-5.04-2.814H247l.305.74c1.352-.203 2.524-.379 3.695-.553-.012-.063-.026-.125-.04-.187zm-1.809-1.13c1.132-.279 2.525-.423 1.48-1L247 5.429l2.151.527zm32.894 25.807c.268-.15.495-.274.804-.445l1.977.55.174-.824h-4l1.045.719zM255 9.956v-1h-1l1 1zm-80 33.327l2.975.673 1.025-.437c-.524-.074-1.052-.091-1.335-.205-.328-.13-.441-.345-.456-.358-.726.108-1.344.2-2.209.327zm82.861-1.815l.292.079-.755.175c-.06-.016-.12-.033-.897-.403-.978-.256-1.239-.158-1.501-.06 1.47.157 1.813.673 4 .697v-1l-1.814.27c-.588-.109-.995-.185-.685.093.931.286 1.146.217 1.36.149zM243 2.956c-1.052.134-1.661.255-2.311.286-.86.04-1.75.01-2.689.01v.704c1.476-.663 3.762-.234 5-1zM10.985 23.038l-.78.3-2.084-.382-.121.55 3.722.45c.76-.498-.226-.665-.737-.918zM282 25.746l-1.238-.79-2.762.477.183.523c1.145-.063 2.349.102 3.817-.21zm-46.045-13.068c.146-.393-.048-.653-.779-.722-.51.417.244.662.311 1l.468-.278zM203.142.973l-.142.712c1.288.094 2.423.178 3.706.27.051-.016.292-.108.554-.177.243-.064.508-.105.74-.151l-.117-.671c-1.654.642-3.136.645-4.741.017zM265 40.768l-1.443-.77-.635.267-1.922-.31v1c1.272-.06 2.5.085 4-.187zM241.236 3.946c1.37-.14 2.538-.262 3.764-.388l-.307-.593H240l1.236.981zM21.99 28.664l-.647-.708-3.344.548.26.452h2.99l.741-.292zM245 3.344l-1.213-.388c-.93.47-1.85.233-2.839.02l-1.948.98 6-.612zm11.887 15.612l-.887.694 2.372.306 1.628-.213-3.113-.787zM215 2.744v-.625l-2.071.473c-.45-.15-1.014-.335-1.929-.636v.817c.639.056 1.257.11 2.068.183L215 2.744zm50.455 37.212c-.024-.009-.212.13-.455.283l.947.717h3.114l.939-.778c-1.732.163-3.142.313-4.545-.222zm-224.75-5l-.576.375-1.444-.203c-.528.15-.97.273-1.685.474l1.784.229c.85-.244 1.947-.108 3.216.125l-1.295-1zm6.68-.784l-1.125-.192c-1.087.266-1.75.53-.813.976l3.553-.35v-.65l-1.616.216zM259 8.649l-1.317-.693-2.683.573 3.08.427.92-.307zM6 25.956H1.87l-.87.492c1.25.484 2.625.572 4.237.47L6 25.956zm6.3-9l1.7-.587-1.927-.272.32-.141L9 16.019v.566l3.3.37zM39.334 3.648h.332v-.385h-.332v.385zM35 3.63v-.373l2.447-.3 1.164.18.986-.151.403.093-2.13.878L35 3.629zm243 32.952l4.226.375 1.774-.4v-.492c-3.321-.19-3.321-.19-6 .517zM247.795 1.956c-.646.32-1.655.455-1.795 1 1.792-.076 3.467-.122 5-.528-.337-.132-.523-.228-.766-.292-.224-.06-.507-.084-.742-.12l-.672.25c-.297-.09-.59-.18-1.025-.31zm-86.337 40.929l.661-.164 1.881.235c-.287-.398.373-.714-.812-.948-.133-.026-.305-.036-.446-.052l-1.21.342-.7-.182-1.832.516 2.458.253zM9.048 26.955c1.214-.241 2.928-.133 3.952-.658-2.05-.142-3.955-.646-6-.076l2.048.735zm116.803 15c-.887.301-1.19.587-.376 1l1.752-.52.442.179 1.122-.256.808.293 1.401-.695h-5.15zm78.598-39l.529-.36H208v-.64l-1.296.555c-.953-.266-1.657-.284-2.356-.06l-.722-.356c-1.257.106-1.873.282-1.534.658.738.063 1.516.13 2.357.204zM37.008 34.222l-1.094-.256-1.49.45-1.43-.235-.994.597c.83.364 1.404-.191 2.307.074.449.131 1.7-.057 2.773-.11l.92.215-.143-1-.85.265zm119.947 9.735l1.036-.53c.97.16 1.663.273 2.261.37.898-.095 1.79-.19 2.748-.29l-.415-.312-1.214.273-1.738-.484c-2.137-.09-3.886.023-5.633.626l2.955.347zm-97.955-2l1.017 1h6.428l1.555-1h-9zm-53.722-18c1.079-.03 2.315.033 3.196-.113 1.092-.181 1.804-.128 2.625.078.914-.372 1.908.27 2.901-.07v-.895l-1.38.586-1.173-.28-1.491.26-1.452-.258-.845.21-1.34-.232L5 23.73l.278.226zm149.882 18H148c3.865.234 7.296 1.244 12 .945l-4.84-.945zm97.066 0l.774-.251-.981-.75-1.187.166-.756-.162-.909.69-.174-.04-.993.347h4.226zm-227.653-32c.975-.21 1.762-.38 2.427-.522v-.477c-2.408.048-4.736-.109-6.878.196-.637-.074-1.157-.403-2.122-.002l1.695.49 3.443.265c.18-.126.33-.234.608-.43l.827.48zm22.496 25.886l3.537.114L53 35.804l-3.539-.226v-.412l-3.27-.21-1.155.335H44c.417.29 2.659.303 3.069.55zM93 42.772l1.264.184h6.21L104 42.54l-4.637-.095-1.172.079c-.864-.18.293-.418-1.167-.534-.172-.013-.353-.024-.517-.035l-1.336.198-1.764-.147-.251.23 1.862.099-2.018.436zM30.905 6.648c.075-.014.15-.028.226-.04l.5.104c-.046.008-.093.016-3.58.134-1 .222 1.285.061 3.467-.078.91-.058.698.105 1.393.051L33 6.524c-1.848-.295-3.852-.457-6.006-.568l-1.523.229-.925-.088-.546.75c.104.019.355.064 4.05 0 3.246-.14 3.05-.17 2.855-.2zM197.34 2.612l-.418.088 1.97.256.107-.32c-.67-.01-1.164-.017-4 .165 2.416-.196 2.416-.196 1.536-.438l.77-.172-1.176-.235c-1.73.212-1.387.516 1.211.656zm2.343.23l-2.925-.185-1.178.299c-2.429-.326-2.429-.326-3.676-.973l1.475-.323-.258-.108-1.572.173-.55-.309c2.752-.154 5.117-.592 8.059-.422l.941.251c-.462.061-1.27.112-1.293.181-.088.257.03.522.178.78.094.16.384.314.799.637zm66.65 33.807h.332v-.386h-.332v.386zm-4.334.876c.57-.108 1.01-.269 1.735-.313 1.434-.087 3.017-.308 4.155-.04l8.11-.216c-1.042.184-1.504.336-1.984.337-1.822.006-2.358.144-2.347.403.002.051-.604.103-.93.155a10.461 10.461 0 0 0-1.306-.195c.482-.109 1.024-.207 1.555-.306.006-.002-.152-.025-.32-.051-1.212.03-1.881.117-1.235.357.232.033.232.087.232.156l-4.063.144v-.39l1.343-.222c-.386-.015-.854-.053-.972-.034-.895.139-1.72.288-2.659.45L262 37.526zM70.949 43.156l-.949.27 1.812.512c1.783-.088 3.745.086 5.788-.166 1.097-.135 2.773.073 4.153.168 1.541.105 2.969-.344 4.17-.176 2.022.28 3.989.084 5.988.184L93 43.466l-1.856-.302-1.323-1.208-1.934 1.173H78.51c-.095-.075-.161-.132-.242-.188-.081-.057-.178-.11-.268-.165-1.947.658-2.896.728-7.051.38zm64.586-.563l3.446.189-.455.324h-3.603l-.866.234 1.534.459c2.986.097 5.735-.13 7.888.157l8.521-.354-.14-.539c-1.158.077-2.085.172-3.031.19-.829.014-1.68-.21-2.52.01-1.722-.347-3.707-.121-5.557-.191-.19-.007-.354-.062-.575-.103l.191-.235 1.769.185v-.764c-1.114-.049-2.239.09-2.95-.2-.247.063-.494.126-.87.22l-.964-.15-3.353.182v.482l1.535-.096zm-25.344.472l-5.134.244 1.886-.694 5.03.117c-.308.257-.603.502-.763.875.237-.08.153-.132.07-.185l5.8.534c-.196-.554.572-.868 2.476-.948v-.67l1.444-.129c-1.323-.272-1.323-.272-3.214-.237l.59.875-2.469.176-1.938-.27 3.674-.14-1.671-.561-3.875.148-.99-.12-1.477.242-1.423-.265-1.163.219c-1.097-.171-1.097-.171-2.019-.034l-1.969-.136c1.438.557.442 1.069-.056 1.513l5.728.223.597-.145.125.029c.78-.054 1.43-.1 1.76-.12-.628-.224-.769-.338-1.019-.541zm132.878-.274l.862-.04-.389-.63-.473.03v.64zM234 42.552h1v-.193h-1v.193zm-61.312-.394c-.032-.138-.032-.283-.032-.438h1.244c.102.151.194.291.314.472l1.304-.459h3.25c.075.156.163.344.264.56h2.6v-.227l-1.286-.104v-.336l2.612-.199 3.606.188c0 .055 0 .15.37.456-.405-.223-.405-.223-1.805-.058l-1.935-.202 1.466.472c1.072 0 1.827 0 2.273-.212.156-.354.682-.496 1.26-.651.686.093 1.438.25 2.106-.006l1.308.167.987-.204c1.422.245 3.147.169 4.816.174 1.616.005 3.231.001 4.728.001l1.717.558v-.556c2.318.035 4.539-.1 6.848.111l1.254-.26h2.255l1.19.422c.07-.011.342-.031.35-.056.158-.51 2.43-.321 3.568-.512.511-.085 2.065-.08 2.288.001.891.321 2.31-.146 3.054.138 2.354-.284 4.91-.095 7.358-.158.62-.016 1.211-.09 2.017-.152l1.027.175 1.236-.123c.616.146 1.42.135 2.216-.016.922.202 1.79.171 2.62-.03.74.28 1.452-.024 2.201-.016.918.01 1.856-.077 2.785-.122l.878.83c-.362.384-2.207.15-3.316.273-1.036.115-2.167.188-3.175.272l-.71-.157-1.72.34c-.434-.07-.78-.128-1.146-.188-.123.028-.265.09-.446.097-2.113.073-4.227.145-6.35.2-1.615.043-3.113-.027-4.195-.282l-2.801.419c-.7-.133-1.442-.233-2.116.014-1.265-.217-2.633-.33-4.286-.31-1.058.013-2.136-.06-3.52-.103l-.554.286-1.473-.14-1.088.163-1.462-.308-2.195.145-1.623-.517c-.037.492-1.315.756-3.282.884-.568-.027-1.636-.141-1.91-.08-1.337.294-2.46.039-3.569-.032l-.953.194c-1.321-.125-2.752-.344-4.224-.003l-2.913-.333-2.894.331-1.001-.163c-.875.05-1.709.137-2.546.139-5.198.012-10.397.006-15.481.006L165 42.701l3.166-.9c.585.08.953.129 1.389.187l.617-.278h1.444c.97.071-.424.43 1.072.448l-.104.022.485.125.218-.048a9.453 9.453 0 0 0-.599-.1zM26.334 22.648h.332v-.385h-.332v.386zm100 18h.331v-.385h-.33v.386zm-2.332-.128h.996v-.129h-.996v.13zm114-7h.996v-.128h-.996v.128zm30.332-3.871h.332v-.386h-.332v.386zm-21-1h.332v-.386h-.332v.386zm-216.332-2.13h.996v-.127h-.996v.128zm230-2h.996v-.127h-.996v.128zM84.334 36.65h.332v-.386h-.332v.386zm-22 0h.332v-.386h-.332v.386zm205.668-.13h.996v-.127h-.996v.128zm-53.668.13h.332v-.386h-.332v.386zm11-2h.332v-.386h-.332v.385zm7 0h.332v-.386h-.332v.386zm-170.332-.13h.996v-.127h-.996v.128zm-5 0h.996v-.127h-.996v.128zM91.334 3.65h.332v-.386h-.332v.386zm128.667 8.871H221v-.129H220v.13zm-130.999-9h.996v-.129h-.996v.13zm86 0h.996v-.128h-.996v.128zm-119.668.129h.332v-.386h-.332v.386zm149.668 5.87h.996v-.127h-.996v.128zM84.334 5.65h.332v-.386h-.332v.386zm113.668 8.87h.996v-.127h-.996v.128zm32.332.13h.332v-.386h-.332v.386zm-16-9h.332v-.386h-.332v.386zM50.002 7.519h.996v-.127h-.996v.128zm169.332-1.87h.332v-.386h-.332v.386zm-1 7h.332v-.386h-.332v.386zm-2.332-.13h.996v-.127h-.996v.128zm16-5h.996v-.127h-.996v.128zM14.334 15.65h.332v-.386h-.332v.386zm10 0h.332v-.386h-.332v.386zm3.668-1.13h.996v-.127h-.996v.128zm197-9h.996v-.127h-.996v.128zm-116 0h.996v-.127h-.996v.128zm138 13.001h.996v-.129h-.996v.13zm-214 2h.996v-.129h-.996v.13zm199-12h.996v-.129h-.996v.13zM124.334 3.65h.332v-.386h-.332v.386zM220 8.289l.062.333.938-.149-.045-.184H220zM49.93 7.121l-.86.042.386.627.474-.03v-.639zM250 31.552h1v-.193h-1v.193zm-9 2h1v-.193h-1v.193zM69 34.29l.062.333.938-.149-.045-.184H69zm149.073.5c.285-.007.569-.015.854-.021l-.363-.645-.491.026v.64zm28.178 1.052h.498v-.77h-.498v.77zM232 35.29l.058.334.942-.15-.045-.184H232zm5.931-.168c-.287.013-.574.025-.862.04l.388.63.474-.03v-.64zM249 27.623l-.057-.334-.943.15.045.184H249zm15.932.498l-.864.039.39.63.474-.03v-.64zm-10.681.72h.498v-.77h-.498v.77zM91 38.552h1v-.193h-1v.193zm-23.07 1.57l-.86.04.386.628.474-.029v-.64zm-8.679-36.28h.498V3.07h-.498v.771zM238.069 35.79c.287-.013.575-.025.862-.039l-.388-.63-.474.03v.64zm-13 1l.862-.041c-.13-.21-.258-.42-.388-.628l-.474.03v.64zm5.862-.67l-.862.04.388.63.474-.03v-.64zm-12.001.001l-.86.042.387.627.473-.029v-.64zm.14.67l.86-.043-.387-.627-.474.03v.64zM49 3.551h1V3.36h-1v.193zm36 35h1v-.193h-1v.193zm153.069.239l.862-.04-.389-.63-.473.03v.64zM52.251 3.84h.498v-.77h-.498v.77zm180 20h.498v-.77h-.498v.77zM26 14.29l.062.333.938-.15-.045-.183H26zm-2 .333l-.062-.333-.938.15.045.183H24zm204.251-1.78h.498v-.772h-.498v.771zm18 2h.498v-.772h-.498v.771zM223 14.551h1v-.192h-1v.192zm-49-9.263l.063.333.937-.15-.045-.183H174zm19 2.333l-.062-.333-.938.15c.016.06.03.122.045.183H193zm10.07.169l.86-.042c-.129-.21-.257-.42-.387-.628l-.474.03v.64zm-4.07-.5l.033.33.967-.14a63.265 63.265 0 0 1-.038-.19H199zm29.073-3.503l.853-.02-.362-.645c-.163.01-.326.017-.49.026v.64zM230 3.552h1V3.36h-1v.193zM21 15.291l.032.33.968-.14-.039-.19H21zm196-9.445l-.648-.78c-.118.036-.234.074-.352.111v.67h1zm-84-1.998l-.599-.785-.401.122v.663h1zm-76-.115c.34-.126.67-.249 1-.37a20.261 20.261 0 0 0-.17-.185H57v.555zm85.941-.777c-.295.01-.588.02-.882.032l.377.968.505-.02v-.98zm-70.81 4.99l.869-.98c-.593.137-.786.182-1 .23l.13.75zM210 5.71h1l-.149-.51-.851.51zm-31-.424c-1.172-.439-1.036.021-.938.513l.938-.513zm68 8.892l-1 .37.17.184h.83v-.554zm-18.064-1.452c.14-.582.14-.582-.936-.508l.936.508zM226 12.77v-.628l-1 .17 1 .458zM32 20.2h-1l.148.51.852-.51zm212 16.648l-.598-.785-.402.121v.664h1zM89 38.063l.598.786.402-.122v-.664h-1zm21 .602a19.574 19.574 0 0 0-.073-.374c-.158.064-.443.18-.927.374h1zm132-3.895v-.629l-1 .172 1 .457zM211.935 9.727c.14-.582.14-.582-.935-.508l.935.508zm11.32-1.71c-.636 1.028.032.909.745.822l-.745-.821zM225.287 11c-.734 1.114.1.921.713.858l-.713-.858zM239 14.885l1-.205-.398-.653-.602.858zM71 35.955l.238 1 .762-.397-1-.602zm164 0l-.238-1-.762.433 1 .568zM16 21.999l.159.958c.227-.169.21-.343.287-.477.084-.144.255-.248.554-.523l-1 .042zm227 8.958v1l1-.078-1-.922zm1 2.91h1l-.142-.82-.858.82zm23-3.91v-1l-1 .142 1 .858zm-65-23v1l1-.142-1-.858zm-12 .09h-1l.142.82.858-.82zM114.997 3.83c.043-.86-.356-.866-.997-.567.048.199.09.37.136.567h.86zM46.765 7.882L47 7.627l-.106-.598L46 7.21l.765.672zM117 5.93l-.256-.973-.744 1 1-.027zm94.35-.973l-.35.178c.09.165.15.343.278.492.11.127.295.22.447.33.092-.059.183-.117.275-.174l-.65-.826zm-.35 4c.524-.164 1.477-.32.717-1l-.717 1zm40 25v1l1-.129-1-.871zm-6 3v-1l-1 .234c.358.274.61.466 1 .766zm-23-.65c.41.28.405.707 1 .643l-.1-.993-.9.35zM33 8.955v1l1-.652-1-.348zm229 20.1l-1 .8c.644-.03.97-.4 1-.8zm-221-.93c-.732.151-1.246.303-1.826.364-.696.072-1.447.067-2.174.095l.037.2H41v-.659zm-20-12.24h1l-.235-.861-.765.862zm202-1.93c-.487.296-.777.47-1 .607l1 .393v-1zm10 24v-1l-1 .097c.348.313.59.531 1 .903zm-10-2.19c.694.466.894-.067 1-.122l-.331-.688-.669.81zm-11 .788l-.041-.46H211l.117.724.883-.264zM48 33.552h4v-.193h-4v.193zm178-21.138l-4-.458 2.155 1 1.845-.542zm9.796-3.458l.204-.269-1-.731v1h.796zm-199.775 0c0 .223-.06.432.024.624.047.106.33.191.525.275.096.04.236.057.43.1v-1h-.979zM93 3.648c1.412.175 2.743.365 4 .098l-1.225-.714L93 3.648zm104.702 3.308L195 7.588l4 .368c-.475-.366-.834-.644-1.298-1zm53.32 28.824l1.978-.415c-1.752-.133-3.249-.424-5-.052l3.022.467zM250 31.83l.173.126c.107-.084.2-.19.325-.245.138-.06.305-.076.502-.12-.09-.267-.15-.45-.22-.63-.005-.011-.09-.001-.278-.001l-.502.87zM16.98 18.934c.61-.116 1.14-.239 1.692-.316.548-.075 1.12-.103 2.328-.208l-4.168-.433c-.189.103-.511.28-.832.454l.98.503zm238.494 13.022c.237-.336.406-.547.523-.762.027-.052-.12-.123-.243-.238l-.754.262.474.738zm-15.234 4l3.76-.476-.24-.524c-1.312.165-2.513.318-3.76.476l.24.524zM236 34.865c2.249.216 3.378.057 4-.584-.487-.109-1.04-.23-1.468-.325l-2.532.909zM152 2.976c-.9.503-2.048.135-2.914.272-.357.056-.574.35-1.086.687h4v-.959zm-84.594 26.98l1.594-.54-1.304-.46c-.228.287-.34.43-.415.522L65 29.72l2.406.236zm176.594 5l4-.666c-1.112-.227-1.25-.226-2.919-.038L244 33.956v1zM66 36.275c.935.205 1.865.41 3.103.68.318-.354.58-.645.897-1h-3.043l-.957.32zm187.51-2.32c-.904.174-1.559.3-1.966.377-.726-.046-.76-.422-1.45-.203-.025.11-.047.208-.094.407 1.579.094 2.901.774 5 .177l-1.49-.757zm-116.05 6.309l-1.46-.308.234.987c2.079.052 3.461-.042 3.748-.49.08-.126-.125-.261-.245-.473l-2.277.284zm-34.418-.308l-3.042.35.214.64c1.595-.025 3.175.154 3.786-.382l-.958-.608zM184 6.456l2.09.486 1.122-.336c.406.129.658.21 1.104.35.22-.324.387-.566.684-1-.925.209-1.583.466-1.843.397-1.104-.295-1.932.089-3.157.103zm-122.17 30.5l1.17-.682c-1.603-.316-3.292-.415-4-.214v.523l2.83.373zm9.861-1L69 36.358l.226.54 1.077-.384 1.43.397 1.213-.367 1.915.412.139-.586c-1.128-.14-2.213-.277-3.309-.414zM104 40.653c1.247 0 2.128-.034 2.996.01.881.045 1.751.167 3.004.293l-1.152-1-1.12.327-.629-.278-1.312.377a781.57 781.57 0 0 0-.766-.313c-.291.168-.481.276-1.021.584zm43 .301l-1.337-.982c-.575.805-1.78-.267-2.455.34-.05.044-.885-.226-1.38-.356-.297.33-.57.629-.827.935-.013.015.12.075.102.063H147zM24.099 19.956L23 20.528l1.18.428c.458-.631 1.45.1 2.231-.186.676-.246 2.127.137 2.589-.458-.973-.102-2.007-.212-3.115-.33l-1.003.277-.783-.303zM266 31.194l-1.033-.238-.967.297c-1.058 0-1.88-.003-2.699.004-.09 0-.171.058-.301.105.83.03 1.61.056 2.389.083l-.047.067-1.592.054-.718.39h2.887l1.003-.678 1.078-.084zM244.079 9.292c-1.364-.033-2.301-.484-4.079-.286l1.032.65c1.6-.296 2.178.62 3.968.175l-.921-.539zM184.336 5.95c.761-.14 1.324-.27 1.919-.344.687-.085 1.403-.12 2.325-.196l1.257.298.163-.74c-1.053 0-1.928-.02-2.797.008-.65.022-1.603.258-1.882.135-1.063-.468-1.508.287-2.308.173-.31-.094-.62-.19-.765-.233l-1.238.275-.389-.137L179 5.4l1.154.491.862-.326 1.67.39.842-.334.808.328zm-51.732 34.653c-1.006-.472-2.375-.495-3.604-.646l.563.918c.888.227 1.474-.222 2.453.005.663.154 1.881.03 2.984.03l-1.685-.49-.711.183zm67.962-35.073H191v.395c1.566-.08 3.144.147 4.535-.208 1.568.407 3.116.188 4.58-.004l1.885.244v-1l-1.434.573zM124 40.749v-.793l-2.4.534-.907-.228-1.472.288-1.429-.267-1.095.214c-.423-.15-.1-.608-1.426-.388l-.593.484-1.58-.273c-.394.445.5.55.915.636 1.305-.078 2.25-.16 3.21-.185 1.149-.029 2.558-.145 3.405.026 1.319.266 2.17-.186 3.372-.047zm84.985-35.366l3.173-.177 1.842.132v-.382l-12 .248 1.169.648.899.104.689-.493.823.196 1.959-.439c.304.156.61.312 1.109.565l.337-.402zM160 40.486l-1.326-.53-2.5.235-1.865.571-1.529-.043-.29-.602-.694-.134-.743.582-1.1-.338-1.953.24c1.921.208 3.178.42 4.501.472 2.638.106 5.014-.318 7.499-.453zm12-36.932l-2.723-.596-1.21.155-1.03-.157c-.587.276-1.465.54-.797.853l1.472.147L172 3.554zm-6.295 36.927l-2.029-.387-4.676.541.252.28c5.048 0 9.96.001 14.874-.007.164-.001.326-.106.484-.16l.65.208c1.57-.11 3.046-.211 4.74-.328l-1.226-.672-6.713.46c-.074-.036-.459-.22-.67-.323l-3.727.334-1.183-.197-.776.25zm16.31-36.908l3.985-.21-2.162-.375-.982.117-1.846-.15-.816.284-1.354-.126-1.84.174c.557.32 1.37.046 1.725.056l2.134.183-2.088.43 3.244-.212v-.171zm-1.34-1.158c.052-.015.106-.03.16-.043l-.574-.18-.261.07c.225.051.45.101 2.816-.306l-2.068.542 2.046.458c.222-.229.27-.353.467-.458.167-.09.503-.158.739-.228-.574-.152-.859-.228-3.326.145zm79.542 25.305l-.188.046.669.19.302-.074c-.26-.053-.522-.108-1.034-.012v-.914L257 27.4c1.025.163 1.768.28 3.217.32zM185.465 3.567l.605-.004-.41-.607-1.66.08c.528.191.996.361 1.913.522.053.125.1.24.164.398l1.923-.04c-.056-.13-.094-.213-.146-.33a148.06 148.06 0 0 0-2.389-.02zm30.818 4.735l.067-.067-.241-.28-.109.109c.094.08.189.158.315.19l-.173.182.814.52.044-.651c-.277-.02-.48-.036-.717-.003zm18.284 15.392l-.103.05.369.212.167-.082c-.145-.06-.288-.12-.872-.143l.451-.014-.204-.761c-.284.114-.378.224-.375.334.004.147.082.294.567.404zm-9.125 12.614c.035-.024.07-.046.106-.069l-.377-.283-.171.11c.147.08.295.16.911.196l-.468.015.208.679c.116-.011.233-.02.349-.03-.03-.222-.06-.443-.558-.618zm-147.683.157l-.058.076.206.315.093-.122c-.08-.09-.16-.179-1-.679.214.303.274.446.317.438.141-.026.277-.107.415-.167-.179-.066-.357-.132.027.14zm-15.21-33.05l-.107.076.384.315.174-.122c-.15-.09-.3-.18-.55-.188l.108-.075-.384-.315-.174.12c.15.09.3.18.55.19zm194.009 30.076l-.107-.075-.451.268c.058.04.116.08.174.122.128-.105.256-.21.268-.385l.107.075.451-.27-.174-.12c-.128.105-.256.21-.268.385zM91.442 38.42l.107.075.451-.27-.174-.12c-.128.105-.256.21-.268.385l-.107-.076-.451.269c.059.04.116.082.174.122.128-.105.256-.21.268-.385zM9.084 28.634c-1.04-.221-1.699-.477-1.211-.909.65.07 1.208.13 1.973.21l1.38-.201 1.057.179.807-.183 1.738.214 1.011-.165.887.182 1.465-.215 1.536.21 1.031-.194.654.346.823-.011.522-.369.969.451 1.928-.404.52.108c.512-.04 1.066-.1 1.644-.123.534-.021 1.093-.005 2.105-.005l-1.684-.387-1.305.198-1.085-.38c-.447.103-.7.161-1.092.253l-1.514-.239-1.292.204c-.86-.171-2.1.053-2.508-.025-.987-.189-1.955-.13-3.052-.153-.08-.069-.127-.151-.271-.222-.15-.074-.393-.137-.59-.203 2.173-.363 4.675-.264 6.885-.276l4.828-.679c.093.138.2.3.32.477l1.101.025.324-.536.839.163c.902-.05 1.848-.144 2.79-.141.964.001 1.923.098 2.943.157l1.114-.301c-.711-.078-1.506-.244-1.99-.2-.961.088-1.73.043-2.62-.014-.954-.062-1.893-.023-2.939-.144-1.229-.143-2.929-.034-4.73-.034l.808-.253c-.502-.27-1.406-.312-2.728-.257v.33c-.534-.026-1.349.087-1.446-.183l.1.026c.193-.04.385-.082.576-.123l-.222-.055c-.163.048-.327.096-.454.152-1.234.093-1.68-.2-2.433-.337-.288.064-.54.12-.85.187l-4.117-.428c1.42-.11 2.742-.328 3.4-.24 1.116.152 1.753.1 2.607-.065l1.397.202c.498-.066.97-.128 2.296-.089.375-.033.235-.1.134-.096-.337.013-.66.05-.988.076.426.03.85.061.854.02-1.076-.196-1.298-.29-1.55-.397l1.095-.825 2.275.545.191-.589-3.38-.307-.388.67c-.559-.122-.894-.192-1.208-.267-.274-.065-.524-.136-1.158-.303l-.308.628 2.102.078v.285h-5.467c-.072-.242-.524-.514.548-.75l-1.06-.327-1.603.227c-2.923-.371-6.125-.051-9.418-.228l.947-.465c1.542 0 3.037-.003 4.53.006.17.001.332.077.77.187l.447-.368h2.758l1.975-.362v.428l2.146-.294-.737-.242 1.057-.09 1.022.53v-.913l2.027.2c.306-.14.698-.317 1.2-.544l-3.144-.517-1.106.437-1.83-.25-.95.177-2.853-.382-1.038.425-3.698-.638 3.92-.81 1.024.236 1.996-.367.588.147c.317-.075.637-.149.973-.227-.087-.041-.131-.103-.265-.12-1.064-.134-2.145-.26-3.147-.38l1.069-.513h4.272l1.05-.262-1.375-.126-.125-.516 1.461.122 4.803-.12c.04-.076.084-.155.149-.275H15.7l-.398-.356-2.295-.085 2.345-.39c-1.271-.35-1.56-.777-1.244-1.313 1.51.152 2.856-.474 4.521-.012l1.233-.307c-1.206-.014-2.7.07-3.09-.056-.99-.322-1.928.214-2.943-.072-.49-.139-1.95-.072-2.974-.082-1.028-.011-2.06-.003-3.584-.003 2.554-.462 5.182-.414 7.505-.59 2.35-.177 4.994-.113 7.512-.155.04-.019.14-.045.117-.059a.577.577 0 0 0-.238-.061c-2.107-.003-4.215-.002-6.044-.002l-1.789-.317c.66-.168 1.256-.4 1.538-.378 1.271.099 2.454-.294 3.668-.02 1.496-.264 3.27-.153 4.81-.177.87-.45-1.145-.272-1.319-.475-1.21.173-2.517.13-4.057.103l-1.752-.849h4.536v-.847l1.14-.054.55.399.926-.429 1.546.227 1.688-.21.873.2 1.5-.375.943.436c.293-.432 2.105-.709.947-1.187l-1.838.513L27.83 8.61h2.995l.277-.828.973.516 2.038-.365c.607.116 1.364.259 2.06-.037l.834.186c.846.147 1.167-.412 2.35-.13.779.188 1.641-.158 2.685-.074.836.067 1.83.014 2.855.014v-.377l-.976.203-1.79-.532c-1.975.463-3.57-.199-5.373.03l-.353-.543-.897-.014c-.218.116-.445.237-.685.363l-.977-.476c1.933-.424 4.418-.614 6.97-.76.96-.056 1.81.16 2.98.02.951-.116 2.315-.049 3.477-.019 2.617.068 5.325-.182 7.862.142 1.796-.37 4.312.1 5.741-.268l4.274.162.6-.432.765.358c2.751.026 4.775.332 6.958.201 1.034-.062 1.987-.21 3.003-.32.171.037.415.09.656.144l.893-.223-.78-.58c.768.17 1.012.223 1.746.384l-.709-.538c-1.325.023-2.404.094-3.4.05-4.297-.192-4.286-.202-9.592.165-.538.037-1.128.025-1.685.048-1.588.068-3.124-.477-4.74-.024-1.75.007-3.499.018-5.248.022-1.762.004-3.563.057-5.27-.02-1.047-.047-1.673.223-2.73.096-.766-.091-1.728-.081-3.182-.14l4.133-.388-1.421-.72c.274-.067.606-.15.852-.212 3.267-.113 6.553.15 9.761-.185.68.29 1.77.017 2.684.08 1.047.071 2.106.132 3.324.209l.703-.16c2.217.461 4.676.472 7.185.118l-.963-.278c2.712.08 5.099-.121 6.873.11 2.576.094 4.354-.528 6.683-.1.303.057 1.002.05 1.372.002 2.18-.283 4.508-.143 6.77-.162.976-.007 1.908.006 2.957.125 1 .113 2.807-.215 3.802-.102 1.826.21 3.648.053 5.047.156 1.014.074 1.645.205 2.436.31l.763-.155 2.361.257v.753c1.76-.032 1.343-.375 1.42-.63h1.278v.832l3.08.037-.58-.466 2.022-.327-1.911-.343 1.643-.544 2.49.572.607-.482c3.428 0 6.115-.023 8.793.008 1.797.021 3.706-.157 5.385.145 1.49-.283 3.523-.05 5.016-.329h9.91c.304-.078.58-.182.967-.242.736-.114 1.534-.203 2.329-.306l1.429.529c1.739.115 3.256-.421 4.902-.033 1.51-.223 2.811-.082 4.052.144l-.69.19 2.076 1.061v-.772c1.362-.106 2.94.098 3.623-.417l-.743-.605c.677-.134.699.085 1.309.1l3.755-.352c.463.07.926.14 1.52.228l.77-.401 1.441.339 1.432-.55.59.358 1.513-.46c.255.304.406.484.707.84l.628-.789 2.437.435c.295 0 1.187.069 1.627-.013 1.167-.218 2.334-.415 4.29-.383l1.06.25c.376-.048.76-.099 1.35-.177l1.363.367-3.88.36 2.24.403 3.357-.139.952.738h-1.68a32.826 32.826 0 0 1-.233-.145c-.158.048-.315.097-.293.145h-1.27c-.211-.114-.429-.233-.678-.37-.23.416-.23.416.782.702.33-.081.66-.162 1.166-.332h.525l-.001.44 1.481.368c2.915-.208 6.09.031 8.289-.497l1.448.232 1.432-.2 1.365.19c1.577-.18 1.58-.164 4.094-.19.951-.009 1.85-.261 2.864-.036.833-.254 1.97-.083 2.95-.13 1.084-.051 2.306.114 3.283-.165.178-.05 1.08.087 1.64.082 1.003-.009 2.01-.048 2.998-.097.854-.042 1.68-.155 2.527-.161.964-.008 1.939.067 3.299.122l4.465-.336.95.283c-.152.126-.175.217-.284.224-1.058.069-1.912.256-3.157.234a61.499 61.499 0 0 0-7.532.327 5.13 5.13 0 0 1-.68.012c-2.317-.093-4.42.18-6.67.22.5.388 1.946.398 2.784.288 1.453-.192 2.91-.187 4.32-.137 1.144.04 2.201-.3 3.297-.018 1.022-.207 2.345-.135 3.48-.237.193-.017.335-.071.463-.1 1.614.328 3.18.167 4.975-.043l1.087.365h-2.852c.174.106.216.176.311.181 1.185.06 2.377.11 3.87.174-.164-.152-.314-.29-.493-.459l.808-.09 1.327.684-2.423.099.59.414-2.007.26-1.099-.195-3.836.35-.757-.098-6.673.227-.701-.126-6.133.537-.53-.122c-2.106-.005-3.703.468-5.871.163l-2.867.26c-.87-.461-2.624.335-3.586-.112-.995.346-2.567.07-3.858.223-1.264.15-2.904.104-4.741.153l-1.167.27c.463.093.754.152 1.898.312.375-.033.235-.1.135-.096-.337.012-.66.05-.988.077.424.03.849.06.853.02-.541-.218-.23-.333.08-.449l1.195.207 1.075-.204 1.001.25-.875.239 2.572.031 1.501-.589.472.356c1.237-.208 2.596.054 3.918-.07.627-.058 2.545-.089 3.854-.239l1.102.21c2.759-.506 6.27.095 9.186-.363.42-.065 1.15-.009 1.736-.009 1.407 0 3.046.113 4.162-.029 1.348-.171 2.216.077 3.355.05 1.823-.043 3.373-.24 5.43-.403l.832.4c1.335-.146 2.262-.29 3.268-.346 1.004-.054 2.093-.004 3.135-.027 1.096-.026 2.362.128 3.313-.196l1.387.525 2.093.086-3.445.296c-.24-.052-.5-.107-.763-.162l-1.02.179-3.042-.394-1.708.59-1.54-.213-2.888.236v.308l1.88-.13.692.114c.845.013 1.674-.398 2.583-.022.806-.212 2.37-.055 2.747-.178.953-.311 1.742-.023 2.558-.055.998-.039 2.004-.062 3-.103.965-.039 1.923-.091 3.184-.152l.988.342 1.698-.238.501.342-2.719.082-.98.245c.43.097.86.193 1.342.303l-1.048.532-3.844-.645.792-.226-1.255-.084-.338.555c-.402 0-.837 0-1.304.01l.106-.026-.491-.143-.223.055c.192.041.385.082.608.114.032.049.032.108.069.174a2.334 2.334 0 0 0-.1-.026l-.577.122.223.055c.163-.047.327-.095.454-.15.55-.009 1.135-.009.932-.009l2.021.261-1.272.639 2.807-.199 1.124.262c-.292.073-.531.187-.863.208-1.498.093-3.092.114-4.514.25-1.04.1-1.972-.036-2.886.03-1.033.076-2.009.201-3.015.306l-3.471-.335-3.86.494-1.496-.212-.55.408-1.91-.405v.579h-1.19l-.407.538-1.815-.395v.56c1.145 0 2.727.118 3.574-.028 1.273-.22 2.15.236 2.984.02.938-.245 2.179.15 3.058-.135v.725l-1.824-.218-.194.486h3.883l1.016.678c3.816-.155 7.315-.508 11.186-.17l1.893-.271 1.954.25-.822.363 1.106.087.519-.614 1.2.776h2.762a2.884 2.884 0 0 0-.006.078l-8.721.38c-2.193-.353-4.547-.027-7.173.165l-2.284-.146v.615l2.173-.253 1.853.424.769-.134c.632.138 1.276.28 2.077.454.003-.002-.058.087-.264.144-.614.17-1.283.326-2.02.51l.86.301-.628.176 3.025.382c-1.506.53-3.65.372-5.867.417.23.187.437.353.778.628l-1.423.122.333.154-3.638-.201-1.125.347c.29.086.413.158.57.163 1.213.04 2.375.005 3.639.15 1.03.117 2.57-.042 4.233-.087-.063-.014.197.04.374.077l4.654-.173 1.306.832c-1.306.178-2.066.467-1.921.88l.855.213 2.704-.782h4.5c-1.19.54-3.025.824-4.47 1.267v.508l-.83.207-2.84-.11c.119.162.067.275.254.311.656.126 1.395.226 2.213.353l-2.409.604c-.306-.05-.583-.093-1.05-.166-3.041.403-6.547.305-9.77.316-1.502.216-1.161.52-1.103.804l1.223.305.217-.88c1.776.022 1.068.409 1.557.633h.947l-.48-.661.493-.059c.272.09.62.172.801.273.31.172.33.403.816.523.484.12 1.39.134 2.057.19.076.09.14.17.217.262h3.125l.555-.368c.527.061.999.116 1.535.18l1.368-.32.888.667 2.588.05 1.74.38 1.117-.211.71.158 1.28-.32 1.103.162 1.821-.252 1.114.639.617-.14c-.222.06-.443.122-1.073.296l2.772-.2 1.466.56.837-.43 1.416.194.537-.326 2.292.547 2.097-.213-1.139.459-11.713.446-.82.648c.283.171 3.029.278 7.191.222.48-.112.975-.23 1.533-.36l.603.426.887-.427c2.143.253 3.818.283 5.54.029l.65.15c.933.12 1.348-.367 2.492-.1.305.07 1.288-.055 1.966-.065.916-.014 1.838-.004 3.141-.004l-.876.468c-1.727.187-3.598-.106-5.12.184-1.23-.226-2.634-.016-4-.095-1.558-.09-3.321-.095-5.01.125-.923.12-2.305.027-3.478.02-1.483-.01-2.97-.036-4.111.288.519.336 3.292-.08 3.426.62l-2.107-.186c-.586.04-1.419.135-2.272.148-.901.014-1.965-.135-2.7-.059-1.036.108-1.719.108-2.474-.1l-1.372.32-1.525-.19-.609.419-4.338-.147-1.566.172c.062.037.114.11.199.113 1.207.037 2.413.402 3.633.01 1.092.053 2.145-.034 3.343.114a35.44 35.44 0 0 0 5.239.249c.941-.027 1.939.07 3.384.13l1.26-.29h3.025l.539.383 1.257-.605.659.476 2.683.22 1.027-.655h1.669v.405l1.726.203-.808.355.73.182c.083.02.202.063.243.059.801-.083 1.593-.17 2.458-.265a29.82 29.82 0 0 0-.091-.226l-1.836.165-.229-.331h3.397l.453.318c.549-.127 1.035-.24 1.52-.354l1.352.337 1.042-.47 1.671.728-1.724.188c.215.118.428.235.682.377l-.93.245-.676-.363c-.256.127-.383.267-.731.343-.383.084-.972.11-1.513.165l-.81-.185-1.44.226-1.88-.233-.554.377h4.267v.752c-.417-.094-.667-.15-.817-.185-1.49.069-2.905.134-4.154.19-.544-.134-.876-.217-1.208-.3 0-.205 0-.41-.03-.612.455-.005.874-.014 1.305-.022v-.592c-.572.264-.94.435-1.305.614-.408-.004-.846-.004-1.627-.004l.918.518-2.105.43c.683.109 1.273.185 1.782.287.514.103.95.231 1.554.382l.306-.34h3.32v.406l-3.754.244-.728-.166a5.18 5.18 0 0 1-2.656.035c-.807.182-1.625.15-2.448.007-.984.384-1.736-.167-2.79-.001-.08.056-.222.158-.494.354l-.81-.384-4.863.337-.741-.168-.91.205-1.347-.212-3.268.283 1.513.514-1.673.306 3.45.308.953-.19 1.163.329-1.345.42-1.38-.161-3.42.354c1.963.289 4.06-.094 5.584.295 1.75-.288.766-.74 1.125-1.146l3.121-.276 1.083.385 1.902-.267.2.504-3.266.301-.961-.545-1.393.66 1.127.179.486-.122c.311.05.642.101 1.085.17l1.334-.187 6.101.529.608-.152 1.502.182 1.252-.424c1.416.371 3.244.292 4.376.173 1.481-.155 2.437.252 3.729-.024l1.781.87c-4.808.298-9.538.313-14.585.545-2.873-.393-5.992.065-9.445.17-.21-.02-.7-.098-1.217-.11-2.635-.061-5.22.044-7.777.191-.275.016-.708.125-.722.121-1.195-.366-2.256.009-3.343.046l-.945-.216-.23.317c1.825.2 3.871-.143 5.415.238 2.205-.215 4.044-.251 6.435-.125l.463.336c.583-.354 1.105-.682 3.089-.53l-1.553.62 2.38-.124v.644c-2.13.242-4.243.392-6.63.098-.658-.08-1.7.025-2.558.058-.537.02-1.058.067-1.553.099l-1.496-.563-1.186.376c.014-.002.06-.014.106-.025l-.492-.144-.222.056c.192.04.384.081.608.113-.28.106-.592.222-.865.323-2.512.081-4.777-.028-6.882-.333-2.487.328-5.095.508-7.934.539-2.376.026-4.858-.187-7.132.15-1.27-.305-2.836-.127-4.264-.153-.981-.018-2.053-.09-2.896.163-.84.253-1.518-.291-2.701-.054-.482.095-1.802-.103-2.743-.107-.852-.004-1.708.076-2.945.138l-.864-.155c-.814-.059-1.752.414-2.746.023-.73.321-2.136.069-3.152.232-.713.115-1.942-.17-2.76.135-.32-.057-.573-.11-.853-.15-.183-.028-.523-.069-.59-.053-.773.189-1.539 0-2.244.016-1.032.024-2.013.185-3.072.293-.656-.197-1.393-.193-2.19.068-1.72-.25-3.521-.35-5.182-.006l-1.3-.214-1.566.214-1.204-.223-.19.584 1.904-.142c1.778.163 3.838.183 5.915.017.31-.024.7-.102.904-.077 2.76.333 5.497-.181 8.234-.005.735.047 1.454.11 2.346.179l1.782-.39 1.203.182.596-.125 4.144.194 1.327-.335c.887.04 1.724.066 2.527.121.764.052 1.426.047 2.25.025 2.904-.075 5.86-.033 8.793-.021.263.001.519.107.773.164l.853-.199 1.227.146c2.38-.258 5.027-.066 7.607-.112.731-.014 1.485.048 2.604.09l.65-.227c2.789-.158 5.288.149 7.536-.212.9.384 2.104.025 3.158.076 1.221.06 2.483.074 3.732.086.796.008 1.949.055 2.329-.051.967-.272 1.304.23 2.018.056l.706-.168 4.065.262-1.128.443h-6.647c-.095.109-.167.189-.27.305-.789-.049-1.72-.316-2.28-.025l-2.103-.13-1.204.492-4.44.175c-1.233-.202-2.873-.139-4.574-.067-2.845.12-5.679.188-8.596.045-1.21-.059-2.597.106-4.12.179l-.807-.201-4.583-.1-1.253.402-1.383-.345c-.73.022-1.515.351-2.207-.095-.519.179-.917.315-1.34.462l-1.559-.17c-.614.157-1.43.16-2.231-.023-.963.369-1.745-.112-2.734-.028l-.997.27c-3.37-.152-6.557-.176-10.138.043l-1.082-.15-1.677.208-.872-.197c-.167.041-.311.091-.505.121-.18.028-.571.057-.598.046-.878-.37-2.64.34-3.17-.218l-1.789.252-.973-.197c-.267.056-.51.151-.796.16-2.81.091-5.72-.164-8.468.156-1.182-.287-2.734-.043-3.955-.164-1.095-.108-1.855.294-3.026.035-.525-.117-1.669.23-2.522-.02-5.013.358-10.143.09-15.204.181-.51.01-.992.106-1.516.165-.68-.055-1.408-.162-2.129-.158-.846.004-1.69.1-2.525.164-.752.057-1.369-.249-2.29-.015-.42.107-1.305-.254-2.227.004-.588.164-1.361-.172-2.318-.069-.793.086-1.782.066-2.687.077-.938.01-1.884.018-2.815-.005-.393-.01-.756-.099-1.135-.152l-.81.18c-1.624-.208-3.308-.35-5.041-.006l-1.563-.213-1.02.186-.522-.12-5.327.182-1.588-.396-2.413.317-1.431-.192-.59.418-1.91-.202-1.364.203-1.045-.175c-.682.146-1.418.309-2.045-.03l-.944.207-1.694-.21-1.196.2-3.294-.425-.522.548-1.316-.25-5.076.113c-.733-.341-2.394.302-3.021-.237-1.165.356-2.8.01-4.033.237-3.576-.228-3.57-.223-6.467-.005-.43.033-.952.026-1.399 0-2.802-.16-2.786-.137-6.478-.02-.632.02-1.603-.03-2.405-.074a25.311 25.311 0 0 0-1.9-.018c-.296.007-.694.13-.836.109-1.567-.225-3.146.163-4.676-.018-.293-.034-.515-.106-.754-.157-3.264.414-6.475.091-9.59-.017l-1.337.314-3.157-.787.764-.19 1.858.396 1.002-.373h5.127l.434.309h.87l.405-.29c.203-.02.403-.054.608-.056 2.27-.017 4.572.073 6.769-.169.293-.032.802.058 1.392.107l2.93-.257.72.25 6.968-.233.785.124c2.28-.238 3.452-.24 5.126-.04.857-.056 1.47-.106 2.1-.134 1.302-.056 2.758.122 3.91-.162 1.026.298 2.402.114 3.612.15.271.009.604-.107.908-.17.64-.06 1.293-.117 2.327-.207l-1 .393c2.116-.018 3.927.02 5.76-.029l-2.332-.817-4.755.393v.267c-.351.004-.702.004-1.144.004l-.463-.341-1.15.199-1.764-.341-3.41.315-1.08-.21-1.518.225-.94-.346-6.341.286c-1.429-.216-3.107-.216-4.903.056-.718-.403-2.09-.025-3.283-.159-.998-.112-2.543.112-3.86.132-1.327.02-2.754.09-4.04-.194l-1.029.195-.456-.116-2.315.147-1.661-.857-2.42.801h-4.547c.989-.167 1.542-.262 2.095-.356l-.249-.118-1.842.097-.987-.161-1.592.361-1.624-.436-.377.629h-1.962c0-.118 0-.227-.037-.343.008.004.054.015.1.027l.576-.123-.222-.055a3.972 3.972 0 0 0-.454.151c-.515-.088-1.067-.185-1.998-.348l-4.425.1-1.728.582c-.206-.316-.31-.478-.452-.698h-3.572l.99-.26c1.007-.028 2.232.358 3.025-.073l1.2.226 1.818-.625 1.626.24c.234-.036.548-.121.786-.11 1.085.053 2.147.133 3.574.226l1.029-.361 1.631.24 1.381-.189 3.368.328c.34-.086.756-.19 1.325-.331 1.029.087 2.143-.03 3.466.131 1.628.199 3.542.054 4.737-.24l5.184.354c.256-.178.402-.28.576-.399 2.602-.085 5.034.098 7.505.318 2.062-.306 4.428-.087 6.799-.173l.45-.334c.264.047.474.085.508.09 1.205-.033 2.271-.051 3.313-.099.336-.015.612-.11.878-.177l.1.026.577-.122-.222-.056c-.164.048-.328.096-.455.152-.805-.05-1.634-.134-2.492-.161-.92-.03-1.865-.007-2.43-.007-.712.083-1.183.11-1.482.181-.356.085-.488.233-.864.307-.238.047-.745.009-1.33.009l1.158-.33c-1.64.05-2.993-.103-4.283.168-1.287-.168-1.287-.168-2.776-.005l-1.245-.31c-2.068-.063-4.075-.06-5.698.321-1.415-.309-3.118-.109-4.668-.163-1.532-.054-3.19.125-4.602-.156-1.485.29-2.94.205-4.442-.031l-1.533.21-1.085-.206-3.548.307-1.475-.327-1.642.227-1.012-.192-.85.194-1.302-.162c-.087.017-.336.106-.528.099-.838-.032-1.66-.13-2.485-.129-.727.002-1.472.167-2.169.15-1.18-.027-2.328-.141-3.567-.224l1.9-.518c2.236.3 4.545.227 6.817.221.265 0 .526-.103.789-.158.983.307 2.362.106 3.505.173l1.212-.302 5.75.306 1.71-.398c.523.049 1.13.108 1.745.164.486.044.903-.194 1.56.008.292.09 1.315.038 2.005.037.567-.002 1.464.028 1.64-.044.597-.243 1.1.102 1.55-.014.452-.116.833-.166 1.477-.055.424.074 1.185.15 1.537.103 1.774-.234 3.891.324 5.316-.152l2.872.186.219-.152c-.627-.074-1.232-.164-1.886-.217-.716-.058-1.478-.081-2.631-.14-1.48.31-3.351.144-5.148-.081l-.825-.64h-2.904l-4.17-.79v-.41c1.134-.053 2.428-.218 3.34-.132 1.305.124 2.9.166 3.65.044 1.125-.183 2.381.243 3.166-.16.37.123.71.238 1.002.336 1.616-.11 3.038-.205 4.525-.305l1.505.24-1.123-.604c-3.4 0-6.773-.004-10.145.006-.404 0-.818.07-1.202.12-1.17.15-1.96.012-2.684-.219l1.959-.455h2.536c-.544-.137-.822-.268-1.114-.27-1.808-.012-3.62-.002-5.428.016-.64.006-1.571.13-1.856.064-1.167-.272-2.434-.06-3.718-.168.718.429 1.134.792-.636 1.109-1.414-.237-2.981-.33-4.681.054l-1.126-.442 3.427-.238v-.466c-1.571.064-3.18-.132-4.594.189a36.348 36.348 0 0 0-7.233-.04l-5.655-.396v-.206c.243-.024.446-.062.646-.061 1.63.008 3.206.395 4.85.092 1.414-.26 3.209.106 4.586-.23.372-.09 1.576-.108 1.974-.028 1.712.345 3.14.076 5.029-.102l-2.1-.228-3.897.172-3.007-.499 2.015-.59 1.015.217 1.447-.228 1.522.212.71-.126c.822.016 1.65.092 1.923.025.77-.187.89.093 1.334.077.635-.023 1.26-.062 2.135-.106l1.987.19-1.113-.572c-3.792.429-7.356-.184-11.057-.023l-1.253-.527-.703.155-.56-.13c-1.22.206-2.394.22-3.31-.15l1.249-.107v-.546l-1.417.179-1.568-.267 1.308-.376h8.025c-1.289-.401-1.289-.401-3.016-.182l-.868-.197-1.331.153c-.143-.023-.451-.111-.798-.122-1.871-.059-3.75-.101-5.63-.138-.153-.002-.33.077-.53.127l-.971-.23c.204-.09.402-.18.723-.323l-1.141-.323-.818.547c-.695.174-1.925-.05-2.594-.343h-3.563l-1.06.264-.218-.267c-.44-.007-1.012.006-1.525-.03-.397-.03-.72-.122-1.09-.188l-1.506.194-.532-.175-.877.175z" transform="translate(-78 .044)"/>
</svg>
