<svg xmlns="http://www.w3.org/2000/svg" xmlns:xlink="http://www.w3.org/1999/xlink" width="328" height="160" viewBox="0 0 328 160">
    <defs>
        <path id="a" d="M8 0h312a8 8 0 0 1 8 8v144a8 8 0 0 1-8 8H8a8 8 0 0 1-8-8V8a8 8 0 0 1 8-8z"/>
        <path id="c" d="M0 .483h443v163H0z"/>
        <linearGradient id="d" x1="94.97%" x2="5.03%" y1="50.228%" y2="50.228%">
            <stop offset="0%" stop-color="#19BFA9" stop-opacity=".5"/>
            <stop offset="100%" stop-color="#4FDEA0"/>
        </linearGradient>
        <path id="f" d="M32.797.622C16.767 13.122 6.903 32.7.527 51.667c-.09.259-.039.603.212.761 2.416 1.507 4.985 2.214 7.636 1.085a.53.53 0 0 0 .435-.388c.001-.007.005-.011.007-.017l.003-.012c2.106-6.525 4.666-12.918 7.418-19.19 4.687-10.695 10.325-22.54 19.468-30.124.252-.208.35-.658.1-.912-.7-.717-1.398-1.431-2.1-2.147a.738.738 0 0 0-.52-.24.63.63 0 0 0-.389.14"/>
        <path id="h" d="M32.797.622C16.767 13.122 6.903 32.7.527 51.667c-.09.259-.039.603.212.761 2.416 1.507 4.985 2.214 7.636 1.085a.53.53 0 0 0 .435-.388c.001-.007.005-.011.007-.017l.003-.012c2.106-6.525 4.666-12.918 7.418-19.19 4.687-10.695 10.325-22.54 19.468-30.124.252-.208.35-.658.1-.912-.7-.717-1.398-1.431-2.1-2.147a.738.738 0 0 0-.52-.24.63.63 0 0 0-.389.14"/>
        <path id="j" d="M32.797.622C16.767 13.122 6.903 32.7.527 51.667c-.09.259-.039.603.212.761 2.416 1.507 4.985 2.214 7.636 1.085a.53.53 0 0 0 .435-.388c.001-.007.005-.011.007-.017l.003-.012c2.106-6.525 4.666-12.918 7.418-19.19 4.687-10.695 10.325-22.54 19.468-30.124.252-.208.35-.658.1-.912-.7-.717-1.398-1.431-2.1-2.147a.738.738 0 0 0-.52-.24.63.63 0 0 0-.389.14"/>
        <path id="l" d="M32.797.622C16.767 13.122 6.903 32.7.527 51.667c-.09.259-.039.603.212.761 2.416 1.507 4.985 2.214 7.636 1.085a.53.53 0 0 0 .435-.388c.001-.007.005-.011.007-.017l.003-.012c2.106-6.525 4.666-12.918 7.418-19.19 4.687-10.695 10.325-22.54 19.468-30.124.252-.208.35-.658.1-.912-.7-.717-1.398-1.431-2.1-2.147a.738.738 0 0 0-.52-.24.63.63 0 0 0-.389.14"/>
        <path id="n" d="M32.797.622C16.767 13.122 6.903 32.7.527 51.667c-.09.259-.039.603.212.761 2.416 1.507 4.985 2.214 7.636 1.085a.53.53 0 0 0 .435-.388c.001-.007.005-.011.007-.017l.003-.012c2.106-6.525 4.666-12.918 7.418-19.19 4.687-10.695 10.325-22.54 19.468-30.124.252-.208.35-.658.1-.912-.7-.717-1.398-1.431-2.1-2.147a.738.738 0 0 0-.52-.24.63.63 0 0 0-.389.14"/>
        <path id="p" d="M32.797.622C16.767 13.122 6.903 32.7.527 51.667c-.09.259-.039.603.212.761 2.416 1.507 4.985 2.214 7.636 1.085a.53.53 0 0 0 .435-.388c.001-.007.005-.011.007-.017l.003-.012c2.106-6.525 4.666-12.918 7.418-19.19 4.687-10.695 10.325-22.54 19.468-30.124.252-.208.35-.658.1-.912-.7-.717-1.398-1.431-2.1-2.147a.738.738 0 0 0-.52-.24.63.63 0 0 0-.389.14"/>
        <path id="r" d="M32.797.622C16.767 13.122 6.903 32.7.527 51.667c-.09.259-.039.603.212.761 2.416 1.507 4.985 2.214 7.636 1.085a.53.53 0 0 0 .435-.388c.001-.007.005-.011.007-.017l.003-.012c2.106-6.525 4.666-12.918 7.418-19.19 4.687-10.695 10.325-22.54 19.468-30.124.252-.208.35-.658.1-.912-.7-.717-1.398-1.431-2.1-2.147a.738.738 0 0 0-.52-.24.63.63 0 0 0-.389.14"/>
        <path id="t" d="M32.797.622C16.767 13.122 6.903 32.7.527 51.667c-.09.259-.039.603.212.761 2.416 1.507 4.985 2.214 7.636 1.085a.53.53 0 0 0 .435-.388c.001-.007.005-.011.007-.017l.003-.012c2.106-6.525 4.666-12.918 7.418-19.19 4.687-10.695 10.325-22.54 19.468-30.124.252-.208.35-.658.1-.912-.7-.717-1.398-1.431-2.1-2.147a.738.738 0 0 0-.52-.24.63.63 0 0 0-.389.14"/>
        <path id="v" d="M32.797.622C16.767 13.122 6.903 32.7.527 51.667c-.09.259-.039.603.212.761 2.416 1.507 4.985 2.214 7.636 1.085a.53.53 0 0 0 .435-.388c.001-.007.005-.011.007-.017l.003-.012c2.106-6.525 4.666-12.918 7.418-19.19 4.687-10.695 10.325-22.54 19.468-30.124.252-.208.35-.658.1-.912-.7-.717-1.398-1.431-2.1-2.147a.738.738 0 0 0-.52-.24.63.63 0 0 0-.389.14"/>
        <path id="x" d="M32.797.622C16.767 13.122 6.903 32.7.527 51.667c-.09.259-.039.603.212.761 2.416 1.507 4.985 2.214 7.636 1.085a.53.53 0 0 0 .435-.388c.001-.007.005-.011.007-.017l.003-.012c2.106-6.525 4.666-12.918 7.418-19.19 4.687-10.695 10.325-22.54 19.468-30.124.252-.208.35-.658.1-.912-.7-.717-1.398-1.431-2.1-2.147a.738.738 0 0 0-.52-.24.63.63 0 0 0-.389.14"/>
        <path id="z" d="M32.797.622C16.767 13.122 6.903 32.7.527 51.667c-.09.259-.039.603.212.761 2.416 1.507 4.985 2.214 7.636 1.085a.53.53 0 0 0 .435-.388c.001-.007.005-.011.007-.017l.003-.012c2.106-6.525 4.666-12.918 7.418-19.19 4.687-10.695 10.325-22.54 19.468-30.124.252-.208.35-.658.1-.912-.7-.717-1.398-1.431-2.1-2.147a.738.738 0 0 0-.52-.24.63.63 0 0 0-.389.14"/>
        <path id="B" d="M32.797.622C16.767 13.122 6.903 32.7.527 51.667c-.09.259-.039.603.212.761 2.416 1.507 4.985 2.214 7.636 1.085a.53.53 0 0 0 .435-.388c.001-.007.005-.011.007-.017l.003-.012c2.106-6.525 4.666-12.918 7.418-19.19 4.687-10.695 10.325-22.54 19.468-30.124.252-.208.35-.658.1-.912-.7-.717-1.398-1.431-2.1-2.147a.738.738 0 0 0-.52-.24.63.63 0 0 0-.389.14"/>
        <path id="D" d="M32.797.622C16.767 13.122 6.903 32.7.527 51.667c-.09.259-.039.603.212.761 2.416 1.507 4.985 2.214 7.636 1.085a.53.53 0 0 0 .435-.388c.001-.007.005-.011.007-.017l.003-.012c2.106-6.525 4.666-12.918 7.418-19.19 4.687-10.695 10.325-22.54 19.468-30.124.252-.208.35-.658.1-.912-.7-.717-1.398-1.431-2.1-2.147a.738.738 0 0 0-.52-.24.63.63 0 0 0-.389.14"/>
        <path id="F" d="M32.797.622C16.767 13.122 6.903 32.7.527 51.667c-.09.259-.039.603.212.761 2.416 1.507 4.985 2.214 7.636 1.085a.53.53 0 0 0 .435-.388c.001-.007.005-.011.007-.017l.003-.012c2.106-6.525 4.666-12.918 7.418-19.19 4.687-10.695 10.325-22.54 19.468-30.124.252-.208.35-.658.1-.912-.7-.717-1.398-1.431-2.1-2.147a.738.738 0 0 0-.52-.24.63.63 0 0 0-.389.14"/>
        <path id="H" d="M32.797.622C16.767 13.122 6.903 32.7.527 51.667c-.09.259-.039.603.212.761 2.416 1.507 4.985 2.214 7.636 1.085a.53.53 0 0 0 .435-.388c.001-.007.005-.011.007-.017l.003-.012c2.106-6.525 4.666-12.918 7.418-19.19 4.687-10.695 10.325-22.54 19.468-30.124.252-.208.35-.658.1-.912-.7-.717-1.398-1.431-2.1-2.147a.738.738 0 0 0-.52-.24.63.63 0 0 0-.389.14"/>
        <path id="J" d="M32.797.622C16.767 13.122 6.903 32.7.527 51.667c-.09.259-.039.603.212.761 2.416 1.507 4.985 2.214 7.636 1.085a.53.53 0 0 0 .435-.388c.001-.007.005-.011.007-.017l.003-.012c2.106-6.525 4.666-12.918 7.418-19.19 4.687-10.695 10.325-22.54 19.468-30.124.252-.208.35-.658.1-.912-.7-.717-1.398-1.431-2.1-2.147a.738.738 0 0 0-.52-.24.63.63 0 0 0-.389.14"/>
        <path id="L" d="M32.797.622C16.767 13.122 6.903 32.7.527 51.667c-.09.259-.039.603.212.761 2.416 1.507 4.985 2.214 7.636 1.085a.53.53 0 0 0 .435-.388c.001-.007.005-.011.007-.017l.003-.012c2.106-6.525 4.666-12.918 7.418-19.19 4.687-10.695 10.325-22.54 19.468-30.124.252-.208.35-.658.1-.912-.7-.717-1.398-1.431-2.1-2.147a.738.738 0 0 0-.52-.24.63.63 0 0 0-.389.14"/>
        <path id="N" d="M32.797.622C16.767 13.122 6.903 32.7.527 51.667c-.09.259-.039.603.212.761 2.416 1.507 4.985 2.214 7.636 1.085a.53.53 0 0 0 .435-.388c.001-.007.005-.011.007-.017l.003-.012c2.106-6.525 4.666-12.918 7.418-19.19 4.687-10.695 10.325-22.54 19.468-30.124.252-.208.35-.658.1-.912-.7-.717-1.398-1.431-2.1-2.147a.738.738 0 0 0-.52-.24.63.63 0 0 0-.389.14"/>
        <path id="P" d="M3.809.122L.799 1.786c-.358.2-.394.725-.185 1.033 7.607 11.299 9.966 26.118 11.657 39.37.99 7.774 1.739 15.612 1.938 23.45-.003.003 0 .01 0 .014-.002.008 0 .014.003.02a.604.604 0 0 0 .35.568c2.554 2.104 5.612 2.17 8.76 1.308.329-.092.494-.454.483-.766C22.94 43.916 18.433 19.245 4.843.307A.707.707 0 0 0 4.256 0a.944.944 0 0 0-.447.122"/>
        <path id="R" d="M3.809.122L.799 1.786c-.358.2-.394.725-.185 1.033 7.607 11.299 9.966 26.118 11.657 39.37.99 7.774 1.739 15.612 1.938 23.45-.003.003 0 .01 0 .014-.002.008 0 .014.003.02a.604.604 0 0 0 .35.568c2.554 2.104 5.612 2.17 8.76 1.308.329-.092.494-.454.483-.766C22.94 43.916 18.433 19.245 4.843.307A.707.707 0 0 0 4.256 0a.944.944 0 0 0-.447.122"/>
        <path id="T" d="M3.809.122L.799 1.786c-.358.2-.394.725-.185 1.033 7.607 11.299 9.966 26.118 11.657 39.37.99 7.774 1.739 15.612 1.938 23.45-.003.003 0 .01 0 .014-.002.008 0 .014.003.02a.604.604 0 0 0 .35.568c2.554 2.104 5.612 2.17 8.76 1.308.329-.092.494-.454.483-.766C22.94 43.916 18.433 19.245 4.843.307A.707.707 0 0 0 4.256 0a.944.944 0 0 0-.447.122"/>
        <path id="V" d="M3.809.122L.799 1.786c-.358.2-.394.725-.185 1.033 7.607 11.299 9.966 26.118 11.657 39.37.99 7.774 1.739 15.612 1.938 23.45-.003.003 0 .01 0 .014-.002.008 0 .014.003.02a.604.604 0 0 0 .35.568c2.554 2.104 5.612 2.17 8.76 1.308.329-.092.494-.454.483-.766C22.94 43.916 18.433 19.245 4.843.307A.707.707 0 0 0 4.256 0a.944.944 0 0 0-.447.122"/>
        <path id="X" d="M3.809.122L.799 1.786c-.358.2-.394.725-.185 1.033 7.607 11.299 9.966 26.118 11.657 39.37.99 7.774 1.739 15.612 1.938 23.45-.003.003 0 .01 0 .014-.002.008 0 .014.003.02a.604.604 0 0 0 .35.568c2.554 2.104 5.612 2.17 8.76 1.308.329-.092.494-.454.483-.766C22.94 43.916 18.433 19.245 4.843.307A.707.707 0 0 0 4.256 0a.944.944 0 0 0-.447.122"/>
        <path id="Z" d="M3.809.122L.799 1.786c-.358.2-.394.725-.185 1.033 7.607 11.299 9.966 26.118 11.657 39.37.99 7.774 1.739 15.612 1.938 23.45-.003.003 0 .01 0 .014-.002.008 0 .014.003.02a.604.604 0 0 0 .35.568c2.554 2.104 5.612 2.17 8.76 1.308.329-.092.494-.454.483-.766C22.94 43.916 18.433 19.245 4.843.307A.707.707 0 0 0 4.256 0a.944.944 0 0 0-.447.122"/>
        <path id="ab" d="M3.809.122L.799 1.786c-.358.2-.394.725-.185 1.033 7.607 11.299 9.966 26.118 11.657 39.37.99 7.774 1.739 15.612 1.938 23.45-.003.003 0 .01 0 .014-.002.008 0 .014.003.02a.604.604 0 0 0 .35.568c2.554 2.104 5.612 2.17 8.76 1.308.329-.092.494-.454.483-.766C22.94 43.916 18.433 19.245 4.843.307A.707.707 0 0 0 4.256 0a.944.944 0 0 0-.447.122"/>
        <path id="ad" d="M3.809.122L.799 1.786c-.358.2-.394.725-.185 1.033 7.607 11.299 9.966 26.118 11.657 39.37.99 7.774 1.739 15.612 1.938 23.45-.003.003 0 .01 0 .014-.002.008 0 .014.003.02a.604.604 0 0 0 .35.568c2.554 2.104 5.612 2.17 8.76 1.308.329-.092.494-.454.483-.766C22.94 43.916 18.433 19.245 4.843.307A.707.707 0 0 0 4.256 0a.944.944 0 0 0-.447.122"/>
        <path id="af" d="M3.809.122L.799 1.786c-.358.2-.394.725-.185 1.033 7.607 11.299 9.966 26.118 11.657 39.37.99 7.774 1.739 15.612 1.938 23.45-.003.003 0 .01 0 .014-.002.008 0 .014.003.02a.604.604 0 0 0 .35.568c2.554 2.104 5.612 2.17 8.76 1.308.329-.092.494-.454.483-.766C22.94 43.916 18.433 19.245 4.843.307A.707.707 0 0 0 4.256 0a.944.944 0 0 0-.447.122"/>
        <path id="ah" d="M3.809.122L.799 1.786c-.358.2-.394.725-.185 1.033 7.607 11.299 9.966 26.118 11.657 39.37.99 7.774 1.739 15.612 1.938 23.45-.003.003 0 .01 0 .014-.002.008 0 .014.003.02a.604.604 0 0 0 .35.568c2.554 2.104 5.612 2.17 8.76 1.308.329-.092.494-.454.483-.766C22.94 43.916 18.433 19.245 4.843.307A.707.707 0 0 0 4.256 0a.944.944 0 0 0-.447.122"/>
        <path id="aj" d="M3.809.122L.799 1.786c-.358.2-.394.725-.185 1.033 7.607 11.299 9.966 26.118 11.657 39.37.99 7.774 1.739 15.612 1.938 23.45-.003.003 0 .01 0 .014-.002.008 0 .014.003.02a.604.604 0 0 0 .35.568c2.554 2.104 5.612 2.17 8.76 1.308.329-.092.494-.454.483-.766C22.94 43.916 18.433 19.245 4.843.307A.707.707 0 0 0 4.256 0a.944.944 0 0 0-.447.122"/>
        <path id="al" d="M3.809.122L.799 1.786c-.358.2-.394.725-.185 1.033 7.607 11.299 9.966 26.118 11.657 39.37.99 7.774 1.739 15.612 1.938 23.45-.003.003 0 .01 0 .014-.002.008 0 .014.003.02a.604.604 0 0 0 .35.568c2.554 2.104 5.612 2.17 8.76 1.308.329-.092.494-.454.483-.766C22.94 43.916 18.433 19.245 4.843.307A.707.707 0 0 0 4.256 0a.944.944 0 0 0-.447.122"/>
        <path id="an" d="M3.809.122L.799 1.786c-.358.2-.394.725-.185 1.033 7.607 11.299 9.966 26.118 11.657 39.37.99 7.774 1.739 15.612 1.938 23.45-.003.003 0 .01 0 .014-.002.008 0 .014.003.02a.604.604 0 0 0 .35.568c2.554 2.104 5.612 2.17 8.76 1.308.329-.092.494-.454.483-.766C22.94 43.916 18.433 19.245 4.843.307A.707.707 0 0 0 4.256 0a.944.944 0 0 0-.447.122"/>
        <path id="ap" d="M3.809.122L.799 1.786c-.358.2-.394.725-.185 1.033 7.607 11.299 9.966 26.118 11.657 39.37.99 7.774 1.739 15.612 1.938 23.45-.003.003 0 .01 0 .014-.002.008 0 .014.003.02a.604.604 0 0 0 .35.568c2.554 2.104 5.612 2.17 8.76 1.308.329-.092.494-.454.483-.766C22.94 43.916 18.433 19.245 4.843.307A.707.707 0 0 0 4.256 0a.944.944 0 0 0-.447.122"/>
        <path id="ar" d="M3.809.122L.799 1.786c-.358.2-.394.725-.185 1.033 7.607 11.299 9.966 26.118 11.657 39.37.99 7.774 1.739 15.612 1.938 23.45-.003.003 0 .01 0 .014-.002.008 0 .014.003.02a.604.604 0 0 0 .35.568c2.554 2.104 5.612 2.17 8.76 1.308.329-.092.494-.454.483-.766C22.94 43.916 18.433 19.245 4.843.307A.707.707 0 0 0 4.256 0a.944.944 0 0 0-.447.122"/>
        <path id="at" d="M3.809.122L.799 1.786c-.358.2-.394.725-.185 1.033 7.607 11.299 9.966 26.118 11.657 39.37.99 7.774 1.739 15.612 1.938 23.45-.003.003 0 .01 0 .014-.002.008 0 .014.003.02a.604.604 0 0 0 .35.568c2.554 2.104 5.612 2.17 8.76 1.308.329-.092.494-.454.483-.766C22.94 43.916 18.433 19.245 4.843.307A.707.707 0 0 0 4.256 0a.944.944 0 0 0-.447.122"/>
        <path id="av" d="M3.809.122L.799 1.786c-.358.2-.394.725-.185 1.033 7.607 11.299 9.966 26.118 11.657 39.37.99 7.774 1.739 15.612 1.938 23.45-.003.003 0 .01 0 .014-.002.008 0 .014.003.02a.604.604 0 0 0 .35.568c2.554 2.104 5.612 2.17 8.76 1.308.329-.092.494-.454.483-.766C22.94 43.916 18.433 19.245 4.843.307A.707.707 0 0 0 4.256 0a.944.944 0 0 0-.447.122"/>
        <path id="ax" d="M3.809.122L.799 1.786c-.358.2-.394.725-.185 1.033 7.607 11.299 9.966 26.118 11.657 39.37.99 7.774 1.739 15.612 1.938 23.45-.003.003 0 .01 0 .014-.002.008 0 .014.003.02a.604.604 0 0 0 .35.568c2.554 2.104 5.612 2.17 8.76 1.308.329-.092.494-.454.483-.766C22.94 43.916 18.433 19.245 4.843.307A.707.707 0 0 0 4.256 0a.944.944 0 0 0-.447.122"/>
        <path id="az" d="M.486.483h41.781v44.896H.486z"/>
        <path id="aB" d="M0 0h11.189v6.971H0z"/>
        <path id="aD" d="M0 0h11.189v1.162H0z"/>
        <path id="aF" d="M0 0h11.189v6.971H0z"/>
        <path id="aH" d="M0 0h11.189v1.162H0z"/>
        <path id="aJ" d="M0 81.333h53V0H0z"/>
    </defs>
    <g fill="none" fill-rule="evenodd">
        <mask id="b" fill="#fff">
            <use xlink:href="#a"/>
        </mask>
        <use fill="#F5F5F5" xlink:href="#a"/>
        <g mask="url(#b)">
            <path fill="#DFF6F7" d="M141.014 62.58c-8.934 1.474-5.46 10.634 6.702 10.416 12.162-.218 13.309-2.835 13.284-5.548-.048-5.106-11.05-6.342-19.986-4.868zm226.995 50c-5.361 1.473-3.277 10.634 4.02 10.416 7.298-.218 7.985-2.835 7.97-5.547-.028-5.107-6.63-6.343-11.99-4.87zm-133.596 34c-7.863 1.474-4.806 10.634 5.897 10.416 10.703-.218 11.712-2.835 11.69-5.548-.043-5.105-9.724-6.342-17.587-4.868zM312.589 28h53.814c.308 0 .616-.278.596-.608-.157-2.654-3.248-3.567-5.536-3.416-1.054-4.345-5.236-4.974-8.503-2.564-1.269-2.71-2.166-5.202-5.448-5.819-2.587-.487-4.387 1.03-5.638 3.087-1.876-2.431-3.748-5.092-6.97-5.576-2.67-.402-5.672.318-7.043 2.982-.786 1.535-1.059 3.329-1.913 4.819-.692 1.204-2.232.813-3.39 1.324-1.623.716-2.606 2.288-4.206 3.007-1.858.836-3.833 1.242-5.828 1.552-.46.076-.571.375-.507.659.022.285.211.553.572.553zm-198.63 2.342c-1.02-.432-1.645-1.375-2.678-1.805-.736-.306-1.717-.072-2.156-.794-.545-.894-.717-1.97-1.219-2.891-.872-1.599-2.781-2.03-4.481-1.79-2.051.29-3.242 1.888-4.436 3.347-.796-1.235-1.942-2.145-3.588-1.853-2.088.37-2.66 1.865-3.467 3.49-2.08-1.445-4.74-1.068-5.411 1.54-1.456-.09-3.423.457-3.522 2.049-.013.199.182.365.378.365h34.246c.23 0 .35-.16.364-.332.04-.17-.03-.35-.26-.385-1.332-.197-2.59-.44-3.77-.941zM24.618 89h40.033c.471 0 .456-.672 0-.709-2.16-.18-2.551-2.954-4.209-3.833-.272-.142-.754-.136-1.044-.046-.915.285-1.489.228-2.112-.538-.507-.623-1.097-1.339-1.994-1.329-.686.006-1.787.344-2.338-.235-.415-.434-.633-.906-.892-1.434-.457-.932-1.04-1.547-1.99-2.002-1.731-.828-2.68.284-3.81 1.322-1.52-1.544-3.632-2.389-5.83-2.159-2.583.27-3.759 2.372-4.99 4.331-.147.235-.812 1.588-1.13 1.57-.575-.032-1.118-.02-1.694-.101-.795-.114-1.588-.036-2.184.582-.328.34-.547.709-.76 1.129-.48.942-1.224 1.113-2.222 1.126-1.167.018-2.056 1.355-3.179 1.624a.322.322 0 0 0-.08.026c-.164.067-.217.226-.185.374.02.158.134.302.343.302h.266zm198.417-61h-62.494c-.734 0-.712-1.039 0-1.097 3.372-.276 3.984-4.563 6.573-5.923.422-.22 1.176-.21 1.628-.07 1.43.44 2.325.352 3.298-.832.792-.963 1.712-2.069 3.112-2.054 1.07.01 2.789.53 3.65-.363.647-.671.988-1.401 1.392-2.217.711-1.439 1.624-2.391 3.105-3.093 2.703-1.281 4.185.438 5.949 2.045 2.372-2.388 5.67-3.694 9.102-3.338 4.03.417 5.867 3.666 7.788 6.694.23.362 1.268 2.453 1.765 2.426.896-.052 1.745-.03 2.641-.157 1.242-.177 2.48-.056 3.411.9.512.523.854 1.095 1.188 1.743.75 1.458 1.908 1.72 3.466 1.742 1.823.026 3.21 2.092 4.962 2.51a.473.473 0 0 1 .123.039c.26.104.34.35.291.578a.515.515 0 0 1-.535.467h-.415z"/>
            <g transform="translate(-29 78.517)">
                <mask id="e" fill="#fff">
                    <use xlink:href="#c"/>
                </mask>
                <path fill="url(#d)" d="M417 47.895c0 28.604-40.449 21.683-42.56 41.333-1.965 18.263 26.004 17.381 29.964 30.47 7.339 24.264-37.35 30.366-49.91 31.344-32.659 2.544-61.388 1.382-86.461-.874-7.951-.566-33.843-.05-34.856-8.466-1.225-10.154 14.111-6.785 14.6-13.542.61-8.462-24.959-8.472-38.517-7.788-25.631 1.29-41.517-.108-65.98 1.584-12.841.562-53.811 2.256-53.2-15.802.19-5.667 10.27-8.185 11.006-12.413 1.734-9.965-29.965-9.589-37.915-9.029-20.794 1.13-57.63-2.116-59.929-18.054C-.222 42.636 34.43 40.287 46.05 39.724c26.292 0 51.367.008 78.274-2.256 5.998-.506 12.232-.153 11.01-6.925-1.225-4.512-9.787-6.205-10.397-10.72-2.447-18.62 64.591-21.399 99.68-18.202 37.56 3.418 58.506 5.222 43.219 20.459C255.277 34.597 417 15.312 417 47.895" mask="url(#e)"/>
            </g>
            <path fill="#FEAA31" d="M295.95 136.093c-2.943-18.295-22.357-35.064-40.874-35.23-19.092-.174-36.61 17.028-42.042 34.27-.408 1.299.237 3 1.479 3.62 12.954 6.511 27.629 8.53 42.008 8.451 12.65-.071 26.922-.56 37.951-7.487 1.111-.697 1.54-1.733 1.5-2.753a3.509 3.509 0 0 0-.023-.87"/>
            <path fill="#CB7B44" d="M232.83 120.172c0 .475-.469.966-.921.966-.454 0-1.021-.49-1.021-.966 0-.475.567-.965 1.02-.965.453 0 .923.49.923.965M239.633 121.138c0 .475-.467.965-.921.965s-1.023-.49-1.023-.965c0-.474.569-.966 1.023-.966.454 0 .92.492.92.966M287.244 134.173c0 .475-.47.964-.923.964-.454 0-1.02-.49-1.02-.964 0-.475.566-.967 1.02-.967.454 0 .923.492.923.967M284.815 117.757c0 .477-.469.967-.92.967-.454 0-1.023-.49-1.023-.967 0-.474.57-.964 1.022-.964.452 0 .92.49.92.964M219.228 134.656c0 .474-.468.964-.921.964-.455 0-1.023-.49-1.023-.964 0-.476.568-.967 1.023-.967.453 0 .92.491.92.967M276.07 140.448c0 .475-.469.965-.92.965-.455 0-1.023-.49-1.023-.965s.568-.966 1.022-.966c.452 0 .92.49.92.966M240.118 136.105c0 .473-.468.964-.92.964-.454 0-1.023-.49-1.023-.964s.569-.968 1.024-.968c.451 0 .92.494.92.968M242.062 114.862c0 .235-.236.482-.461.482-.224 0-.511-.247-.511-.482 0-.238.287-.483.51-.483.226 0 .462.245.462.483M236.232 117.277c0 .234-.235.481-.46.481-.228 0-.512-.247-.512-.481 0-.24.284-.484.512-.484.225 0 .46.244.46.484M275.584 116.792c0 .238-.235.483-.46.483-.226 0-.512-.245-.512-.483 0-.236.286-.482.511-.482.226 0 .461.246.461.482M254.208 135.62c0 .236-.236.483-.46.483-.226 0-.512-.247-.512-.483 0-.239.286-.483.511-.483.225 0 .46.244.46.483M227.973 133.206c0 .236-.234.483-.46.483s-.512-.247-.512-.483c0-.237.286-.482.512-.482.226 0 .46.245.46.482M272.67 109.553c0 .234-.234.481-.461.481-.226 0-.512-.247-.512-.481 0-.24.286-.484.512-.484.227 0 .46.245.46.484M247.892 144.793c0 .237-.234.482-.46.482s-.512-.245-.512-.482c0-.238.286-.483.513-.483.225 0 .459.245.459.483M225.058 133.69c0 .235-.235.482-.46.482-.227 0-.512-.247-.512-.483 0-.239.285-.483.512-.483.225 0 .46.244.46.483M278.985 125.966c0 .234-.234.482-.46.482-.225 0-.512-.248-.512-.482 0-.24.287-.484.511-.484.227 0 .46.245.46.484M261.495 126.448c0 .235-.235.483-.46.483-.227 0-.512-.248-.512-.483 0-.239.285-.483.512-.483.225 0 .46.244.46.483M250.807 124.035c0 .235-.234.482-.461.482-.226 0-.511-.247-.511-.482 0-.24.285-.484.51-.484.228 0 .462.244.462.484M258.58 135.137c0 .237-.234.483-.46.483-.228 0-.512-.246-.512-.483 0-.236.284-.482.512-.482.226 0 .46.246.46.482M254.693 106.173c0 .237-.233.482-.46.482-.226 0-.511-.245-.511-.482 0-.239.285-.484.51-.484.228 0 .461.245.461.484M240.604 107.139c0 .234-.234.481-.46.481-.225 0-.511-.247-.511-.481 0-.239.286-.484.51-.484.227 0 .461.245.461.484"/>
            <path fill="#955830" d="M288.556 68.95l-2.1-2.126c-.248-.252-.606-.333-.909-.1-16.03 12.388-25.894 31.788-32.27 50.585-.089.257-.04.598.214.755 2.414 1.493 4.983 2.194 7.634 1.075a.53.53 0 0 0 .436-.385l.005-.017c.002-.004.005-.008.005-.012 2.106-6.466 4.665-12.801 7.417-19.018 4.688-10.599 10.324-22.335 19.47-29.853.25-.205.348-.65.098-.903"/>
            <g>
                <g transform="translate(252.75 66.103)">
                    <mask id="g" fill="#fff">
                        <use xlink:href="#f"/>
                    </mask>
                    <path fill="#A4663C" d="M1.003 42.353c2.166 4.206 4.644 8.21 7.302 12.095.188.275.578-.053.39-.326-2.63-3.848-5.09-7.814-7.236-11.98-.15-.294-.61-.087-.456.211" mask="url(#g)"/>
                </g>
                <g transform="translate(252.75 66.103)">
                    <mask id="i" fill="#fff">
                        <use xlink:href="#h"/>
                    </mask>
                    <path fill="#A4663C" d="M3.422 37.53c2.142 5.293 5.819 9.668 8.767 14.498.171.283.573-.04.4-.318-2.922-4.793-6.574-9.139-8.699-14.386-.122-.308-.594-.1-.468.207" mask="url(#i)"/>
                </g>
                <g transform="translate(252.75 66.103)">
                    <mask id="k" fill="#fff">
                        <use xlink:href="#j"/>
                    </mask>
                    <path fill="#A4663C" d="M5.878 32.298c2.53 3.829 4.511 7.963 6.728 11.975.161.293.642.083.478-.213-2.235-4.049-4.24-8.224-6.797-12.09-.186-.283-.596.046-.41.328" mask="url(#k)"/>
                </g>
                <g transform="translate(252.75 66.103)">
                    <mask id="m" fill="#fff">
                        <use xlink:href="#l"/>
                    </mask>
                    <path fill="#A4663C" d="M9.28 28.423c2.496 3.526 4.536 7.32 6.727 11.029.167.28.645.077.475-.209-2.215-3.745-4.277-7.58-6.796-11.14-.193-.272-.596.05-.405.32" mask="url(#m)"/>
                </g>
                <g transform="translate(252.75 66.103)">
                    <mask id="o" fill="#fff">
                        <use xlink:href="#n"/>
                    </mask>
                    <path fill="#A4663C" d="M12.648 19.194c1.567 4.512 3.652 8.777 5.812 13.008.15.295.61.087.456-.208-2.16-4.234-4.243-8.497-5.81-13.012-.109-.313-.567-.104-.458.212" mask="url(#o)"/>
                </g>
                <g transform="translate(252.75 66.103)">
                    <mask id="q" fill="#fff">
                        <use xlink:href="#p"/>
                    </mask>
                    <path fill="#A4663C" d="M17.504 12.437c1.518 4.667 3.672 9.07 5.8 13.485.145.302.62.092.474-.209-2.127-4.417-4.281-8.82-5.799-13.487-.104-.318-.577-.106-.475.21" mask="url(#q)"/>
                </g>
                <g transform="translate(252.75 66.103)">
                    <mask id="s" fill="#fff">
                        <use xlink:href="#r"/>
                    </mask>
                    <path fill="#A4663C" d="M21.39 8.58c1.17 3.892 2.193 7.819 3.852 11.545.135.309.62.097.483-.215-1.66-3.723-2.683-7.651-3.852-11.543-.097-.324-.58-.107-.484.213" mask="url(#s)"/>
                </g>
                <g transform="translate(252.75 66.103)">
                    <mask id="u" fill="#fff">
                        <use xlink:href="#t"/>
                    </mask>
                    <path fill="#A4663C" d="M24.793 3.74c1.166 3.355 2.211 6.75 3.38 10.106.108.311.581.104.476-.208-1.166-3.354-2.215-6.748-3.382-10.105-.107-.31-.58-.104-.474.207" mask="url(#u)"/>
                </g>
                <g transform="translate(252.75 66.103)">
                    <mask id="w" fill="#fff">
                        <use xlink:href="#v"/>
                    </mask>
                    <path fill="#A4663C" d="M29.652.36c.981 2.717 1.957 5.436 2.872 8.174.104.314.603.105.498-.207A338.612 338.612 0 0 0 30.15.155c-.11-.313-.61-.105-.497.205" mask="url(#w)"/>
                </g>
                <g transform="translate(252.75 66.103)">
                    <mask id="y" fill="#fff">
                        <use xlink:href="#x"/>
                    </mask>
                    <path fill="#A4663C" d="M-3.109 50.205c5.964-.665 11.65-2.526 17.478-3.838.323-.072.244-.57-.082-.498C8.462 47.182 2.77 49.044-3.19 49.708c-.331.039-.248.534.081.497" mask="url(#y)"/>
                </g>
                <g transform="translate(252.75 66.103)">
                    <mask id="A" fill="#fff">
                        <use xlink:href="#z"/>
                    </mask>
                    <path fill="#A4663C" d="M-3.111 44.889c6.8-1.595 13.343-4.02 19.96-6.253.316-.108.103-.589-.214-.483-6.569 2.218-13.071 4.63-19.828 6.213-.325.077-.246.6.082.523" mask="url(#A)"/>
                </g>
                <g transform="translate(252.75 66.103)">
                    <mask id="C" fill="#fff">
                        <use xlink:href="#B"/>
                    </mask>
                    <path fill="#A4663C" d="M-.748 38.126c6.83.208 13.043-2.428 19.494-4.289.316-.092.238-.607-.082-.516-6.397 1.844-12.585 4.493-19.356 4.288-.33-.012-.391.509-.056.517" mask="url(#C)"/>
                </g>
                <g transform="translate(252.75 66.103)">
                    <mask id="E" fill="#fff">
                        <use xlink:href="#D"/>
                    </mask>
                    <path fill="#A4663C" d="M3.2 32.34c6.37-1.213 12.641-2.817 18.946-4.319.316-.077.24-.573-.079-.496-6.303 1.501-12.578 3.106-18.947 4.319-.32.06-.244.557.08.495" mask="url(#E)"/>
                </g>
                <g transform="translate(252.75 66.103)">
                    <mask id="G" fill="#fff">
                        <use xlink:href="#F"/>
                    </mask>
                    <path fill="#A4663C" d="M5.142 27.507c7.112-1.965 14.226-3.924 21.375-5.746.318-.083.243-.594-.08-.51-7.15 1.823-14.266 3.781-21.378 5.747-.315.087-.238.597.083.509" mask="url(#G)"/>
                </g>
                <g transform="translate(252.75 66.103)">
                    <mask id="I" fill="#fff">
                        <use xlink:href="#H"/>
                    </mask>
                    <path fill="#A4663C" d="M9.52 21.237c5.517-1.02 11.009-2.187 16.508-3.319.323-.064.247-.6-.08-.533-5.5 1.13-10.99 2.295-16.51 3.319-.323.058-.247.592.082.533" mask="url(#I)"/>
                </g>
                <g transform="translate(252.75 66.103)">
                    <mask id="K" fill="#fff">
                        <use xlink:href="#J"/>
                    </mask>
                    <path fill="#A4663C" d="M13.889 14.96c5.447-1.167 11.014-1.524 16.51-2.395.328-.052.245-.546-.082-.492-5.495.873-11.061 1.229-16.508 2.394-.322.067-.244.56.08.492" mask="url(#K)"/>
                </g>
                <g transform="translate(252.75 66.103)">
                    <mask id="M" fill="#fff">
                        <use xlink:href="#L"/>
                    </mask>
                    <path fill="#A4663C" d="M18.678 8.69c4.887.004 9.756-.371 14.637-.523.327-.01.243-.454-.082-.443-4.834.15-9.655.522-14.497.519-.323 0-.384.447-.058.447" mask="url(#M)"/>
                </g>
                <g transform="translate(252.75 66.103)">
                    <mask id="O" fill="#fff">
                        <use xlink:href="#N"/>
                    </mask>
                    <path fill="#A4663C" d="M21.597 4.897c5.13 1.06 10.329.872 15.53.896.334.003.394-.542.057-.545-5.202-.023-10.4.165-15.53-.897-.33-.068-.385.476-.057.546" mask="url(#O)"/>
                </g>
            </g>
            <g>
                <path fill="#764B2F" d="M294.03 71.092c-.204 1.775-2.278 3.4-4.084 3.202-1.803-.199-3.862-2.277-3.66-4.052.202-1.772 2.677-3.354 4.482-3.156 1.804.198 3.462 2.232 3.261 4.006M283.34 70.127c-.203 1.773-2.276 3.399-4.082 3.201-1.804-.198-3.862-2.278-3.66-4.05.201-1.773 2.676-3.354 4.481-3.158 1.805.2 3.462 2.235 3.262 4.007"/>
                <path fill="#738B3D" d="M310.698 64.99c.758 1.485.867 3.254.74 4.83 3.47 1.156 6.841 2.633 9.87 4.32.459-1.012.837-2.19.917-3.426 0 0 1.02 1.984 1.315 4.746 3.216 2.02 5.918 4.264 7.734 6.574 1.586-7.937.456-15.663-4.637-20.727-2.094.96-3.207 2.069-3.207 2.069.262-1.19.982-2.306 1.842-3.276-3.253-2.595-7.798-4.277-13.864-4.61a21.106 21.106 0 0 0-3.289 4.25s-.154-1.893.267-4.257c-9.709.69-21.08 8.2-24.057 15.764 5.068-5.088 15.183-4.942 24.953-2.097 1.289-2.232 1.416-4.16 1.416-4.16"/>
                <path fill="#677A34" d="M306.487 60.816c-2.855-.136-5.604.342-8.057 1.114a29.259 29.259 0 0 0-6.498 2.98c-3.72 2.303-6.24 4.777-7.603 6.455a42.125 42.125 0 0 1 7.982-5.81c3.708-2.05 8.65-3.943 14.135-3.706 5.472.222 10.257 2.487 13.694 4.973 3.504 2.463 5.874 5.015 7.428 6.523-1.321-1.705-3.513-4.456-6.983-7.123-3.394-2.684-8.352-5.174-14.098-5.406"/>
                <path fill="#738B3D" d="M313.115 54.192c1.442 1.142 2.266 2.753 2.747 4.263 4.378-.04 8.773.253 12.866.847.115-1.09.076-2.311-.321-3.49 0 0 1.94 1.523 3.364 4.001 4.435.848 8.376 2.07 11.344 3.636-1.347-7.907-5.684-14.744-13.442-17.822-1.988 1.568-2.807 2.96-2.807 2.96-.176-1.192.198-2.465.784-3.644-4.702-1.372-10.507-1.474-17.494.168a18.475 18.475 0 0 0-2.033 5.021s-.923-1.716-1.385-4.055c-10.699 3.772-20.582 14.432-20.951 22.44 3.714-6.373 15.204-9.496 27.374-9.993.574-2.495-.046-4.332-.046-4.332"/>
                <path fill="#677A34" d="M306.603 51.104c-3.273.79-6.184 2.117-8.644 3.624a32.624 32.624 0 0 0-6.152 4.857c-3.286 3.338-5.147 6.451-6.02 8.45 1.207-1.875 3.322-4.822 6.703-7.97 3.373-3.098 8.201-6.448 14.476-7.986 6.263-1.549 12.555-.979 17.416.232 4.927 1.167 8.609 2.781 10.96 3.684-2.166-1.16-5.727-3.017-10.697-4.386-4.887-1.407-11.466-2.135-18.042-.505"/>
                <path fill="#738B3D" d="M306.56 83.192c-.149 1.504-.902 2.787-1.737 3.786 1.988 3.025 3.757 6.204 5.175 9.307.815-.4 1.645-.965 2.29-1.76 0 0-.191 2.018-1.28 4.1 1.4 3.454 2.313 6.728 2.551 9.478 4.905-4.423 7.726-10.445 6.39-17.191-1.982-.687-3.32-.642-3.32-.642.751-.65 1.806-.952 2.892-1.064-1.154-3.871-3.684-7.947-7.962-12.071-1.354.05-2.867.269-4.41.8 0 0 .785-1.397 2.206-2.75-7.427-5.766-19.282-7.926-25.026-4.65 6.104-.233 13.432 6.368 19.234 14.598 1.995-.7 2.997-1.94 2.997-1.94"/>
                <path fill="#677A34" d="M305.469 77.66c-2.02-1.933-4.252-3.38-6.403-4.426a27.143 27.143 0 0 0-6.147-2.14c-3.796-.81-6.804-.73-8.59-.451 1.849.011 4.852.179 8.564 1.14 3.671.98 8.17 2.865 12.057 6.563 3.888 3.683 6.31 8.33 7.642 12.26 1.396 3.959 1.921 7.247 2.344 9.29-.158-2.029-.46-5.337-1.735-9.417-1.208-4.037-3.652-8.953-7.732-12.818"/>
                <path fill="#738B3D" d="M260.527 65.14c-.972 1.156-1.362 2.579-1.49 3.86a72.47 72.47 0 0 0-10.333 2.904c-.284-.848-.466-1.822-.351-2.827 0 0-1.312 1.545-2.039 3.76-3.464 1.44-6.462 3.093-8.601 4.852-.289-6.51 2.04-12.69 7.826-16.479 1.891.9 2.803 1.866 2.803 1.866-.065-.978-.592-1.927-1.275-2.76 3.59-1.904 8.3-2.992 14.277-2.897.923.977 1.831 2.185 2.54 3.634 0 0 .45-1.523.416-3.46 9.379 1.14 19.297 7.888 21 14.183-4.141-4.416-14.05-4.903-24.05-3.188-.904-1.883-.723-3.449-.723-3.449"/>
                <path fill="#677A34" d="M265.244 61.769c2.823.06 5.446.627 7.728 1.42 2.291.795 4.26 1.811 5.902 2.874 3.28 2.142 5.357 4.355 6.427 5.833-1.32-1.317-3.575-3.348-6.902-5.323-3.313-1.93-7.861-3.804-13.281-3.942-5.406-.154-10.466 1.437-14.235 3.292-3.834 1.832-6.568 3.805-8.335 4.963 1.569-1.335 4.161-3.486 7.996-5.488 3.757-2.024 9.021-3.791 14.7-3.63"/>
                <path fill="#738B3D" d="M265.339 53.571c-1.38.925-2.343 2.41-3.004 3.846-3.576-.687-7.226-1.045-10.677-1.054.096-1.106.345-2.318.876-3.436 0 0-1.854 1.232-3.458 3.494-3.783.189-7.225.825-9.93 1.95 2.504-7.687 7.263-13.865 14.158-15.788 1.35 1.856 1.77 3.366 1.77 3.366.357-1.165.279-2.487.008-3.752 4.091-.673 8.859.082 14.289 2.755.423 1.529.743 3.323.773 5.308 0 0 1.06-1.577 1.851-3.84 8.09 5.34 14.291 17.433 13.176 25.476-1.913-6.906-10.764-11.718-20.635-14.01-.03-2.575.803-4.315.803-4.315"/>
                <path fill="#677A34" d="M271.28 52.147c2.536 1.256 4.682 2.993 6.426 4.84a28.633 28.633 0 0 1 4.168 5.69c2.093 3.775 3.065 7.119 3.427 9.22a41.229 41.229 0 0 0-4.07-8.845c-2.208-3.552-5.561-7.561-10.42-9.995-4.843-2.444-10.09-2.799-14.279-2.315-4.233.434-7.53 1.488-9.612 2.035 1.977-.828 5.216-2.141 9.52-2.764 4.248-.678 9.753-.434 14.84 2.134"/>
                <path fill="#738B3D" d="M281.083 44.693c-1.418-.52-2.88-.408-4.123-.096a71.724 71.724 0 0 0-6.272-8.641c.694-.551 1.544-1.048 2.522-1.275 0 0-1.895-.702-4.216-.64-2.54-2.74-5.117-4.976-7.499-6.38 5.989-2.447 12.567-2.345 18.098 1.767-.188 2.063-.777 3.234-.777 3.234.895-.388 1.597-1.194 2.139-2.111 3.016 2.704 5.656 6.722 7.628 12.318a14.577 14.577 0 0 1-2.523 3.577s1.578-.09 3.375-.769c2.165 9.105-.727 20.595-6.023 24.288 2.702-5.334-.254-14.716-5.303-23.446 1.447-1.473 2.974-1.826 2.974-1.826"/>
                <path fill="#677A34" d="M285.877 48.009c.914 2.644 1.297 5.266 1.358 7.647a27.161 27.161 0 0 1-.597 6.426c-.828 3.75-2.133 6.406-3.114 7.883.747-1.659 1.826-4.42 2.483-8.157.624-3.71.773-8.554-.96-13.635-1.719-5.074-4.908-9.257-7.899-12.154-2.99-2.963-5.73-4.858-7.394-6.123 1.759 1.023 4.614 2.728 7.758 5.635 3.137 2.831 6.558 7.145 8.365 12.478"/>
                <path fill="#955839" d="M289.17 72.54c-.202 1.775-2.276 3.4-4.082 3.202-1.804-.2-3.86-2.277-3.66-4.051.203-1.771 2.676-3.355 4.481-3.157 1.808.198 3.463 2.233 3.262 4.006"/>
                <path fill="#AC6936" d="M234.419 56.39c7.766 11.38 10.174 26.304 11.9 39.65 1.011 7.828 1.774 15.723 1.978 23.617-.002.004 0 .01 0 .014-.001.008 0 .014.003.02a.607.607 0 0 0 .358.573c2.608 2.117 5.728 2.183 8.941 1.316.337-.092.506-.456.495-.77-.885-23.03-5.484-47.878-19.358-66.95-.26-.355-.689-.384-1.055-.186-1.025.56-2.05 1.117-3.074 1.677-.364.2-.4.73-.188 1.04"/>
            </g>
            <g>
                <g transform="translate(233.803 53.552)">
                    <mask id="Q" fill="#fff">
                        <use xlink:href="#P"/>
                    </mask>
                    <path fill="#CC7F49" d="M25.666 56.47c-3.784 3.799-7.862 7.276-12.097 10.57-.3.235-.633-.248-.336-.477 4.195-3.264 8.235-6.71 11.986-10.473.266-.265.716.113.447.38" mask="url(#Q)"/>
                </g>
                <g transform="translate(233.803 53.552)">
                    <mask id="S" fill="#fff">
                        <use xlink:href="#R"/>
                    </mask>
                    <path fill="#CC7F49" d="M24.708 51.193c-4.128 5.254-9.667 8.959-14.545 13.423-.283.261-.623-.237-.34-.495 4.837-4.43 10.338-8.11 14.434-13.322.239-.304.694.089.45.394" mask="url(#S)"/>
                </g>
                <g transform="translate(233.803 53.552)">
                    <mask id="U" fill="#fff">
                        <use xlink:href="#T"/>
                    </mask>
                    <path fill="#CC7F49" d="M23.695 44.491c-3.93 3.373-7.367 7.262-11.018 10.935-.269.269-.72-.117-.447-.39 3.683-3.709 7.16-7.632 11.129-11.037.291-.249.624.246.336.492" mask="url(#U)"/>
                </g>
                <g transform="translate(233.803 53.552)">
                    <mask id="W" fill="#fff">
                        <use xlink:href="#V"/>
                    </mask>
                    <path fill="#CC7F49" d="M21.261 38.686c-3.894 3.08-7.38 6.607-11.006 9.986-.275.26-.729-.123-.452-.383 3.663-3.414 7.184-6.977 11.12-10.087.298-.238.636.248.338.484" mask="url(#W)"/>
                </g>
                <g transform="translate(233.803 53.552)">
                    <mask id="Y" fill="#fff">
                        <use xlink:href="#X"/>
                    </mask>
                    <path fill="#CC7F49" d="M20.828 27.537c-3.313 4.47-7.146 8.482-11.056 12.438-.269.273-.73-.11-.458-.388 3.908-3.956 7.739-7.971 11.053-12.44.23-.308.692.079.46.39" mask="url(#Y)"/>
                </g>
                <g transform="translate(233.803 53.552)">
                    <mask id="aa" fill="#fff">
                        <use xlink:href="#Z"/>
                    </mask>
                    <path fill="#CC7F49" d="M17.918 18.362c-3.274 4.63-7.182 8.766-11.06 12.917-.261.285-.729-.1-.463-.384 3.879-4.152 7.783-8.287 11.059-12.917.223-.313.684.072.464.384" mask="url(#aa)"/>
                </g>
                <g transform="translate(233.803 53.552)">
                    <mask id="ac" fill="#fff">
                        <use xlink:href="#ab"/>
                    </mask>
                    <path fill="#CC7F49" d="M14.037 12.581c-2.46 3.902-4.772 7.892-7.692 11.452-.244.295-.69-.096-.443-.393 2.92-3.557 5.234-7.55 7.69-11.449.208-.326.648.068.445.39" mask="url(#ac)"/>
                </g>
                <g transform="translate(233.803 53.552)">
                    <mask id="ae" fill="#fff">
                        <use xlink:href="#ad"/>
                    </mask>
                    <path fill="#CC7F49" d="M12.086 6.767c-2.439 3.312-4.754 6.705-7.194 10.016-.225.307-.684-.073-.459-.378C6.87 13.093 9.186 9.702 11.622 6.39c.226-.308.688.071.464.377" mask="url(#ae)"/>
                </g>
                <g transform="translate(233.803 53.552)">
                    <mask id="ag" fill="#fff">
                        <use xlink:href="#af"/>
                    </mask>
                    <path fill="#CC7F49" d="M8.2.974C6.262 3.651 4.33 6.335 2.457 9.056c-.215.312-.67-.068-.459-.378C3.875 5.958 5.807 3.273 7.744.596c.222-.306.678.072.456.378" mask="url(#ag)"/>
                </g>
                <g transform="translate(233.803 53.552)">
                    <mask id="ai" fill="#fff">
                        <use xlink:href="#ah"/>
                    </mask>
                    <path fill="#CC7F49" d="M27.754 67.077C21.438 64.384 15.82 60.433 9.87 57.056c-.33-.187-.077-.724.255-.533 5.95 3.375 11.567 7.33 17.885 10.018.351.15.093.687-.257.536" mask="url(#ai)"/>
                </g>
                <g transform="translate(233.803 53.552)">
                    <mask id="ak" fill="#fff">
                        <use xlink:href="#aj"/>
                    </mask>
                    <path fill="#CC7F49" d="M29.711 61.27c-6.947-3.991-13.345-8.808-19.877-13.441-.316-.224.072-.681.384-.46 6.493 4.6 12.85 9.39 19.75 13.356.33.19.076.737-.257.545" mask="url(#ak)"/>
                </g>
                <g transform="translate(233.803 53.552)">
                    <mask id="am" fill="#fff">
                        <use xlink:href="#al"/>
                    </mask>
                    <path fill="#CC7F49" d="M28.818 52.61c-7.532-1.99-13.474-6.878-19.924-10.996-.321-.2-.07-.739.252-.534 6.397 4.084 12.312 8.973 19.776 10.948.365.096.263.679-.104.582" mask="url(#am)"/>
                </g>
                <g transform="translate(233.803 53.552)">
                    <mask id="ao" fill="#fff">
                        <use xlink:href="#an"/>
                    </mask>
                    <path fill="#CC7F49" d="M26.788 45.344C20.04 41.918 13.53 38.084 6.956 34.36c-.33-.188-.076-.716.258-.527 6.575 3.725 13.084 7.56 19.832 10.985.34.173.084.702-.258.526" mask="url(#ao)"/>
                </g>
                <g transform="translate(233.803 53.552)">
                    <mask id="aq" fill="#fff">
                        <use xlink:href="#ap"/>
                    </mask>
                    <path fill="#CC7F49" d="M25.83 39.059c-7.23-4.512-14.47-9.011-21.792-13.377-.326-.193-.072-.733.258-.536 7.322 4.364 14.558 8.864 21.79 13.373.322.2.07.742-.256.54" mask="url(#aq)"/>
                </g>
                <g transform="translate(233.803 53.552)">
                    <mask id="as" fill="#fff">
                        <use xlink:href="#ar"/>
                    </mask>
                    <path fill="#CC7F49" d="M23.384 30.38c-5.84-2.929-11.606-6.003-17.394-9.04-.34-.182-.084-.724.258-.546 5.785 3.039 11.551 6.114 17.394 9.044.345.17.09.716-.258.542" mask="url(#as)"/>
                </g>
                <g transform="translate(233.803 53.552)">
                    <mask id="au" fill="#fff">
                        <use xlink:href="#at"/>
                    </mask>
                    <path fill="#CC7F49" d="M20.48 22.65c-5.616-3.089-11.634-5.306-17.403-8.087-.342-.165-.087-.697.258-.532 5.766 2.782 11.786 4.998 17.4 8.09.333.183.078.715-.254.53" mask="url(#au)"/>
                </g>
                <g transform="translate(233.803 53.552)">
                    <mask id="aw" fill="#fff">
                        <use xlink:href="#av"/>
                    </mask>
                    <path fill="#CC7F49" d="M17.639 14.469C12.063 12.8 6.658 10.647 1.149 8.777c-.37-.125-.103-.676.263-.552 5.454 1.85 10.811 3.99 16.334 5.642.368.109.265.714-.107.602" mask="url(#aw)"/>
                </g>
                <g transform="translate(233.803 53.552)">
                    <mask id="ay" fill="#fff">
                        <use xlink:href="#ax"/>
                    </mask>
                    <path fill="#CC7F49" d="M15.686 8.688C9.7 8.118 4.028 6.186-1.714 4.48c-.368-.109-.264-.713.106-.604 5.74 1.707 11.416 3.64 17.399 4.212.387.035.277.637-.105.601" mask="url(#ay)"/>
                </g>
            </g>
            <g>
                <path fill="#764B2F" d="M227.538 56.164c-.38 2.112 1.425 4.682 3.557 5.059 2.13.378 5.2-1.33 5.58-3.441.382-2.113-1.898-4.768-4.03-5.145-2.13-.378-4.727 1.414-5.107 3.527M239.684 59.06c-.382 2.111 1.426 4.684 3.557 5.06 2.13.377 5.198-1.329 5.58-3.442.38-2.112-1.9-4.767-4.03-5.145-2.131-.377-4.728 1.414-5.107 3.526"/>
                <path fill="#92B759" d="M211.106 43.954c-1.322 1.383-2.025 3.282-2.402 5.049-4.21.141-8.42.669-12.318 1.535-.175-1.258-.204-2.672.111-4.05 0 0-1.776 1.843-3.008 4.77-4.218 1.171-7.935 2.753-10.699 4.694.853-9.203 4.636-17.295 11.923-21.19 1.996 1.73 2.863 3.304 2.863 3.304.101-1.388-.327-2.843-.958-4.184 4.442-1.787 10.015-2.156 16.824-.555a24.027 24.027 0 0 1 2.237 5.72s.79-2.028 1.1-4.75c10.497 3.9 20.592 15.802 21.396 25.048-3.929-7.212-15.146-10.327-26.872-10.378-.69-2.86-.197-5.013-.197-5.013"/>
                <path fill="#839E47" d="M217.098 40.817c3.204.786 6.097 2.22 8.558 3.885a33.546 33.546 0 0 1 6.22 5.448c3.364 3.782 5.341 7.364 6.3 9.677a48.78 48.78 0 0 0-6.931-9.086c-3.437-3.498-8.291-7.225-14.444-8.762-6.14-1.55-12.192-.6-16.823 1.035-4.696 1.59-8.166 3.65-10.386 4.814 2.026-1.46 5.364-3.8 10.092-5.627 4.646-1.874 10.965-3.015 17.414-1.384"/>
                <path fill="#92B759" d="M212.29 31c-1.978.808-3.428 2.343-4.464 3.876-4.834-1.474-9.796-2.581-14.525-3.252.237-1.258.688-2.613 1.518-3.803 0 0-2.655 1.072-5.059 3.38-5.191-.498-9.966-.417-13.771.368 4.13-8.413 11.209-14.653 20.829-15.566 1.678 2.405 2.118 4.231 2.118 4.231.594-1.28.603-2.826.35-4.337 5.662-.001 12.123 1.778 19.31 5.901.44 1.85.712 3.986.574 6.288 0 0 1.598-1.622 2.888-4.09 10.586 7.716 17.968 22.88 15.709 31.97-1.987-8.35-13.665-15.6-26.973-20.13.196-2.98 1.496-4.835 1.496-4.835"/>
                <path fill="#839E47" d="M220.24 29.962c3.371 1.97 6.16 4.431 8.387 6.945a37.832 37.832 0 0 1 5.205 7.52c2.528 4.857 3.553 8.99 3.857 11.538-.716-2.517-2.076-6.547-4.774-11.222-2.71-4.614-6.948-9.991-13.408-13.797-6.433-3.815-13.616-5.243-19.42-5.473-5.863-.302-10.496.308-13.41.555 2.794-.599 7.373-1.526 13.353-1.436 5.902.016 13.45 1.362 20.21 5.37"/>
                <path fill="#92B759" d="M209.78 65.681c-.336 1.728.071 3.407.668 4.799-3.215 2.723-6.232 5.695-8.838 8.695-.77-.713-1.506-1.617-1.957-2.713 0 0-.455 2.315.058 4.995-2.7 3.4-4.806 6.757-5.984 9.75-3.974-6.546-5.099-14.197-1.376-21.292 2.431-.12 3.898.37 3.898.37-.616-.972-1.686-1.655-2.854-2.137 2.568-3.945 6.732-7.664 12.85-10.873 1.483.501 3.092 1.243 4.628 2.34 0 0-.406-1.817-1.533-3.79 10.155-4.01 24.032-2.535 29.32 3.007-6.698-2.262-17.024 2.71-26.199 10.001-1.984-1.439-2.681-3.152-2.681-3.152"/>
                <path fill="#839E47" d="M212.829 59.742c2.884-1.503 5.844-2.387 8.586-2.847a31.29 31.29 0 0 1 7.54-.363c4.495.347 7.81 1.435 9.706 2.337-2.06-.601-5.458-1.406-9.903-1.557-4.407-.118-10.035.506-15.58 3.37-5.542 2.847-9.777 7.257-12.56 11.225-2.862 3.979-4.538 7.492-5.682 9.644.847-2.222 2.28-5.835 5.049-9.988 2.678-4.13 7.024-8.836 12.844-11.82"/>
                <path fill="#92B759" d="M267.024 60.348c.695 1.627.652 3.363.36 4.854 3.739 1.996 7.333 4.278 10.532 6.679.604-.866 1.133-1.908 1.342-3.08 0 0 .941 2.179 1.008 4.92 3.372 2.768 6.15 5.62 7.945 8.313 2.511-7.265 1.995-15.014-3.173-21.2-2.41.397-3.746 1.186-3.746 1.186.4-1.084 1.306-1.98 2.348-2.7-3.36-3.331-8.237-6.11-14.928-7.97a17.555 17.555 0 0 0-4.048 3.274s.01-1.87.702-4.046c-10.828-1.796-24.145 2.57-28.163 9.126 6.1-3.63 17.298-.924 27.858 4.302 1.639-1.83 1.963-3.658 1.963-3.658"/>
                <path fill="#839E47" d="M262.7 55.025c-3.145-.85-6.23-1.085-9.014-.959a31.733 31.733 0 0 0-7.467 1.226c-4.327 1.277-7.35 3.022-9.016 4.292 1.893-1.011 5.05-2.501 9.377-3.578 4.295-1.036 9.938-1.61 15.975.002 6.028 1.592 11.105 4.976 14.666 8.23 3.638 3.251 6.02 6.3 7.594 8.141-1.3-1.971-3.46-5.165-7.047-8.605-3.494-3.436-8.737-7.08-15.069-8.75"/>
                <path fill="#92B759" d="M264.925 46.042c1.234 1.465 1.818 3.403 2.084 5.193 4.219.41 8.414 1.205 12.273 2.318.257-1.242.381-2.653.156-4.049 0 0 1.663 1.953 2.709 4.955 4.158 1.44 7.79 3.256 10.441 5.368-.253-9.241-3.521-17.563-10.587-21.917-2.12 1.597-3.095 3.115-3.095 3.115-.008-1.392.517-2.82 1.237-4.114-4.348-2.071-9.922-2.795-16.869-1.634a24 24 0 0 0-2.618 5.572s-.665-2.075-.799-4.815c-10.8 3.225-21.726 14.465-23.14 23.646 4.42-6.948 15.895-9.346 27.678-8.646.884-2.814.53-4.992.53-4.992"/>
                <path fill="#839E47" d="M258.894 42.387c-3.241.57-6.207 1.804-8.764 3.292a33.627 33.627 0 0 0-6.532 4.988c-3.583 3.524-5.78 6.934-6.88 9.16a48.17 48.17 0 0 1 7.472-8.537c3.637-3.238 8.706-6.612 14.924-7.737 6.2-1.141 12.158.184 16.656 2.097 4.568 1.87 7.884 4.127 10.017 5.421-1.922-1.572-5.09-4.098-9.672-6.205-4.501-2.149-10.706-3.68-17.221-2.48"/>
                <g transform="translate(236.232 13)">
                    <mask id="aA" fill="#fff">
                        <use xlink:href="#az"/>
                    </mask>
                    <path fill="#92B759" d="M14.673 18.14c1.758-.11 3.36.493 4.646 1.246a84.41 84.41 0 0 1 9.898-7.518c-.594-.836-1.382-1.664-2.4-2.237 0 0 2.356-.158 4.932.674 3.755-2.203 7.384-3.836 10.518-4.611-5.89-4.676-13.288-6.718-20.85-3.977-.476 2.348-.206 3.838-.206 3.838-.87-.722-1.386-1.846-1.692-3.04C15.244 4.522 10.95 8.11 6.883 13.663a16.721 16.721 0 0 0 1.635 4.79s-1.737-.617-3.525-1.96c-5.45 9.38-6.034 23.06-1.333 28.886-1.251-6.794 5.182-16.22 13.735-24.239-1.13-2.105-2.722-3-2.722-3" mask="url(#aA)"/>
                </g>
                <path fill="#839E47" d="M244.269 33.157c-1.899 2.643-3.196 5.436-4.054 8.069a31.239 31.239 0 0 0-1.464 7.347c-.318 4.45.262 7.835.866 9.806-.286-2.095-.576-5.522-.07-9.902.53-4.336 1.974-9.778 5.596-14.864 3.604-5.083 8.555-8.686 12.86-10.925 4.322-2.313 8.014-3.52 10.294-4.378-2.305.56-6.06 1.515-10.539 3.713-4.447 2.12-9.702 5.794-13.49 11.134"/>
                <path fill="#955839" d="M232.882 59.541c-.38 2.112 1.427 4.684 3.557 5.062 2.131.376 5.202-1.33 5.58-3.443.382-2.112-1.9-4.766-4.031-5.144-2.13-.377-4.726 1.413-5.106 3.525"/>
                <path fill="#E9FFF8" d="M223.565 148.768c-6.917-2.106-9.914-4.216-11.257-5.313-.655-.579-.977-.878-1.115-1.044l-.139-.164c-1.695-1.72-1.98-3.603-1.894-4.78.006-.605.138-1.046.187-1.354.052-.308.058-.473.017-.492-.04-.015-.13.117-.269.407-.133.29-.359.725-.453 1.376l-.1.514-.002.588c.007.206-.016.428.021.653.045.225.093.46.14.705.243.962.75 2.06 1.62 3.04l.156.181c.153.183.501.51 1.208 1.133 1.44 1.181 4.588 3.364 11.597 5.494 3.497 1.06 6.173 1.639 8.179 2.065 2.005.419 3.353.648 4.248.81l1.795.3c4.953.644 7.457.676 7.473.51.02-.188-2.441-.577-7.318-1.485l-1.784-.298c-.889-.16-2.226-.388-4.217-.806-1.987-.42-4.641-.996-8.093-2.04M278.778 151.217c-8.768 1.886-13.297 1.98-15.52 2.14l-2.239.106c-6.139.268-9.217-.056-9.24.17-.01.09.75.243 2.29.455 1.542.194 3.87.352 6.978.36l2.263-.106c2.249-.162 6.82-.255 15.687-2.163 8.833-2.098 12.93-4.266 14.95-5.273l2.001-1.089c2.627-1.711 4.406-3.273 5.442-4.44 1.007-1.204 1.464-1.826 1.394-1.883-.22-.209-2.045 2.409-7.34 5.475l-1.955 1.062c-1.975.984-5.983 3.113-14.711 5.186M287.554 153.813c-3.034 1.127-4.64 1.37-5.43 1.493-.792.133-.793.113-.794.113-2.165.364-3.295.323-3.316.525-.025.135 1.106.53 3.432.413 0 0 .004.02.833-.119.827-.128 2.51-.385 5.628-1.544 3.093-1.216 4.52-2.064 5.25-2.449l.72-.402c1.89-1.254 2.687-2.07 2.59-2.198-.109-.15-1.104.382-3.085 1.386l-.705.392c-.711.375-2.112 1.208-5.123 2.39M229.9 156.78a42.506 42.506 0 0 1-2.758-.503c-.67-.127-1.105-.246-1.396-.324l-.582-.153c-1.621-.329-2.459-.488-2.532-.318-.06.136.652.61 2.254 1.193l.601.158c.3.08.75.204 1.436.336.682.153 1.596.322 2.82.512 2.448.353 3.673.464 4.283.538l.61.068c3.37.126 3.437-.28.115-.908l-.609-.066c-.61-.075-1.831-.186-4.242-.533M301.273 133.333l-.954-.894c-.856-.433-1.17-.129-.732.649l.934.875.822.92c.785.475 1.2.284.819-.558l-.89-.992zM44.09 126.704c-.423-.064-.83-.143-1.23-.189-.404-.021-.796-.046-1.176-.067-.773.07-1.503.114-2.135.338-1.292.355-2.268.897-3.105 1.31-.824.438-1.507.76-2.076 1.023-.581.197-1.033.42-1.417.47-.379.076-.664.132-.877.173l-.451.025-.19.011c-2.118.012-3.767-.615-4.848-.878-1.09-.308-1.664-.406-1.69-.322-.026.088.476.351 1.513.82.522.23 1.18.506 2 .784.825.265 1.817.55 3.034.59l.223-.012.526-.031.997-.195c.438-.065.93-.3 1.566-.52a41.278 41.278 0 0 0 2.141-1.053c1.643-.813 3.807-2.068 7.004-1.303 1.121.237 2.245.568 3.4.88 1.162.3 2.376.51 3.616.538l-.035-.001c2.068.148 4.131.092 6.153.123 4.48-.069 6.669.621 6.728.375.022-.087-.506-.302-1.605-.64a23.85 23.85 0 0 0-5.105-.728c-2.062-.032-4.09.023-6.1-.121h-.009l-.027-.001c-1.123-.028-2.245-.217-3.37-.507-1.124-.302-2.267-.643-3.455-.892M163.74 94.513c-1.817-.195-3.347.086-4.659.356-1.304.302-2.398.63-3.317.917-1.843.586-3.055.88-3.872 1.028-.817.111-1.223.152-1.426.139l-.203.003c-.56.06-1.07-.042-1.559-.063-.466-.126-.926-.172-1.315-.334-.387-.164-.768-.26-1.077-.438l-.852-.455c-.968-.62-1.466-.953-1.531-.877-.054.057.32.524 1.233 1.31l.835.592c.308.224.708.375 1.116.587.412.215.913.31 1.427.482.535.07 1.113.213 1.732.186l.226-.002c.229.01.674-.031 1.56-.152.869-.157 2.158-.474 3.995-1.057.923-.29 1.987-.608 3.24-.899 1.245-.26 2.732-.515 4.323-.34 1.584.233 2.946.879 4.156 1.378 1.212.52 2.303.924 3.286 1.153.983.216 1.837.302 2.547.28a10.97 10.97 0 0 0 1.698-.217c.872-.18 1.282-.318 1.492-.372l.21-.06c1.125-.37 2.075-.688 2.911-.85.83-.162 1.539-.209 2.104-.17 1.133.075 1.705.267 1.741.156.025-.055-.478-.424-1.676-.679-.598-.128-1.375-.167-2.286-.07-.913.097-1.942.363-3.07.66l-.203.06c-.204.053-.61.185-1.418.354-.808.167-2.024.363-3.825-.057-.9-.21-1.926-.587-3.126-1.101-1.211-.492-2.599-1.175-4.418-1.448M121.9 120.798c-3.065.86-5.302.66-7.09.431-1.764-.158-2.968-.342-3.782-.277-1.622.023-1.622.035-1.622.035l-1.551.274c-.475.112-.9.264-1.299.38-.794.246-1.418.506-1.933.7-1.018.359-1.526.589-1.509.68.018.094.562.049 1.649-.144.53-.105 1.195-.289 1.98-.447.395-.073.816-.183 1.273-.252l1.468-.15s0-.009 1.536-.03c.77-.066 1.922.11 3.696.271 1.719.238 4.323.43 7.398-.452 1.535-.386 2.848-.6 4.015-.6 1.152.002 2.192.188 3.065.283 1.75.202 2.928.406 3.71.514l1.568.223 2.853.234c.819.026 1.506-.002 2.05-.012 1.094-.036 1.634-.103 1.634-.198 0-.095-.54-.217-1.612-.36l-2.003-.24c-.8-.13-1.73-.285-2.795-.46l-1.564-.222c-.785-.11-1.947-.31-3.731-.517-.894-.096-1.905-.284-3.177-.29-1.255 0-2.688.237-4.227.626M172.117 148.212a19.179 19.179 0 0 0-4.06.174c-1.16.164-2.138.354-2.97.514-1.663.32-2.758.518-3.492.593-.732.102-1.097.097-1.28.118l-.183.011c-2 .168-3.5-.082-4.48-.322-.979-.25-1.482-.4-1.524-.308-.034.07.393.384 1.363.812.967.413 2.554.848 4.687.81l.192-.014c.192-.02.585-.016 1.344-.123.766-.078 1.896-.28 3.56-.603 1.66-.284 3.858-.85 6.787-.67 1.47.075 2.702.347 3.8.666 1.094.32 2.055.61 2.897.817 1.696.436 2.914.378 3.679.38.77-.053 1.159-.071 1.346-.101l.19-.023c2.075-.333 3.547-.659 4.56-.703 1.007-.075 1.527-.041 1.544-.15.016-.067-.483-.283-1.54-.378-1.06-.128-2.653.057-4.675.245 0 0-.003.03-1.462.12-.732-.009-1.81.056-3.413-.356-.805-.197-1.736-.477-2.856-.805a17.399 17.399 0 0 0-4.014-.704M193.414 114.93c-4.004.624-5.976.78-6.97.773-.99.029-.988.002-.988.002-2.708.045-4.072-.268-4.122-.033-.043.14 1.263.851 4.098 1.109 0 0 .002.027 1.03-.001 1.027.009 3.09-.16 7.08-.785 3.987-.611 5.968-.54 6.96-.534l.99.066c2.715.084 4.083.379 4.131.145.04-.143-1.257-.83-4.064-1.22l-1.027-.067c-1.019-.009-3.101-.074-7.118.544M329.826 115.722c-3.66.78-5.474.662-6.372.574-.451-.032-.668-.104-.78-.113l-.111-.02c-.622-.047-1.147-.186-1.605-.283-.468-.078-.837-.207-1.143-.292-.61-.17-.946-.22-.987-.146-.043.073.21.27.777.592.283.16.638.367 1.108.522.465.173 1.006.387 1.668.508l.12.02c.122.011.36.085.846.121.959.104 2.988.207 6.687-.59 3.67-.804 5.484-.826 6.402-.84l.91.047c.63-.02 1.17.062 1.644.092.474.017.863.096 1.178.135.634.08.974.081 1.001.003.029-.078-.253-.236-.865-.474-.306-.117-.69-.272-1.175-.366-.484-.104-1.049-.258-1.714-.303l-.97-.047c-.958.006-2.95.053-6.62.86"/>
            </g>
            <g transform="translate(229 55)">
                <ellipse cx="26.5" cy="78.5" fill="#000" fill-opacity=".1" rx="23.5" ry="7.5" style="mix-blend-mode:multiply"/>
                <path fill="#634739" d="M37.221 65.155V43.571H16.368v21.584c0 .825-1.13 1.855-1.053 2.473.077.618.517 1.751 1.448 2.086h7.91c.388 0 1.449-1.056 1.449-1.7 0-.644-.983-1.597-.983-2.395 0-.799.155-12.596.233-13.033.077-.437.55-.823 1.422-.824.872.001 1.346.387 1.423.824.078.437.233 12.234.233 13.033 0 .798-.983 1.751-.983 2.395 0 .644 1.06 1.7 1.448 1.7h7.911c.931-.335 1.37-1.468 1.448-2.086.078-.618-1.053-1.648-1.053-2.473"/>
                <path fill="#9E705A" d="M23.556 75.748a.936.936 0 0 1-.933.937H18.6a.935.935 0 0 1-.933-.937v-6.839c0-.518.417-.938.933-.938h4.023c.515 0 .933.42.933.938v6.839z"/>
                <path fill="#D49778" d="M19.433 75.744c0 .52-.424.941-.949.941H16.26a.945.945 0 0 1-.949-.941v-6.25c0-.52.425-.942.95-.942h2.223c.525 0 .95.421.95.941v6.251zM25.322 75.744c0 .52-.425.941-.949.941H22.15a.945.945 0 0 1-.949-.941v-6.25c0-.52.425-.942.949-.942h2.224c.524 0 .95.421.95.941v6.251z"/>
                <g transform="translate(14.722 74.362)">
                    <mask id="aC" fill="#fff">
                        <use xlink:href="#aB"/>
                    </mask>
                    <path fill="#E3A281" d="M7.389 0H3.8C1.701 0 0 1.707 0 3.815V6.03c0 .52.42.941.938.941h9.313a.94.94 0 0 0 .938-.941V3.815c0-2.108-1.7-3.815-3.8-3.815" mask="url(#aC)"/>
                </g>
                <g transform="translate(14.722 79.59)">
                    <mask id="aE" fill="#fff">
                        <use xlink:href="#aD"/>
                    </mask>
                    <path fill="#634739" d="M0 0v.357c0 .445.42.805.938.805h9.313c.518 0 .938-.36.938-.805V0H0z" mask="url(#aE)"/>
                </g>
                <path fill="#634739" d="M22.378 70.295c0 .321-.176.58-.392.58h-3.339c-.216 0-.391-.259-.391-.58 0-.321.175-.581.391-.581h3.34c.215 0 .39.26.39.58M22.378 72.038c0 .32-.176.58-.392.58h-3.339c-.216 0-.391-.26-.391-.58 0-.321.175-.581.391-.581h3.34c.215 0 .39.26.39.58M22.378 73.2c0 .32-.176.58-.392.58h-3.339c-.216 0-.391-.26-.391-.58 0-.321.175-.581.391-.581h3.34c.215 0 .39.26.39.58"/>
                <path fill="#9E705A" d="M29.444 75.748c0 .518.418.937.933.937h4.024c.515 0 .932-.42.932-.937v-6.839a.935.935 0 0 0-.932-.938h-4.024a.936.936 0 0 0-.933.938v6.839z"/>
                <path fill="#D49778" d="M32.978 75.744c0 .52.425.941.949.941h2.224a.945.945 0 0 0 .949-.941v-6.25a.945.945 0 0 0-.949-.942h-2.224a.945.945 0 0 0-.95.941v6.251zM27.678 75.744c0 .52.425.941.949.941h2.224a.945.945 0 0 0 .949-.941v-6.25a.945.945 0 0 0-.949-.942h-2.224a.945.945 0 0 0-.95.941v6.251z"/>
                <g transform="translate(26.5 74.362)">
                    <mask id="aG" fill="#fff">
                        <use xlink:href="#aF"/>
                    </mask>
                    <path fill="#E3A281" d="M3.8 0h3.589c2.099 0 3.8 1.707 3.8 3.815V6.03a.94.94 0 0 1-.938.941H.938A.94.94 0 0 1 0 6.03V3.815C0 1.707 1.7 0 3.8 0" mask="url(#aG)"/>
                </g>
                <g transform="translate(26.5 79.59)">
                    <mask id="aI" fill="#fff">
                        <use xlink:href="#aH"/>
                    </mask>
                    <path fill="#634739" d="M11.189 0v.357c0 .445-.42.805-.938.805H.938C.42 1.162 0 .802 0 .357V0h11.189z" mask="url(#aI)"/>
                </g>
                <path fill="#634739" d="M30.622 70.295c0 .321.176.58.392.58h3.339c.216 0 .391-.259.391-.58 0-.321-.175-.581-.391-.581h-3.34c-.215 0-.39.26-.39.58M30.622 72.038c0 .32.176.58.392.58h3.339c.216 0 .391-.26.391-.58 0-.321-.175-.581-.391-.581h-3.34c-.215 0-.39.26-.39.58M30.622 73.2c0 .32.176.58.392.58h3.339c.216 0 .391-.26.391-.58 0-.321-.175-.581-.391-.581h-3.34c-.215 0-.39.26-.39.58"/>
                <mask id="aK" fill="#fff">
                    <use xlink:href="#aJ"/>
                </mask>
                <path fill="#FFF" d="M18.256 46.476h15.31V20.333h-15.31z" mask="url(#aK)"/>
                <path fill="#FAB6A7" d="M31.211 22.367c0 1.764-2.24 3.195-5.005 3.195-2.765 0-5.006-1.43-5.006-3.195s2.241-3.196 5.006-3.196c2.764 0 5.005 1.43 5.005 3.196" mask="url(#aK)"/>
                <path fill="#7A5846" d="M44.167 19.992c0 .51-.423.922-.944.922H10.366a.933.933 0 0 1-.944-.922v-7.451c0-.51.423-.922.944-.922h32.857c.521 0 .944.413.944.922v7.451z" mask="url(#aK)"/>
                <path fill="#FAB6A7" d="M4.061 31.603c.2.556-.105 1.163-.68 1.355l-.29.097c-.574.193-1.202-.102-1.401-.657l-.451-1.258c-.2-.556.105-1.163.68-1.356l.29-.096c.574-.193 1.202.101 1.401.657l.451 1.258zM48.939 31.603c-.2.556.105 1.163.68 1.355l.29.097c.574.193 1.202-.102 1.401-.657l.451-1.258c.2-.556-.105-1.163-.68-1.356l-.29-.096c-.574-.193-1.202.101-1.401.657l-.451 1.258z" mask="url(#aK)"/>
                <path fill="#FFDAC6" d="M9.326 33.25s-.853.846-2.399.846-3.545-.982-3.545-.982-.64 4.063-.372 5.725c2.345 1.554 6.315 1.85 8.768-.245L9.326 33.25z" mask="url(#aK)"/>
                <path fill="#DFF2FF" d="M15.176 22.657s-.862.83-1.524 2.686c-.662 1.857-2.344 5.313-3.64 6.731l3.585 5.107s1.186-.516 2.483-2.502c1.296-1.986-.904-12.022-.904-12.022" mask="url(#aK)"/>
                <path fill="#A7C8DE" d="M12.367 36.548l.389.633s1.048-.52 2.194-2.526c.546-.955.39-3.754.077-6.425l-1.097-3.25-1.563 11.568z" mask="url(#aK)"/>
                <path fill="#E3A281" d="M10.546 31.459s-.123-.197-.375 0c-.253.196-1.807 1.654-1.857 1.806-.05.152-.127.266 0 .558.126.292 2.817 5.25 2.994 5.49.177.24.405.241.619.076.215-.165 1.718-1.395 1.92-1.585.202-.19.383-.363.228-.647-.156-.284-3.53-5.698-3.53-5.698" mask="url(#aK)"/>
                <path fill="#DFF2FF" d="M19.276 18.59s-4.373 2.682-4.764 4.098c-.39 1.416 0 15.064 0 16.557 0 1.494-1.041 4.893-.963 5.562.078.67 1.067 2.42 4.06 3.039 2.995.618 5.833.36 6.014 0 .183-.36.521-1.004.521-2.498V24.593c0-.309-3.879-5.44-4.868-6.003" mask="url(#aK)"/>
                <path fill="#634739" d="M17.535 20.43v7.35c0 2.108-.166 4.458-1.1 5.97-.934 1.512-1.713 1.923-1.713 1.923v3.832s3.608-.412 5.45-3.163c1.843-2.751 2.206-5.116 2.206-6.942V18.01s-2.68.136-4.843 2.42" mask="url(#aK)"/>
                <path fill="#A7C8DE" d="M24.144 25.562l-1.655-.44v-.978l-3.645-.807V18.85l.432-.26s3.223 3.228 3.81 3.877c.59.65 1.058 1.53 1.058 1.823v1.272z" mask="url(#aK)"/>
                <path fill="#FFDAC6" d="M43.674 33.25s.853.846 2.399.846 3.545-.982 3.545-.982.64 4.063.372 5.725c-2.345 1.554-6.315 1.85-8.768-.245l2.452-5.344z" mask="url(#aK)"/>
                <path fill="#DFF2FF" d="M38.413 22.657s.862.83 1.524 2.686c.662 1.857 2.344 5.313 3.64 6.731l-3.586 5.107s-1.185-.516-2.482-2.502c-1.296-1.986.904-12.022.904-12.022" mask="url(#aK)"/>
                <path fill="#A7C8DE" d="M40.044 36.548l-.389.633s-1.048-.52-2.194-2.526c-.546-.955-.39-3.754-.077-6.425l1.098-3.25 1.562 11.568z" mask="url(#aK)"/>
                <path fill="#E3A281" d="M41.865 31.459s.123-.197.375 0c.253.196 1.807 1.654 1.857 1.806.05.152.127.266 0 .558-.126.292-2.817 5.25-2.994 5.49-.176.24-.404.241-.619.076-.215-.165-1.718-1.395-1.92-1.585-.202-.19-.383-.363-.228-.647.156-.284 3.53-5.698 3.53-5.698" mask="url(#aK)"/>
                <path fill="#DFF2FF" d="M33.724 18.59s4.373 2.682 4.764 4.098c.39 1.416 0 15.064 0 16.557 0 1.494 1.041 4.893.963 5.562-.078.67-1.067 2.42-4.06 3.039-2.995.618-5.833.36-6.014 0-.183-.36-.521-1.004-.521-2.498V24.593c0-.309 3.879-5.44 4.868-6.003" mask="url(#aK)"/>
                <path fill="#634739" d="M35.465 20.43v7.35c0 2.108.166 4.458 1.1 5.97.934 1.512 1.713 1.923 1.713 1.923v3.832s-3.608-.412-5.45-3.163c-1.843-2.751-2.206-5.116-2.206-6.942V18.01s2.68.136 4.843 2.42" mask="url(#aK)"/>
                <path fill="#A7C8DE" d="M28.856 25.562l1.655-.44v-.978l3.645-.807V18.85l-.432-.26s-3.223 3.228-3.81 3.877c-.59.65-1.058 1.53-1.058 1.823v1.272z" mask="url(#aK)"/>
                <path fill="#FFF8F5" d="M39.957 27.488L33.11 24.4l-6.61 4.578-6.61-4.578-6.847 3.088L1.178 24.4l5.279 22.753 10.663 4.17 5.63-3.398 3.745 4.93v.011l.005-.006.005.006v-.012l3.745-4.93 5.63 3.398 10.663-4.17 5.28-22.752z" mask="url(#aK)"/>
                <path fill="#F0DED8" d="M12.956 27.466l7.061-3.066 2.95 23.351-5.807 3.373zM51.822 24.4l-5.265 22.585-10.635 4.139 4.066-23.658zM33.567 24.4L26.5 28.98v23.885l4.011-4.941z" mask="url(#aK)"/>
                <path fill="#FFDAC6" d="M5.863 38.234a1.902 1.902 0 0 1-1.564 2.19l-1.304.216a1.9 1.9 0 0 1-2.188-1.564l-.78-4.692a1.902 1.902 0 0 1 1.563-2.189l1.302-.217a1.902 1.902 0 0 1 2.19 1.565l.78 4.691zM47.137 38.234a1.902 1.902 0 0 0 1.564 2.19l1.304.216a1.9 1.9 0 0 0 2.188-1.564l.78-4.692a1.902 1.902 0 0 0-1.563-2.189l-1.302-.217a1.902 1.902 0 0 0-2.19 1.565l-.78 4.691z" mask="url(#aK)"/>
                <path fill="#D4A497" d="M35.922 8.133V6.488C35.922 2.904 32.913 0 29.2 0h-5.4c-3.713 0-6.722 2.904-6.722 6.488v1.645h18.844z" mask="url(#aK)"/>
                <path fill="#7A5846" d="M36.511 6.943c0-.913-.175-1.783-.49-2.583a9.94 9.94 0 0 0-5.193-1.455H22.76c-1.9 0-3.677.531-5.192 1.455-.316.8-.491 1.67-.491 2.583v1.771H36.51V6.943z" mask="url(#aK)"/>
                <path fill="#D4A497" d="M40.044 10.15c0 2.086-6.064 2.63-13.544 2.63s-13.544-.544-13.544-2.63c0-2.085 6.064-4.921 13.544-4.921s13.544 2.836 13.544 4.922" mask="url(#aK)"/>
                <path fill="#FAB6A7" d="M20.61 15.176c.043.923-.83 1.672-1.95 1.672-1.122 0-2.065-.749-2.108-1.672l-.062-1.304c-.043-.924.83-1.672 1.95-1.672 1.122 0 2.065.748 2.108 1.672l.062 1.304zM32.39 15.176c-.043.923.83 1.672 1.95 1.672 1.122 0 2.065-.749 2.108-1.672l.062-1.304c.043-.924-.83-1.672-1.95-1.672-1.122 0-2.065.748-2.108 1.672l-.062 1.304z" mask="url(#aK)"/>
                <path fill="#FFDAC6" d="M26.5 8.133c-3.558 0-5.91.405-7.6 1.428-.033.268-.056.54-.056.817v7.002c0 3.557 2.788 6.439 6.229 6.439h2.854c3.44 0 6.229-2.882 6.229-6.44v-7.001c0-.149-.012-.295-.022-.441-1.213-.83-4.117-1.804-7.634-1.804" mask="url(#aK)"/>
                <path fill="#996251" d="M17.825 9.27c-.622.585.771 3.509 1.089 3.509.316 0 1.48-1.573 1.71-3.932.963 1.734 4.17 3.529 4.507 3.105.336-.423.356-2.077.119-3.105 1.86 1.673 4.573 3.267 4.95 2.883.376-.383-.278-2.782-.278-2.782s4.25 3.932 4.709 3.831c.459-.1.934-2.52.578-3.388-.357-.867-3.905-2.42-8.437-2.42s-7.165.626-8.947 2.3M22.967 15.105c0 .32-.264.58-.59.58a.585.585 0 0 1-.588-.58c0-.321.264-.581.589-.581.325 0 .589.26.589.58M31.211 15.105c0 .32-.264.58-.589.58a.585.585 0 0 1-.589-.58c0-.321.264-.581.59-.581.324 0 .588.26.588.58" mask="url(#aK)"/>
                <path fill="#996251" d="M21.336 12.803s.038.031.097.09a1.543 1.543 0 0 0 .232.173c.046.033.102.057.156.086.052.03.117.043.174.068.063.014.123.036.188.042.063.015.129.01.193.018l.108-.008c.051 0 .07-.008.097-.013.049-.003.113-.025.175-.04.057-.025.122-.037.175-.068.054-.028.109-.053.155-.086a1.56 1.56 0 0 0 .233-.175c.055-.051.093-.082.093-.082l.01-.01a.08.08 0 0 1 .116.016.09.09 0 0 1 .018.057s-.003.05-.017.143a.596.596 0 0 1-.046.163.76.76 0 0 1-.097.2 1.222 1.222 0 0 1-.397.394c-.093.047-.184.1-.308.126-.058.015-.123.033-.16.033l-.155.013c-.111-.01-.223-.012-.328-.05-.107-.023-.203-.075-.295-.123a1.228 1.228 0 0 1-.233-.186.905.905 0 0 1-.164-.208.824.824 0 0 1-.1-.205.481.481 0 0 1-.043-.16c-.011-.085-.013-.136-.013-.136a.087.087 0 0 1 .08-.091c.021-.001.04.006.056.019M31.589 13.306s-.031-.034-.08-.097a.429.429 0 0 0-.086-.09c-.03-.03-.064-.06-.11-.094-.041-.036-.091-.064-.142-.096-.049-.034-.11-.05-.165-.08-.06-.018-.12-.04-.184-.048-.062-.02-.128-.013-.193-.02-.04.005-.173.007-.202.024-.05.008-.113.03-.172.048-.055.03-.116.047-.164.081-.05.032-.1.06-.14.097a1.223 1.223 0 0 0-.194.187c-.044.053-.073.084-.073.084l-.018.02a.124.124 0 0 1-.184-.001.148.148 0 0 1-.035-.125s.009-.05.033-.138a.672.672 0 0 1 .058-.155.833.833 0 0 1 .107-.186.94.94 0 0 1 .168-.192c.063-.065.144-.117.227-.169.09-.041.176-.093.292-.114.131-.034.169-.03.297-.042.105.01.21.014.308.046.101.02.191.072.28.114.082.053.163.104.226.17a.968.968 0 0 1 .165.193c.047.06.082.13.11.192a.546.546 0 0 1 .054.151c.018.08.026.126.026.126.012.071-.032.14-.099.152a.118.118 0 0 1-.11-.038" mask="url(#aK)"/>
                <path fill="#FF9985" d="M28.267 16.697c0 1.123-.66 1.312-1.473 1.312-.813 0-1.472-.19-1.472-1.312 0-1.123.66-2.754 1.472-2.754.813 0 1.473 1.631 1.473 2.754" mask="url(#aK)"/>
                <path fill="#996251" d="M28.157 19.246s-.068-.008-.185-.029a4.628 4.628 0 0 1-.209-.04c-.08-.018-.17-.04-.262-.042a5.146 5.146 0 0 1-.29-.03c-.096-.018-.215-.006-.327-.012-.115.001-.232-.015-.351.002-.119.01-.239.02-.36.023l-.354.064c-.12.01-.227.054-.336.083-.106.035-.222.047-.311.094-.093.041-.187.074-.272.108-.088.03-.162.067-.225.103-.064.035-.124.063-.172.088l-.158.074-.017.007c-.06.028-.134.01-.168-.04a.089.089 0 0 1 .009-.11s.041-.047.12-.127c.04-.039.086-.088.145-.142.058-.054.122-.118.212-.167.085-.053.177-.115.28-.173.097-.066.222-.102.343-.154.125-.044.25-.102.391-.127l.423-.084c.145-.012.292-.016.435-.02.143-.014.283.01.418.027.135.022.263.022.385.067.121.037.235.07.336.107.107.03.183.072.25.112.069.038.128.073.176.103.096.058.15.095.15.095.04.029.045.079.011.113a.107.107 0 0 1-.087.027" mask="url(#aK)"/>
            </g>
        </g>
    </g>
</svg>
