<svg xmlns="http://www.w3.org/2000/svg" width="72" height="72">
    <path fill="none" d="M0 0h72v72H0V0z"/>
    <path fill="#BEEFE2" fill-rule="evenodd" d="M63.282 38.23c.347-3.295-1.081-6.363-1.92-7.864-1.119 4.592-5.222 8.023-10.136 8.023-5.187 0-9.47-3.819-10.285-8.795-.883.929-3.173 3.83-2.646 8.636-5.536-.155-6.535-9.379 2.537-10.964.056-.851.211-1.676.46-2.464.357-3.205 1.88-8.46 8.848-8.622 8.073-.197 10.892 6.22 11.254 9.379.113.491.154 1.002.199 1.512 6.11 1.097 10.406 11.086 1.689 11.159zm-4.584-10.587l-.201-.174s-5.356.619-7.066.155V23.63s-2.675 5.073-4.212 4.531c0-2.917-.895-3.223-.895-3.223s-1.096 2.584-2.579 3.125c.09 4.073 3.407 7.359 7.483 7.359 4.132 0 7.495-3.372 7.495-7.523 0-.088-.021-.17-.025-.256zm-36.697 9.044c-5.251 0-9.492-4.258-9.492-9.518 0-2.913-1.625-4.45.435-6.195 1.652-1.403 4.691-3.313 7.029-3.313 1.968 0 8.62.486 10.132 1.516 2.523 1.709 1.378 4.708 1.378 7.992 0 5.26-4.243 9.518-9.482 9.518zm7.046-10.442c-1.692-.332-5.006-.751-7.966.251-1.334.728.147-1.421.147-1.421l-2.916 1.421s-1.184-.576-2.923-.258c-.061.376-.118.757-.113 1.154 0 3.915 3.103 7.082 6.939 7.082 3.844 0 6.943-3.167 6.943-7.082a7.24 7.24 0 0 0-.111-1.147zm-.376 12.43l8.762 10.794 8.033-9.701h12.151l9.984 13.537-4.179 1.038-6.292-8.456-.362 4.505 1.94 2.967-14.616.246 1.441-3.213-.462-3.66-7.148 8.209-.523 1.025-.199-.201-.177.214L35.8 54.32l-5.919-6.099-.039 5.772-14.483.222-.205-6.283-9.402 8.047-2.755-2.85 13.132-14.454h12.542z"/>
</svg>
