<svg xmlns="http://www.w3.org/2000/svg" width="72" height="72">
    <path fill="none" d="M0 0h72v72H0V0z"/>
    <path fill="#FFF" fill-rule="evenodd" d="M62.137 58.376c-9.188 0-18.377 0-27.546-.024-1.007 0-1.57.251-2.078 1.195-1.557 2.92-4.095 4.438-7.426 4.406l-.19.002a7.844 7.844 0 0 1-7.049-4.39c-.536-1.026-1.124-1.241-2.11-1.218-2.397.056-4.794 0-7.271 0v-5.493c2.377 0 4.793-.056 7.215.024 1.059.036 1.634-.212 2.173-1.235 1.298-2.633 3.969-4.414 7.057-4.414.078 0 .156.001.234.004 3.229 0 5.798 1.454 7.299 4.342.568 1.088 1.199 1.307 2.294 1.303 9.233-.032 18.461 0 27.694 0l1.966-.016v5.514h-2.262zm-34.153-2.801a2.827 2.827 0 0 0-2.829-2.754l-.08.001a2.769 2.769 0 0 0-2.717 2.764v.021a2.825 2.825 0 0 0 2.829 2.821v.011a2.866 2.866 0 0 0 2.797-2.859v-.005zm28.696-16.76c-2.281-.1-3.907.179-5.481 2.478-3.308 4.816-10.839 3.983-13.623-1.22-.544-1.011-1.119-1.266-2.185-1.262-8.39.039-16.78.024-25.17.024l-1.806-.036v-5.578h27.087c.931 0 1.503-.167 1.998-1.091 1.53-2.948 4.055-4.466 7.386-4.466 3.333 0 5.77 1.498 7.292 4.382.512.964 1.083 1.195 2.078 1.195 3.336-.051 6.675 0 10.127 0v5.514c-.399.028-.831.076-1.263.08-2.145 0-4.294.071-6.44-.02zm-11.876-5.626l-.035.001h.002a2.816 2.816 0 0 0-2.787 2.812 2.817 2.817 0 0 0 2.82 2.813l.036-.001a2.815 2.815 0 0 0 2.785-2.812 2.817 2.817 0 0 0-2.821-2.813zM37.4 19.162c-.991 0-1.559.211-2.07 1.195-1.404 2.663-4.16 4.448-7.333 4.448a8.26 8.26 0 0 1-7.311-4.403c-.529-1.021-1.108-1.24-2.096-1.24-3.352.012-6.679-.016-10.143-.016v-5.513c3.468 0 6.848-.036 10.228.024a1.841 1.841 0 0 0 1.949-1.132c1.602-2.992 4.135-4.53 7.539-4.474 3.284.052 5.717 1.63 7.192 4.498.486.94 1.058 1.103 1.977 1.099 8.334-.023 16.663 0 24.998 0h2.048v5.514H37.4zm-6.58-2.805a2.897 2.897 0 0 0-2.897-2.788 2.794 2.794 0 0 0-2.732 2.764c-.002.029-.002.063-.002.096a2.757 2.757 0 0 0 2.761 2.753h.04a2.856 2.856 0 0 0 2.83-2.81v-.015z"/>
</svg>
