<svg xmlns="http://www.w3.org/2000/svg" width="72" height="72">
    <path fill="none" d="M0 0h72v72H0V0z"/>
    <path fill="#FA0" fill-rule="evenodd" d="M36.5 68C19.175 68 5 53.825 5 36.5S19.175 5 36.5 5 68 19.175 68 36.5 53.825 68 36.5 68zm0-58.5c-14.85 0-27 12.15-27 27s12.15 27 27 27 27-12.15 27-27-12.15-27-27-27zM22.325 42.125c0-2.475 2.025-4.275 4.275-4.275h21.375c2.475 0 4.275 2.025 4.275 4.275V53.6H22.325V42.125zm14.85-7.65c-4.95-.225-8.775-4.05-8.775-9 0-5.175 4.05-9 9.225-9 4.95.225 8.775 4.275 8.775 9.225-.225 4.95-4.275 8.775-9.225 8.775z"/>
</svg>
