<svg xmlns="http://www.w3.org/2000/svg" xmlns:xlink="http://www.w3.org/1999/xlink" width="48" height="48" viewBox="0 0 48 48">
    <defs>
        <circle id="a" cx="24" cy="24" r="24"/>
    </defs>
    <g fill="none" fill-rule="evenodd">
        <mask id="b" fill="#fff">
            <use xlink:href="#a"/>
        </mask>
        <use fill="#00BF8F" fill-opacity=".15" xlink:href="#a"/>
        <g mask="url(#b)">
            <path fill="#FFF" d="M7.909 38.214h32.527V10.948H7.91z"/>
            <path fill="#00BF8F" d="M7.909 14.372h32.527v-3.424H7.91z"/>
            <path fill="#DFF1F1" d="M14.356 18.714h3.633v-2.087h-3.633zM25.023 18.714h3.633v-2.087h-3.633zM30.356 18.714h3.633v-2.087h-3.633zM19.69 18.714h3.632v-2.087H19.69zM9.022 18.714h3.633v-2.087H9.022zM35.69 18.714h3.633v-2.087H35.69zM14.332 22.361h3.633v-2.088h-3.633zM24.999 22.361h3.633v-2.088h-3.633zM30.332 22.361h3.633v-2.088h-3.633z"/>
            <path fill="#FEBC90" d="M19.665 22.361h3.633v-2.088h-3.633z"/>
            <path fill="#DFF1F1" d="M8.998 22.361h3.633v-2.088H8.998zM35.666 22.361h3.633v-2.088h-3.633zM14.308 26.008h3.633V23.92h-3.633zM24.975 26.008h3.633V23.92h-3.633zM30.308 26.008h3.633V23.92h-3.633zM19.641 26.008h3.633V23.92h-3.633z"/>
            <path fill="#9BD7E1" d="M8.974 26.008h3.633V23.92H8.974z"/>
            <path fill="#DFF1F1" d="M35.642 26.008h3.633V23.92h-3.633zM14.284 29.654h3.633v-2.087h-3.633zM24.95 29.654h3.634v-2.087H24.95zM30.284 29.654h3.633v-2.087h-3.633zM19.617 29.654h3.633v-2.087h-3.633zM8.95 29.654h3.633v-2.087H8.95zM35.618 29.654h3.633v-2.087h-3.633zM14.26 33.301h3.633v-2.088H14.26zM24.927 33.301h3.633v-2.088h-3.633zM30.26 33.301h3.633v-2.088H30.26zM19.593 33.301h3.633v-2.088h-3.633zM8.926 33.301h3.633v-2.088H8.926zM35.594 33.301h3.633v-2.088h-3.633z"/>
            <path fill="#00BF8F" d="M7.909 38.214h32.527V35.68H7.91z"/>
            <path fill="#E95920" d="M21.415 18.456c-.053.064-.032.213.11.192l.114-.248-.224.056z"/>
            <path fill="#E95920" d="M21.63 18.66a.346.346 0 0 0 .074-.102.236.236 0 0 0 .019-.149c-.03.052-.045.065-.062.082a.299.299 0 0 0-.064.1c-.041.007-.069-.048-.06-.09-.008.014-.024.005-.04.003-.017-.003-.036 0-.048.036.05.094.114.108.19.042.013.028-.004.056-.009.077M23.712 20.102l-.064-.25a.476.476 0 0 0 .064.25M24.253 21.571c-.027-.168-.112-.236-.187-.243.061.155.117.282.187.243M24.04 21.83c.031-.086.047-.16.069-.239-.08.089-.127.179-.068.24"/>
            <path fill="#E95920" d="M23.652 19.869l.077.124.067.126c.249-.038-.009-.143-.144-.25M22.173 18.458a.406.406 0 0 0-.25.125c.074-.007.146-.01.219-.005.01-.041.018-.078.03-.12M23.395 19.504l-.074-.135a.901.901 0 0 0-.176.139l.125-.004h.125zM22.756 19.272c.045.047.18-.162.25-.244-.077.07-.137.085-.19.069a.664.664 0 0 0-.06.175M22.259 18.66l-.125.014-.125.016c.066-.013.172-.014.25-.03M23.56 19.653a.723.723 0 0 0-.142.217.495.495 0 0 0 .142-.217M21.126 18.713c-.003.05.009.08.01.124.046-.074.058-.124-.01-.124M21.911 18.895l-.136.025c-.01.076-.019.15-.013.225l.15-.25zM23.903 22.198c.011-.012.012-.017.02-.03-.031-.206-.043-.096-.02.03M20.594 23.543c.075.07-.013.091-.09.114-.078.023-.145.05-.023.136-.005-.026.076-.06.132-.102.056-.042.086-.092-.019-.148"/>
            <path fill="#E95920" d="M21.963 18.469c.083.017.167.043.25.081-.11-.065-.186-.09-.25-.081M20.432 23.633l-.001.005.105.096-.104-.101M23.467 23.04c.085.048.168.05.25.047-.044-.038-.111-.06-.25-.046M24.08 22.354l-.193.25a.794.794 0 0 0 .193-.25M23.453 23.378c-.105.063-.173.026-.25.23a.161.161 0 0 0 .069.02c.004-.118.04-.214.181-.25M22.865 23.641c.038.035.08.053.12.08.04-.04.088-.08.13-.119l-.25.04zM19.694 19.06c.084.049.148.113.203.179-.103-.16.28-.358-.203-.18"/>
            <path fill="#E95920" d="M21.958 18.716c.068-.154.135-.221.235-.231a1.758 1.758 0 0 0-.208-.02c-.037.092-.058.182-.027.25M23.614 23.657l-.124.127c-.031.032-.062.064-.086.086l-.04.037c.078-.054.166-.15.25-.25M18.163 22.016l-.158-.25c.014.109.061.2.158.25M23.35 23.926c-.088-.098-.164-.104-.236-.064-.006.073-.015.14-.014.227l.25-.163zM19.733 19.037c-.003-.001-.005-.006-.005-.006s.002.005.005.006"/>
            <path fill="#E95920" d="M19.082 19.827c-.04.05-.074.043-.1.028.023-.018.048-.042.08-.074l-.004-.015a.17.17 0 0 1 .024.061m-.487-.016c.022-.027.048-.063.075-.1.023.017.034.052.016.074 0-.015-.014-.013-.032-.004-.017.008-.04.022-.059.03m.106-.084l-.002-.003.1-.097c-.021.02-.05.049-.098.1m1.491-.931c-.072.015-.021.063-.03.098-.08.036-.048-.032-.084-.054a.14.14 0 0 0-.034.026l-.029.03c-.018.02-.034.038-.054.042-.006-.008-.014-.01-.009-.023a.12.12 0 0 1-.044.034c-.019.009-.04.016-.06.023a.642.642 0 0 0-.06.026.129.129 0 0 0-.046.044.034.034 0 0 1-.013-.01c.02.023.03.05.035.071-.015.006-.026.019-.037.027-.01.008-.02.011-.031-.005.019-.005.015-.02.02-.034l-.013.013-.013.013c-.048-.04.037-.033.024-.07-.015.009-.029.02-.043.033l-.042.036a.31.31 0 0 1-.041.03.097.097 0 0 1-.04.014c-.015-.022.01-.038.03-.05.02-.012.034-.02-.007-.03l.04-.005.042-.004c-.087-.057.048-.012-.036-.076a.253.253 0 0 0-.104.047c-.025.017-.05.035-.102.05-.01.037.025.036.016.073-.029.028-.053.037-.074.038a.093.093 0 0 1-.031-.005.228.228 0 0 1-.028-.011c-.036-.017-.068-.033-.1.025-.004.022 0 .05-.006.072-.006.022-.021.04-.064.045l-.004-.033-.003-.033c-.046.024-.048.05-.052.073a.052.052 0 0 1-.013.031.064.064 0 0 1-.02.013.166.166 0 0 1-.033.01c.002-.015.016-.03.028-.041.012-.011.021-.018.013-.017-.043-.001-.049.013-.05.031 0 .018.004.04-.018.054l-.039-.037a.671.671 0 0 0-.063.058l-.03.032-.03.034-.03.035a31.906 31.906 0 0 0-.09.103c-.006-.016-.001-.043-.033-.035a1.39 1.39 0 0 1-.172.173c-.062.055-.127.109-.186.162l.001.037.002.026v.011c-.008.011-.03.01-.03-.008-.048.04.022.019.021.052-.015.03-.046.023-.046-.002-.013.055-.033.129-.059.2a.496.496 0 0 1-.1.18l-.002-.013a5.959 5.959 0 0 1-.002-.013.074.074 0 0 0-.014.052c.002.016.008.03.014.045a.206.206 0 0 1 .007.021.072.072 0 0 1 .003.021c0 .014-.005.028-.021.044l-.003-.017c-.02.042-.032.088-.044.134-.01.046-.019.092-.026.137a1.69 1.69 0 0 1-.006.034l-.003.016-.002.017a.764.764 0 0 1-.014.063l-.008.03a.446.446 0 0 1-.033.084c.016.007.022.022.024.041l-.001.03-.002.016-.001.017c-.003.044-.003.086.044.09a.553.553 0 0 1-.026.059l-.02.039a.496.496 0 0 0-.024.133c.002.02.018.032.036.045.02.013.04.027.05.05l-.048.01.031.028.022.018.01.008-.024.024-.023.024.01.02.013.021c-.003-.018.011-.043.025-.043a.16.16 0 0 1 .018.054c.003.02.003.04 0 .058-.003.038-.014.069-.025.073l.014.024.032.05.033.05.016.022c-.02.004-.037-.02-.055-.037.01.008.016.015.02.021a.03.03 0 0 1 .007.014c.001.007-.004.01-.01.015-.01.007-.023.015.014.045.006-.014.029-.005.038-.007a.106.106 0 0 0 0 .043.342.342 0 0 0 .04.103l.03.046-.035.003a.456.456 0 0 0 .044.087.657.657 0 0 0 .055.085l.03.042.03.043c.021.028.043.056.062.086-.016-.051.039-.073.066-.043l-.032.042c.04.003-.01-.045.053-.024.026.045-.026.062-.057.047l.051.042c-.01.012-.025.004-.043.013.02.001.027.03.038.06a.13.13 0 0 0 .02.04c.009.01.02.016.038.015l-.01.012c.045.056.084.09.12.124l.055.047.014.012.014.013.03.027c.017-.015.031-.013.048-.007.016.005.035.014.06.012l.039.052.041.056.012.014a.62.62 0 0 0 .093.087c.07.024.038-.018.079-.02-.02.035.065.089.006.083a1.264 1.264 0 0 0 .187.096l.041.015.05.017c-.006-.023-.018-.038-.003-.045.026.008.045.045.032.06h-.008a.238.238 0 0 1 .093.036l.029.02c.019.013.037.028.056.044l.055.047c.074.063.149.12.227.105h-.009l.023.002c.014.001.032.003.05.003l.072.003c.029.014.018.018.003.023-.014.006-.03.012-.012.032a.332.332 0 0 1 .105.007c.03.006.057.017.083.027.026.01.051.021.078.029a.244.244 0 0 0 .088.008.14.14 0 0 0 .08.071.753.753 0 0 0 .123.028l.066.008.065.01a.24.24 0 0 1 .107.046l-.003-.03c.038-.02.037.023.06.033 0-.022-.03-.03-.008-.042.14.006.281.033.424.063.142.03.287.063.43.08.052.004.068-.031.087-.06.018-.028.04-.049.105-.016l-.037.052c.106-.03.214-.033.324-.038l.083-.006a.975.975 0 0 0 .163-.027.662.662 0 0 0 .077-.027c-.01.014-.008.029-.03.032.014.008.03.01.049.008a.199.199 0 0 0 .098-.042c.01-.01.017-.02.015-.027.034-.004.014.025.038.036.013.002.026-.001.038-.008.013-.006.025-.015.036-.024.023-.016.044-.032.061-.018.006.005-.009.016-.016.021a.09.09 0 0 1 .03-.018c.014-.005.03-.01.043-.016.026-.012.044-.024.022-.039.043-.004.078-.025.111-.043l.025-.015a.315.315 0 0 1 .024-.013.168.168 0 0 1 .05-.015.06.06 0 0 1 .028-.035c.013-.009.03-.015.044-.022.029-.014.054-.028.04-.06.017.031.056.023.093-.001a.277.277 0 0 0 .05-.046.162.162 0 0 0 .03-.049c0 .028.05-.011.053.024a.226.226 0 0 0 .052-.06c.01-.02.01-.036-.007-.046a.123.123 0 0 0 .045-.012.11.11 0 0 0 .033-.025.366.366 0 0 0 .043-.066.19.19 0 0 1 .037-.057c.015-.014.035-.021.066-.015a5.366 5.366 0 0 0 .211-.445c.03.02.01.057-.01.093-.02.037-.038.072-.006.089.028-.07.039-.132.052-.19a.648.648 0 0 1 .025-.086.44.44 0 0 1 .043-.088c.024-.03.02.033.024.05a1.194 1.194 0 0 1 .075-.2c.013-.031.024-.063.034-.095a.448.448 0 0 0 .016-.098c.006.003.008.018.01.032.006-.024.027-.053-.004-.06l.001.026c-.014.006-.025.001-.034-.01a.148.148 0 0 1-.021-.044c-.012-.036-.02-.075-.03-.08.038.033.051.005.067-.02.016-.025.034-.046.081.002-.001-.018-.01-.042-.032-.044.012-.022.026-.027.044.004.002-.047-.007-.064-.014-.08-.007-.015-.013-.03-.005-.069.016.004.018.021.034.033-.01-.023-.02-.047-.026-.072a.15.15 0 0 1 .008-.086c.009.005.022 0 .018.02a.307.307 0 0 0 0-.085.928.928 0 0 0-.007-.04l-.008-.04a.604.604 0 0 1-.01-.08.27.27 0 0 1 .013-.088c.065.042.024-.042.082-.047l-.006-.035-.008-.036-.03.028c.002-.03-.008-.06-.015-.087-.008-.028-.015-.054-.005-.08l.024.045-.006-.057-.005-.04-.003-.017-.01.033-.006.022-.004.01c-.007-.015-.016-.022-.024-.025-.008-.004-.016-.003-.022-.003-.013 0-.02-.004-.014-.043.004.008.003-.007.006-.028s.008-.048.024-.065c-.01-.014-.02-.028-.027-.044a.089.089 0 0 1-.006-.057c.018-.014.065.002.077-.007-.013-.006-.021-.017-.027-.032a.322.322 0 0 1-.015-.05c-.004-.018-.008-.036-.016-.05a.07.07 0 0 0-.031-.036c.014.01.044.006.05.001l-.043-.017c.008-.03.013-.035.038-.035-.005-.042-.022-.032-.036-.025-.014.008-.026.013-.02-.039.005.007.01.002.02.017-.002-.05-.02-.096-.036-.141a.476.476 0 0 1-.039-.134c.024-.021.034-.003.042.015s.014.037.034.015a.811.811 0 0 0-.044-.094 4.225 4.225 0 0 0-.054-.09 1.413 1.413 0 0 1-.075-.134.583.583 0 0 1-.015-.034l.001.012c-.04.008-.041-.017-.039-.05.001-.017.003-.036 0-.053a.06.06 0 0 0-.026-.043c.012.012.05-.001.04-.001-.027-.086-.101-.154-.194-.252l.027.003a.208.208 0 0 0-.015-.043.59.59 0 0 0-.025-.044l-.027-.045a.416.416 0 0 1-.024-.04c-.027-.001-.043-.03-.057.005a.237.237 0 0 0-.003-.037.213.213 0 0 0-.04-.09.41.41 0 0 0-.093-.082 2.697 2.697 0 0 1-.049-.035.375.375 0 0 1-.065-.06.19.19 0 0 1-.04-.083c.014.014.045.02.034.009l-.016-.013-.018-.012-.02-.014-.054-.038c-.017.034-.002.028-.002.067a.12.12 0 0 1-.087-.028c.059.02.038-.044.032-.076-.004.011-.019.015-.024.025-.003-.023-.007-.032-.014-.034-.006 0-.014.005-.023.011-.018.012-.04.025-.061-.02l.016-.012a.196.196 0 0 0-.026-.01c-.009-.002-.018-.003-.026-.006a.098.098 0 0 1-.047-.025c.013-.042.04.007.064-.019a.093.093 0 0 0-.039-.013.362.362 0 0 0-.022-.003l-.022-.002c-.028-.003-.053-.01-.06-.04.025.003.05.021.075.025a.142.142 0 0 0-.02-.062c-.009-.01-.018-.016-.032-.03l.002.003-.03-.035-.022-.023a.265.265 0 0 0-.01-.01.295.295 0 0 0 .012.023.128.128 0 0 1-.07.015.119.119 0 0 1-.048-.02c-.016-.01-.031-.02-.05-.027a.124.124 0 0 0-.068-.006.25.25 0 0 0 .05-.012c.009-.004.01-.008.01-.012-.002-.01-.014-.022 0-.041-.012-.023-.036-.052-.02-.06-.029.007-.04-.008-.056-.022-.015-.014-.033-.027-.073-.016.003-.007-.007-.013-.015-.02-.007-.007-.012-.016 0-.031-.055-.013.001.03-.012.044-.05.005-.087-.03-.132-.064a.263.263 0 0 0-.074-.044.163.163 0 0 0-.093-.01.302.302 0 0 0-.123.014.654.654 0 0 1-.053.013.283.283 0 0 1-.063.006c-.012-.016-.002-.028.011-.035a.116.116 0 0 1 .03-.01c-.044-.038-.084-.043-.136-.039.013-.01.006-.024-.005-.044-.04-.005-.038.048-.084.015.012-.015.029-.039.052-.051-.05.002-.101.022-.151.027-.008-.029.036-.035.056-.048h-.047a.486.486 0 0 0-.05.005c-.032.005-.06.014-.07.034l.016.01.016.01c-.02-.001-.005-.037.01-.043.052-.025.065.025.065.04l-.035.005c.005.023.016.035.03.04a.103.103 0 0 0 .054.002c.04-.007.087-.02.12-.01l-.021.028-.021.028.04-.018.028-.013.012-.005c.01.02.011.058-.023.059.02.021.03.018.042.016.01-.003.02-.005.036.017.003.007 0 .01-.005.01l.05-.004c-.012.01-.005.046-.03.029a.104.104 0 0 0 .052.024.19.19 0 0 0 .047.002c.03-.002.052-.004.059.025l-.008.001c.058.01.065 0 .07-.016.002-.008.004-.017.012-.025.008-.009.022-.017.048-.021a4.49 4.49 0 0 0 .01.13l.03-.039c.01.006.03.02.02.035.053-.012 0-.022.036-.04.01.016.024.026.04.035.015.009.033.015.049.022.032.014.056.03.045.067.035-.023-.037-.05.03-.044-.011.04.006.045.03.047.024.003.055.003.069.033-.035.028-.068-.015-.04.043.016-.012.029-.013.04-.01.011.005.02.015.03.026.017.024.032.054.054.06.016-.024.04-.016.068.001.015.008.03.02.046.03.016.011.034.02.052.028-.008.006.016.033.047.065.03.034.068.072.087.102l-.008.006c.024-.018.047-.013.071-.001.024.013.047.033.07.045-.024.025-.04.029-.07.022l.036.031c.02-.006.038-.002.065.014l-.038.023c.012.01.026.019.041.027l.046.026c.03.018.06.042.077.081.017-.011.026-.042.04-.065.015-.022.036-.036.077-.011-.014.017-.039.044-.061.033.007.003.031.008.035.026l-.05-.003c.013.04.035-.005.053.02-.024.02-.002.032-.023.045-.007-.004-.008-.029-.025-.03.01.015.018.033.022.05a.084.084 0 0 1 0 .048c.012-.013.032-.026.051-.01.022.024.018.035.01.043-.007.01-.019.017-.014.037.027-.001.034.044.071.017.012.015-.004.031-.01.044.01.004.02.013.03.025.012.01.023.024.033.035.021.022.04.034.05.005l-.002-.009.005.004a.197.197 0 0 1 .059.062.377.377 0 0 1 .02.038c.006.012.011.026.016.04l.03.08a.364.364 0 0 0 .04.074l-.014.007a.605.605 0 0 1 .058.086.356.356 0 0 0 .029.04c.01.012.02.023.032.03.008.019-.008.053-.028.053.015.02.026.03.034.045a.09.09 0 0 1 .01.027.199.199 0 0 1 .003.045c-.01-.01-.016-.013-.02-.013s-.005.001-.006.002c-.001.003 0 .002-.01-.03.003.016.004.03.004.041 0 .012 0 .022.003.032.002.01.005.02.012.03.007.01.018.021.033.035-.022-.006-.03.01-.031.03 0 .019.007.042.017.055l.007-.025.007-.025c.016.03.02.06.024.091l-.054-.002a.154.154 0 0 0 .01.092.282.282 0 0 0 .023.038l.023.038a.42.42 0 0 1 .022.036c.006.013.01.025.013.038a.09.09 0 0 1-.01.059.13.13 0 0 1-.013.02c.02.015.024-.003.029-.022.004-.02.009-.039.032-.027 0 .008 0 .015-.002.023a.31.31 0 0 1-.03.068c-.014.028-.031.05-.03.06-.01.04.01.057.032.075.01.01.021.018.029.03a.063.063 0 0 1 .008.022.074.074 0 0 1 0 .028c.018-.011.066-.025.087.04a.067.067 0 0 1-.014.038.06.06 0 0 1-.028.02c-.02.006-.042 0-.05-.019-.001-.014.004-.021.01-.02-.007-.02-.016-.045-.035-.02l.019.007a.106.106 0 0 0-.01.03l-.008.035c-.006.021-.012.037-.028.027.018.045.03.02.04-.014a.28.28 0 0 0-.013.098c0 .03 0 .06-.01.1.01-.013.033-.023.032-.01a.319.319 0 0 0-.008.057.03.03 0 0 0 .012.022c.012.01.029.014.03.054-.034.042-.066-.023-.052.059-.024.045-.05.003-.062-.017l.006.027a.1.1 0 0 1-.002.025.146.146 0 0 1-.017.045c-.007.013-.016.025-.024.037a.136.136 0 0 0-.018.03l-.009-.038c.005.023.002.04-.001.059l.04-.014-.013.026c-.004.007-.009.01-.016.009.01.013.025.012.042.013.016.002.034.007.045.032-.012.013-.012.036-.015.056-.003.02-.01.037-.035.036.019-.043.006-.043-.01-.043-.008 0-.017.001-.023-.003-.006-.004-.01-.013-.008-.033.003.016-.001.034-.013.053-.006.002-.01-.005-.01-.011-.063.073.045.052.02.14-.024-.019-.057.006-.056.021.012-.034.05-.004.06.035-.019.025-.02.041-.017.055.001.014.007.025 0 .04l.022-.03c.022.02.009.047.003.09-.02-.005-.001-.042-.015-.03a.044.044 0 0 1 .005.02.04.04 0 0 1-.005.019.14.14 0 0 1-.03.032c-.023.021-.05.043-.048.078-.028.02-.049-.017-.07.001.002.039-.015.053-.032.066a.242.242 0 0 0-.025.022.077.077 0 0 0-.015.043c.043-.002.037-.01.045.053l.002-.005.003-.014.011-.041.01-.042.005-.02.002.016.006.032.006.048a.185.185 0 0 0 .016-.056c.002-.018.005-.034.013-.043.011.047.004.04.04.036-.018.006-.028.016-.033.027a.108.108 0 0 0-.01.04c0 .014-.002.03-.006.043a.059.059 0 0 1-.029.034l-.08-.045a.116.116 0 0 0-.04.05.296.296 0 0 0-.017.06c-.005.022-.01.045-.019.067a.193.193 0 0 1-.043.065l.017-.01.016-.012c.011.017.003.033-.01.049-.013.015-.03.032-.035.052-.023-.021-.046-.01-.07-.009.01.006-.003.023-.014.042-.01.02-.018.044.002.068l-.032.006-.032.006a.109.109 0 0 0-.02.023.084.084 0 0 0-.012.023c-.005.016-.006.034-.007.05-.001.035-.003.07-.04.097-.001-.021-.013-.029-.021-.039-.009-.01-.013-.02 0-.05-.021.02-.044.034-.03.05-.006 0-.011.004-.016.012l-.015.028a.128.128 0 0 1-.017.03c-.007.006-.015.01-.025.01-.001.017.016.045-.012.064-.007-.003-.01-.012-.01-.012.01.012-.03.048.015.058a.17.17 0 0 0-.09.013.554.554 0 0 0-.079.047.822.822 0 0 1-.079.043.143.143 0 0 1-.04.008l-.02-.001a.093.093 0 0 1-.02-.007 2.537 2.537 0 0 1-.042.027l-.023.012-.023.012a.741.741 0 0 1-.09.04c0-.01-.005-.015.007-.016-.022 0-.034.005-.042.014-.007.009-.01.021-.015.033a.074.074 0 0 1-.018.034c-.01.009-.025.013-.05.011-.058-.038.042-.037.01-.05-.01-.023-.02-.033-.033-.034-.007 0-.013 0-.02.003a.18.18 0 0 0-.023.01c-.015.007-.032.016-.05.02a.066.066 0 0 1-.054-.01l.014-.008a.052.052 0 0 0-.04-.002.203.203 0 0 0-.043.02l-.024.013a.296.296 0 0 1-.026.012.15.15 0 0 1-.056.012s.003-.009 0-.015a.247.247 0 0 1-.105.063c-.042.015-.087.025-.125.033.023-.04.034-.022.018-.062-.034.007.012.065-.057.077-.023-.02-.073-.04-.08-.083h.032l.023-.002h.01c-.017-.028-.038-.027-.059-.021-.02.006-.042.018-.06.013l.005-.024a.184.184 0 0 0-.06.013l-.042.022a.166.166 0 0 1-.108.025l.01.018c-.061.059-.048-.036-.109.007l-.014-.063c-.02.007-.055.02-.094.031a.594.594 0 0 1-.117.025c.044-.041.126-.059.178-.083a.555.555 0 0 0-.082 0c-.03.003-.059.01-.07.024.016-.004.036-.018.05-.007a.216.216 0 0 1-.085.047.266.266 0 0 1-.106.007c.013-.06-.036-.071-.093-.083-.03-.005-.06-.011-.086-.021-.026-.01-.048-.026-.058-.05a.303.303 0 0 1-.101-.001.496.496 0 0 1-.1-.026c-.032-.01-.065-.024-.1-.035l-.052-.017a.692.692 0 0 0-.056-.013c.008.026.01.038.007.044-.003.006-.01.004-.019.003-.017-.003-.04-.008-.046.04-.037-.003-.05-.008-.052-.015l-.046-.042a1.441 1.441 0 0 1-.045-.042c-.017-.034.039-.011.041-.033-.073-.028-.02-.048-.062-.086 0 .036-.04.039-.079.013l.047.06c-.06.008-.077-.018-.093-.044-.016-.027-.032-.053-.092-.048l.043-.017c-.03-.001-.078-.018-.128-.03a.514.514 0 0 0-.076-.011.133.133 0 0 0-.068.016c-.005-.014-.006-.043.019-.04a.46.46 0 0 0-.098-.036 1.29 1.29 0 0 0-.054-.013l-.053-.013a.546.546 0 0 1-.099-.033.18.18 0 0 1-.07-.055l.02-.015c-.025-.007-.06.015-.074-.021.006-.008.02-.015.011-.022-.007 0-.027 0-.047-.004s-.04-.012-.05-.026l.037-.007a.231.231 0 0 0-.108-.064.428.428 0 0 0-.038-.01c-.051-.01-.104-.016-.152-.044.022-.027.017-.06.003-.093a.408.408 0 0 0-.05-.084l.007-.006a.555.555 0 0 0-.058-.052l-.01-.008-.01-.007a.601.601 0 0 0-.06-.04l-.02-.013c-.028-.017-.057-.033-.085-.051a1.174 1.174 0 0 1-.082-.061.145.145 0 0 0-.006-.044.266.266 0 0 0-.027-.07l-.013-.024a1.11 1.11 0 0 0-.03-.05c-.04-.069-.084-.142-.097-.213 0 .025-.048.022-.066.004-.002-.018-.022-.033-.035-.047-.013-.013-.019-.026.011-.037l.004.011a.072.072 0 0 0 .02-.037.083.083 0 0 0-.004-.037.237.237 0 0 0-.015-.038l-.015-.037-.08.023a.206.206 0 0 0 .002-.123.418.418 0 0 0-.02-.06l-.012-.028a1.412 1.412 0 0 0-.013-.028l-.024-.055a.33.33 0 0 1-.017-.075c0-.008 0-.015.002-.022a.079.079 0 0 1 .022-.04.124.124 0 0 1-.017-.022l-.012-.025a.195.195 0 0 0-.028-.05l.044-.003v-.06-.027-.027c0-.017-.002-.036-.004-.056a1.145 1.145 0 0 0-.007-.071l.032.021a.04.04 0 0 0-.005-.02.07.07 0 0 0-.014-.018c-.012-.01-.027-.02-.044-.03a.297.297 0 0 1-.044-.031c-.013-.012-.02-.024-.02-.04l.034-.006.033-.006a.263.263 0 0 1 .015-.08l.006-.02a.982.982 0 0 0 .024-.078l.002-.01.002-.009a.265.265 0 0 0 .001-.122c.01.004.027.012.025.029l.019-.047a.425.425 0 0 0 .023-.057c.006-.02.01-.036.005-.05-.004-.014-.015-.024-.038-.028.014.005.024.001.03-.008a.06.06 0 0 0 .008-.019.33.33 0 0 0 .008-.053l.002-.03c.001-.02 0-.04.002-.055l.035.027c-.014-.034-.024-.054-.028-.074a.145.145 0 0 1 .01-.074c.014-.012.038.005.016.018.025-.018.021-.033.02-.049-.003-.016-.004-.033.024-.056l.01.037a.16.16 0 0 0 .017-.028.043.043 0 0 0 .005-.02c0-.013-.007-.025-.01-.048.003-.02.022-.041.045-.055.023-.013.049-.019.066-.01a.073.073 0 0 1-.01-.043c.001-.016.008-.033.024-.042.014.006.013.022.012.03a.15.15 0 0 0 .047-.046c.01-.015.018-.032.026-.048a.174.174 0 0 1 .024-.041.076.076 0 0 1 .018-.016.082.082 0 0 1 .026-.009c.01.01.019.012.026.01l-.072.068c-.017.017-.028.026-.027.023.015.013.034.01.05.013.016.003.03.012.033.048l.01-.049a.458.458 0 0 1 .014-.056.224.224 0 0 1 .023-.05.093.093 0 0 1 .037-.033c.005 0 .01.002.015.005l-.002.008a.048.048 0 0 0 .025-.03c.019-.008.03-.012.046-.023.013.011.03.003.045-.009.017-.012.033-.029.046-.038-.029-.033.008-.052-.044-.058.006 0-.002.008-.017.022-.003.004-.007.008-.008.012v-.005l-.06.051c.006-.033.014-.064.057-.066a.662.662 0 0 1-.007-.083c.072.022.158.003.188.028.032-.036.078-.069.117-.105a.33.33 0 0 0 .051-.057.164.164 0 0 0 .029-.068c.02-.022.039.007.054.013-.01.015-.028.023-.03.037a.235.235 0 0 1 .038-.032l.046-.031c.029-.022.052-.044.046-.073.038-.003.034.013.032.024-.003.01-.004.016.038-.007l-.005.021a.222.222 0 0 0 .07-.007.222.222 0 0 0 .056-.025.415.415 0 0 0 .05-.037l.047-.042a.722.722 0 0 1 .078-.06.222.222 0 0 1 .177-.022c-.017-.003-.025-.004-.03-.013a1.068 1.068 0 0 0 .226-.04l.045-.012.045-.012.022-.006.023-.006c.03-.007.06-.015.09-.02a1.022 1.022 0 0 1 .185-.018c.03.001.061.004.092.011.07.01.072-.028.111-.06l.02.045.065-.061c.049-.025.095 0 .144.02.05.021.1.038.162-.004l-.019-.03c.047.002.145-.028.14.008.004-.006.013-.033.032-.018l.003.025.11-.048c.09.013-.008.098.12.097.048-.012.133-.078.115-.094-.02 0-.05-.013-.053-.038l.043-.014c.005-.073.036-.15-.075-.195l-.073.048-.026-.034.064-.006c-.038-.031-.06 0-.084.02a.06.06 0 0 0-.033-.036l-.07.073c-.011-.028.03-.058-.021-.071-.033.034.037.061-.02.086-.038-.031-.029-.059-.07-.028-.007-.019.002-.031.018-.04-.036.024-.1.015-.117.055-.04-.038-.126.02-.128-.05a.204.204 0 0 1-.097.066c.028-.044-.004-.042-.043-.041-.039.002-.084.003-.08-.041-.02.039-.062.05-.109.06l-.072.015a.217.217 0 0 0-.066.027c.004-.006.012-.02.02-.016-.048 0-.065-.02-.098-.03.003.061-.068.086-.101.13-.034-.025-.028-.044-.017-.064.01-.02.027-.04.013-.066.005.024-.018.04-.04.056-.02.015-.04.029-.026.047-.05-.028-.041-.01-.073-.056.006.076-.039.02-.066.074-.036-.012-.044-.029-.05-.038-.004-.004-.008-.007-.014-.006a.096.096 0 0 0-.033.015c-.02-.008-.015-.022-.005-.034a.114.114 0 0 1 .023-.022"/>
            <path fill="#E95920" d="M19.169 19.842c.027-.041.03-.08.076-.123a1.508 1.508 0 0 0-.25-.004c.013.083.025.166.04.244l.134-.117M23.647 19.931l.012.047a.284.284 0 0 1 .03-.134c-.012.044-.03.056-.042.087M17.973 21.825l.173-.038-.192-.175zM23.273 19.407a.351.351 0 0 0-.007-.242c-.024.039-.012.133.007.242M23.212 19.175l-.25-.25c.1.12.18.194.25.25M22.989 18.806a1.118 1.118 0 0 0-.22.217c.003.004.005.005.006.008l.214-.225zM24.206 22.432a.284.284 0 0 0-.024.11c.002.274.037.096.024-.11M24.237 21.195c.092.08.182.162.244.25.018-.146.014-.258-.244-.25M23.554 23.662c0-.004-.004-.004-.006-.01-.038.033-.075.06-.114.092l.12-.082z"/>
            <path fill="#E95920" d="M24.328 21.482c.122-.097.088-.177-.031-.25-.023.08-.088.173.031.25M21.94 18.465l-.196-.06a.197.197 0 0 1-.04.108l.236-.048z"/>
            <path fill="#E95920" d="M21.922 18.412l-.233.047c.102.016.19.024.233-.047"/>
            <path fill="#E95920" d="M21.658 18.551l.125-.058.086-.04.039-.016c-.082-.025-.183-.069-.25.114M22.056 18.715l.129-.228a.521.521 0 0 0-.129.228"/>
            <path fill="#E95920" d="M22.314 18.712c-.06-.05-.135-.234-.233-.236l-.017.053c.03-.043.073.026.117.093.045.067.092.133.133.09M22.643 18.987l-.095-.085-.066-.057-.03-.025c.017.077.039.178-.06.138.052.078.076.108.088.112.012.003.013-.02.016-.049.005-.056.017-.13.147-.034M22.843 19.034c-.305-.12-.087.165-.137.219.23.007.288.009.137-.219M24.095 20.376l-.25.12c.114.33.095-.06.25-.12M24.323 20.863l.094-.213-.25-.037zM24.036 20.98l-.086-.064.25.25zM22.917 23.573l.213.206c.055-.044.043-.136-.003-.194a.137.137 0 0 0-.09-.055c-.035-.005-.077.006-.12.043M21.813 23.985c-.046-.201-.169-.34-.25-.156.1.04.198.202.25.156M18.473 21.987l.206.113-.25-.25z"/>
            <path fill="#DBA27D" d="M14.94 22.929c-.168.031-3.948 3.203-9.202 4.15l3.986-6.931 5.216 2.78z"/>
            <path fill="#F8C09D" d="M5.267 22.95l2.862-3.204s.235-.236.57-.44a1.71 1.71 0 0 1 1.164-.23l5.321.858-2.374 1.72-2.632-.555s-.356-.07-.701.64l-1.054 1.803a1.7 1.7 0 0 0 .186 1.986c.088.099.187.187.298.255L5.503 27.34l-.6-2.378s-.364-1.18.364-2.01"/>
            <path fill="#E7B26A" d="M15.466 19.79s2.25-.268 2.3-.176c.05.091-1.583 1.85-1.583 1.85l-.54-.689-.177-.985z"/>
            <path fill="#FFD833" d="M15.478 19.785l-9.794 4.232.707 1.628 9.798-4.183s.091-.269-.153-.318c0 0 .148-.235-.153-.325 0 0 .14-.224-.15-.376 0 0 .139-.223-.115-.314 0 0 .123-.16-.14-.344"/>
            <path fill="#F8C09D" d="M10.797 25.228c.222-.178 1.046-.946 1.484-1.842l.935-1.817s.34-.597 1.041-.552a.479.479 0 0 1 .096.016c.18.05.797.261 1.01.894.023.07.03.146.02.22-.022.167-.108.503-.42 1.072l-2.499 4.966s-.686 1.223-1.39 1.918a.498.498 0 0 0-.03.034c-.096.113-.644.758-.981 1.012a.493.493 0 0 0-.134.154l-.408.732a.026.026 0 0 1-.035.01l-3.906-2.16.238-.431a.492.492 0 0 0 .05-.34l-.373-1.773 3.166-1.447c.073-.033.164-.078.237-.11.065-.029.393.653 1.899-.556"/>
            <path fill="#282928" d="M16.886 19.662s.857-.104.876-.053c.023.062-.547.683-.547.683l-.329-.63z"/>
            <path fill="#FFA130" d="M15.73 20.442s.138-.223-.116-.314c0 0 .123-.16-.14-.344L5.68 24.016l.343.788 9.875-4.195c-.022-.057-.071-.116-.168-.167"/>
            <path fill="#0D2E41" d="M4.612 24.47l1.374-.586.698 1.636-1.373.587c-.495.21-1.057.016-1.25-.434-.191-.45.056-.991.551-1.203"/>
            <path fill="#092330" d="M5.992 23.881l-1.373.587c-.495.211-.743.752-.55 1.202a.82.82 0 0 0 .014.032l2.255-1.01-.346-.81z"/>
            <path fill="#FBF8EC" d="M10.044 32.624l-5.608-2.982.369-.694 5.608 2.982z"/>
            <path fill="#092330" d="M10.243 32.589l-3.392 6.137-.698 1.263a23.84 23.84 0 0 1-4.18-6.253l2.415-4.375 2.718 1.498.122.068 3.005 1.656.01.006z"/>
            <path fill="#0D2E41" d="M10.233 32.583L6.85 38.726l-.696 1.265-.002-.002a23.845 23.845 0 0 1-2.33-2.947l3.405-6.115 3.005 1.656z"/>
        </g>
    </g>
</svg>
