<svg xmlns="http://www.w3.org/2000/svg" xmlns:xlink="http://www.w3.org/1999/xlink" width="82" height="82" viewBox="0 0 82 82">
    <defs>
        <circle id="a" cx="41" cy="41" r="41"/>
        <path id="c" d="M0 .1h38.298v40.094H0z"/>
    </defs>
    <g fill="none" fill-rule="evenodd">
        <mask id="b" fill="#fff">
            <use xlink:href="#a"/>
        </mask>
        <use fill="#00BF8F" fill-opacity=".15" xlink:href="#a"/>
        <g mask="url(#b)">
            <path fill="#F8EC7D" d="M59.478 33.506l-4.612 7.564-.01-.007h-27.39l-4.608-7.557h28.085z"/>
            <path fill="#E48E66" d="M54.866 41.07l-9.12 14.955v11.209l-9.156-5.182v-6.027l-9.124-14.962h27.39z"/>
            <path fill="#6FE3FF" d="M50.943 33.264v.242h-8.537v-.242c0-2.425 1.911-4.39 4.268-4.39 2.358 0 4.269 1.965 4.269 4.39M45.503 12.014c2.358 0 4.269 1.966 4.268 4.391 0 2.425-1.912 4.39-4.27 4.39-2.356 0-4.267-1.966-4.267-4.391s1.912-4.39 4.27-4.39M31.734 20.795c2.357 0 4.269 1.965 4.27 4.39 0 2.424-1.911 4.39-4.269 4.39-2.357.001-4.268-1.964-4.269-4.39.001-2.425 1.911-4.39 4.268-4.39"/>
            <g transform="translate(22 27.91)">
                <mask id="d" fill="#fff">
                    <use xlink:href="#c"/>
                </mask>
                <path fill="#63316D" d="M32.403 12.262H5.933L2.386 6.467H35.95l-3.548 5.795zm-9.409 15.38a.967.967 0 0 0-.164.473v9.739l-7.465-4.226v-5.513a.9.9 0 0 0-.094-.472L6.994 14h24.348l-8.348 13.642zm1.68-25.808c1.648.022 3.055 1.23 3.368 2.895h-6.735c.313-1.664 1.72-2.873 3.367-2.895zM37.478 4.73H29.75c-.338-2.884-2.885-4.939-5.689-4.59-2.337.29-4.18 2.185-4.462 4.59H.858A.889.889 0 0 0 0 5.646c.003.144.04.286.107.413l13.568 22.306v5.777a.907.907 0 0 0 .473.762l9.173 5.182c.128.07.27.108.416.108.141 0 .28-.043.4-.121a.847.847 0 0 0 .383-.749V28.365L38.16 6.058a.89.89 0 0 0 .04-.882.814.814 0 0 0-.722-.447z" mask="url(#d)"/>
            </g>
            <path fill="#63316D" d="M42.08 16.404c0-1.945 1.533-3.521 3.423-3.52 1.89 0 3.423 1.577 3.423 3.521s-1.533 3.52-3.423 3.52c-1.89-.001-3.422-1.577-3.424-3.521m8.537 0c0-2.905-2.29-5.26-5.114-5.26-2.824.001-5.113 2.356-5.113 5.261 0 2.905 2.29 5.26 5.114 5.26 2.823-.004 5.11-2.358 5.113-5.261M28.311 25.184c0-1.944 1.534-3.52 3.424-3.52 1.891 0 3.423 1.577 3.423 3.522 0 1.945-1.533 3.52-3.424 3.52-1.89-.002-3.421-1.578-3.423-3.522m8.537 0c0-2.904-2.29-5.259-5.114-5.258-2.824 0-5.113 2.355-5.113 5.26 0 2.904 2.29 5.259 5.113 5.259 2.823-.003 5.111-2.357 5.114-5.26"/>
        </g>
    </g>
</svg>
