<svg xmlns="http://www.w3.org/2000/svg" width="24" height="24" viewBox="0 0 24 24">
    <g fill="none" fill-rule="evenodd">
        <path d="M0 0h24v24H0z"/>
        <path fill="#00BF8F" d="M21.17 18.01l-3.536-1.531c-.083-.042-.176-.144-.256-.28l2.373-.003s.137.014.35.014c.39 0 .959-.045 1.455-.257a1.077 1.077 0 0 0 .452-1.61c-.679-.966-2.262-3.488-2.311-6.046-.001-.044-.145-4.394-4.44-4.429-.432.004-.84.057-1.226.15a3.93 3.93 0 0 1 .241 1.664v1.721c.236.335.364.734.364 1.142V10c0 .693-.365 1.335-.948 1.695a8.844 8.844 0 0 1-1.233 2.264v1.04c0 .16.086.3.229.371l3.474 1.737a3.804 3.804 0 0 1 2.114 3.422V22h4.546v-1.345a2.94 2.94 0 0 0-1.648-2.646m-5.256-.413l-3.474-1.737a.957.957 0 0 1-.53-.86v-1.23c.082-.101.17-.217.26-.345a8.328 8.328 0 0 0 1.075-2.109c.513-.235.846-.742.846-1.315V8.545c0-.35-.131-.689-.364-.954V5.657c.02-.2.101-1.39-.76-2.373C12.22 2.432 11.007 2 9.364 2 7.72 2 6.508 2.432 5.76 3.283 4.9 4.266 4.98 5.456 5 5.656v1.935a1.45 1.45 0 0 0-.364.954V10c0 .442.201.855.545 1.13a7.629 7.629 0 0 0 1.274 2.631v1.204a.96.96 0 0 1-.501.843l-3.244 1.77A3.28 3.28 0 0 0 1 20.458V22h16.727v-1.47c0-1.251-.695-2.375-1.813-2.934"/>
    </g>
</svg>
