<svg xmlns="http://www.w3.org/2000/svg" width="24" height="24" viewBox="0 0 24 24">
    <g fill="none" fill-rule="evenodd">
        <path d="M0 0h24v24H0z"/>
        <path fill="#00BF8F" d="M23.044 15.322a.213.213 0 0 0 .004-.013c.095-.312.092-.8-.46-1.351-.58-.58-1.475-.948-1.513-.964-2.14-.92-13.134-4.333-13.134-4.333l-.795-2.655a.247.247 0 0 0-.163-.164l-1.848-.58a.247.247 0 0 0-.32.253l.402 5.533a.247.247 0 0 0 .172.218l4.41 1.386-2.651 3.528a.247.247 0 0 0 .126.385c.474.142.77.23 1.058.314.293.086.596.175 1.083.322a.247.247 0 0 0 .159-.006l6.65-2.526 3.228 1.014c1.494.488 3.223.649 3.592-.361zm-6.393-4.444l-2.6-2.892a.247.247 0 0 0-.112-.071l-2.329-.697a.247.247 0 0 0-.316.213l-.163 1.72a.246.246 0 0 1 .04.008l5.48 1.72z"/>
    </g>
</svg>
