<?xml version="1.0" encoding="UTF-8"?>
<svg xmlns="http://www.w3.org/2000/svg" xmlns:xlink="http://www.w3.org/1999/xlink" width="116pt" height="115pt" viewBox="0 0 116 115" version="1.1">
<g id="surface1">
<path style=" stroke:none;fill-rule:nonzero;fill:rgb(100%,100%,100%);fill-opacity:1;" d="M 57.976562 75.292969 C 48.09375 75.292969 40.105469 67.339844 40.105469 57.5 C 40.105469 47.660156 48.09375 39.707031 57.976562 39.707031 C 67.859375 39.707031 75.84375 47.660156 75.84375 57.5 C 75.894531 67.339844 67.859375 75.292969 57.976562 75.292969 Z M 57.976562 75.292969 "/>
<path style=" stroke:none;fill-rule:nonzero;fill:rgb(0%,56.470588%,36.078431%);fill-opacity:1;" d="M 57.277344 53.027344 C 57.277344 53.027344 59.171875 49.847656 59.171875 49.847656 C 59.523438 49.25 59.871094 48.703125 60.421875 48.304688 C 60.96875 47.859375 61.71875 47.757812 62.367188 47.558594 C 62.917969 47.410156 63.464844 47.261719 64.015625 47.113281 C 64.066406 47.113281 64.066406 47.113281 64.113281 47.113281 L 61.71875 51.289062 L 60.71875 53.226562 L 59.273438 54.070312 L 57.976562 53.574219 Z M 57.277344 53.027344 "/>
<path style=" stroke:none;fill-rule:nonzero;fill:rgb(21.176471%,69.019608%,54.117647%);fill-opacity:1;" d="M 52.632812 43.285156 C 52.683594 43.386719 52.632812 43.484375 52.585938 43.585938 C 52.285156 44.378906 51.984375 45.226562 51.636719 46.019531 C 51.238281 46.964844 51.585938 47.957031 52.035156 48.804688 C 52.632812 49.894531 53.28125 50.941406 53.882812 51.984375 C 54.382812 52.828125 54.78125 53.921875 55.730469 54.367188 C 56.476562 54.765625 57.375 54.867188 58.226562 54.765625 C 59.222656 54.617188 60.121094 54.121094 60.71875 53.324219 C 61.269531 52.578125 61.667969 51.785156 62.117188 50.988281 C 62.117188 50.988281 64.414062 47.015625 64.414062 47.015625 L 64.066406 47.0625 C 64.066406 47.0625 61.121094 52.183594 61.121094 52.183594 C 60.96875 52.480469 60.769531 52.730469 60.519531 52.976562 C 60.023438 53.472656 59.324219 54.019531 58.675781 53.472656 C 57.875 52.828125 57.476562 51.785156 56.925781 50.890625 C 56.578125 50.292969 56.226562 49.699219 55.929688 49.101562 C 55.078125 47.609375 54.230469 46.121094 53.382812 44.578125 C 53.132812 44.179688 52.882812 43.734375 52.632812 43.285156 Z M 52.632812 43.285156 "/>
<path style=" stroke:none;fill-rule:nonzero;fill:rgb(7.45098%,43.921569%,71.372549%);fill-opacity:1;" d="M 58.675781 62.023438 C 58.675781 62.023438 56.777344 65.203125 56.777344 65.203125 C 56.425781 65.800781 56.078125 66.347656 55.527344 66.742188 C 54.980469 67.191406 54.230469 67.289062 53.582031 67.488281 C 53.035156 67.636719 52.484375 67.789062 51.933594 67.9375 C 51.886719 67.9375 51.886719 67.9375 51.835938 67.9375 L 54.230469 63.761719 L 55.230469 61.824219 L 56.675781 60.980469 L 57.976562 61.476562 Z M 58.675781 62.023438 "/>
<path style=" stroke:none;fill-rule:nonzero;fill:rgb(0%,61.960784%,88.627451%);fill-opacity:1;" d="M 63.316406 71.714844 C 63.265625 71.613281 63.316406 71.515625 63.367188 71.414062 C 63.664062 70.621094 63.964844 69.773438 64.3125 68.980469 C 64.714844 68.035156 64.363281 67.042969 63.914062 66.195312 C 63.316406 65.105469 62.667969 64.058594 62.066406 63.015625 C 61.570312 62.171875 61.167969 61.078125 60.222656 60.632812 C 59.472656 60.234375 58.574219 60.132812 57.726562 60.234375 C 56.726562 60.382812 55.828125 60.878906 55.230469 61.675781 C 54.679688 62.421875 54.28125 63.214844 53.832031 64.011719 C 53.832031 64.011719 51.535156 67.984375 51.535156 67.984375 L 51.886719 67.9375 C 51.886719 67.9375 54.832031 62.816406 54.832031 62.816406 C 54.980469 62.519531 55.179688 62.269531 55.429688 62.023438 C 55.929688 61.527344 56.628906 60.980469 57.277344 61.527344 C 58.074219 62.171875 58.472656 63.214844 59.023438 64.109375 C 59.371094 64.707031 59.722656 65.300781 60.023438 65.898438 C 60.871094 67.390625 61.71875 68.878906 62.566406 70.421875 C 62.816406 70.820312 63.066406 71.265625 63.316406 71.714844 Z M 63.316406 71.714844 "/>
<path style=" stroke:none;fill-rule:nonzero;fill:rgb(90.980392%,27.843137%,22.352941%);fill-opacity:1;" d="M 53.53125 58.195312 C 53.53125 58.195312 50.339844 56.308594 50.339844 56.308594 C 49.738281 55.960938 49.191406 55.613281 48.789062 55.066406 C 48.339844 54.519531 48.242188 53.773438 48.042969 53.125 C 47.890625 52.578125 47.742188 52.035156 47.59375 51.488281 C 47.59375 51.4375 47.59375 51.4375 47.59375 51.386719 L 51.785156 53.773438 L 53.730469 54.765625 L 54.582031 56.207031 L 54.082031 57.5 Z M 53.53125 58.195312 "/>
<path style=" stroke:none;fill-rule:nonzero;fill:rgb(78.039216%,8.627451%,9.411765%);fill-opacity:1;" d="M 53.53125 58.195312 C 53.53125 58.195312 50.339844 56.308594 50.339844 56.308594 C 49.738281 55.960938 49.191406 55.613281 48.789062 55.066406 C 48.339844 54.519531 48.242188 53.773438 48.042969 53.125 C 47.890625 52.578125 47.742188 52.035156 47.59375 51.488281 C 47.59375 51.4375 47.59375 51.4375 47.59375 51.386719 L 51.785156 53.773438 L 53.730469 54.765625 L 54.582031 56.207031 L 54.082031 57.5 Z M 53.53125 58.195312 "/>
<path style=" stroke:none;fill-rule:nonzero;fill:rgb(89.411765%,13.333333%,12.941176%);fill-opacity:1;" d="M 43.75 62.816406 C 43.847656 62.769531 43.949219 62.816406 44.050781 62.867188 C 44.847656 63.164062 45.695312 63.464844 46.496094 63.8125 C 47.441406 64.210938 48.441406 63.859375 49.289062 63.414062 C 50.386719 62.816406 51.4375 62.171875 52.484375 61.574219 C 53.332031 61.078125 54.429688 60.679688 54.878906 59.738281 C 55.28125 58.992188 55.378906 58.097656 55.28125 57.25 C 55.128906 56.257812 54.628906 55.363281 53.832031 54.765625 C 53.082031 54.21875 52.285156 53.824219 51.484375 53.375 C 51.484375 53.375 47.492188 51.089844 47.492188 51.089844 L 47.542969 51.4375 C 47.542969 51.4375 52.683594 54.367188 52.683594 54.367188 C 52.984375 54.519531 53.234375 54.71875 53.484375 54.964844 C 53.980469 55.460938 54.53125 56.15625 53.980469 56.804688 C 53.332031 57.597656 52.285156 57.996094 51.386719 58.542969 C 50.789062 58.890625 50.1875 59.238281 49.589844 59.539062 C 48.09375 60.382812 46.59375 61.226562 45.046875 62.070312 C 44.648438 62.320312 44.199219 62.570312 43.75 62.816406 Z M 43.75 62.816406 "/>
<path style=" stroke:none;fill-rule:nonzero;fill:rgb(82.352941%,25.882353%,10.196078%);fill-opacity:1;" d="M 62.46875 56.753906 C 62.46875 56.753906 65.660156 58.644531 65.660156 58.644531 C 66.261719 58.992188 66.808594 59.339844 67.210938 59.886719 C 67.660156 60.433594 67.757812 61.175781 67.957031 61.824219 C 68.109375 62.371094 68.257812 62.917969 68.40625 63.464844 C 68.40625 63.511719 68.40625 63.511719 68.40625 63.5625 L 64.214844 61.175781 L 62.269531 60.183594 L 61.417969 58.742188 L 61.917969 57.449219 Z M 62.46875 56.753906 "/>
<path style=" stroke:none;fill-rule:nonzero;fill:rgb(91.764706%,35.686275%,15.294118%);fill-opacity:1;" d="M 72.25 52.132812 C 72.152344 52.183594 72.050781 52.132812 71.949219 52.082031 C 71.152344 51.785156 70.304688 51.488281 69.503906 51.140625 C 68.558594 50.742188 67.558594 51.089844 66.710938 51.535156 C 65.613281 52.132812 64.5625 52.777344 63.515625 53.375 C 62.667969 53.871094 61.570312 54.269531 61.121094 55.214844 C 60.71875 55.960938 60.621094 56.855469 60.71875 57.699219 C 60.871094 58.691406 61.371094 59.585938 62.167969 60.183594 C 62.917969 60.730469 63.714844 61.128906 64.515625 61.574219 C 64.515625 61.574219 68.507812 63.859375 68.507812 63.859375 L 68.457031 63.511719 C 68.457031 63.511719 63.316406 60.582031 63.316406 60.582031 C 63.015625 60.433594 62.765625 60.234375 62.515625 59.984375 C 62.019531 59.488281 61.46875 58.792969 62.019531 58.144531 C 62.667969 57.351562 63.714844 56.953125 64.613281 56.40625 C 65.210938 56.058594 65.8125 55.710938 66.410156 55.414062 C 67.90625 54.566406 69.40625 53.722656 70.953125 52.878906 C 71.351562 52.628906 71.800781 52.382812 72.25 52.132812 Z M 72.25 52.132812 "/>
<path style=" stroke:none;fill-rule:nonzero;fill:rgb(0%,0%,0%);fill-opacity:1;" d="M 103.796875 111.074219 C 103.84375 112.316406 103.894531 113.558594 103.996094 114.949219 C 100.003906 114.949219 96.160156 114.949219 92.015625 114.949219 C 92.015625 113.707031 92.015625 112.414062 92.015625 111.125 L 91.964844 111.171875 C 93.265625 111.171875 94.5625 111.171875 95.808594 111.171875 C 95.808594 109.632812 95.808594 108.488281 95.808594 107.148438 C 94.410156 107.148438 93.164062 107.148438 91.964844 107.148438 L 92.015625 107.199219 C 92.015625 105.953125 92.015625 104.761719 92.015625 103.371094 C 89.371094 103.371094 86.824219 103.371094 84.128906 103.371094 C 84.078125 104.515625 83.980469 105.707031 83.878906 107.148438 C 82.53125 107.148438 81.234375 107.148438 79.988281 107.148438 L 80.035156 107.199219 C 80.035156 105.953125 80.035156 104.761719 80.035156 103.320312 C 78.6875 103.222656 77.492188 103.171875 76.144531 103.121094 C 76.144531 100.539062 76.144531 98.054688 76.144531 95.371094 C 77.339844 95.320312 78.488281 95.269531 79.789062 95.21875 C 79.789062 94.027344 79.789062 92.835938 79.789062 91.445312 C 78.6875 91.394531 77.492188 91.292969 76.042969 91.246094 C 76.042969 89.902344 76.042969 88.609375 76.042969 87.320312 L 75.992188 87.367188 C 77.292969 87.367188 78.589844 87.367188 80.035156 87.367188 C 80.035156 84.4375 80.035156 81.902344 80.035156 79.367188 L 79.988281 79.417969 C 82.53125 79.417969 85.078125 79.417969 87.921875 79.417969 C 87.921875 76.734375 87.921875 74.25 87.921875 71.464844 C 89.46875 71.464844 90.769531 71.464844 92.066406 71.464844 C 92.066406 71.464844 92.015625 71.414062 92.015625 71.414062 C 92.015625 72.707031 92.015625 74 92.015625 75.441406 C 93.613281 75.441406 94.859375 75.441406 96.058594 75.441406 L 96.007812 75.390625 C 96.007812 76.632812 96.007812 77.875 96.007812 79.367188 C 98.703125 79.367188 101.25 79.367188 103.894531 79.367188 C 103.894531 80.757812 103.894531 81.902344 103.894531 83.292969 C 102.796875 83.34375 101.597656 83.441406 100.203125 83.542969 C 100.203125 84.734375 100.203125 85.925781 100.203125 87.320312 C 101.398438 87.367188 102.597656 87.46875 103.894531 87.515625 C 103.894531 88.757812 103.894531 89.902344 103.894531 91.292969 C 102.699219 91.34375 101.5 91.394531 100.050781 91.492188 C 100.050781 94.078125 100.050781 96.613281 100.050781 99.296875 C 98.65625 99.296875 97.507812 99.296875 96.207031 99.296875 C 96.207031 100.636719 96.207031 101.832031 96.207031 103.222656 C 97.355469 103.320312 98.554688 103.371094 100.003906 103.46875 C 100.003906 106.054688 100.003906 108.589844 100.003906 111.273438 C 101.5 111.273438 102.699219 111.273438 103.945312 111.273438 C 103.84375 111.125 103.796875 111.074219 103.796875 111.074219 Z M 84.078125 83.441406 C 84.078125 87.515625 84.078125 91.246094 84.078125 95.121094 C 88.074219 95.121094 91.917969 95.121094 95.757812 95.121094 C 95.757812 91.144531 95.757812 87.320312 95.757812 83.441406 C 91.816406 83.441406 88.023438 83.441406 84.078125 83.441406 Z M 84.078125 83.441406 "/>
<path style=" stroke:none;fill-rule:nonzero;fill:rgb(0%,0%,0%);fill-opacity:1;" d="M 79.988281 47.609375 C 79.988281 46.367188 79.988281 45.175781 79.988281 43.734375 C 78.640625 43.632812 77.441406 43.585938 76.09375 43.484375 C 76.09375 40.902344 76.09375 38.367188 76.09375 35.683594 C 77.339844 35.683594 78.441406 35.683594 79.886719 35.683594 C 79.886719 28.972656 79.886719 22.363281 79.886719 15.804688 C 79.886719 15.804688 79.835938 15.902344 79.835938 15.902344 C 81.085938 15.851562 82.332031 15.804688 83.832031 15.703125 C 83.832031 22.3125 83.832031 28.824219 83.832031 35.683594 C 85.378906 35.683594 86.675781 35.683594 87.972656 35.683594 L 87.921875 35.632812 C 87.921875 36.875 87.921875 38.066406 87.921875 39.507812 C 89.269531 39.609375 90.46875 39.660156 91.917969 39.707031 C 91.917969 43.585938 91.917969 47.410156 91.917969 51.585938 C 93.414062 51.585938 94.710938 51.585938 96.007812 51.585938 L 95.960938 51.535156 C 95.960938 54.070312 95.960938 56.65625 95.960938 59.339844 C 93.3125 59.339844 90.816406 59.339844 88.023438 59.339844 C 88.023438 54.171875 88.023438 49 88.023438 43.734375 C 86.625 43.734375 85.527344 43.734375 84.128906 43.734375 C 84.128906 44.875 84.128906 46.070312 84.128906 47.558594 C 82.582031 47.558594 81.285156 47.558594 79.988281 47.558594 Z M 79.988281 47.609375 "/>
<path style=" stroke:none;fill-rule:nonzero;fill:rgb(0%,0%,0%);fill-opacity:1;" d="M 16.097656 79.417969 C 16.097656 78.074219 16.097656 76.734375 16.097656 75.390625 L 16.046875 75.441406 C 17.296875 75.441406 18.492188 75.441406 20.039062 75.441406 C 20.039062 71.367188 20.039062 67.441406 20.039062 63.511719 C 20.039062 63.511719 19.992188 63.613281 19.992188 63.613281 C 25.230469 63.613281 30.523438 63.613281 36.0625 63.613281 C 36.0625 64.90625 36.0625 66.195312 36.0625 67.488281 L 36.113281 67.441406 C 32.167969 67.441406 28.226562 67.441406 24.234375 67.441406 C 24.234375 68.929688 24.234375 70.125 24.234375 71.367188 C 25.582031 71.414062 26.777344 71.515625 28.125 71.5625 C 28.125 73.003906 28.125 74.199219 28.125 75.441406 C 26.828125 75.441406 25.53125 75.441406 24.234375 75.441406 C 24.234375 76.882812 24.234375 78.074219 24.234375 79.21875 C 25.582031 79.21875 26.777344 79.21875 28.027344 79.21875 C 28.027344 77.828125 28.027344 76.582031 28.027344 75.390625 C 29.375 75.441406 30.722656 75.441406 32.070312 75.492188 L 32.019531 75.441406 C 32.019531 76.734375 32.019531 78.023438 32.019531 79.464844 C 33.617188 79.464844 34.863281 79.464844 36.0625 79.464844 L 36.011719 79.417969 C 36.011719 80.707031 36.011719 82 36.011719 83.34375 C 37.558594 83.441406 38.757812 83.492188 40.007812 83.589844 C 40.007812 86.375 40.007812 88.910156 40.007812 91.445312 L 40.054688 91.394531 C 37.511719 91.394531 34.914062 91.394531 32.070312 91.394531 C 32.070312 88.757812 32.070312 86.273438 32.070312 83.542969 C 28.027344 83.542969 24.234375 83.542969 20.191406 83.542969 C 20.089844 82.199219 20.039062 81.007812 19.941406 79.417969 C 18.59375 79.417969 17.34375 79.417969 16.046875 79.417969 Z M 16.097656 79.417969 "/>
<path style=" stroke:none;fill-rule:nonzero;fill:rgb(0%,0%,0%);fill-opacity:1;" d="M 68.007812 11.730469 C 66.761719 11.730469 65.511719 11.730469 63.964844 11.730469 C 63.964844 15.851562 63.964844 19.78125 63.964844 23.753906 L 64.015625 23.707031 C 62.71875 23.707031 61.417969 23.707031 59.972656 23.707031 C 59.972656 25.296875 59.972656 26.539062 59.972656 27.730469 L 60.023438 27.679688 C 58.675781 27.679688 57.324219 27.679688 55.976562 27.679688 L 56.027344 27.730469 C 56.027344 23.804688 56.027344 19.878906 56.027344 15.753906 C 53.082031 15.753906 50.539062 15.753906 47.992188 15.753906 L 48.042969 15.804688 C 48.042969 14.5625 48.042969 13.367188 48.042969 11.925781 C 49.289062 11.878906 50.488281 11.777344 51.886719 11.730469 C 51.933594 10.484375 52.035156 9.34375 52.136719 7.800781 C 53.484375 7.800781 54.78125 7.800781 56.027344 7.800781 C 56.027344 9.09375 56.027344 10.386719 56.027344 11.679688 C 57.476562 11.679688 58.675781 11.679688 59.820312 11.679688 C 59.820312 10.335938 59.820312 9.144531 59.820312 7.902344 C 58.425781 7.902344 57.175781 7.902344 55.976562 7.902344 C 55.976562 5.367188 55.976562 2.78125 55.976562 0.0976562 C 60.023438 0.0976562 63.863281 0.0976562 67.957031 0.0976562 C 67.957031 4.027344 67.957031 7.953125 67.957031 11.878906 Z M 68.007812 11.730469 "/>
<path style=" stroke:none;fill-rule:nonzero;fill:rgb(0%,0%,0%);fill-opacity:1;" d="M 100.050781 63.5625 C 100.003906 62.320312 99.953125 61.078125 99.851562 59.585938 C 102.496094 59.585938 105.042969 59.585938 107.839844 59.585938 C 107.839844 56.804688 107.839844 54.269531 107.839844 51.585938 C 109.234375 51.585938 110.382812 51.585938 111.78125 51.585938 C 111.78125 50.246094 111.78125 49.050781 111.78125 47.660156 C 113.230469 47.660156 114.425781 47.660156 115.773438 47.660156 C 115.773438 50.195312 115.773438 52.730469 115.773438 55.414062 C 114.527344 55.414062 113.378906 55.414062 112.082031 55.414062 C 112.082031 56.753906 112.082031 57.949219 112.082031 59.339844 C 113.230469 59.386719 114.378906 59.4375 115.726562 59.539062 C 115.726562 62.023438 115.726562 64.558594 115.726562 67.289062 C 114.578125 67.339844 113.378906 67.441406 112.082031 67.539062 C 112.082031 68.730469 112.082031 69.875 112.082031 71.265625 C 113.179688 71.316406 114.425781 71.414062 115.773438 71.515625 C 115.773438 74.050781 115.773438 76.582031 115.773438 79.21875 C 113.277344 79.21875 110.832031 79.21875 108.089844 79.21875 C 108.089844 75.441406 108.089844 71.613281 108.089844 67.589844 C 106.640625 67.488281 105.441406 67.390625 104.09375 67.339844 C 104.046875 66.148438 103.996094 65.003906 103.894531 63.511719 C 102.597656 63.511719 101.351562 63.511719 100.050781 63.511719 C 99.953125 63.511719 100.050781 63.5625 100.050781 63.5625 Z M 100.050781 63.5625 "/>
<path style=" stroke:none;fill-rule:nonzero;fill:rgb(0%,0%,0%);fill-opacity:1;" d="M 36.0625 23.753906 C 36.0625 22.511719 36.0625 21.320312 36.0625 19.878906 C 34.714844 19.78125 33.515625 19.730469 32.167969 19.679688 C 32.167969 13.121094 32.167969 6.660156 32.167969 0.0507812 C 33.417969 0.0507812 34.566406 0.0507812 35.964844 0.0507812 C 35.964844 1.242188 35.964844 2.386719 35.964844 3.828125 C 37.410156 3.828125 38.707031 3.828125 39.957031 3.828125 C 39.957031 3.828125 39.855469 3.777344 39.855469 3.777344 C 39.90625 5.019531 39.957031 6.210938 40.054688 7.703125 C 38.757812 7.800781 37.558594 7.902344 36.210938 8 C 36.210938 10.484375 36.210938 13.019531 36.210938 15.65625 C 37.359375 15.65625 38.558594 15.65625 39.90625 15.65625 C 39.957031 14.511719 40.007812 13.367188 40.105469 12.027344 C 41.304688 12.027344 42.453125 12.027344 43.898438 12.027344 C 43.898438 13.121094 43.898438 14.3125 43.898438 15.851562 C 45.445312 15.851562 46.746094 15.851562 48.042969 15.851562 C 48.042969 15.851562 47.992188 15.804688 47.992188 15.804688 C 47.992188 17.097656 47.992188 18.386719 47.992188 19.730469 C 49.539062 19.828125 50.738281 19.878906 51.984375 19.976562 C 51.984375 22.761719 51.984375 25.296875 51.984375 27.832031 L 52.035156 27.78125 C 50.6875 27.78125 49.339844 27.832031 47.992188 27.832031 C 47.992188 26.539062 47.992188 25.246094 47.992188 23.855469 C 46.496094 23.855469 45.246094 23.855469 44 23.855469 C 44 22.5625 44 21.269531 44 20.027344 C 42.550781 20.027344 41.355469 20.027344 40.054688 20.027344 C 40.054688 21.417969 40.054688 22.660156 40.054688 23.855469 C 38.707031 23.855469 37.359375 23.804688 36.011719 23.804688 Z M 36.0625 23.753906 "/>
<path style=" stroke:none;fill-rule:nonzero;fill:rgb(0%,0%,0%);fill-opacity:1;" d="M 12.054688 43.535156 C 12.105469 48.804688 12.105469 54.121094 12.15625 59.386719 C 12.15625 59.386719 12.203125 59.289062 12.203125 59.289062 C 10.957031 59.339844 9.707031 59.4375 8.210938 59.539062 C 8.160156 60.679688 8.0625 61.875 7.960938 63.265625 C 6.765625 63.265625 5.566406 63.265625 4.167969 63.265625 C 4.117188 62.070312 4.019531 60.878906 3.917969 59.539062 C 2.671875 59.539062 1.523438 59.539062 0.226562 59.539062 C 0.226562 52.878906 0.226562 46.417969 0.226562 39.609375 C 1.472656 39.609375 2.769531 39.609375 4.070312 39.609375 L 4.019531 39.558594 C 4.019531 40.851562 4.019531 42.144531 4.019531 43.585938 C 6.964844 43.585938 9.507812 43.585938 12.054688 43.585938 Z M 7.960938 47.710938 C 6.613281 47.710938 5.417969 47.710938 4.269531 47.710938 C 4.269531 49.050781 4.269531 50.246094 4.269531 51.386719 C 5.566406 51.386719 6.714844 51.386719 7.960938 51.386719 C 7.960938 50.195312 7.960938 49.050781 7.960938 47.710938 Z M 7.960938 47.710938 "/>
<path style=" stroke:none;fill-rule:nonzero;fill:rgb(0%,0%,0%);fill-opacity:1;" d="M 51.886719 87.46875 C 53.132812 87.417969 54.382812 87.320312 55.878906 87.21875 C 55.878906 83.390625 55.878906 79.566406 55.878906 75.589844 C 57.324219 75.589844 58.523438 75.589844 59.871094 75.589844 C 59.972656 76.78125 60.023438 77.976562 60.121094 79.265625 C 61.371094 79.265625 62.515625 79.265625 63.914062 79.265625 C 63.914062 78.074219 63.914062 76.882812 63.914062 75.539062 C 65.363281 75.539062 66.558594 75.539062 68.007812 75.539062 C 68.007812 79.417969 68.007812 83.292969 68.007812 87.269531 C 69.503906 87.269531 70.703125 87.269531 71.949219 87.269531 C 71.949219 87.269531 71.851562 87.21875 71.851562 87.21875 C 71.902344 88.460938 71.949219 89.703125 72.050781 91.09375 C 65.363281 91.09375 58.824219 91.09375 51.984375 91.09375 C 51.984375 89.804688 51.984375 88.609375 51.984375 87.367188 C 51.933594 87.367188 51.886719 87.46875 51.886719 87.46875 Z M 60.070312 87.121094 C 61.46875 87.121094 62.667969 87.121094 63.863281 87.121094 C 63.863281 85.828125 63.863281 84.683594 63.863281 83.441406 C 62.566406 83.441406 61.371094 83.441406 60.070312 83.441406 C 60.070312 84.734375 60.070312 85.878906 60.070312 87.121094 Z M 60.070312 87.121094 "/>
<path style=" stroke:none;fill-rule:nonzero;fill:rgb(0%,0%,0%);fill-opacity:1;" d="M 115.726562 43.484375 C 114.378906 43.484375 113.277344 43.484375 111.929688 43.484375 C 111.929688 40.902344 111.929688 38.464844 111.929688 35.832031 C 109.234375 35.832031 106.742188 35.832031 104.046875 35.832031 C 103.945312 36.976562 103.894531 38.167969 103.796875 39.507812 C 101.25 39.507812 98.804688 39.507812 96.109375 39.507812 C 96.109375 37.074219 96.109375 34.539062 96.109375 31.855469 C 102.546875 31.855469 109.035156 31.855469 115.726562 31.855469 C 115.726562 35.632812 115.726562 39.460938 115.726562 43.484375 Z M 115.726562 43.484375 "/>
<path style=" stroke:none;fill-rule:nonzero;fill:rgb(0%,0%,0%);fill-opacity:1;" d="M 63.964844 27.632812 C 63.964844 30.167969 63.964844 32.75 63.964844 35.484375 C 62.667969 35.582031 61.46875 35.632812 60.121094 35.734375 C 60.023438 36.976562 59.972656 38.167969 59.921875 39.460938 C 57.324219 39.460938 54.878906 39.460938 52.183594 39.460938 C 52.136719 38.316406 52.035156 37.125 51.933594 35.582031 C 50.585938 35.582031 49.289062 35.582031 47.992188 35.582031 L 48.042969 35.632812 C 48.042969 34.292969 47.992188 32.949219 47.992188 31.609375 C 49.289062 31.609375 50.585938 31.609375 52.035156 31.609375 C 52.035156 30.117188 52.035156 28.875 52.035156 27.632812 L 51.984375 27.679688 C 53.332031 27.679688 54.679688 27.679688 56.027344 27.679688 L 55.976562 27.632812 C 55.976562 28.925781 55.976562 30.214844 55.976562 31.457031 C 57.527344 31.457031 58.675781 31.457031 60.023438 31.457031 C 60.023438 30.066406 60.023438 28.824219 60.023438 27.632812 L 59.972656 27.679688 C 61.320312 27.679688 62.667969 27.679688 64.015625 27.679688 Z M 63.964844 27.632812 "/>
<path style=" stroke:none;fill-rule:nonzero;fill:rgb(0%,0%,0%);fill-opacity:1;" d="M 108.039062 83.441406 C 110.582031 83.441406 113.078125 83.441406 115.726562 83.441406 C 115.726562 88.5625 115.726562 93.730469 115.726562 99.046875 C 111.929688 99.046875 108.089844 99.046875 104.09375 99.046875 C 104.09375 97.855469 104.09375 96.660156 104.09375 95.320312 C 106.640625 95.320312 109.085938 95.320312 111.730469 95.320312 C 111.730469 93.976562 111.730469 92.785156 111.730469 91.394531 C 110.582031 91.34375 109.386719 91.246094 108.089844 91.195312 C 108.039062 88.609375 108.039062 86.074219 108.039062 83.441406 Z M 108.039062 83.441406 "/>
<path style=" stroke:none;fill-rule:nonzero;fill:rgb(0%,0%,0%);fill-opacity:1;" d="M 52.136719 103.320312 C 52.136719 106.054688 52.136719 108.488281 52.136719 111.125 C 53.382812 111.125 54.53125 111.125 55.828125 111.125 C 55.828125 112.464844 55.828125 113.65625 55.828125 115 C 53.332031 115 50.789062 115 48.140625 115 C 48.140625 109.832031 48.140625 104.710938 48.140625 99.34375 C 49.289062 99.296875 50.488281 99.195312 51.886719 99.148438 C 51.984375 97.902344 52.035156 96.710938 52.136719 95.417969 C 53.332031 95.417969 54.480469 95.417969 55.828125 95.417969 C 55.828125 97.855469 55.828125 100.390625 55.828125 103.121094 C 54.679688 103.171875 53.484375 103.222656 52.136719 103.320312 Z M 52.136719 103.320312 "/>
<path style=" stroke:none;fill-rule:nonzero;fill:rgb(0%,0%,0%);fill-opacity:1;" d="M 67.90625 11.828125 C 71.902344 11.828125 75.945312 11.828125 79.9375 11.828125 L 79.886719 11.777344 C 79.886719 13.167969 79.835938 14.511719 79.835938 15.902344 C 79.835938 15.902344 79.886719 15.804688 79.886719 15.804688 C 78.640625 15.804688 77.441406 15.804688 75.945312 15.804688 C 75.945312 19.78125 75.945312 23.605469 75.945312 27.53125 C 74.546875 27.53125 73.449219 27.53125 72.050781 27.53125 C 72.050781 25.097656 72.050781 22.5625 72.050781 19.828125 C 70.601562 19.730469 69.40625 19.679688 67.957031 19.582031 C 67.957031 16.898438 67.957031 14.3125 67.957031 11.679688 C 68.007812 11.730469 67.90625 11.828125 67.90625 11.828125 Z M 67.90625 11.828125 "/>
<path style=" stroke:none;fill-rule:nonzero;fill:rgb(0%,0%,0%);fill-opacity:1;" d="M 24.183594 43.683594 C 24.183594 42.390625 24.183594 41.101562 24.183594 39.660156 C 25.382812 39.660156 26.53125 39.660156 27.828125 39.660156 C 27.828125 38.316406 27.828125 37.125 27.828125 35.734375 C 26.730469 35.683594 25.53125 35.582031 24.183594 35.535156 C 24.183594 34.292969 24.183594 33.097656 24.183594 31.707031 C 26.828125 31.707031 29.425781 31.707031 32.070312 31.707031 L 32.019531 31.65625 C 32.019531 32.949219 32.019531 34.242188 32.019531 35.683594 C 33.617188 35.683594 34.863281 35.683594 36.0625 35.683594 L 36.011719 35.632812 C 36.011719 38.167969 36.011719 40.703125 36.011719 43.683594 C 32.019531 43.683594 28.078125 43.683594 24.132812 43.683594 C 24.082031 43.632812 24.183594 43.683594 24.183594 43.683594 Z M 24.183594 43.683594 "/>
<path style=" stroke:none;fill-rule:nonzero;fill:rgb(0%,0%,0%);fill-opacity:1;" d="M 79.9375 107.148438 C 79.9375 109.683594 79.9375 112.265625 79.9375 115 C 77.292969 115 74.796875 115 72.050781 115 C 72.050781 113.855469 72.050781 112.714844 72.050781 111.222656 C 70.601562 111.222656 69.304688 111.222656 68.007812 111.222656 C 68.007812 111.222656 68.109375 111.273438 68.109375 111.273438 C 68.109375 107.347656 68.109375 103.371094 68.109375 99.34375 C 69.355469 99.34375 70.453125 99.34375 71.851562 99.34375 C 71.851562 101.832031 71.851562 104.363281 71.851562 107.199219 C 74.746094 107.199219 77.339844 107.199219 79.988281 107.199219 C 79.988281 107.246094 79.9375 107.148438 79.9375 107.148438 Z M 79.9375 107.148438 "/>
<path style=" stroke:none;fill-rule:nonzero;fill:rgb(0%,0%,0%);fill-opacity:1;" d="M 36.011719 67.488281 C 37.261719 67.488281 38.457031 67.488281 39.957031 67.488281 C 39.957031 70.074219 39.957031 72.558594 39.957031 75.242188 C 41.355469 75.339844 42.550781 75.390625 44 75.492188 C 44 76.832031 44 78.125 44 79.417969 C 44 79.417969 44.050781 79.367188 44.050781 79.367188 C 41.355469 79.367188 38.660156 79.367188 36.011719 79.367188 L 36.0625 79.417969 C 36.0625 78.125 36.0625 76.832031 36.0625 75.390625 C 34.464844 75.390625 33.21875 75.390625 32.019531 75.390625 L 32.070312 75.441406 C 32.070312 74.148438 32.070312 72.855469 32.070312 71.515625 C 33.515625 71.414062 34.714844 71.367188 36.0625 71.316406 C 36.0625 69.875 36.0625 68.632812 36.0625 67.441406 Z M 36.011719 67.488281 "/>
<path style=" stroke:none;fill-rule:nonzero;fill:rgb(0%,0%,0%);fill-opacity:1;" d="M 28.027344 55.460938 C 28.027344 56.703125 28.027344 57.949219 28.027344 59.4375 C 25.332031 59.4375 22.6875 59.4375 20.039062 59.4375 L 20.089844 59.488281 C 20.089844 58.246094 20.089844 57.050781 20.089844 55.613281 C 18.742188 55.5625 17.546875 55.460938 16.199219 55.414062 C 16.199219 52.828125 16.199219 50.34375 16.199219 47.609375 C 17.496094 47.609375 18.792969 47.609375 20.089844 47.609375 C 20.089844 47.609375 20.039062 47.558594 20.039062 47.558594 C 20.039062 48.851562 20.039062 50.144531 20.039062 51.585938 C 21.636719 51.585938 22.886719 51.585938 24.082031 51.585938 L 24.035156 51.535156 C 24.035156 52.828125 24.035156 54.121094 24.035156 55.5625 C 25.632812 55.5625 26.878906 55.5625 28.078125 55.5625 Z M 28.027344 55.460938 "/>
<path style=" stroke:none;fill-rule:nonzero;fill:rgb(0%,0%,0%);fill-opacity:1;" d="M 79.988281 11.828125 C 79.988281 10.585938 79.988281 9.394531 79.988281 7.902344 C 77.339844 7.902344 74.796875 7.902344 72.152344 7.902344 C 72.152344 6.460938 72.152344 5.316406 72.152344 3.875 C 74.695312 3.875 77.242188 3.875 79.9375 3.875 C 79.9375 2.484375 79.9375 1.390625 79.9375 0.0507812 C 81.285156 0.0507812 82.484375 0.0507812 83.832031 0.0507812 C 83.832031 3.828125 83.832031 7.652344 83.832031 11.777344 C 82.53125 11.777344 81.234375 11.777344 79.9375 11.777344 C 79.886719 11.730469 79.988281 11.828125 79.988281 11.828125 Z M 79.988281 11.828125 "/>
<path style=" stroke:none;fill-rule:nonzero;fill:rgb(0%,0%,0%);fill-opacity:1;" d="M 44 91.246094 C 44 93.777344 44 96.363281 44 99.046875 C 40.007812 99.046875 36.164062 99.046875 32.167969 99.046875 C 32.167969 97.855469 32.167969 96.761719 32.167969 95.320312 C 34.617188 95.320312 37.160156 95.320312 40.054688 95.320312 C 40.054688 93.777344 40.054688 92.488281 40.054688 91.195312 C 40.054688 91.195312 40.007812 91.246094 40.007812 91.246094 C 41.355469 91.246094 42.703125 91.246094 44.050781 91.246094 Z M 44 91.246094 "/>
<path style=" stroke:none;fill-rule:nonzero;fill:rgb(0%,0%,0%);fill-opacity:1;" d="M 35.964844 51.488281 C 35.964844 52.730469 35.964844 53.921875 35.964844 55.363281 C 37.3125 55.460938 38.507812 55.511719 39.855469 55.613281 C 39.855469 56.902344 39.855469 58.046875 39.855469 59.386719 C 37.3125 59.386719 34.816406 59.386719 32.121094 59.386719 C 32.070312 58.195312 31.96875 57.003906 31.871094 55.511719 C 30.523438 55.511719 29.226562 55.511719 27.925781 55.511719 C 27.925781 55.511719 27.976562 55.5625 27.976562 55.5625 C 27.976562 54.21875 27.976562 52.878906 27.976562 51.535156 L 27.925781 51.585938 C 30.621094 51.585938 33.316406 51.585938 35.964844 51.585938 Z M 35.964844 51.488281 "/>
<path style=" stroke:none;fill-rule:nonzero;fill:rgb(0%,0%,0%);fill-opacity:1;" d="M 107.886719 111.222656 C 109.136719 111.222656 110.335938 111.222656 111.832031 111.222656 C 111.832031 108.539062 111.832031 106.003906 111.832031 103.371094 C 113.277344 103.371094 114.476562 103.371094 115.773438 103.371094 C 115.773438 107.246094 115.773438 111.023438 115.773438 114.949219 C 113.277344 114.949219 110.734375 114.949219 107.9375 114.949219 C 107.9375 113.707031 107.9375 112.414062 107.9375 111.125 Z M 107.886719 111.222656 "/>
<path style=" stroke:none;fill-rule:nonzero;fill:rgb(0%,0%,0%);fill-opacity:1;" d="M 4.117188 39.660156 C 4.117188 37.125 4.117188 34.589844 4.117188 31.855469 C 6.714844 31.855469 9.257812 31.855469 12.054688 31.855469 C 12.054688 34.441406 12.054688 37.074219 12.054688 39.660156 C 12.054688 39.660156 12.105469 39.609375 12.105469 39.609375 C 9.410156 39.609375 6.714844 39.609375 4.070312 39.609375 Z M 4.117188 39.660156 "/>
<path style=" stroke:none;fill-rule:nonzero;fill:rgb(0%,0%,0%);fill-opacity:1;" d="M 95.960938 51.585938 C 95.960938 49.050781 95.960938 46.515625 95.960938 43.785156 C 97.207031 43.785156 98.40625 43.785156 99.800781 43.785156 C 99.851562 44.875 99.953125 46.070312 100.003906 47.609375 C 101.351562 47.609375 102.648438 47.609375 103.945312 47.609375 L 103.894531 47.558594 C 103.894531 48.804688 103.894531 50.046875 103.894531 51.535156 C 101.148438 51.535156 98.554688 51.535156 95.910156 51.535156 C 95.859375 51.488281 95.960938 51.585938 95.960938 51.585938 Z M 95.960938 51.585938 "/>
<path style=" stroke:none;fill-rule:nonzero;fill:rgb(0%,0%,0%);fill-opacity:1;" d="M 39.957031 107.148438 C 39.957031 108.390625 39.957031 109.582031 39.957031 110.972656 C 37.359375 110.972656 34.816406 110.972656 32.167969 110.972656 C 32.167969 108.441406 32.167969 105.90625 32.167969 103.320312 C 33.367188 103.320312 34.515625 103.320312 35.914062 103.320312 C 35.914062 104.464844 35.914062 105.65625 35.914062 107.199219 C 37.460938 107.199219 38.757812 107.199219 40.054688 107.199219 Z M 39.957031 107.148438 "/>
<path style=" stroke:none;fill-rule:nonzero;fill:rgb(0%,0%,0%);fill-opacity:1;" d="M 79.835938 51.683594 C 81.085938 51.636719 82.332031 51.585938 83.730469 51.488281 C 83.730469 54.121094 83.730469 56.605469 83.730469 59.289062 C 81.285156 59.289062 78.789062 59.289062 76.09375 59.289062 C 76.09375 58.097656 76.09375 56.953125 76.09375 55.5625 C 77.292969 55.5625 78.390625 55.5625 79.886719 55.5625 C 79.886719 54.121094 79.886719 52.828125 79.886719 51.585938 C 79.886719 51.585938 79.835938 51.683594 79.835938 51.683594 Z M 79.835938 51.683594 "/>
<path style=" stroke:none;fill-rule:nonzero;fill:rgb(0%,0%,0%);fill-opacity:1;" d="M 16.046875 79.316406 C 16.046875 80.558594 16.046875 81.753906 16.046875 83.195312 C 13.453125 83.195312 10.90625 83.195312 8.113281 83.195312 C 8.113281 81.902344 8.113281 80.660156 8.113281 79.367188 L 8.0625 79.417969 C 10.757812 79.417969 13.453125 79.417969 16.097656 79.417969 C 16.097656 79.417969 16.046875 79.316406 16.046875 79.316406 Z M 16.046875 79.316406 "/>
<path style=" stroke:none;fill-rule:nonzero;fill:rgb(0%,0%,0%);fill-opacity:1;" d="M 75.992188 87.269531 C 74.597656 87.21875 73.199219 87.21875 71.851562 87.167969 C 71.851562 87.167969 71.949219 87.21875 71.949219 87.21875 C 71.949219 84.683594 71.949219 82.148438 71.949219 79.367188 C 73.449219 79.367188 74.746094 79.367188 76.042969 79.367188 L 75.992188 79.316406 C 75.992188 82 75.992188 84.683594 75.992188 87.320312 Z M 75.992188 87.269531 "/>
<path style=" stroke:none;fill-rule:nonzero;fill:rgb(0%,0%,0%);fill-opacity:1;" d="M 16.097656 39.660156 C 16.097656 37.125 16.097656 34.589844 16.097656 31.855469 C 17.34375 31.855469 18.542969 31.855469 19.890625 31.855469 C 19.890625 34.292969 19.890625 36.824219 19.890625 39.558594 C 18.59375 39.558594 17.296875 39.558594 16.046875 39.558594 Z M 16.097656 39.660156 "/>
<path style=" stroke:none;fill-rule:nonzero;fill:rgb(0%,0%,0%);fill-opacity:1;" d="M 32.070312 31.707031 C 32.070312 29.171875 32.070312 26.589844 32.070312 23.753906 C 33.46875 23.753906 34.765625 23.753906 36.0625 23.753906 C 36.0625 23.753906 36.011719 23.707031 36.011719 23.707031 C 36.011719 26.390625 36.011719 29.074219 36.011719 31.707031 L 36.0625 31.65625 C 34.714844 31.65625 33.367188 31.65625 32.019531 31.65625 Z M 32.070312 31.707031 "/>
<path style=" stroke:none;fill-rule:nonzero;fill:rgb(0%,0%,0%);fill-opacity:1;" d="M 20.039062 59.4375 C 19.992188 60.828125 19.992188 62.222656 19.941406 63.613281 C 19.941406 63.613281 19.992188 63.511719 19.992188 63.511719 C 17.445312 63.511719 14.949219 63.511719 12.15625 63.511719 C 12.15625 62.023438 12.15625 60.679688 12.15625 59.339844 C 12.15625 59.339844 12.105469 59.4375 12.105469 59.4375 C 14.75 59.488281 17.445312 59.488281 20.089844 59.539062 C 20.089844 59.539062 20.039062 59.4375 20.039062 59.4375 Z M 20.039062 59.4375 "/>
<path style=" stroke:none;fill-rule:nonzero;fill:rgb(0%,0%,0%);fill-opacity:1;" d="M 47.992188 35.582031 C 47.992188 36.824219 47.992188 38.019531 47.992188 39.410156 C 45.398438 39.410156 42.851562 39.410156 40.054688 39.410156 C 40.054688 38.117188 40.054688 36.824219 40.054688 35.582031 L 40.007812 35.632812 C 42.703125 35.632812 45.398438 35.632812 48.042969 35.632812 Z M 47.992188 35.582031 "/>
<path style=" stroke:none;fill-rule:nonzero;fill:rgb(0%,0%,0%);fill-opacity:1;" d="M 3.96875 79.265625 C 3.96875 80.558594 3.96875 81.851562 3.96875 83.242188 C 2.769531 83.242188 1.621094 83.242188 0.324219 83.242188 C 0.324219 82.101562 0.324219 80.957031 0.324219 79.316406 C 1.523438 79.316406 2.769531 79.316406 4.070312 79.316406 C 4.019531 79.316406 3.96875 79.265625 3.96875 79.265625 Z M 3.96875 79.265625 "/>
<path style=" stroke:none;fill-rule:nonzero;fill:rgb(0%,0%,0%);fill-opacity:1;" d="M 63.964844 23.753906 C 65.210938 23.753906 66.410156 23.753906 67.808594 23.753906 C 67.808594 25.046875 67.808594 26.191406 67.808594 27.679688 C 66.511719 27.679688 65.261719 27.679688 63.964844 27.679688 C 63.964844 27.679688 64.015625 27.730469 64.015625 27.730469 C 64.015625 26.390625 64.015625 25.046875 64.015625 23.707031 Z M 63.964844 23.753906 "/>
<path style=" stroke:none;fill-rule:nonzero;fill:rgb(0%,0%,0%);fill-opacity:1;" d="M 47.941406 79.316406 C 47.941406 80.660156 47.941406 82 47.941406 83.34375 L 47.992188 83.292969 C 46.695312 83.292969 45.398438 83.292969 44 83.292969 C 44 81.800781 44 80.558594 44 79.316406 C 44 79.316406 43.949219 79.367188 43.949219 79.367188 C 45.296875 79.367188 46.644531 79.367188 47.992188 79.367188 Z M 47.941406 79.316406 "/>
<path style=" stroke:none;fill-rule:nonzero;fill:rgb(0%,0%,0%);fill-opacity:1;" d="M 44.050781 3.777344 C 42.652344 3.777344 41.304688 3.726562 39.90625 3.726562 C 39.90625 3.726562 40.007812 3.777344 40.007812 3.777344 C 40.007812 2.585938 40.007812 1.34375 40.007812 0 C 41.402344 0 42.601562 0 44 0 C 44 1.292969 44 2.585938 44 3.875 Z M 44.050781 3.777344 "/>
<path style=" stroke:none;fill-rule:nonzero;fill:rgb(0%,0%,0%);fill-opacity:1;" d="M 63.964844 111.222656 C 65.363281 111.222656 66.710938 111.273438 68.109375 111.273438 C 68.109375 111.273438 68.007812 111.222656 68.007812 111.222656 C 68.007812 112.414062 68.007812 113.65625 68.007812 115 C 66.609375 115 65.414062 115 64.015625 115 C 64.015625 113.707031 64.015625 112.414062 64.015625 111.125 Z M 63.964844 111.222656 "/>
<path style=" stroke:none;fill-rule:nonzero;fill:rgb(0%,0%,0%);fill-opacity:1;" d="M 47.992188 83.390625 C 49.191406 83.390625 50.4375 83.390625 51.933594 83.390625 C 51.933594 84.785156 51.933594 86.125 51.933594 87.46875 C 51.933594 87.46875 51.984375 87.367188 51.984375 87.367188 C 50.636719 87.320312 49.339844 87.320312 47.992188 87.269531 L 48.042969 87.320312 C 48.042969 85.976562 48.042969 84.636719 48.042969 83.292969 Z M 47.992188 83.390625 "/>
<path style=" stroke:none;fill-rule:nonzero;fill:rgb(0%,0%,0%);fill-opacity:1;" d="M 47.992188 87.269531 C 47.992188 88.511719 47.992188 89.804688 47.992188 91.246094 C 46.542969 91.246094 45.246094 91.246094 44 91.246094 C 44 91.246094 44.050781 91.292969 44.050781 91.292969 C 44.050781 90.003906 44.050781 88.710938 44.050781 87.320312 C 45.546875 87.320312 46.792969 87.320312 48.042969 87.320312 Z M 47.992188 87.269531 "/>
<path style=" stroke:none;fill-rule:nonzero;fill:rgb(0%,0%,0%);fill-opacity:1;" d="M 107.9375 111.125 C 106.539062 111.074219 105.144531 111.074219 103.746094 111.023438 C 103.746094 111.023438 103.84375 111.074219 103.84375 111.074219 C 103.84375 109.882812 103.84375 108.640625 103.84375 107.296875 C 105.242188 107.296875 106.441406 107.296875 107.886719 107.296875 C 107.886719 108.589844 107.886719 109.882812 107.886719 111.171875 C 107.886719 111.222656 107.9375 111.125 107.9375 111.125 Z M 107.9375 111.125 "/>
<path style=" stroke:none;fill-rule:nonzero;fill:rgb(0%,0%,0%);fill-opacity:1;" d="M 91.964844 111.125 C 90.71875 111.125 89.519531 111.125 88.121094 111.125 C 88.121094 109.832031 88.121094 108.6875 88.121094 107.199219 C 89.421875 107.199219 90.667969 107.199219 91.964844 107.199219 C 91.964844 107.199219 91.917969 107.148438 91.917969 107.148438 C 91.917969 108.488281 91.917969 109.832031 91.917969 111.171875 Z M 91.964844 111.125 "/>
<path style=" stroke:none;fill-rule:nonzero;fill:rgb(0%,0%,0%);fill-opacity:1;" d="M 64.015625 111.125 C 62.765625 111.125 61.570312 111.125 60.171875 111.125 C 60.171875 109.882812 60.171875 108.6875 60.171875 107.347656 C 61.320312 107.347656 62.515625 107.347656 63.964844 107.347656 C 63.964844 108.640625 63.964844 109.929688 63.964844 111.222656 C 63.964844 111.222656 64.015625 111.125 64.015625 111.125 Z M 64.015625 111.125 "/>
<path style=" stroke:none;fill-rule:nonzero;fill:rgb(0%,0%,0%);fill-opacity:1;" d="M 43.949219 3.875 C 45.195312 3.875 46.394531 3.875 47.792969 3.875 C 47.792969 5.117188 47.792969 6.3125 47.792969 7.652344 C 46.644531 7.652344 45.445312 7.652344 44 7.652344 C 44 6.359375 44 5.070312 44 3.777344 C 44.050781 3.777344 43.949219 3.875 43.949219 3.875 Z M 43.949219 3.875 "/>
<path style=" stroke:none;fill-rule:nonzero;fill:rgb(0%,0%,0%);fill-opacity:1;" d="M 40.054688 107.246094 C 40.054688 106.003906 40.054688 104.8125 40.054688 103.421875 C 41.304688 103.421875 42.5 103.421875 43.847656 103.421875 C 43.847656 104.5625 43.847656 105.757812 43.847656 107.199219 C 42.550781 107.199219 41.253906 107.199219 39.957031 107.199219 C 39.957031 107.148438 40.054688 107.246094 40.054688 107.246094 Z M 40.054688 107.246094 "/>
<path style=" stroke:none;fill-rule:nonzero;fill:rgb(0%,0%,0%);fill-opacity:1;" d="M 60.070312 103.121094 C 60.070312 101.832031 60.070312 100.738281 60.070312 99.445312 C 61.320312 99.445312 62.46875 99.445312 63.816406 99.445312 C 63.816406 100.636719 63.816406 101.832031 63.816406 103.121094 C 62.617188 103.121094 61.46875 103.121094 60.070312 103.121094 Z M 60.070312 103.121094 "/>
<path style=" stroke:none;fill-rule:nonzero;fill:rgb(0%,0%,0%);fill-opacity:1;" d="M 16.046875 39.558594 C 16.046875 40.800781 16.046875 42.09375 16.046875 43.535156 C 14.601562 43.535156 13.300781 43.535156 12.054688 43.535156 C 12.054688 43.535156 12.105469 43.585938 12.105469 43.585938 C 12.105469 42.242188 12.105469 40.902344 12.105469 39.558594 C 12.105469 39.558594 12.054688 39.609375 12.054688 39.609375 C 13.402344 39.609375 14.75 39.609375 16.148438 39.609375 C 16.097656 39.660156 16.046875 39.558594 16.046875 39.558594 Z M 16.046875 39.558594 "/>
<path style=" stroke:none;fill-rule:nonzero;fill:rgb(0%,0%,0%);fill-opacity:1;" d="M 20.089844 47.609375 C 20.089844 46.417969 20.089844 45.175781 20.089844 43.683594 C 21.488281 43.683594 22.835938 43.683594 24.183594 43.683594 C 24.183594 43.683594 24.082031 43.632812 24.082031 43.632812 C 24.035156 44.976562 24.035156 46.269531 23.984375 47.609375 C 23.984375 47.609375 24.035156 47.558594 24.035156 47.558594 C 22.6875 47.558594 21.339844 47.558594 19.992188 47.558594 Z M 20.089844 47.609375 "/>
<path style=" stroke:none;fill-rule:nonzero;fill:rgb(0%,0%,0%);fill-opacity:1;" d="M 103.945312 47.609375 C 103.945312 46.367188 103.945312 45.175781 103.945312 43.785156 C 105.191406 43.785156 106.390625 43.785156 107.738281 43.785156 C 107.738281 44.925781 107.738281 46.121094 107.738281 47.558594 C 106.441406 47.558594 105.144531 47.558594 103.84375 47.558594 C 103.84375 47.511719 103.945312 47.609375 103.945312 47.609375 Z M 103.945312 47.609375 "/>
<path style=" stroke:none;fill-rule:nonzero;fill:rgb(0%,0%,0%);fill-opacity:1;" d="M 71.851562 39.507812 C 70.554688 39.507812 69.457031 39.507812 68.15625 39.507812 C 68.15625 38.265625 68.15625 37.125 68.15625 35.78125 C 69.355469 35.78125 70.554688 35.78125 71.851562 35.78125 C 71.851562 36.976562 71.851562 38.117188 71.851562 39.507812 Z M 71.851562 39.507812 "/>
<path style=" stroke:none;fill-rule:nonzero;fill:rgb(0%,0%,0%);fill-opacity:1;" d="M 24.035156 47.609375 C 25.28125 47.609375 26.578125 47.609375 28.027344 47.609375 C 28.027344 49.050781 28.027344 50.34375 28.027344 51.585938 C 28.027344 51.585938 28.078125 51.535156 28.078125 51.535156 C 26.730469 51.535156 25.382812 51.535156 24.035156 51.535156 L 24.082031 51.585938 C 24.082031 50.246094 24.082031 48.902344 24.082031 47.558594 Z M 24.035156 47.609375 "/>
<path style=" stroke:none;fill-rule:nonzero;fill:rgb(0%,0%,0%);fill-opacity:1;" d="M 36.0625 51.585938 C 36.0625 50.34375 36.0625 49.152344 36.0625 47.757812 C 37.3125 47.757812 38.507812 47.757812 39.855469 47.757812 C 39.855469 48.902344 39.855469 50.09375 39.855469 51.535156 C 38.558594 51.535156 37.261719 51.535156 35.964844 51.535156 C 35.964844 51.488281 36.0625 51.585938 36.0625 51.585938 Z M 36.0625 51.585938 "/>
<path style=" stroke:none;fill-rule:nonzero;fill:rgb(0%,0%,0%);fill-opacity:1;" d="M 79.9375 47.511719 C 79.886719 48.902344 79.886719 50.292969 79.835938 51.683594 C 79.835938 51.683594 79.886719 51.585938 79.886719 51.585938 C 78.6875 51.585938 77.441406 51.585938 76.09375 51.585938 C 76.09375 50.195312 76.09375 49 76.09375 47.558594 C 77.390625 47.558594 78.6875 47.558594 79.988281 47.558594 C 79.988281 47.609375 79.9375 47.511719 79.9375 47.511719 Z M 79.9375 47.511719 "/>
<path style=" stroke:none;fill-rule:nonzero;fill:rgb(0%,0%,0%);fill-opacity:1;" d="M 87.972656 35.683594 C 87.972656 34.441406 87.972656 33.246094 87.972656 31.855469 C 89.222656 31.855469 90.417969 31.855469 91.765625 31.855469 C 91.765625 33 91.765625 34.191406 91.765625 35.632812 C 90.46875 35.632812 89.171875 35.632812 87.875 35.632812 C 87.875 35.582031 87.972656 35.683594 87.972656 35.683594 Z M 87.972656 35.683594 "/>
<path style=" stroke:none;fill-rule:nonzero;fill:rgb(0%,0%,0%);fill-opacity:1;" d="M 40.054688 35.582031 C 38.707031 35.582031 37.359375 35.582031 35.964844 35.582031 C 35.964844 35.582031 36.011719 35.632812 36.011719 35.632812 C 36.011719 34.292969 36.011719 32.949219 36.011719 31.609375 L 35.964844 31.65625 C 37.3125 31.65625 38.660156 31.609375 40.007812 31.609375 C 40.007812 32.949219 39.957031 34.292969 39.957031 35.632812 Z M 40.054688 35.582031 "/>
<path style=" stroke:none;fill-rule:nonzero;fill:rgb(0%,0%,0%);fill-opacity:1;" d="M 91.964844 67.390625 C 90.71875 67.390625 89.519531 67.390625 88.121094 67.390625 C 88.121094 66.148438 88.121094 64.953125 88.121094 63.613281 C 89.269531 63.613281 90.46875 63.613281 91.917969 63.613281 C 91.917969 64.90625 91.917969 66.195312 91.917969 67.441406 Z M 91.964844 67.390625 "/>
<path style=" stroke:none;fill-rule:nonzero;fill:rgb(0%,0%,0%);fill-opacity:1;" d="M 96.058594 67.539062 C 96.058594 66.246094 96.058594 64.953125 96.058594 63.5625 C 97.457031 63.5625 98.753906 63.5625 100.050781 63.5625 C 100.050781 63.5625 99.953125 63.511719 99.953125 63.511719 C 99.953125 64.707031 99.953125 65.898438 99.953125 67.488281 C 98.503906 67.488281 97.207031 67.488281 95.960938 67.488281 C 95.960938 67.488281 96.058594 67.539062 96.058594 67.539062 Z M 96.058594 67.539062 "/>
<path style=" stroke:none;fill-rule:nonzero;fill:rgb(0%,0%,0%);fill-opacity:1;" d="M 4.117188 71.464844 C 4.117188 70.222656 4.117188 69.03125 4.117188 67.636719 C 5.367188 67.636719 6.5625 67.636719 7.910156 67.636719 C 7.910156 68.78125 7.910156 69.972656 7.910156 71.414062 C 6.613281 71.414062 5.316406 71.414062 4.070312 71.414062 Z M 4.117188 71.464844 "/>
<path style=" stroke:none;fill-rule:nonzero;fill:rgb(0%,0%,0%);fill-opacity:1;" d="M 79.886719 67.636719 C 79.886719 68.878906 79.886719 69.972656 79.886719 71.265625 C 78.640625 71.265625 77.441406 71.265625 76.09375 71.265625 C 76.09375 70.074219 76.09375 68.929688 76.09375 67.636719 C 77.242188 67.636719 78.390625 67.636719 79.886719 67.636719 Z M 79.886719 67.636719 "/>
<path style=" stroke:none;fill-rule:nonzero;fill:rgb(0%,0%,0%);fill-opacity:1;" d="M 91.867188 67.488281 C 93.265625 67.539062 94.660156 67.539062 96.058594 67.589844 C 96.058594 67.589844 95.960938 67.539062 95.960938 67.539062 C 95.910156 68.878906 95.910156 70.171875 95.859375 71.515625 L 95.910156 71.464844 C 94.5625 71.464844 93.214844 71.464844 91.867188 71.464844 C 91.867188 71.464844 91.917969 71.515625 91.917969 71.515625 C 91.917969 70.171875 91.917969 68.832031 91.917969 67.441406 C 91.964844 67.390625 91.867188 67.488281 91.867188 67.488281 Z M 91.867188 67.488281 "/>
<path style=" stroke:none;fill-rule:nonzero;fill:rgb(0%,0%,0%);fill-opacity:1;" d="M 4.070312 71.367188 C 4.117188 72.707031 4.117188 74 4.167969 75.339844 C 4.167969 75.339844 4.21875 75.242188 4.21875 75.242188 C 2.921875 75.242188 1.671875 75.242188 0.226562 75.242188 C 0.226562 74 0.226562 72.855469 0.226562 71.414062 C 1.574219 71.414062 2.820312 71.414062 4.117188 71.414062 C 4.117188 71.464844 4.070312 71.367188 4.070312 71.367188 Z M 4.070312 71.367188 "/>
<path style=" stroke:none;fill-rule:nonzero;fill:rgb(0%,0%,0%);fill-opacity:1;" d="M 16.097656 75.339844 C 14.851562 75.339844 13.652344 75.339844 12.253906 75.339844 C 12.253906 74.097656 12.253906 72.90625 12.253906 71.5625 C 13.402344 71.5625 14.601562 71.5625 16.046875 71.5625 C 16.046875 72.855469 16.046875 74.148438 16.046875 75.441406 C 16.046875 75.441406 16.097656 75.339844 16.097656 75.339844 Z M 16.097656 75.339844 "/>
<path style=" stroke:none;fill-rule:nonzero;fill:rgb(0%,0%,0%);fill-opacity:1;" d="M 95.910156 71.464844 C 97.15625 71.464844 98.355469 71.464844 99.753906 71.464844 C 99.753906 72.757812 99.753906 73.898438 99.753906 75.390625 C 98.453125 75.390625 97.207031 75.390625 95.910156 75.390625 C 95.910156 75.390625 95.960938 75.441406 95.960938 75.441406 C 95.960938 74.097656 95.960938 72.757812 95.960938 71.414062 Z M 95.910156 71.464844 "/>
<path style=" stroke:none;fill-rule:nonzero;fill:rgb(0%,0%,0%);fill-opacity:1;" d="M 8.113281 79.316406 C 6.714844 79.265625 5.316406 79.265625 3.917969 79.21875 C 3.917969 79.21875 4.019531 79.265625 4.019531 79.265625 C 4.070312 77.925781 4.117188 76.582031 4.21875 75.191406 C 4.21875 75.191406 4.167969 75.292969 4.167969 75.292969 C 5.367188 75.292969 6.613281 75.292969 8.0625 75.292969 C 8.0625 76.78125 8.0625 78.074219 8.0625 79.367188 C 8.0625 79.417969 8.113281 79.316406 8.113281 79.316406 Z M 8.113281 79.316406 "/>
<path style=" stroke:none;fill-rule:nonzero;fill:rgb(0%,0%,0%);fill-opacity:1;" d="M 48.042969 79.417969 C 48.042969 78.175781 48.042969 76.980469 48.042969 75.589844 C 49.289062 75.589844 50.488281 75.589844 51.835938 75.589844 C 51.835938 76.734375 51.835938 77.925781 51.835938 79.367188 C 50.539062 79.367188 49.238281 79.367188 47.941406 79.367188 C 47.941406 79.316406 48.042969 79.417969 48.042969 79.417969 Z M 48.042969 79.417969 "/>
<path style=" stroke:none;fill-rule:nonzero;fill:rgb(0%,0%,0%);fill-opacity:1;" d="M 75.992188 79.417969 C 75.992188 78.175781 75.992188 76.980469 75.992188 75.589844 C 77.292969 75.589844 78.441406 75.589844 79.9375 75.589844 C 79.9375 76.882812 79.9375 78.125 79.9375 79.417969 C 79.9375 79.417969 79.988281 79.367188 79.988281 79.367188 C 78.640625 79.367188 77.292969 79.367188 75.945312 79.367188 Z M 75.992188 79.417969 "/>
<path style=" stroke:none;fill-rule:nonzero;fill:rgb(0%,0%,0%);fill-opacity:1;" d="M 91.816406 91.195312 C 90.570312 91.195312 89.421875 91.195312 88.121094 91.195312 C 88.121094 90.003906 88.121094 88.808594 88.121094 87.46875 C 89.269531 87.46875 90.46875 87.46875 91.816406 87.46875 C 91.816406 88.660156 91.816406 89.753906 91.816406 91.195312 Z M 91.816406 91.195312 "/>
<path style=" stroke:none;fill-rule:nonzero;fill:rgb(0%,0%,0%);fill-opacity:1;" d="M 48.042969 31.707031 C 45.347656 31.707031 42.652344 31.707031 40.007812 31.707031 C 40.007812 29.023438 40.007812 26.339844 40.007812 23.707031 C 41.355469 23.707031 42.703125 23.707031 44.050781 23.707031 C 44.050781 24.949219 44.050781 26.191406 44.050781 27.679688 C 45.445312 27.679688 46.746094 27.679688 48.042969 27.679688 C 48.042969 28.972656 48.042969 30.363281 48.042969 31.707031 Z M 48.042969 31.707031 "/>
<path style=" stroke:none;fill-rule:nonzero;fill:rgb(0%,0%,0%);fill-opacity:1;" d="M 28.078125 27.183594 C 27.925781 27.183594 27.777344 27.183594 27.628906 27.183594 C 21.789062 27.183594 15.949219 27.183594 10.109375 27.183594 C 9.507812 27.183594 8.910156 27.035156 8.3125 27.136719 C 7.8125 27.183594 7.460938 26.835938 7.011719 26.9375 C 6.914062 26.9375 6.8125 26.886719 6.765625 26.835938 C 6.316406 26.488281 5.816406 26.4375 5.367188 26.191406 C 5.167969 26.089844 5.015625 25.992188 4.816406 25.84375 C 4.617188 25.742188 4.46875 25.644531 4.316406 25.496094 C 4.117188 25.347656 3.96875 25.148438 3.769531 24.949219 C 3.667969 24.847656 3.570312 24.75 3.46875 24.648438 C 3.21875 24.402344 2.921875 24.152344 2.722656 23.855469 C 2.519531 23.65625 2.371094 23.40625 2.273438 23.109375 C 2.121094 22.8125 1.921875 22.5625 1.824219 22.265625 C 1.722656 21.964844 1.523438 21.71875 1.375 21.417969 C 1.273438 21.269531 1.273438 21.070312 1.222656 20.871094 C 1.171875 20.675781 1.074219 20.476562 1.023438 20.277344 C 0.972656 20.027344 0.824219 19.730469 0.875 19.480469 C 0.972656 18.984375 0.824219 18.539062 0.824219 18.039062 C 0.824219 12.175781 0.824219 6.3125 0.824219 0.398438 C 0.824219 0.296875 0.824219 0.148438 0.824219 0 C 0.972656 0 1.125 0 1.222656 0 C 7.113281 0 12.953125 0 18.84375 0 C 19.191406 0 19.589844 0.0507812 19.941406 0.0507812 C 20.339844 0.0507812 20.789062 0.0976562 21.1875 0.0976562 C 21.1875 0.0976562 21.238281 0.0976562 21.238281 0.0976562 C 21.589844 0.449219 22.136719 0.25 22.535156 0.597656 C 22.6875 0.894531 23.035156 0.894531 23.285156 0.992188 C 23.535156 1.09375 23.734375 1.292969 23.933594 1.492188 C 24.234375 1.738281 24.582031 1.886719 24.882812 2.1875 C 25.332031 2.632812 25.878906 2.980469 26.179688 3.527344 C 26.230469 3.628906 26.378906 3.675781 26.480469 3.828125 C 26.578125 3.976562 26.628906 4.125 26.730469 4.273438 C 26.777344 4.375 26.777344 4.570312 26.980469 4.523438 C 26.878906 4.769531 27.128906 4.871094 27.179688 5.019531 C 27.378906 5.515625 27.675781 6.011719 27.777344 6.558594 C 27.925781 7.453125 28.027344 8.347656 28.078125 9.242188 C 28.078125 15.109375 28.078125 21.023438 28.078125 26.886719 C 28.078125 26.9375 28.078125 27.035156 28.078125 27.183594 Z M 22.285156 5.167969 C 22.085938 5.070312 21.988281 4.96875 21.886719 4.921875 C 21.835938 4.871094 21.789062 4.769531 21.6875 4.722656 C 21.339844 4.621094 21.089844 4.375 20.738281 4.324219 C 20.390625 4.273438 20.089844 4.074219 19.792969 4.027344 C 19.292969 3.925781 18.84375 3.875 18.34375 3.875 C 13.953125 3.875 9.558594 3.875 5.167969 3.875 C 4.667969 3.875 4.667969 3.875 4.667969 4.375 C 4.667969 8.796875 4.667969 13.269531 4.667969 17.691406 C 4.667969 18.089844 4.667969 18.539062 4.765625 18.933594 C 4.867188 19.28125 4.917969 19.679688 5.117188 20.027344 C 5.265625 20.328125 5.367188 20.625 5.566406 20.871094 C 5.664062 21.023438 5.714844 21.222656 5.914062 21.320312 C 5.964844 21.371094 5.964844 21.519531 6.015625 21.570312 C 6.265625 21.816406 6.515625 22.066406 6.765625 22.3125 C 6.8125 22.363281 6.863281 22.363281 6.914062 22.414062 C 7.214844 22.5625 7.460938 22.710938 7.8125 22.910156 C 7.761719 22.910156 7.863281 22.859375 7.863281 22.859375 C 8.011719 23.011719 8.210938 23.058594 8.460938 23.109375 C 8.761719 23.160156 9.058594 23.359375 9.359375 23.40625 C 9.707031 23.457031 10.109375 23.40625 10.457031 23.40625 C 14.898438 23.40625 19.292969 23.40625 23.734375 23.40625 C 24.183594 23.40625 24.183594 23.40625 24.183594 22.960938 C 24.183594 18.636719 24.183594 14.261719 24.183594 9.941406 C 24.183594 9.492188 24.132812 9.046875 24.082031 8.597656 C 24.082031 8.449219 24.082031 8.25 24.035156 8.101562 C 24.035156 7.953125 23.984375 7.851562 23.933594 7.703125 C 23.835938 7.453125 23.683594 7.207031 23.535156 6.957031 C 23.386719 6.660156 23.234375 6.410156 22.984375 6.011719 C 23.035156 5.515625 22.285156 5.566406 22.285156 5.167969 Z M 22.285156 5.167969 "/>
<path style=" stroke:none;fill-rule:nonzero;fill:rgb(0%,0%,0%);fill-opacity:1;" d="M 16.746094 7.851562 C 17.394531 7.800781 17.996094 8.050781 18.542969 8.300781 C 18.691406 8.347656 18.792969 8.5 18.84375 8.597656 C 18.992188 8.796875 19.242188 8.796875 19.34375 9.046875 C 19.390625 9.195312 19.589844 9.394531 19.691406 9.589844 C 19.890625 9.789062 20.039062 10.039062 20.039062 10.335938 C 20.039062 10.484375 20.191406 10.683594 20.191406 10.882812 C 20.191406 12.226562 20.242188 13.566406 20.242188 14.910156 C 20.242188 16.351562 20.242188 17.792969 20.242188 19.28125 C 20.242188 19.332031 20.242188 19.382812 20.242188 19.480469 C 20.089844 19.480469 19.992188 19.480469 19.839844 19.480469 C 17.394531 19.480469 14.949219 19.480469 12.554688 19.480469 C 12.15625 19.480469 11.753906 19.480469 11.40625 19.433594 C 11.257812 19.433594 11.105469 19.28125 10.957031 19.234375 C 10.605469 19.332031 10.40625 18.984375 10.109375 18.886719 C 9.910156 18.835938 9.660156 18.585938 9.558594 18.386719 C 9.308594 18.039062 9.011719 17.644531 8.910156 17.246094 C 8.761719 16.796875 8.660156 16.25 8.660156 15.753906 C 8.660156 13.21875 8.660156 10.683594 8.660156 8.148438 C 8.660156 8.050781 8.660156 7.953125 8.660156 7.800781 C 8.761719 7.800781 8.859375 7.800781 8.960938 7.800781 C 11.457031 7.800781 13.953125 7.800781 16.445312 7.800781 C 16.496094 7.753906 16.648438 7.800781 16.746094 7.851562 C 16.648438 7.851562 16.496094 7.800781 16.398438 7.800781 C 13.953125 7.800781 11.503906 7.800781 9.011719 7.800781 C 8.910156 7.800781 8.808594 7.800781 8.710938 7.800781 C 8.710938 7.800781 8.710938 7.851562 8.710938 7.851562 C 8.808594 7.851562 8.960938 7.851562 9.058594 7.851562 C 11.457031 7.851562 13.851562 7.851562 16.246094 7.851562 C 16.445312 7.851562 16.597656 7.851562 16.746094 7.851562 Z M 16.746094 7.851562 "/>
<path style=" stroke:none;fill-rule:nonzero;fill:rgb(0%,0%,0%);fill-opacity:1;" d="M 115.523438 27.382812 C 115.375 27.382812 115.226562 27.382812 115.074219 27.382812 C 109.234375 27.382812 103.394531 27.382812 97.554688 27.382812 C 96.957031 27.382812 96.359375 27.234375 95.757812 27.332031 C 95.261719 27.382812 94.910156 27.035156 94.460938 27.136719 C 94.363281 27.136719 94.261719 27.085938 94.210938 27.035156 C 93.761719 26.6875 93.265625 26.636719 92.816406 26.390625 C 92.613281 26.289062 92.464844 26.191406 92.265625 26.042969 C 92.066406 25.941406 91.917969 25.84375 91.765625 25.695312 C 91.566406 25.542969 91.417969 25.347656 91.21875 25.148438 C 91.117188 25.046875 91.019531 24.949219 90.917969 24.847656 C 90.667969 24.601562 90.367188 24.351562 90.167969 24.054688 C 89.96875 23.855469 89.820312 23.605469 89.71875 23.308594 C 89.570312 23.011719 89.371094 22.761719 89.269531 22.464844 C 89.171875 22.164062 88.972656 21.917969 88.820312 21.617188 C 88.722656 21.46875 88.722656 21.269531 88.671875 21.070312 C 88.621094 20.871094 88.523438 20.675781 88.472656 20.476562 C 88.421875 20.226562 88.273438 19.929688 88.324219 19.679688 C 88.421875 19.183594 88.273438 18.734375 88.273438 18.238281 C 88.273438 12.375 88.273438 6.511719 88.273438 0.597656 C 88.273438 0.496094 88.273438 0.347656 88.273438 0.199219 C 88.421875 0.199219 88.570312 0.199219 88.671875 0.199219 C 94.5625 0.199219 100.402344 0.199219 106.292969 0.199219 C 106.640625 0.199219 107.039062 0.25 107.390625 0.25 C 107.789062 0.25 108.238281 0.296875 108.636719 0.296875 C 108.636719 0.296875 108.6875 0.296875 108.6875 0.296875 C 109.035156 0.644531 109.585938 0.449219 109.984375 0.796875 C 110.183594 0.992188 110.535156 0.945312 110.785156 1.09375 C 111.03125 1.191406 111.234375 1.390625 111.433594 1.589844 C 111.730469 1.839844 112.082031 1.988281 112.378906 2.285156 C 112.828125 2.734375 113.378906 3.082031 113.679688 3.628906 C 113.726562 3.726562 113.878906 3.777344 113.976562 3.925781 C 114.078125 4.074219 114.128906 4.222656 114.226562 4.375 C 114.277344 4.472656 114.277344 4.671875 114.476562 4.621094 C 114.378906 4.871094 114.625 4.96875 114.675781 5.117188 C 114.875 5.617188 115.175781 6.113281 115.277344 6.660156 C 115.425781 7.554688 115.523438 8.449219 115.574219 9.34375 C 115.574219 15.207031 115.574219 21.121094 115.574219 26.984375 C 115.574219 27.136719 115.523438 27.234375 115.523438 27.382812 Z M 109.734375 5.367188 C 109.535156 5.269531 109.4375 5.167969 109.335938 5.117188 C 109.285156 5.070312 109.234375 4.96875 109.136719 4.921875 C 108.785156 4.820312 108.539062 4.570312 108.1875 4.523438 C 107.839844 4.472656 107.539062 4.273438 107.238281 4.222656 C 106.742188 4.125 106.292969 4.074219 105.792969 4.074219 C 101.398438 4.074219 97.007812 4.074219 92.613281 4.074219 C 92.117188 4.074219 92.117188 4.074219 92.117188 4.570312 C 92.117188 8.996094 92.117188 13.46875 92.117188 17.890625 C 92.117188 18.289062 92.117188 18.734375 92.214844 19.132812 C 92.316406 19.480469 92.367188 19.878906 92.566406 20.226562 C 92.714844 20.523438 92.816406 20.824219 93.015625 21.070312 C 93.113281 21.222656 93.164062 21.417969 93.363281 21.519531 C 93.414062 21.570312 93.414062 21.71875 93.464844 21.765625 C 93.714844 22.015625 93.960938 22.265625 94.210938 22.511719 C 94.261719 22.5625 94.3125 22.5625 94.363281 22.613281 C 94.660156 22.761719 94.910156 22.910156 95.261719 23.109375 C 95.210938 23.109375 95.308594 23.058594 95.308594 23.058594 C 95.460938 23.207031 95.660156 23.257812 95.910156 23.308594 C 96.207031 23.359375 96.507812 23.554688 96.808594 23.605469 C 97.15625 23.65625 97.554688 23.605469 97.90625 23.605469 C 102.347656 23.605469 106.742188 23.605469 111.183594 23.605469 C 111.632812 23.605469 111.632812 23.605469 111.632812 23.160156 C 111.632812 18.835938 111.632812 14.460938 111.632812 10.136719 C 111.632812 9.691406 111.582031 9.242188 111.53125 8.796875 C 111.53125 8.648438 111.53125 8.449219 111.480469 8.300781 C 111.480469 8.148438 111.433594 8.050781 111.382812 7.902344 C 111.28125 7.652344 111.132812 7.40625 110.984375 7.15625 C 110.832031 6.859375 110.683594 6.609375 110.433594 6.210938 C 110.535156 5.714844 109.785156 5.765625 109.734375 5.367188 Z M 109.734375 5.367188 "/>
<path style=" stroke:none;fill-rule:nonzero;fill:rgb(0%,0%,0%);fill-opacity:1;" d="M 104.246094 8.050781 C 104.894531 8 105.492188 8.25 106.042969 8.5 C 106.191406 8.546875 106.292969 8.695312 106.339844 8.796875 C 106.492188 8.996094 106.742188 8.996094 106.839844 9.242188 C 106.890625 9.394531 107.089844 9.589844 107.191406 9.789062 C 107.390625 9.988281 107.539062 10.238281 107.539062 10.535156 C 107.539062 10.683594 107.6875 10.882812 107.6875 11.082031 C 107.6875 12.425781 107.738281 13.765625 107.738281 15.109375 C 107.738281 16.550781 107.738281 17.992188 107.738281 19.480469 C 107.738281 19.53125 107.738281 19.582031 107.738281 19.679688 C 107.589844 19.679688 107.488281 19.679688 107.339844 19.679688 C 104.894531 19.679688 102.449219 19.679688 100.050781 19.679688 C 99.652344 19.679688 99.253906 19.679688 98.902344 19.628906 C 98.753906 19.628906 98.605469 19.480469 98.453125 19.433594 C 98.105469 19.53125 97.90625 19.183594 97.605469 19.082031 C 97.40625 19.035156 97.15625 18.785156 97.058594 18.585938 C 96.808594 18.238281 96.507812 17.839844 96.410156 17.445312 C 96.257812 16.996094 96.160156 16.449219 96.160156 15.953125 C 96.160156 13.417969 96.160156 10.882812 96.160156 8.347656 C 96.160156 8.25 96.160156 8.148438 96.160156 8 C 96.257812 8 96.359375 8 96.457031 8 C 98.953125 8 101.449219 8 103.945312 8 C 103.996094 7.953125 104.09375 8 104.246094 8.050781 C 104.144531 8.050781 103.996094 8 103.894531 8 C 101.449219 8 99.003906 8 96.507812 8 C 96.410156 8 96.308594 8 96.207031 8 C 96.207031 8 96.207031 8.050781 96.207031 8.050781 C 96.308594 8.050781 96.457031 8.050781 96.558594 8.050781 C 98.953125 8.050781 101.351562 8.050781 103.746094 8.050781 C 103.894531 8.050781 104.046875 8.050781 104.246094 8.050781 Z M 104.246094 8.050781 "/>
<path style=" stroke:none;fill-rule:nonzero;fill:rgb(0%,0%,0%);fill-opacity:1;" d="M 27.578125 114.851562 C 27.429688 114.851562 27.277344 114.851562 27.128906 114.851562 C 21.289062 114.851562 15.449219 114.851562 9.609375 114.851562 C 9.011719 114.851562 8.410156 114.703125 7.8125 114.800781 C 7.3125 114.851562 6.964844 114.503906 6.515625 114.601562 C 6.414062 114.601562 6.316406 114.550781 6.265625 114.503906 C 5.816406 114.15625 5.316406 114.105469 4.867188 113.855469 C 4.667969 113.757812 4.519531 113.65625 4.316406 113.507812 C 4.117188 113.410156 3.96875 113.308594 3.820312 113.160156 C 3.621094 113.011719 3.46875 112.8125 3.269531 112.613281 C 3.171875 112.515625 3.070312 112.414062 2.96875 112.316406 C 2.722656 112.066406 2.421875 111.820312 2.222656 111.519531 C 2.023438 111.324219 1.871094 111.074219 1.773438 110.777344 C 1.621094 110.476562 1.421875 110.230469 1.324219 109.929688 C 1.222656 109.632812 1.023438 109.382812 0.875 109.085938 C 0.773438 108.9375 0.773438 108.738281 0.722656 108.539062 C 0.675781 108.339844 0.574219 108.140625 0.523438 107.941406 C 0.476562 107.695312 0.324219 107.394531 0.375 107.148438 C 0.476562 106.652344 0.324219 106.203125 0.324219 105.707031 C 0.324219 99.84375 0.324219 93.976562 0.324219 88.0625 C 0.324219 87.964844 0.324219 87.816406 0.324219 87.667969 C 0.476562 87.667969 0.625 87.667969 0.722656 87.667969 C 6.613281 87.667969 12.453125 87.667969 18.34375 87.667969 C 18.691406 87.667969 19.09375 87.714844 19.441406 87.714844 C 19.839844 87.714844 20.289062 87.765625 20.691406 87.765625 C 20.691406 87.765625 20.738281 87.765625 20.738281 87.765625 C 21.089844 88.113281 21.636719 87.914062 22.039062 88.261719 C 22.238281 88.460938 22.585938 88.410156 22.835938 88.5625 C 23.085938 88.660156 23.285156 88.859375 23.484375 89.058594 C 23.785156 89.304688 24.132812 89.457031 24.433594 89.753906 C 24.882812 90.199219 25.429688 90.550781 25.730469 91.09375 C 25.78125 91.195312 25.929688 91.246094 26.03125 91.394531 C 26.128906 91.542969 26.179688 91.691406 26.28125 91.839844 C 26.328125 91.941406 26.328125 92.140625 26.53125 92.089844 C 26.429688 92.339844 26.679688 92.4375 26.730469 92.585938 C 26.929688 93.082031 27.226562 93.582031 27.328125 94.128906 C 27.476562 95.023438 27.578125 95.917969 27.628906 96.8125 C 27.628906 102.675781 27.628906 108.589844 27.628906 114.453125 C 27.578125 114.601562 27.578125 114.652344 27.578125 114.851562 Z M 21.789062 92.835938 C 21.589844 92.734375 21.488281 92.636719 21.386719 92.585938 C 21.339844 92.535156 21.289062 92.4375 21.1875 92.386719 C 20.839844 92.289062 20.589844 92.039062 20.242188 91.988281 C 19.890625 91.941406 19.589844 91.742188 19.292969 91.691406 C 18.792969 91.59375 18.34375 91.542969 17.84375 91.542969 C 13.453125 91.542969 9.058594 91.542969 4.667969 91.542969 C 4.167969 91.542969 4.167969 91.542969 4.167969 92.039062 C 4.167969 96.460938 4.167969 100.9375 4.167969 105.359375 C 4.167969 105.757812 4.167969 106.203125 4.269531 106.601562 C 4.367188 106.949219 4.417969 107.347656 4.617188 107.695312 C 4.765625 107.992188 4.867188 108.289062 5.066406 108.539062 C 5.167969 108.6875 5.214844 108.886719 5.417969 108.988281 C 5.464844 109.035156 5.464844 109.183594 5.515625 109.234375 C 5.765625 109.484375 6.015625 109.730469 6.265625 109.980469 C 6.316406 110.03125 6.363281 110.03125 6.414062 110.078125 C 6.714844 110.230469 6.964844 110.378906 7.3125 110.578125 C 7.261719 110.578125 7.363281 110.527344 7.363281 110.527344 C 7.511719 110.675781 7.710938 110.726562 7.960938 110.777344 C 8.261719 110.824219 8.5625 111.023438 8.859375 111.074219 C 9.210938 111.125 9.609375 111.074219 9.957031 111.074219 C 14.402344 111.074219 18.792969 111.074219 23.234375 111.074219 C 23.683594 111.074219 23.683594 111.074219 23.683594 110.625 C 23.683594 106.304688 23.683594 101.929688 23.683594 97.605469 C 23.683594 97.160156 23.632812 96.710938 23.585938 96.265625 C 23.585938 96.113281 23.585938 95.917969 23.535156 95.765625 C 23.535156 95.617188 23.484375 95.519531 23.433594 95.371094 C 23.335938 95.121094 23.183594 94.871094 23.035156 94.625 C 22.886719 94.324219 22.734375 94.078125 22.488281 93.679688 C 22.535156 93.183594 21.789062 93.234375 21.789062 92.835938 Z M 21.789062 92.835938 "/>
<path style=" stroke:none;fill-rule:nonzero;fill:rgb(0%,0%,0%);fill-opacity:1;" d="M 16.246094 95.46875 C 16.894531 95.417969 17.496094 95.667969 18.042969 95.917969 C 18.195312 95.964844 18.292969 96.113281 18.34375 96.214844 C 18.492188 96.414062 18.742188 96.414062 18.84375 96.660156 C 18.894531 96.8125 19.09375 97.007812 19.191406 97.207031 C 19.390625 97.40625 19.542969 97.65625 19.542969 97.953125 C 19.542969 98.101562 19.691406 98.300781 19.691406 98.5 C 19.691406 99.84375 19.742188 101.183594 19.742188 102.527344 C 19.742188 103.96875 19.742188 105.410156 19.742188 106.898438 C 19.742188 106.949219 19.742188 107 19.742188 107.097656 C 19.589844 107.097656 19.492188 107.097656 19.34375 107.097656 C 16.894531 107.097656 14.449219 107.097656 12.054688 107.097656 C 11.65625 107.097656 11.257812 107.097656 10.90625 107.046875 C 10.757812 107.046875 10.605469 106.898438 10.457031 106.851562 C 10.109375 106.949219 9.910156 106.601562 9.609375 106.5 C 9.410156 106.453125 9.160156 106.203125 9.058594 106.003906 C 8.808594 105.65625 8.511719 105.257812 8.410156 104.863281 C 8.261719 104.414062 8.160156 103.867188 8.160156 103.371094 C 8.160156 100.835938 8.160156 98.300781 8.160156 95.765625 C 8.160156 95.667969 8.160156 95.566406 8.160156 95.417969 C 8.261719 95.417969 8.359375 95.417969 8.460938 95.417969 C 10.957031 95.417969 13.453125 95.417969 15.949219 95.417969 C 15.996094 95.371094 16.148438 95.46875 16.246094 95.46875 C 16.148438 95.46875 15.996094 95.417969 15.898438 95.417969 C 13.453125 95.417969 11.007812 95.417969 8.511719 95.417969 C 8.410156 95.417969 8.3125 95.417969 8.210938 95.417969 C 8.210938 95.417969 8.210938 95.46875 8.210938 95.46875 C 8.3125 95.46875 8.460938 95.46875 8.5625 95.46875 C 10.957031 95.46875 13.351562 95.46875 15.75 95.46875 C 15.949219 95.519531 16.097656 95.46875 16.246094 95.46875 Z M 16.246094 95.46875 "/>
</g>
</svg>
