<svg xmlns="http://www.w3.org/2000/svg" width="72" height="72">
    <path fill="none" d="M0 0h72v72H0V0z"/>
    <path fill="#fff" fill-rule="evenodd" d="M69.663 49.994c-.214.385-.502.082-.502.082l-4.354-1.453s-.413-.143-.825-.001c-.355.122-.71.513-.786.672-5.425 11.482-17.845 18.698-31.177 16.988-13.229-1.7-23.352-11.673-25.783-24.014-.194-.983.6-2.23 1.468-2.312 1.131-.106 1.996 1.229 2.192 2.126 2.315 10.627 11.125 19.153 22.585 20.625 11.594 1.487 22.405-4.697 27.265-14.595.078-.157.247-.475.1-.76-.167-.323-.661-.609-.661-.609l-4.55-1.52s-.301.025-.33-.341c-.027-.366.373-.381.373-.381l8.864-4.515s.511-.337.951-.218c.54.144.651.709.651.709l4.4 8.95s.317.216.119.567zM21.101 30.459l2.606 3.451h9.556l-4.344-13.804h3.475l8.687 13.804h9.556a2.596 2.596 0 0 1 2.606 2.588 2.597 2.597 0 0 1-2.606 2.588h-9.556L32.394 52.89h-3.475l4.344-13.804h-9.556l-2.606 3.451h-2.606l1.737-6.039-1.737-6.039h2.606zm43.094 2.634c-.912.122-2.05-.633-2.206-1.453-2.061-10.962-11.011-19.848-22.731-21.351-11.64-1.496-22.488 4.745-27.323 14.709-.067.136-.221.545-.135.784.113.326.493.475.493.475l4.776 1.594s.31.066.312.369c.001.303-.275.338-.275.338l-8.671 4.414s-.715.518-1.225.339c-.524-.184-.875-1.216-.875-1.216l-4.193-8.524s-.269-.181-.04-.492c.23-.31-.004-.226.539-.044 1.525.512 4.425 1.484 4.393 1.466-.024-.015.383.127.761.01.294-.092.568-.426.628-.553C13.784 12.327 26.288 4.989 39.72 6.714 53.054 8.426 63.23 18.542 65.559 31.02c.19 1.013-.467 1.953-1.364 2.073z"/>
</svg>
