<svg xmlns="http://www.w3.org/2000/svg" width="32" height="32" viewBox="0 0 32 32">
    <g fill="none" fill-rule="evenodd">
        <path d="M0 0h32v32H0z"/>
        <path fill="#00BF8F" d="M24.843 13.818a.55.55 0 0 1-.498-.33l-.014.003c-1.076-3.677-4.442-6.37-8.424-6.37-3.995 0-7.369 2.707-8.434 6.401H7.4l1.537.44-2.827 2.224L5 12.84l1.395.398C7.582 9.058 11.39 6 15.905 6c4.436 0 8.187 2.951 9.443 7.014a.229.229 0 0 1 .016.055c0 .003.002.006.003.008a.564.564 0 0 1-.524.742m-18.11 4.354a.56.56 0 0 1 .533.415h.005c1.1 3.635 4.444 6.291 8.394 6.291 3.961 0 7.314-2.668 8.406-6.314l-1.514-.432 2.823-2.227 1.11 3.345-1.349-.383C23.922 22.993 20.14 26 15.66 26c-4.482 0-8.266-3.014-9.481-7.15l.01-.007a.564.564 0 0 1 .543-.67m14.233-1.26h-3.377l-3.07 4.87h-1.23l1.536-4.87h-3.38l-.92 1.218h-.92L10.217 16l-.613-2.13h.92l.92 1.216h3.38l-1.537-4.869h1.23l3.07 4.87h3.378c.51 0 .922.409.922.913 0 .506-.411.914-.922.914"/>
    </g>
</svg>
