<svg xmlns="http://www.w3.org/2000/svg" width="30" height="30" viewBox="0 0 30 30">
    <g fill="none" fill-rule="evenodd">
        <circle cx="15" cy="15" r="15" fill="#00BF8F"/>
        <path fill="#FFF" d="M6.95 17.92a.778.778 0 0 1 1.394-.471l3.456 4.53V5.842a.784.784 0 0 1 .69-.79c.426-.036.801.277.841.703V24.25a.79.79 0 0 1-.389.69.778.778 0 0 1-1.004-.201l-4.83-6.35a.772.772 0 0 1-.157-.47zm9.7 6.348V5.842a.79.79 0 0 1 .389-.69.778.778 0 0 1 1.004.201l4.85 6.355a.784.784 0 1 1-1.255.942L18.2 8.107V24.25a.784.784 0 0 1-.69.796.778.778 0 0 1-.841-.702l-.02-.076z"/>
    </g>
</svg>
