<svg xmlns="http://www.w3.org/2000/svg" width="24" height="24" viewBox="0 0 24 24">
    <g fill="none" fill-rule="evenodd" transform="rotate(90 12 12)">
        <circle cx="12" cy="12" r="12" fill="#00BF8F"/>
        <path fill="#FFF" d="M5.56 14.336a.622.622 0 0 1 1.115-.377l2.765 3.624V4.674a.627.627 0 0 1 .552-.632c.34-.03.641.222.673.562V19.4a.622.622 0 0 1-1.114.391l-3.865-5.08a.617.617 0 0 1-.125-.375zm7.76 5.079V4.674a.633.633 0 0 1 .311-.552.622.622 0 0 1 .803.16l3.88 5.085a.627.627 0 1 1-1.004.753l-2.75-3.634V19.4a.627.627 0 0 1-.552.637.622.622 0 0 1-.673-.562l-.015-.06z"/>
    </g>
</svg>
