<svg xmlns="http://www.w3.org/2000/svg" width="48" height="48" viewBox="0 0 48 48">
    <g fill="none" fill-rule="evenodd">
        <circle cx="24" cy="24" r="24" fill="#F26522"/>
        <path fill="#FFF" d="M25.045 23.605a5.92 5.92 0 0 0 2.33-4.712c0-3.253-2.581-5.893-5.767-5.893-3.185 0-5.766 2.64-5.766 5.898 0 1.9.896 3.573 2.261 4.65-2.931 1.34-4.999 4.297-5.103 7.77 0 .537.429.973.962.973.53 0 .96-.436.96-.973.24-3.473 2.997-6.402 6.418-6.553l.52.002a6.663 6.663 0 0 1 5.231 2.88h2.187c-.9-1.817-2.418-3.208-4.233-4.041m-3.357-.822l-.207-.002c-2.065-.061-3.727-1.773-3.727-3.9 0-2.166 1.717-3.924 3.837-3.924 2.119 0 3.835 1.755 3.835 3.923 0 2.133-1.668 3.848-3.738 3.904m6.093-7.66c1.642.444 3.386 1.94 3.386 3.756 0 1.378-.939 2.774-2 3.454-.5.194-.86.682-.86 1.264l-.003.125a1.35 1.35 0 0 0 1.262 1.341s.036.005.038.01c1.119.534 2.183 1.454 3.012 2.57H35a8.71 8.71 0 0 0-4.025-3.936l-.008-.081c1.328-1.107 2.144-2.843 2.144-4.736 0-3.096-2.344-5.593-5.312-5.835l-.068.002a1.026 1.026 0 0 0-.982 1.023 1.041 1.041 0 0 0 1.032 1.042m5.838 16.207h-1.843v-1.866a.926.926 0 0 0-.92-.931.928.928 0 0 0-.921.931v1.866h-1.844a.926.926 0 0 0-.921.932c0 .515.413.93.921.93h1.844v1.867c0 .511.413.93.921.93.507 0 .92-.419.92-.93v-1.867h1.843a.928.928 0 0 0 .921-.93.928.928 0 0 0-.921-.932"/>
    </g>
</svg>
