<svg xmlns="http://www.w3.org/2000/svg" width="24" height="24" viewBox="0 0 24 24">
    <g fill="none" fill-rule="evenodd">
        <path d="M0 0h24v24H0z"/>
        <path fill="#FFF" fill-opacity=".8" d="M12 6.372a5.46 5.46 0 0 1 5.454 5.466c0 .698-.141 1.376-.392 1.988l3.196 3.203A12.95 12.95 0 0 0 24 11.838c-1.887-4.8-6.546-8.199-12-8.199a12.9 12.9 0 0 0-4.364.766l2.368 2.35A5.506 5.506 0 0 1 12 6.372M1.091 3.388l2.487 2.493.49.491A12.927 12.927 0 0 0 0 11.838c1.887 4.797 6.546 8.197 12 8.197 1.691 0 3.306-.328 4.778-.918l.47.459 3.185 3.191 1.385-1.387L2.476 2m4.647 7.433l1.691 1.694c-.056.233-.086.47-.087.71A3.275 3.275 0 0 0 12 15.117c.24 0 .48-.033.709-.087l1.691 1.695a5.41 5.41 0 0 1-2.4.579 5.46 5.46 0 0 1-5.454-5.465c0-.864.218-1.673.577-2.405m4.691-.875l3.459 3.455v-.175A3.276 3.276 0 0 0 12 8.558h-.186"/>
    </g>
</svg>
