<svg xmlns="http://www.w3.org/2000/svg" width="24" height="24" viewBox="0 0 24 24">
    <g fill="none" fill-rule="evenodd">
        <path d="M0 0h24v24H0z"/>
        <path fill="#FFF" fill-opacity=".8" d="M12 14.91l3.053-2.456 7.898 7.498a1.436 1.436 0 0 1-.388.06H1.438c-.135 0-.264-.025-.388-.06l7.901-7.494L12 14.91zM.082 19.044A1.403 1.403 0 0 1 0 18.591V5.421c0-.15.03-.293.075-.43l7.832 6.627-7.825 7.426zm13.98-7.489l-2.063 1.658-2.056-1.654-1.044-.84-7.866-6.653c.129-.039.264-.066.405-.066h21.125c.141 0 .275.027.404.066l-7.862 6.65-1.043.839zm9.856 7.49l-7.822-7.43 7.829-6.625c.044.138.075.281.075.431v13.17c0 .16-.032.31-.082.453z"/>
    </g>
</svg>
