<svg xmlns="http://www.w3.org/2000/svg" width="24" height="24" viewBox="0 0 24 24">
    <g fill="none" fill-rule="evenodd">
        <path d="M0 0h24v24H0z"/>
        <path fill="#FFF" fill-opacity=".8" d="M12 14.97c-1.53 0-2.768-1.218-2.768-2.72 0-1.5 1.239-2.718 2.768-2.718 1.53 0 2.768 1.218 2.768 2.719S13.53 14.97 12 14.97m0-8.156c-3.06 0-5.538 2.431-5.538 5.436 0 3.004 2.478 5.44 5.538 5.44 3.056 0 5.539-2.436 5.539-5.44 0-3.005-2.483-5.436-5.539-5.436M0 12.704v-.906c5.537-9.064 18.463-9.064 24 0v.906c-5.537 9.064-18.463 9.064-24 0"/>
    </g>
</svg>
