<svg xmlns="http://www.w3.org/2000/svg" xmlns:xlink="http://www.w3.org/1999/xlink" width="189" height="80" viewBox="0 0 189 80">
    <defs>
        <path id="a" d="M0 80h188.421V0H0z"/>
    </defs>
    <g fill="none" fill-rule="evenodd">
        <path fill="#FEFEFE" d="M110.175 25.098h5.699l-13.176 15.885 14.095 17.05h-5.695L99.88 44.38 88.558 58.032h-5.76l14.173-17.05-13.16-15.884h5.755l10.337 12.578z"/>
        <g>
            <path fill="#FEFEFE" d="M117.708 39.785l8.063-7.921v4.479h6.86v3.866h-6.86v10.616c0 2.478 1.03 3.718 3.088 3.718 1.54 0 3.167-.51 4.88-1.532v4.008c-1.65.927-3.45 1.39-5.398 1.39-1.965 0-3.6-.573-4.904-1.72a4.883 4.883 0 0 1-1.014-1.168c-.267-.431-.491-.997-.672-1.697-.18-.7-.27-2.031-.27-3.996v-9.619h-3.773v-.424zM142.246 36.343v4.974l.236-.376c2.074-3.349 4.149-5.022 6.223-5.022 1.619 0 3.309.817 5.07 2.452l-2.264 3.772c-1.493-1.415-2.876-2.122-4.15-2.122-1.382 0-2.58.66-3.595 1.98-1.013 1.32-1.52 2.885-1.52 4.692v11.34h-4.315v-21.69h4.315z"/>
            <mask id="b" fill="#fff">
                <use xlink:href="#a"/>
            </mask>
            <path fill="#FEFEFE" d="M157.683 58.032h4.29V36.343h-4.29v21.69zm2.122-30.813c.707 0 1.312.244 1.815.731.503.488.755 1.085.755 1.792 0 .692-.252 1.29-.755 1.792a2.473 2.473 0 0 1-1.815.754c-.66 0-1.242-.255-1.745-.766-.503-.51-.754-1.104-.754-1.78 0-.66.251-1.246.754-1.756.503-.511 1.085-.767 1.745-.767zM176.132 40.35h-3.035v13.344a8.95 8.95 0 0 0 4.14 1.014c2.008 0 3.65-.699 4.929-2.098 1.278-1.398 1.917-3.198 1.917-5.399 0-1.414-.302-2.664-.905-3.748-.604-1.084-1.428-1.874-2.47-2.37-1.043-.494-2.569-.742-4.576-.742zm-7.42 28.74V36.342h7.512c3.846 0 6.84.959 8.983 2.876 2.143 1.918 3.214 4.598 3.214 8.04 0 3.253-1.008 5.925-3.025 8.015-2.016 2.09-4.586 3.136-7.708 3.136-1.382 0-2.912-.307-4.59-.92v11.6h-4.386zM37.898 27.337l5.342-8.972c.97-1.627 1.95-3.152 3.482-4.331 1.586-1.222 3.592-1.601 5.474-2.137l4.62-1.32.218-.062-6.74 11.752-2.828 5.519-4.113 2.355-3.601-1.346-1.854-1.458z" mask="url(#b)"/>
            <path fill="#FEFEFE" d="M37.898 27.337l5.342-8.972c.97-1.627 1.95-3.152 3.482-4.331 1.586-1.222 3.592-1.601 5.474-2.137l4.62-1.32.218-.062-6.74 11.752-2.828 5.519-4.113 2.355-3.601-1.346-1.854-1.458z" mask="url(#b)"/>
            <path fill="#FEFEFE" d="M24.86 0c.134.28.026.61-.084.902-.861 2.287-1.69 4.587-2.613 6.85-1.072 2.626-.127 5.412 1.133 7.784 1.621 3.051 3.449 5.986 5.218 8.951 1.41 2.362 2.58 5.393 5.19 6.678a11.964 11.964 0 0 0 6.957 1.106c2.774-.396 5.37-1.843 7.035-4.1 1.53-2.074 2.684-4.322 3.956-6.553l6.392-11.215-1.01.112-8.298 14.467a11.73 11.73 0 0 1-1.676 2.265c-1.342 1.407-3.413 2.872-5.19 1.418-2.283-1.868-3.414-4.718-4.836-7.223a21668.7 21668.7 0 0 0-2.858-5.036L26.98 3.73C26.275 2.485 25.582 1.234 24.86 0M41.843 52.663L36.5 61.635c-.97 1.627-1.95 3.152-3.481 4.331-1.586 1.222-3.593 1.601-5.475 2.137-1.54.439-3.08.88-4.619 1.32l-.219.062 6.741-11.752 2.828-5.519 4.113-2.355 3.601 1.346 1.854 1.458z" mask="url(#b)"/>
            <path fill="#FEFEFE" d="M41.843 52.663L36.5 61.635c-.97 1.627-1.95 3.152-3.481 4.331-1.586 1.222-3.593 1.601-5.475 2.137-1.54.439-3.08.88-4.619 1.32l-.219.062 6.741-11.752 2.828-5.519 4.113-2.355 3.601 1.346 1.854 1.458z" mask="url(#b)"/>
            <path fill="#FEFEFE" d="M54.88 80c-.134-.28-.025-.61.084-.902.862-2.287 1.69-4.587 2.613-6.85 1.072-2.626.128-5.412-1.133-7.784-1.62-3.051-3.448-5.986-5.217-8.951-1.41-2.362-2.581-5.393-5.19-6.678a11.964 11.964 0 0 0-6.958-1.106c-2.773.396-5.37 1.843-7.034 4.1-1.53 2.074-2.684 4.322-3.956 6.553l-6.392 11.215 1.01-.112 8.298-14.467a11.73 11.73 0 0 1 1.676-2.265c1.342-1.407 3.412-2.872 5.19-1.418 2.283 1.868 3.414 4.718 4.835 7.223l2.859 5.036L52.76 76.27c.706 1.244 1.399 2.495 2.12 3.729M27.337 41.916l-8.972-5.343c-1.627-.97-3.152-1.95-4.331-3.482-1.222-1.586-1.601-3.592-2.137-5.474l-1.32-4.62c-.02-.072-.04-.145-.062-.218l11.752 6.741 5.519 2.827 2.355 4.113-1.346 3.602-1.458 1.854z" mask="url(#b)"/>
            <path fill="#FEFEFE" d="M27.337 41.916l-8.972-5.343c-1.627-.97-3.152-1.95-4.331-3.482-1.222-1.586-1.601-3.592-2.137-5.474l-1.32-4.62c-.02-.072-.04-.145-.062-.218l11.752 6.741 5.519 2.827 2.355 4.113-1.346 3.602-1.458 1.854z" mask="url(#b)"/>
            <path fill="#FEFEFE" d="M27.337 41.916l-8.972-5.343c-1.627-.97-3.152-1.95-4.331-3.482-1.222-1.586-1.601-3.592-2.137-5.474l-1.32-4.62c-.02-.072-.04-.145-.062-.218l11.752 6.741 5.519 2.827 2.355 4.113-1.346 3.602-1.458 1.854z" mask="url(#b)"/>
            <path fill="#FEFEFE" d="M0 54.953c.28-.134.611-.026.902.084 2.287.862 4.587 1.69 6.85 2.613 2.626 1.072 5.412.128 7.784-1.133 3.051-1.62 5.986-3.448 8.951-5.218 2.362-1.41 5.393-2.58 6.678-5.19a11.968 11.968 0 0 0 1.106-6.957c-.396-2.773-1.843-5.37-4.1-7.035-2.074-1.53-4.322-2.683-6.554-3.955L10.403 21.77l.112 1.009 14.467 8.299a11.716 11.716 0 0 1 2.265 1.675c1.407 1.343 2.872 3.413 1.418 5.19-1.868 2.283-4.718 3.415-7.223 4.836l-5.036 2.858L3.73 52.834c-1.244.706-2.495 1.398-3.729 2.12M52.475 37.944l8.971 5.343c1.628.97 3.152 1.95 4.332 3.482 1.222 1.586 1.6 3.592 2.137 5.474.438 1.54.879 3.08 1.319 4.62l.062.218-11.751-6.741-5.519-2.827-2.355-4.113 1.346-3.602 1.458-1.854z" mask="url(#b)"/>
            <path fill="#FEFEFE" d="M52.475 37.944l8.971 5.343c1.628.97 3.152 1.95 4.332 3.482 1.222 1.586 1.6 3.592 2.137 5.474.438 1.54.879 3.08 1.319 4.62l.062.218-11.751-6.741-5.519-2.827-2.355-4.113 1.346-3.602 1.458-1.854z" mask="url(#b)"/>
            <path fill="#FEFEFE" d="M79.812 24.907c-.28.134-.611.026-.902-.084-2.287-.862-4.587-1.69-6.85-2.613-2.626-1.072-5.412-.128-7.785 1.133-3.05 1.62-5.985 3.448-8.95 5.218-2.363 1.41-5.393 2.58-6.678 5.19a11.966 11.966 0 0 0-1.107 6.957c.397 2.773 1.844 5.37 4.1 7.035 2.074 1.53 4.323 2.683 6.554 3.955L69.41 58.09l-.112-1.009-14.467-8.299a11.725 11.725 0 0 1-2.265-1.675c-1.407-1.343-2.872-3.413-1.418-5.19 1.867-2.283 4.718-3.414 7.222-4.836l5.037-2.858 12.677-7.196c1.243-.706 2.495-1.398 3.729-2.12" mask="url(#b)"/>
        </g>
    </g>
</svg>
