<svg xmlns="http://www.w3.org/2000/svg" width="24" height="24" viewBox="0 0 24 24">
    <path fill="#F26522" fill-rule="evenodd" d="M16.735 16.735a.923.923 0 0 1-1.306 0L12 13.306 8.41 16.898a.923.923 0 1 1-1.306-1.307l3.591-3.59-3.428-3.43a.923.923 0 1 1 1.306-1.305L12 10.694l3.265-3.265a.924.924 0 0 1 1.306 1.306L13.306 12l3.429 3.429c.36.36.36.945 0 1.306M20.49 3.51c-4.681-4.68-12.298-4.681-16.98 0-4.68 4.681-4.68 12.297 0 16.979 4.682 4.68 12.298 4.68 16.98 0 4.68-4.682 4.68-12.298 0-16.98"/>
</svg>
