<svg xmlns="http://www.w3.org/2000/svg" width="32" height="32" viewBox="0 0 32 32">
    <path fill="#FA0" fill-rule="evenodd" d="M22.145 13.57h1.523v-1.523h-1.523v1.523zm0 3.047h1.523v-1.523h-1.523v1.523zm0 3.047h1.523v-1.523h-1.523v1.523zm-15.336 0h7.77v-1.523h-7.77v1.523zm0-3.047h5.941v-1.523H6.809v1.523zM29 10.523V9h-5.332v1.523h-1.523V9H3v1.523a.763.763 0 0 1 0 1.524v1.523a.763.763 0 0 1 0 1.524v1.523a.763.763 0 0 1 0 1.524v1.523a.763.763 0 0 1 0 1.523v1.524h19.145v-1.523h1.523v1.523H29v-1.523a.763.763 0 0 1 0-1.524v-1.523a.763.763 0 0 1 0-1.524v-1.523a.763.763 0 0 1 0-1.524v-1.523a.763.763 0 0 1 0-1.524z"/>
</svg>
