<svg xmlns="http://www.w3.org/2000/svg" width="24" height="24" viewBox="0 0 24 24">
    <g fill="none" fill-rule="evenodd">
        <path d="M0 0h24v24H0z"/>
        <path fill="#000" d="M3.873 1.977l-1.305-.753a.703.703 0 1 0-.703 1.218l1.305.753a.7.7 0 0 0 .96-.257.703.703 0 0 0-.257-.961zm18.262 10.544l-1.305-.753a.703.703 0 0 0-.703 1.218l1.305.753a.703.703 0 0 0 .703-1.218zM20.48 3.289a.7.7 0 0 0 .35-.094l1.305-.753a.703.703 0 1 0-.703-1.218l-1.305.753a.703.703 0 0 0 .353 1.312zM3.17 11.768l-1.305.753a.703.703 0 0 0 .703 1.218l1.304-.753a.703.703 0 0 0-.703-1.218zm20.127-4.99H21.79a.703.703 0 0 0 0 1.406h1.506a.703.703 0 0 0 0-1.406zm-20.385.703a.703.703 0 0 0-.703-.703H.703a.703.703 0 1 0 0 1.406H2.21a.703.703 0 0 0 .703-.703zm12.463 5.052a.703.703 0 0 0-.312.585v.44l-.05-.002h-.804v-2.77l1.01-1.01a.703.703 0 0 0-.994-.995l-1.216 1.216a.703.703 0 0 0-.206.497v3.062h-1.606v-3.062a.703.703 0 0 0-.206-.497L9.775 8.78a.703.703 0 0 0-.994.994l1.01 1.01v2.771h-.803l-.05.001v-.44a.703.703 0 0 0-.313-.584 6.07 6.07 0 0 1-2.7-5.052A6.082 6.082 0 0 1 12 1.406a6.082 6.082 0 0 1 6.075 6.075 6.07 6.07 0 0 1-2.7 5.052zm-.362 7.048H8.988a.804.804 0 0 1 0-1.606h6.025a.804.804 0 0 1 0 1.606zM12 22.594a2.314 2.314 0 0 1-2.2-1.606h4.4a2.313 2.313 0 0 1-2.2 1.606zm3.013-7.632a.804.804 0 0 1 0 1.607H8.988a.804.804 0 0 1 0-1.607h6.025zM12 0C7.875 0 4.519 3.356 4.519 7.481c0 2.374 1.119 4.59 3.012 6v.625a2.204 2.204 0 0 0-.158 3.166 2.2 2.2 0 0 0-.595 1.506c0 .991.656 1.832 1.556 2.11A3.72 3.72 0 0 0 12 24a3.721 3.721 0 0 0 3.666-3.111c.9-.28 1.556-1.12 1.556-2.111a2.2 2.2 0 0 0-.595-1.506 2.2 2.2 0 0 0-.158-3.166v-.625a7.472 7.472 0 0 0 3.012-6C19.481 3.356 16.125 0 12 0z"/>
    </g>
</svg>
