<svg xmlns="http://www.w3.org/2000/svg" width="14" height="14" viewBox="0 0 14 14">
    <g fill="none" fill-rule="evenodd">
        <path d="M0 0h14v14H0z"/>
        <path fill="#00BF8F" d="M10.047 9.953c-.172.32-.203.54-.203.68 0 1.223.638 1.97.644 1.978a.234.234 0 0 1-.175.389H4.172a.234.234 0 0 1-.096-.02C4.032 12.96 3 12.48 3 11.265c0-.587.196-.876.368-1.131.173-.254.335-.495.335-1.096 0-.414-.077-.871-.18-1.295A3.262 3.262 0 0 1 3 5.969V2.194a1.196 1.196 0 0 1 2.177-.678h.214c.517 0 .937.42.937.937v2.555c0 .517.42.937.938.937h2.507c.517 0 .938.42.938.938v.02c.309.073.539.352.539.683v.96c0 .336-.26.548-.55.687-.22.105-.467.374-.653.72"/>
        <path fill="#000" d="M6.281 7.844a.235.235 0 1 1 0 .47.235.235 0 0 1 0-.47"/>
        <path fill="#CCF2E9" d="M6.281 8.781h4.266c.13 0 .234-.105.234-.234v-.234H8.906a.235.235 0 0 1 0-.47h1.875v-.257a.235.235 0 0 0-.234-.234H6.983a1.826 1.826 0 0 1-1.515-.806l-.235-.348a1.821 1.821 0 0 1-.313-1.023v-2.98a.727.727 0 0 0-1.451 0v3.774A2.816 2.816 0 0 0 6.28 8.78"/>
        <path fill="#CCF2E9" d="M3.5 11.266c0 .798.595 1.176.759 1.265H9.9a3.719 3.719 0 0 1-.376-.937H7.53a.235.235 0 0 1 0-.469h1.906c-.02-.155-.03-.32-.03-.492 0-.612.138-1.063.3-1.383H6.313a3.267 3.267 0 0 1-2.15-.804c.025.2.04.4.04.593 0 .745-.22 1.071-.415 1.359-.161.237-.288.425-.288.868"/>
        <path fill="#00BF8F" d="M5.625 11.125h1.172a.235.235 0 0 1 0 .469H5.625a.235.235 0 0 1 0-.469"/>
        <path fill="#CCF2E9" d="M9.703 6.414H7.196c-.776 0-1.407-.63-1.407-1.406V2.453a.47.47 0 0 0-.468-.469H5.3c.012.069.019.139.019.21v2.981c0 .272.08.535.232.76l.236.349c.253.375.674.599 1.126.599h3.26a.47.47 0 0 0-.47-.469"/>
    </g>
</svg>
