<svg xmlns="http://www.w3.org/2000/svg" width="24" height="24" viewBox="0 0 24 24">
    <g fill="none" fill-rule="evenodd">
        <path d="M0 0h24v24H0z"/>
        <path stroke="#00BF8F" stroke-width="1.5" d="M11.956 18.867l5.162-4.605c1.007-.912 1.693-2.058 1.99-3.314.155-.657.168-1.136.118-1.444-.2-2.203-1.714-3.754-3.583-3.754-1.24 0-2.39.666-3.043 1.76l-.651 1.09-.64-1.097C10.661 6.397 9.57 5.75 8.356 5.75c-1.869 0-3.383 1.552-3.59 3.81-.043.252-.03.73.126 1.389.296 1.257.982 2.402 1.99 3.312l5.073 4.606z"/>
    </g>
</svg>
