<svg xmlns="http://www.w3.org/2000/svg" width="22" height="19" viewBox="0 0 22 19">
    <path fill="#0391FD" fill-rule="evenodd" d="M22 2.23v9.564c0 1.231-1.012 2.23-2.26 2.23h-9.657L5.5 19v-4.976H2.26c-1.248 0-2.26-.999-2.26-2.23V2.23C0 .998 1.012 0 2.26 0h17.48C20.988 0 22 .998 22 2.23zM11.562 5c.242 0 .438-.224.438-.5s-.196-.5-.438-.5H5.439C5.196 4 5 4.224 5 4.5s.196.5.438.5h6.125zm5.99 3C17.8 8 18 7.777 18 7.5c0-.276-.2-.5-.448-.5H5.448C5.2 7 5 7.224 5 7.5c0 .277.2.5.448.5h12.104zm0 3c.248 0 .448-.223.448-.5 0-.276-.2-.5-.448-.5H5.448C5.2 10 5 10.224 5 10.5c0 .277.2.5.448.5h12.104z"/>
</svg>
