<svg xmlns="http://www.w3.org/2000/svg" width="36" height="36" viewBox="0 0 36 36">
    <g fill="none" fill-rule="evenodd">
        <path d="M0 0h36v36H0z"/>
        <path fill="#F26522" d="M28.125 29.064c-1.436-1.698-4.007-2.994-7.116-3.522-.304-1.82-.847-2.671-.86-2.695.236-.11.521-.148.847-.076.398.09.67.3.834.568.048.078.17.051.184-.04.02-.132.014-.277-.03-.437-.114-.4-.425-.731-.83-.818a1.102 1.102 0 0 0-.75.105c.206-.178.462-.323.774-.424.673-.216 1.26-.11 1.717.18a.098.098 0 0 0 .147-.11 1.607 1.607 0 0 0-.507-.79c-.471-.414-1.127-.593-1.723-.396a1.736 1.736 0 0 0-.52.275l.036-.042c.439-.517.966-.74 1.486-.752.113-.002.163-.15.077-.222a1.594 1.594 0 0 0-.706-.337c-.664-.142-1.362.057-1.784.588-.152.19-.257.404-.318.625a1.74 1.74 0 0 0-.623-.323c-.652-.185-1.336.061-1.792.562a1.589 1.589 0 0 0-.372.668c-.032.116.102.21.202.144.428-.286.98-.408 1.631-.247l.054.014a1.738 1.738 0 0 0-.583.079c-.6.187-1.028.715-1.169 1.327-.081.352-.052.651.04.912.033.095.164.097.202.005.206-.493.618-.91 1.28-1.124.313-.1.606-.131.876-.107-.25.033-.489.151-.67.352-.279.307-.337.757-.197 1.148.056.158.137.28.232.376.063.065.177.015.17-.075-.024-.314.075-.64.346-.945.209-.234.446-.384.687-.418 0 0 .381.938.434 2.292a19.156 19.156 0 0 0-1.956-.102c-1.633 0-3.186.203-4.591.572.291-6.35 4.199-10.557 4.204-10.578.481.318.888.805 1.151 1.49.342.888.284 1.694-.026 2.359-.09.19.12.391.31.302.287-.132.563-.332.816-.63.628-.737.871-1.768.515-2.668a2.573 2.573 0 0 0-1.174-1.32c.61.17 1.225.478 1.824.954 1.272 1.01 1.828 2.261 1.871 3.506.009.233.295.337.445.157.414-.494.726-1.124.838-1.96.195-1.453-.306-2.957-1.46-3.86a4.044 4.044 0 0 0-1.208-.651l.128.013c1.553.181 2.66.902 3.359 1.879.163.228.532.13.56-.148a3.708 3.708 0 0 0-.264-1.764c-.585-1.47-1.874-2.568-3.451-2.702a4.067 4.067 0 0 0-1.626.192 4.05 4.05 0 0 0-.18-1.624c-.485-1.507-1.846-2.515-3.41-2.753a3.707 3.707 0 0 0-1.82.155c-.25.088-.261.45-.017.55 1.127.454 2.095 1.373 2.63 2.862.015.041.028.082.041.122a4.04 4.04 0 0 0-.907-1.03c-1.14-.92-2.72-1.068-4.09-.55-.814.307-1.365.771-1.756 1.306a.229.229 0 0 0 .231.362c1.238-.258 2.605-.008 3.897 1.02a5.135 5.135 0 0 1 1.342 1.56 2.57 2.57 0 0 0-1.552-.846c-.957-.143-1.907.327-2.483 1.105a2.372 2.372 0 0 0-.428.93c-.044.209.202.368.37.237.577-.45 1.346-.687 2.287-.554.772.109 1.365.426 1.79.863-.075.065-4.79 3.582-7.88 14.355a7.085 7.085 0 0 0-.524.555.578.578 0 0 0 .44.95h19.601c.483.003.759-.566.447-.936"/>
    </g>
</svg>
