<svg xmlns="http://www.w3.org/2000/svg" width="32" height="32" viewBox="0 0 32 32">
    <g fill="none" fill-rule="evenodd">
        <path d="M0 0h32v32H0z"/>
        <path fill="#FFF" d="M15.31 6.906a.911.911 0 0 0-.912.91v9.074l8.298 4.29a.91.91 0 0 0 .836-1.618l-7.313-3.78V7.816a.91.91 0 0 0-.91-.911m-1.392 20.657a11.62 11.62 0 0 1-2.887-.917l-.032-.018c-.215-.101-.43-.21-.64-.324l-.003-.001c-.383-.211-.756-.445-1.12-.7C3.94 21.873 2.667 14.53 6.398 9.236a11.697 11.697 0 0 1 2.886-2.873l.04-.028c3.857-2.657 9.093-2.836 13.188-.106l-.88 1.271c-.244.354-.094.612.334.573l3.82-.342a.63.63 0 0 0 .57-.823L25.33 3.212c-.115-.414-.409-.464-.654-.11l-.881 1.273A13.9 13.9 0 0 0 13.609 2.21c-.36.063-.716.139-1.066.228l-.007.001-.04.011a13.88 13.88 0 0 0-7.697 5.159c-.016.019-.033.038-.048.059a13.258 13.258 0 0 0-.487.701c-.012.018-.021.036-.031.054a13.877 13.877 0 0 0-2.219 8.186v.028c.013.283.036.57.066.85.002.02.006.036.009.054a13.891 13.891 0 0 0 4.037 8.385l.014.015.006.005c.55.542 1.148 1.044 1.793 1.498a13.878 13.878 0 0 0 5.581 2.336 1.125 1.125 0 1 0 .397-2.216m14.706-8.799a1.126 1.126 0 0 0-1.41.738c-.072.226-.15.454-.236.677a1.126 1.126 0 0 0 2.104.801c.1-.265.195-.536.28-.805a1.126 1.126 0 0 0-.738-1.41m-1.654 4.068a1.125 1.125 0 0 0-1.577.225c-.142.19-.293.379-.447.56a1.126 1.126 0 0 0 1.714 1.46c.184-.217.363-.442.534-.669a1.126 1.126 0 0 0-.224-1.576m3.02-7.375a1.126 1.126 0 0 0-2.25.088c.01.238.013.479.007.716a1.124 1.124 0 0 0 1.1 1.15 1.126 1.126 0 0 0 1.15-1.1c.007-.284.004-.571-.007-.854m-7.503 10.336c-.199.131-.404.258-.61.377a1.126 1.126 0 0 0 1.125 1.95c.245-.141.49-.292.726-.448a1.126 1.126 0 0 0-1.241-1.879m4.666-13.48a1.122 1.122 0 0 0 1.423.715c.59-.196.91-.833.714-1.423a13.984 13.984 0 0 0-.292-.801 1.126 1.126 0 1 0-2.09.836c.088.22.17.447.245.673m-8.324 15.087c-.23.058-.466.11-.7.152a1.127 1.127 0 0 0 .41 2.214c.279-.052.56-.113.834-.181a1.125 1.125 0 1 0-.544-2.185"/>
    </g>
</svg>
