<svg xmlns="http://www.w3.org/2000/svg" width="16" height="16" viewBox="0 0 16 16">
    <g fill="none" fill-rule="evenodd">
        <path fill="#F5F5F5" d="M-1074-10H292V98h-1366z"/>
        <path d="M0 0h16v16H0z"/>
        <path fill="#00BF8F" d="M13.143 12.286a.857.857 0 0 1-1.714 0V5.857h1.714v6.429zM9.286 7.143H4.143a.429.429 0 1 1 0-.857h5.143a.429.429 0 1 1 0 .857zm0 1.714H4.143a.429.429 0 1 1 0-.857h5.143a.429.429 0 1 1 0 .857zm0 1.714H4.143a.429.429 0 1 1 0-.857h5.143a.429.429 0 1 1 0 .857zm0 1.715H4.143a.429.429 0 1 1 0-.857h5.143a.429.429 0 1 1 0 .857zM5.429 4.143H8A.429.429 0 1 1 8 5H5.429a.429.429 0 1 1 0-.857zM13.57 5H11.43V2.429A.429.429 0 0 0 11 2H2.429A.429.429 0 0 0 2 2.429v9.857C2 13.232 2.768 14 3.714 14h8.572c.946 0 1.714-.768 1.714-1.714V5.429A.429.429 0 0 0 13.571 5z"/>
    </g>
</svg>
