<svg xmlns="http://www.w3.org/2000/svg" width="32" height="32" viewBox="0 0 32 32">
    <g fill="none" fill-rule="evenodd">
        <path fill="#757575" d="M18.606 6.423l-2.138-.348.98-.981a1.757 1.757 0 1 0-2.486-2.486l-2.77 2.77-9.69-1.577a1.977 1.977 0 0 0-1.477 3.553l9.656 6.993-1.808 1.808c-.62.62-1.271 1.472-1.941 2.536l-4.504-1.324A1.895 1.895 0 0 0 .816 20.74l3.692 2.555c-.643 1.419-1.033 2.444-1.052 2.492a.586.586 0 0 0 .756.756 47.28 47.28 0 0 0 2.492-1.052l2.556 3.692a1.894 1.894 0 0 0 3.374-1.612l-1.325-4.503c1.065-.67 1.917-1.323 2.536-1.942l1.808-1.808 6.994 9.657a1.977 1.977 0 0 0 3.552-1.478l-1.577-9.69 2.77-2.77a1.757 1.757 0 1 0-2.485-2.487l-.982.981-.348-2.137c3.533-3.57 3.928-3.838 4.707-4.843 1.81-2.346 2.233-4.712 1.055-5.89-1.18-1.179-3.545-.756-5.888 1.052-1.005.778-1.28 1.18-4.845 4.709z"/>
        <path fill="#FFF" d="M13.017 20.298c-.645.645-1.589 1.341-2.805 2.07-1.581.947-3.452 1.843-5.14 2.56.736-1.733 1.65-3.635 2.617-5.234.708-1.17 1.385-2.082 2.013-2.71C24.015 2.704 23.167 3.44 24.036 2.747c.963-.062 1.812.224 2.402.815.59.59.877 1.439.815 2.402-.696.87.032.031-14.236 14.334zM28.256 4.425a3.908 3.908 0 0 0-.989-1.692 3.912 3.912 0 0 0-1.691-.989c.848-.43 2.276-.912 2.934-.254.52.52.39 1.664-.254 2.935z"/>
        <path fill="#EBEBEB" d="M11.327 28.617a.723.723 0 0 1-1.104-.1L7.78 24.989a40.18 40.18 0 0 0 2.49-1.298l1.238 4.211a.722.722 0 0 1-.182.715zM1.383 18.673a.722.722 0 0 1 .715-.182L6.31 19.73a39.91 39.91 0 0 0-1.3 2.49l-3.527-2.443a.722.722 0 0 1-.1-1.104zM25.042 27.686a.805.805 0 0 1-1.447.602l-7.103-9.808 6.064-6.064 2.486 15.27zM1.712 6.404a.805.805 0 0 1 .601-1.446l15.272 2.486-6.064 6.064-9.81-7.104z"/>
        <path fill="#FFF" d="M25.735 13.38a.585.585 0 1 1 .829.83l-2.175 2.173-.231-1.425 1.577-1.578zM15.791 3.437a.586.586 0 1 1 .83.828l-1.579 1.578-1.425-.232 2.174-2.174z"/>
        <path fill="#757575" d="M20.763 8.408l-1.657 1.658a.586.586 0 0 0 .828.829l1.658-1.658a.586.586 0 0 0-.829-.829zM17.449 11.723l-1.657 1.657a.586.586 0 1 0 .828.829l1.657-1.658a.586.586 0 1 0-.828-.828zM14.134 15.038a.585.585 0 1 0 .827.828.585.585 0 0 0-.827-.828z"/>
    </g>
</svg>
