<svg xmlns="http://www.w3.org/2000/svg" width="16" height="16" viewBox="0 0 16 16">
    <defs>
        <linearGradient id="a" x1="50%" x2="50%" y1="5.258%" y2="95.198%">
            <stop offset="0%" stop-color="#6DC3C3"/>
            <stop offset="100%" stop-color="#00BF8F"/>
        </linearGradient>
    </defs>
    <path fill="url(#a)" fill-rule="evenodd" d="M11.333 10.286a1.142 1.142 0 1 0-.001 2.284 1.142 1.142 0 0 0 .001-2.284m0 3.428A1.142 1.142 0 1 0 11.332 16a1.142 1.142 0 0 0 .001-2.285M7.905 3.43a1.142 1.142 0 1 0-.002 2.284 1.142 1.142 0 0 0 .002-2.284M11.333 0a1.142 1.142 0 1 0-.001 2.284A1.142 1.142 0 0 0 11.333 0m0 3.429a1.142 1.142 0 1 0-.001 2.284 1.142 1.142 0 0 0 .001-2.284m0 3.428a1.142 1.142 0 1 0-.001 2.284 1.142 1.142 0 0 0 .001-2.284m-3.428 0a1.142 1.142 0 1 0-.002 2.284 1.142 1.142 0 0 0 .002-2.284m-3.429 0a1.142 1.142 0 1 0-.001 2.284 1.142 1.142 0 0 0 .001-2.284m4.572 4.572a1.142 1.142 0 1 1-2.285 0 1.142 1.142 0 0 1 2.285 0" transform="matrix(-1 0 0 1 15.81 0)"/>
</svg>
