<svg xmlns="http://www.w3.org/2000/svg" width="32" height="32" viewBox="0 0 32 32">
    <defs>
        <linearGradient id="a" x1="50%" x2="50%" y1="0%" y2="100%">
            <stop offset="0%" stop-color="#7024C4"/>
            <stop offset="36.658%" stop-color="#C21975"/>
            <stop offset="66.607%" stop-color="#C74C4D"/>
            <stop offset="100%" stop-color="#E09B3D"/>
        </linearGradient>
    </defs>
    <g fill="none" fill-rule="evenodd">
        <path d="M0 0h32v32H0z"/>
        <path fill="url(#a)" d="M16 12a4 4 0 1 0 0 8 4 4 0 0 0 0-8m0-2.667a6.667 6.667 0 1 1 0 13.333 6.667 6.667 0 0 1 0-13.333m7-2a1.667 1.667 0 1 1-.001 3.335A1.667 1.667 0 0 1 23 7.333m-12.867-2a4.8 4.8 0 0 0-4.8 4.8v11.734c0 2.653 2.147 4.8 4.8 4.8h11.734c2.652 0 4.8-2.148 4.8-4.8V10.133c0-2.653-2.147-4.8-4.8-4.8H10.133m.267-2.666h11.2a7.739 7.739 0 0 1 7.733 7.733v11.2a7.734 7.734 0 0 1-7.733 7.733H10.4A7.739 7.739 0 0 1 2.667 21.6V10.4A7.734 7.734 0 0 1 10.4 2.667"/>
    </g>
</svg>
