<svg xmlns="http://www.w3.org/2000/svg" width="24" height="24" viewBox="0 0 24 24">
    <defs>
        <linearGradient id="a" x1="100%" x2="50%" y1="50.228%" y2="50.228%">
            <stop offset="0%" stop-color="#31BCDC"/>
            <stop offset="100%" stop-color="#00D4A9"/>
        </linearGradient>
    </defs>
    <g fill="none" fill-rule="evenodd">
        <path d="M0 0h24v24H0z"/>
        <path fill="url(#a)" d="M20.438 19.656c0 .431-.351.782-.782.782h-4.531a.782.782 0 0 1-.781-.782v-4.531c0-.43.35-.781.781-.781h4.531c.431 0 .782.35.782.781v4.531zm-.782-6.875h-4.531a2.346 2.346 0 0 0-2.344 2.344v4.531A2.346 2.346 0 0 0 15.125 22h4.531A2.346 2.346 0 0 0 22 19.656v-4.531a2.346 2.346 0 0 0-2.344-2.344zm-10 6.906c0 .414-.336.75-.75.75H4.313a.751.751 0 0 1-.75-.75v-4.593c0-.414.336-.75.75-.75h4.593c.414 0 .75.336.75.75v4.593zm-.75-6.906H4.313A2.315 2.315 0 0 0 2 15.094v4.593A2.315 2.315 0 0 0 4.313 22h4.593a2.315 2.315 0 0 0 2.313-2.313v-4.593a2.315 2.315 0 0 0-2.313-2.313zm11.531-3.906c0 .43-.35.781-.78.781h-4.532a.782.782 0 0 1-.781-.781V4.344c0-.431.35-.782.781-.782h4.531c.431 0 .782.351.782.782v4.531zM19.657 2h-4.532a2.346 2.346 0 0 0-2.344 2.344v4.531a2.346 2.346 0 0 0 2.344 2.344h4.531A2.346 2.346 0 0 0 22 8.875V4.344A2.346 2.346 0 0 0 19.656 2zm-10 6.906c0 .414-.337.75-.751.75H4.313a.751.751 0 0 1-.75-.75V4.313c0-.414.336-.75.75-.75h4.593c.414 0 .75.336.75.75v4.593zM8.905 2H4.313A2.315 2.315 0 0 0 2 4.313v4.593a2.315 2.315 0 0 0 2.313 2.313h4.593a2.315 2.315 0 0 0 2.313-2.313V4.313A2.315 2.315 0 0 0 8.906 2z"/>
    </g>
</svg>
