<svg xmlns="http://www.w3.org/2000/svg" width="28" height="28" viewBox="0 0 28 28">
    <g fill="none" fill-rule="evenodd">
        <path d="M0 0h28v28H0z"/>
        <path fill="#00BF8F" d="M21.604 17.87a.473.473 0 0 0-.332-.137.472.472 0 0 0-.331.8.472.472 0 0 0 .8-.331.47.47 0 0 0-.137-.332zm-2.06-.137H16.09a.469.469 0 0 0 0 .937h3.456a.469.469 0 0 0 0-.937zM23 15.75h-6.91a.469.469 0 0 0 0 .938H23a.469.469 0 0 0 0-.938zm-5.093-5.791a.47.47 0 1 1 0-.938.47.47 0 0 1 0 .938zm0-1.875c-.776 0-1.406.63-1.406 1.406 0 .776.63 1.407 1.406 1.407a1.408 1.408 0 0 0 0-2.812v-.001zm3.276 5.488a.47.47 0 1 1 0-.939.47.47 0 0 1 0 .939zm0-1.875c-.776 0-1.407.63-1.407 1.406a1.408 1.408 0 0 0 2.813 0c0-.775-.631-1.406-1.406-1.406zM20.765 8.9a.469.469 0 0 0-.639.178l-2.52 4.464a.469.469 0 0 0 .816.461l2.52-4.465a.469.469 0 0 0-.177-.638zm-10.14 4.513h1.969v-1.875h-1.969v1.875zm1.5 3.656a.47.47 0 0 1-.469.469h-1.031V14.35h1.5v2.719zM9.5 10.6v-.75a.75.75 0 1 1 .75.75H9.5zm.188 3.281v3.657H8.374v-6h1.313v2.343zm-2.626-4.03a.75.75 0 0 1 1.5 0v.75h-.75a.75.75 0 0 1-.75-.75zM5.47 13.412h1.968v-1.875H5.47v1.875zm1.968 4.125h-1.03a.47.47 0 0 1-.47-.469V14.35h1.5v3.188zm5.625-6.938h-1.3a1.69 1.69 0 0 0-1.511-2.437c-.48 0-.912.2-1.22.522a1.682 1.682 0 0 0-1.219-.522 1.69 1.69 0 0 0-1.51 2.437H5a.469.469 0 0 0-.469.469v2.812c0 .26.21.47.469.47v2.718c0 .775.63 1.406 1.406 1.406h5.25c.776 0 1.406-.63 1.406-1.406V14.35c.26 0 .47-.21.47-.469V11.07a.469.469 0 0 0-.47-.469zM25.532 6H9.671a.469.469 0 0 0 0 .938h15.39v13.687H2.938V6.937h3.047a.469.469 0 0 0 0-.937H2.47A.469.469 0 0 0 2 6.469v14.625c0 .259.21.468.469.468H25.53c.26 0 .469-.21.469-.468V6.469A.469.469 0 0 0 25.531 6zm-17.388.137a.472.472 0 0 0-.663 0 .472.472 0 0 0 0 .663.472.472 0 0 0 .663 0 .472.472 0 0 0 0-.663z"/>
    </g>
</svg>
