<svg xmlns="http://www.w3.org/2000/svg" width="24" height="24" viewBox="0 0 24 24">
    <g fill="none" fill-rule="evenodd">
        <rect width="24" height="24" fill="#2196F3" rx="12"/>
        <path fill="#FFF" d="M18.177 7.634a.947.947 0 0 0-.953-.954h-5.21c-.531 0-.977.423-.977.954V13.443l.683-.617c.032-.03.067-.056.093-.08.312-.287.392-.333.8-.325l.202.002h4.41c.53 0 .952-.43.952-.962V7.634zm.68 0v3.827c0 .906-.726 1.642-1.633 1.642h-4.41c-.085 0-.156 0-.216-.002a1.823 1.823 0 0 0-.16.001 2.266 2.266 0 0 0-.165.145l-.09.081-1.247 1.137a.347.347 0 1 1-.58-.251V10.61H6.796a.974.974 0 0 0-.972.967v3.827c0 .531.44.949.972.949h4.925c.085 0 .164.039.227.096l1.016.937v-3.232a.34.34 0 1 1 .68 0v4.003a.335.335 0 0 1-.335.336.343.343 0 0 1-.229-.092l-1.49-1.368H6.794c-.907 0-1.652-.723-1.652-1.63v-3.826c0-.906.745-1.647 1.652-1.647h3.562V7.634c0-.906.75-1.634 1.657-1.634h5.21c.907 0 1.633.728 1.633 1.634zm-9.986 5.431a.34.34 0 1 0 0 .68h.028a.34.34 0 1 0 0-.68h-.028zm-1.182 0a.34.34 0 1 0 0 .68h.028a.34.34 0 1 0 0-.68H7.69zm6.854-2.369a.334.334 0 0 0-.333.34v.003c0 .188.145.339.333.339a.341.341 0 0 0 0-.682zm1.093-1.751c0 .415-.303.668-.524.854-.083.07-.24.198-.239.246a.335.335 0 0 1-.337.338h-.003a.336.336 0 0 1-.34-.333c-.003-.368.266-.588.482-.77.17-.142.28-.242.28-.334a.337.337 0 0 0-.672 0 .34.34 0 1 1-.68 0 1.018 1.018 0 0 1 2.033-.001z"/>
    </g>
</svg>
