<svg xmlns="http://www.w3.org/2000/svg" width="14" height="14" viewBox="0 0 14 14">
    <g fill="none" fill-rule="evenodd">
        <path d="M0 0h14v14H0z"/>
        <path fill="#424242" d="M3 9.827a.4.4 0 1 1 0 .8.4.4 0 0 1 0-.8zm8-2.4h.8a.4.4 0 0 1 0 .8H11a.4.4 0 0 0 0 .8h.8a.4.4 0 0 1 0 .8H11a.4.4 0 0 0 0 .8.4.4 0 0 1 0 .8H7.65c-.389 0-.772-.062-1.14-.185L5 10.738v-4.95c.627-.118 1.242-.516 1.796-1.166A5.837 5.837 0 0 0 7.97 2.369l.142-.569H8.2c.441 0 .8.359.8.8V3c0 .537-.168 1.567-.383 2.027H7.8a.4.4 0 0 0 0 .8h4a.4.4 0 0 1 0 .8H11a.4.4 0 0 0 0 .8zm-6.8 3.6a.4.4 0 0 1-.4.4h-2v-6.4h2c.22 0 .4.18.4.4v5.6zm8.494-4a1.201 1.201 0 0 0-.894-2H9.47c.232-.7.33-1.63.33-2.027v-.4c0-.882-.718-1.6-1.6-1.6h-.4a.4.4 0 0 0-.388.303l-.218.872C6.89 3.395 5.92 4.742 4.916 4.987a1.202 1.202 0 0 0-1.116-.76H1.4a.4.4 0 0 0-.4.4v7.2c0 .22.18.4.4.4h2.4c.477 0 .89-.28 1.083-.684L6.258 12c.449.15.917.226 1.391.226H11a1.201 1.201 0 0 0 1.116-1.642 1.202 1.202 0 0 0 .578-1.958 1.196 1.196 0 0 0 0-1.6z"/>
    </g>
</svg>
