<svg xmlns="http://www.w3.org/2000/svg" width="32" height="32" viewBox="0 0 32 32">
    <g fill="none" fill-rule="evenodd">
        <path fill="#757575" d="M26.733 18.8h-1.4v-7.513A2.337 2.337 0 0 0 27.2 9V6.2a2.336 2.336 0 0 0-2.333-2.333H19.22A2.337 2.337 0 0 0 16.933 2h-2.8a2.337 2.337 0 0 0-2.286 1.867H6.2A2.336 2.336 0 0 0 3.867 6.2V9a2.337 2.337 0 0 0 1.866 2.287V18.8h-1.4A2.336 2.336 0 0 0 2 21.133v3.734A2.336 2.336 0 0 0 4.333 27.2h1.4v.467A2.336 2.336 0 0 0 8.067 30H23a2.336 2.336 0 0 0 2.333-2.333V27.2h1.4a2.336 2.336 0 0 0 2.334-2.333v-3.734a2.336 2.336 0 0 0-2.334-2.333z"/>
        <path fill="#EBEBEB" d="M4.333 26.267a1.4 1.4 0 0 1-1.4-1.4v-3.734a1.4 1.4 0 0 1 1.4-1.4h1.4v6.534h-1.4zM28.133 24.867a1.4 1.4 0 0 1-1.4 1.4h-1.4v-6.534h1.4a1.4 1.4 0 0 1 1.4 1.4v3.734z"/>
        <path fill="#FFF" d="M24.4 27.667a1.4 1.4 0 0 1-1.4 1.4H8.067a1.4 1.4 0 0 1-1.4-1.4V11.333h1.866v2.8h-.466a.467.467 0 0 0 0 .934h.466v.466a1.4 1.4 0 0 0 2.8 0v-.466h.467a.467.467 0 0 0 0-.934h-.467v-2.8h8.4v2.8h-.466a.467.467 0 0 0 0 .934h.466v.466a1.4 1.4 0 0 0 2.8 0v-.466H23a.467.467 0 0 0 0-.934h-.467v-2.8H24.4v16.334z"/>
        <path fill="#757575" d="M22.067 19.733H9a.467.467 0 0 0-.467.467v7.467c0 .257.21.466.467.466h13.067a.467.467 0 0 0 .466-.466V20.2a.467.467 0 0 0-.466-.467z"/>
        <path fill="#EBEBEB" d="M4.8 9V6.2a1.4 1.4 0 0 1 1.4-1.4h2.333v5.6H6.2A1.4 1.4 0 0 1 4.8 9zM26.267 6.2V9a1.4 1.4 0 0 1-1.4 1.4h-2.334V4.8h2.334a1.4 1.4 0 0 1 1.4 1.4zM11.333 10.4h8.4V4.8h-8.4zM21.6 27.2H9.467v-4.058a5.129 5.129 0 0 0 4.2 2.191h1.4v.467a.467.467 0 0 0 .933 0v-.467h1.4a5.129 5.129 0 0 0 4.2-2.19V27.2z"/>
        <path fill="#EBEBEB" d="M21.574 20.667A4.206 4.206 0 0 1 17.4 24.4H16v-.467a.467.467 0 0 0-.933 0v.467h-1.4a4.206 4.206 0 0 1-4.175-3.733h12.082z"/>
        <path fill="#FFF" d="M20.667 14.133h.933v-2.8h-.933zM20.667 10.4h.933V4.8h-.933zM9.467 14.133h.933v-2.8h-.933zM9.467 10.4h.933V4.8h-.933zM9.467 15.067h.933v.466a.467.467 0 0 1-.933 0v-.466zM20.667 15.067h.933v.466a.467.467 0 0 1-.933 0v-.466zM14.133 2.933h2.8c.593.001 1.122.375 1.32.934h-5.44a1.403 1.403 0 0 1 1.32-.934z"/>
    </g>
</svg>
