<svg xmlns="http://www.w3.org/2000/svg" width="60" height="60" viewBox="0 0 60 60">
    <g fill="none" fill-rule="evenodd">
        <rect width="60" height="60" fill="#2196F3" rx="30"/>
        <path fill="#FFF" d="M29.922 10.082C19.155 9.869 10.246 18.408 10 29.174a18.732 18.732 0 0 0 6.64 14.21v5.712a.83.83 0 0 0 1.27.704l4.628-2.89a20.556 20.556 0 0 0 7.384 1.356c10.767.212 19.677-8.326 19.922-19.092C49.6 18.408 40.69 9.869 29.922 10.082"/>
        <path fill="#2196F3" d="M43.038 23.695a.83.83 0 0 0-1.063-.232l-8.633 4.706-5.37-4.605a.83.83 0 0 0-1.128.043l-9.96 9.961a.83.83 0 0 0 .984 1.315l8.633-4.707 5.375 4.607a.83.83 0 0 0 1.128-.043l9.96-9.96a.83.83 0 0 0 .074-1.085"/>
    </g>
</svg>
