<svg xmlns="http://www.w3.org/2000/svg" xmlns:xlink="http://www.w3.org/1999/xlink" width="48" height="48" viewBox="0 0 48 48">
    <defs>
        <circle id="a" cx="24" cy="24" r="24"/>
        <path id="c" d="M0 .062h23.617v24.724H0z"/>
    </defs>
    <g fill="none" fill-rule="evenodd">
        <mask id="b" fill="#fff">
            <use xlink:href="#a"/>
        </mask>
        <use fill="#00BF8F" fill-opacity=".15" xlink:href="#a"/>
        <g mask="url(#b)">
            <path fill="#F8EC7D" d="M35.112 19.879l-2.845 4.664-.006-.004h-16.89l-2.842-4.66h17.319z"/>
            <path fill="#E48E66" d="M32.267 24.543l-5.624 9.222v6.913l-5.646-3.196v-3.717l-5.626-9.226h16.89z"/>
            <path fill="#6FE3FF" d="M29.848 19.73v.149h-5.264v-.15c0-1.495 1.178-2.707 2.632-2.707 1.454 0 2.632 1.212 2.632 2.707M26.494 6.625c1.453 0 2.632 1.213 2.632 2.708s-1.18 2.707-2.633 2.707c-1.454 0-2.632-1.212-2.632-2.708 0-1.495 1.18-2.707 2.633-2.707M18.003 12.04c1.453 0 2.632 1.212 2.632 2.707 0 1.495-1.178 2.708-2.631 2.708-1.454 0-2.633-1.212-2.633-2.707 0-1.496 1.178-2.707 2.632-2.708"/>
            <g transform="translate(12 16.428)">
                <mask id="d" fill="#fff">
                    <use xlink:href="#c"/>
                </mask>
                <path fill="#63316D" d="M19.982 7.562H3.659L1.471 3.988H22.17l-2.188 3.574zm-5.802 9.484a.596.596 0 0 0-.101.292v6.005l-4.604-2.606v-3.4a.554.554 0 0 0-.058-.29L4.313 8.633h15.015l-5.148 8.412zm1.036-15.915c1.016.013 1.883.759 2.077 1.785h-4.154c.193-1.026 1.06-1.772 2.077-1.785zm7.896 1.785h-4.766c-.209-1.778-1.78-3.045-3.508-2.83-1.442.178-2.578 1.347-2.752 2.83H.529A.548.548 0 0 0 0 3.482c.002.089.024.176.066.254l8.367 13.756v3.562a.56.56 0 0 0 .291.47l5.657 3.196a.53.53 0 0 0 .257.066.447.447 0 0 0 .246-.075.522.522 0 0 0 .237-.461v-6.758l8.41-13.756a.55.55 0 0 0 .026-.544.502.502 0 0 0-.445-.276z" mask="url(#d)"/>
            </g>
            <path fill="#63316D" d="M24.382 9.332c0-1.199.946-2.17 2.112-2.17 1.166 0 2.11.972 2.11 2.171 0 1.199-.945 2.17-2.11 2.171-1.166 0-2.11-.973-2.112-2.172m5.265 0c0-1.791-1.413-3.243-3.154-3.243-1.742 0-3.153 1.453-3.153 3.244 0 1.792 1.412 3.243 3.154 3.243 1.74-.002 3.151-1.453 3.153-3.244M15.892 14.747c0-1.2.946-2.171 2.112-2.17 1.165 0 2.11.972 2.11 2.171 0 1.2-.945 2.171-2.111 2.17-1.166 0-2.11-.972-2.111-2.17m5.264 0c0-1.792-1.412-3.244-3.153-3.244-1.742 0-3.153 1.453-3.153 3.244 0 1.79 1.411 3.243 3.153 3.243 1.74-.002 3.152-1.453 3.153-3.244"/>
        </g>
    </g>
</svg>
