<svg xmlns="http://www.w3.org/2000/svg" width="16" height="16" viewBox="0 0 16 16">
    <g fill="none" fill-rule="evenodd">
        <path fill="#F5F5F5" d="M-1225-10H141V98h-1366z"/>
        <path d="M0 0h16v16H0z"/>
        <path fill="#00BF8F" d="M4.873 12.302h7.315V1.967H4.873v10.335zM8.53 14.85a.744.744 0 0 1 0-1.487.743.743 0 0 1 0 1.487zM6.869.708h3.324c.084 0 .152.125.152.28 0 .155-.068.281-.152.281H6.869c-.084 0-.151-.126-.151-.28 0-.156.067-.281.151-.281zM11.896 0H5.164C4.52 0 4 .522 4 1.166v13.67C4 15.478 4.52 16 5.164 16h6.732c.643 0 1.165-.522 1.165-1.164V1.166C13.06.522 12.539 0 11.896 0z"/>
    </g>
</svg>
