<svg xmlns="http://www.w3.org/2000/svg" width="16" height="16" viewBox="0 0 16 16">
    <g fill="none" fill-rule="evenodd">
        <path d="M0 0h16v16H0z"/>
        <path fill="#757575" d="M.954 6.822A5.87 5.87 0 0 1 6.82.958a5.87 5.87 0 0 1 5.864 5.864c0 3.232-2.629 5.868-5.864 5.868A5.874 5.874 0 0 1 .954 6.822m14.904 8.362l-3.888-3.888a6.795 6.795 0 0 0 1.674-4.474A6.83 6.83 0 0 0 6.822 0 6.83 6.83 0 0 0 0 6.822c0 3.76 3.062 6.822 6.822 6.822 1.71 0 3.275-.631 4.474-1.674l3.888 3.888a.467.467 0 0 0 .674 0 .48.48 0 0 0 0-.674"/>
    </g>
</svg>
