<svg xmlns="http://www.w3.org/2000/svg" width="32" height="32" viewBox="0 0 32 32">
    <g fill="none" fill-rule="evenodd">
        <path fill="#00BF8F" d="M30.5 8H29v-.5c0-.3-.2-.5-.5-.5s-.5.2-.5.5V8h-2v-.5c0-.3-.2-.5-.5-.5s-.5.2-.5.5V8h-2V3.5c0-.3-.2-.5-.5-.5H18v-.5c0-.3-.2-.5-.5-.5s-.5.2-.5.5V3h-2v-.5c0-.3-.2-.5-.5-.5s-.5.2-.5.5V3H9.5c-.3 0-.5.2-.5.5V8H7v-.5c0-.3-.2-.5-.5-.5s-.5.2-.5.5V8H4v-.5c0-.3-.2-.5-.5-.5s-.5.2-.5.5V8H1.5c-.3 0-.5.2-.5.5v22c0 .3.2.5.5.5h29c.3 0 .5-.2.5-.5v-22c0-.3-.2-.5-.5-.5z"/>
        <path fill="#CCF2E9" d="M23 30h7v-3h-7zM16.5 30h3v-4h-3zM12.5 30h3v-4h-3z"/>
        <path fill="#FFF" d="M10 26.5V4h12v26h-1.5v-4.5c0-.3-.2-.5-.5-.5h-8c-.3 0-.5.2-.5.5V30H10v-3.5z"/>
        <path fill="#CCF2E9" d="M2 30h7v-3H2zM2 26h7V9H2zM23 26h7V9h-7z"/>
        <path fill="#00BF8F" d="M26 25h1c.55 0 1-.45 1-1v-1c0-.55-.45-1-1-1h-1c-.55 0-1 .45-1 1v1c0 .55.45 1 1 1zM26 21h1c.55 0 1-.45 1-1v-1c0-.55-.45-1-1-1h-1c-.55 0-1 .45-1 1v1c0 .55.45 1 1 1zM26 17h1c.55 0 1-.45 1-1v-1c0-.55-.45-1-1-1h-1c-.55 0-1 .45-1 1v1c0 .55.45 1 1 1zM26 13h1c.55 0 1-.45 1-1v-1c0-.55-.45-1-1-1h-1c-.55 0-1 .45-1 1v1c0 .55.45 1 1 1z"/>
        <path fill="#FFF" d="M26 24h1v-1h-1zM26 20h1v-1h-1zM26 16h1v-1h-1zM26 12h1v-1h-1z"/>
        <g>
            <path fill="#00BF8F" d="M18 21.5h1c.55 0 1-.45 1-1v-1c0-.55-.45-1-1-1h-1c-.55 0-1 .45-1 1v1c0 .55.45 1 1 1zM13 21.5h1c.55 0 1-.45 1-1v-1c0-.55-.45-1-1-1h-1c-.55 0-1 .45-1 1v1c0 .55.45 1 1 1zM18 17.5h1c.55 0 1-.45 1-1v-1c0-.55-.45-1-1-1h-1c-.55 0-1 .45-1 1v1c0 .55.45 1 1 1zM13 17.5h1c.55 0 1-.45 1-1v-1c0-.55-.45-1-1-1h-1c-.55 0-1 .45-1 1v1c0 .55.45 1 1 1zM18 13.5h1c.55 0 1-.45 1-1v-1c0-.55-.45-1-1-1h-1c-.55 0-1 .45-1 1v1c0 .55.45 1 1 1zM13 13.5h1c.55 0 1-.45 1-1v-1c0-.55-.45-1-1-1h-1c-.55 0-1 .45-1 1v1c0 .55.45 1 1 1zM18 9.5h1c.55 0 1-.45 1-1v-1c0-.55-.45-1-1-1h-1c-.55 0-1 .45-1 1v1c0 .55.45 1 1 1zM13 9.5h1c.55 0 1-.45 1-1v-1c0-.55-.45-1-1-1h-1c-.55 0-1 .45-1 1v1c0 .55.45 1 1 1z"/>
            <path fill="#FFF" d="M18 20.5h1v-1h-1zM13 20.5h1v-1h-1zM18 16.5h1v-1h-1zM13 16.5h1v-1h-1zM18 12.5h1v-1h-1zM13 12.5h1v-1h-1zM18 8.5h1v-1h-1zM13 8.5h1v-1h-1z"/>
        </g>
        <g>
            <path fill="#00BF8F" d="M6 22H5c-.55 0-1 .45-1 1v1c0 .55.45 1 1 1h1c.55 0 1-.45 1-1v-1c0-.55-.45-1-1-1zM6 18H5c-.55 0-1 .45-1 1v1c0 .55.45 1 1 1h1c.55 0 1-.45 1-1v-1c0-.55-.45-1-1-1zM6 14H5c-.55 0-1 .45-1 1v1c0 .55.45 1 1 1h1c.55 0 1-.45 1-1v-1c0-.55-.45-1-1-1zM6 10H5c-.55 0-1 .45-1 1v1c0 .55.45 1 1 1h1c.55 0 1-.45 1-1v-1c0-.55-.45-1-1-1z"/>
            <path fill="#FFF" d="M6 24H5v-1h1v1zM6 20H5v-1h1v1zM6 16H5v-1h1v1zM6 12H5v-1h1v1z"/>
        </g>
    </g>
</svg>
