<svg xmlns="http://www.w3.org/2000/svg" width="36" height="36" viewBox="0 0 36 36">
    <g fill="none" fill-rule="evenodd">
        <path d="M0 0h36v36H0z"/>
        <path fill="#2196F3" d="M11.876 21.788l2.6-2.6a.58.58 0 0 1 .819 0l1.084 1.084.781-.782-2.744-4.313a.86.86 0 0 0-.765-.403.864.864 0 0 0-.736.453l-2.749 5.04 1.71 1.521zm4.912-.288a.58.58 0 0 1-.819 0l-1.084-1.084-2.577 2.577a.578.578 0 0 1-.794.023l-1.916-1.707L6 27.905h10.08l2.97-5.446-1.253-1.968-1.009 1.009zm4.184 3.366l2.614-1.307a.58.58 0 0 1 .668.109l1.084 1.083 1.213-1.18-2.862-4.498a.863.863 0 0 0-.765-.403.864.864 0 0 0-.736.453l-2.457 4.505 1.241 1.238zm-1.289-3.568l1.489-2.729a2.011 2.011 0 0 1 1.713-1.056 2.015 2.015 0 0 1 1.78.938l2.416 3.796A7.367 7.367 0 0 0 30 16.375C30 12.308 26.691 9 22.625 9c-3.474 0-6.392 2.415-7.17 5.653l4.228 6.645zm9.626 6.607l-2.134-3.353-1.428 1.427a.579.579 0 0 1-.819 0l-1.198-1.198-2.613 1.307a.578.578 0 0 1-.668-.108l-1.294-1.295-1.757 3.22H29.31z"/>
    </g>
</svg>
