<svg xmlns="http://www.w3.org/2000/svg" width="16" height="16" viewBox="0 0 16 16">
    <g fill="none" fill-rule="evenodd">
        <path fill="#F5F5F5" d="M-1139-10H227V98h-1366z"/>
        <path d="M0 0h16v16H0z"/>
        <path fill="#00BF8F" d="M8 4.016a2.503 2.503 0 0 0-2.5 2.5.625.625 0 1 0 1.25 0c0-.69.56-1.25 1.25-1.25s1.25.56 1.25 1.25c0 .689-.56 1.25-1.25 1.25a.625.625 0 0 0-.625.625v1.562a.625.625 0 1 0 1.25 0V8.937A2.504 2.504 0 0 0 10.5 6.516c0-1.379-1.121-2.5-2.5-2.5M8 14.75A6.746 6.746 0 0 1 1.25 8c0-3.73 3.019-6.75 6.75-6.75 3.73 0 6.75 3.019 6.75 6.75 0 3.73-3.019 6.75-6.75 6.75M8 0C3.579 0 0 3.578 0 8c0 4.421 3.578 8 8 8 4.421 0 8-3.578 8-8 0-4.421-3.578-8-8-8m0 11.047a.781.781 0 1 1 0 1.562.781.781 0 0 1 0-1.562"/>
    </g>
</svg>
