<svg xmlns="http://www.w3.org/2000/svg" width="32" height="32" viewBox="0 0 32 32">
    <g fill="none" fill-rule="evenodd">
        <path fill="#00BF8F" d="M29.122 11.557l.878.024V7H2v17.974h28v-4.58l-.842.022h-.035a1.222 1.222 0 0 1 0-2.443l.877.024v-4.02l-.842.022-.033.001a1.222 1.222 0 0 1-.003-2.443z"/>
        <path fill="#FFF" d="M28.36 16.437a2.867 2.867 0 0 0-2.097 2.758c0 1.313.889 2.423 2.096 2.758v1.38H3.641V8.641h24.718v1.38a2.867 2.867 0 0 0-2.096 2.758c0 1.313.889 2.422 2.096 2.758v.9z"/>
        <path fill="#00BF8F" d="M12.996 12.22l-5.144 7.533h1.819l5.143-7.532zM10.575 14.211c0-1.334-.861-2.098-2.002-2.098-1.14 0-2.002.764-2.002 2.098 0 1.346.861 2.099 2.002 2.099 1.14 0 2.002-.753 2.002-2.099zM14.094 15.664c-1.141 0-2.002.764-2.002 2.099 0 1.345.86 2.098 2.002 2.098 1.14 0 2.001-.753 2.001-2.098 0-1.335-.86-2.099-2.001-2.099z"/>
        <path fill="#FFF" d="M8.1 14.211c0-.72.236-.936.473-.936s.473.215.473.936c0 .721-.236.937-.473.937s-.474-.216-.474-.937zM14.094 18.699c-.237 0-.474-.215-.474-.936 0-.721.237-.937.474-.937.236 0 .473.216.473.937 0 .72-.237.936-.473.936z"/>
        <path fill="#00BF8F" d="M20.43 21.656h1.64v-2.592h-1.64zM20.43 12.91h1.64v-2.592h-1.64zM20.43 17.283h1.64v-2.592h-1.64z"/>
    </g>
</svg>
