<svg xmlns="http://www.w3.org/2000/svg" width="12" height="12" viewBox="0 0 12 12">
    <g fill="none" fill-rule="evenodd">
        <path d="M0 0h12v12H0z"/>
        <path fill="#FFFFFF" d="M8.874 3.01a.35.35 0 1 1 0 .7.35.35 0 0 1 0-.7M2.547 8.53a.818.818 0 1 0 1.156 1.157.818.818 0 0 0-1.156-1.158m7.517-2.763a.468.468 0 1 1 0 .936.468.468 0 0 1 0-.936M1.935 5.3a.936.936 0 1 1 0 1.871.936.936 0 0 1 0-1.871m6.939 3.224a.585.585 0 1 1 0 1.17.585.585 0 0 1 0-1.17M3.126 2.307a1.053 1.053 0 1 1 0 2.106 1.053 1.053 0 0 1 0-2.106M6 9.597A.702.702 0 1 1 6 11a.702.702 0 0 1 0-1.403M6 1a1.17 1.17 0 1 1 0 2.34A1.17 1.17 0 0 1 6 1"/>
    </g>
</svg>
