<svg xmlns="http://www.w3.org/2000/svg" width="24" height="24" viewBox="0 0 24 24">
    <g fill="none" fill-rule="evenodd">
        <path d="M0 0h24v24H0z"/>
        <path fill="#FFF" d="M16.19 19.12c-2.802 0-5.14-.9-5.69-2.096-.08.174-.122.355-.122.54v.571c0 1.456 2.602 2.636 5.811 2.636 3.21 0 5.811-1.18 5.811-2.636v-.571c0-.185-.042-.366-.122-.54-.55 1.197-2.888 2.096-5.689 2.096zm0-2.943c-2.802 0-5.14-.899-5.69-2.095-.08.174-.122.354-.122.54v.571c0 1.456 2.602 2.636 5.811 2.636 3.21 0 5.811-1.18 5.811-2.636v-.572c0-.185-.042-.365-.122-.54-.55 1.197-2.888 2.096-5.689 2.096zm0-3.1c-2.802 0-5.14-.9-5.69-2.096-.08.174-.122.354-.122.54v.57c0 1.456 2.602 2.636 5.811 2.636 3.21 0 5.811-1.18 5.811-2.635v-.572c0-.185-.042-.365-.122-.54-.55 1.197-2.888 2.096-5.689 2.096zm0-2.943c-2.802 0-5.14-.9-5.69-2.096-.08.174-.122.355-.122.54v.571c0 1.456 2.602 2.636 5.811 2.636 3.21 0 5.811-1.18 5.811-2.636v-.571c0-.185-.042-.366-.122-.54-.55 1.197-2.888 2.096-5.689 2.096zm0-7.134c-3.21 0-5.812 1.18-5.812 2.635v.572c0 1.456 2.602 2.636 5.811 2.636C19.4 8.843 22 7.663 22 6.207v-.572C22 4.18 19.398 3 16.19 3zM9.43 17.564v-.128c-.514.067-1.057.104-1.62.104-2.8 0-5.139-.9-5.688-2.096-.08.174-.122.355-.122.54v.571c0 1.456 2.602 2.636 5.81 2.636.643 0 1.26-.047 1.837-.134a2.08 2.08 0 0 1-.217-.922v-.571zm-1.62-1.315c.563 0 1.106-.037 1.62-.104v-1.652c-.514.068-1.057.104-1.62.104-2.8 0-5.139-.899-5.688-2.095-.08.174-.122.354-.122.54v.571c0 1.456 2.602 2.636 5.81 2.636zm0-2.943c.563 0 1.106-.036 1.62-.104V7.567a12.456 12.456 0 0 0-1.62-.103C4.603 7.464 2 8.644 2 10.099v.572c0 1.455 2.602 2.635 5.81 2.635z"/>
    </g>
</svg>
