<svg xmlns="http://www.w3.org/2000/svg" width="24" height="24" viewBox="0 0 24 24">
    <g fill="none" fill-rule="evenodd">
        <path d="M0 0h24v24H0z"/>
        <path fill="#FFF" d="M21.08 13.456a5.399 5.399 0 0 1 1.206 3.406 5.43 5.43 0 0 1-5.424 5.424 5.424 5.424 0 0 1-4.508-2.411H2.317a.603.603 0 0 1-.603-.603V3.562c0-.332.27-.602.603-.602h3.054v-.643a.603.603 0 1 1 1.205 0v.643h2.41v-.643a.603.603 0 1 1 1.206 0v.643h2.41v-.643a.603.603 0 1 1 1.206 0v.643h2.41v-.643a.603.603 0 1 1 1.206 0v.643h3.054c.333 0 .602.27.602.603v9.893zM2.92 18.67h8.828a5.37 5.37 0 0 1-.277-1.206h-.636a.603.603 0 1 1 0-1.205h.636c.047-.418.14-.822.277-1.205h-.913a.603.603 0 1 1 0-1.206h1.205a.6.6 0 0 1 .271.065 5.424 5.424 0 0 1 4.55-2.476c1.115 0 2.152.338 3.014.917V7.78H2.92V18.67zm12.736-8.438a.603.603 0 1 1 0-1.205h1.206a.603.603 0 1 1 0 1.205h-1.206zM7.18 16.26a.603.603 0 1 1 0 1.205H5.973a.603.603 0 1 1 0-1.205H7.18zm3.656-3.616a.603.603 0 1 1 0-1.206h1.205a.603.603 0 1 1 0 1.206h-1.205zm0-2.41a.603.603 0 1 1 0-1.206h1.205a.603.603 0 1 1 0 1.205h-1.205zm-3.656 3.615a.603.603 0 1 1 0 1.206H5.973a.603.603 0 1 1 0-1.206H7.18zm0-2.41a.603.603 0 1 1 0 1.205H5.973a.603.603 0 1 1 0-1.206H7.18zm0-2.411a.603.603 0 1 1 0 1.205H5.973a.603.603 0 1 1 0-1.205H7.18zm9.683 12.053a4.223 4.223 0 0 0 4.218-4.218 4.223 4.223 0 0 0-4.218-4.22 4.223 4.223 0 0 0-4.22 4.22 4.223 4.223 0 0 0 4.22 4.218zm2.41-4.821a.603.603 0 1 1 0 1.205h-2.41a.603.603 0 0 1-.603-.602V14.45a.603.603 0 1 1 1.205 0v1.808h1.808zM5.371 4.165H2.92v2.41h16.955v-2.41h-2.45v.603a.603.603 0 1 1-1.206 0v-.603h-2.411v.603a.603.603 0 1 1-1.205 0v-.603h-2.411v.603a.603.603 0 1 1-1.205 0v-.603H6.576v.603a.603.603 0 1 1-1.205 0v-.603z"/>
    </g>
</svg>
