<svg xmlns="http://www.w3.org/2000/svg" width="24" height="24" viewBox="0 0 24 24">
    <defs>
        <linearGradient id="a" x1="100%" x2="50%" y1="50.228%" y2="50.228%">
            <stop offset="0%" stop-color="#31BCDC"/>
            <stop offset="100%" stop-color="#00D4A9"/>
        </linearGradient>
    </defs>
    <g fill="none" fill-rule="evenodd">
        <path d="M0 0h24v24H0z"/>
        <path fill="url(#a)" d="M1.608 17.849a1.608 1.608 0 1 1 0 3.216 1.608 1.608 0 0 1 0-3.216m0-7.425a1.608 1.608 0 1 1 0 3.217 1.608 1.608 0 0 1 0-3.217m0-7.424a1.608 1.608 0 1 1 0 3.216 1.608 1.608 0 0 1 0-3.216m21.195 2.713H6.754a1.197 1.197 0 1 1 0-2.395h16.048a1.197 1.197 0 0 1 0 2.395m0 7.517H6.755a1.197 1.197 0 1 1 0-2.395h16.048a1.197 1.197 0 0 1 0 2.395m0 7.517H6.755a1.197 1.197 0 1 1 0-2.395h16.048a1.197 1.197 0 0 1 0 2.395"/>
    </g>
</svg>
