<svg xmlns="http://www.w3.org/2000/svg" width="72" height="72">
    <path fill="none" d="M0 0h72v72H0V0z"/>
    <path fill="#FFF" fill-rule="evenodd" d="M28.261 29.49v23.241c0 .377-.121.686-.364.928-.242.242-.553.363-.93.363h-2.59c-.379 0-.689-.121-.931-.363-.243-.242-.365-.551-.365-.928V29.49c0-.376.122-.685.365-.927.242-.243.552-.364.931-.364h2.59c.377 0 .688.121.93.364.243.242.364.551.364.927zm10.361 0v23.241c0 .377-.121.686-.364.928-.242.242-.553.363-.93.363h-2.59c-.379 0-.689-.121-.931-.363-.244-.242-.365-.551-.365-.928V29.49c0-.376.121-.685.365-.927.242-.243.552-.364.931-.364h2.59c.377 0 .688.121.93.364.243.242.364.551.364.927zm10.361-1.004v23.241c0 .376-.121.686-.364.928-.242.242-.553.363-.93.363h-2.591c-.378 0-.688-.121-.93-.363-.244-.242-.365-.552-.365-.928V28.486c0-.376.121-.686.365-.928.242-.242.552-.363.93-.363h2.591c.377 0 .688.121.93.363.243.242.364.552.364.928zm5.181 32.225V18.444H17.9v42.267c0 .592.095 1.136.284 1.634.189.498.385.861.587 1.089.202.229.344.343.425.343h33.673c.081 0 .223-.114.425-.343.203-.228.398-.591.587-1.089a4.567 4.567 0 0 0 .283-1.634zM26.967 13.279h18.131l-1.942-4.72a1.143 1.143 0 0 0-.689-.444H29.638c-.27.054-.499.202-.689.444l-1.982 4.72zm37.558 1.292v2.582c0 .376-.121.686-.364.928s-.553.363-.931.363h-3.886v42.267c0 2.232-.634 4.163-1.902 5.79-1.268 1.627-2.792 2.441-4.573 2.441H19.196c-1.781 0-3.306-.787-4.574-2.36-1.268-1.574-1.902-3.477-1.902-5.709V18.444H8.835c-.378 0-.688-.121-.931-.363-.243-.242-.365-.552-.365-.928v-2.582c0-.377.122-.686.365-.928s.553-.364.931-.364h12.506l2.833-6.738c.404-.995 1.133-1.842 2.185-2.542 1.053-.699 2.119-1.049 3.198-1.049h12.951c1.079 0 2.145.35 3.197 1.049 1.053.7 1.781 1.547 2.186 2.542l2.833 6.738H63.23c.378 0 .688.122.931.364.243.242.364.551.364.928z"/>
</svg>
