<svg xmlns="http://www.w3.org/2000/svg" width="32" height="32" viewBox="0 0 32 32">
    <path fill="#8BC34A" fill-rule="evenodd" d="M27.995 5.721a.811.811 0 0 0-.895-.716L4.72 7.49a.81.81 0 1 0 .18 1.612l10.531-1.17v3.738h1.136V7.807l10.71-1.19a.81.81 0 0 0 .717-.896zM8.898 26.554h2.521v-6.892H6.022a13.385 13.385 0 0 0 1.899 6.34c.206.342.577.552.977.552zM20.58 11.635v6.892h5.397a13.385 13.385 0 0 0-1.898-6.34 1.14 1.14 0 0 0-.978-.552h-2.52zm0 14.919h2.521c.4 0 .771-.21.978-.553a13.384 13.384 0 0 0 1.898-6.339H20.58v6.892zm-8.027 0h2.878V11.671h-2.878v14.883zm4.014 0h2.878V11.671h-2.878v14.883zM6.022 18.527h5.397v-6.892H8.898c-.4 0-.771.21-.977.553a13.384 13.384 0 0 0-1.899 6.339z"/>
</svg>
