<svg xmlns="http://www.w3.org/2000/svg" width="16" height="16" viewBox="0 0 16 16">
    <g fill="none" fill-rule="evenodd">
        <path d="M0 0h16v16H0z"/>
        <path fill="#00BF8F" d="M11.91 5.07c0 .123-.1.223-.223.223h-1.153a.224.224 0 0 1-.224-.224V3.916c0-.124.1-.224.224-.224h1.153c.124 0 .224.1.224.224v1.153zm0 2.328c0 .123-.1.223-.223.223h-1.153a.224.224 0 0 1-.224-.223V6.244c0-.123.1-.223.224-.223h1.153c.124 0 .224.1.224.223v1.154zm0 2.328c0 .124-.1.224-.223.224h-1.153a.223.223 0 0 1-.224-.224V8.573c0-.124.1-.224.224-.224h1.153c.124 0 .224.1.224.224v1.153zm0 2.329c0 .123-.1.223-.223.223h-1.153a.224.224 0 0 1-.224-.223v-1.154c0-.123.1-.223.224-.223h1.153c.124 0 .224.1.224.223v1.154zM9.117 5.069c0 .124-.1.224-.223.224H7.739a.223.223 0 0 1-.223-.224V3.916c0-.124.1-.224.223-.224h1.154c.123 0 .223.1.223.224v1.153zm0 2.329c0 .123-.1.223-.223.223H7.739a.223.223 0 0 1-.223-.223V6.244c0-.123.1-.223.223-.223h1.154c.123 0 .223.1.223.223v1.154zm0 2.328c0 .124-.1.224-.223.224H7.739a.223.223 0 0 1-.223-.224V8.573c0-.124.1-.224.223-.224h1.154c.123 0 .223.1.223.224v1.153zm0 2.329c0 .123-.1.223-.223.223H7.739a.223.223 0 0 1-.223-.223v-1.154c0-.123.1-.223.223-.223h1.154c.123 0 .223.1.223.223v1.154zM6.322 5.069c0 .124-.1.224-.223.224H4.945a.224.224 0 0 1-.224-.224V3.916c0-.124.1-.224.224-.224H6.1c.123 0 .223.1.223.224v1.153zm0 2.329c0 .123-.1.223-.223.223H4.945a.224.224 0 0 1-.224-.223V6.244c0-.123.1-.223.224-.223H6.1c.123 0 .223.1.223.223v1.154zm0 2.328c0 .124-.1.224-.223.224H4.945a.224.224 0 0 1-.224-.224V8.573c0-.124.1-.224.224-.224H6.1c.123 0 .223.1.223.224v1.153zm0 2.329c0 .123-.1.223-.223.223H4.945a.224.224 0 0 1-.224-.223v-1.154c0-.123.1-.223.224-.223H6.1c.123 0 .223.1.223.223v1.154zm7.792 1.912h-1.126V3.396a.519.519 0 0 0-.519-.519H4.163a.519.519 0 0 0-.519.519v10.57H2.518a.519.519 0 0 0-.518.52V15h4.351v-2.12c0-.123.1-.223.224-.223h1.153c.124 0 .224.1.224.223V15h.728v-2.12c0-.123.1-.223.224-.223h1.153c.124 0 .224.1.224.223V15h4.351v-.515a.519.519 0 0 0-.518-.518zm-2.45-12.448a.519.519 0 0 0-.52-.519H5.488a.519.519 0 0 0-.518.519v.718h6.694v-.718z"/>
    </g>
</svg>
