<svg xmlns="http://www.w3.org/2000/svg" width="14" height="14" viewBox="0 0 14 14">
    <g fill="none" fill-rule="evenodd">
        <path d="M0 0h14v14H0z"/>
        <path fill="#FA0" d="M10.353 3.51a.41.41 0 1 1 0 .82.41.41 0 0 1 0-.82M2.972 9.952a.954.954 0 1 0 1.348 1.35.954.954 0 0 0-1.348-1.35m8.77-3.224a.546.546 0 1 1-.001 1.092.546.546 0 0 1 0-1.092m-9.483-.545a1.092 1.092 0 1 1 0 2.183 1.092 1.092 0 0 1 0-2.183m8.095 3.761a.682.682 0 1 1 0 1.365.682.682 0 0 1 0-1.365M3.647 2.692a1.228 1.228 0 1 1 0 2.456 1.228 1.228 0 0 1 0-2.456M7 11.196a.818.818 0 1 1 0 1.637.818.818 0 0 1 0-1.637m0-10.03a1.365 1.365 0 1 1 0 2.73 1.365 1.365 0 0 1 0-2.73"/>
    </g>
</svg>
