<svg xmlns="http://www.w3.org/2000/svg" width="32" height="32" viewBox="0 0 32 32">
    <g fill="none" fill-rule="evenodd">
        <path fill="#757575" d="M15.467 0v13.333H6.133l-.8-1.066H14.4V11.2H7.467v-.533H14.4V9.6H9.6V8.533h4.8V7.467H8.533V9.6H6.4v1.6H3.2l2.133 2.827v10.506h-1.6v2.134H1.067v4.266H0V32h32v-1.067h-1.067v-4.266h-2.666v-2.134h-1.6V14.027L28.8 11.2h-3.2V9.6h-2.133V7.467H17.6v1.066h4.8V9.6h-4.8v1.067h6.933v.533H17.6v1.067h9.067l-.8 1.066h-9.334V5.867h5.334V.533h-5.334V0z"/>
        <path fill="#FFF" d="M22.933 24.533H25.6V14.4h-2.667zM18.667 24.533h3.2V14.4h-3.2zM16.533 24.533H17.6V14.4h-1.067zM14.4 24.533h1.067V14.4H14.4zM10.133 24.533h3.2V14.4h-3.2zM6.4 24.533h2.667V14.4H6.4z"/>
        <path fill="#EBEBEB" d="M16.533 25.6H27.2v1.067h-9.6v1.066h12.267v3.2H19.2V28.8h-2.667zM4.8 25.6h10.667v3.2H12.8v2.133H2.133v-3.2H14.4v-1.066H4.8z"/>
        <path fill="#EBEBEB" d="M16.533 30.933h1.6v-1.066h-1.6zM13.867 30.933h1.6v-1.066h-1.6z"/>
        <path fill="#FFF" d="M16.533 4.8H20.8V1.6h-4.267z"/>
        <path fill="#757575" d="M18.133 3.733H19.2V2.667h-1.067z"/>
    </g>
</svg>
