<svg xmlns="http://www.w3.org/2000/svg" width="10" height="10" viewBox="0 0 10 10">
    <g fill="none" fill-rule="evenodd">
        <path d="M0 0h24v24H0z"/>
        <path fill="#FFF" d="M5.247.189L6.3 3.619l3.44-.004c.143 0 .26.12.26.27 0 .088-.044.169-.106.22L7.108 6.216l1.068 3.43a.27.27 0 0 1-.165.339.253.253 0 0 1-.25-.05l-2.76-2.113-2.779 2.125a.25.25 0 0 1-.36-.058.276.276 0 0 1-.036-.243h-.004l1.072-3.43L.108 4.104a.276.276 0 0 1-.058-.378c.055-.08.14-.119.227-.111l3.421.004L4.755.189a.258.258 0 0 1 .323-.177.274.274 0 0 1 .169.177"/>
    </g>
</svg>
