<svg xmlns="http://www.w3.org/2000/svg" width="32" height="32" viewBox="0 0 32 32">
    <g fill="none" fill-rule="evenodd">
        <path d="M0 0h32v32H0z"/>
        <path fill="#FFF" d="M21.518 10.782a.373.373 0 0 1-.373.373h-1.922a.373.373 0 0 1-.373-.373V8.86c0-.205.167-.372.373-.372h1.922c.206 0 .373.167.373.372v1.923zm0 3.881a.373.373 0 0 1-.373.373h-1.922a.373.373 0 0 1-.373-.373V12.74c0-.206.167-.372.373-.372h1.922c.206 0 .373.167.373.372v1.923zm0 3.881a.373.373 0 0 1-.373.373h-1.922a.372.372 0 0 1-.373-.373v-1.923c0-.206.167-.372.373-.372h1.922c.206 0 .373.166.373.372v1.923zm0 3.88a.373.373 0 0 1-.373.373h-1.922a.373.373 0 0 1-.373-.372v-1.923c0-.206.167-.373.373-.373h1.922c.206 0 .373.167.373.373v1.923zM16.86 10.783a.373.373 0 0 1-.373.373h-1.922a.372.372 0 0 1-.373-.373V8.86c0-.205.166-.372.373-.372h1.922c.206 0 .373.167.373.372v1.923zm0 3.881a.373.373 0 0 1-.373.373h-1.922a.372.372 0 0 1-.373-.373V12.74c0-.206.166-.372.373-.372h1.922c.206 0 .373.167.373.372v1.923zm0 3.881a.373.373 0 0 1-.373.373h-1.922a.372.372 0 0 1-.373-.373v-1.923c0-.206.166-.372.373-.372h1.922c.206 0 .373.166.373.372v1.923zm0 3.88a.373.373 0 0 1-.373.373h-1.922a.372.372 0 0 1-.373-.372v-1.923c0-.206.166-.373.373-.373h1.922c.206 0 .373.167.373.373v1.923zm-4.657-11.642a.373.373 0 0 1-.373.373H9.909a.373.373 0 0 1-.373-.373V8.86c0-.205.166-.372.373-.372h1.922c.206 0 .373.167.373.372v1.923zm0 3.881a.373.373 0 0 1-.373.373H9.909a.373.373 0 0 1-.373-.373V12.74c0-.206.166-.372.373-.372h1.922c.206 0 .373.167.373.372v1.923zm0 3.881a.373.373 0 0 1-.373.373H9.909a.373.373 0 0 1-.373-.373v-1.923c0-.206.166-.372.373-.372h1.922c.206 0 .373.166.373.372v1.923zm0 3.88a.373.373 0 0 1-.373.373H9.909a.373.373 0 0 1-.373-.372v-1.923c0-.206.166-.373.373-.373h1.922c.206 0 .373.167.373.373v1.923zm12.985 3.187h-1.876V7.993a.865.865 0 0 0-.864-.864H8.605a.865.865 0 0 0-.864.864v17.618H5.864a.865.865 0 0 0-.864.865v.857h7.252v-3.532c0-.206.167-.373.373-.373h1.922c.207 0 .373.167.373.373v3.532h1.213v-3.532c0-.206.167-.373.373-.373h1.922c.206 0 .373.167.373.373v3.532h7.253v-.857a.865.865 0 0 0-.865-.865zM21.106 4.864A.865.865 0 0 0 20.24 4h-9.429a.865.865 0 0 0-.864.864v1.197h11.158V4.864z"/>
    </g>
</svg>
