<svg xmlns="http://www.w3.org/2000/svg" width="32" height="32" viewBox="0 0 32 32">
    <g fill="none" fill-rule="evenodd">
        <path fill="#757575" d="M16.25 3.497l-.83 1.185-1.285 1.836-6.803 9.715-3.521 5.029a1.534 1.534 0 0 0 .374 2.135L6.82 25.24c.23.161.55.105.711-.126a1.534 1.534 0 0 1 2.135-.379c.691.484.86 1.442.374 2.135a.51.51 0 0 0 .125.712l2.633 1.844a1.534 1.534 0 0 0 2.135-.379l13.257-18.933a1.534 1.534 0 0 0-.374-2.135L25.18 6.136a.51.51 0 0 0-.711.126 1.534 1.534 0 0 1-2.135.378 1.534 1.534 0 0 1-.374-2.134.511.511 0 0 0-.125-.712L19.203 1.95a1.534 1.534 0 0 0-2.135.378l-.818 1.169z"/>
        <path fill="#EBEBEB" d="M20.886 4.312a2.577 2.577 0 0 0 4.133 2.894l2.278 1.595c.232.163.29.484.127.716L14.108 28.534a.515.515 0 0 1-.716.125l-2.278-1.595a2.578 2.578 0 0 0-4.133-2.894l-2.278-1.594a.515.515 0 0 1-.127-.716L17.892 2.843a.515.515 0 0 1 .716-.126l2.278 1.595z"/>
        <path fill="#FFF" d="M11.114 17.595l7.23-10.327 5.561 3.894-7.23 10.326z"/>
        <path fill="#757575" d="M17.259 7.129l-8.872 12.67c-.161.23-.119.538.096.688l5.58 3.907c.213.15.517.084.678-.146l1.216-1.736c.161-.23.118-.538-.096-.688-.214-.15-.518-.085-.679.145l-.924 1.32-4.804-3.365 8.288-11.836 4.804 3.364-4.737 6.766c-.162.23-.119.539.095.688.214.15.518.085.68-.145l5.03-7.183c.16-.23.117-.538-.097-.688l-5.58-3.907c-.213-.15-.517-.085-.678.146z"/>
        <path fill="#757575" d="M16.714 19.74a.489.489 0 0 0 .12.675.49.49 0 0 0 .675-.119.488.488 0 0 0-.12-.675.486.486 0 0 0-.675.119zM14.81 20.769l5.557-7.936a.487.487 0 0 0-.116-.68.487.487 0 0 0-.678.124l-5.557 7.936a.487.487 0 0 0 .116.678c.22.154.523.1.678-.122zM18.067 10.798a.488.488 0 0 0-.875-.194.489.489 0 0 0 .12.676.489.489 0 0 0 .675-.12.489.489 0 0 0 .08-.362zM12.425 19.104a.489.489 0 0 0-.12-.675.488.488 0 0 0-.675.119.489.489 0 0 0 .12.675.489.489 0 0 0 .675-.12zM15.286 14.77a.488.488 0 0 0-.875-.194.489.489 0 0 0 .12.675.489.489 0 0 0 .675-.119.489.489 0 0 0 .08-.362zM16.955 12.387a.488.488 0 0 0-.875-.194.489.489 0 0 0 .119.675.489.489 0 0 0 .675-.119.489.489 0 0 0 .08-.362zM13.617 17.153a.488.488 0 0 0-.875-.194.489.489 0 0 0 .12.675.489.489 0 0 0 .675-.119.489.489 0 0 0 .08-.362z"/>
        <g>
            <path fill="#757575" d="M26.77 14.947H2.676c-.94 0-1.705.764-1.705 1.704v3.58c0 .314.254.568.568.568.94 0 1.704.765 1.704 1.705 0 .94-.764 1.704-1.704 1.704a.568.568 0 0 0-.568.568v3.58c0 .94.764 1.705 1.704 1.705h25.682c.94 0 1.705-.765 1.705-1.705v-3.58a.568.568 0 0 0-.568-.568c-.94 0-1.705-.765-1.705-1.704 0-.94.765-1.705 1.705-1.705a.568.568 0 0 0 .568-.568v-3.58c0-.94-.765-1.704-1.705-1.704h-1.585z"/>
            <path fill="#FFF" d="M28.924 19.72a2.846 2.846 0 0 0-2.272 2.784c0 1.372.977 2.52 2.272 2.784v3.068a.569.569 0 0 1-.568.568H2.674a.569.569 0 0 1-.568-.568v-3.068a2.846 2.846 0 0 0 2.273-2.784c0-1.372-.978-2.52-2.273-2.784V16.65c0-.313.255-.568.568-.568h25.682c.314 0 .568.255.568.568v3.069z"/>
            <path fill="#757575" d="M24.152 17.845H6.879a.568.568 0 0 0-.568.568v8.182c0 .313.254.568.568.568h2.367a.568.568 0 0 0 0-1.137H7.447v-7.045h16.137v7.045h-9.225a.568.568 0 1 0 0 1.137h9.793a.568.568 0 0 0 .568-.568v-8.182a.568.568 0 0 0-.568-.568z"/>
            <path fill="#757575" d="M11.954 26.026a.572.572 0 0 0-.568.569c0 .149.06.296.166.401a.572.572 0 0 0 .97-.402.57.57 0 0 0-.568-.568zM9.89 24.436h11.25a.568.568 0 0 0 0-1.137H9.89a.568.568 0 1 0 0 1.137zM21.542 21.542a.572.572 0 0 0-.402-.97.572.572 0 0 0-.568.568.572.572 0 0 0 .568.568c.15 0 .296-.06.402-.166zM9.89 21.708a.572.572 0 0 0 .568-.568.572.572 0 0 0-.568-.568.572.572 0 0 0-.568.568.572.572 0 0 0 .568.568zM15.917 21.542a.572.572 0 0 0-.402-.97.572.572 0 0 0-.568.568.572.572 0 0 0 .568.568c.15 0 .296-.06.402-.166zM18.73 21.542a.572.572 0 0 0-.402-.97.572.572 0 0 0-.568.568c0 .15.06.296.166.402a.572.572 0 0 0 .402.166c.15 0 .296-.06.401-.166zM13.104 21.542a.572.572 0 0 0-.402-.97.572.572 0 0 0-.567.568c0 .15.06.296.166.402a.572.572 0 0 0 .402.166c.15 0 .296-.06.401-.166z"/>
        </g>
    </g>
</svg>
