<svg xmlns="http://www.w3.org/2000/svg" width="16" height="16" viewBox="0 0 16 16">
    <g fill="none" fill-rule="evenodd">
        <path d="M0 0h16v16H0z"/>
        <path fill="#757575" d="M8.5 3C5.467 3 3 4.89 3 7.214c0 1.04.502 2.04 1.414 2.816l.186.159-.011.245c-.032.692-.136 1.282-.309 1.766.689-.252 1.323-.693 1.71-.994l.206-.163.25.079a6.9 6.9 0 0 0 2.054.306c3.032 0 5.5-1.89 5.5-4.214C14 4.89 11.532 3 8.5 3M3.282 13.397H2.025l.913-.863c.344-.325.567-.998.637-1.911C2.558 9.677 2 8.476 2 7.214 2 4.339 4.916 2 8.5 2S15 4.339 15 7.214c0 2.875-2.916 5.214-6.5 5.214a7.963 7.963 0 0 1-2.101-.278c-.814.601-1.957 1.247-3.117 1.247"/>
    </g>
</svg>
