<svg xmlns="http://www.w3.org/2000/svg" width="24" height="24" viewBox="0 0 24 24">
    <g fill="none" fill-rule="evenodd">
        <path d="M0 0h24v24H0z"/>
        <path fill="#FFF" d="M21.91 6.642a.213.213 0 0 0-.006-.012c-.154-.287-.5-.63-1.28-.63-.821 0-1.714.373-1.752.388-2.164.863-12.351 6.223-12.351 6.223l-2.44-1.314a.247.247 0 0 0-.231-.002l-1.717.897a.247.247 0 0 0-.048.406l4.197 3.628a.247.247 0 0 0 .276.032l4.099-2.138.62 4.37a.247.247 0 0 0 .36.182c.437-.234.708-.382.971-.526.268-.146.545-.297.993-.538a.247.247 0 0 0 .109-.116l2.917-6.489 2.998-1.565c1.402-.712 2.738-1.82 2.285-2.796zM14.248 8.02l-3.883-.206a.247.247 0 0 0-.13.03l-2.14 1.153a.247.247 0 0 0-.073.374l1.1 1.332a.246.246 0 0 1 .034-.023l5.092-2.66z"/>
    </g>
</svg>
