<svg xmlns="http://www.w3.org/2000/svg" width="36" height="36" viewBox="0 0 36 36">
    <g fill="none" fill-rule="evenodd">
        <path d="M0 0h36v36H0z"/>
        <path fill="#FA0" d="M29.995 8.221a.811.811 0 0 0-.895-.716L6.72 9.99a.81.81 0 1 0 .18 1.612l10.531-1.17v3.738h1.136v-3.864l10.71-1.19a.81.81 0 0 0 .717-.896zM10.898 29.054h2.521v-6.892H8.022a13.385 13.385 0 0 0 1.899 6.34c.206.342.577.552.977.552zM22.58 14.135v6.892h5.397a13.385 13.385 0 0 0-1.898-6.34 1.14 1.14 0 0 0-.978-.552h-2.52zm0 14.919h2.521c.4 0 .771-.21.978-.553a13.384 13.384 0 0 0 1.898-6.339H22.58v6.892zm-8.027 0h2.878V14.171h-2.878v14.883zm4.014 0h2.878V14.171h-2.878v14.883zM8.022 21.027h5.397v-6.892h-2.521c-.4 0-.771.21-.977.553a13.384 13.384 0 0 0-1.899 6.339z"/>
    </g>
</svg>
