<svg id="Layer_1" data-name="Layer 1" xmlns="http://www.w3.org/2000/svg" viewBox="0 0 16 16"><defs><style>.cls-1{fill:none;}.cls-2{fill:#424242;}</style></defs><title>phuong tien</title><path class="cls-1" d="M0,0H16V16H0Z"/><path class="cls-2" d="M10.47,10.51a1.24,1.24,0,0,0,2.48,0,1.24,1.24,0,1,0-2.48,0Zm.7,0a.54.54,0,1,1,.54.54A.54.54,0,0,1,11.17,10.51Z"/><path class="cls-2" d="M3.2,10.51A1.24,1.24,0,1,0,4.44,9.27,1.24,1.24,0,0,0,3.2,10.51Zm.7,0a.54.54,0,1,1,.54.54A.54.54,0,0,1,3.9,10.51Z"/><path class="cls-2" d="M1.33,5V9.77a.74.74,0,0,0,.74.74H3a1.46,1.46,0,0,1,2.92,0h4.35a1.46,1.46,0,0,1,2.92,0h.76a.74.74,0,0,0,.74-.74V8.07a9,9,0,0,0-.15-1.47L14.07,5a1,1,0,0,0-.88-.73H2.07A.75.75,0,0,0,1.33,5ZM11.59,7.38V4.7h1.47a.68.68,0,0,1,.65.54l.4,1.59a.44.44,0,0,1-.32.53l-.34-.8a.22.22,0,0,0-.29-.12.22.22,0,0,0-.12.29l.28.65ZM8.3,4.7h2.85V7.38H8.3ZM5,4.7H7.85V7.38H5Zm-3.21.55a.55.55,0,0,1,.55-.55H4.56V7.38H2.34a.56.56,0,0,1-.55-.56Z"/></svg>