<svg xmlns="http://www.w3.org/2000/svg" width="28" height="28" viewBox="0 0 28 28">
    <g fill="none" fill-rule="evenodd">
        <path d="M0 0h28v28H0z"/>
        <path fill="#666" d="M21.33 15.4a1.73 1.73 0 0 1-1.73-1.729c0-.954.776-1.73 1.73-1.73s1.73.776 1.73 1.73a1.73 1.73 0 0 1-1.73 1.729m0-4.4a2.673 2.673 0 0 0-2.67 2.671 2.673 2.673 0 0 0 2.67 2.67A2.673 2.673 0 0 0 24 13.67 2.674 2.674 0 0 0 21.33 11M14 15.4a1.73 1.73 0 0 1 0-3.46 1.731 1.731 0 0 1 0 3.46m2.67-1.729a2.674 2.674 0 0 0-2.67-2.67 2.673 2.673 0 0 0-2.67 2.67 2.673 2.673 0 0 0 2.67 2.67 2.673 2.673 0 0 0 2.67-2.67m-11.73 0c0-.954.776-1.73 1.73-1.73s1.73.776 1.73 1.73-.777 1.73-1.73 1.73c-.954-.001-1.73-.777-1.73-1.73m4.4 0a2.674 2.674 0 0 0-2.67-2.67A2.673 2.673 0 0 0 4 13.67a2.673 2.673 0 0 0 2.67 2.67 2.673 2.673 0 0 0 2.67-2.67"/>
    </g>
</svg>
