<svg xmlns="http://www.w3.org/2000/svg" width="36" height="36" viewBox="0 0 36 36">
    <g fill="none" fill-rule="evenodd">
        <path d="M0 0h36v36H0z"/>
        <path fill="#E74C3C" d="M16.128 16.7l-9.896-5.184a.42.42 0 0 1-.103-.67L7.62 9.355a.7.7 0 0 1 .653-.187l12.447 2.94 5.45-5.45a2.24 2.24 0 0 1 3.17 0 2.24 2.24 0 0 1 0 3.171l-5.412 5.319 2.902 12.577a.7.7 0 0 1-.187.653L25.15 29.87a.42.42 0 0 1-.67-.103l-5.183-9.896-5.274 5.197.456 3.19a.7.7 0 0 1-.198.595l-1.026 1.025a.42.42 0 0 1-.664-.093l-2.242-4.079-4.134-2.297a.42.42 0 0 1-.093-.664l1.025-1.026a.7.7 0 0 1 .595-.198l3.071.496 5.315-5.315-.001-.001z"/>
    </g>
</svg>
