<svg xmlns="http://www.w3.org/2000/svg" width="28" height="28" viewBox="0 0 28 28">
    <g fill="none" fill-rule="evenodd">
        <path fill="#00BF8F" d="M23.905 14.24l-2.785-2.63a.304.304 0 0 0-.146-.138l-6.767-6.389a.303.303 0 0 0-.416 0l-6.765 6.388a.302.302 0 0 0-.148.14l-2.783 2.63a.303.303 0 0 0 .416.44l2.329-2.2v10.54c0 .168.136.304.303.304H20.856a.303.303 0 0 0 .303-.303v-10.54l2.33 2.2a.302.302 0 0 0 .429-.013.305.305 0 0 0-.013-.429z"/>
        <path fill="#00BF8F" d="M20.553 22.719h-3.831v-6.265a.304.304 0 0 0-.303-.303h-4.838a.303.303 0 0 0-.303.303v6.265H7.446v-10.81l6.553-6.189 6.554 6.19v10.809z"/>
        <path fill="#FFF" d="M11.884 23.719h4.231v-5.962h-4.23z"/>
    </g>
</svg>
