<svg xmlns="http://www.w3.org/2000/svg" width="24" height="24" viewBox="0 0 24 24">
    <g fill="none" fill-rule="evenodd">
        <path d="M0 0h24v24H0z"/>
        <path fill="#00BF8F" d="M19.081 16.972a3.51 3.51 0 0 0-2.362.929l-8.595-5.003c.06-.277.109-.554.109-.844 0-.29-.049-.566-.109-.844l8.498-4.954a3.6 3.6 0 0 0 2.46.977 3.616 3.616 0 1 0-3.617-3.617c0 .29.048.567.109.844L7.075 9.414a3.6 3.6 0 0 0-2.459-.976 3.616 3.616 0 1 0 0 7.233 3.6 3.6 0 0 0 2.46-.977l8.582 5.003c-.06.253-.096.517-.096.795 0 1.94 1.579 3.508 3.52 3.508 1.94 0 3.52-1.567 3.52-3.508a3.52 3.52 0 0 0-3.52-3.52"/>
    </g>
</svg>
