<svg xmlns="http://www.w3.org/2000/svg" width="41" height="41" viewBox="0 0 41 41">
    <g fill="none" fill-rule="evenodd">
        <path d="M0 1h40v40H0z"/>
        <path fill="#E74C3C" d="M28.147 28.181l-7.375-7.498v-7.791a.772.772 0 0 0-1.544 0V21c0 .203.081.397.224.54l7.59 7.722a.772.772 0 1 0 1.105-1.08m-7.375 9.235v-3.166a.772.772 0 0 0-1.544 0v3.166c-8.467-.404-15.24-7.178-15.645-15.645h3.166a.772.772 0 0 0 0-1.544H3.583c.404-8.468 7.178-15.24 15.645-15.645v3.166a.772.772 0 0 0 1.544 0V4.583c8.467.404 15.24 7.177 15.645 15.645h-3.166a.772.772 0 0 0 0 1.544h3.174c-.405 8.47-7.182 15.245-15.653 15.645M20 3C10.059 3 2 11.059 2 21s8.059 18 18 18 18-8.059 18-18c-.013-9.936-8.064-17.987-18-18"/>
    </g>
</svg>
