<svg xmlns="http://www.w3.org/2000/svg" width="14" height="14" viewBox="0 0 14 14">
    <g fill="none" fill-rule="evenodd">
        <path d="M0 0h14v14H0z"/>
        <path fill="#757575" d="M12.297 7.85V2.078a.352.352 0 0 0-.352-.351h-1.78v-.375a.352.352 0 1 0-.704 0v.375H8.055v-.375a.352.352 0 1 0-.703 0v.375H5.945v-.375a.352.352 0 1 0-.703 0v.375H3.836v-.375a.352.352 0 1 0-.703 0v.375H1.352A.352.352 0 0 0 1 2.078v9.164c0 .194.157.352.352.352h5.854a3.164 3.164 0 1 0 5.09-3.744z"/>
        <path fill="#EBEBEB" d="M9.836 12.297a2.464 2.464 0 0 1-2.461-2.461 2.464 2.464 0 0 1 2.46-2.461 2.464 2.464 0 0 1 2.462 2.46 2.464 2.464 0 0 1-2.461 2.462z"/>
        <path fill="#757575" d="M11.242 9.484h-1.055V8.43a.352.352 0 1 0-.703 0v1.406c0 .194.158.351.352.351h1.406a.352.352 0 1 0 0-.703z"/>
        <path fill="#FFF" d="M1.703 10.89V4.54h9.89v2.666a3.164 3.164 0 0 0-4.412.91.35.35 0 0 0-.158-.038H6.32a.352.352 0 1 0 0 .703h.533c-.08.224-.134.46-.161.703H6.32a.352.352 0 1 0 0 .704h.372c.027.243.081.479.16.703H1.704z"/>
        <path fill="#757575" d="M9.133 5.969h.703a.352.352 0 1 0 0-.703h-.703a.352.352 0 1 0 0 .703zM4.188 9.484h-.704a.352.352 0 1 0 0 .704h.704a.352.352 0 1 0 0-.704zM6.32 7.375h.703a.352.352 0 1 0 0-.703H6.32a.352.352 0 1 0 0 .703zM6.32 5.969h.703a.352.352 0 1 0 0-.703H6.32a.352.352 0 1 0 0 .703zM4.188 8.078h-.704a.352.352 0 1 0 0 .703h.704a.352.352 0 1 0 0-.703zM4.188 6.672h-.704a.352.352 0 1 0 0 .703h.704a.352.352 0 1 0 0-.703zM4.188 5.266h-.704a.352.352 0 1 0 0 .703h.704a.352.352 0 1 0 0-.703z"/>
        <path fill="#EBEBEB" d="M3.133 2.43v.351a.352.352 0 1 0 .703 0V2.43h1.406v.351a.352.352 0 1 0 .703 0V2.43h1.407v.351a.352.352 0 1 0 .703 0V2.43H9.46v.351a.352.352 0 1 0 .703 0V2.43h1.43v1.406h-9.89V2.43h1.429z"/>
    </g>
</svg>
