<svg xmlns="http://www.w3.org/2000/svg" width="28" height="28" viewBox="0 0 28 28">
    <g fill="none" fill-rule="evenodd" opacity=".9">
        <path d="M0 0h28v28H0z"/>
        <path fill="#00BF8F" d="M19.44 21.503a9.298 9.298 0 0 1-.388.267 9.137 9.137 0 0 1-.706.419l-.12.06c-.409.21-.832.39-1.267.537l-.047.015a9.3 9.3 0 0 1-.692.201h-.002a9.305 9.305 0 0 1-.714.147c-.007 0-.013.002-.02.003a9.506 9.506 0 0 1-.682.084l-.121.009a9.017 9.017 0 0 1-.681.028c-.23 0-.46-.012-.69-.029l-.118-.008a9.61 9.61 0 0 1-.687-.085l-.03-.006a9.282 9.282 0 0 1-1.415-.353l-.043-.015a9.403 9.403 0 0 1-.677-.259l-.005-.002c-.21-.09-.416-.19-.62-.297l-.08-.04a9.345 9.345 0 0 1-.704-.42 9.458 9.458 0 0 1-.487-.34l-.048-.038.035-.02 2.875-1.568c.494-.27.802-.787.802-1.35v-1.31l-.084-.101a6.072 6.072 0 0 1-1.092-2.26l-.033-.145-.124-.08a.602.602 0 0 1-.28-.506v-1.29c0-.168.072-.326.203-.444l.12-.108v-2.026l-.003-.048c-.001-.008-.108-.883.508-1.585.525-.6 1.426-.904 2.677-.904 1.246 0 2.144.302 2.671.897.616.695.515 1.586.514 1.593l-.003 2.073.12.109c.13.117.202.275.202.444v1.29c0 .259-.176.494-.43.573l-.18.055-.058.18a6.727 6.727 0 0 1-.908 1.83 4.479 4.479 0 0 1-.267.345l-.09.103v1.345c0 .586.325 1.113.85 1.375l3.079 1.54.058.03c-.04.029-.08.056-.118.085M4.727 14c0-5.113 4.16-9.273 9.273-9.273 5.113 0 9.273 4.16 9.273 9.273a9.251 9.251 0 0 1-3.124 6.932 2.678 2.678 0 0 0-.324-.195l-3.08-1.54a.806.806 0 0 1-.447-.724v-1.076c.071-.088.146-.187.224-.296.399-.564.718-1.19.951-1.864a1.32 1.32 0 0 0 .759-1.196v-1.289c0-.315-.116-.62-.323-.861v-1.697c.019-.189.086-1.254-.685-2.133C16.554 7.296 15.47 6.91 14 6.91c-1.47 0-2.554.387-3.224 1.152-.77.879-.704 1.944-.685 2.132v1.698c-.207.24-.323.546-.323.861v1.29c0 .4.18.773.488 1.025a6.829 6.829 0 0 0 1.124 2.323v1.053c0 .296-.161.569-.422.712l-2.875 1.568c-.092.05-.183.108-.274.173A9.25 9.25 0 0 1 4.727 14M24 14c0-5.514-4.486-10-10-10S4 8.486 4 14a9.975 9.975 0 0 0 3.246 7.367l-.01.008.325.273c.02.018.044.033.065.05a9.86 9.86 0 0 0 .71.537c.195.133.394.26.597.381l.134.077c.223.127.45.246.684.356l.052.023a9.91 9.91 0 0 0 2.418.766l.067.012c.263.045.53.082.799.106l.098.008c.269.022.54.036.815.036.272 0 .541-.014.808-.035.034-.004.068-.005.101-.008.268-.024.532-.06.792-.105l.068-.012a9.893 9.893 0 0 0 2.385-.747l.083-.038a10.236 10.236 0 0 0 1.393-.796c.067-.046.133-.094.2-.142.16-.115.316-.234.469-.358.033-.027.07-.05.103-.079l.333-.277-.01-.009A9.974 9.974 0 0 0 24 14"/>
    </g>
</svg>
