<svg xmlns="http://www.w3.org/2000/svg" width="24" height="24" viewBox="0 0 24 24">
    <g fill="none" fill-rule="evenodd">
        <path d="M0 0h24v24H0z"/>
        <path fill="#9E9E9E" d="M22.2 2.12a.406.406 0 0 0-.574 0l-18.9 18.9a.406.406 0 1 0 .575.574l18.9-18.9a.406.406 0 0 0 0-.575zm-9.787 5.367c.838 0 1.662.225 2.379.65a.407.407 0 0 0 .414-.699 5.483 5.483 0 0 0-2.794-.764 5.493 5.493 0 0 0-4.928 7.902.407.407 0 0 0 .73-.357 4.68 4.68 0 0 1 4.199-6.732zm0 9.348a4.666 4.666 0 0 1-2.468-.702.407.407 0 0 0-.429.69 5.493 5.493 0 0 0 8.383-4.661c0-1.092-.32-2.146-.924-3.05a.407.407 0 0 0-.676.452 4.65 4.65 0 0 1 .788 2.597 4.68 4.68 0 0 1-4.674 4.674zm8.006-8.311a11.939 11.939 0 0 0-1.786-1.47.407.407 0 0 0-.454.675c.594.398 1.154.86 1.665 1.37l3.007 3.007-3.101 3.1A11.08 11.08 0 0 1 8.226 17.79a.406.406 0 1 0-.274.765 11.893 11.893 0 0 0 12.373-2.774L24 12.106l-3.581-3.582zM4.587 16.679a.406.406 0 0 0 .507-.635c-.326-.26-.641-.54-.937-.838L1.15 12.2l3.1-3.101a10.973 10.973 0 0 1 11.316-2.656.407.407 0 0 0 .259-.771 11.78 11.78 0 0 0-12.15 2.852L0 12.2l3.582 3.581c.317.318.656.62 1.005.898z"/>
    </g>
</svg>
