<svg xmlns="http://www.w3.org/2000/svg" width="28" height="28" viewBox="0 0 28 28">
    <g fill="none" fill-rule="evenodd">
        <path d="M0 0h28v28H0z"/>
        <path fill="#00BF8F" d="M17.456 17.673h3.062c.281 0 .51-.206.51-.46 0-.253-.229-.459-.51-.459h-3.062c-.281 0-.51.206-.51.46 0 .253.229.459.51.459zM22.96 5.918h-6.428c-.844 0-1.531.618-1.531 1.378V20.23c.427-.29.957-.46 1.53-.46h6.43V5.917zm0 14.77h-6.428c-.844 0-1.531.618-1.531 1.377v.017h7.96v-1.394zm-8.978 1.394l-.001-.017c0-.76-.687-1.377-1.531-1.377H6.02v1.394h7.96zm-7.96-2.313h6.428c.574 0 1.104.172 1.53.46V7.297c0-.76-.686-1.378-1.53-1.378H6.02V19.77zM23.98 5.46V23H5V5.459C5 5.206 5.228 5 5.51 5h6.939c.834 0 1.575.362 2.04.92.467-.558 1.208-.92 2.042-.92h6.938c.282 0 .51.206.51.46zm-6.524 3.397h3.062c.281 0 .51-.205.51-.459s-.229-.46-.51-.46h-3.062c-.281 0-.51.206-.51.46s.229.46.51.46zm0 4.408h3.062c.281 0 .51-.205.51-.459 0-.253-.229-.459-.51-.459h-3.062c-.281 0-.51.206-.51.46 0 .253.229.458.51.458zm-5.918-.924H8.477c-.282 0-.51.206-.51.46 0 .253.228.459.51.459h3.061c.282 0 .51-.206.51-.46 0-.253-.228-.459-.51-.459zm5.918-1.28h3.062c.281 0 .51-.205.51-.459 0-.253-.229-.46-.51-.46h-3.062c-.281 0-.51.207-.51.46 0 .254.229.46.51.46zm-5.918 5.7H10.34c-.282 0-.51.206-.51.46 0 .253.228.458.51.458h1.198c.282 0 .51-.205.51-.459 0-.253-.228-.459-.51-.459zM9.34 10.296l1.64-.946-1.64-.946v1.892zm-1.02.078V8.326c0-.32.194-.615.506-.769.312-.153.692-.141.992.031l1.775 1.024c.28.162.448.438.448.738s-.168.575-.448.737L9.818 11.11a1.059 1.059 0 0 1-.992.031c-.312-.154-.506-.448-.506-.768zm9.136 5.094h3.062c.281 0 .51-.205.51-.459 0-.253-.229-.459-.51-.459h-3.062c-.281 0-.51.206-.51.46 0 .253.229.458.51.458zm-5.918-.918H8.477c-.282 0-.51.206-.51.46 0 .253.228.458.51.458h3.061c.282 0 .51-.205.51-.459 0-.253-.228-.459-.51-.459zm-2.7 2.344c.095.086.15.205.15.325a.44.44 0 0 1-.15.325.544.544 0 0 1-.361.135.546.546 0 0 1-.361-.135.44.44 0 0 1-.15-.325.44.44 0 0 1 .15-.325.545.545 0 0 1 .361-.134c.134 0 .266.049.36.134z"/>
    </g>
</svg>
