<svg xmlns="http://www.w3.org/2000/svg" width="16" height="16" viewBox="0 0 16 16">
    <g fill="none" fill-rule="evenodd">
        <path d="M0 0h16v16H0z"/>
        <path fill="#757575" d="M7.941 4.993c-.636 0-1.154.518-1.154 1.154 0 .636.518 1.154 1.154 1.154.636 0 1.154-.518 1.154-1.154 0-.636-.518-1.154-1.154-1.154zm0 3.007a1.855 1.855 0 0 1-1.853-1.853c0-1.022.831-1.853 1.853-1.853s1.853.831 1.853 1.853A1.855 1.855 0 0 1 7.941 8zm0-6.284c-2.333 0-4.23 1.912-4.23 4.262 0 2.493 3.258 6.708 4.23 7.911.971-1.203 4.23-5.419 4.23-7.911 0-2.35-1.897-4.262-4.23-4.262zm0 13.284l-.27-.318C7.481 14.459 3 9.155 3 5.978 3 3.234 5.216 1 7.941 1c2.725 0 4.941 2.234 4.941 4.978 0 3.177-4.481 8.481-4.671 8.704l-.27.318z"/>
    </g>
</svg>
