<svg xmlns="http://www.w3.org/2000/svg" width="14" height="14" viewBox="0 0 14 14">
    <path fill="#9E9E9E" fill-rule="evenodd" d="M2.137.616s.148-.647.816-.615c.668.032.668.742.668.742l-.108 2.11c-.013.257.033.514.134.75L5.199 7.25l4.653.022s.296 0 .317.35c.022.35-.01.635-.01.635s-.032.318-.424.18a7.981 7.981 0 0 0-.837-.233L5.58 8.171l.792 1.783a.424.424 0 0 0 .475.242c.815-.171 2.932-.572 4.254-.403 0 0 .71.053.477.54-.233.488-.957 1.876-1.452 1.876-.371 0-2.215-.01-2.215-.01s-.243.052-.243.285c0 .234.01.445.01.445s.085.414.233.424c.149.011 2.247.022 2.247.022s.254.031.254.317c0 .287-.201.297-.201.297L4.5 14s-.17.022-.17-.36c0-.381.382-.275.382-.275h1.844s.254-.095.265-.572c.01-.477-.032-.604-.445-.604H4.922a.848.848 0 0 1-.82-.634L2.055 3.71a1.698 1.698 0 0 1-.053-.517L2.137.616z"/>
</svg>
