<svg xmlns="http://www.w3.org/2000/svg" width="24" height="24" viewBox="0 0 24 24">
    <path fill="#00BF8F" fill-rule="evenodd" d="M18.7 17.44c-.192.42-.623.785-1.292 1.095-.67.31-1.265.465-1.785.465-.146 0-.3-.011-.465-.034a7.398 7.398 0 0 1-.417-.068 4.458 4.458 0 0 1-.45-.124 7.304 7.304 0 0 1-.404-.136 56.18 56.18 0 0 0-.861-.321c-1.495-.547-2.956-1.534-4.382-2.96-1.427-1.427-2.414-2.888-2.96-4.382a45.617 45.617 0 0 0-.321-.861 7.797 7.797 0 0 1-.26-.855 7.206 7.206 0 0 1-.069-.417A3.389 3.389 0 0 1 5 8.377c0-.52.155-1.114.465-1.784.31-.67.674-1.1 1.094-1.292.483-.2.943-.301 1.38-.301.1 0 .174.01.22.027.045.019.12.1.225.247.105.145.219.33.342.553.123.224.244.44.362.65a28.794 28.794 0 0 1 .547 1.011c.027.046.087.133.178.26.09.128.16.242.205.342.045.1.068.196.068.287 0 .137-.093.303-.28.5a4.664 4.664 0 0 1-.615.54c-.224.163-.429.339-.616.526-.186.187-.28.34-.28.458 0 .064.016.139.048.225a2.115 2.115 0 0 0 .219.445c.059.1.098.164.116.191.501.903 1.078 1.68 1.73 2.332a10.436 10.436 0 0 0 2.33 1.73l.192.116a2.076 2.076 0 0 0 .444.218.672.672 0 0 0 .227.048c.145 0 .346-.15.601-.451.255-.301.515-.6.78-.896.264-.296.478-.444.642-.444.091 0 .187.023.288.068.1.046.214.114.341.205.128.092.214.15.26.178l.724.397c.483.255.887.48 1.21.676.324.196.5.33.527.404a.64.64 0 0 1 .027.219c0 .437-.1.897-.302 1.379"/>
</svg>
