<svg xmlns="http://www.w3.org/2000/svg" xmlns:xlink="http://www.w3.org/1999/xlink" width="70" height="70" viewBox="0 0 70 70">
    <defs>
        <rect id="a" width="60" height="60" rx="30"/>
        <filter id="b" width="125%" height="125%" x="-12.5%" y="-12.5%" filterUnits="objectBoundingBox">
            <feOffset in="SourceAlpha" result="shadowOffsetOuter1"/>
            <feGaussianBlur in="shadowOffsetOuter1" result="shadowBlurOuter1" stdDeviation="2.5"/>
            <feColorMatrix in="shadowBlurOuter1" values="0 0 0 0 0 0 0 0 0 0 0 0 0 0 0 0 0 0 0.2 0"/>
        </filter>
    </defs>
    <g fill="none" fill-rule="evenodd" transform="translate(5 5)">
        <mask id="c" fill="#fff">
            <use xlink:href="#a"/>
        </mask>
        <use fill="#000" filter="url(#b)" xlink:href="#a"/>
        <use fill="#2F5EDE" xlink:href="#a"/>
        <path fill="#FFF" d="M10.595 50.605c-.255-.08-.42-.23-.136-.474.19-.122.38-.258.57-.366 1.776-1.153 3.443-2.414 4.542-4.271.908-1.546.759-2.44-.38-3.593-6.413-6.426-9.247-14.127-7.837-23.197.8-5.139 3.16-9.558 6.562-13.409 1.973-2.232 4.307-4.054 6.857-5.586H61v42.032a29.988 29.988 0 0 1-9.095 6.22c-8.351 3.661-16.838 3.932-25.434.977a3.911 3.911 0 0 0-2.332-.109c-1.139.285-2.264.624-3.39.963-3.321 1.017-6.795 1.874-10.154.813" mask="url(#c)"/>
        <g mask="url(#c)">
            <path fill="#2F5EDE" d="M22.837 29.204c1.254 0 2.433-.008 3.605 0 .655.008 1.012.282 1.08.806.074.656-.309 1.095-1.023 1.103-1.346.018-2.681.01-4.027.01-.39 0-.772.016-1.162-.01-.483-.025-.956-.123-1.187-.622-.234-.498-.067-.946.247-1.354a2073.19 2073.19 0 0 1 3.854-4.89c.075-.1.15-.2.224-.29-.082-.142-.198-.075-.298-.083-.897-.01-1.803 0-2.7-.01-.207 0-.415-.024-.615-.065a.874.874 0 0 1-.655-1.046.878.878 0 0 1 .64-.65c.198-.048.406-.074.614-.074 1.478-.008 2.965-.008 4.443 0 .265-.008.523.026.78.092.564.19.805.715.582 1.262-.2.473-.516.881-.83 1.287a966.354 966.354 0 0 1-3.264 4.135 6.417 6.417 0 0 0-.308.399"/>
            <path fill="#2F5EDE" d="M37.493 26.265c0 1.287.008 2.573 0 3.862a1.08 1.08 0 0 1-1.354 1.062c-.414-.108-.73-.548-.73-1.072v-6.601c0-.39-.008-.772 0-1.162.008-.64.414-1.054 1.029-1.054.631-.01 1.055.406 1.055 1.07.008 1.295 0 2.6 0 3.895m2.814 1.452c-.015.416.108.822.358 1.162a1.354 1.354 0 0 0 1.91.25c.091-.066.166-.15.24-.232.483-.63.483-1.694.008-2.326a1.27 1.27 0 0 0-.987-.522c-.897-.05-1.529.63-1.529 1.668m-2.084.2c-.066-2.135 1.337-3.728 3.33-3.787 2.118-.065 3.662 1.354 3.73 3.43.066 2.102-1.222 3.587-3.206 3.786-2.168.216-3.887-1.353-3.854-3.429m-8.693-.05c.017.366.133.714.349 1.006a1.37 1.37 0 0 0 2.184 0c.465-.632.465-1.67 0-2.302a1.248 1.248 0 0 0-.989-.522c-.913-.059-1.552.648-1.544 1.817m2.94-3.03c.198-.257.406-.498.747-.565.656-.132 1.27.29 1.278.956.025 1.66.017 3.32 0 4.98a.981.981 0 0 1-.69.94 1.01 1.01 0 0 1-1.161-.324c-.141-.174-.2-.207-.398-.049-.756.615-1.612.723-2.534.423-1.478-.481-2.084-1.637-2.249-3.04-.175-1.52.332-2.814 1.694-3.611 1.128-.673 2.274-.615 3.312.29"/>
            <path fill="#FFF" d="M40.308 27.717c0-1.028.63-1.719 1.527-1.668.39.008.756.208.989.522.473.632.473 1.703-.008 2.326a1.372 1.372 0 0 1-1.919.225 1.087 1.087 0 0 1-.232-.243 1.887 1.887 0 0 1-.357-1.162m-10.778.15c-.008-1.17.63-1.877 1.537-1.827.389.017.754.207.987.531.465.624.465 1.67 0 2.302a1.37 1.37 0 0 1-2.184 0 1.865 1.865 0 0 1-.34-1.006"/>
        </g>
    </g>
</svg>
