<svg xmlns="http://www.w3.org/2000/svg" width="24" height="24" viewBox="0 0 24 24">
    <g fill="none" fill-rule="evenodd">
        <path d="M0 0h24v24H0z"/>
        <path fill="#9E9E9E" d="M23.226 18.127c0 .64-.52 1.161-1.16 1.161H1.934c-.64 0-1.161-.52-1.161-1.16V4.934c0-.158.032-.309.09-.447l7.87 6.865-4.432 4.156a.386.386 0 1 0 .53.564l4.455-4.178c.011-.01.016-.025.026-.036l1.266 1.104a2.16 2.16 0 0 0 1.421.512c.515 0 1.029-.17 1.42-.513l1.268-1.104c.009.012.014.026.026.037l4.453 4.178a.386.386 0 0 0 .547-.017.386.386 0 0 0-.017-.547l-4.43-4.156 7.87-6.862c.057.136.09.287.09.444v13.192zm-1.16-14.353c.199 0 .385.056.549.145l-9.703 8.46c-.494.43-1.33.43-1.824 0l-9.7-8.461c.164-.09.348-.144.547-.144h20.13zm0-.774H1.934A1.937 1.937 0 0 0 0 4.935v13.192c0 1.068.868 1.935 1.935 1.935h20.13A1.937 1.937 0 0 0 24 18.127V4.935A1.937 1.937 0 0 0 22.065 3z"/>
    </g>
</svg>
