<svg xmlns="http://www.w3.org/2000/svg" width="24" height="24" viewBox="0 0 24 24">
    <g fill="none" fill-rule="evenodd">
        <path d="M0 0h24v24H0z"/>
        <path fill="#FFF" d="M12.908 2s.694 2.485.694 4.5c0 1.932-1.266 3.498-3.198 3.498C8.464 9.998 7 8.432 7 6.501l.029-.347A12.916 12.916 0 0 0 4 14.499a7.502 7.502 0 0 0 15.002 0c0-5.063-2.428-9.564-6.094-12.499m-1.679 17.187c-1.669 0-3.01-1.322-3.01-2.944 0-1.52.966-2.588 2.626-2.926 1.66-.337 3.375-1.134 4.332-2.419.365 1.21.544 2.485.544 3.788 0 2.476-2.007 4.501-4.492 4.501"/>
    </g>
</svg>
