<svg xmlns="http://www.w3.org/2000/svg" width="32" height="32" viewBox="0 0 32 32">
    <path fill="#2196F3" fill-rule="evenodd" d="M13.833 24.903l3.077-1.084a.224.224 0 0 1 .297.186l.27 2.306a1.345 1.345 0 0 1-.769 1.376l-.288.134a.448.448 0 0 1-.526-.11l-2.154-2.448a.224.224 0 0 1 .093-.36m5.896-5.663l-2.693 1.238.042-.587 1.744-.787a10.805 10.805 0 0 0-.764-.025c-.964 0-2.592.488-4.393 1.203l-5.777-1.524A2.017 2.017 0 0 0 6.301 19l-.284.179a.448.448 0 0 0-.006.756l3.473 2.252c-.83.425-1.617.856-2.31 1.267l-1.783-.943a1.12 1.12 0 0 0-.94-.05l-.17.067c-.25.101-.356.4-.223.636l.981 1.744c-.37.319-.58.583-.58.766 0 .547.673.684 1.267.684 1.058 0 15.041-3.202 15.041-6.102 0-.575-.393-.862-1.038-1.016M28 16.026c0 5.512-4.066 10.092-9.355 10.9.044-.245.057-.498.027-.755l-.073-.624a9.64 9.64 0 0 0 4.918-2.42 1.304 1.304 0 0 1-.24-.27c-.358-.521.11-1.038.11-1.493 0-.447-.902-.41-.935-.706-.113-1.025.63-1.039 1.025-1.435.396-.396-.391-1.296-.9-1.238-.512.055-1.953-.236-1.821-1.339.16-1.343-1.71-1.224-1.979-1.85-.39-.915.259-2.035 1.106-2.29 1.2-.36 2.381-1.339 2.29-2.429-.105-1.233-.664-2.346-1.584-3.007a9.59 9.59 0 0 0-3.07-.688c-.963.038-1.81.252-1.772.693.095 1.081 3.17 1.362 2.654 2.373-.269.527-2.288 1.27-1.911 2.055.245.51.849.073.624 1.052-.104.45-.5 1.297-1.107 1.352-.62.058-1.138-1.588-2.83-1.642-.798-.026-1.925 1.247-.968 2.15.579.547 1.665-.657 1.986.284.226.662-.03 2.055 1.024 2.636.385.213.974.397 1.557.694-.865.176-1.928.506-3.184.99l-1.057-.28c.442-.368 1.162-.627.98-1.433-.265-1.183-2.32-.737-3.736-2.154-.435-.434-1.362-1.877-1.358-3.61a9.6 9.6 0 0 0-1.108 4.484c0 .498.038.988.11 1.466-.016 0-.032-.003-.049-.003-.446 0-.884.093-1.29.27a11.06 11.06 0 0 1-.136-1.733C5.948 9.946 10.894 5 16.974 5S28 9.946 28 16.026"/>
</svg>
