<svg xmlns="http://www.w3.org/2000/svg" width="16" height="16" viewBox="0 0 16 16">
    <g fill="none" fill-rule="evenodd">
        <path d="M0 0h16v16H0z"/>
        <path fill="#FFF" d="M9 .667s.493 1.766.493 3.2c0 1.373-.9 2.486-2.273 2.486-1.38 0-2.42-1.113-2.42-2.486l.02-.247a9.183 9.183 0 0 0-2.153 5.933 5.334 5.334 0 0 0 10.666 0c0-3.6-1.726-6.8-4.333-8.886m-1.193 12.22c-1.187 0-2.14-.94-2.14-2.094 0-1.08.686-1.84 1.866-2.08 1.18-.24 2.4-.806 3.08-1.72.26.86.387 1.767.387 2.694a3.2 3.2 0 0 1-3.193 3.2"/>
    </g>
</svg>
