<svg xmlns="http://www.w3.org/2000/svg" width="24" height="24" viewBox="0 0 24 24">
    <g fill="none" fill-rule="evenodd">
        <path d="M0 0h24v24H0z"/>
        <path fill="#757575" d="M12 22.42C6.252 22.42 1.58 17.748 1.58 12S6.252 1.58 12 1.58 22.42 6.252 22.42 12 17.748 22.42 12 22.42M12 0C5.375 0 0 5.375 0 12s5.375 12 12 12 12-5.375 12-12S18.625 0 12 0m1.69 15.861h-.505v-5.375a.566.566 0 0 0-.57-.57H10.31a.566.566 0 0 0-.57.57v1.185c0 .307.24.57.57.57h.46v3.642h-.46a.566.566 0 0 0-.57.57v1.185c0 .307.24.57.57.57h3.378c.307 0 .57-.24.57-.57v-1.185a.586.586 0 0 0-.57-.592m-3.05-8.03c.045.089.089.176.132.242.044.066.11.132.154.198.066.065.132.131.22.197.065.044.153.11.263.132.087.044.175.065.285.087.11.022.197.022.285.022.088 0 .198 0 .285-.022a.786.786 0 0 0 .242-.087h.022c.087-.044.175-.088.263-.154.066-.044.131-.11.197-.175l.022-.022c.066-.066.11-.132.154-.198a.686.686 0 0 0 .11-.22c0-.021 0-.021.021-.043.044-.088.066-.198.088-.285.022-.088.022-.198.022-.285 0-.088 0-.198-.022-.286a2.044 2.044 0 0 0-.088-.285 1.246 1.246 0 0 0-.263-.395l-.044-.044c-.066-.065-.131-.11-.22-.175-.087-.044-.153-.088-.24-.132-.088-.044-.176-.066-.264-.087-.11-.022-.197-.022-.285-.022-.088 0-.197 0-.285.022a1.237 1.237 0 0 0-.263.087h-.022c-.088.044-.176.088-.242.132-.087.066-.153.11-.219.175a1.42 1.42 0 0 0-.176.198c-.043.066-.087.153-.131.241a1.237 1.237 0 0 0-.088.263c-.022.11-.022.198-.022.286 0 .087 0 .197.022.285.022.175.066.263.088.35"/>
    </g>
</svg>
