<svg xmlns="http://www.w3.org/2000/svg" width="24" height="24" viewBox="0 0 24 24">
    <g fill="none" fill-rule="evenodd">
        <path d="M0 0h24v24H0z"/>
        <path fill="#EA4318" d="M14.448 11.074V17.5h1.053v-2.844h3.141v-.9h-3.14v-1.782h3.33v-.9h-4.384zm-5.427.9h1.098c.801 0 1.386.18 1.755.549.36.36.54.954.54 1.764 0 .792-.18 1.377-.54 1.755-.369.37-.954.558-1.755.558H9.021v-4.626zm-1.053-.9V17.5h2.35c1.043 0 1.826-.288 2.366-.864.513-.549.774-1.332.774-2.349 0-1.026-.26-1.809-.774-2.349-.54-.576-1.323-.864-2.367-.864H7.968zm-4.842.9h1.53c.46 0 .801.081 1.017.252.216.162.333.432.333.819 0 .387-.108.666-.324.837-.216.162-.558.252-1.026.252h-1.53v-2.16zm-1.053-.9V17.5h1.053v-2.466H4.72c1.566 0 2.35-.666 2.35-1.989 0-1.314-.784-1.971-2.332-1.971H2.073zM3 19.5H1a1 1 0 0 1-1-1V10a1 1 0 0 1 1-1h2V2a2 2 0 0 1 2-2h12.422L24 6.62V22a2 2 0 0 1-2 2H5a2 2 0 0 1-2-2v-2.5zM4.5 9h15a1 1 0 0 1 1 1v8.5a1 1 0 0 1-1 1h-15V22a.5.5 0 0 0 .5.5h17a.5.5 0 0 0 .5-.5V7.238L22.263 7h-2.965A2.298 2.298 0 0 1 17 4.702V1.703l-.202-.203H5a.5.5 0 0 0-.5.5v7z"/>
    </g>
</svg>
