<svg xmlns="http://www.w3.org/2000/svg" width="24" height="24" viewBox="0 0 24 24">
    <g fill="none" fill-rule="evenodd">
        <path d="M0 0h24v24H0z"/>
        <path fill="#fa302d" d="M13.69 0s.832 2.982.832 5.4c0 2.319-1.52 4.198-3.837 4.198-2.33 0-4.084-1.88-4.084-4.197l.033-.416A15.5 15.5 0 0 0 3 14.999a9.002 9.002 0 0 0 18.003 0c0-6.076-2.914-11.477-7.314-14.999m-2.014 20.624c-2.003 0-3.612-1.586-3.612-3.533 0-1.822 1.16-3.105 3.15-3.51 1.992-.405 4.051-1.362 5.2-2.903.438 1.451.652 2.982.652 4.546 0 2.97-2.408 5.4-5.39 5.4"/>
    </g>
</svg>
