<svg xmlns="http://www.w3.org/2000/svg" width="14" height="14" viewBox="0 0 14 14">
    <g fill="none" fill-rule="evenodd">
        <path d="M0 0h14v14H0z"/>
        <path fill="#FFF" d="M13 7.875c0-.3-.119-.58-.325-.787.233-.256.352-.598.32-.955C12.935 5.498 12.362 5 11.69 5H8.601C8.755 4.535 9 3.684 9 3c0-1.085-.921-2-1.5-2-.52 0-.89.292-.907.304A.251.251 0 0 0 6.5 1.5v1.695l-1.44 3.12-.06.03v5.36c.407.191.922.295 1.25.295h4.59c.544 0 1.02-.367 1.133-.874.057-.26.023-.523-.091-.75a1.12 1.12 0 0 0 .5-1.501 1.12 1.12 0 0 0 .618-1zM2.25 6C1.561 6 1 6.561 1 7.25v4c0 .689.561 1.25 1.25 1.25h1.5c.282 0 .54-.095.75-.253V6H2.25z"/>
    </g>
</svg>
