<svg xmlns="http://www.w3.org/2000/svg" xmlns:xlink="http://www.w3.org/1999/xlink" width="70" height="70" viewBox="0 0 70 70">
    <defs>
        <rect id="b" width="60" height="60" x="5" y="5" rx="30"/>
        <filter id="a" width="125%" height="125%" x="-12.5%" y="-12.5%" filterUnits="objectBoundingBox">
            <feOffset in="SourceAlpha" result="shadowOffsetOuter1"/>
            <feGaussianBlur in="shadowOffsetOuter1" result="shadowBlurOuter1" stdDeviation="2.5"/>
            <feColorMatrix in="shadowBlurOuter1" values="0 0 0 0 0 0 0 0 0 0 0 0 0 0 0 0 0 0 0.2 0"/>
        </filter>
    </defs>
    <g fill="none" fill-rule="evenodd">
        <use fill="#000" filter="url(#a)" xlink:href="#b"/>
        <use fill="#FFF" xlink:href="#b"/>
        <path fill="#F26522" d="M24.007 29.611a1.112 1.112 0 0 0 0 1.587 1.12 1.12 0 0 0 1.571 0l8.047-8.047v26.554a1.106 1.106 0 0 0 1.112 1.111c.619 0 1.127-.492 1.127-1.111V23.151l8.032 8.047c.444.429 1.159.429 1.587 0a1.112 1.112 0 0 0 0-1.587l-9.952-9.952a1.093 1.093 0 0 0-1.571 0l-9.953 9.952z"/>
    </g>
</svg>
