<svg xmlns="http://www.w3.org/2000/svg" xmlns:xlink="http://www.w3.org/1999/xlink" width="32" height="49" viewBox="0 0 32 49">
    <defs>
        <path id="a" d="M0 .599h31.446V49H0z"/>
    </defs>
    <g fill="none" fill-rule="evenodd">
        <g transform="translate(0 -.599)">
            <mask id="b" fill="#fff">
                <use xlink:href="#a"/>
            </mask>
            <path fill="#E24746" d="M31.446 16.322c0-9.26-8.005-16.65-17.473-15.629C6.496 1.5.763 7.333.07 14.821a15.678 15.678 0 0 0 4.7 12.774 37.885 37.885 0 0 1 3.551 3.968c3.066 3.948 5.125 8.584 6.212 13.463L15.42 49h.607l.918-4.122c1.07-4.8 3.064-9.376 6.068-13.27a32.215 32.215 0 0 1 3.458-3.818 15.658 15.658 0 0 0 4.975-11.468" mask="url(#b)"/>
        </g>
        <path fill="#FFF" d="M15.724 12.085a4.874 4.874 0 1 1 0 9.748 4.874 4.874 0 0 1 0-9.747"/>
    </g>
</svg>
