<svg xmlns="http://www.w3.org/2000/svg" width="32" height="32" viewBox="0 0 32 32">
    <g fill="none" fill-rule="evenodd">
        <path d="M0 0h32v32H0z"/>
        <path fill="#FFF" d="M21.181 14.102h1.367v-1.368h-1.367v1.368zm0 2.734h1.367v-1.367h-1.367v1.367zm0 2.734h1.367v-1.367h-1.367v1.367zm-13.763 0h6.973v-1.367H7.418v1.367zm0-2.734h5.332v-1.367H7.418v1.367zm19.915-5.469V10h-4.785v1.367h-1.367V10H4v1.367a.684.684 0 0 1 0 1.367v1.368a.684.684 0 0 1 0 1.367v1.367a.684.684 0 0 1 0 1.367v1.367a.684.684 0 0 1 0 1.367v1.368h17.181v-1.367h1.367v1.367h4.785v-1.367a.684.684 0 0 1 0-1.368v-1.367a.684.684 0 0 1 0-1.367v-1.367a.684.684 0 0 1 0-1.367v-1.368a.684.684 0 0 1 0-1.367z"/>
    </g>
</svg>
