<svg xmlns="http://www.w3.org/2000/svg" width="16" height="16" viewBox="0 0 16 16">
    <g fill="none" fill-rule="evenodd">
        <path d="M0 0h16v16H0z"/>
        <path fill="#9E9E9E" d="M7.91 6.976a.492.492 0 0 0-.492.493v4.184a.492.492 0 0 0 .985 0V7.47a.492.492 0 0 0-.492-.493m.216-2.99a.824.824 0 1 1 0 1.648.824.824 0 0 1 0-1.647M8 15.015A7.023 7.023 0 0 1 .985 8 7.023 7.023 0 0 1 8 .985 7.023 7.023 0 0 1 15.015 8 7.023 7.023 0 0 1 8 15.015M8 0C3.589 0 0 3.589 0 8s3.589 8 8 8 8-3.589 8-8-3.589-8-8-8"/>
    </g>
</svg>
