<svg xmlns="http://www.w3.org/2000/svg" width="36" height="36" viewBox="0 0 36 36">
    <g fill="none" fill-rule="evenodd">
        <path d="M0 0h36v36H0z"/>
        <path fill="#8BC34A" d="M21.656 25.734h-.12l2.601-4.058a9.86 9.86 0 0 1-2.874 1.878l-1.398 2.18h-1.724v-1.442c-.234.017-.466.036-.703.036-.238 0-.47-.019-.704-.035v1.441H15.01l-1.398-2.18a9.859 9.859 0 0 1-2.874-1.878l2.601 4.058h-.12a.703.703 0 1 0 0 1.407h.703v.75c0 1.163.946 2.109 2.11 2.109h2.812c1.163 0 2.11-.946 2.11-2.11v-.75h.702a.703.703 0 1 0 0-1.406M20.307 6.511c1.249 1.846 2.052 4.854 2.052 7.973 0 3.12-.803 6.08-2.052 7.927 3.245-1.176 5.568-4.276 5.568-7.927a8.494 8.494 0 0 0-5.568-7.973M17.437 6c-1.663 0-3.515 3.926-3.515 8.484s1.852 8.438 3.515 8.438c1.664 0 3.516-3.88 3.516-8.438C20.953 9.926 19.101 6 17.438 6m-2.87.511A8.494 8.494 0 0 0 9 14.484c0 3.651 2.323 6.75 5.568 7.927-1.249-1.846-2.052-4.808-2.052-7.927 0-3.119.803-6.127 2.052-7.973"/>
    </g>
</svg>
