<svg xmlns="http://www.w3.org/2000/svg" width="24" height="24" viewBox="0 0 24 24">
    <g fill="none" fill-rule="evenodd">
        <path d="M0 0h24v24H0z"/>
        <path fill="#F26522" d="M22.68 1.32C21.8.44 20.74 0 19.5 0h-15C3.26 0 2.2.44 1.32 1.32.44 2.2 0 3.26 0 4.5v15c0 1.24.44 2.3 1.32 3.18C2.2 23.56 3.26 24 4.5 24h15c1.24 0 2.3-.44 3.18-1.32.88-.88 1.32-1.94 1.32-3.18v-15c0-1.24-.44-2.3-1.32-3.18"/>
        <path fill="#FFF" d="M19.656 18.217c-.219.48-.711.896-1.477 1.25-.765.355-1.445.532-2.039.532-.167 0-.344-.013-.531-.039a8.455 8.455 0 0 1-.477-.078 5.095 5.095 0 0 1-.515-.14 8.347 8.347 0 0 1-.461-.157 64.203 64.203 0 0 0-.984-.367c-1.708-.625-3.378-1.752-5.008-3.382-1.63-1.63-2.758-3.3-3.383-5.008a52.131 52.131 0 0 0-.367-.984 8.91 8.91 0 0 1-.297-.977 8.235 8.235 0 0 1-.078-.476A3.873 3.873 0 0 1 4 7.859c0-.593.177-1.273.531-2.039.355-.765.771-1.257 1.25-1.476C6.334 4.114 6.86 4 7.36 4c.114 0 .198.01.25.031.052.021.138.115.257.282.12.166.25.377.391.632.14.256.279.503.414.743a32.906 32.906 0 0 1 .625 1.156c.031.052.1.15.203.297.104.146.183.276.235.39a.795.795 0 0 1 .078.328c0 .157-.107.347-.32.57a5.33 5.33 0 0 1-.704.618c-.255.188-.49.388-.703.602-.213.213-.32.388-.32.523 0 .073.018.159.054.258a2.417 2.417 0 0 0 .25.508c.068.115.112.187.133.219.573 1.03 1.232 1.919 1.977 2.664.745.745 1.632 1.404 2.664 1.976.03.021.104.066.219.133a2.372 2.372 0 0 0 .508.25c.099.036.185.055.258.055.166 0 .395-.172.687-.516.292-.344.589-.685.891-1.023.302-.339.547-.508.734-.508.105 0 .214.026.329.078.114.052.244.13.39.234.146.105.245.172.297.204l.828.453c.552.291 1.013.55 1.383.773.37.224.57.378.602.46.02.053.03.137.03.251 0 .5-.115 1.026-.344 1.576"/>
    </g>
</svg>
