<svg xmlns="http://www.w3.org/2000/svg" width="32" height="32" viewBox="0 0 32 32">
    <g fill="none" fill-rule="evenodd" stroke="#757575">
        <path fill="#FFF" d="M15.418 1.333A14.077 14.077 0 0 0 2.475 9.871l-.107.263c-2.92 7.202.55 15.408 7.752 18.328a14.066 14.066 0 0 0 5.294 1.031c7.775.002 14.078-6.301 14.08-14.078 0-7.776-6.301-14.08-14.076-14.082"/>
        <g fill="#EBEBEB">
            <path d="M5.64 19.333l-.787-1.706v-1.196L6.6 14.533l.646 1.405c.08.173.242.282.42.282h3.015l1.27 2.299a.462.462 0 0 0 .4.247h1.303l-.328 1.785-1.774 1.928a.532.532 0 0 0-.137.36v1.273l-1.687 1.375a.525.525 0 0 0-.188.407v1.84l-.583-.21-.823-2.237v-4.994a.5.5 0 0 0-.374-.499l-2.118-.46zM11.647 3.113a.544.544 0 0 0 .215.087l2.671.455-.26.796-1.392.474a.553.553 0 0 0-.298.244L11 7.86 8.457 9.418l-3.747.547a.559.559 0 0 0-.474.556v1.688c0 .149.058.292.161.397l.94.96v.967l-2.292-1.56-.832-2.547c1.583-3.69 4.483-6.627 8.111-8.213l1.323.9zM24.925 7.493L22 6.802l-1.897-.746a.541.541 0 0 0-.36-.017l-2.398.708-1.052-.414.78-1.841h2.181c.1 0 .199-.027.289-.08l2.47-1.319a20.196 20.196 0 0 1 4.4 3.709l-1.488.691zM24.334 21.133l.22-3.945v-1.98a.536.536 0 0 0-.22-.437l-1.482-1.051a.47.47 0 0 0-.395-.073l-1.815.483-3.05-1.393-.419-3.127 1.163-1.237h2.495l.84 1.344c.076.12.196.203.33.226l2.965.526c.08.014.16.007.237-.02l2.53-1.196c2.64 3.52 2.2 10.56-.88 14.08l-2.519-2.2z"/>
        </g>
    </g>
</svg>
