<svg xmlns="http://www.w3.org/2000/svg" width="36" height="36" viewBox="0 0 36 36">
    <g fill="none" fill-rule="evenodd">
        <path d="M0 0h36v36H0z"/>
        <path fill="#1ABC9C" d="M23.227 12.235h2.747V9.488h-2.747v2.747zm0 4.709h2.747v-2.747h-2.747v2.747zm0 4.708h2.747v-2.746h-2.747v2.746zm-4.84 6.278h4.84v-2.746h-4.84v2.746zm-2.746-6.278h2.747v-2.747H15.64v2.747zm0-4.708h2.747v-2.747H15.64v2.747zm0-4.709h2.747V9.488H15.64v2.747zm3.793 9.417h2.747v-2.747h-2.747v2.747zm0-4.708h2.747v-2.747h-2.747v2.747zm0-4.709h2.747V9.488h-2.747v2.747zm-6.325 4.677v4.986h-.779v-11.32h.779v6.334zm-3.181-2.696c-.748 0-1.186-.565-1.186-1.283 0-.755.483-1.32 1.227-1.32.774 0 1.197.58 1.197 1.276 0 .826-.502 1.327-1.238 1.327zm.993 1.19h-.688v2.041H9.66v-2.042h-.677v-.478h1.938v.478zM9.243 23.99v-2.52h.573v2.041h1.002v.479H9.243zM10.7 19.19v.463h-.928v.599h1.037v.467H9.2v-2.52h1.556v.467h-.984v.524h.928zM8.91 8.383h.573v.968h.938v-.968h.569v2.52h-.569V9.85h-.938v1.054H8.91v-2.52zm19.468 19.436V6H13.11v3.745h-.779V7.278H7.578V25.17h4.752v-2.44h.779v5.089H7.5V30h22.125v-2.181h-1.247zM9.954 12.066c-.385 0-.61.367-.61.856 0 .494.232.842.614.842.385 0 .605-.367.605-.857 0-.452-.216-.841-.61-.841z"/>
    </g>
</svg>
