<svg xmlns="http://www.w3.org/2000/svg" width="24" height="24" viewBox="0 0 24 24">
    <g fill="none" fill-rule="evenodd">
        <path d="M0 0h24v24H0z"/>
        <path fill="#00BF8F" d="M9.63 18.127l-2.166-.886c-.95-.39-1.405.067-1.011 1.015 0 0 2.01 4.845 1.955 5.016-.058.17 1.929-2.875 1.929-2.875.562-.86.242-1.881-.707-2.27M22.767.197L.66 11.788c-.91.477-.873 1.176.082 1.553l2.822 1.116c.953.377 2.397.173 3.206-.46L19.028 4.33c.806-.635.892-.541.192.209L9.528 14.915c-.702.747-.493 1.663.462 2.035l.33.13c.955.37 2.517.99 3.467 1.379l3.13 1.274c.952.387 1.73.708 1.73.713 0 .006.006.024.01.025.005.002.23-.806.498-1.797L23.93 1.132c.269-.992-.252-1.412-1.162-.936"/>
    </g>
</svg>
