<svg xmlns="http://www.w3.org/2000/svg" xmlns:xlink="http://www.w3.org/1999/xlink" width="24" height="24" viewBox="0 0 24 24">
    <defs>
        <path id="a" d="M5 22h322a5 5 0 0 1 5 5v42a5 5 0 0 1-5 5H5a5 5 0 0 1-5-5V27a5 5 0 0 1 5-5z"/>
        <mask id="b" width="332" height="52" x="0" y="0" fill="#fff">
            <use xlink:href="#a"/>
        </mask>
    </defs>
    <g fill="none" fill-rule="evenodd" transform="translate(-110 -36)">
        <use fill="#F5F5F5" stroke="#979797" stroke-dasharray="3" stroke-width="2" mask="url(#b)" xlink:href="#a"/>
        <path d="M110 36h24v24h-24z"/>
        <path fill="#757575" d="M126 49.91a.664.664 0 0 0 0-.942l-3.529-3.529a.654.654 0 0 0-.938 0l-3.528 3.529a.67.67 0 1 0 .469 1.14.65.65 0 0 0 .469-.197l2.393-2.394v11c0 .37.296.667.666.667.37 0 .667-.296.667-.666V47.517l2.393 2.394a.658.658 0 0 0 .938 0m3.519-7.117a6.928 6.928 0 0 0-2.167-3.973A6.932 6.932 0 0 0 122.664 37a6.93 6.93 0 0 0-3.77 1.11 6.921 6.921 0 0 0-2.256 2.374 3.81 3.81 0 0 0-4.535 3.736c0 .272.029.533.078.79A5.295 5.295 0 0 0 110 49.279c0 1.367.508 2.694 1.436 3.746.953 1.076 2.211 1.712 3.554 1.786H119.273c.37 0 .667-.296.667-.666a.663.663 0 0 0-.667-.666h-4.224c-2.019-.124-3.716-2.043-3.716-4.205 0-1.397.75-2.7 1.959-3.405a.672.672 0 0 0 .291-.81 2.477 2.477 0 0 1 3.168-3.173.67.67 0 0 0 .834-.34 5.638 5.638 0 0 1 5.084-3.223 5.59 5.59 0 0 1 5.591 5.073c.03.301.257.543.553.592 2.196.375 3.854 2.404 3.854 4.718 0 2.453-1.93 4.585-4.308 4.768h-3.637a.663.663 0 0 0-.666.666c0 .37.296.666.666.666H128.434c1.504-.108 2.91-.8 3.957-1.954A6.146 6.146 0 0 0 134 48.706c-.005-2.768-1.895-5.231-4.481-5.912"/>
    </g>
</svg>
