<svg xmlns="http://www.w3.org/2000/svg" width="32" height="32" viewBox="0 0 32 32">
    <g fill="none" fill-rule="evenodd">
        <path d="M0 0h32v32H0z"/>
        <path fill="#FFF" d="M13.846 14.403l-9.62-5.04a.409.409 0 0 1-.101-.651l1.45-1.45a.681.681 0 0 1 .636-.183l12.1 2.858L23.61 4.64a2.177 2.177 0 0 1 3.082 0c.853.853.853 2.23 0 3.083l-5.261 5.17 2.821 12.229a.68.68 0 0 1-.182.635l-1.45 1.45a.409.409 0 0 1-.652-.1l-5.04-9.62-5.127 5.052.443 3.101a.68.68 0 0 1-.192.578l-.997.997a.408.408 0 0 1-.646-.09l-2.18-3.966-4.02-2.234a.409.409 0 0 1-.09-.645l.997-.997a.68.68 0 0 1 .578-.193l2.986.482 5.167-5.167v-.001z"/>
    </g>
</svg>
