<svg xmlns="http://www.w3.org/2000/svg" width="24" height="24" viewBox="0 0 24 24">
    <g fill="none" fill-rule="evenodd">
        <path d="M0 0h24v24H0z"/>
        <path fill="#00BF8F" d="M12.909 11.091H22V2h-9.091v9.091zm1.818-1.818h5.455V3.818h-5.455v5.455zM2 11.09h9.09V2H2v9.091zm1.818-1.818h5.455V3.818H3.818v5.455zm12.727-1.818h1.819V5.636h-1.819v1.819zm-10.909 0h1.818V5.636H5.636v1.819zm14.546 5.454v1.818h-1.818V12.91h-5.455v9.09h1.818v-5.454h1.818v1.819H22v-5.455h-1.818zM2 21.999h9.09v-9.09H2v9.09zm1.818-1.831h5.455v-5.44H3.818v5.44zm1.818-1.804h1.818v-1.819H5.636v1.819zM20.181 22H22v-1.818h-1.819V22zm-3.636 0h1.819v-1.818h-1.819V22z"/>
    </g>
</svg>
