<svg xmlns="http://www.w3.org/2000/svg" width="40" height="40" viewBox="0 0 40 40">
    <g fill="none" fill-rule="evenodd">
        <rect width="40" height="40" fill="#F39C12" rx="20"/>
        <path fill="#FFF" d="M31.033 27.092a3.903 3.903 0 0 1-3.898 3.898 3.903 3.903 0 0 1-3.899-3.898 3.903 3.903 0 0 1 3.899-3.899 3.903 3.903 0 0 1 3.898 3.899zm.967 0a4.87 4.87 0 0 0-4.865-4.865 4.87 4.87 0 0 0-4.865 4.865 4.87 4.87 0 0 0 4.865 4.865A4.87 4.87 0 0 0 32 27.092zM16.66 25.32h2.475v-2.475H16.66v2.475zm0-7.424h2.475v-2.474H16.66v2.474zm-4.948 0h2.474v-2.474h-2.474v2.474zm4.948 3.712h2.475v-2.474H16.66v2.474zm-4.948 0h2.474v-2.474h-2.474v2.474zm0 3.712h2.474v-2.475h-2.474v2.475zm9.939 1.835c0-.202.011-.402.033-.598H9.237V14.186h17.32v7.528a5.507 5.507 0 0 1 1.238.013V10.474h-3.093a1.858 1.858 0 0 1-1.856 1.856 1.858 1.858 0 0 1-1.856-1.856h-6.185a1.858 1.858 0 0 1-1.856 1.856 1.858 1.858 0 0 1-1.856-1.856H8v17.321h13.688a5.506 5.506 0 0 1-.037-.64zm-.042-9.259h2.474v-2.474H21.61v2.474zm-8.66-6.185c.683 0 1.237-.554 1.237-1.238V9.237a1.237 1.237 0 1 0-2.474 0v1.237c0 .684.554 1.238 1.237 1.238zm9.897 0c.684 0 1.237-.554 1.237-1.238V9.237a1.236 1.236 0 1 0-2.474 0v1.237c0 .684.553 1.238 1.237 1.238zm-1.237 9.897h2.474v-2.474H21.61v2.474z"/>
        <path fill="#FFF" d="M28.516 28.6c.023.029.058.046.096.046h.779a.123.123 0 0 0 .123-.123c-.003-1.095-.23-1.945-.677-2.528-.344-.448-.693-.561-.708-.566a.123.123 0 0 0-.138.186c.002.003.22.33.39.85.155.474.3 1.212.111 2.03a.123.123 0 0 0 .024.105zm-1.678-2.88a.6.6 0 0 1 .271-.282c.132-.068.421-.06.645-.041-.17-.132-.424-.29-.682-.295a.585.585 0 0 0-.44.186.918.918 0 0 0-.276.671l.482-.238zm.352-.126a.44.44 0 0 0-.222.276c-.045.153-.05.412.135.814.066-.314.23-.824.63-1.112a3.43 3.43 0 0 0-.276-.013.697.697 0 0 0-.267.035zm1.06-1.012a.537.537 0 0 1 .125-.082l.241-.5a.918.918 0 0 0-.671.277.584.584 0 0 0-.187.44c.004.206.106.41.214.57.052-.24.146-.59.277-.705zm-.104.736c.358-.215.686-.191.91-.124.11.033.204.078.278.121-.123-.463-.36-.617-.501-.668a.534.534 0 0 0-.182-.032.438.438 0 0 0-.286.098c-.079.07-.163.35-.22.605zm1.609 3.436h-4.632a.123.123 0 1 0 0 .246h4.632a.123.123 0 1 0 0-.246zm-4.176-.108h2.562a.123.123 0 0 0 .123-.123c0-.774-.63-1.403-1.404-1.403-.774 0-1.404.63-1.404 1.403 0 .068.055.123.123.123z"/>
    </g>
</svg>
