<svg xmlns="http://www.w3.org/2000/svg" xmlns:xlink="http://www.w3.org/1999/xlink" width="32" height="32" viewBox="0 0 32 32">
    <defs>
        <path id="a" d="M31.476 0H0v32h31.476z"/>
    </defs>
    <g fill="none" fill-rule="evenodd">
        <mask id="b" fill="#fff">
            <use xlink:href="#a"/>
        </mask>
        <path fill="#FFF" d="M12.508 30.012A14.402 14.402 0 0 1 1.556 16c0-7.96 6.476-14.436 14.435-14.436 7.96 0 14.436 6.476 14.436 14.436 0 1.788-.327 3.539-.971 5.204a.515.515 0 1 0 .961.372A15.4 15.4 0 0 0 31.457 16C31.458 7.472 24.52.533 15.992.533 7.463.533.525 7.472.525 16A15.433 15.433 0 0 0 12.26 31.013a.517.517 0 0 0 .248-1.001zM8.7 7.918l-.364-.365a.514.514 0 1 0-.73.729l.365.364a.514.514 0 1 0 .73-.728zm-.729 15.31l-.364.364a.515.515 0 1 0 .729.73l.364-.365a.514.514 0 1 0-.729-.729zM23.646 7.553l-.364.365a.515.515 0 1 0 .729.728l.365-.364a.514.514 0 1 0-.73-.729zM4.649 15.422a.515.515 0 1 0 0 1.031h.516a.515.515 0 1 0 0-1.031h-.516zm22.169 0a.515.515 0 1 0 0 1.031h.515a.515.515 0 1 0 0-1.031h-.515zM15.476 4.595v.516a.515.515 0 1 0 1.03 0v-.516a.515.515 0 1 0-1.03 0zm.515 12.374a1.032 1.032 0 0 1 0-2.063c.568 0 1.031.463 1.031 1.031 0 .57-.463 1.032-1.03 1.032zm2.062-1.032a2.06 2.06 0 0 0-1.546-1.989V8.72a.515.515 0 1 0-1.031 0v5.228a2.06 2.06 0 0 0-1.474 1.474H10.32a.515.515 0 1 0 0 1.031h3.682A2.06 2.06 0 0 0 15.992 18a2.064 2.064 0 0 0 2.061-2.063zm5.826 12.586a.506.506 0 0 0-.155.366c0 .134.057.268.15.366.098.092.232.15.366.15a.543.543 0 0 0 .366-.15.525.525 0 0 0 0-.732c-.196-.191-.541-.191-.727 0zm.36-6.337a.516.516 0 0 0-.515.516v4.124a.515.515 0 1 0 1.031 0v-4.124a.516.516 0 0 0-.515-.516zm6.17 8.188a.116.116 0 0 1-.106.061H18.09a.115.115 0 0 1-.106-.061.116.116 0 0 1 0-.123l6.107-10.469a.117.117 0 0 1 .106-.06.12.12 0 0 1 .106.06l6.107 10.47a.117.117 0 0 1 0 .122zm.89-.642l-6.106-10.47a1.141 1.141 0 0 0-.997-.571c-.415 0-.787.213-.996.572l-6.107 10.469c-.212.36-.213.793-.004 1.155.208.363.582.58 1 .58h12.214a1.14 1.14 0 0 0 1-.58 1.142 1.142 0 0 0-.004-1.155z" mask="url(#b)"/>
    </g>
</svg>
