<svg xmlns="http://www.w3.org/2000/svg" width="28" height="28" viewBox="0 0 28 28">
    <g fill="none" fill-rule="evenodd">
        <rect width="28" height="28" fill="#8BC34A" rx="14"/>
        <path fill="#FFF" d="M15.452 18.353h-.569v-6.06a.639.639 0 0 0-.643-.643h-2.597a.639.639 0 0 0-.643.643v1.336c0 .346.272.643.643.643h.52v4.106h-.52a.639.639 0 0 0-.643.643v1.336c0 .346.272.643.643.643h3.81a.639.639 0 0 0 .642-.643V19.02a.66.66 0 0 0-.643-.668M12.014 9.3c.05.1.1.198.149.272.05.075.123.149.173.223.074.074.148.148.247.223.074.05.173.123.297.148a1.52 1.52 0 0 0 .643.124c.099 0 .223 0 .322-.025a.885.885 0 0 0 .272-.099h.024c.1-.05.198-.099.297-.173.074-.05.149-.124.223-.198l.025-.025c.074-.074.123-.148.173-.222.05-.075.099-.149.123-.248 0-.024 0-.024.025-.05.05-.098.074-.222.099-.32.025-.1.025-.223.025-.322 0-.1 0-.223-.025-.322s-.05-.198-.099-.321a1.404 1.404 0 0 0-.297-.446l-.05-.049c-.073-.074-.148-.124-.247-.198-.098-.05-.173-.099-.272-.148a1.395 1.395 0 0 0-.296-.1C13.72 7 13.622 7 13.523 7s-.223 0-.322.025c-.099.024-.197.05-.296.099h-.025c-.1.05-.198.099-.272.148-.1.074-.173.124-.248.198a1.604 1.604 0 0 0-.197.223c-.05.074-.1.173-.149.272-.05.099-.074.198-.099.296-.025.124-.025.223-.025.322s0 .223.025.322c.025.197.074.296.1.395"/>
    </g>
</svg>
