<svg xmlns="http://www.w3.org/2000/svg" xmlns:xlink="http://www.w3.org/1999/xlink" width="300" height="131" viewBox="0 0 300 131">
    <defs>
        <linearGradient id="b" x1="50%" x2="50%" y1="52.313%" y2="0%">
            <stop offset="0%" stop-color="#9CDBFE"/>
            <stop offset="100%" stop-color="#01A0FE"/>
        </linearGradient>
        <path id="a" d="M0 0h300v131H0z"/>
        <radialGradient id="c" cx="33.915%" cy="40.866%" r="62.017%" fx="33.915%" fy="40.866%" gradientTransform="scale(1 .9993) rotate(62.864 .339 .409)">
            <stop offset="0%" stop-color="#FFEC81" stop-opacity=".8"/>
            <stop offset="100%" stop-color="#FFF496" stop-opacity="0"/>
        </radialGradient>
        <path id="e" d="M299.362 47.602h-78.776c-.047-.058-.1-.11-.147-.17-.044.06-.095.112-.14.17H0V8.964c3.044-2.44 6.731-3.871 10.706-3.871 4.65 0 8.905 1.958 12.2 5.201a11.676 11.676 0 0 1 6.796-2.181c3.773 0 7.128 1.793 9.302 4.58a20.826 20.826 0 0 1 13.07-4.58 20.815 20.815 0 0 1 16.561 8.145c2.174.105 4.167.885 5.782 2.145a17.662 17.662 0 0 1 5.194-.777c7.88 0 14.266 5.016 14.266 11.203a8.88 8.88 0 0 1-.233 1.968 13.403 13.403 0 0 1 5.297.136c2.953-3.386 7.74-5.59 13.146-5.59 5.268 0 9.948 2.092 12.918 5.331a18.241 18.241 0 0 1 6.325.458 6.01 6.01 0 0 1 1.958-.332c2.153 0 4.078 1.144 5.351 2.938.102-.06.207-.116.31-.174 1.096-2.79 3.506-4.733 6.31-4.733 2.372 0 4.464 1.389 5.716 3.504 1.661-5.029 5.836-8.603 10.736-8.603 2.97 0 5.667 1.32 7.709 3.47.997-.996 2.29-1.601 3.706-1.601 2.457 0 4.544 1.814 5.346 4.353 2.454-2.078 5.584-3.328 8.998-3.328 1.563 0 3.063.27 4.47.754 1.828-4.465 5.726-7.558 10.253-7.558a9.91 9.91 0 0 1 4.126.914c2.418-3.722 6.237-6.137 10.55-6.137 3.66 0 6.972 1.73 9.368 4.527 1.9-.963 3.996-1.5 6.201-1.5 1.996 0 3.902.443 5.656 1.24 2.752-6.342 8.831-10.753 15.893-10.753 4.02 0 7.72 1.432 10.673 3.833 2.326-2.38 5.367-3.833 8.705-3.833.55 0 1.09.052 1.622.128 2.215-4.664 6.478-7.826 11.377-7.826 4.852 0 9.077 3.106 11.31 7.699l.014-.001c.564 0 1.122.034 1.674.095m-126.244 30.68c-.083.74-.21 1.465-.391 2.163.174-.062.348-.124.524-.173.023-.682.09-1.352.2-2.009-.108.007-.215.02-.325.02"/>
        <linearGradient id="f" x1="50%" x2="50%" y1="0%" y2="100%">
            <stop offset="0%" stop-color="#AFD1FD"/>
            <stop offset="100%" stop-color="#FFF"/>
        </linearGradient>
        <path id="h" d="M299.362 43.535H79.062c-.045-.054-.095-.102-.139-.156-.047.054-.1.102-.148.156H0V7.536c.551-.055 1.11-.087 1.674-.087h.014C3.921 3.254 8.145.416 12.998.416c4.9 0 9.162 2.889 11.377 7.151.532-.07 1.071-.117 1.622-.117 3.338 0 6.38 1.329 8.705 3.503 2.952-2.194 6.652-3.503 10.673-3.503 7.062 0 13.14 4.03 15.892 9.827a14.692 14.692 0 0 1 11.858.237c2.395-2.556 5.708-4.136 9.367-4.136 4.314 0 8.134 2.206 10.55 5.607 1.28-.533 2.67-.836 4.127-.836 4.528 0 8.425 2.827 10.252 6.907a14.925 14.925 0 0 1 4.471-.689c3.414 0 6.545 1.142 8.998 3.041.802-2.32 2.89-3.977 5.346-3.977 1.416 0 2.709.553 3.706 1.463 2.042-1.965 4.74-3.172 7.708-3.172 4.901 0 9.076 3.267 10.737 7.862 1.252-1.933 3.344-3.201 5.716-3.201 2.804 0 5.214 1.774 6.31 4.324.103.053.208.103.31.16 1.273-1.64 3.197-2.685 5.35-2.685.682 0 1.338.109 1.96.304a19.91 19.91 0 0 1 6.324-.42c2.97-2.96 7.649-4.87 12.917-4.87 5.406 0 10.193 2.012 13.148 5.106a14.63 14.63 0 0 1 5.296-.123 7.451 7.451 0 0 1-.234-1.798c0-5.654 6.388-10.238 14.267-10.238 1.834 0 3.582.258 5.194.71 1.615-1.15 3.608-1.864 5.782-1.96 3.792-4.52 9.798-7.443 16.56-7.443 4.954 0 9.5 1.57 13.07 4.185 2.176-2.547 5.53-4.185 9.302-4.185 2.53 0 4.87.74 6.797 1.993 3.295-2.963 7.55-4.753 12.2-4.753 3.975 0 7.661 1.308 10.706 3.538m-172.727 29.32c-.181-.637-.308-1.3-.39-1.976h-.009c-.11 0-.217-.01-.324-.016.11.599.175 1.211.199 1.835"/>
        <linearGradient id="i" x1="50%" x2="50%" y1="0%" y2="99.999%">
            <stop offset="0%" stop-color="#AFD1FD"/>
            <stop offset="100%" stop-color="#FFF"/>
        </linearGradient>
        <path id="k" d="M299.362 40.938h-78.776c-.047-.05-.1-.097-.147-.147-.044.051-.095.096-.14.147H0V7.755a18.821 18.821 0 0 1 10.706-3.324 18.83 18.83 0 0 1 12.2 4.467c1.926-1.178 4.266-1.874 6.796-1.874 3.773 0 7.128 1.54 9.302 3.933 3.57-2.457 8.117-3.933 13.07-3.933 6.763 0 12.768 2.747 16.561 6.996 2.174.09 4.167.76 5.782 1.842a20.343 20.343 0 0 1 5.194-.668c7.88 0 14.266 4.308 14.266 9.621 0 .578-.088 1.14-.233 1.69a15.576 15.576 0 0 1 5.297.116c2.953-2.908 7.74-4.8 13.146-4.8 5.268 0 9.948 1.797 12.918 4.578a21.165 21.165 0 0 1 6.325.394 6.927 6.927 0 0 1 7.31 2.238c.101-.053.206-.1.31-.15a6.93 6.93 0 1 1 12.025-1.056c1.661-4.318 5.836-7.388 10.736-7.388 2.97 0 5.667 1.134 7.709 2.981a5.672 5.672 0 0 1 3.706-1.375 5.699 5.699 0 0 1 5.346 3.738c2.454-1.785 5.584-2.858 8.998-2.858 1.563 0 3.063.232 4.47.647 1.828-3.834 5.726-6.49 10.253-6.49 1.457 0 2.846.284 4.126.784 2.418-3.196 6.237-5.27 10.55-5.27 3.66 0 6.972 1.487 9.368 3.888a15.494 15.494 0 0 1 6.201-1.288c1.996 0 3.902.38 5.656 1.065 2.752-5.447 8.831-9.235 15.893-9.235 4.02 0 7.72 1.23 10.673 3.292a13.15 13.15 0 0 1 8.705-3.292c.55 0 1.09.045 1.622.11 2.215-4.005 6.478-6.72 11.377-6.72 4.852 0 9.077 2.667 11.31 6.611h.014c.564 0 1.122.029 1.674.081M173.118 33.454c-.083.636-.21 1.258-.391 1.857.174-.053.348-.106.524-.148.023-.586.09-1.162.2-1.725-.108.007-.215.017-.325.017"/>
        <linearGradient id="l" x1="50%" x2="50%" y1="100%" y2="0%">
            <stop offset="0%" stop-color="#DDE9FD"/>
            <stop offset="100%" stop-color="#FFF"/>
        </linearGradient>
        <path id="n" d="M1.689 7.026h-.015c-.565 0-1.122.029-1.674.081v22.34h299.361V7.755a18.819 18.819 0 0 0-10.705-3.324c-4.65 0-8.906 1.682-12.2 4.467-1.926-1.178-4.266-1.873-6.796-1.873-3.772 0-7.127 1.54-9.302 3.932-3.57-2.457-8.118-3.932-13.071-3.932-6.763 0-12.768 2.746-16.56 6.994-2.174.091-4.167.76-5.783 1.843a20.338 20.338 0 0 0-5.193-.667c-7.88 0-14.267 4.307-14.267 9.62 0 .578.09 1.14.234 1.69a15.514 15.514 0 0 0-5.297.116c-2.954-2.908-7.74-4.8-13.147-4.8-5.267 0-9.947 1.797-12.917 4.578a21.152 21.152 0 0 0-6.324.393 6.926 6.926 0 0 0-7.31 2.238c-.102-.052-.207-.1-.31-.15a6.937 6.937 0 0 0-6.31-4.064 6.931 6.931 0 0 0-5.716 3.01c-1.661-4.319-5.836-7.388-10.737-7.388-2.969 0-5.666 1.133-7.708 2.98a5.672 5.672 0 0 0-3.706-1.375 5.697 5.697 0 0 0-5.346 3.738c-2.454-1.785-5.584-2.858-8.998-2.858-1.563 0-3.064.232-4.471.647-1.827-3.834-5.724-6.49-10.252-6.49a11.3 11.3 0 0 0-4.127.785c-2.416-3.197-6.236-5.27-10.55-5.27a13.19 13.19 0 0 0-9.367 3.887 15.493 15.493 0 0 0-6.201-1.287c-1.997 0-3.903.38-5.657 1.064-2.751-5.446-8.83-9.234-15.892-9.234-4.02 0-7.72 1.229-10.672 3.291a13.148 13.148 0 0 0-8.706-3.29c-.55 0-1.09.043-1.622.11C22.159 3.128 17.897.414 12.998.414c-4.853 0-9.077 2.667-11.31 6.611"/>
        <linearGradient id="o" x1="50%" x2="50%" y1="0%" y2="139.583%">
            <stop offset="0%" stop-color="#FDFDFD"/>
            <stop offset="100%" stop-color="#FFF"/>
        </linearGradient>
        <path id="q" d="M.49.666h44.016v30.512H.49z"/>
        <path id="s" d="M26.737.712L.394 7.224a.34.34 0 1 0 .162.659L26.9 1.371a.34.34 0 1 0-.162-.66"/>
        <linearGradient id="t" x1="-.171%" x2="100.17%" y1="52.863%" y2="47.129%">
            <stop offset="0%" stop-color="#9CDBFD"/>
            <stop offset="100%" stop-color="#EFF7FD"/>
        </linearGradient>
        <path id="v" d="M38.808.58L.896 8.804a.339.339 0 0 0 .076.67.308.308 0 0 0 .067-.007l37.913-8.224a.339.339 0 1 0-.144-.663"/>
        <linearGradient id="w" x1="-.151%" x2="100.15%" y1="53.308%" y2="46.694%">
            <stop offset="0%" stop-color="#9CDBFD"/>
            <stop offset="100%" stop-color="#EFF7FD"/>
        </linearGradient>
        <path id="y" d="M26.821.18L.48 6.69a.34.34 0 0 0 .087.67.36.36 0 0 0 .076-.01L26.984.84a.34.34 0 0 0-.163-.66"/>
        <linearGradient id="z" x1="-.172%" x2="100.171%" y1="52.861%" y2="47.125%">
            <stop offset="0%" stop-color="#9CDBFD"/>
            <stop offset="100%" stop-color="#EFF7FD"/>
        </linearGradient>
        <path id="B" d="M18.182.148L.722 4.465a.225.225 0 1 0 .108.437L18.29.585a.225.225 0 0 0-.108-.437"/>
        <linearGradient id="C" x1="-.171%" x2="100.172%" y1="52.87%" y2="47.134%">
            <stop offset="0%" stop-color="#9CDBFD"/>
            <stop offset="100%" stop-color="#EFF7FD"/>
        </linearGradient>
        <path id="E" d="M11.904.299L.29 3.169a.34.34 0 0 0 .086.67.346.346 0 0 0 .076-.01L12.065.959a.34.34 0 0 0-.161-.66"/>
        <linearGradient id="F" x1="-.168%" x2="100.168%" y1="52.645%" y2="47.36%">
            <stop offset="0%" stop-color="#9CDBFD"/>
            <stop offset="100%" stop-color="#EFF7FD"/>
        </linearGradient>
        <path id="H" d="M26.906.282L.563 6.794a.339.339 0 1 0 .163.66L27.07.941a.34.34 0 0 0-.163-.66"/>
        <linearGradient id="I" x1="-.171%" x2="100.172%" y1="52.867%" y2="47.131%">
            <stop offset="0%" stop-color="#9CDBFD"/>
            <stop offset="100%" stop-color="#EFF7FD"/>
        </linearGradient>
        <path id="K" d="M.402.47a.252.252 0 0 0 .207.294c.118.021 11.969 2.125 17.28 7.749.936.99 1.258 1.96.985 2.967C17.8 15.444 7.91 18.376 7.811 18.405a.255.255 0 0 0 .142.489c.418-.122 10.264-3.043 11.411-7.28.319-1.176-.053-2.338-1.106-3.45C12.832 2.417.816.283.695.261A.251.251 0 0 0 .402.47"/>
        <path id="M" d="M2.633.664s-.65-.321-.93-.083c-.219.187-.303.169-.33.153.064.055.42.348.682.394a.728.728 0 0 0 .062.45c-.374.19-1.191.799-1.286 2.526 0 0-.263 1.1-.728 1.117 0 0 .124.31.775-.465 0 0-.17.415-.27.508C.867 5.114 2.843 4 3.755 2.091a4.82 4.82 0 0 0 .496-.056c.37 1.172 1.17 3.193 2.313 3.247 0 0 .293.403.48.45.18.045.956-2.043-.805-4.413.073-.04.14-.07.216-.113 0 0 1.28-.181 2.582.005 0 0-1.87-.424-2.717-.362 0 0-1.037-.524-2.218-.524-.486 0-.995.089-1.468.339M.583 5.28a.067.067 0 0 0 .026-.017c-.024.014-.033.02-.026.017"/>
        <linearGradient id="N" x1="49.996%" x2="49.996%" y1="100%" y2=".004%">
            <stop offset="0%" stop-color="#ACB6C6"/>
            <stop offset="100%" stop-color="#FFF"/>
        </linearGradient>
        <path id="P" d="M1.83.315S1.54.17 1.416.278c-.097.083-.135.075-.147.067.028.025.188.156.304.177-.014.07 0 .14.028.2-.167.085-.531.357-.574 1.128 0 0-.117.491-.324.499 0 0 .054.137.345-.208 0 0-.075.185-.12.227.115-.068.996-.565 1.403-1.416.07-.005.144-.013.221-.026.166.523.523 1.425 1.033 1.45 0 0 .13.18.213.2.082.02.427-.911-.358-1.968l.097-.051s.57-.082 1.151.002c0 0-.834-.19-1.212-.162 0 0-.463-.233-.99-.234-.216 0-.444.04-.654.152m-.563.03L1.264.342s0 .002.004.003m-.352 2.03a.03.03 0 0 0 .011-.007l-.011.007"/>
        <linearGradient id="Q" x1="49.997%" x2="49.997%" y1="100%" y2=".012%">
            <stop offset="0%" stop-color="#ACB6C6"/>
            <stop offset="100%" stop-color="#FFF"/>
        </linearGradient>
        <path id="S" d="M3.487 1.115L3.43.545l-.16.615-.113-.365-.103.729-.103-.284v.057c-.478 1.048-.148 2.974-.148 2.974s-.159.091-.482 0c-.322-.09-.403.213-.235.262.167.05.297.289.297.289-.183.236-.381.266-.684.403-.305.137-.76.858-.76.858l-.311.107H.97l-.259.22L1 6.313l-.175.35.343-.23-.091.23c.386-.221 1.252-.594 1.252-.594 1.2-.28 1.366-.866 1.366-.866s.387.136.798.388c.41.25.532.023.6-.168.068-.19.06-.258-.395-.372-.456-.114-.66-.387-.66-.387.394-1.049-.073-3.981-.073-3.981l-.205.352-.057-.49-.216.57z"/>
        <linearGradient id="T" x1="50%" x2="50%" y1=".001%" y2="99.993%">
            <stop offset="0%" stop-color="#ACB6C6"/>
            <stop offset="100%" stop-color="#FFF"/>
        </linearGradient>
        <path id="V" d="M2.888.974l-.057-.57-.16.616-.113-.366-.103.73-.102-.284v.056c-.478 1.049-.148 2.976-.148 2.976s-.16.09-.483 0c-.322-.092-.402.212-.235.261.167.05.296.288.296.288-.182.237-.38.267-.683.404-.304.136-.76.858-.76.858l-.31.106h.34l-.257.22.288-.097-.174.349.341-.228-.09.228c.386-.22 1.252-.592 1.252-.592 1.2-.282 1.366-.867 1.366-.867s.388.136.798.388c.41.25.531.022.6-.168.068-.19.06-.259-.395-.372-.455-.114-.661-.387-.661-.387C3.833 3.473 3.367.54 3.367.54L3.16.894l-.057-.49-.216.57z"/>
        <linearGradient id="W" x1="49.999%" x2="49.999%" y1="-.004%" y2="100.001%">
            <stop offset="0%" stop-color="#ACB6C6"/>
            <stop offset="100%" stop-color="#FFF"/>
        </linearGradient>
        <path id="Y" d="M.21 1.16v.028s.366-.076.389-.168c0 0 .722.293.842.023C1.561.773 1.1.13 1.1.13h-.017C.961.13.2.17.21 1.16"/>
        <linearGradient id="Z" x1="-.001%" x2="99.986%" y1="50.003%" y2="50.003%">
            <stop offset="0%" stop-color="#ACB6C6"/>
            <stop offset="100%" stop-color="#FFF"/>
        </linearGradient>
        <path id="ab" d="M.327 2.707c.227 1.019 1.086 1.97 1.813 2.532-.082.043-.139.077-.139.077 1.765 2.057 2.671 1.58 2.671 1.58.117.129 3.009 2.465 3.009 2.465S6.113 7.803 6.647 7.269c.534-.535 2.37 0 2.37 0-.279-.303-1.882-.605-1.882-.605-1.94-.105-2.184-.546-2.184-.546s-.042-.082-.114-.2c.018-.004.038-.006.038-.006C8.203 3.697 8.413.891 8.413.891S7.61 2.11 6.496 2.879c-.857.59-2.06 1.618-2.573 2.064a.912.912 0 0 0-.523-.11c-.85-1.57-1.063-1.786-1.063-1.786C2.256 2.464.467.712.467.712s-.488.424-.14 1.995"/>
        <linearGradient id="ac" x1="100.003%" x2="-.001%" y1="50.002%" y2="50.002%">
            <stop offset="0%" stop-color="#ACB6C6"/>
            <stop offset="100%" stop-color="#FFF"/>
        </linearGradient>
        <path id="ae" d="M.34 1.443v.03s.368-.076.391-.17c0 0 .722.294.841.024.12-.27-.343-.913-.343-.913h-.015C1.092.414.33.454.34 1.443"/>
        <linearGradient id="af" x1=".038%" x2="100.012%" y1="49.99%" y2="49.99%">
            <stop offset="0%" stop-color="#ACB6C6"/>
            <stop offset="100%" stop-color="#FFF"/>
        </linearGradient>
        <path id="ah" d="M.46 2.272c.226 1.02 1.084 1.972 1.812 2.533l-.14.077c1.766 2.057 2.672 1.58 2.672 1.58.116.128 3.008 2.465 3.008 2.465S6.245 7.37 6.78 6.835c.534-.535 2.37 0 2.37 0-.28-.302-1.882-.605-1.882-.605-1.94-.104-2.184-.546-2.184-.546s-.041-.082-.115-.2l.04-.006C8.335 3.264 8.544.456 8.544.456s-.8 1.221-1.916 1.989c-.857.59-2.06 1.619-2.574 2.065a.918.918 0 0 0-.522-.112c-.85-1.57-1.063-1.784-1.063-1.784C2.388 2.03.598.279.598.279S.11.702.459 2.272"/>
        <linearGradient id="ai" x1="100%" x2=".003%" y1="50%" y2="50%">
            <stop offset="0%" stop-color="#ACB6C6"/>
            <stop offset="100%" stop-color="#FFF"/>
        </linearGradient>
    </defs>
    <g fill="none" fill-rule="evenodd">
        <g>
            <mask id="d" fill="#fff">
                <use xlink:href="#a"/>
            </mask>
            <use fill="url(#b)" xlink:href="#a"/>
            <ellipse cx="59.455" cy="70.412" fill="url(#c)" mask="url(#d)" rx="122.727" ry="122.813"/>
            <g mask="url(#d)">
                <g transform="translate(0 84.857)">
                    <mask id="g" fill="#fff">
                        <use xlink:href="#e"/>
                    </mask>
                    <path fill="url(#f)" d="M173.118 38.888h.008c.11 0 .217-.012.325-.019-.11.657-.177 1.327-.2 2.009-.176.05-.35.111-.524.173.181-.698.308-1.422.39-2.163m124.57-30.775h-.013c-2.233-4.592-6.458-7.698-11.31-7.698-4.9 0-9.162 3.162-11.377 7.826a11.43 11.43 0 0 0-1.622-.128c-3.338 0-6.379 1.453-8.705 3.833-2.952-2.401-6.653-3.833-10.673-3.833-7.062 0-13.14 4.411-15.893 10.753a13.602 13.602 0 0 0-5.656-1.24c-2.205 0-4.3.537-6.2 1.5-2.397-2.797-5.71-4.527-9.368-4.527-4.314 0-8.133 2.415-10.551 6.137a9.91 9.91 0 0 0-4.126-.914c-4.527 0-8.425 3.093-10.253 7.558a13.727 13.727 0 0 0-4.47-.754c-3.414 0-6.544 1.25-8.998 3.328-.802-2.539-2.89-4.353-5.346-4.353-1.416 0-2.71.605-3.706 1.602-2.042-2.15-4.74-3.471-7.709-3.471-4.9 0-9.075 3.574-10.736 8.603-1.252-2.115-3.344-3.504-5.715-3.504-2.805 0-5.215 1.943-6.31 4.733-.104.058-.209.113-.31.174-1.274-1.794-3.199-2.938-5.352-2.938-.68 0-1.338.12-1.958.333a18.241 18.241 0 0 0-6.325-.459c-2.97-3.24-7.65-5.33-12.918-5.33-5.406 0-10.193 2.203-13.147 5.589a13.403 13.403 0 0 0-5.296-.136 8.88 8.88 0 0 0 .233-1.968c0-6.187-6.387-11.203-14.266-11.203-1.835 0-3.583.282-5.194.777a10.167 10.167 0 0 0-5.782-2.145 20.815 20.815 0 0 0-16.56-8.145c-4.954 0-9.5 1.718-13.07 4.58-2.175-2.787-5.53-4.58-9.303-4.58-2.53 0-4.87.81-6.796 2.181-3.295-3.243-7.55-5.201-12.2-5.201-3.975 0-7.662 1.43-10.706 3.87v38.639h220.3c.044-.058.095-.11.139-.17.047.06.1.112.147.17H299.362V8.208a15.39 15.39 0 0 0-1.674-.095" mask="url(#g)"/>
                </g>
                <g transform="translate(0 94.912)">
                    <mask id="j" fill="#fff">
                        <use xlink:href="#h"/>
                    </mask>
                    <path fill="url(#i)" d="M126.635 37.548c-.174-.056-.348-.113-.524-.158a12.883 12.883 0 0 0-.2-1.835c.108.005.215.017.325.017h.009c.082.676.209 1.338.39 1.976M0 7.536v35.999h78.775c.048-.054.1-.102.148-.156.044.054.094.102.14.156H299.361V8.227c-3.045-2.23-6.731-3.538-10.706-3.538-4.65 0-8.905 1.79-12.2 4.753a12.443 12.443 0 0 0-6.797-1.993c-3.772 0-7.126 1.638-9.302 4.185-3.57-2.615-8.116-4.185-13.07-4.185-6.762 0-12.768 2.923-16.56 7.444-2.174.095-4.167.808-5.782 1.96a19.227 19.227 0 0 0-5.194-.71c-7.88 0-14.267 4.583-14.267 10.237 0 .614.09 1.213.234 1.798a14.63 14.63 0 0 0-5.297.124c-2.954-3.095-7.74-5.108-13.147-5.108-5.268 0-9.947 1.911-12.917 4.872a19.91 19.91 0 0 0-6.324.419 6.542 6.542 0 0 0-1.96-.304c-2.153 0-4.077 1.045-5.35 2.684-.102-.056-.207-.106-.31-.159-1.096-2.55-3.506-4.324-6.31-4.324-2.372 0-4.464 1.268-5.716 3.2-1.661-4.594-5.836-7.86-10.737-7.86-2.969 0-5.666 1.206-7.708 3.17-.997-.91-2.29-1.462-3.706-1.462-2.457 0-4.544 1.658-5.346 3.977-2.453-1.9-5.584-3.04-8.998-3.04-1.564 0-3.064.247-4.471.688-1.827-4.08-5.724-6.907-10.252-6.907-1.458 0-2.846.303-4.127.836-2.416-3.401-6.236-5.607-10.55-5.607-3.66 0-6.972 1.58-9.367 4.136a14.708 14.708 0 0 0-11.858-.237c-2.751-5.796-8.83-9.827-15.892-9.827-4.02 0-7.72 1.31-10.673 3.503-2.326-2.174-5.367-3.503-8.705-3.503-.55 0-1.09.048-1.622.117C22.16 3.304 17.897.416 12.998.416c-4.853 0-9.077 2.837-11.31 7.034h-.014c-.564 0-1.123.03-1.674.086" mask="url(#j)"/>
                </g>
                <g transform="translate(0 107.84)">
                    <mask id="m" fill="#fff">
                        <use xlink:href="#k"/>
                    </mask>
                    <path fill="url(#l)" d="M173.118 33.454h.008c.11 0 .217-.01.325-.016-.11.563-.177 1.14-.2 1.725-.176.042-.35.095-.524.148.181-.599.308-1.22.39-1.857m124.57-26.429l-.013.001c-2.233-3.944-6.458-6.61-11.31-6.61-4.9 0-9.162 2.714-11.377 6.72a13.276 13.276 0 0 0-1.622-.11 13.15 13.15 0 0 0-8.705 3.291c-2.952-2.061-6.653-3.292-10.673-3.292-7.062 0-13.14 3.788-15.893 9.235a15.524 15.524 0 0 0-5.656-1.065c-2.205 0-4.3.461-6.2 1.288a13.192 13.192 0 0 0-9.368-3.887c-4.314 0-8.133 2.073-10.551 5.27-1.28-.5-2.669-.786-4.126-.786-4.527 0-8.425 2.657-10.253 6.491a15.78 15.78 0 0 0-4.47-.647c-3.414 0-6.544 1.073-8.998 2.858a5.699 5.699 0 0 0-5.346-3.738c-1.416 0-2.71.52-3.706 1.375a11.448 11.448 0 0 0-7.709-2.981c-4.9 0-9.075 3.07-10.736 7.388a6.93 6.93 0 0 0-12.025 1.056c-.104.05-.209.097-.31.15a6.927 6.927 0 0 0-7.31-2.238 21.165 21.165 0 0 0-6.325-.394c-2.97-2.781-7.65-4.578-12.918-4.578-5.406 0-10.193 1.892-13.147 4.8a15.576 15.576 0 0 0-5.296-.116c.145-.55.233-1.112.233-1.69 0-5.313-6.387-9.621-14.266-9.621-1.835 0-3.583.242-5.194.668-1.615-1.082-3.608-1.752-5.782-1.842-3.793-4.25-9.798-6.996-16.56-6.996-4.954 0-9.5 1.476-13.07 3.933-2.175-2.393-5.53-3.933-9.303-3.933-2.53 0-4.87.696-6.796 1.874a18.83 18.83 0 0 0-12.2-4.467A18.821 18.821 0 0 0 0 7.756v33.182h220.3c.044-.05.095-.096.139-.147.047.05.1.096.147.147H299.362V7.108a17.686 17.686 0 0 0-1.674-.083" mask="url(#m)"/>
                </g>
                <g transform="translate(0 101.49)">
                    <mask id="p" fill="#fff">
                        <use xlink:href="#n"/>
                    </mask>
                    <path fill="url(#o)" d="M1.689 7.026h-.015c-.565 0-1.122.029-1.674.081v22.34h299.361V7.755a18.819 18.819 0 0 0-10.705-3.324c-4.65 0-8.906 1.682-12.2 4.467-1.926-1.178-4.266-1.873-6.796-1.873-3.772 0-7.127 1.54-9.302 3.932-3.57-2.457-8.118-3.932-13.071-3.932-6.763 0-12.768 2.746-16.56 6.994-2.174.091-4.167.76-5.783 1.843a20.338 20.338 0 0 0-5.193-.667c-7.88 0-14.267 4.307-14.267 9.62 0 .578.09 1.14.234 1.69a15.514 15.514 0 0 0-5.297.116c-2.954-2.908-7.74-4.8-13.147-4.8-5.267 0-9.947 1.797-12.917 4.578a21.152 21.152 0 0 0-6.324.393 6.926 6.926 0 0 0-7.31 2.238c-.102-.052-.207-.1-.31-.15a6.937 6.937 0 0 0-6.31-4.064 6.931 6.931 0 0 0-5.716 3.01c-1.661-4.319-5.836-7.388-10.737-7.388-2.969 0-5.666 1.133-7.708 2.98a5.672 5.672 0 0 0-3.706-1.375 5.697 5.697 0 0 0-5.346 3.738c-2.454-1.785-5.584-2.858-8.998-2.858-1.563 0-3.064.232-4.471.647-1.827-3.834-5.724-6.49-10.252-6.49a11.3 11.3 0 0 0-4.127.785c-2.416-3.197-6.236-5.27-10.55-5.27a13.19 13.19 0 0 0-9.367 3.887 15.493 15.493 0 0 0-6.201-1.287c-1.997 0-3.903.38-5.657 1.064-2.751-5.446-8.83-9.234-15.892-9.234-4.02 0-7.72 1.229-10.672 3.291a13.148 13.148 0 0 0-8.706-3.29c-.55 0-1.09.043-1.622.11C22.159 3.128 17.897.414 12.998.414c-4.853 0-9.077 2.667-11.31 6.611" mask="url(#p)"/>
                </g>
            </g>
            <g mask="url(#d)">
                <g transform="translate(11.483 10.968)">
                    <mask id="r" fill="#fff">
                        <use xlink:href="#q"/>
                    </mask>
                    <path fill="#FFF" d="M44.506 17.085c0-4.75-3.848-8.601-8.595-8.601a8.56 8.56 0 0 0-3.183.616C32.125 4.346 28.076.666 23.16.666c-4.017 0-7.46 2.458-8.913 5.952a9.595 9.595 0 0 0-4.106-.926C4.812 5.692.49 10.016.49 15.35c0 4.442 3 8.174 7.081 9.302.93 3.744 4.302 6.525 8.332 6.525a8.564 8.564 0 0 0 6.111-2.556 8.562 8.562 0 0 0 6.111 2.556c3.654 0 6.767-2.286 8.01-5.503 4.642-.12 8.37-3.916 8.37-8.59" mask="url(#r)"/>
                </g>
                <path fill="#FFF" d="M163.794 46.846a7.706 7.706 0 0 0-7.704-7.708c-1.009 0-1.97.198-2.853.552-.54-4.262-4.169-7.56-8.574-7.56a8.652 8.652 0 0 0-7.989 5.335 8.601 8.601 0 0 0-3.68-.831c-4.778 0-8.652 3.876-8.652 8.658 0 3.98 2.69 7.326 6.348 8.337.832 3.357 3.855 5.848 7.468 5.848 2.143 0 4.08-.877 5.476-2.291a7.674 7.674 0 0 0 5.477 2.291c3.275 0 6.065-2.049 7.18-4.932a7.702 7.702 0 0 0 7.503-7.699M295.894 48.885c0-4.257-3.45-7.709-7.703-7.709-1.01 0-1.97.2-2.853.552-.54-4.26-4.17-7.559-8.574-7.559a8.651 8.651 0 0 0-7.99 5.334 8.6 8.6 0 0 0-3.679-.83c-4.778 0-8.652 3.876-8.652 8.657 0 3.982 2.69 7.327 6.347 8.338.833 3.357 3.856 5.847 7.468 5.847 2.143 0 4.081-.876 5.477-2.29a7.675 7.675 0 0 0 5.477 2.29c3.275 0 6.065-2.048 7.18-4.931a7.7 7.7 0 0 0 7.502-7.699"/>
            </g>
            <g mask="url(#d)">
                <g transform="translate(8.612 61.559)">
                    <mask id="u" fill="#fff">
                        <use xlink:href="#s"/>
                    </mask>
                    <path fill="url(#t)" d="M26.737.712L.394 7.224a.34.34 0 1 0 .162.659L26.9 1.371a.34.34 0 1 0-.162-.66" mask="url(#u)"/>
                </g>
                <path fill="#FFF" d="M20.444 53.17l4.88-.883c.326-.06.66.024.919.23C28.88 54.622 43.59 66.291 46.436 67l93.143-16.855a86.967 86.967 0 0 1 6.732-2.025c1.839-.478 3.698-.904 5.579-1.178 5.278-.767 10.944.876 15.618 3.277a34.365 34.365 0 0 1 4.078 2.473c.76.533.839 1.633.155 2.26-1.788 1.64-5.768 4.42-13.096 5.643L65.158 78.857S36.84 80.843 22.224 77.66c0 0-2.608-.799-.43-2.389 0 0 5.318-1.56 7.447-1.347 0 0-3.23-9.855-9.063-20.182a.387.387 0 0 1 .266-.571"/>
                <path fill="#59BEFC" d="M46.436 67c-2.854-.711-17.652-12.453-20.219-14.502a1.072 1.072 0 0 0-.859-.218l-4.947.896a.363.363 0 0 0-.25.536c5.845 10.337 9.08 20.211 9.08 20.211-2.129-.213-7.448 1.347-7.448 1.347-2.177 1.59.432 2.388.432 2.388 3.679.803 8.227 1.276 12.972 1.537 3.302-3.848 9.284-8.63 20.064-13.792L46.436 67z"/>
                <path fill="#9EAFE5" d="M156 48.966l-.338 2.54 5.087-.921-1.454-2.215zM161.005 50.539l5.224-.945a33.635 33.635 0 0 0-4.38-1.687l-2.297.417 1.453 2.215zM153.082 49.494l-1.808 2.806 4.14-.75.34-2.539z"/>
                <path fill="#5C7EE5" d="M55.261 65.403c-10.78 5.162-16.761 9.944-20.064 13.791 5.043.277 10.308.313 14.993.245 4.712-5.454 10.936-11.383 18.85-16.53l-13.779 2.494"/>
                <path fill="#000" d="M158.645 60.595c6.36-1.063 10.199-3.298 12.27-4.94L39.79 79.382c12.742.36 25.369-.526 25.369-.526l93.486-18.262z"/>
                <path fill="#5C7EE5" d="M138.147 56.167l.59-.106-.15-.83-.59.107z"/>
                <path fill="#254860" d="M135.89 53.616a.46.46 0 0 0-.37.534l.723 3.998a.46.46 0 0 0 .533.37l2.2-.398a.46.46 0 0 0 .37-.533l-.722-3.999a.46.46 0 0 0-.534-.37l-2.2.398zm3.13 4.74l-2.201.398a.698.698 0 0 1-.811-.563l-.723-3.999a.7.7 0 0 1 .563-.812l2.2-.398a.7.7 0 0 1 .812.563l.723 3.998a.7.7 0 0 1-.564.813z"/>
                <path fill="#5C7EE5" d="M75.452 67.512l.59-.106-.15-.829-.59.106z"/>
                <path fill="#254860" d="M73.196 64.961a.46.46 0 0 0-.37.534l.722 3.998a.46.46 0 0 0 .533.37l2.2-.398a.46.46 0 0 0 .37-.533l-.722-3.999a.46.46 0 0 0-.533-.37l-2.2.398zm3.128 4.74l-2.2.398a.7.7 0 0 1-.811-.563l-.723-3.998a.7.7 0 0 1 .563-.812l2.2-.398a.699.699 0 0 1 .812.563l.723 3.998a.7.7 0 0 1-.564.812z"/>
                <path fill="#455FAC" d="M145.212 54.795l.116-.02a.68.68 0 0 0 .548-.79l-.046-.254a.68.68 0 0 0-.79-.549l-.116.021a.68.68 0 0 0-.547.79l.046.254a.68.68 0 0 0 .79.548M142.855 55.222l.116-.02a.681.681 0 0 0 .548-.791l-.046-.254a.68.68 0 0 0-.79-.548l-.115.02a.68.68 0 0 0-.548.79l.046.254a.68.68 0 0 0 .789.55M140.498 55.649l.117-.021a.681.681 0 0 0 .547-.791l-.046-.254a.68.68 0 0 0-.79-.548l-.115.021a.68.68 0 0 0-.548.79l.045.254a.68.68 0 0 0 .79.549M134.37 56.757l.116-.02a.68.68 0 0 0 .548-.79l-.046-.254a.68.68 0 0 0-.79-.549l-.116.021a.68.68 0 0 0-.547.79l.046.254a.68.68 0 0 0 .79.548M132.013 57.184l.116-.021a.68.68 0 0 0 .548-.79l-.046-.254a.68.68 0 0 0-.79-.548l-.115.02a.68.68 0 0 0-.548.791l.046.254a.68.68 0 0 0 .79.548M129.656 57.61l.116-.02a.68.68 0 0 0 .548-.79l-.046-.254a.68.68 0 0 0-.79-.549l-.115.022a.68.68 0 0 0-.549.79l.046.253a.68.68 0 0 0 .79.548M127.3 58.037l.116-.02a.681.681 0 0 0 .547-.792l-.046-.253a.68.68 0 0 0-.79-.548l-.116.02a.68.68 0 0 0-.547.79l.046.254a.68.68 0 0 0 .79.549M124.942 58.463l.117-.02a.68.68 0 0 0 .547-.79l-.046-.255a.68.68 0 0 0-.79-.548l-.116.021a.68.68 0 0 0-.547.79l.046.255a.68.68 0 0 0 .79.547M122.586 58.89l.116-.02a.68.68 0 0 0 .547-.791l-.046-.253a.68.68 0 0 0-.789-.55l-.116.022a.68.68 0 0 0-.548.79l.045.254a.68.68 0 0 0 .79.548M120.228 59.316l.117-.02a.68.68 0 0 0 .547-.79l-.046-.254a.68.68 0 0 0-.79-.549l-.115.021a.68.68 0 0 0-.548.79l.046.254a.68.68 0 0 0 .79.548M117.871 59.743l.117-.02a.681.681 0 0 0 .547-.791l-.046-.254a.68.68 0 0 0-.79-.548l-.115.02a.68.68 0 0 0-.548.79l.046.254a.68.68 0 0 0 .79.55M115.515 60.17l.115-.021a.68.68 0 0 0 .549-.791l-.046-.254a.68.68 0 0 0-.79-.548l-.116.021a.68.68 0 0 0-.548.79l.045.254a.68.68 0 0 0 .79.549M113.158 60.596l.116-.02a.68.68 0 0 0 .547-.79l-.045-.254a.68.68 0 0 0-.79-.55l-.116.022a.68.68 0 0 0-.548.79l.046.254a.68.68 0 0 0 .79.548M110.8 61.022l.117-.02a.68.68 0 0 0 .547-.79l-.046-.254a.68.68 0 0 0-.789-.549l-.116.021a.68.68 0 0 0-.548.79l.046.254a.68.68 0 0 0 .79.548M108.444 61.45l.116-.022a.681.681 0 0 0 .548-.79l-.046-.254a.68.68 0 0 0-.79-.548l-.116.02a.68.68 0 0 0-.548.791l.046.253a.68.68 0 0 0 .79.55M106.087 61.876l.116-.021a.681.681 0 0 0 .548-.79l-.046-.254a.68.68 0 0 0-.79-.548l-.116.02a.68.68 0 0 0-.548.79l.046.254a.68.68 0 0 0 .79.549M103.73 62.302l.116-.02a.68.68 0 0 0 .548-.79l-.046-.254a.68.68 0 0 0-.79-.549l-.115.02a.68.68 0 0 0-.549.792l.046.253a.68.68 0 0 0 .79.548M101.373 62.729l.116-.021a.68.68 0 0 0 .548-.79l-.046-.254a.68.68 0 0 0-.79-.549l-.116.021a.681.681 0 0 0-.548.791l.046.254a.68.68 0 0 0 .79.548M99.016 63.155l.116-.02a.68.68 0 0 0 .548-.79l-.046-.254a.68.68 0 0 0-.79-.55l-.116.022a.679.679 0 0 0-.548.79l.046.254a.68.68 0 0 0 .79.548M96.659 63.582l.116-.021a.681.681 0 0 0 .548-.79l-.046-.254a.68.68 0 0 0-.79-.548l-.116.02a.68.68 0 0 0-.548.79l.046.254a.68.68 0 0 0 .79.549M94.302 64.008l.116-.02a.68.68 0 0 0 .548-.79l-.046-.255a.68.68 0 0 0-.79-.548l-.116.02a.68.68 0 0 0-.547.792l.045.253a.68.68 0 0 0 .79.548M91.945 64.435l.116-.021a.68.68 0 0 0 .548-.79l-.046-.254a.68.68 0 0 0-.79-.548l-.116.02a.68.68 0 0 0-.547.791l.046.254a.68.68 0 0 0 .789.548M89.588 64.861l.116-.02a.68.68 0 0 0 .548-.79l-.046-.254a.68.68 0 0 0-.79-.55l-.115.022a.679.679 0 0 0-.548.79l.045.254a.68.68 0 0 0 .79.548M87.231 65.287l.117-.02a.68.68 0 0 0 .547-.79l-.046-.254a.68.68 0 0 0-.79-.549l-.116.022a.68.68 0 0 0-.548.79l.046.253a.68.68 0 0 0 .79.548M84.874 65.714l.116-.02a.68.68 0 0 0 .548-.79l-.046-.255a.68.68 0 0 0-.79-.548l-.116.021a.68.68 0 0 0-.547.79l.046.254a.68.68 0 0 0 .79.548M82.517 66.14l.116-.02a.68.68 0 0 0 .548-.79l-.046-.254a.68.68 0 0 0-.79-.548l-.116.02a.68.68 0 0 0-.547.791l.046.254a.68.68 0 0 0 .79.548M80.16 66.567l.116-.02a.68.68 0 0 0 .548-.79l-.046-.254a.68.68 0 0 0-.79-.549l-.115.02a.68.68 0 0 0-.548.792l.045.253a.68.68 0 0 0 .79.548M77.803 66.994l.117-.021a.68.68 0 0 0 .547-.79l-.046-.254a.68.68 0 0 0-.79-.549l-.115.022a.679.679 0 0 0-.548.79l.046.254a.68.68 0 0 0 .79.548M71.675 68.103l.116-.021a.681.681 0 0 0 .548-.79l-.046-.254a.68.68 0 0 0-.79-.548l-.116.02a.68.68 0 0 0-.547.79l.046.254a.68.68 0 0 0 .79.549M69.318 68.53l.116-.022a.68.68 0 0 0 .548-.79l-.046-.253a.68.68 0 0 0-.79-.549l-.115.02a.681.681 0 0 0-.549.792l.046.253a.68.68 0 0 0 .79.548M66.961 68.956l.117-.021a.68.68 0 0 0 .547-.79l-.046-.254a.68.68 0 0 0-.79-.548l-.115.02a.68.68 0 0 0-.548.791l.045.254a.68.68 0 0 0 .79.548M64.604 69.382l.117-.02a.68.68 0 0 0 .547-.79l-.046-.254a.68.68 0 0 0-.79-.55l-.115.022a.679.679 0 0 0-.548.79l.046.254a.68.68 0 0 0 .79.548M62.248 69.809l.115-.021a.68.68 0 0 0 .549-.79l-.046-.254a.68.68 0 0 0-.79-.548l-.116.02a.68.68 0 0 0-.548.79l.045.254a.68.68 0 0 0 .79.549M59.89 70.235l.117-.02a.68.68 0 0 0 .547-.79l-.046-.255a.68.68 0 0 0-.789-.548l-.116.021a.68.68 0 0 0-.548.79l.045.254a.68.68 0 0 0 .79.548M57.533 70.662l.117-.021a.68.68 0 0 0 .547-.79l-.046-.254a.68.68 0 0 0-.79-.548l-.115.02a.68.68 0 0 0-.548.791l.046.254a.68.68 0 0 0 .79.548M32.866 74.59l-12.46 4.441c-.056.02-.049.101.01.11l1.442.231c.14.022.283.015.42-.02l16.976-4.487s.993-.666-.186-1.032l-6.202.757z"/>
                <path fill="#344781" d="M21.156 79.26l.702.112c.14.022.283.016.42-.021l16.977-4.486s.336-.227.382-.488l-18.48 4.883z"/>
                <g fill="#FFF">
                    <path d="M20.335 54.022a.38.38 0 0 1 .237-.145l4.88-.883c.326-.06.66.025.918.23C29.008 55.33 43.72 67 46.564 67.708l93.143-16.855a86.872 86.872 0 0 1 6.732-2.025c1.839-.479 3.697-.905 5.579-1.178 5.278-.768 10.944.876 15.617 3.276a34.331 34.331 0 0 1 4.08 2.473c.222.157.384.363.488.59a1.46 1.46 0 0 0-.617-1.297 34.355 34.355 0 0 0-4.078-2.473c-4.674-2.401-10.34-4.044-15.618-3.277-1.88.274-3.74.7-5.578 1.178a86.984 86.984 0 0 0-6.733 2.025L46.437 67c-2.845-.708-17.557-12.377-20.194-14.482a1.144 1.144 0 0 0-.918-.23l-4.881.883a.387.387 0 0 0-.267.571l.158.281M21.921 75.978s5.319-1.56 7.448-1.348c0 0-.082-.252-.244-.716-2.2-.149-7.332 1.357-7.332 1.357-.984.719-.99 1.275-.7 1.67.087-.28.332-.601.828-.963"/>
                </g>
                <path fill="#1F2A4D" d="M111.127 70.59c.343 1.893.825 3.392 1.078 3.346.252-.046.18-1.618-.162-3.512-.343-1.894-.825-3.393-1.078-3.347-.252.046-.18 1.619.162 3.512"/>
                <path fill="#59BEFC" d="M98.603 69.563a1.283 1.283 0 0 0-1.033 1.491l.012.066-.93.168a.945.945 0 0 0-.761 1.099l.336 1.86a.945.945 0 0 0 1.098.762l.93-.168.01.066c.127.698.794 1.16 1.49 1.034l1.395-.252-.24-1.33-.673-3.72-.24-1.328-1.394.252z"/>
                <path fill="#454546" d="M98.66 75.568l-.048.008c.018.019.04.033.059.05l-.011-.058zM96.562 74.587l-.476-2.636a1.916 1.916 0 0 1-.028-.288.942.942 0 0 0-.167.724l.336 1.86a.936.936 0 0 0 .41.619 1.898 1.898 0 0 1-.075-.28M97.697 70.24c-.012.021-.027.042-.037.065l.048-.008-.011-.058z"/>
                <path fill="#5C7EE5" d="M111.374 70.545c-.256-1.415-.369-2.679-.332-3.441a2.503 2.503 0 0 0-1.716-.305L99.2 69.455l1.153 6.378 10.413-1.061a2.51 2.51 0 0 0 1.5-.886c-.301-.702-.638-1.925-.893-3.34"/>
                <path fill="#1F2A4D" d="M103.487 73.981c.342 1.894.825 3.392 1.077 3.347.253-.046.18-1.619-.162-3.512-.342-1.895-.824-3.393-1.077-3.347-.253.046-.18 1.618.162 3.512"/>
                <path fill="#59BEFC" d="M90.963 72.955a1.283 1.283 0 0 0-1.034 1.49l.012.067-.929.168a.945.945 0 0 0-.761 1.098l.335 1.86a.945.945 0 0 0 1.098.763l.93-.168.011.066c.127.697.793 1.16 1.49 1.034l1.395-.252-.24-1.329-.673-3.72-.24-1.33-1.394.253z"/>
                <path fill="#454546" d="M91.02 78.96l-.048.008c.017.018.039.033.058.05l-.01-.058zM88.922 77.978l-.476-2.635a1.907 1.907 0 0 1-.028-.288.942.942 0 0 0-.168.723l.337 1.86a.936.936 0 0 0 .41.62 1.898 1.898 0 0 1-.075-.28M90.056 73.63c-.011.024-.027.044-.037.067l.048-.008-.01-.058z"/>
                <path fill="#5C7EE5" d="M103.734 73.937c-.256-1.416-.37-2.679-.333-3.442a2.503 2.503 0 0 0-1.716-.304l-10.124 2.655 1.152 6.378 10.413-1.06a2.51 2.51 0 0 0 1.501-.887c-.301-.701-.638-1.924-.893-3.34"/>
                <path fill="#EDEDED" d="M94.787 65.61L69.132 78.535l17.79-2.57 30.981-10.397s3.159-2.277-.175-4.109l-22.94 4.151z"/>
                <path fill="#C4C4C4" d="M79.252 77.073l7.67-1.109 30.981-10.396s1.165-.841 1.332-1.913L79.252 77.073z"/>
                <path fill="#59BEFC" d="M86.791 75.615l-17.413 2.316a.412.412 0 0 0-.354.464l.009.07c.03.227.238.386.464.356l17.412-2.315a.413.413 0 0 0 .355-.464l-.01-.071a.413.413 0 0 0-.463-.356"/>
                <path fill="#5C7EE5" d="M33.792 67.331a.365.365 0 0 0 .217-.618l-3.303-3.37.9-4.632a.366.366 0 0 0-.521-.397l-4.223 2.102-4.125-2.288a.359.359 0 0 0-.233-.04c.313.615.616 1.223.908 1.823a.27.27 0 0 1 .313-.036l3.11 1.726 3.185-1.586a.276.276 0 0 1 .393.3l-.68 3.493 2.491 2.54a.275.275 0 0 1-.163.467l-3.53.434-1.026 1.968c.14.354.272.693.395 1.012l1.21-2.323 4.682-.575z"/>
                <path fill="#59BEFC" d="M24.306 61.615a.196.196 0 0 1 .29-.201l2.216 1.23 2.27-1.13a.197.197 0 0 1 .28.214l-.483 2.49 1.774 1.81a.196.196 0 0 1-.116.333l-2.516.308-.868 1.666c.123.304.24.598.353.882l1.026-1.969 3.53-.433a.276.276 0 0 0 .162-.467l-2.49-2.54.679-3.493a.276.276 0 0 0-.393-.3L26.836 61.6l-3.11-1.725a.27.27 0 0 0-.314.035c.323.665.634 1.317.931 1.956l-.037-.251z"/>
                <path fill="#FFF" d="M30.537 66.36a.196.196 0 0 0 .117-.332l-1.776-1.81.484-2.49a.197.197 0 0 0-.28-.215l-2.27 1.13-2.217-1.23a.196.196 0 0 0-.289.202l.037.251a133.546 133.546 0 0 1 2.81 6.469l.868-1.666 2.516-.308z"/>
                <g transform="translate(43.78 79.514)">
                    <mask id="x" fill="#fff">
                        <use xlink:href="#v"/>
                    </mask>
                    <path fill="url(#w)" d="M38.808.58L.896 8.804a.339.339 0 0 0 .076.67.308.308 0 0 0 .067-.007l37.913-8.224a.339.339 0 1 0-.144-.663" mask="url(#x)"/>
                </g>
                <g transform="translate(92.584 78.077)">
                    <mask id="A" fill="#fff">
                        <use xlink:href="#y"/>
                    </mask>
                    <path fill="url(#z)" d="M26.821.18L.48 6.69a.34.34 0 0 0 .087.67.36.36 0 0 0 .076-.01L26.984.84a.34.34 0 0 0-.163-.66" mask="url(#A)"/>
                </g>
                <g transform="translate(139.952 64.431)">
                    <mask id="D" fill="#fff">
                        <use xlink:href="#B"/>
                    </mask>
                    <path fill="url(#C)" d="M18.182.148L.722 4.465a.225.225 0 1 0 .108.437L18.29.585a.225.225 0 0 0-.108-.437" mask="url(#D)"/>
                </g>
            </g>
            <g mask="url(#d)">
                <g transform="translate(75.359 77.618)">
                    <mask id="G" fill="#fff">
                        <use xlink:href="#E"/>
                    </mask>
                    <path fill="url(#F)" d="M11.904.299L.29 3.169a.34.34 0 0 0 .086.67.346.346 0 0 0 .076-.01L12.065.959a.34.34 0 0 0-.161-.66" mask="url(#G)"/>
                </g>
            </g>
            <g mask="url(#d)">
                <g transform="translate(11.483 74.026)">
                    <mask id="J" fill="#fff">
                        <use xlink:href="#H"/>
                    </mask>
                    <path fill="url(#I)" d="M26.906.282L.563 6.794a.339.339 0 1 0 .163.66L27.07.941a.34.34 0 0 0-.163-.66" mask="url(#J)"/>
                </g>
            </g>
            <g mask="url(#d)">
                <g transform="translate(156.46 36.68)">
                    <mask id="L" fill="#fff">
                        <use xlink:href="#K"/>
                    </mask>
                    <path d="M.402.47a.252.252 0 0 0 .207.294c.118.021 11.969 2.125 17.28 7.749.936.99 1.258 1.96.985 2.967C17.8 15.444 7.91 18.376 7.811 18.405a.255.255 0 0 0 .142.489c.418-.122 10.264-3.043 11.411-7.28.319-1.176-.053-2.338-1.106-3.45C12.832 2.417.816.283.695.261A.251.251 0 0 0 .402.47" mask="url(#L)"/>
                </g>
            </g>
            <g mask="url(#d)">
                <g transform="translate(279.904 25.189)">
                    <mask id="O" fill="#fff">
                        <use xlink:href="#M"/>
                    </mask>
                    <path fill="url(#N)" d="M2.633.664s-.65-.321-.93-.083c-.219.187-.303.169-.33.153.064.055.42.348.682.394a.728.728 0 0 0 .062.45c-.374.19-1.191.799-1.286 2.526 0 0-.263 1.1-.728 1.117 0 0 .124.31.775-.465 0 0-.17.415-.27.508C.867 5.114 2.843 4 3.755 2.091a4.82 4.82 0 0 0 .496-.056c.37 1.172 1.17 3.193 2.313 3.247 0 0 .293.403.48.45.18.045.956-2.043-.805-4.413.073-.04.14-.07.216-.113 0 0 1.28-.181 2.582.005 0 0-1.87-.424-2.717-.362 0 0-1.037-.524-2.218-.524-.486 0-.995.089-1.468.339M.583 5.28a.067.067 0 0 0 .026-.017c-.024.014-.033.02-.026.017" mask="url(#O)"/>
                </g>
            </g>
            <g mask="url(#d)">
                <path fill="#FEFE66" d="M281.51 25.844s-1.1.165-1.286.32c-.186.155 1.44.026 1.44.026s.144-.32-.154-.346"/>
                <path fill="#000" d="M281.93 25.775a.06.06 0 0 1-.058.06.06.06 0 0 1-.06-.06.06.06 0 0 1 .118 0"/>
            </g>
            <g mask="url(#d)">
                <g transform="translate(185.885 61.099)">
                    <mask id="R" fill="#fff">
                        <use xlink:href="#P"/>
                    </mask>
                    <path fill="url(#Q)" d="M1.83.315S1.54.17 1.416.278c-.097.083-.135.075-.147.067.028.025.188.156.304.177-.014.07 0 .14.028.2-.167.085-.531.357-.574 1.128 0 0-.117.491-.324.499 0 0 .054.137.345-.208 0 0-.075.185-.12.227.115-.068.996-.565 1.403-1.416.07-.005.144-.013.221-.026.166.523.523 1.425 1.033 1.45 0 0 .13.18.213.2.082.02.427-.911-.358-1.968l.097-.051s.57-.082 1.151.002c0 0-.834-.19-1.212-.162 0 0-.463-.233-.99-.234-.216 0-.444.04-.654.152m-.563.03L1.264.342s0 .002.004.003m-.352 2.03a.03.03 0 0 0 .011-.007l-.011.007" mask="url(#R)"/>
                </g>
            </g>
            <g mask="url(#d)">
                <path fill="#FEFE66" d="M187.257 61.41s-.491.074-.574.143c-.083.069.643.011.643.011s.065-.143-.069-.154"/>
                <path fill="#000" d="M187.445 61.378a.027.027 0 0 1-.026.027.026.026 0 0 1-.027-.027.027.027 0 1 1 .053 0"/>
            </g>
            <g mask="url(#d)">
                <g transform="translate(139.952 12.98)">
                    <mask id="U" fill="#fff">
                        <use xlink:href="#S"/>
                    </mask>
                    <path fill="url(#T)" d="M3.487 1.115L3.43.545l-.16.615-.113-.365-.103.729-.103-.284v.057c-.478 1.048-.148 2.974-.148 2.974s-.159.091-.482 0c-.322-.09-.403.213-.235.262.167.05.297.289.297.289-.183.236-.381.266-.684.403-.305.137-.76.858-.76.858l-.311.107H.97l-.259.22L1 6.313l-.175.35.343-.23-.091.23c.386-.221 1.252-.594 1.252-.594 1.2-.28 1.366-.866 1.366-.866s.387.136.798.388c.41.25.532.023.6-.168.068-.19.06-.258-.395-.372-.456-.114-.66-.387-.66-.387.394-1.049-.073-3.981-.073-3.981l-.205.352-.057-.49-.216.57z" mask="url(#U)"/>
                </g>
            </g>
            <g mask="url(#d)">
                <path fill="#FEFE66" d="M142.083 17.244s-.268-.058-.437.051c0 0 .232.15.341.192.11.042.096-.243.096-.243"/>
                <path fill="#000" d="M142.149 17.474a.033.033 0 0 0-.033-.032.032.032 0 0 0-.032.032c0 .018.014.032.032.032a.033.033 0 0 0 .033-.032M142.203 17.313a.032.032 0 0 0-.032-.032.032.032 0 0 0-.033.032c0 .018.015.032.033.032a.032.032 0 0 0 .032-.032"/>
            </g>
            <g mask="url(#d)">
                <g transform="translate(130.622 68.28)">
                    <mask id="X" fill="#fff">
                        <use xlink:href="#V"/>
                    </mask>
                    <path fill="url(#W)" d="M2.888.974l-.057-.57-.16.616-.113-.366-.103.73-.102-.284v.056c-.478 1.049-.148 2.976-.148 2.976s-.16.09-.483 0c-.322-.092-.402.212-.235.261.167.05.296.288.296.288-.182.237-.38.267-.683.404-.304.136-.76.858-.76.858l-.31.106h.34l-.257.22.288-.097-.174.349.341-.228-.09.228c.386-.22 1.252-.592 1.252-.592 1.2-.282 1.366-.867 1.366-.867s.388.136.798.388c.41.25.531.022.6-.168.068-.19.06-.259-.395-.372-.455-.114-.661-.387-.661-.387C3.833 3.473 3.367.54 3.367.54L3.16.894l-.057-.49-.216.57z" mask="url(#X)"/>
                </g>
            </g>
            <g mask="url(#d)">
                <path fill="#FEFE66" d="M132.154 72.405s-.268-.058-.437.051c0 0 .232.15.341.192.11.042.096-.243.096-.243"/>
                <path fill="#000" d="M132.22 72.635a.033.033 0 0 0-.033-.032.032.032 0 0 0-.032.032c0 .017.014.032.032.032a.033.033 0 0 0 .032-.032M132.274 72.474a.033.033 0 0 0-.032-.032.033.033 0 0 0-.033.032c0 .018.015.032.033.032a.033.033 0 0 0 .032-.032"/>
            </g>
            <g mask="url(#d)">
                <g transform="translate(83.971 24.47)">
                    <mask id="aa" fill="#fff">
                        <use xlink:href="#Y"/>
                    </mask>
                    <path fill="url(#Z)" d="M.21 1.16v.028s.366-.076.389-.168c0 0 .722.293.842.023C1.561.773 1.1.13 1.1.13h-.017C.961.13.2.17.21 1.16" mask="url(#aa)"/>
                </g>
            </g>
            <g mask="url(#d)">
                <g transform="translate(82.536 19.443)">
                    <mask id="ad" fill="#fff">
                        <use xlink:href="#ab"/>
                    </mask>
                    <path fill="url(#ac)" d="M.327 2.707c.227 1.019 1.086 1.97 1.813 2.532-.082.043-.139.077-.139.077 1.765 2.057 2.671 1.58 2.671 1.58.117.129 3.009 2.465 3.009 2.465S6.113 7.803 6.647 7.269c.534-.535 2.37 0 2.37 0-.279-.303-1.882-.605-1.882-.605-1.94-.105-2.184-.546-2.184-.546s-.042-.082-.114-.2c.018-.004.038-.006.038-.006C8.203 3.697 8.413.891 8.413.891S7.61 2.11 6.496 2.879c-.857.59-2.06 1.618-2.573 2.064a.912.912 0 0 0-.523-.11c-.85-1.57-1.063-1.786-1.063-1.786C2.256 2.464.467.712.467.712s-.488.424-.14 1.995" mask="url(#ad)"/>
                </g>
            </g>
            <g mask="url(#d)">
                <path fill="#000" d="M84.448 25.078a.05.05 0 0 1-.05.051.05.05 0 0 1-.051-.05c0-.029.022-.052.05-.052a.05.05 0 0 1 .051.051"/>
                <path fill="#FEFE66" d="M84.241 25.18c-.04.126-.07.267-.067.449v.03s.346-.073.395-.164a1.123 1.123 0 0 0-.328-.314"/>
            </g>
            <g mask="url(#d)">
                <g transform="translate(227.512 63.253)">
                    <mask id="ag" fill="#fff">
                        <use xlink:href="#ae"/>
                    </mask>
                    <path fill="url(#af)" d="M.34 1.443v.03s.368-.076.391-.17c0 0 .722.294.841.024.12-.27-.343-.913-.343-.913h-.015C1.092.414.33.454.34 1.443" mask="url(#ag)"/>
                </g>
            </g>
            <g mask="url(#d)">
                <g transform="translate(226.077 58.944)">
                    <mask id="aj" fill="#fff">
                        <use xlink:href="#ah"/>
                    </mask>
                    <path fill="url(#ai)" d="M.46 2.272c.226 1.02 1.084 1.972 1.812 2.533l-.14.077c1.766 2.057 2.672 1.58 2.672 1.58.116.128 3.008 2.465 3.008 2.465S6.245 7.37 6.78 6.835c.534-.535 2.37 0 2.37 0-.28-.302-1.882-.605-1.882-.605-1.94-.104-2.184-.546-2.184-.546s-.041-.082-.115-.2l.04-.006C8.335 3.264 8.544.456 8.544.456s-.8 1.221-1.916 1.989c-.857.59-2.06 1.619-2.574 2.065a.918.918 0 0 0-.522-.112c-.85-1.57-1.063-1.784-1.063-1.784C2.388 2.03.598.279.598.279S.11.702.459 2.272" mask="url(#aj)"/>
                </g>
            </g>
            <g mask="url(#d)">
                <path fill="#000" d="M228.12 64.146a.05.05 0 0 1-.05.05.052.052 0 0 1-.051-.05c0-.028.024-.051.052-.051a.05.05 0 0 1 .05.05"/>
                <path fill="#FEFE66" d="M227.913 64.248c-.04.125-.069.266-.066.448l-.001.03s.347-.072.396-.164a1.125 1.125 0 0 0-.329-.314"/>
            </g>
        </g>
        <g font-family="SignPainter-HouseScriptSemibold, SignPainter" font-size="36" font-style="condensed" font-weight="500" letter-spacing="-.72">
            <text fill="#000" fill-opacity=".2" style="mix-blend-mode:overlay" transform="translate(188 24)">
                <tspan x="2" y="25">Let’s</tspan> <tspan x="2" y="57">Travel</tspan>
            </text>
            <text fill="#FFF" transform="translate(188 24)">
                <tspan x="0" y="25">Let’s</tspan> <tspan x="0" y="57">Travel</tspan>
            </text>
        </g>
    </g>
</svg>
