<svg xmlns="http://www.w3.org/2000/svg" xmlns:xlink="http://www.w3.org/1999/xlink" width="1366" height="400" viewBox="0 0 1366 400">
    <defs>
        <linearGradient id="b" x1="94.97%" x2="5.03%" y1="50.228%" y2="50.228%">
            <stop offset="0%" stop-color="#6DC3C3"/>
            <stop offset="100%" stop-color="#00BF8F"/>
        </linearGradient>
        <path id="a" d="M0 0h1366v400H0z"/>
        <path id="d" d="M0 .277h123.33v15.145H0z"/>
        <path id="f" d="M.638.363H236.92V138H.638z"/>
        <path id="h" d="M.615.385h251.149V146.37H.614z"/>
        <path id="j" d="M.277.463H141.8v80.81H.277z"/>
    </defs>
    <g fill="none" fill-rule="evenodd">
        <mask id="c" fill="#fff">
            <use xlink:href="#a"/>
        </mask>
        <use fill="url(#b)" xlink:href="#a"/>
        <g fill="#00A67C" mask="url(#c)" opacity=".5">
            <path d="M171.184 296.907V402.35l5.907 8.023h-63.777l4.847-8.023h.15v-63.782l-3.18-8.784h11.361H118.464c-1.059-12.876-11.968-23.177-24.995-23.177-13.332 0-24.09 10.301-25.146 23.177H60.14h11.513l-3.18 8.784v63.782h.151l5.756 8.023H10.753l4.697-8.023V285.09L1.665 274.336h-.454v-1.061h14.24v-17.418h155.733v17.418h14.391v1.061h-.756l-13.635 10.755V296.907z"/>
            <path d="M233.599 405.984h-5.152v-39.995c0-12.27-18.027-22.27-18.027-22.27s-18.026 10-18.026 22.27v39.995h-4.544V339.02h45.749V405.984zm57.11 0h-4.693v-39.995c0-12.27-18.03-22.27-18.03-22.27s-18.026 10-18.026 22.27v39.995h-5.153V339.02h45.903V405.984zm57.115 0h-4.091v-39.995c0-12.27-18.026-22.27-18.026-22.27s-18.03 10-18.03 22.27v39.995h-5.908V339.02h46.055V405.984zM191.938 274.335h5.91v-5.907h-5.91v5.907zm31.056 0h5.911v-5.907h-5.911v5.907zm-17.878-39.08c1.518 0 2.729.906 2.729 1.963v22.575h-5.606v-22.575c0-1.057 1.21-1.964 2.877-1.964zm11.365 0c1.515 0 2.877.906 2.877 1.963v22.575h-5.757v-22.575c0-1.057 1.215-1.964 2.88-1.964zm90.592 39.08h6.058v-5.907h-6.058v5.907zm31.056 0h5.908v-5.907h-5.908v5.907zm-17.876-39.08c1.513 0 2.877.906 2.877 1.963v22.575h-5.756v-22.575c0-1.057 1.21-1.964 2.879-1.964zm11.362 0c1.512 0 2.877.906 2.877 1.963v22.575h-5.756v-22.575c0-1.057 1.21-1.964 2.879-1.964zm15.753 28.024h-43.932v-33.33h43.932v33.33zm-77.865 8.333c4.543.302 8.633 2.12 11.967 4.842-3.334-2.721-7.424-4.54-11.967-4.842zm-23.178 20.295c.604-10.905 9.089-19.54 19.845-20.295-10.756.755-19.24 9.542-19.845 20.295zm28.33-55.746h17.875v25.604h-9.697l-6.818-10.913-1.36-1.963V236.16zm-31.513 0h20.302v12.728l-1.212 1.963-6.968 10.913h-12.122V236.16zm-67.562 83.473v19.386h1.058v71.352H358.88v-71.351h1.972v-21.658h-2.575V155.569h3.634v-4.547h-7.27v-6.819h-2.577v-2.117h-.755l-2.879-5.15-3.029-5.457-2.879 5.457-2.88 5.15h-.759v2.117h-43.022v6.819h-7.422v4.547h4.09v73.777h-17.875l-2.88-21.668-.607-5.754V171.02h4.848v-3.79h-4.848v-4.093h-4.09v4.093h-4.845v3.79h4.846v30.146l-.908 6.511-2.878 21.668h-20.15V155.57h3.637v-4.547h-7.274v-6.819H197.39v-2.117h-.755l-2.879-5.15-2.877-5.457-3.03 5.457-2.73 5.15h-.906v2.117h-3.487v6.819h-7.42v4.547h4.087v161.794h-1.813v2.27zM908.645 341.75l-1.663-3.182c-11.06-6.516-23.789-10.146-37.572-10.146-12.576 0-24.54 3.178-34.843 8.782l-1.515 3.034c10.752-6.062 23.178-9.699 36.358-9.699 14.538 0 27.723 4.092 39.235 11.212zm-66.203-14.85v-4.997l-3.328 6.365c1.057-.61 2.119-.911 3.328-1.367zm38.934-90.135h-18.934l.908-5.455h17.118l.908 5.455zm-19.236 2.882h19.842l8.337 54.538H853.5l4.244-27.878 4.395-26.66zm-28.178 85.136h-31.665l6.664-12.724h31.664l-6.663 12.724zm-4.244 8.482h-31.813l2.877-5.606h31.813l-2.877 5.606zm-33.934 4.09l8.634 5.909-14.39 5.151 5.756-11.06zm12.269 4.548l-8.632-5.908h24.995l-16.363 5.908zm12.42 8.788l-8.932-6.215 15.146-5.298-6.214 11.513zm117.864-25.908h-31.659l-6.517-12.724h31.663l6.513 12.724zm-121.494 26.965h-25.607l16.817-6.058 8.79 6.058zm-18.183 12.12l9.393 6.512h-27.269l17.876-6.512zm-12.118-8.486l8.638 6.061-14.544 5.304 5.906-11.365zm12.118 4.847l-8.027-5.602h23.331l-15.304 5.602zm10.301 13.034l2.276-4.395-8.94-6.36 14.848-5.304-5.908 11.664-2.276 4.395zm-24.082 14.693l9.393 11.664h-30.606l1.363-2.874 19.85-8.79zm-9.245-11.664l6.364 8.332-13.788 6.06 7.424-14.392zm10.302 6.512l-7.573-9.541h28.935l-21.362 9.541zm10.909 13.636l-8.029-10.301 17.422-7.576-9.393 17.877zm114.223-63.175h31.664l-2.884-5.606h-31.657l2.877 5.606zm33.63 3.939l-8.629 6.06 14.538 5.303-5.91-11.363zm-12.267 4.699l8.634-5.908h-25.15l16.516 5.908zm-12.424 8.636l8.785-6.063-14.693-5.298 5.908 11.361zm3.638 1.21h25.598l-16.812-6.059-8.786 6.058zm18.027 12.12l-9.241 6.511h27.116l-17.875-6.512zm12.572-8.637l-8.939 6.211 14.847 5.304-5.908-11.515zm-12.572 4.997l8.178-5.602h-23.327l15.149 5.602zm-12.27 8.485l8.783-6.207-14.54-5.151 5.756 11.358zm26.053 19.242l-9.238 11.664h30.904l-1.363-2.727-20.303-8.937zM965 376.14l-6.663 8.484 14.386 6.209-7.723-14.693zm-10.607 6.664l7.723-9.541h-28.932l21.21 9.541zm-10.755 13.332l7.875-9.997-16.966-7.576 9.09 17.573zm-98.01-70.29V315.69l-1.825 3.79v6.969l1.824-.605zm3.329-.91v-12.877h-1.366l-.603 1.06v12.42l1.969-.604zm3.333-.907v-11.97h-1.969v12.574l1.969-.604zm3.183-.456v-11.514H853.5v11.816l1.973-.302zm3.18-.605V312.06h-1.97v11.06l1.97-.15zm3.183-.305v-10.604h-1.972v10.756l1.972-.152zm3.33-.3V312.06h-1.969v10.455l1.969-.15zm3.183 0V312.06h-1.822v10.305h1.822zm3.331 0V312.06h-1.97v10.305h1.97zm3.333.151V312.06h-1.965v10.305l1.965.15zm3.185.149v-10.604h-1.972v10.455l1.972.149zm3.177.456v-11.06h-1.968v10.756l1.968.304zm3.185.604v-11.664h-1.976v11.365l1.976.299zm3.33.756v-12.42h-1.97v11.816l1.97.604zm3.182.605v-13.025h-1.82v12.574l1.82.45zm3.33 1.212v-11.814l-1.21-2.423h-.757v13.48l1.967.757zm3.335 1.06v-6.662l-1.967-3.787v9.695l1.967.755zm1.209-4.237v4.695c1.06.454 2.127.909 3.035 1.213l-3.035-5.908zm-59.987-40.145l14.541-8.637-3.025 19.544-11.516-10.907zm11.818-11.212l-14.244 8.633-9.087-8.633h23.33zm-30.756 22.423h26.511l-10.301-9.849-16.21 9.849zm83.926-11.211l-13.48-8.185 2.876 18.332 10.604-10.147zm-11.816-11.212l14.396 8.633 8.933-8.633h-23.33zm14.546 12.574l-10 9.849h26.206l-16.206-9.849zm-7.731-26.514l-12.42-7.725 2.574 16.21.152 1.214 9.694-9.699zm-10.15-9.997l12.427 7.728 7.725-7.728h-20.152zm12.427 11.51l-9.545 9.547h25.143l-15.598-9.547zm-55.75-1.209l11.816-7.571-2.73 16.812-9.086-9.241zm9.844-10.301l-12.272 8.032-8.025-8.032h20.297zm-26.359 21.057h23.484l-9.397-9.241-14.087 9.24zm65.29-31.664l-10.603-5.908 2.276 13.636 8.327-7.728zm-5.756-5.908l7.581 4.395 4.693-4.395h-12.274zm7.732 6.971l-7.124 6.665h18.637l-11.513-6.665zm-47.42-.602l9.85-6.37h1.362l-1.818 13.637h-.603l-8.792-7.267zm5.601-6.37l-7.417 4.7-5.305-4.7h12.722zm-17.268 13.637h16.971l-7.12-6.058-9.85 6.058zm49.993-49.99l-6.209-5.15a115.62 115.62 0 0 0 1.663 9.997l4.546-4.848zm9.244 7.42l-7.578-6.06-5.604 5.908.15.152h13.032zm-6.21-7.574l6.21 5c-.3-3.334-.908-6.815-1.214-10.302l-4.996 5.302zm-9.09-7.266l7.418 6.057 5.606-6.057h-13.025zm4.09-8.034l-6.21-4.997c.302 3.485.606 6.971 1.209 10.147l5.001-5.15zm6.21 5.15l-4.543-3.934-3.79 3.934h8.333zm-3.333-5.453l6.663 5.453c-.456-3.633-.755-7.42-1.21-11.058l-5.453 5.605zm-8.028-6.36l6.362 5.15 5-5.15h-11.362zm3.934-9.851l-6.513-5.453c.152 3.94.605 7.732.914 11.36l5.599-5.907zm8.792 6.973l-7.273-5.756-5.303 5.756h12.576zm-5.76-7.124l6.059 4.85c-.3-3.482-.755-6.818-.907-10.304h-.15l-5.002 5.454zm-6.664-5.454l5 4.092 3.785-4.092h-8.785zm1.818-9.237l-5.607-4.547c.15 3.335.454 6.664.608 9.852l5-5.305zm8.03 6.36l-6.518-5.151-4.69 5.151h11.209zm-4.999-6.512l6.663 5.305c-.453-3.792-.755-7.277-.905-11.061h-.154l-5.604 5.756zm-7.427-5.756l5.757 4.388 4.395-4.388h-10.152zm3.94-9.395l-6.06-5c.15 3.788.457 7.423.609 10.908l5.452-5.908zm7.876 6.362l-6.21-5-4.843 5h11.053zm-4.693-6.514l5.458 4.696-.765-9.845-4.693 5.15zm-7.576-5.906l5.908 4.696 4.243-4.696h-10.15zm3.031-9.393l-5.302-4.545.152 1.972v1.209l.152 6.362 4.998-4.998zm7.726 6.513l-6.06-5.15-5.305 5.15h11.365zm-4.849-6.513l6.214 5.15-.61-10.759-5.604 5.61zm-6.816-5.911l5.15 4.395 4.543-4.395h-9.693zm2.88-9.241l-4.849-3.936v1.06l.152.755v3.941l.154 2.875 4.543-4.695zm7.27 6.365l-5.605-4.847-4.847 4.847h10.453zm-4.393-6.365l6.209 5.459-.756-10.908-5.453 5.449zm-7.12-6.052l5.454 4.841 4.848-4.84h-10.302zm4.243-9.394l-5.452-4.547.3 2.274.151 7.269 5.001-4.996zm7.723 6.51l-6.058-5.301-5.303 5.301h11.361zm-4.846-6.51l5.15 4.241-.452-9.092-4.698 4.85zm-6.816-5.912l5.304 4.394 4.391-4.394h-9.695zm3.335-9.545l-5.153-4.543.153 3.03v3.938l.152 2.273 4.848-4.698zm7.417 6.667l-5.906-5.453-5.604 5.453h11.51zm-4.847-6.515l5.305 4.698-.458-9.393-4.847 4.695zm-6.663-6.06l5.153 4.85 4.848-4.85H874.56zm3.94-8.937l-5.152-4.543v5.3l.152 2.425v1.818l5-5zm7.271 6.06l-6.058-4.997-5 4.997h11.058zm-4.849-6.06l4.85 4.244-.456-8.787-4.394 4.543zm-7.574-6.362l6.213 5.302 5.3-5.302h-11.513zm4.85-9.24l-5-4.244v9.241l5-4.998zm6.815 5.907l-5.605-4.849-5.152 5.455h10.91l-.153-.606zm-4.545-5.908l4.545 3.938-.452-8.029-4.093 4.091zm-7.12-6.06l5.91 4.998 4.999-4.998h-10.91zm4.087-8.938l-4.386-3.788v8.181l4.386-4.393zm6.976 5.908l-5.758-4.846-5 4.996h10.758v-.15zm-4.698-5.908l4.544 3.939-.31-8.333-4.234 4.394zm-2.278-15.3l-4.386-4.243v9.241l4.386-4.998zm6.21 5.908l-4.992-4.849-4.245 4.85h9.238zm-3.932-5.908l3.933 3.636-.303-7.728-3.63 4.092zM873.05 4.23l5.452 5.148 4.692-5.148H873.05zm4.236-9.394l-4.236-4.242V.138l4.236-5.303zM883.193.59l-4.692-4.542-4.395 5.303h9.087V.591zm-3.785-5.756l3.635 3.637-.154-7.575-3.481 3.938zm-6.06-6.06l5 5 4.089-5h-9.09zm3.633-9.088l-3.932-4.092v8.486l3.932-4.394zm5.604 5.907l-4.386-4.698-4.7 5.002h9.086v-.304zm-3.48-5.758l3.332 3.637-.152-7.119-3.18 3.482zm-6.056-6.209l4.99 4.998 4.246-4.846v-.152h-9.236zm3.328-6.514l-3.328-2.88V-29.856l3.328-3.03zm4.09 3.484l-2.88-2.575-2.873 2.575h5.754zm-1.966-3.332l3.633 2.88-.152-6.064-3.481 3.184zm-4.848-4.093l3.782 3.031 3.487-3.03h-7.269zm-17.271 231.783l5.908-4.699c-.606 3.337-1.064 6.518-1.67 9.245l-4.238-4.546zm-9.393 7.421l7.723-6.06 5.153 5.456v.152l-.153.452h-12.723zm6.512-7.574l-6.816 5.459c.304-3.64.907-7.426 1.212-11.214l5.604 5.755zm8.94-7.266l-7.425 6.057-5.606-6.057h13.032zm-3.94-8.034l5.758-4.548c-.456 3.19-.755 6.522-1.06 9.394l-4.698-4.846zm-6.516 5.15l4.85-3.934 3.633 3.934h-8.483zm3.489-5.453l-6.516 5.453h-.458c.304-3.785.608-7.723 1.06-11.662l5.914 6.209zm8.178-6.36l-6.664 5.15-4.697-5.15h11.361zm-4.092-9.851l6.06-4.841c-.303 3.328-.453 6.966-.907 10.144l-5.153-5.303zm-8.634 6.973l6.967-5.756 5.61 5.756h-12.577zm5.758-7.124l-6.662 5.148c.454-3.33.756-6.963.904-10.602h.76l4.998 5.454zm6.666-5.454l-5 4.092-3.79-4.092h8.79zm-1.97-9.237l5.148-4.093c-.152 3.033-.304 6.058-.605 8.94l-4.543-4.847zm-7.879 6.36l6.21-5.151 4.85 5.151H853.5zm5-6.512l-7.119 5.606c.304-3.639.603-7.578.909-11.362h.606l5.604 5.756zm7.272-5.756l-5.756 4.388-4.397-4.388h10.153zm-4.09-9.395l5.757-4.393c-.15 3.181-.303 6.663-.606 9.847l-5.15-5.454zm-7.88 6.362l6.511-5 4.547 5h-11.057zm5.002-6.514l-6.212 5 .908-10.76 5.304 5.76zm7.419-5.906l-5.756 4.696-4.539-4.696h10.295zm-2.874-9.393l4.848-4.24-.15 1.667v1.209l-.303 5.756-4.395-4.392zm-7.73 6.513l6.064-5.15 5.15 5.15H855.62zm4.694-6.513l-6.662 5.604.908-11.515 5.754 5.911zm6.975-5.911l-5.452 4.395-4.241-4.395h9.693zm-2.878-9.241l4.241-3.485v.61l-.152.754v3.941l-.15 2.421-3.94-4.241zm-7.423 6.365l5.756-4.847 4.848 4.847h-10.604zm4.392-6.365l-6.668 5.763.762-11.815 5.906 6.052zm7.272-6.052l-5.756 4.841-4.545-4.84h10.301zm-4.241-9.394l4.695-4.247v1.974l-.304 6.815-4.391-4.542zm-7.877 6.51l6.21-5.301 5.001 5.301h-11.211zm4.846-6.51l-5.76 4.695.762-10 4.998 5.305zm6.818-5.912l-5.302 4.394-4.395-4.394h9.697zm-3.337-9.545l4.7-4.089-.15 2.577V73.762l-.153 1.819-4.397-4.244zm-7.265 6.667l5.908-5.453 5.602 5.453h-11.51zm4.694-6.515l-5.756 5.15.454-10.3 5.302 5.15zm6.816-6.06l-5.454 4.85-4.847-4.85h10.301zM858.2 50.13l-.454 1.363.148-1.363h.306zm6.968 6.362l4.544-4.089v4.846l-.15 2.425v1.514l-4.394-4.696zm-7.274 6.06l5.91-4.997 5 4.997h-10.91zm4.851-6.06l-5.302 4.696.303-9.695 5 5zm6.967-6.058l-5.758 4.998-5.148-5.302h10.906v.304zm-4.243-9.545l4.393-3.939v8.633l-4.393-4.694zm-7.575 6.21l6.366-5.151 5.151 5.455h-11.517V47.1zm5.305-6.21l-5 4.242.303-8.939 4.697 4.697zm6.969-5.908l-5.756 4.846-5.002-4.998h10.758v.152zm-10.908-15.604v.151-.151zm13.79.606l.45-.606h10.147l-5.145 5.455-5.452-4.7v-.15zm-7.126 5.908l4.244-3.484V29.984l-4.244-4.093zm-6.968 6.058l5.906-4.996 4.85 4.996h-10.756zm4.848-6.058l-4.998 4.243.454-8.937 4.544 4.694zm6.364-5.454l-5 4.395-5.455-5.455h10.149l.306.151v.909zm-4.244-9.846l4.244-3.939v8.481l-4.244-4.542zm-6.211 5.908l5.15-4.849 4.396 4.85h-9.546zm4.09-5.908l-4.393 4.24v-.908l.303-7.879 4.09 4.547zm6.365-6.06l-5 4.846-4.699-5.148h9.699v.303zm-3.943-9.696l3.943-3.938V-.62l-3.943-4.545zM859.865 1.2l5.302-5.151 4.393 5.303h-9.695V1.2zm4.088-6.365l-3.936 4.243.297-8.635 3.639 4.392zm6.214-5.908l-4.85 4.847-4.393-5h9.243v.153zm-3.64-9.24l3.64-3.787v7.723l-3.64-3.936zm-5.907 6.21l4.848-5 4.393 5h-9.241zm3.79-6.061l-3.79 4.093.152-8.18 3.639 4.087zm5.757-5.908l-4.547 4.697-4.696-4.998h9.243v.301zm-3.03-6.815l3.03-2.424v5.148l-3.03-2.724zm-4.24 3.484l3.026-2.575 2.729 2.575h-5.756zm2.27-3.332l-4.243 3.332.302-6.818 3.941 3.486zm4.694-4.093l-3.637 3.031-3.632-3.03h7.269zm48.933 309.654l-9.695 9.236 16.211 9.394-6.516-18.63zm-8.032-23.03l-7.116 7.27 12.27 7.724-5.154-14.993zm-6.51-18.486h-.456l-5.756 5.455 10.15 5.908-3.938-11.363zm-69.079 12.277l9.997-6.37-6.056-5.142-3.94 11.512zm-8.027 22.72l13.63-8.936-7.724-7.726-5.906 16.662zm-8.638 24.692l15.302-8.937-8.94-8.635-6.362 17.572zm116.952 108.62h3.03l-22.877-44.237c-11.967-11.514-28.329-18.479-46.203-18.479-16.363 0-31.213 5.908-42.723 15.602l-24.39 47.115h4.393v10.752h-57.565V399.62h7.575l47.412-91.649v-13.786h10.153l16.813-48.179v-1.06h.304l4.7-13.636h-1.819v-12.725h5.303v-2.42h-7.88v-13.789h11.968c8.939-69.987 13.18-190.272 14.545-228.749h-.306v-3.03h.458l.15-7.425h-2.12v-12.42h5.456V-64.55h6.36v-21.66h2.122v-19.845h2.426v19.844h2.27v21.661h6.208v15.303h5.609v12.42h-2.271l.3 7.425h.304v3.03h-.152c.758 21.664 2.271 69.532 5.306 119.83l.148.454-.148.148c1.813 30.452 4.084 61.51 6.814 88.172.755 7.269 1.662 13.785 2.27 20.145h12.12v13.788h-7.877v2.421h5.153v12.725h-1.213l4.7 13.636 17.115 49.239h5.297v12.876l1.066-.456 48.172 93.015h9.09v10.752H935.46V399.62zM557.942 325.993c12.725 7.732 6.212 10.153 7.27 11.667h-14.24c1.062-1.666-6.362-3.635 6.97-11.667zm.303-5.602c.304.152.454.449.454.906 0 .455-.15.757-.454 1.066v3.026h.454v.604h-1.361v-.604h.454v-2.726h-.454c-.456 0-.91-.454-1.214-.911.304.15.606.302.91.302.758 0 1.363-.603 1.363-1.214 0-.147 0-.297-.152-.45zm61.203 34.84h5.456c-1.062.457-2.729 1.67-3.035 2.124-1.058.76-2.269 2.117-2.269 3.483v12.116h11.666v-12.116c0-1.366-1.364-2.724-2.275-3.483-.452-.304-2.12-1.667-3.029-2.125h4.85v-1.208h-11.364v1.208zm-69.382 20.604h4.391c-.91.458-1.968 1.212-2.27 1.513-.91.758-2.273 2.126-2.273 3.486v12.12h11.665v-12.12c0-1.36-1.21-2.728-2.274-3.486-.302-.3-1.21-1.055-2.12-1.513h4.394v-1.209h-11.513v1.209zm0-20.605h5.151c-.908.458-2.575 1.82-3.03 2.125-.91.76-2.273 2.117-2.273 3.483v12.116h11.665v-12.116c0-1.366-1.362-2.724-2.274-3.483-.454-.455-1.967-1.667-3.03-2.125h5.304v-1.208h-11.513v1.208zm69.686 20.605h4.24c-.909.458-1.817 1.212-2.271 1.513-.91.758-2.12 2.126-2.12 3.486v12.12h11.665v-12.12c0-1.36-1.364-2.728-2.275-3.486-.3-.3-1.362-1.055-2.272-1.513h4.547v-1.209h-11.514v1.209zm-63.476-33.633h2.727v4.097h-2.727v-4.097zm4.695 0h2.729v4.097h-2.729v-4.097zm57.113 0h2.727v4.097h-2.727v-4.097zm4.697 0h2.727v4.097h-2.727v-4.097zm4.544 0h2.877v4.097h-2.877v-4.097zm-75.745 0h2.729v4.097h-2.729v-4.097zm72.262 30.146h3.029v-5.756h-3.03v5.756zm0 20h3.029v-5.76h-3.03v5.76zm-69.533 0h3.029v-5.76h-3.03v5.76zm0-20h3.029v-5.756h-3.03v5.756zm48.78 3.945h-25.15v16.055h-3.634v-46.05h32.265v46.05h-3.481v-16.055zm-8.789 7.569v8.486h-7.725v-8.486c0-1.667 3.636-3.782 3.938-3.782.15 0 3.787 2.115 3.787 3.782zm0-19.237v8.638h8.789v-8.94c0-5.148-11.968-12.116-12.576-12.116-.606 0-12.574 6.968-12.574 12.116v8.94h8.636v-8.638c0-1.514 3.636-3.639 3.938-3.639.15 0 3.787 2.125 3.787 3.64zm21.964-26.965c.913-1.666-6.36-3.635 6.971-11.667h-.604v-.604h.452v-2.726h-.452c-.456 0-1.064-.454-1.216-.911.152.15.606.302.914.302.754 0 1.359-.603 1.359-1.214 0-.147 0-.297-.149-.45.303.153.453.45.453.907 0 .455-.15.757-.453 1.066v3.026h.303v.604h-.607c12.723 7.732 6.06 10.153 7.271 11.667h-14.242zm22.725 24.542v11.061l7.726.909V363.11c0-2.125-3.785-5.302-3.936-5.302-.151-.152-3.79 2.12-3.79 4.393zm0 18.784v11.21l7.726.152v-10.453c0-1.969-3.785-5.15-3.936-5.15-.151 0-3.79 2.274-3.79 4.241zm-96.5-18.784v11.061l-7.723.909V363.11c0-2.125 3.634-5.302 3.786-5.302.15-.152 3.937 2.12 3.937 4.393zm0 18.784v11.21l-7.723.152v-10.453c0-1.969 3.634-5.15 3.786-5.15.15 0 3.937 2.274 3.937 4.241zm-53.02-2.578h12.271v-26.203h-12.27v26.203zm169.518 7.125h7.423v-16.209h-7.423v16.21zm8.33-36.21h-.907v18.787h-7.423v-18.787h-.908v-.755h9.237v.755zm-9.238-1.06h9.237v-.756h-9.237v.755zm0-6.964h9.237v-.76h-9.237v.76zm0 1.513h9.237v-.909h-9.237v.909zm5.151 3.335h-1.212v-2.278h1.212v2.278zm-1.518 0h-1.21v-2.278h1.21v2.278zm3.183 0h-1.212v-2.278h1.212v2.278zm-5.756.906h7.27v-3.942h-7.27v3.942zm6.968-6.968c-.454-.907 3.18-1.972-3.483-6.06-6.517 4.088-2.88 5.305-3.637 6.06h7.12zm-96.499 56.662h41.66V341.75h-41.66v54.996zm110.284-18.339h12.122v-26.203h-12.122v26.203zm-1.515-71.047h15.153v-1.964h-15.153v1.964zm6.665 7.274h1.974v-3.636h-1.974v3.636zm2.578 0h2.12v-3.636h-2.12v3.636zm-5.303 0h1.968v-3.636h-1.968v3.636zm9.546 1.36v-6.365h1.665v-1.964h-15.15v1.964h1.666v6.366h-1.667V319.785h1.515v30.446h12.122v-30.446h1.514V315.996h-1.665zM680.35 304.63c.905-1.359-5.154-3.024 5.756-9.536 10.448 6.359 4.694 8.328 5.908 9.536H680.35zm-190.88 45.6h12.27v-30.445h-12.27v30.446zm-15.909 60.142H707.46v-8.175H473.56v8.175zm14.545-90.89h15.147v-1.06h-15.147v1.06zm0-1.514h15.147v-1.513h-15.147v1.513zm0-11.06h15.147v-1.513h-15.147v1.513zm0 2.421h15.147v-1.664h-15.147v1.664zm8.482 5.306h-1.97v-3.636h1.97v3.636zm-2.726 0h-1.97v-3.636h1.97v3.636zm5.452 0h-1.97v-3.636h1.97v3.636zm-9.544 1.36h11.668v-6.365H489.77v6.366zm11.362-11.365c-.758-1.359 5.152-3.024-5.604-9.536-10.453 6.359-4.697 8.328-5.908 9.536h11.512zm21.513 82.112v10.005h8.937v-46.359l14.999-3.032v49.39h.604v-57.568h1.972v-.611h17.572v-5.302h47.267v5.302h18.177v.611h1.516v57.569h.91v-50.151l14.543 4.096v46.055h9.845v-10.005h7.423v10.005h13.482v-16.213h12.122v16.213h15.446v4.084H473.563v-4.084h15.907v-16.213h12.27v16.213h13.332v-10.005h7.573zm-7.573-1.209h7.573v-16.209h-7.573v16.21zm0-17.423h7.573v-18.787h-7.573v18.787zm-.761-18.94h9.244v-.604h-9.244v.605zm0-.908h9.244v-.604h-9.244v.604zm0-6.963h9.244v-.76h-9.244v.76zm0 1.36h9.244v-.756h-9.244v.757zm3.94 3.488h1.211v-2.278h-1.21v2.278zm1.665 0h1.213v-2.278h-1.213v2.278zm-3.331 0h1.364v-2.278h-1.364v2.278zm-1.363.906h7.27v-3.942h-7.27v3.942zm.304-6.968c.453-.907-3.182-1.972 3.482-6.06 6.362 4.088 2.88 5.305 3.637 6.06h-7.119zm75.443-58.933v10.756h1.362v1.972h-.454c38.629 24.393 16.968 31.964 21.51 36.812a545.086 545.086 0 0 0-22.418 0h-22.727c2.879-5.303-19.539-12.272 20.452-36.812h-.455v-1.972h1.366v-10.15h-.91c-1.667 0-3.18-1.06-3.788-2.726.758.76 1.668 1.06 2.729 1.06 2.27 0 4.241-1.817 4.241-4.09 0-.457-.152-1.06-.302-1.36a3.722 3.722 0 0 1 1.36 2.877c0 1.513-.756 2.877-1.966 3.633z"/>
            <path d="M755.792 226.62h.755v-51.357h-.755v51.357zm1.512 0h.758v-51.357h-.758v51.357zm-3.026 0h.905v-51.357h-.905v51.357zm-47.119 0h.757v-51.357h-.757v51.357zm-1.512 0h.756v-51.357h-.756v51.357zm3.03 0h.607v-51.357h-.607v51.357zm37.87-48.33h2.88v-3.027h-2.88v3.026zm-3.633 0h2.876v-3.027h-2.876v3.026zm-3.637 0h2.878v-3.027h-2.878v3.026zm-3.636 0h2.882v-3.027h-2.882v3.026zm-3.632 0h2.873v-3.027h-2.873v3.026zm-3.637 0h2.88v-3.027h-2.88v3.026zm-3.639 0h2.88v-3.027h-2.88v3.026zm-3.485 0h2.727v-3.027h-2.727v3.026zm-3.635 0h2.88v-3.027h-2.88v3.026zm-3.636 0h2.88v-3.027h-2.88v3.026zm-3.635 0h2.876v-3.027h-2.876v3.026zm39.843 0h2.875v-3.027h-2.875v3.026zm-39.539 43.935h42.262v-42.423h-42.262v42.423zm4.091-2.882c-.912 0-1.52-.603-1.52-1.665 0-.758.608-1.361 1.52-1.361.909 0 1.515.603 1.515 1.36 0 1.063-.606 1.666-1.515 1.666zm0-33.934c-.912 0-1.52-.756-1.52-1.512 0-.909.608-1.512 1.52-1.512.909 0 1.515.603 1.515 1.512 0 .756-.606 1.512-1.515 1.512zm34.39 0c-.909 0-1.52-.756-1.52-1.512 0-.909.611-1.512 1.52-1.512.757 0 1.512.603 1.512 1.512 0 .756-.755 1.512-1.513 1.512zm0 33.934c-.909 0-1.52-.603-1.52-1.665 0-.758.611-1.361 1.52-1.361.757 0 1.512.603 1.512 1.36 0 1.063-.755 1.666-1.513 1.666zm-17.272 1.215c-10.757 0-19.542-8.787-19.542-19.542 0-10.607 8.785-19.389 19.542-19.389 10.605 0 19.39 8.782 19.39 19.389 0 10.755-8.785 19.542-19.39 19.542zm0 1.06h20.45v-20.602c0 11.358-9.237 20.603-20.45 20.603zm-20.603-20.602v20.603h20.603c-11.362 0-20.603-9.245-20.603-20.603zm20.603-20.604h-20.603v20.604c0-11.363 9.241-20.604 20.603-20.604zm-2.124 3.18l.152 1.817-.152-1.816zm-4.546 1.061l.762 1.67-.152.15-.61-1.82zm-3.937 2.274v-.148l1.06 1.513v.152l-1.06-1.517zm-5.754 7.12l1.666.755-1.666-.754zm-1.21 9.086l1.816-.153-1.817.153zm3.329 8.485l1.513-1.057-1.513 1.057zm3.186 3.338v-.152l1.21-1.37-1.21 1.522zm4.084 2.421l-.152-.152.758-1.665-.606 1.817zm8.942 1.21l-.15-1.818.15 1.817zm11.816-6.665l-1.514-1.06 1.514 1.06zm2.423-3.943l-1.818-.756 1.818.756zm-2.124-17.57l-1.513 1.212v-.152l1.513-1.06zm-7.117-5.602l-.754 1.666.754-1.666zm-11.665-.91h.152l.304 1.816-.456-1.816zm-7.728 29.69l-.15-.152 1.213-1.21h.152l-1.215 1.362zm24.847-.152l-.15.152-1.21-1.361h.151l1.21 1.209zm4.547-7.877l-1.823-.453 1.823.453zm0-9.09l-1.823.452 1.823-.451zm-4.697-7.876h.15l-1.209 1.363-.152-.15 1.21-1.213zm-7.882-4.695h.15l-.45 1.816.3-1.816zm16.06-3.485h-20.45c11.213 0 20.45 9.24 20.45 20.604v-20.604zm-35.903 20.298c0-.45 0-1.06.152-1.51v-.759c.15-.304.15-.756.302-1.064 0-.305 0-.457.15-.604v-.152c.154-.456.306-.909.458-1.214l.149-.299v-.152c0-.154.15-.154.15-.306.152-.298.304-.602.458-.908l5.602 3.178c-.603 1.217-1.059 2.43-1.059 3.79h-6.362zm1.819 7.725c-.306-.456-.458-.908-.608-1.511h-.149c-.152-.458-.304-1.06-.457-1.515-.15-.304-.15-.456-.15-.754a11.604 11.604 0 0 1-.455-3.187h6.362c0 1.36.456 2.577 1.059 3.79l-5.602 3.177zm5.452 5.756c-.303-.15-.758-.452-1.211-.756h.152l-.152-.154-.452-.15v-.149h-.152c-.152-.304-.456-.456-.76-.756h.15l-.15-.152-.3-.303-.305-.153c-.3-.3-.604-.605-.912-1.057h.158-.158l-.302-.456-.153-.152-.455-.908h-.148l5.606-3.181c.45.602.754 1.06 1.36 1.512.458.456.912.909 1.517 1.363l-3.333 5.452zm7.73 2.278c-.455 0-.916 0-1.366-.152h-.759c-.454-.152-.756-.152-1.062-.304-.754-.154-1.51-.453-2.269-.757h-.152c-.45-.151-.912-.452-1.364-.604l3.183-5.607c1.21.607 2.423.908 3.789 1.06v6.364zm7.72-1.817c-.3.152-.754.453-1.206.604v-.151l-.306.151-.149.152-.302.152c-.304 0-.615.15-.915.3h-.149c-.152 0-.457.153-.607.153h-.15c-.607.152-1.061.304-1.664.304h-.305c-.455.152-.755.152-1.211.152v-6.364c1.363-.152 2.573-.453 3.785-1.06l3.18 5.607zm5.759-5.607c-.15.455-.455.908-.755 1.366l-.304.298-.152.152c-.302.304-.45.61-.603.757l-.305.153-.15.303-.31.152h.157c-.456.3-.761.606-1.064.905h-.151v.15l-.152.154c-.453.304-.755.457-1.211.756l-3.183-5.602c.461-.304 1.064-.757 1.52-1.213.452-.452.905-.91 1.21-1.512l5.453 3.18zm2.27-7.577c0 .456 0 .909-.151 1.36 0 .614-.15 1.217-.3 1.827-.303 1.359-.76 2.568-1.364 3.78l-5.605-3.178c.606-1.212.908-2.43 1.058-3.789h6.362zm-1.815-7.726c.304.456.453.908.603 1.366l.152.149c0 .15 0 .303.154.303v.152c.152.453.302 1.06.456 1.665.299 1.064.45 2.124.45 3.333h-6.362c0-1.36-.452-2.725-.908-3.79l5.455-3.178zm-13.178-8.18c.456 0 .907 0 1.363.151h.756c.454.149.758.149 1.06.303h.15l.456.15h.152c.45.157.912.307 1.366.46v.153h.149c.152 0 .306.148.458.148l.15.152c.304 0 .604.304.905.456l-3.18 5.452c-1.212-.606-2.422-.91-3.785-1.058v-6.368zm-7.728 1.973c.452-.304.754-.456 1.216-.756h.148l.456-.152c.456-.154.755-.304 1.21-.461h.153l.303-.15h.3c.455-.154.911-.154 1.364-.303h.757v-.152h1.065v6.368c-1.366.148-2.73.452-3.79 1.058l-3.182-5.452zm9.244-2.126c-.457-.153-1.06-.153-1.516-.153v-1.964h1.815l-.299 2.117zm.45 0h-.151l.304-1.816-.154 1.816zm1.364.304c-.304-.152-.757-.152-1.06-.304l.303-1.968c.453.152.907.152 1.212.304l-.455 1.968zm2.122.61c-.45-.157-.912-.307-1.366-.461l.611-1.965c.454.15 1.06.452 1.513.604l-.758 1.822zm1.666.908c-.303-.304-.606-.452-.908-.604l.755-1.82c.457.146.758.298 1.214.602l-1.06 1.822zm1.968 1.213c-.455-.304-.755-.61-1.213-.909l1.06-1.673c.456.304.912.611 1.368.917l-1.215 1.665zm.303.148l1.215-1.36-1.064 1.36h-.15zm1.064 1.06a1.841 1.841 0 0 0-.761-.758l1.217-1.663c.3.304.755.603 1.059.909l-1.515 1.513zm1.515 1.512c-.304-.3-.608-.603-.905-1.06l1.51-1.362c.303.458.757.91 1.058 1.213v.148l-1.663 1.06zm1.058 1.671c-.15-.302-.303-.606-.454-.906l1.515-1.216c.302.3.604.756.755 1.057l-1.816 1.065zm1.06 1.967c-.153-.45-.305-.906-.604-1.36l1.665-.909h.15c.303.454.456 1.06.762 1.515l-1.972.754zm.153.306l1.666-.756v.148l-1.666.608zm.603 1.513a6.936 6.936 0 0 0-.453-1.06l1.972-.759c.15.455.304.758.304 1.214l-1.823.605zm.455 2.126c-.15-.458-.15-.91-.304-1.37l1.974-.457v-.147c.15.604.3 1.212.3 1.822l-1.97.152zm0 .452v-.154l1.82-.151v.151l-1.82.154zm.15 1.36c0-.3 0-.603-.15-.91l2.123-.3v1.21h-1.972zm-.15 2.269c.15-.451.15-.904.15-1.36h1.973c0 .605 0 1.06-.152 1.665l-1.97-.305zm0 .457l1.82.308h-.15l-1.67-.308zm-.304 1.516c0-.298.154-.756.154-1.056l2.12.3c-.15.304-.15.756-.3 1.212l-1.974-.456zm-.754 2.123c.15-.458.452-.91.452-1.366l1.974.456h.152c-.306.604-.456 1.209-.606 1.665l-1.972-.755zm-.757 1.665c.149-.304.3-.61.451-.91l1.972.756a4.412 4.412 0 0 0-.608 1.217h-.15l-1.665-1.063zm-1.214 1.822a3.29 3.29 0 0 0 .758-1.214l1.816 1.06c-.3.604-.603 1.06-.909 1.514h-.152l-1.513-1.36zm-1.205 1.51c.297-.303.449-.604.6-.756l1.667 1.21c-.152.303-.454.607-.758.906l-1.51-1.36zm-1.674 1.514c.456-.304.755-.603 1.064-.909l1.515 1.366c-.456.451-.905.912-1.364 1.213l-1.215-1.67zm-.303.304l1.058 1.366-1.058-1.366zm-1.213.756c.306-.152.608-.304.91-.603l1.213 1.668c-.304.3-.759.453-1.062.757l-1.06-1.822zm-1.963 1.065c.454-.152.905-.455 1.208-.604l1.06 1.665v.148c-.455.15-1.06.456-1.514.757v-.149l-.754-1.817zm-.458.15h.152l.606 1.667-.758-1.666zm-1.366.455c.3 0 .611-.152 1.065-.306l.759 1.819v.152c-.458.15-.759.304-1.213.304l-.611-1.97zm-.3.152l.45 1.663h-.15l-.3-1.663zm-1.82.452c.455-.148.911-.148 1.364-.3l.455 1.965c-.455.152-1.062.152-1.666.306l-.154-1.97zm-1.966.15c.302 0 .756 0 1.059-.15l.304 1.97v.151h-1.363v-1.97zm-2.276-.15c.456 0 1.065.15 1.52.15v1.971c-.612 0-1.215 0-1.822-.15l.302-1.97zm-.456 0h.154l-.303 1.665.149-1.665zm-1.361-.3c.304 0 .758.152 1.062.152l-.304 1.965c-.454 0-.907-.152-1.21-.152l.452-1.965zm-.452-.152l-.304 1.663h-.152l.456-1.663zm-1.667-.606c.454.148.912.302 1.363.454l-.451 1.969c-.608-.154-1.212-.304-1.674-.456l.762-1.967zm-1.668-.755c.3.149.604.3.906.452l-.754 1.817c-.456-.152-.912-.305-1.21-.604l1.058-1.665zm-1.97-1.217c.455.302.76.452 1.21.756l-.905 1.822h-.152c-.452-.304-.908-.606-1.364-1.06l1.21-1.518zm-1.358-1.213c.297.152.45.456.755.605l-1.213 1.673h-.15c-.304-.31-.604-.613-.913-.912l1.52-1.366zm-1.521-1.817c.309.456.61.762.913 1.213l-1.368 1.513h-.152c-.3-.453-.756-.909-1.06-1.361l1.667-1.365zm-1.06-1.359c.153.302.301.603.605.755l-1.815 1.212c-.153-.304-.456-.608-.606-1.06l1.817-.907zm-1.058-2.127c.152.456.3.91.603 1.366l-1.815 1.063c-.302-.455-.454-1.063-.76-1.52l.154-.153 1.818-.756zm-.152-.3l-1.666.756v-.152l1.666-.603zm-.606-1.365c.15.306.302.61.453.908l-1.964.757v.153l-.458-1.362h.152l1.817-.456zm0-.453l-1.817.453 1.817-.453zm-.454-1.82c.152.46.152 1.064.302 1.516l-1.967.456c-.152-.602-.302-1.06-.302-1.664l1.967-.308zm-.15-1.817c0 .303 0 .757.15 1.06l-2.12.153v-1.213h1.97zm.15-2.269c-.15.45-.15.907-.15 1.36h-1.97c0-.603 0-1.058.153-1.665l1.967.305zm0-.452l-1.817-.152v-.154l1.817.306zm.302-1.37c-.15.308-.15.608-.302 1.064l-1.967-.304c.15-.452.15-.912.302-1.364v.147l1.967.457zm.152-.457l-1.817-.451 1.817.45zm.453-1.663c-.15.455-.303.908-.453 1.364l-1.817-.605h-.152c.152-.61.458-1.06.606-1.664l1.816.905zm.908-1.816c-.152.301-.302.607-.45 1.06l-1.971-.908c.152-.302.456-.758.606-1.06l1.815.908zm1.21-1.82c-.302.308-.602.76-.754 1.214l-.907-.606-.91-.46c.302-.452.606-1.056.91-1.36h.149l1.513 1.212zm.305-.304h-.15l-1.365-1.214 1.515 1.06v.154zm2.58-2.725c-.304.302-.456.456-.762.608l.306.3c.152-.151.456-.452.606-.606h.148l.154-.152c.453-.298.758-.602 1.21-.908h.15l3.184 5.607c-.3.152-.605.301-.755.455l.302.302c1.364-1.21 3.178-1.817 5.302-1.817 2.119 0 4.241.91 5.756 2.27h.608c-.456-.453-.909-.909-1.52-1.21l3.033-5.607h.15c.608.458 1.06.758 1.666 1.214l.15.152c.306.3.605.604 1.065.903.305.458.756.91 1.214 1.366v.152l.15.149c.3.46.604.763.755 1.217l-5.453 3.178c-.305-.453-.758-1.057-1.06-1.515v.757c1.212 1.366 2.12 3.487 2.12 5.609 0 2.426-1.06 4.542-2.572 6.207-1.672 1.516-3.793 2.581-6.062 2.581-2.428 0-4.545-1.065-6.208-2.581-1.672-1.665-2.579-3.78-2.579-6.207 0-1.97.605-3.79 1.815-5.153l-.304-.303c-.148.152-.3.456-.45.605l-5.458-3.178a6.628 6.628 0 0 1 1.218-1.67v-.153c.15 0 .15-.15.304-.3l-.304-.303c-.15.152-.15.304-.308.452l-1.666-1.36c.306-.152.456-.304.608-.605v-.756l.452-.152c.15-.306.455-.306.764-.306.3-.299.604-.45 1.06-.755l1.21 1.513zm1.509-1.057c-.299.299-.604.453-.905.605l-1.212-1.667c.456-.15.758-.457 1.212-.76l.905 1.822zm2.128-1.062c-.462.306-.916.454-1.368.606l-1.059-1.67a5.604 5.604 0 0 1 1.663-.756l.764 1.82zm1.663-.611c-.304.154-.603.304-1.059.304l-.762-1.817c.458-.154.912-.302 1.37-.452l.45 1.965zm2.117-.453c-.45.152-.905.152-1.361.304l-.452-1.968c.452-.152 1.058-.304 1.664-.304l.149 1.968zm1.976-.153h-1.064l-.15-1.964h-.152 1.366v1.964zm.452 17.572c-.3 0-.603-.147-.907-.147l-1.065 1.064c-.152.604-.152 1.056-.456 1.36-.149.152-.45.152-.755 0-.302-.45-.302-.45-.755-.908-.303-.152-.303-.452 0-.755.3-.309.755-.462 1.211-.462l1.21-1.056c-.301-.153-.301-.61-.301-.908v-.458l-10.911-11.664v-.302h.304c0-.148.151-.148.151 0l11.512 10.757c.16-.15.461-.15.762-.15.304 0 .76.15 1.06.302l1.817-1.664c-.152 0-.302-.152-.302-.308-.306-.152-.306-.61 0-.756.302-.304 1.059-.456 1.815-.456l.3-.3v-.76h1.066v.908h-.603l-.463.456c0 .756 0 1.516-.3 1.82-.3.154-.756.154-.907 0l-.153-.152-1.815 1.817c.152.3.305.604.305.91 0 .299-.153.452-.153.603.452.758 1.36 1.36 2.269 1.666 0 0 .153 0 .153.157 0 .15 0 .303-.153.303-.302 0-.302.148-.302.3-.15 0-.15.152-.15.304 0 .154-.154.306-.154.306-.303 0-.453 0-.453.146-.152 0-.302.152-.302.304h-.152c-.154.152-.154 0-.304 0-.299-1.06-.908-1.663-1.815-2.277h-.304zm-17.878 24.094h2.88v-2.88h-2.88v2.88zm3.636 0h2.88v-2.88h-2.88v2.88zm3.635 0h2.727v-2.88h-2.727v2.88zm3.485 0h2.88v-2.88h-2.88v2.88zm3.639 0h2.88v-2.88h-2.88v2.88zm3.637 0h2.873v-2.88h-2.873v2.88zm3.632 0h2.882v-2.88h-2.882v2.88zm3.636 0h2.878v-2.88h-2.878v2.88zm3.637 0h2.876v-2.88h-2.876v2.88zm3.632 0h2.88v-2.88h-2.88v2.88zm3.639 0h2.875v-2.88h-2.875v2.88zm-39.843 0h2.876v-2.88h-2.876v2.88zm-3.483 75.593h49.84v-70.896h-49.84v70.896zm41.205-37.726h2.423v-31.81h-2.423v31.81zm-4.393 0h2.421v-31.81h-2.421v31.81zm-4.394 0h2.422v-31.81h-2.422v31.81zm-4.395 0h2.428v-31.81h-2.428v31.81zm-4.395 0h2.58v-31.81h-2.58v31.81zm-4.236 0h2.421v-31.81h-2.421v31.81zm-4.393 0h2.42v-31.81h-2.42v31.81zm-4.394 0h2.425v-31.81h-2.425v31.81zm-4.397 0h2.427v-31.81h-2.427v31.81zm-4.39 0h2.422v-31.81h-2.422v31.81zm43.78 0h2.427v-31.81h-2.426v31.81zm-4.393 36.363h2.423v-34.54h-2.423v34.54zm-4.393 0h2.421v-34.54h-2.421v34.54zm-4.394 0h2.422v-34.54h-2.422v34.54zm-4.395 0h2.428v-34.54h-2.428v34.54zm-4.395 0h2.58v-34.54h-2.58v34.54zm-4.236 0h2.421v-34.54h-2.421v34.54zm-4.393 0h2.42v-34.54h-2.42v34.54zm-4.394 0h2.425v-34.54h-2.425v34.54zm-4.397 0h2.427v-34.54h-2.427v34.54zm-4.39 0h2.422v-34.54h-2.422v34.54zm43.78 0h2.427v-34.54h-2.426v34.54zm-28.026-161.64h4.241v-7.575h-4.241v7.575zm5.302 0h4.241v-7.575h-4.241v7.575zm5.15 0h4.24v-7.575h-4.24v7.575zm5.303 0h4.241v-7.575h-4.241v7.575zm-21.059 0h4.243v-7.575h-4.243v7.575zm25.908-20.603v-1.065h.905v1.065l-.45-.452-.455.452zm-27.422 0v-1.065h.91v1.065l-.456-.452-.454.452zm19.395-1.065l-1.52-2.727-.303-.603-1.967 3.33.457.304 1.51-2.422 1.21 2.422.613-.304zm-6.67 0l-1.514-2.727-.454-.603-1.817 3.33.605.304 1.212-2.422 1.36 2.422.609-.304zm9.091 6.215l-1.512-2.729-.455-.604-1.973 3.333.756.306 1.217-2.43 1.361 2.43.606-.306zm-5.754 0l-1.516-2.729-.304-.604-1.972 3.333.604.306 1.368-2.43 1.21 2.43.61-.306zm-5.758 0l-1.364-2.729-.452-.604-1.972 3.333.602.306 1.37-2.43 1.209 2.43.607-.306zm5.758-13.03l-1.516-2.423-.304-.756-1.972 3.179.604.45 1.368-2.269 1.21 2.27.61-.451zm-2.423-14.237c-1.671 10.453-6.52 19.69-9.85 29.536v-.15l1.212 2.12.15.301 1.21-2.421 1.211 2.12.16.301.144-.3 1.218-2.121 1.21 2.421.149-.3 1.212-2.121 1.21 2.421.151-.3 1.216-2.121 1.06 2.12.15.301.153-.3 1.212-2.121 1.209 2.421.152-.3 1.217-2.121 1.21 2.421.151-.3 1.212-2.121.909 2.12.3.301.152-.3 1.062-2.121c.3-.454-9.239-25.148-9.845-29.386h-.907zm.603-5.457c0 .456-.152.91-.152 1.366h.152v-1.366zm12.724 35.903l-.602 1.213-.608 1.212h-.147l-.46-1.212-.758-1.213-.76 1.213-.454 1.212-.606-1.212-.755-1.213-.606 1.213-.604 1.212-.608-1.212-.603-1.213-.763 1.213-.606 1.212-.603-1.212-.606-1.213-.755 1.213-.457 1.212h-.152l-.605-1.212-.606-1.213-.762 1.213-.454 1.212h-.152l-.604-1.212-.605-1.213-.756 1.213-.456 1.212h-.149l-.607-1.212-.603-1.213-.76 1.213-.458 1.212h-.145l-.613-1.212-.756-1.213-.605 1.213-.606 1.212-.456-1.212-.754-1.213-.755 1.213-.456 1.212h-.15l-.454-1.212-.764-1.213-.452.755v-5.302l-.456.304-.454-.304v18.639h28.327v-18.639l-.45.304-.455-.304v5.302l-.456-.755zm2.573-6.512l-1.663-1.665-1.666 1.665 1.666 1.665 1.663-1.665zm-27.413 0l-1.672-1.665-1.665 1.665 1.665 1.665 1.672-1.665zm9.843-24.392h4.392v-3.18h-4.392v3.18zm-12.27 75.444h5.452v-7.422h-5.452v7.422zm7.573 0h5.602v-7.422h-5.602v7.422zm7.576 0h5.608v-7.422h-5.608v7.422zm7.573 0h5.607v-7.422h-5.607v7.422zm7.725 0h5.301v-7.422h-5.301v7.422zm-38.02 0h5.452v-7.422h-5.452v7.422zm17.12-23.33l-1.37-2.731-.454-.605-1.967 3.335.605.304 1.362-2.278 1.216 2.278.608-.304zm2.872 6.057l-1.361-2.576-.453-.605-1.97 3.181.606.304 1.364-2.269 1.211 2.27.603-.305zm7.58 0l-1.367-2.576-.455-.605-1.967 3.181.602.304 1.365-2.269 1.367 2.27.454-.305zm7.724 0l-1.666-2.576-.3-.605-1.824 3.181.454.304 1.37-2.269 1.358 2.27.608-.305zm-3.79-6.058l-1.664-2.73-.304-.605-1.967 3.335.607.304 1.36-2.278 1.213 2.278.755-.304zm-7.57 0l-1.516-2.73-.304-.605-1.972 3.335.604.304 1.368-2.278 1.21 2.278.61-.304zm-11.367 6.058l-1.51-2.576-.455-.605-1.972 3.181.604.304 1.368-2.269 1.21 2.27.755-.305zm-2.42-12.266l-7.275 18.024.152.15.152.304 1.366-1.969 1.057 1.665.306.304.304-.304 1.057-1.665 1.364 2.121.3-.456 1.068-1.811.906 1.811.453.456 1.21-2.12 1.211 1.664.154.304.302-.304 1.06-1.665 1.066 1.665.3.304.306-.304 1.06-1.665 1.057 1.665.304.456.299-.456 1.06-1.811.916 1.811.452.456.154-.456 1.057-1.665 1.212 1.665.152.304 1.36-1.969 1.066 1.665.304.304.302-.304 1.06-1.665 1.36 2.121.302-.456 1.06-1.811 1.06 1.811.308.456 1.21-2.12 1.213 1.664.15.304 1.363-1.969 1.059 1.665.305.304.306-.304 1.059-1.665 1.362 1.97.152-.305.152-.15-7.272-18.024h-23.782zm38.776 20.449v-1.06h.76v1.208l-.456-.452-.304.304zm-54.53.148v-1.209h.754v1.06l-.298-.303-.456.452zm51.049-11.816v-1.06h.761v1.06l-.305-.452-.456.452zm-47.723 0v-1.06h.908v1.06l-.45-.452-.458.452zm-1.36 13.184l-1.51-1.516-1.667 1.516 1.667 1.818 1.51-1.818zm54.54 0l-1.672-1.516-1.512 1.516 1.512 1.818 1.672-1.818zm-3.336-11.814l-1.665-1.52-1.667 1.52 1.667 1.817 1.665-1.817zm-47.566 0l-1.82-1.52-1.665 1.52 1.665 1.817 1.82-1.817zm38.02 185.723h2.577v-31.659h-2.576v31.659zm-4.24 0h2.422v-31.659h-2.421v31.659zm-4.394 0h2.424v-31.659h-2.424v31.659zm-4.392 0h2.428v-31.659h-2.428v31.659zm-4.393 0h2.426v-31.659h-2.426v31.659zm-4.392 0h2.423v-31.659h-2.423v31.659zm-4.393 0h2.575v-31.659h-2.575v31.659zm-4.242 0h2.427v-31.659h-2.427v31.659zm-4.395 0h2.425v-31.659h-2.425v31.659zm-4.392 0h2.422v-31.659h-2.422v31.659zm43.629 0h2.424v-31.659h-2.424v31.659zm2.424 34.54v-32.72h-2.424v32.72h-1.819v-32.72h-2.576v32.72h-1.819v-32.72h-2.421v32.72h-1.97v-32.72h-2.425v32.72h-1.964v-32.72h-2.428v32.72h-1.967v-32.72h-2.426v32.72h-1.969v-32.72h-2.423v32.72h-1.818v-32.72h-2.575v32.72h-1.815v-32.72h-2.427v32.72h-1.972v-32.72h-2.423v32.72h-1.97v-32.72h-2.422v32.72h-1.97v-67.717h49.992v67.718h-1.969zm-52.872 37.72h58.63v-34.989h-58.63v34.988zm56.958-236.93h-2.72v-19.388l-.305.3-.456-.3v6.208l-.605-.758-.606 1.062-.608 1.06-.756-1.06-.608-1.062-.755 1.062-.606 1.06-.755-1.06-.607-1.062-.757 1.062-.608 1.06-.606-1.06-.758-1.062-.608 1.062-.755 1.06-.606-1.06-.756-1.062-.601 1.062-.61 1.06-.761-1.06-.606-1.062-.755 1.062-.608 1.06-.758-1.06-.601-1.062-.76 1.062-.603 1.06-.615-1.06-.754-1.062-.606 1.062-.755 1.06-.605-1.06-.76-1.062-.604 1.062-.606 1.06-.762-1.06-.606-1.062-.756 1.062-.603 1.06-.758-1.06-.603-1.062-.761 1.062-.605 1.06-.606-1.06-.76-1.062-.604 1.062-.758 1.06-.605-1.06-.76-1.062-.602 1.062-.608 1.06-.755-1.06-.604-1.062-.764 1.062-.604 1.06-.758-1.06-.606-1.062-.755 1.062-.606 1.06-.603-1.06-.76-1.062-.61 1.062-.756 1.06-.604-1.06-.758-1.062-.608 1.062-.603 1.06-.758-1.06-.603-1.062-.615.908v-6.358l-.45.3-.458-.3v19.388h-2.572v-7.573l-.298.451-.456-.45V228.734h55.29V165.87l-.456.451-.304-.45v7.572zM1311.008 227.375v3.331l-2.877-1.36v-13.937l-6.367-3.034v14.092l-2.877-1.517v-13.936l-6.207-3.035v14.094l-3.036-1.514v-13.94l-6.058-3.026v14.085l-3.028-1.513v-13.94l-6.217-2.875v13.781l-2.873-1.36v-13.934l-6.364-3.034v13.936l-2.877-1.362v-13.935l-6.214-3.033v13.94l-2.876-1.37v-13.93l-6.362-3.035v13.94l-2.88-1.359v-13.942l-6.21-3.025v13.933l-3.028-1.363v-13.94l-6.065-3.026v13.932l-.756-.299v46.965l71.658 34.386v-21.814h16.058v-23.027h-4.544zm-111.197 98.47l2.122-1.06v16.209l3.483-1.515v-16.21l7.274-3.484v16.21l3.33-1.664v-16.21l7.272-3.486v16.21l3.485-1.667v-16.21l7.272-3.486v16.21l3.333-1.664v-16.211l7.27-3.485v16.21l3.488-1.514v-16.36l7.268-3.488v16.21l3.337-1.513v-16.21l7.269-3.635v16.206l3.485-1.51v-16.212l7.118-3.482v16.21l3.485-1.67v-16.21l7.273-3.481v16.21l3.33-1.669v-16.21l7.275-3.484v16.212l1.514-.604v54.532l-99.683 47.875v-70.9zm-43.93-61.506h8.634v-8.635h-8.633v8.635zm-16.362 17.114h42.112v-27.417h-42.112v27.417zm20.147-50.294l-25.902 21.665h53.626l-27.724-21.665zm141.795 77.262h63.48v-6.363h-63.48v6.363zm0-36.055h63.48v-3.028h-63.48v3.028zm23.632-6.663h10.757v-2.272h-10.757v2.272zm16.971-7.882h10.75v-2.115h-10.75v2.115zm6.212 87.566h10.752v-2.124h-10.752v2.124zm-41.059.76h10.758v-2.278h-10.758v2.278zm5.152 2.872h10.757v-2.27h-10.757v2.27zm5.15 2.882h10.757v-2.272h-10.757v2.272zm8.334-21.666h10.911v-2.27h-10.91v2.27zm12.876 0h10.758v-2.27h-10.758v2.27zm-6.358-3.938h10.905v-2.421h-10.905v2.421zm-7.582-3.027h10.758v-2.278h-10.758v2.278zm13.186-.456h10.755v-2.273h-10.755v2.273zm-15.907-39.687v12.724h-10.155v-12.724c0-2.429 2.276-4.397 5.003-4.397 2.879 0 5.152 1.968 5.152 4.397zm16.36 0v12.724h-10.152v-12.724c0-2.429 2.271-4.397 5-4.397 2.726 0 5.153 1.968 5.153 4.397zm16.362 0v12.724h-10.153v-12.724c0-2.429 2.121-4.397 5.002-4.397 2.725 0 5.151 1.968 5.151 4.397zm-37.42-22.727h10.754v-2.121h-10.754v2.12zm12.875-23.938h7.125v-7.117h-7.125v7.117zm21.209-8.177v24.086h13.487v104.68h-63.48v-104.68h15.301v-24.086h34.692zm-18.026-19.24l-21.361 18.026h44.236l-22.875-18.026zm-132.402-54.84h5.148v-5.003h-5.148v5.003zm-9.697 10.452h24.995V147.69h-24.995v16.966zm11.968-30.148l-15.152 12.728h31.208l-16.056-12.728zm-82.112 172.4h76.66v-2.73h-76.66v2.73zm28.328-7.119h13.033v-2.882h-13.033v2.882zm20.756-9.545h13.027v-2.732h-13.027v2.732zm-29.992 3.176h13.028v-2.722h-13.028v2.722zm25.448 27.272v15.602h-12.27v-15.602c0-2.877 2.727-5.303 6.059-5.303 3.486 0 6.211 2.426 6.211 5.303zm19.847 0v15.602h-12.269v-15.602c0-2.877 2.574-5.303 6.059-5.303 3.33 0 6.21 2.426 6.21 5.303zm-39.691 0v15.602h-12.27v-15.602c0-2.877 2.725-5.303 6.212-5.303 3.33 0 6.058 2.426 6.058 5.303zm-17.874 76.351h13.026v-2.88h-13.026v2.88zm6.21 3.483h13.028v-2.725h-13.028v2.725zm6.212 3.487h13.026v-2.728h-13.026v2.728zm10.301-26.208h12.876v-2.727h-12.876v2.727zm15.298 0h13.033v-2.727h-13.033v2.727zm-7.575-4.851h13.027v-2.724h-13.027v2.724zm-9.09-3.478h13.033v-2.73h-13.034v2.73zm15.908-.608h13.03v-2.73h-13.03v2.73zm12.27 27.42h13.032v-2.732h-13.032v2.732zm-56.356 14.084h76.66v-64.226h-76.66v64.226zm0-66.804h76.66v-59.992h-76.66v59.992zm76.204-168.305h7.723v-1.67h-7.723v1.67zm12.118-5.604h7.723v-1.674h-7.723v1.674zm4.394 62.563h7.725v-1.669h-7.725v1.669zm-29.388.305h7.725v-1.518h-7.725v1.518zm3.786 2.27h7.726v-1.667h-7.726v1.666zm3.789 1.966h7.572V235.1h-7.572v1.664zm5.906-15.446h7.723v-1.671h-7.723v1.671zm9.092 0h7.723v-1.671h-7.723v1.671zm-4.545-2.884h7.721v-1.664h-7.721v1.664zm-5.457-2.117h7.724v-1.513h-7.724v1.513zm9.546-.304h7.725v-1.518h-7.725v1.518zm-11.36-28.477v9.237h-7.277v-9.237c0-1.674 1.52-3.035 3.639-3.035 1.965 0 3.638 1.361 3.638 3.035zm11.666 0v9.237h-7.277v-9.237c0-1.674 1.52-3.035 3.638-3.035 1.966 0 3.639 1.361 3.639 3.035zm11.512 0v9.237h-7.277v-9.237c0-1.674 1.823-3.035 3.638-3.035 2.12 0 3.639 1.361 3.639 3.035zm-26.514-16.063h7.725v-1.665h-7.725v1.665zm-11.512 69.079h45.295v-36.203h-45.295v36.203zm0-39.385h45.295v-20.149h-45.295v20.149zm-.002-22.268h45.295v-13.182h-45.295V178.9zm136.798 43.174v-2.126l-6.21-3.027v10.455l6.21-5.302zM472.501 325.39l-5.151 47.873c-1.212-.31-2.423-.608-3.789-1.064l3.94-34.995c.303-3.479-2.726-6.513-6.97-7.116-4.239-.457-7.874 1.964-8.18 5.603l-3.635 33.632c-1.363-.152-2.575-.304-3.938-.456l3.636-33.629c.302-3.485-2.727-6.664-6.817-7.12-4.09-.46-7.878 1.97-8.18 5.455l-3.79 34.238c-1.211-.152-2.422-.152-3.482-.152h-.455l3.788-34.547c.3-3.481-2.729-6.662-6.817-7.118-4.243-.454-7.88 1.972-8.334 5.454l-3.936 36.967c-1.364.152-2.728.299-4.093.452l4.093-37.872c.454-3.336-2.728-6.666-6.818-7.12-4.091-.451-7.88 1.97-8.182 5.604l-4.694 42.266c-1.516.3-3.183.756-4.698 1.208l6.06-56.347 80.442 8.783zm3.636-32.575l-2.575 22.727-80.29-8.785 2.421-22.723 80.444 8.781zm3.485-32.416l-2.425 22.574-80.44-8.788 2.423-22.573 80.442 8.787zm3.635-32.571l-2.577 22.575-80.442-8.79 2.575-22.57 80.444 8.785zm3.485-32.572l-2.423 22.575-80.444-8.787 2.423-22.57 80.444 8.782zm-61.204-35.142l-1.82 14.997-5.146-.607 1.513-14.998c.302-1.207 1.516-2.123 3.029-1.822 1.366 0 2.424 1.217 2.424 2.43zm7.273.754l-1.667 14.999-5.303-.45 1.668-15.003c.15-1.36 1.362-2.115 2.879-1.967 1.513.154 2.575 1.209 2.423 2.421zm7.422.912l-1.665 14.997-5.303-.606 1.665-15c.152-1.21 1.364-2.118 2.878-1.966 1.365.154 2.425 1.21 2.425 2.575zm7.272.755l-1.666 14.997-5.304-.603 1.667-15.002c.154-1.209 1.362-2.119 2.879-1.813 1.514 0 2.575 1.209 2.424 2.42zm7.421.756l-1.665 14.999-5.301-.453 1.668-15c.152-1.363 1.362-2.119 2.877-2.119 1.363.304 2.421 1.36 2.421 2.573zm7.272.914l-1.514 14.993-5.452-.606 1.815-15c0-1.21 1.366-2.118 2.728-1.964 1.518.152 2.729 1.21 2.423 2.577zm7.425.756l-1.667 14.994-5.303-.603 1.666-14.997c.154-1.216 1.364-2.124 2.88-1.82 1.515 0 2.577 1.217 2.424 2.426zm7.272.755l-1.513 15.002-5.303-.46 1.664-14.991c0-1.366 1.365-2.128 2.727-2.128 1.516.304 2.727 1.368 2.425 2.577zm7.424.91l-1.67 15.002-5.3-.61 1.667-15.148c.152-1.06 1.512-1.97 3.029-1.817 1.362.152 2.424 1.214 2.274 2.573zm-69.84 25.604l-1.667 14.994-5.15-.607 1.513-14.997c.152-1.212 1.518-2.12 2.88-1.967 1.516.152 2.576 1.213 2.424 2.577zm7.426.756l-1.668 14.992-5.304-.6 1.668-14.996c.152-1.217 1.363-2.126 2.877-1.822 1.515 0 2.575 1.209 2.427 2.426zm7.269.755l-1.665 14.999-5.15-.608 1.513-14.84c.305-1.363 1.516-2.127 3.03-2.127 1.365.303 2.422 1.367 2.272 2.576zm7.422.91l-1.666 15.002-5.304-.61 1.67-14.996c.15-1.213 1.364-2.118 2.877-1.969 1.516.152 2.577 1.214 2.423 2.573zm7.426.757l-1.82 15.002-5.15-.605 1.516-15.004c.303-1.208 1.513-2.115 3.03-1.815 1.362 0 2.424 1.213 2.424 2.422zm7.27.756l-1.664 15-5.304-.602 1.665-14.849c.152-1.36 1.364-2.12 2.877-2.12 1.518.302 2.577 1.362 2.427 2.571zm7.425.908l-1.67 15.003-5.3-.605 1.666-15.154c.152-1.06 1.363-1.964 2.88-1.815 1.362.15 2.424 1.212 2.424 2.571zm7.269.613l-1.513 15.146-5.454-.604 1.819-15.003c0-1.208 1.36-2.117 2.723-1.816 1.518 0 2.577 1.214 2.425 2.277zm7.424.909l-1.667 14.992-5.303-.603 1.668-14.845c.15-1.364 1.364-2.122 2.879-2.122 1.364.3 2.575 1.36 2.423 2.578zm7.27.907l-1.512 14.843-5.304-.453 1.667-15.145c0-1.218 1.364-1.972 2.728-1.826 1.513.152 2.725 1.218 2.421 2.58zm-69.684 25.597l-1.669 14.85-5.452-.453 1.667-15.002c.152-1.36 1.513-2.115 3.029-1.963 1.518.146 2.577 1.208 2.425 2.568zm7.27.761l-1.665 14.997-5.151-.604 1.516-15c.15-1.21 1.513-2.12 2.879-1.968 1.513.149 2.573 1.363 2.421 2.575zm7.424.76l-1.666 14.994-5.302-.605 1.665-14.992c0-1.217 1.364-2.127 2.879-1.823 1.516.148 2.575 1.209 2.424 2.426zm7.273.908l-1.667 14.842-5.151-.452 1.514-14.994c.152-1.37 1.515-2.124 3.03-1.972 1.363.147 2.426 1.212 2.274 2.576zm7.42.759l-1.664 14.995-5.302-.608 1.665-14.994c.15-1.214 1.366-2.125 2.878-1.972 1.517.152 2.575 1.365 2.423 2.579zm7.425.754l-1.819 14.997-5.151-.603 1.518-14.998c.3-1.21 1.514-2.12 3.029-1.97 1.36.153 2.423 1.362 2.423 2.574zm7.27.757l-1.665 15-5.303-.456 1.67-14.995c.15-1.366 1.36-2.12 2.877-1.97 1.513.151 2.575 1.208 2.421 2.42zm7.426.91l-1.666 14.997-5.304-.605 1.667-14.998c.152-1.213 1.364-2.121 2.877-1.97 1.364.155 2.426 1.215 2.426 2.576zm7.272.755l-1.518 15-5.452-.606 1.667-14.999c.152-1.212 1.513-2.12 2.877-1.969 1.514.152 2.575 1.361 2.426 2.574zm7.421.761l-1.666 14.997-5.3-.456 1.664-15.145c.15-1.218 1.363-1.974 2.877-1.822 1.365.152 2.577 1.214 2.425 2.426zm-69.837 25.599l-1.666 15.004-5.304-.46 1.667-14.995c.152-1.366 1.516-2.12 2.88-2.12 1.361.302 2.575 1.362 2.423 2.57zm7.27.91l-1.514 15-5.453-.607 1.664-15.15c.154-1.062 1.518-1.97 3.031-1.818 1.366.154 2.575 1.214 2.273 2.575zm7.423.755l-1.666 15-5.152-.606 1.518-14.999c.149-1.212 1.513-2.12 2.877-1.817 1.513 0 2.575 1.213 2.423 2.422zm7.425.765l-1.667 14.993-5.303-.456 1.67-14.997c0-1.366 1.36-2.122 2.877-2.122 1.514.306 2.571 1.366 2.423 2.582zm7.272.906l-1.668 14.996-5.149-.608 1.513-15.147c.152-1.064 1.517-1.973 2.88-1.819 1.515.152 2.576 1.212 2.424 2.578zm7.424.755l-1.67 15-5.3-.61 1.667-14.994c.151-1.21 1.362-2.121 2.878-1.974 1.513.152 2.575 1.37 2.425 2.578zm7.42.762l-1.814 14.995-5.152-.45 1.513-15.001c.302-1.363 1.515-2.12 3.03-2.12 1.365.3 2.424 1.362 2.424 2.576zm7.273.903l-1.666 15.002-5.304-.606 1.668-15.153c.15-1.056 1.361-1.965 2.877-1.811 1.513.148 2.577 1.209 2.425 2.568zm7.423.761l-1.817 14.996-5.152-.605 1.667-15c.152-1.21 1.362-2.117 2.88-1.965 1.361.148 2.422 1.36 2.422 2.574zm7.272.755l-1.516 14.999-5.453-.605 1.665-15.002c.152-1.207 1.365-1.965 2.88-1.965 1.515.3 2.574 1.363 2.424 2.573zM403.723 290.7l-1.514 14.995-5.452-.608 1.665-14.843c.152-1.363 1.364-2.12 2.877-2.12 1.514.305 2.576 1.362 2.424 2.576zm7.425.906l-1.667 15-5.303-.605 1.666-15.002c.152-1.21 1.516-2.118 2.879-1.964 1.366.152 2.577 1.209 2.425 2.571zm7.27.759l-1.516 14.995-5.452-.603 1.666-15.002c.152-1.209 1.515-2.116 3.031-1.965 1.361.152 2.425 1.36 2.271 2.575zm7.423.756l-1.664 14.997-5.303-.604 1.665-14.849c.15-1.36 1.514-2.119 2.877-2.119 1.518.304 2.577 1.363 2.425 2.575zm7.424.912l-1.667 14.841-5.303-.454 1.516-15.149c.154-1.212 1.513-1.967 3.03-1.815 1.514.15 2.576 1.21 2.424 2.577zm7.27.604l-1.664 15.146-5.152-.605 1.513-14.993c.152-1.216 1.518-2.126 2.88-1.974 1.515.154 2.575 1.36 2.423 2.426zm7.425.909l-1.669 14.993-5.301-.604 1.666-14.992c.154-1.218 1.366-1.974 2.879-1.974 1.516.302 2.575 1.368 2.425 2.577zm7.272.908l-1.667 14.85-5.151-.457 1.516-15.15c.152-1.212 1.513-1.972 3.03-1.816 1.362.152 2.422 1.214 2.272 2.573zm7.42.605l-1.664 15.154-5.3-.61 1.665-14.995c.15-1.214 1.364-2.123 2.877-1.97 1.514.151 2.576 1.365 2.423 2.42zm7.427.908l-1.82 15.002-5.15-.608 1.666-14.997c.152-1.214 1.363-2.119 2.879-1.97 1.36.304 2.425 1.364 2.425 2.573zm-51.967-138.608l-1.66 14.992-5.304-.606 1.664-14.997c.154-1.213 1.365-2.121 2.88-1.973 1.515.154 2.574 1.218 2.42 2.584zm39.089-24.247l-1.06 9.245-8.938-1.062 1.059-9.243c.152-2.571 2.424-4.545 5-4.084 2.426.152 4.09 2.42 3.939 5.144zm15.3 1.672l-1.06 9.238-8.937-1.06 1.057-9.238c.307-2.579 2.577-4.395 5-4.093 2.426.152 4.244 2.421 3.94 5.153zm-30.752-3.487l-.911 9.241-8.937-.906.91-9.243c.304-2.573 2.573-4.545 4.997-4.245 2.425.306 4.244 2.578 3.941 5.153zm35.146 18.785l2.877-26.053-51.659-5.608-2.877 26.053 51.659 5.608zm-82.867 124.072l85.442 9.394-.606 5.302-85.44-9.396.604-5.3zm3.485-32.568l85.59 9.39-.756 5.302-85.44-9.39.606-5.302zm3.634-32.422l85.443 9.393-.606 5.15-85.442-9.237.605-5.306zm3.486-32.572l85.442 9.395-.456 5.305-85.595-9.395.61-5.305zm3.484-32.418l85.593 9.24-.606 5.304-85.441-9.393.454-5.151zm15.299-28.178l61.508 6.667.454-4.542-61.506-6.668-.456 4.543zm-33.021 190.73l85.438 9.395-.451 5.15-85.597-9.394.61-5.151zm35.75 61.354c41.963 0 78.17 16.663 92.862 40.293h-186.03c14.998-23.63 51.052-40.293 93.168-40.293zm64.082-207.391l-2.426 22.721-80.44-8.785 2.422-22.723 80.444 8.787z"/>
            <path d="M1115.581 393.863c-.154-.152-.154-.306-.304-.458l.304.458zm-45.143 10.603c-.456-.454-1.062-.756-1.666-1.057.604.301 1.21.603 1.666 1.057zm-9.239-13.78c.604 0 1.059 0 1.665.148-.606-.149-1.06-.149-1.665-.149zm-10.153-3.037c.608.154 1.21.458 1.967.76-.756-.302-1.359-.606-1.967-.76zm-41.96 17.424l-58.026.606 7.73-9.39 2.877-3.335 1.822-2.269 2.872-3.336 1.818-2.271 2.73-3.183 38.327-46.053 38.633 45.298c-.31.3-.764.755-1.064 1.056l24.391-22.724v-.603.603c4.846 4.245 9.694 8.486 14.541 12.574 3.337-5.3 9.093-11.968 16.363-11.208 12.573.453 14.393 19.845 14.393 19.845l-6.67.152.152 3.79c2.428 2.422 4.242 5.45 5.302 8.78.15.152.15.306.304.458l.46.604.15.453c.302.61.454 1.216.91 1.972l-26.816.152c8.94 0 17.872-.152 26.816-.152l-.456-.756-.304-.759-.15-.457c.302.61.454 1.216.91 1.972.3.91 1.36 3.482 1.51 4.393l14.088.61c2.276.606 3.485.454 5 7.873l-43.626.304c.149.757-20.604-.304-20.604-.304l-44.238-.45s0-2.73-.302-3.945l-19.843-.3z"/>
            <path d="M1060.44 285.243h-6.966v-2.421c-8.033.755-16.363 1.06-24.545 1.212v14.391h31.51v-13.182zm-70.143-2.573v2.573h-6.967v13.182h31.664v-14.543c-8.182-.152-16.361-.602-24.697-1.212zm102.56 19.088v4.547h-23.18v24.387h10.002l-6.968 2.269v77.411h-15.3v-77.26l-7.12-2.42h10.148v-24.387H983.33v24.387h10.151l-6.966 2.269v77.411H971.06v-77.26l-6.816-2.42h9.996v-24.387h-23.18v-4.547h-6.208v-3.333h29.388v-13.182h-6.969v-5.151a532.81 532.81 0 0 1-29.237-4.998v-11.212a162.918 162.918 0 0 1-11.212-2.269v-9.094c-4.241-.755-8.631-1.667-12.873-2.57v-8.186c72.868 12.274 144.822 11.512 215.875 0v8.186c-4.244.903-8.488 1.815-12.877 2.57v9.094c-3.638.907-7.427 1.667-11.21 2.421v11.06c-9.544 2.126-19.395 3.937-29.237 5.302v4.847h-6.823v13.182h29.243v3.333h-6.064z"/>
        </g>
        <g mask="url(#c)">
            <g transform="translate(204 289)">
                <mask id="e" fill="#fff">
                    <use xlink:href="#d"/>
                </mask>
                <path fill="#BABDBF" d="M0 .618l.357 9.462c41.3-1.15 82.37.666 122.974 5.342a1230.72 1230.72 0 0 0-5.988-10.236C78.569 1.061 39.386-.474 0 .618" mask="url(#e)"/>
            </g>
            <path fill="#F0F1F1" d="M1010.473 292.511c-49.491 4.946-92.72 13.595-132.153 26.438-9.644 3.14-19.276 6.612-28.587 9.972-15.74 5.678-32.015 11.545-48.488 15.835-30.091 7.836-64.212 12.26-104.311 13.52-96.805 3.034-168.95-17.962-216.712-31.862-4.822-1.402-9.413-2.74-13.77-3.976-47.534-13.498-96.162-22.87-145.452-28.084 2.016 3.386 4.011 6.787 5.996 10.191 46.053 5.274 91.507 14.208 135.985 26.838 4.331 1.23 8.895 2.557 13.692 3.952C521.983 348.523 588.913 368 678.007 368c6.33 0 12.779-.1 19.334-.305 41.061-1.29 76.102-5.845 107.117-13.922 17.017-4.431 33.56-10.398 49.557-16.167 9.227-3.327 18.764-6.769 28.226-9.85 37.317-12.154 78.198-20.462 124.8-25.385L1016 292c-1.841.172-3.69.327-5.527.511"/>
            <path fill="#BABDBF" d="M1161.488 284l-49.492 1.977c-31.516 1.264-64.042 2.589-96.053 5.601L1007 302c1.568-.167 3.122-.34 4.703-.499 33.399-3.36 67.666-4.732 100.873-6.062L1162 293.46l-.512-9.461z"/>
        </g>
        <g mask="url(#c)">
            <path fill="#E58F84" d="M51.486 347.173c-4.639-.81-9.263 1.358-13.248 3.865-3.986 2.506-7.848 5.473-12.434 6.543-2.993.7-6.113.542-9.168.882-6.601.733-12.906 3.89-17.446 8.738-.064.07-.126.143-.19.213.164.072.318.155.485.225 5.453 2.254 11.853 2.638 17.975 2.205 16.863-1.195 32.68-8.737 42.54-19.635-.085-.024-.17-.04-.254-.066-2.805-.853-5.372-2.466-8.26-2.97M-4.595 251.698c9.88-5.862 18.233-15.099 29.568-17.153 2.948-.535 5.973-.546 8.924-1.061 8.995-1.574 16.688-7.874 21.293-15.666a40.788 40.788 0 0 0 1.81-3.445c-.61-.719-1.217-1.438-1.847-2.146-11.176-12.576-25.683-23.648-42.711-31.244-9.442-4.212-14.207-4.167-22.51 1.44a53.379 53.379 0 0 0-16.328 17.469c-5.268 9.052-7.815 18.92-9.934 28.734-2.883 13.348-5.044 26.856-5.67 40.374a66.229 66.229 0 0 1 6.257-3.745c10.037-5.253 21.41-7.78 31.148-13.557"/>
            <path fill="#FEB6AB" d="M82.606 264.869c-4.873-18.013-13.227-35.544-25.94-50.869a41.827 41.827 0 0 1-1.8 3.504c-4.582 7.926-12.235 14.335-21.182 15.935-2.936.526-5.944.537-8.877 1.08-11.276 2.09-19.586 11.486-29.413 17.449-9.686 5.876-21 8.446-30.985 13.79a65.596 65.596 0 0 0-6.224 3.81c-.403 8.893-.172 17.79.934 26.65 2.82 22.564 11.51 44.992 28.106 63.328 3.33 3.68 7.11 7.261 12.056 9.454.063-.07.125-.144.188-.213 4.5-4.856 10.75-8.02 17.294-8.755 3.028-.34 6.12-.182 9.088-.883 4.546-1.071 8.373-4.043 12.325-6.554 3.95-2.511 8.534-4.684 13.132-3.872 2.863.505 5.408 2.121 8.188 2.976.083.025.168.042.252.066 2.883-3.22 5.258-6.73 6.987-10.46 6.436-13.879 4.28-28.945 2.884-43.904-.504-5.395 2.465-10.447 7.32-12.753 2.626-1.246 4.8-3.31 5.868-5.616 2.078-4.489 1.065-9.484-.201-14.163"/>
            <g transform="translate(-66 328)">
                <mask id="g" fill="#fff">
                    <use xlink:href="#f"/>
                </mask>
                <path fill="#FEB6AB" d="M227.956 18.528c-4.374-5.92-11.813-8.643-18.97-10.326-7.157-1.682-14.655-2.707-20.994-6.438a29.433 29.433 0 0 1-2.135-1.401c1.471 8.23 2.78 16.797.256 24.739-1.946 6.125-6.008 11.311-9.99 16.35-7.826 9.907-23.033 23.605-34.43 29.01-27.346 12.969-81.58 2.737-90.856 3.906-17.974 2.264-20.535-3.823-38.606-5.1-3.215-.226-6.949-.28-9.043 2.175-1.114 1.31-1.5 3.073-1.832 4.76-1.175 5.973.55 17.435-.22 23.473-.584 4.595-1.015 9.457.873 13.684 2.137 4.786 16.896 17.774 21.956 19.107 16.277 4.29 36.47 6.079 53.286 5.39 20.142-.827 71.077-4.097 88.801-13.719 21.002-11.4 46.639-36.764 58.736-57.402a165.694 165.694 0 0 0 12.132-25.488c-1.114-1.943-1.982-4.071-2.647-6.17-1.796-5.66-2.79-11.776-6.317-16.55" mask="url(#g)"/>
            </g>
            <path fill="#E58F84" d="M181.716 300.877c-4.267-3.895-10.618-4.836-16.024-2.91-17.513 6.236-32.346 17.338-45.692 30.476l.172.983a29.22 29.22 0 0 0 2.134 1.425c6.333 3.794 13.825 4.836 20.975 6.546 7.15 1.711 14.583 4.48 18.953 10.5 3.523 4.855 4.517 11.073 6.311 16.83.665 2.133 1.532 4.298 2.646 6.273 8.234-22.289 11.904-46.34 10.525-70.123"/>
            <path fill="#00A2D9" d="M199.658 262.46c-.183-.664-.392-1.36-.888-1.832-.573-.545-1.406-.68-2.186-.788-1.807-.25-3.617-.478-5.427-.695l.394 1.893c.56 2.694 1.124 5.444.819 8.18-.306 2.736-1.634 5.505-4.025 6.827-3.732 2.062-8.297.001-12.038-2.042-4.652 5.066-13.621 5.085-18.294.04-4.871 3.903-12.421 3.898-17.285-.017-.415-.335-.888-.715-1.412-.63-.374.061-.665.349-.944.608-3.888 3.605-10.573 3.515-14.365-.193-2.289-2.238-3.435-5.373-4.657-8.346a100.073 100.073 0 0 0-4.488-9.465l-.55.004c-6.076.06-12.15.15-18.22.242-.032.212-.06.428-.092.641 5.378 22.9 6.284 46.87 2.582 70.108-.299 1.874-.631 3.758-1.297 5.534-.312.83-.699 1.65-1.072 2.471a3362.62 3362.62 0 0 0 34.566-3.655 284.82 284.82 0 0 1 5.055-13.617c.997-2.483 2.052-4.989 3.72-7.072.392-.488.887-.985 1.51-1.003 1.086-.03 1.617 1.31 1.813 2.39a63.051 63.051 0 0 1 .623 17.886 3372.223 3372.223 0 0 0 53.694-6.554c.96-.125 1.972-.272 2.734-.876.97-.768 1.302-2.082 1.556-3.302 3.89-18.696 3.259-38.335-1.826-56.737"/>
            <path fill="#005A85" d="M123.311 273.158c3.86 3.558 10.667 3.644 14.625.185.284-.249.58-.525.961-.583.534-.083 1.015.283 1.438.604 4.952 3.757 12.639 3.763 17.598.015 4.758 4.844 13.89 4.825 18.625-.037 3.81 1.961 8.458 3.94 12.257 1.96 2.434-1.269 3.787-3.926 4.097-6.552.311-2.626-.263-5.266-.834-7.852l-.4-1.816a468.296 468.296 0 0 0-4.627-.5c-24.22-2.485-48.645-2.741-73.051-2.519a93.688 93.688 0 0 1 4.57 9.085c1.244 2.852 2.411 5.861 4.741 8.01M141.347 310c-.615.018-1.104.493-1.491.96-1.65 1.989-2.693 4.382-3.679 6.754-1.784 4.29-3.62 7.912-5.177 12.286 4.193-.446 8.386-.89 12.576-1.352.63-5.685.615-10.738-.436-16.364-.193-1.033-.718-2.313-1.793-2.284zM98.633 328.902c3.912-23.502 2.956-47.742-2.728-70.902-4.064 25.521-3.743 53.493.206 79l.02-.002c.394-.831.802-1.66 1.132-2.5.704-1.795 1.054-3.7 1.37-5.596"/>
            <path fill="#FEB6AB" d="M175.668 267.225c.819 1.386 1.686 2.824 3.026 3.676 1.183.752 2.61.963 3.996 1.054 2.35.157 4.885-.04 6.747-1.528 1.845-1.474 2.688-4.022 2.548-6.426-.14-2.404-1.152-4.677-2.45-6.678-3.041-4.692-8.078-8.28-13.547-8.323-1.843-.014-3.758.403-5.205 1.582-5.25 4.28 2.538 12.668 4.885 16.643"/>
            <path fill="#FEB6AB" d="M157.668 267.225c.819 1.386 1.686 2.824 3.026 3.676 1.183.752 2.61.963 3.996 1.054 2.35.157 4.885-.04 6.747-1.528 1.845-1.474 2.688-4.022 2.548-6.426-.14-2.404-1.152-4.677-2.45-6.678-3.041-4.692-8.078-8.28-13.547-8.323-1.844-.014-3.759.403-5.205 1.582-5.25 4.28 2.538 12.668 4.885 16.643"/>
            <path fill="#FEB6AB" d="M140.668 267.225c.819 1.386 1.686 2.824 3.026 3.676 1.183.752 2.61.963 3.996 1.054 2.35.157 4.885-.04 6.747-1.528 1.845-1.474 2.688-4.022 2.548-6.426-.14-2.404-1.152-4.677-2.45-6.678-3.041-4.692-8.078-8.28-13.547-8.323-1.843-.014-3.758.403-5.205 1.582-5.25 4.28 2.538 12.668 4.885 16.643"/>
            <path fill="#FEB6AB" d="M120.668 267.225c.819 1.386 1.686 2.824 3.026 3.676 1.183.752 2.61.963 3.996 1.054 2.35.157 4.885-.04 6.747-1.528 1.845-1.474 2.688-4.022 2.548-6.426-.14-2.404-1.152-4.677-2.45-6.678-3.041-4.692-8.078-8.28-13.547-8.323-1.844-.014-3.759.403-5.205 1.582-5.25 4.28 2.538 12.668 4.885 16.643M123.35 310.18c3.895-4.095 9.615-7.472 14.964-5.694 5.252 1.745 7.956 8.425 6.103 13.672-.577 1.63-1.502 3.123-2.042 4.767-.477 1.449-.643 2.983-1.063 4.45-1.19 4.15-4.424 7.53-8.277 9.432-3.852 1.903-8.27 2.43-12.55 2.103-15.684-1.196-2.721-22.854 2.865-28.73"/>
            <path fill="#AC2A40" d="M46.044 305.223l-10.66-4.443c-2.146-.896-4.361-1.806-6.67-1.78-5.482.063-9.764 5.467-11.101 11.078-1.902 7.977.754 16.796 6.154 22.728 5.399 5.932 13.257 9.053 21.05 9.19 5.79.1 11.846-1.51 16.044-5.72 3.449-3.459 5.347-8.393 5.925-13.377.386-3.316.214-6.662-.23-9.96-.567-4.23-.37-4.445-3.848-4.46-6.126-.025-10.863-.837-16.664-3.256"/>
            <path fill="#231F20" d="M53.975 258.843c-.183-2.534-1.134-4.93-3.251-5.675-2.004-.704-3.926.9-4.825 3.04-1.644 3.913-1.207 10.208 2.766 11.59 2.984 1.04 5.12-2.12 5.256-5.493a15.6 15.6 0 0 0-.012-1.355 10.58 10.58 0 0 0 .066-2.107"/>
            <path fill="#F26522" d="M-38.838 225.34c7.097-6.664 16.63-12.281 26.164-10.221 5.272 1.14 10.129 4.562 15.51 4.184 2.184-.152 4.275-.936 6.263-1.851 2.283-1.05 4.512-2.31 6.275-4.097 2.044-2.07 3.353-4.728 4.926-7.172a37.346 37.346 0 0 1 12.241-11.809c1.688-1.005 3.51-1.89 5.467-2.07 2.42-.221 4.785.65 7.173 1.095 8.39 1.567 17.124-2.334 23.08-8.42a38.779 38.779 0 0 0 3.987-4.817c.594-2.85.91-5.734.672-8.617-.583-7.073-4.392-13.239-8.763-18.341-6.221-7.265-14.253-13.244-23.38-14.113-9.126-.869-19.266 4.553-22.484 14.148-.496 1.48-.955 3.199-2.238 3.903-1.589.873-3.366-.345-4.808-1.406-17.023-12.52-41.946-6.82-57.105 9.252-12.486 13.238-24.8 40.762-21.64 60.22 1.234 7.601 10.597 9.628 18.163 10.792 3.534-3.502 6.876-7.262 10.497-10.66"/>
            <path fill="#A64417" d="M44.655 191.77c-2.366-.447-4.71-1.322-7.107-1.101-1.94.18-3.745 1.07-5.418 2.08a37.223 37.223 0 0 0-12.129 11.858c-1.559 2.453-2.856 5.122-4.882 7.2-1.747 1.794-3.955 3.06-6.218 4.114-1.97.92-4.04 1.706-6.205 1.86-5.333.378-10.145-3.059-15.37-4.202-9.446-2.069-18.893 3.572-25.926 10.262-3.587 3.413-6.9 7.188-10.4 10.705 1.967.306 3.814.553 5.358.826a106.971 106.971 0 0 0 33.477.587c16.12-2.27 31.735-8.163 47.045-14.56 7.62-3.183 15.439-6.671 21.256-13.095 5.479-6.05 8.676-14.162 11.264-22.225.798-2.486 2.072-4.507 2.6-7.079-1.188 1.711-3.02 2.81-4.474 4.316-5.903 6.11-14.558 10.026-22.87 8.454z"/>
        </g>
        <g mask="url(#c)">
            <path fill="#E58F84" d="M1384.95 359.882c-5.234-.975-10.586.272-15.869.937-7.378.928-15.412.546-21.444-3.803-4.514-3.254-7.592-8.513-12.728-10.658-3.137-1.311-6.644-1.275-10.028-1.615-6.794-.682-13.64-3.147-18.455-7.93 2.26 8.202 5.302 16.432 11.001 22.838 7.984 8.975 20.084 13.222 31.796 16.45 7.859 2.166 15.951 4.052 24.102 3.579 10.569-.614 20.404-5.273 28.448-12.11a46.782 46.782 0 0 1-2.679-1.326c-4.582-2.445-9.039-5.412-14.145-6.362M1311.894 261.61c3.531-4.763 7.161-9.9 12.627-12.196 3.295-1.385 7-1.6 10.26-3.067 5.882-2.641 9.644-9.017 15.794-10.95 5.682-1.785 11.914.7 17.762-.425 3.068-.59 5.853-2.142 8.792-3.2 2.94-1.059 6.324-1.59 9.105-.167 3.71 1.9 5 6.425 6.784 10.19 2.27 4.79 5.801 8.85 9.286 12.842l7.424 8.502c2.393 2.742 4.797 5.493 7.562 7.859 3.791 3.243 8.156 5.666 12.715 7.734-.299-6.205-1.064-12.374-2.436-18.45-3.156-13.99-9.431-27.136-16.684-39.584-4.482-7.695-9.435-15.269-16.1-21.267-15.334-13.801-41.227-17.684-58.09-4.655-9.079 7.015-15.226 17.023-20.107 27.278-7.694 16.165-12.637 33.542-14.77 51.245 3.72-3.532 7.046-7.605 10.076-11.69"/>
            <path fill="#FEB6AB" d="M1417.29 270.997c-2.766-2.365-5.17-5.117-7.562-7.857l-7.423-8.502c-3.486-3.993-7.017-8.052-9.287-12.842-1.784-3.767-3.074-8.291-6.784-10.19-2.781-1.424-6.165-.893-9.105.166-2.939 1.057-5.725 2.61-8.792 3.2-5.848 1.125-12.08-1.36-17.762.425-6.15 1.934-9.912 8.308-15.794 10.95-3.261 1.466-6.965 1.682-10.26 3.067-5.466 2.296-9.096 7.434-12.628 12.195-3.029 4.085-6.355 8.158-10.075 11.69-2.541 21.098-1.087 42.66 4.517 63.189l.09.325c4.816 4.783 11.663 7.248 18.456 7.93 3.383.34 6.89.304 10.028 1.615 5.135 2.145 8.214 7.404 12.729 10.658 6.032 4.349 14.066 4.73 21.444 3.803 5.281-.664 10.634-1.912 15.868-.937 5.105.95 9.562 3.917 14.145 6.362.87.464 1.765.913 2.677 1.327a61.405 61.405 0 0 0 11.182-12.522c8.906-13.269 12.904-29.11 15.201-44.818 1.524-10.414 2.356-21.008 1.85-31.5-4.558-2.068-8.923-4.49-12.715-7.734"/>
            <g transform="translate(1187.896 329.167)">
                <mask id="i" fill="#fff">
                    <use xlink:href="#h"/>
                </mask>
                <path fill="#FEB6AB" d="M10.143 19.652c4.65-6.28 12.557-9.168 20.163-10.953 7.608-1.784 15.579-2.87 22.316-6.828a31.46 31.46 0 0 0 2.27-1.486c-1.564 8.729-2.954 17.816-.273 26.24 2.07 6.496 6.386 11.997 10.619 17.342 8.318 10.507 24.482 25.036 36.596 30.768 29.067 13.756 86.713 2.904 96.573 4.143 19.105 2.402 21.826-4.054 41.033-5.408 3.418-.24 7.387-.298 9.612 2.307 1.185 1.388 1.595 3.259 1.948 5.049 1.249 6.335-.583 18.491.233 24.896.623 4.873 1.08 10.03-.927 14.514-2.271 5.076-17.96 18.851-23.337 20.266-17.302 4.55-38.764 6.447-56.639 5.716-21.408-.877-75.549-4.345-94.388-14.55-22.323-12.092-49.573-38.994-62.432-60.884A175.65 175.65 0 0 1 .615 43.75c1.185-2.06 2.107-4.317 2.814-6.543 1.91-6.004 2.966-12.49 6.714-17.554" mask="url(#i)"/>
            </g>
            <path fill="#E58F84" d="M1177.313 299.773c4.54-4.063 11.297-5.045 17.049-3.036 18.63 6.505 34.41 18.085 48.609 31.789l-.184 1.025a31.291 31.291 0 0 1-2.268 1.486c-6.738 3.958-14.71 5.045-22.316 6.829-7.607 1.785-15.514 4.673-20.163 10.952-3.749 5.064-4.805 11.55-6.715 17.555-.707 2.225-1.63 4.483-2.814 6.543-8.76-23.249-12.665-48.337-11.198-73.143"/>
            <path fill="#00A2D9" d="M1158.622 259.806c.195-.7.417-1.433.946-1.932.61-.573 1.496-.717 2.326-.83 1.924-.263 3.85-.504 5.778-.733l-.42 1.996c-.596 2.84-1.196 5.738-.871 8.622.325 2.884 1.74 5.803 4.285 7.196 3.972 2.174 8.832.001 12.815-2.152 4.952 5.34 14.5 5.36 19.474.04 5.186 4.116 13.223 4.11 18.4-.016.443-.353.946-.754 1.504-.664.398.065.708.367 1.004.64 4.14 3.8 11.257 3.706 15.292-.203 2.437-2.358 3.657-5.663 4.958-8.796a105.213 105.213 0 0 1 4.779-9.978l.585.004c6.467.064 12.933.159 19.394.255.035.225.064.452.1.677-5.726 24.138-6.69 49.402-2.749 73.897.318 1.976.671 3.961 1.381 5.833.332.875.744 1.739 1.14 2.605a3616.219 3616.219 0 0 1-36.796-3.853 299.161 299.161 0 0 0-5.381-14.353c-1.063-2.617-2.185-5.258-3.961-7.454-.417-.515-.944-1.038-1.606-1.058-1.158-.032-1.723 1.38-1.93 2.52a65.786 65.786 0 0 0-.664 18.852 3623.002 3623.002 0 0 1-57.16-6.908c-1.022-.132-2.098-.286-2.91-.923-1.033-.81-1.387-2.195-1.656-3.48-4.142-19.707-3.47-40.408 1.943-59.804"/>
            <path fill="#005A85" d="M1239.155 271.77c-4.035 3.908-11.153 4.003-15.292.204-.296-.273-.606-.576-1.004-.64-.558-.092-1.06.31-1.503.663-5.178 4.125-13.215 4.132-18.4.016-4.975 5.32-14.523 5.299-19.475-.04-3.983 2.153-8.843 4.326-12.815 2.152-2.546-1.393-3.96-4.312-4.285-7.195-.325-2.885.275-5.784.872-8.624l.419-1.994c1.612-.191 3.225-.376 4.838-.55 25.324-2.728 50.863-3.01 76.382-2.765a105.025 105.025 0 0 0-4.779 9.977c-1.3 3.132-2.521 6.437-4.958 8.797M1219.068 312.07c.208-1.14.773-2.553 1.931-2.52.662.018 1.189.543 1.605 1.058 1.777 2.195 2.9 4.836 3.962 7.453a298.646 298.646 0 0 1 5.38 14.353c-4.514-.492-9.029-.982-13.54-1.492a65.791 65.791 0 0 1 .662-18.853M1266.222 327.829c-3.94-24.495-2.977-49.76 2.748-73.897 4.095 26.599 3.771 55.752-.207 82.337l-.02-.002c-.396-.866-.808-1.73-1.14-2.605-.71-1.871-1.063-3.857-1.38-5.833"/>
            <path fill="#FEB6AB" d="M1182.483 264.624c-.88 1.444-1.813 2.942-3.253 3.83-1.272.782-2.806 1.001-4.297 1.097-2.527.163-5.252-.042-7.254-1.592-1.984-1.535-2.891-4.189-2.74-6.693.151-2.504 1.24-4.871 2.635-6.956 3.27-4.887 8.685-8.624 14.565-8.668 1.983-.015 4.041.419 5.597 1.648 5.644 4.458-2.73 13.194-5.253 17.334"/>
            <path fill="#FEB6AB" d="M1202.1 264.624c-.881 1.444-1.813 2.942-3.254 3.83-1.271.782-2.806 1.001-4.297 1.097-2.526.163-5.251-.042-7.253-1.592-1.985-1.535-2.891-4.189-2.74-6.693.15-2.504 1.24-4.871 2.634-6.956 3.27-4.887 8.685-8.624 14.566-8.668 1.982-.015 4.04.419 5.596 1.648 5.645 4.458-2.729 13.194-5.252 17.334"/>
            <path fill="#FEB6AB" d="M1221.716 264.624c-.88 1.444-1.813 2.942-3.253 3.83-1.272.782-2.807 1.001-4.298 1.097-2.526.163-5.25-.042-7.253-1.592-1.984-1.535-2.89-4.189-2.74-6.693.151-2.504 1.239-4.871 2.634-6.956 3.271-4.887 8.686-8.624 14.566-8.668 1.982-.015 4.04.419 5.596 1.648 5.645 4.458-2.73 13.194-5.252 17.334"/>
            <path fill="#FEB6AB" d="M1241.332 264.624c-.88 1.444-1.813 2.942-3.253 3.83-1.272.782-2.806 1.001-4.297 1.097-2.527.163-5.25-.042-7.254-1.592-1.983-1.535-2.89-4.189-2.74-6.693.152-2.504 1.24-4.871 2.635-6.956 3.27-4.887 8.685-8.624 14.565-8.668 1.983-.015 4.042.419 5.597 1.648 5.644 4.458-2.73 13.194-5.253 17.334M1240.692 308.645c-3.994-4.173-9.86-7.613-15.344-5.802-5.386 1.778-8.157 8.584-6.258 13.929.592 1.662 1.54 3.182 2.094 4.857.489 1.476.658 3.04 1.09 4.533 1.221 4.228 4.536 7.672 8.487 9.61 3.95 1.939 8.48 2.475 12.868 2.142 16.082-1.218 2.792-23.283-2.937-29.269M1305.136 260.136c-1.225-2.743-3.177-5.486-6.093-6.205-2.915-.717-6.017.874-7.9 3.211-1.885 2.338-2.784 5.3-3.543 8.206-1.612 6.162-2.787 12.64-1.486 18.875 1.3 6.235 5.57 12.2 11.72 13.863 1.57.425 3.297.549 4.78-.117 3.353-1.502 3.881-5.968 3.837-9.64-.108-9.005 2.424-19.813-1.315-28.193"/>
            <path fill="#231F20" d="M1346.912 273.472c-.981-3.137-3.83-5.893-7.299-4.15-2.707 1.36-3.967 4.795-4.543 7.594-.77 3.745-.514 8.087 3.185 10.199 3.752 2.143 7.7-.04 9.27-3.69 1.322-3.072 1.282-7.08-.613-9.953"/>
            <path fill="#E58F84" d="M1296.214 272.212c-.228-.715-.49-1.44-.98-2.01-.486-.57-1.25-.96-1.985-.814-1.44.287-1.778 2.166-1.8 3.633-.015 1.181-.032 2.362-.048 3.542-.029 2.082-.05 4.212.626 6.18.85 2.475 4.818 6.417 6.009 2.576 1.033-3.33-.808-9.916-1.822-13.107"/>
            <path fill="#A64417" d="M1420.007 207.44c-4.318-4.98-7.623-11.347-13.65-14.015-9.3-4.117-19.594 2.565-27.44 9.037-7.844 6.471-17.665 13.54-27.26 10.17-3.733-1.31-6.777-4.077-10.376-5.72-9.238-4.216-21.525.77-25.213 10.231-1.833 4.704-1.692 9.91-2.459 14.9-.766 4.992-2.866 10.31-7.395 12.542-3.58 1.764-7.798 1.04-11.276-1.05.806 5.32 2.07 10.553 3.98 15.595 1.918 5.063 6.115 17.718 11.622 11.927 4.34-4.562 4.569-13.207 6.501-18.91 3.713-10.962 13.128-19.813 24.298-22.844 7.49-2.033 15.44-1.562 23.053-3.079a45.078 45.078 0 0 0 21.927-11.291c6.433 20.284 17.695 39.01 32.542 54.252 3.312 3.4 9.033 2.404 11.07-1.882 5.68-11.952 8.086-25.463 6.76-38.634-.365-3.626-.993-7.22-1.454-10.834-5.833-2.161-11.151-5.695-15.23-10.396"/>
            <g transform="translate(1293.437 164.307)">
                <mask id="k" fill="#fff">
                    <use xlink:href="#j"/>
                </mask>
                <path fill="#F26522" d="M117.867 11.075C102.662 7.395 87.441 1.38 71.841.562 61.225.007 50.648 1.88 40.181 3.744 31.013 5.378 21.4 7.213 14.225 13.15 3.57 21.972 1.246 37.21.555 51.028.088 60.341.09 69.92 1.5 79.227c3.478 2.09 7.695 2.815 11.276 1.05 4.53-2.232 6.628-7.55 7.395-12.54.766-4.991.626-10.197 2.459-14.901 3.688-9.461 15.976-14.447 25.213-10.232 3.599 1.644 6.643 4.41 10.376 5.721 9.595 3.37 19.415-3.698 27.26-10.17 7.845-6.472 18.14-13.154 27.44-9.038 6.027 2.668 9.331 9.036 13.65 14.015 4.078 4.7 9.398 8.235 15.23 10.395a86.044 86.044 0 0 1-.323-2.773 67.517 67.517 0 0 1-.258-8.647c.495-14.634-9.12-27.588-23.352-31.032z" mask="url(#k)"/>
            </g>
        </g>
        <path fill="#32B59E" d="M1104.161 34.974c2.682.608 5.423.908 8.172.893 2.75.015 5.49-.285 8.171-.893a22.212 22.212 0 0 0 3.28-.979 19.805 19.805 0 0 0 3.385-1.577 33.904 33.904 0 0 0-29.671 0 19.78 19.78 0 0 0 3.385 1.577 22.21 22.21 0 0 0 3.278.979zm19.108 76.426h-9.219v-10.375a35.46 35.46 0 0 0 16.549-5.008l-7.33 15.383zm-21.871 0l-7.308-15.335a35.644 35.644 0 0 0 16.527 4.961V111.4h-9.219zm45.269-48.067a34.306 34.306 0 0 0-16.1-29.04 21.606 21.606 0 0 1-5.806 3.033 106.821 106.821 0 0 1 3.022 26.007c0 11.924-1.785 24.256-5.192 32.627a32.12 32.12 0 0 1-4.292 1.152c3.404-6.674 6.051-18.748 6.051-33.779.098-8.437-.87-16.853-2.884-25.046a40.246 40.246 0 0 1-9.133 1.013 40.24 40.24 0 0 1-9.132-1.013 100.084 100.084 0 0 0-2.884 25.046c0 15.047 2.655 27.11 6.064 33.775a32.39 32.39 0 0 1-4.302-1.124c-3.41-8.373-5.196-20.718-5.196-32.651-.062-8.76.952-17.495 3.021-26.007a21.606 21.606 0 0 1-5.804-3.034 34.214 34.214 0 0 0-10.418 47.908l13.922 29.2h-.721a1.7 1.7 0 0 0-.72.154 1.738 1.738 0 0 0-.996 1.563v3.433c0 .948.768 1.717 1.716 1.717h1.717v12.016c0 .948.769 1.717 1.717 1.717h24.033c.948 0 1.717-.769 1.717-1.717v-12.016h1.716c.948 0 1.717-.769 1.717-1.717v-3.433a1.738 1.738 0 0 0-.996-1.563 1.705 1.705 0 0 0-.72-.154h-.721l13.922-29.2a34.207 34.207 0 0 0 5.682-18.867z" mask="url(#c)"/>
        <path fill="#05B387" d="M393.191 60.625l-.118-.026a1.924 1.924 0 0 0-.42-.047c-.899 0-1.69.637-1.886 1.515l-.813 3.656a1.935 1.935 0 0 0 1.468 2.306l.12.028a1.943 1.943 0 0 0 2.305-1.469l.813-3.656a1.938 1.938 0 0 0-1.469-2.307zm-3.766-.3l-2.962-.641-.64 2.961 2.961.64.641-2.96zm-3.75-.938l-2.962-.641-.64 2.961 2.961.641.641-2.961zm-26.097-5.392l-3.665-.793-.793 3.666 3.666.793.792-3.666zm-4.669-1.026l-3.665-.794-.793 3.665 3.666.793.792-3.664zm-4.668-1.028l-3.665-.793-.793 3.666 3.665.793.793-3.666zm-4.668-1.026l-3.665-.793-.793 3.665 3.664.794.794-3.666zm-4.669-1.027l-3.665-.793-.793 3.666 3.665.793.793-3.666zm-6.747-2.704l-.154-.033a2.437 2.437 0 0 0-.543-.061 2.515 2.515 0 0 0-2.439 1.957l-1.05 4.73a2.503 2.503 0 0 0 1.897 2.983l.154.032c.18.041.362.061.544.061 1.16 0 2.186-.824 2.437-1.957l1.051-4.73a2.501 2.501 0 0 0-1.897-2.982zm-4.577.249l-3.666-.793-.793 3.666 3.666.792.793-3.665zm-4.669-1.027l-3.666-.793-.793 3.665 3.666.793.793-3.665zm-4.668-1.027l-3.666-.793-.793 3.666 3.666.793.793-3.666zm-4.669-1.026l-3.665-.793-.793 3.665 3.665.794.793-3.666zm-4.669-1.027l-3.665-.793-.793 3.666 3.666.792.792-3.665zm-7.685-3.642l-.153-.033a2.5 2.5 0 0 0-.544-.061 2.513 2.513 0 0 0-2.437 1.958l-1.052 4.729a2.504 2.504 0 0 0 1.898 2.983l.154.033c.178.04.362.06.543.06a2.515 2.515 0 0 0 2.44-1.957l1.05-4.729a2.504 2.504 0 0 0-1.899-2.983zm-6.734-.397l-4.1-.916-.946 3.668 4.221.94a1.883 1.883 0 0 0 2.242-1.438 1.883 1.883 0 0 0-1.417-2.254zm127.748 29.339l3.403 2.798-44.594.291-.017.068-86.575-20.885.005-.02c-11.474-2.689-19.929-6.5-19.436-8.924.2-.985 1.85-1.602 4.511-1.854.075-.078.155-.149.233-.222l8.761 1.955.944-3.667-4.13-.922c5.145-1.048 10.871.138 10.871.138l15.995 3.399 38.904 8.671c8.145 1.641 13.008-.41 13.008-.41l30-8.964c4.92-.879 5.681-2.578 5.681-2.578l3.857-5.943 1.14-1.996.01.006c.11-.319.802-.566 1.651-.567.926 0 1.677.291 1.677.65a.28.28 0 0 1-.04.141l-2.084 6.654c-1.289 4.394-5.097 5.39-5.097 5.39l-12.949 6.973c2.461 1.406-.293 2.988-.293 2.988l-7.148 4.453 17.108 4.16c4.043 1.172 7.266-1.7 7.266-1.7l17.05-14.003 6.973 1.641-10.289 19.384.093.01.814.668 13.952-3.071 5.625 1.407-16.88 3.881zM303.118 40.142l-.152-.033a2.013 2.013 0 0 0-.443-.05c-.943 0-1.776.669-1.98 1.591l-1.05 4.728a2.035 2.035 0 0 0 1.542 2.424l.151.033c1.075.24 2.187-.475 2.424-1.542l1.051-4.727a2.035 2.035 0 0 0-1.543-2.424zm89.995 20.837l-.117-.026a1.58 1.58 0 0 0-1.875 1.193l-.813 3.656a1.574 1.574 0 0 0 1.194 1.874l.117.026c.831.185 1.691-.368 1.875-1.192l.811-3.657a1.571 1.571 0 0 0-1.192-1.874zm-57.516-10.914l-1.052 4.728c-.236 1.067-1.347 1.782-2.422 1.542l-.153-.033a2.035 2.035 0 0 1-1.542-2.425l1.051-4.727a2.04 2.04 0 0 1 1.981-1.591c.148 0 .295.016.442.049l.152.033a2.036 2.036 0 0 1 1.543 2.424z" mask="url(#c)" transform="matrix(-1 0 0 1 718.114 0)"/>
    </g>
</svg>
