<svg xmlns="http://www.w3.org/2000/svg" width="28" height="28" viewBox="0 0 28 28">
    <g fill="none" fill-rule="evenodd">
        <rect width="28" height="28" fill="#F39C12" rx="14"/>
        <path fill="#FFF" d="M16.667 17.333c-.736 0-1.334-.747-1.334-1.666 0-.92.598-1.667 1.334-1.667.735 0 1.333.748 1.333 1.667s-.598 1.666-1.333 1.666zm-3.667 0a.333.333 0 0 1-.277-.518l4-6a.333.333 0 1 1 .554.37l-4 6a.333.333 0 0 1-.277.148zm-1-5c0-.919.598-1.666 1.333-1.666.736 0 1.334.747 1.334 1.666 0 .92-.598 1.667-1.334 1.667-.735 0-1.333-.748-1.333-1.667zm-1.333-2a.333.333 0 1 1-.667 0v-.75a.333.333 0 1 1 .667 0v.75zm0 2.667A.333.333 0 1 1 10 13v-.667a.333.333 0 1 1 .667 0V13zm0 2.667a.333.333 0 1 1-.667 0V15a.333.333 0 1 1 .667 0v.667zm0 2.666a.333.333 0 1 1-.667 0v-.666a.333.333 0 1 1 .667 0v.666zm11-6c.184 0 .333-.149.333-.333V9.333C22 8.598 21.402 8 20.667 8H7.333C6.598 8 6 8.598 6 9.333V12c0 .184.15.333.333.333.92 0 1.667.748 1.667 1.667s-.748 1.667-1.667 1.667A.333.333 0 0 0 6 16v2.667C6 19.402 6.598 20 7.333 20h13.334c.735 0 1.333-.598 1.333-1.333V16a.333.333 0 0 0-.333-.333A1.669 1.669 0 0 1 20 14c0-.919.748-1.667 1.667-1.667zm-7.667 0c0-.542-.305-1-.667-1-.361 0-.666.458-.666 1s.305 1 .666 1c.362 0 .667-.458.667-1zm2.667 2.334c-.362 0-.667.458-.667 1s.305 1 .667 1c.361 0 .666-.458.666-1s-.305-1-.666-1z"/>
    </g>
</svg>
