<svg xmlns="http://www.w3.org/2000/svg" xmlns:xlink="http://www.w3.org/1999/xlink" width="172" height="172" viewBox="0 0 172 172">
    <defs>
        <circle id="a" cx="86" cy="86" r="86"/>
        <path id="c" d="M0 99.805h99.805V0H0z"/>
    </defs>
    <g fill="none" fill-rule="evenodd">
        <mask id="b" fill="#fff">
            <use xlink:href="#a"/>
        </mask>
        <use fill="#00BF8F" fill-opacity=".15" xlink:href="#a"/>
        <g mask="url(#b)">
            <g transform="translate(36 36)">
                <path fill="#CAE9FC" d="M97.856 21.833v9.746H86.16v-9.746a5.846 5.846 0 0 1 5.848-5.848 5.848 5.848 0 0 1 5.848 5.848"/>
                <path fill="#FAFAFF" d="M90.058 15.985l.102.3a5.846 5.846 0 0 0-4 5.548V89.64c0 4.23-3.143 8.215-7.797 8.215a7.798 7.798 0 0 1-7.798-7.797V86.16H29.24V23.782a7.798 7.798 0 0 1 7.797-7.797h53.021z"/>
                <path fill="#CAE9FC" d="M78.363 97.856H33.138c-6.46 0-11.696-5.236-11.696-11.696h49.123v3.899a7.798 7.798 0 0 0 7.798 7.797"/>
                <path fill="#E87288" d="M64.401 27.68c3.996 0 6.75 3.353 6.75 7.326 0 5.494-5.492 9.131-13.496 16.066C49.651 44.137 44.16 40.5 44.16 35.006c0-3.973 2.752-7.325 6.746-7.325 5.13 0 6.749 5.847 6.749 5.847s1.62-5.847 6.746-5.847"/>
                <mask id="d" fill="#fff">
                    <use xlink:href="#c"/>
                </mask>
                <path fill="#E87288" d="M1.95 78.363h11.695v-56.92H1.95z" mask="url(#d)"/>
                <path fill="#FED2A4" d="M13.645 15.595v5.848H1.95v-5.848c0-3.272 2.668-5.848 5.848-5.848a5.85 5.85 0 0 1 5.848 5.848M1.95 78.363h11.695c0 5.06-1.64 9.986-4.678 14.035l-1.17 1.56-1.17-1.56A23.393 23.393 0 0 1 1.95 78.363" mask="url(#d)"/>
                <path fill="#E87288" d="M7.445 2.033C5.42 2.211 3.9 3.971 3.9 6.004v5.3l.002.002h7.793l.002-.001V5.917a3.898 3.898 0 0 0-4.25-3.884" mask="url(#d)"/>
                <path fill="#000" d="M40.984 60.819a1.95 1.95 0 1 0 .002 3.9 1.95 1.95 0 0 0-.002-3.9M40.984 72.515a1.95 1.95 0 1 0 .002 3.9 1.95 1.95 0 0 0-.002-3.9M74.513 60.819H48.782a1.95 1.95 0 1 0 0 3.899h25.73a1.95 1.95 0 1 0 0-3.9M74.513 72.515H48.782a1.95 1.95 0 1 0 0 3.898h25.73a1.95 1.95 0 1 0 0-3.898M11.654 80.312a21.611 21.611 0 0 1-3.808 10.38 21.617 21.617 0 0 1-3.808-10.38h7.616zm-1.907-74.4v2.135a7.764 7.764 0 0 0-3.899 0V5.848A1.953 1.953 0 0 1 8.091 3.92c.966.143 1.656 1.015 1.656 1.991zM3.899 19.492v-3.898a3.906 3.906 0 0 1 3.898-3.899 3.903 3.903 0 0 1 3.899 3.899v3.898H3.899zm0 56.92h7.797V23.392H3.899v53.021zm1.949 18.194v3.188c0 .977.693 1.85 1.66 1.99a1.951 1.951 0 0 0 2.239-1.929v-3.25l.78-1.039a25.498 25.498 0 0 0 5.068-15.204V23.392h3.22c.375 0 .678.303.678.678v19.86c0 .19.077.375.213.506 1.681 1.634 3.686.47 3.686-1.16v-21.75c0-1.123-.91-2.033-2.033-2.033h-5.764v-3.898c0-1.917-.69-3.728-1.95-5.154V5.966c0-3.076-2.329-5.718-5.397-5.949a5.854 5.854 0 0 0-6.299 5.831v4.596A7.79 7.79 0 0 0 0 15.594v62.769C0 83.81 1.8 89.21 5.068 93.567l.78 1.04z" mask="url(#d)"/>
                <path fill="#000" d="M95.906 29.63H88.11v-7.797a3.9 3.9 0 0 1 4.538-3.847c1.9.305 3.26 2.007 3.26 3.931v7.713zm-11.695-7.78v67.791c0 3.35-2.52 6.493-6.249 6.253-3.086-.2-5.447-2.846-5.447-5.939V86.16a1.95 1.95 0 0 0-1.95-1.95H31.19V23.783a5.848 5.848 0 0 1 5.848-5.848h48.216a7.856 7.856 0 0 0-1.042 3.917zM33.138 95.908c-4.706 0-8.645-3.355-9.55-7.798h45.028v1.95a9.7 9.7 0 0 0 1.954 5.848H33.138zm66.667-64.328v-9.746a7.798 7.798 0 0 0-7.797-7.798H37.037c-5.383 0-9.747 4.364-9.747 9.747V84.21h-5.848c-1.078 0-1.949.876-1.949 1.954.003 7.522 6.123 13.64 13.645 13.64h45.225c5.705 0 9.746-4.859 9.746-10.164V33.528h9.747a1.95 1.95 0 0 0 1.95-1.949z" mask="url(#d)"/>
                <path fill="#000" d="M50.955 29.634c3.559 0 4.82 4.248 4.872 4.428.236.836.999 1.411 1.868 1.416h.01c.869 0 1.635-.58 1.875-1.416.052-.18 1.313-4.428 4.87-4.428 2.736 0 4.8 2.312 4.8 5.377 0 3.743-3.502 6.7-9.305 11.595-.727.614-1.47 1.242-2.241 1.9-.772-.658-1.516-1.286-2.243-1.9-5.801-4.897-9.303-7.852-9.303-11.595 0-3.065 2.063-5.377 4.797-5.377m1.992 19.947c1.11.938 2.26 1.908 3.48 2.965.367.317.821.476 1.277.476.455 0 .91-.159 1.277-.476 1.219-1.057 2.368-2.026 3.48-2.965 6.204-5.236 10.687-9.02 10.687-14.574 0-5.202-3.82-9.276-8.697-9.276-3.28 0-5.419 1.758-6.747 3.547-1.328-1.789-3.469-3.547-6.75-3.547-4.876 0-8.695 4.074-8.695 9.276 0 5.554 4.484 9.337 10.688 14.574" mask="url(#d)"/>
            </g>
        </g>
    </g>
</svg>
