<svg xmlns="http://www.w3.org/2000/svg" width="28" height="28" viewBox="0 0 28 28">
    <g fill="none" fill-rule="evenodd">
        <rect width="28" height="28" fill="#1ABC9C" rx="14"/>
        <path fill="#FFF" d="M21.55 20.873H6.45a.45.45 0 0 0 0 .902h15.1a.45.45 0 1 0 0-.902zM8.455 14.541l-.63 2.862 2.861-.631-2.23-2.231zm6.783-7.324l2.772 2.772-6.422 6.422-2.772-2.772 6.422-6.422zm3.967.766a1.96 1.96 0 0 0-.564-1.397A2.028 2.028 0 0 0 17.245 6c-.515-.002-1.01.2-1.375.563l2.772 2.795c.372-.36.576-.858.564-1.375z"/>
    </g>
</svg>
