<svg xmlns="http://www.w3.org/2000/svg" width="28" height="28" viewBox="0 0 28 28">
    <g fill="none" fill-rule="evenodd">
        <rect width="28" height="28" fill="#F39C12" rx="14"/>
        <path fill="#FFF" d="M15.043 13.276v8.696h4.87c.576 0 1.044-.467 1.044-1.043v-7.653h-5.914zm-8 0v7.653c0 .576.468 1.043 1.044 1.043h4.87v-8.696H7.042zM19.04 8.16c-.038.543-.528.943-1.072.943h-2.403V8.93 8.91l1.737-1.575c.267-.242.641-.355.987-.252.496.148.788.57.751 1.076zm-6.605.77v.173H9.98a1.03 1.03 0 0 1-.997-1.28c.072-.297.286-.55.564-.678.381-.177.803-.12 1.124.17l1.764 1.6v.015zm8.522.173h-1.165c.153-.243.255-.516.284-.804a2.053 2.053 0 0 0-1.22-2.116 2.045 2.045 0 0 0-2.23.359l-1.471 1.332a1.561 1.561 0 0 0-2.312.002L11.371 6.54a2.046 2.046 0 0 0-2.23-.358 2.053 2.053 0 0 0-1.22 2.116c.029.289.13.561.284.804H7.043C6.467 9.102 6 9.57 6 10.146v1.565c0 .288.234.522.522.522h14.956A.522.522 0 0 0 22 11.71v-1.565c0-.576-.467-1.044-1.043-1.044z"/>
    </g>
</svg>
