<svg xmlns="http://www.w3.org/2000/svg" width="24" height="24" viewBox="0 0 24 24">
    <g fill="none" fill-rule="evenodd">
        <path d="M0 0h24v24H0z"/>
        <path fill="#424242" d="M12.91 14.91h5.454v-3.637h-5.455v3.636zm0-5.455h5.454V7.636h-5.455v1.819zm-7.274 5.454h5.455v-1.818H5.636v1.818zm0-3.636h5.455V7.636H5.636v3.637zM20.182 4C21.185 4 22 4.814 22 5.818v10.91a1.819 1.819 0 0 1-1.818 1.817h-4.546v1.819H8.364v-1.819H3.818A1.819 1.819 0 0 1 2 16.727V5.818C2 4.814 2.815 4 3.818 4h16.364zM3.818 16.727h16.364V5.818H3.818v10.91z"/>
    </g>
</svg>
