<svg xmlns="http://www.w3.org/2000/svg" xmlns:xlink="http://www.w3.org/1999/xlink" width="290" height="213" viewBox="0 0 290 213">
    <defs>
        <path id="a" d="M0 213h208.843V0H0z"/>
    </defs>
    <g fill="none" fill-rule="evenodd">
        <rect width="180" height="180" x="54" y="17" fill="#00FFBF" fill-opacity=".3" rx="90"/>
        <g transform="translate(40)">
            <path fill="#E7463B" d="M33.31 33.033h-1.068C14.827 33.033.71 47.15.71 64.565v56.302a3.123 3.123 0 0 0 3.122 3.123H61.72a3.123 3.123 0 0 0 3.123-3.123V64.565c0-17.415-14.118-31.532-31.532-31.532"/>
            <path fill="#1C2632" d="M32.242 33.743C15.247 33.743 1.42 47.57 1.42 64.565v56.302a2.415 2.415 0 0 0 2.413 2.413H61.72a2.416 2.416 0 0 0 2.413-2.413V64.565c0-16.995-13.827-30.822-30.823-30.822h-1.068zM61.72 124.7H3.833A3.837 3.837 0 0 1 0 120.867V64.565c0-17.779 14.464-32.242 32.242-32.242h1.068c17.779 0 32.243 14.463 32.243 32.242v56.302a3.837 3.837 0 0 1-3.833 3.833z"/>
            <path fill="#F8675D" d="M134.484 123.99H5.932V64.781c0-15.44 12.517-27.958 27.958-27.958h100.594v87.167z"/>
            <path fill="#1C2632" d="M6.642 123.28h127.132V37.533H33.89c-15.024 0-27.248 12.224-27.248 27.248v58.499zm127.842 1.42H5.932a.71.71 0 0 1-.71-.71V64.781c0-15.807 12.86-28.668 28.668-28.668h100.594a.71.71 0 0 1 .71.71v87.167a.71.71 0 0 1-.71.71z"/>
            <mask id="b" fill="#fff">
                <use xlink:href="#a"/>
            </mask>
            <path fill="#F9978F" d="M5.932 108.897h128.552V64.821H5.932z" mask="url(#b)"/>
            <path fill="#1C2632" d="M6.642 123.28h127.132V37.533H34.851c-15.554 0-28.209 12.655-28.209 28.21v57.537zm127.842 1.42H5.932a.71.71 0 0 1-.71-.71V65.742c0-16.337 13.292-29.629 29.63-29.629h99.632a.71.71 0 0 1 .71.71v87.167a.71.71 0 0 1-.71.71z" mask="url(#b)"/>
            <path fill="#E7463B" d="M135.018 33.033h-1.068c-17.415 0-31.532 14.117-31.532 31.532v59.425h61.01a3.123 3.123 0 0 0 3.123-3.123V64.565c0-17.415-14.118-31.532-31.533-31.532" mask="url(#b)"/>
            <path fill="#1C2632" d="M103.128 123.28h60.3a2.415 2.415 0 0 0 2.413-2.413V64.565c0-16.995-13.827-30.822-30.822-30.822h-1.069c-16.995 0-30.822 13.827-30.822 30.822v58.715zm60.3 1.42h-61.01a.71.71 0 0 1-.71-.71V64.565c0-17.779 14.464-32.242 32.242-32.242h1.069c17.778 0 32.242 14.463 32.242 32.242v56.302a3.837 3.837 0 0 1-3.833 3.833z" mask="url(#b)"/>
            <path fill="#BC2F2B" d="M134.484 36.823c-15.123 0-27.382 12.26-27.382 27.383v56.662a3.123 3.123 0 0 0 3.122 3.122h48.52a3.123 3.123 0 0 0 3.123-3.122V64.206c0-15.123-12.26-27.383-27.383-27.383" mask="url(#b)"/>
            <path fill="#1C2632" d="M134.484 37.533c-14.707 0-26.672 11.966-26.672 26.673v56.662a2.415 2.415 0 0 0 2.412 2.412h48.52a2.415 2.415 0 0 0 2.413-2.412V64.206c0-14.707-11.966-26.673-26.673-26.673m24.26 87.167h-48.52a3.837 3.837 0 0 1-3.832-3.832V64.206c0-15.49 12.602-28.093 28.092-28.093 15.49 0 28.093 12.603 28.093 28.093v56.662a3.837 3.837 0 0 1-3.833 3.832" mask="url(#b)"/>
            <path fill="#EDB22D" d="M72.067 85.924c0 5.754 4.664 10.418 10.418 10.418 5.753 0 10.418-4.664 10.418-10.418s-4.665-10.418-10.418-10.418c-5.754 0-10.418 4.664-10.418 10.418" mask="url(#b)"/>
            <path fill="#1C2632" d="M82.485 76.216c-5.353 0-9.709 4.355-9.709 9.708s4.356 9.708 9.709 9.708 9.707-4.355 9.707-9.708-4.354-9.708-9.707-9.708m0 20.836c-6.137 0-11.129-4.992-11.129-11.128s4.992-11.128 11.129-11.128c6.135 0 11.127 4.992 11.127 11.128S88.62 97.052 82.485 97.052" mask="url(#b)"/>
            <path fill="#FFD67B" d="M77.732 92.593a.8.8 0 0 0 .505-1.424 6.752 6.752 0 0 1-.904-9.606.801.801 0 1 0-1.223-1.036 8.357 8.357 0 0 0-1.977 5.397 8.323 8.323 0 0 0 3.094 6.49c.149.12.327.18.505.18" mask="url(#b)"/>
            <path fill="#F7C24C" d="M82.485.71a2.671 2.671 0 0 0-2.672 2.671v81.742a2.671 2.671 0 1 0 5.343 0V3.38A2.671 2.671 0 0 0 82.485.71" mask="url(#b)"/>
            <path fill="#1C2632" d="M82.485 1.42c-1.082 0-1.962.88-1.962 1.961v81.742c0 1.081.88 1.961 1.962 1.961 1.081 0 1.96-.88 1.96-1.961V3.38c0-1.081-.879-1.961-1.96-1.961m0 87.084a3.385 3.385 0 0 1-3.382-3.381V3.38A3.385 3.385 0 0 1 82.485 0a3.385 3.385 0 0 1 3.38 3.381v81.742a3.385 3.385 0 0 1-3.38 3.381" mask="url(#b)"/>
            <path fill="#FFD67B" d="M58.003.71h27.153v14.024H58.003l5.832-7.012z" mask="url(#b)"/>
            <path fill="#1C2632" d="M59.517 14.024h24.929V1.42h-24.93l4.864 5.848a.71.71 0 0 1 0 .908l-4.863 5.848zm25.639 1.42H58.003a.71.71 0 0 1-.546-1.164l5.454-6.558-5.454-6.558A.71.71 0 0 1 58.003 0h27.153a.71.71 0 0 1 .71.71v14.024a.71.71 0 0 1-.71.71z" mask="url(#b)"/>
            <path fill="#EDB22D" d="M72.312 14.734h-7.213L72.312.71h7.212z" mask="url(#b)"/>
            <path fill="#1C2632" d="M59.517 14.024h24.929V1.42h-24.93l4.864 5.848a.71.71 0 0 1 0 .908l-4.863 5.848zm25.639 1.42H58.003a.71.71 0 0 1-.546-1.164l5.454-6.558-5.454-6.558A.71.71 0 0 1 58.003 0h27.153a.71.71 0 0 1 .71.71v14.024a.71.71 0 0 1-.71.71z" mask="url(#b)"/>
            <path fill="#FFD67B" d="M82.028 76.808h-.118a.457.457 0 0 1-.456-.456V26.176c0-.252.204-.456.456-.456h.118c.252 0 .457.204.457.456v50.176a.457.457 0 0 1-.457.456M79.141 92.97a.668.668 0 1 0 1.336 0 .668.668 0 0 0-1.336 0" mask="url(#b)"/>
            <g fill="#FFF" mask="url(#b)">
                <path d="M14.98 119.682a3.406 3.406 0 0 1-3.406-3.405V84.714a3.406 3.406 0 0 1 6.812 0v31.563a3.406 3.406 0 0 1-3.406 3.405M18.587 72.902a3.506 3.506 0 1 1-7.012 0 3.506 3.506 0 0 1 7.012 0"/>
            </g>
            <path fill="#E7463B" d="M107.102 123.99h90.957v-5.986h-90.957z" mask="url(#b)"/>
            <path fill="#1C2632" d="M107.812 123.28h89.537v-4.566h-89.537v4.566zm90.247 1.42h-90.957a.71.71 0 0 1-.71-.71v-5.986a.71.71 0 0 1 .71-.71h90.957a.71.71 0 0 1 .71.71v5.986a.71.71 0 0 1-.71.71z" mask="url(#b)"/>
            <path fill="#404C5B" d="M69.665 212.29h25.64v-88.3h-25.64z" mask="url(#b)"/>
            <path fill="#303944" d="M69.665 136.01h25.64v-12.02h-25.64z" mask="url(#b)"/>
            <path fill="#1C2632" d="M95.304 213a.71.71 0 0 1-.71-.71V124.7h-24.22v81.437a.71.71 0 0 1-1.42 0V123.99a.71.71 0 0 1 .71-.71h25.64a.71.71 0 0 1 .71.71v88.3a.71.71 0 0 1-.71.71" mask="url(#b)"/>
            <path fill="#303944" d="M76.576 206.137h-.463a1.797 1.797 0 0 1-1.796-1.797v-49.317c0-.992.804-1.797 1.796-1.797h.463c.992 0 1.797.805 1.797 1.797v49.317c0 .992-.805 1.797-1.797 1.797M78.324 148.633a2.004 2.004 0 1 0-4.008 0 2.004 2.004 0 0 0 4.008 0" mask="url(#b)"/>
            <path fill="#EDB22D" d="M184.52 65.3h-65.915v36.695h65.914z" mask="url(#b)"/>
            <path fill="#F7C24C" d="M118.605 101.995l32.957-25.692 32.957 25.692z" mask="url(#b)"/>
            <path fill="#FFD67B" d="M118.605 65.3l26.77 19.371a10.554 10.554 0 0 0 12.374 0L184.52 65.3h-65.914z" mask="url(#b)"/>
            <path fill="#1C2632" d="M120.797 66.01l24.994 18.086a9.826 9.826 0 0 0 11.542 0l24.994-18.087h-61.53zm30.765 21.38c-2.314 0-4.629-.714-6.604-2.144l-26.77-19.372a.71.71 0 0 1 .417-1.285h65.914a.71.71 0 0 1 .416 1.285l-26.77 19.372a11.247 11.247 0 0 1-6.603 2.144z" mask="url(#b)"/>
            <path fill="#1C2632" d="M119.315 66.01v35.275h64.494V66.009h-64.494zm-.71 36.695a.71.71 0 0 1-.71-.71V65.299a.71.71 0 0 1 .71-.71h65.914a.71.71 0 0 1 .71.71v36.696a.71.71 0 0 1-.71.71h-65.914z" mask="url(#b)"/>
            <path fill="#EDB22D" d="M160.949 72.296h-18.775a1.331 1.331 0 0 1-1.33-1.331v-.343c0-.735.595-1.331 1.33-1.331h18.775c.735 0 1.331.596 1.331 1.331v.343c0 .735-.596 1.33-1.331 1.33M157.25 78.507h-11.377a1.331 1.331 0 0 1-1.331-1.332v-.342c0-.735.596-1.331 1.331-1.331h11.378c.735 0 1.33.596 1.33 1.33v.343c0 .736-.595 1.332-1.33 1.332" mask="url(#b)"/>
            <path fill="#F7C24C" d="M133.708 58.605h60.515" mask="url(#b)"/>
            <path fill="#1C2632" d="M194.223 59.315h-60.515a.71.71 0 0 1 0-1.42h60.515a.71.71 0 0 1 0 1.42" mask="url(#b)"/>
            <path fill="#F7C24C" d="M142.938 48.81h19.342" mask="url(#b)"/>
            <path fill="#1C2632" d="M162.28 49.52h-19.342a.71.71 0 0 1 0-1.42h19.342a.71.71 0 0 1 0 1.42" mask="url(#b)"/>
            <path fill="#F7C24C" d="M171.574 48.81h36.559" mask="url(#b)"/>
            <path fill="#1C2632" d="M208.133 49.52h-36.558a.71.71 0 0 1 0-1.42h36.558a.71.71 0 0 1 0 1.42" mask="url(#b)"/>
            <path fill="#F7C24C" d="M142.938 108.213h19.342" mask="url(#b)"/>
            <path fill="#1C2632" d="M162.28 108.923h-19.342a.71.71 0 0 1 0-1.42h19.342a.71.71 0 0 1 0 1.42" mask="url(#b)"/>
            <path fill="#F7C24C" d="M171.574 108.213h36.559" mask="url(#b)"/>
            <path fill="#1C2632" d="M208.133 108.923h-36.558a.71.71 0 0 1 0-1.42h36.558a.71.71 0 0 1 0 1.42" mask="url(#b)"/>
        </g>
    </g>
</svg>
