<svg xmlns="http://www.w3.org/2000/svg" width="28" height="28" viewBox="0 0 28 28">
    <g fill="none" fill-rule="evenodd">
        <rect width="28" height="28" fill="#673AB7" rx="14"/>
        <path fill="#FFF" d="M18.422 15.279c0 .156-.119.283-.265.283h-5.223c-.145 0-.264-.127-.264-.283 0-.156.119-.282.264-.282h5.223c.146 0 .265.126.265.282zm0-1.533c0 .157-.119.284-.265.284h-5.223c-.145 0-.264-.127-.264-.284 0-.155.119-.281.264-.281h5.223c.146 0 .265.126.265.281zm0-1.532c0 .156-.119.283-.265.283h-5.223c-.145 0-.264-.127-.264-.283 0-.155.119-.282.264-.282h5.223c.146 0 .265.127.265.282zm1.143 4.204c0 .315-.258.57-.576.57h-4.7l-1.119 1.117v-1.117h-1.082a.573.573 0 0 1-.575-.57v-5.266c0-.314.258-.57.575-.57h6.9c.318 0 .577.256.577.57v5.266zM16.542 20h-7.79V7.714h7.79v2.411h-4.454c-.569 0-1.032.46-1.032 1.027v5.267a1.03 1.03 0 0 0 1.032 1.026h.625v1.764l1.764-1.764h2.065V20zm-3.895 1.46a.54.54 0 1 1 0-1.081.54.54 0 0 1 0 1.081zM11.506 6.78h2.282c.072 0 .131.059.131.13 0 .072-.059.131-.131.131h-2.282a.13.13 0 0 1 0-.261zm7.483 3.346h-1.695V7.081c0-.595-.486-1.081-1.08-1.081H9.08C8.486 6 8 6.486 8 7.08v13.84c0 .594.486 1.08 1.08 1.08h7.134c.594 0 1.08-.486 1.08-1.08v-3.476h1.695c.57 0 1.033-.46 1.033-1.026v-5.267c0-.565-.463-1.026-1.033-1.026z"/>
    </g>
</svg>
