<svg xmlns="http://www.w3.org/2000/svg" width="28" height="28" viewBox="0 0 28 28">
    <g fill="none" fill-rule="evenodd">
        <rect width="28" height="28" fill="#2196F3" rx="14"/>
        <path fill="#FFF" d="M22.186 19.846c0 .674-.549 1.222-1.222 1.222H7.036a1.223 1.223 0 0 1-1.222-1.222V6.814H20.15v12.421a1.02 1.02 0 0 0 1.018 1.018.407.407 0 0 0 0-.814.204.204 0 0 1-.203-.204V8.851h1.222v10.995zm0-11.81h-1.222V6.814A.815.815 0 0 0 20.149 6H5.814A.815.815 0 0 0 5 6.814v13.032c0 1.123.913 2.036 2.036 2.036h13.928A2.039 2.039 0 0 0 23 19.846V8.851a.815.815 0 0 0-.814-.815zM8.258 14.593h3.299v-3.299h-3.3v3.299zm3.706-4.113H7.85a.407.407 0 0 0-.408.407V15c0 .225.183.407.408.407h4.113A.407.407 0 0 0 12.37 15v-4.113a.407.407 0 0 0-.407-.407zm0 6.108H7.85a.407.407 0 1 0 0 .815h4.113a.407.407 0 0 0 0-.815zm6.15 0H14a.407.407 0 1 0 0 .815h4.113a.407.407 0 0 0 0-.815zm0-2.036H14a.407.407 0 1 0 0 .815h4.113a.407.407 0 0 0 0-.815zm0-2.036H14a.407.407 0 1 0 0 .814h4.113a.407.407 0 0 0 0-.814zm0-2.036H14a.407.407 0 1 0 0 .814h4.113a.407.407 0 0 0 0-.814zm0-2.037H7.85a.407.407 0 1 0 0 .815h10.262a.407.407 0 0 0 0-.815zm0 10.181H14a.407.407 0 1 0 0 .815h4.113a.407.407 0 0 0 0-.815zm-6.15 0H7.85a.407.407 0 1 0 0 .815h4.113a.407.407 0 0 0 0-.815z"/>
    </g>
</svg>
