<svg xmlns="http://www.w3.org/2000/svg" width="28" height="28" viewBox="0 0 28 28">
    <g fill="none" fill-rule="evenodd">
        <rect width="28" height="28" fill="#F44336" rx="14"/>
        <path fill="#FFF" d="M9.855 19.434h7.69V7.815h-7.69v11.619zm2.563-12.547c0-.09.05-.16.114-.16h2.336c.063 0 .114.071.114.16v.042c0 .09-.051.161-.114.161h-2.336c-.063 0-.114-.072-.114-.16v-.043zM16.691 22h-5.982S9 22 9 20.546V7.454C9 6 10.71 6 10.71 6h5.98s1.71 0 1.71 1.454v13.092C18.4 22 16.69 22 16.69 22zm-2.965-.548a.726.726 0 1 0 0-1.453.726.726 0 0 0 0 1.453z"/>
    </g>
</svg>
