<svg xmlns="http://www.w3.org/2000/svg" width="28" height="28" viewBox="0 0 28 28">
    <g fill="none" fill-rule="evenodd">
        <rect width="28" height="28" fill="#FFC107" rx="14"/>
        <path fill="#FFF" d="M12.768 16.38l.797-2.882a1.382 1.382 0 0 1 .554-2.646 1.383 1.383 0 0 1 .702 2.57l.769 2.959h-2.822zm7.02-7.794c-.594-.037-3.47-.242-5.867-2.577V6l-.005.005A.062.062 0 0 1 13.91 6v.009c-2.396 2.335-5.273 2.54-5.868 2.577-.26 3.72.745 8.558.745 8.558s2.077 3.376 5.12 4.849c0 .002 0 .006.002.007l.006-.004.006.004.002-.007c3.043-1.473 5.12-4.849 5.12-4.849s1.005-4.837.745-8.558z"/>
    </g>
</svg>
