<svg xmlns="http://www.w3.org/2000/svg" xmlns:xlink="http://www.w3.org/1999/xlink" width="360" height="246" viewBox="0 0 360 246">
    <defs>
        <linearGradient id="b" x1="100%" x2="0%" y1="50%" y2="50%">
            <stop offset="0%" stop-color="#FFC107"/>
            <stop offset="100%" stop-color="#FF8F66"/>
        </linearGradient>
        <path id="a" d="M0 245.455h360V0H0z"/>
        <path id="d" d="M.395.542h249.733v160.965H.395z"/>
    </defs>
    <g fill="none" fill-rule="evenodd">
        <mask id="c" fill="#fff">
            <use xlink:href="#a"/>
        </mask>
        <use fill="url(#b)" xlink:href="#a"/>
        <g mask="url(#c)">
            <path fill="#B893B4" d="M313.962 163.903h10.695v-43.968h-10.695z"/>
            <path fill="#A886A5" d="M313.962 163.903h4.753v-43.968h-4.753z"/>
            <path fill="#E3CEE1" d="M316.339 163.903h.743v-42.78h-.743zM321.092 163.903h.744v-42.78h-.744zM319.903 163.903h.744v-42.78h-.744zM318.715 163.903h.744v-42.78h-.744z"/>
            <path fill="#E7FCA9" d="M300.89 156.773h11.884V123.5H300.89z"/>
            <path fill="#CEE096" d="M300.89 156.773h5.942V123.5h-5.942z"/>
            <path fill="#A1C23F" d="M300.89 125.877h11.884V123.5H300.89z"/>
            <path fill="#819C32" d="M300.89 125.877h5.942V123.5h-5.942z"/>
            <path fill="#EBEDE9" d="M302.079 134.195h3.565v-4.753h-3.565z"/>
            <path fill="#929491" d="M303.267 134.195h2.377v-4.753h-2.377z"/>
            <path fill="#EBEDE9" d="M303.267 131.357h3.565v-.727h-3.565z"/>
            <path fill="#EBEDE9" d="M303.267 134.195h.726v-4.753h-.726zM306.832 134.195h3.565v-4.753h-3.565z"/>
            <path fill="#929491" d="M306.832 134.195h2.377v-4.753h-2.377z"/>
            <path fill="#EBEDE9" d="M306.832 131.357h3.565v-.727h-3.565z"/>
            <path fill="#EBEDE9" d="M308.02 134.195h.726v-4.753h-.726zM302.079 140.137h3.565v-4.754h-3.565z"/>
            <path fill="#929491" d="M303.267 141.325h2.377v-4.753h-2.377z"/>
            <path fill="#EBEDE9" d="M303.267 137.298h3.565v-.726h-3.565z"/>
            <path fill="#EBEDE9" d="M303.267 141.325h.726v-4.753h-.726zM306.832 140.137h3.565v-4.754h-3.565z"/>
            <path fill="#929491" d="M306.832 141.325h2.377v-4.753h-2.377z"/>
            <path fill="#EBEDE9" d="M306.832 137.298h3.565v-.726h-3.565z"/>
            <path fill="#EBEDE9" d="M308.02 141.325h.726v-4.753h-.726zM302.079 147.266h3.565v-4.753h-3.565z"/>
            <path fill="#929491" d="M303.267 147.266h2.377v-4.753h-2.377z"/>
            <path fill="#EBEDE9" d="M303.267 145.616h3.565v-.726h-3.565z"/>
            <path fill="#EBEDE9" d="M303.267 147.266h.726v-4.753h-.726zM306.832 147.266h3.565v-4.753h-3.565z"/>
            <path fill="#929491" d="M306.832 147.266h2.377v-4.753h-2.377z"/>
            <path fill="#EBEDE9" d="M306.832 145.616h3.565v-.726h-3.565z"/>
            <path fill="#EBEDE9" d="M308.02 147.266h.726v-4.753h-.726zM302.079 155.585h3.565v-4.754h-3.565z"/>
            <path fill="#929491" d="M303.267 155.585h2.377v-4.754h-2.377z"/>
            <path fill="#EBEDE9" d="M303.267 152.746h3.565v-.726h-3.565z"/>
            <path fill="#EBEDE9" d="M303.267 155.585h.726v-4.754h-.726zM306.832 155.585h3.565v-4.754h-3.565z"/>
            <path fill="#929491" d="M306.832 155.585h2.377v-4.754h-2.377z"/>
            <path fill="#EBEDE9" d="M306.832 152.746h3.565v-.726h-3.565z"/>
            <path fill="#EBEDE9" d="M308.02 155.585h.726v-4.754h-.726z"/>
            <path fill="#70B08D" d="M314.806 154.81c0 2.209-1.943 4.024-4.464 4.302v.037h-24.069c-2.832 0-5.129-1.942-5.129-4.339 0-1.196.573-2.282 1.505-3.07.925-.783 2.205-1.268 3.624-1.268v-.024c0-1.306.683-2.453 1.712-3.113a4.954 4.954 0 0 1-.628-2.41c0-2.76 2.248-4.994 5.02-4.994.511 0 1.005.072 1.474.218a3.712 3.712 0 0 1 3.552-2.615c1.078 0 2.052.461 2.723 1.195.609.661.98 1.536.98 2.5 0 .152-.006.297-.024.443a3.709 3.709 0 0 1 4.68 2.621 5.05 5.05 0 0 1 1.942-.388c2.77 0 5.013 2.24 5.013 4.994 0 .771-.177 1.493-.487 2.149 1.54.746 2.576 2.149 2.576 3.762"/>
            <path fill="#51A175" d="M300.125 138.73v20.42h-13.852c-2.832 0-5.13-1.943-5.13-4.34 0-1.195.574-2.282 1.505-3.07.927-.783 2.206-1.269 3.625-1.269v-.024c0-1.305.682-2.451 1.712-3.113a4.947 4.947 0 0 1-.627-2.409c0-2.76 2.247-4.994 5.02-4.994.51 0 1.004.073 1.473.219a3.714 3.714 0 0 1 6.274-1.42"/>
            <path fill="#B2C2C7" d="M186.357 189.505l-31.8 33.7-16.43-47.426z"/>
            <path fill="#8D9A9E" d="M138.128 175.78l32.48 30.414-16.05 17.01z"/>
            <path fill="#FFF" d="M152.468 179.74l-3.061 1.44 2.846 4.61-4.786-1.265 1.563 4.68-4.793-2.545-1.254 3.133-4.855-14.014z"/>
            <path fill="#D9D9D9" d="M138.128 175.78l9.339 8.744 1.563 4.681-4.793-2.546-1.255 3.134z"/>
            <path fill="#B2C2C7" d="M173.1 210.884l-21.45 34.59-22.513-37.975z"/>
            <path fill="#8D9A9E" d="M129.137 207.498l33.34 20.516-10.827 17.46z"/>
            <path fill="#FFF" d="M142.188 208.401l-2.383 1.777 3.263 3.472-4.345-.253 2.171 3.758-4.577-1.354-.528 2.919-6.653-11.222z"/>
            <path fill="#D9D9D9" d="M129.137 207.498l9.586 5.899 2.172 3.758-4.578-1.353-.528 2.918z"/>
            <path fill="#98BF5D" d="M184.627 198.645l2.721 2.552-27.456 29.046-2.723-2.553a19.844 19.844 0 0 1-6.291-13.927 19.826 19.826 0 0 1 5.435-14.27c7.586-8.026 20.259-8.404 28.314-.848"/>
            <path fill="#80A14F" d="M156.313 199.492l17.303 16.231-13.725 14.52-2.721-2.553a19.844 19.844 0 0 1-6.292-13.926 19.828 19.828 0 0 1 5.435-14.272"/>
            <path fill="#98BF5D" d="M165.286 220.318l2.759 1.447-15.57 29.444-2.758-1.447a16.603 16.603 0 0 1-8.175-9.798 16.525 16.525 0 0 1 1.175-12.678c4.301-8.133 14.403-11.253 22.569-6.968"/>
            <path fill="#80A14F" d="M142.717 227.286l17.541 9.205-7.783 14.718-2.759-1.447a16.603 16.603 0 0 1-8.174-9.797 16.525 16.525 0 0 1 1.175-12.679"/>
            <path fill="#70B08D" d="M192.002 177.001a5.707 5.707 0 0 1-.89 8.045c-.052.042-.1.08-.155.116a5.642 5.642 0 0 1-2.585 1.076c-.084.013-.167.026-.246.034a4.855 4.855 0 0 1-1.388 2.244 4.034 4.034 0 0 1-.275.241 4.95 4.95 0 0 1-6.935-.761 4.9 4.9 0 0 1-1.086-3.076 4.101 4.101 0 0 1-2.176-1.404 4.092 4.092 0 0 1 .281-5.443 3.493 3.493 0 0 1 .02-6.503 3.519 3.519 0 0 1 4.035 1.064c.034.043.065.089.099.132l.004-.004a4.137 4.137 0 0 1 5.798.637c.361.448.614.947.756 1.464a5.763 5.763 0 0 1 4.743 2.138"/>
            <path fill="#51A175" d="M176.569 171.57l11.803 14.668c-.084.013-.167.026-.247.034a4.85 4.85 0 0 1-1.387 2.244c-.088.084-.18.165-.274.241a4.95 4.95 0 0 1-6.936-.761 4.906 4.906 0 0 1-1.086-3.076 4.096 4.096 0 0 1-2.176-1.404 4.092 4.092 0 0 1 .282-5.443 3.493 3.493 0 0 1 .02-6.503"/>
            <path fill="#5C9174" d="M190.796 182.032c.654.814.668 1.986.161 3.13a5.832 5.832 0 0 1-1.43.785c-.457.17-.928.273-1.401.325-.092.314-.212.62-.365.915-.254.49-.595.94-1.023 1.329-1.218.241-2.359-.03-3.01-.84-.93-1.155-.569-3.046.774-4.54.225-.263.491-.514.781-.746.29-.231.59-.432.903-.596 1.753-.974 3.68-.917 4.61.238"/>
            <path fill="#8A7A58" d="M186.186 181.794l6.755 8.395-1.683 1.344-6.756-8.396a5.6 5.6 0 0 1 .781-.747c.29-.231.59-.432.903-.596"/>
            <path fill="#83A5B0" d="M201.895 188.595l-30.802 25.99-9.502-42.58z"/>
            <path fill="#76959E" d="M161.591 172.005l25.05 29.46-15.547 13.119z"/>
            <path fill="#FFF" d="M173.588 176.834l-2.788.944 2.003 4.26-4.01-1.563.889 4.197-3.889-2.669-1.394 2.583-2.807-12.581z"/>
            <path fill="#D9D9D9" d="M161.591 172.005l7.203 8.47.887 4.197-3.888-2.668-1.394 2.582z"/>
            <path fill="#98BF5D" d="M200.79 188.038l1.52 1.889-20.32 16.225-1.52-1.89a12.898 12.898 0 0 1-2.786-9.535 12.908 12.908 0 0 1 4.798-8.698c5.614-4.483 13.808-3.583 18.308 2.009"/>
            <path fill="#80A14F" d="M182.482 186.029l9.666 12.012-10.158 8.11-1.52-1.889a12.893 12.893 0 0 1-2.785-9.535 12.912 12.912 0 0 1 4.797-8.698"/>
            <path fill="#8A8791" d="M186.717 135.85l-16.387 8.995 26.39 47.7 16.385-8.996z"/>
            <path fill="#807D87" d="M178.523 140.348l-8.192 4.498 26.388 47.698 8.193-4.498z"/>
            <path fill="#655D80" d="M187.892 137.974l-16.386 8.996 1.03 1.86 16.386-8.995z"/>
            <path fill="#DFDAEB" d="M180.137 156.493l3.668-2.013-3.538-6.395-3.668 2.015z"/>
            <path fill="#65607A" d="M180.272 155.716l2.801-1.538-2.94-5.315-2.8 1.538z"/>
            <path fill="#DFDAEB" d="M181.743 150.752l-3.668 2.014-.298-.54 3.667-2.013zM187.611 152.39l3.668-2.013-3.538-6.395-3.667 2.014z"/>
            <path fill="#65607A" d="M187.746 151.612l2.801-1.538-2.94-5.314-2.8 1.538z"/>
            <path fill="#DFDAEB" d="M189.217 146.65l-3.668 2.013-.299-.54 3.668-2.013zM186.022 167.13l3.668-2.014-3.538-6.395-3.668 2.015z"/>
            <path fill="#65607A" d="M186.157 166.352l2.8-1.538-2.94-5.315-2.801 1.539z"/>
            <path fill="#DFDAEB" d="M187.627 161.388l-3.668 2.014-.299-.54 3.668-2.013zM193.496 163.027l3.668-2.014-3.539-6.395-3.668 2.014z"/>
            <path fill="#65607A" d="M193.63 162.248l2.8-1.537-2.94-5.315-2.8 1.538z"/>
            <path fill="#DFDAEB" d="M195.101 157.285l-3.668 2.014-.299-.54 3.668-2.013zM191.905 177.765l3.668-2.013-3.537-6.395-3.668 2.014z"/>
            <path fill="#65607A" d="M192.04 176.988l2.801-1.538-2.94-5.315-2.8 1.538z"/>
            <path fill="#DFDAEB" d="M193.512 172.025l-3.668 2.013-.3-.54 3.669-2.014zM199.38 173.662l3.667-2.013-3.537-6.395-3.668 2.015z"/>
            <path fill="#65607A" d="M199.514 172.884l2.8-1.537-2.94-5.315-2.8 1.538z"/>
            <path fill="#DFDAEB" d="M200.986 167.921l-3.668 2.014-.3-.54 3.669-2.013zM197.79 188.401l3.668-2.013-3.538-6.395-3.668 2.014z"/>
            <path fill="#65607A" d="M197.925 187.624l2.8-1.538-2.94-5.315-2.8 1.538z"/>
            <path fill="#DFDAEB" d="M199.395 182.66l-3.668 2.013-.298-.539 3.668-2.014zM205.264 184.298l3.668-2.013-3.538-6.395-3.668 2.015z"/>
            <path fill="#65607A" d="M205.398 183.52l2.801-1.537-2.94-5.315-2.8 1.538z"/>
            <path fill="#DFDAEB" d="M206.87 178.557l-3.669 2.014-.298-.54 3.668-2.013z"/>
            <path fill="#786F6E" d="M244.159 156.854l-4.134 1.71-1.593-3.827 4.133-1.708zM238.627 159.141l-4.133 1.71-1.594-3.827 4.133-1.708z"/>
            <path fill="#FCFF8B" d="M251.938 166.715l-25.489 10.538-5.404-12.97 25.489-10.539z"/>
            <path fill="#E2E65E" d="M238.635 172.214l-12.186 5.04-5.404-12.97 12.187-5.04z"/>
            <path fill="#A3A398" d="M249.127 167.877l-19.867 8.214-3.579-8.59 19.867-8.214z"/>
            <path fill="#F5F5E4" d="M248.186 168.266l-17.985 7.436-3.205-7.692 17.985-7.436z"/>
            <path fill="#CF7D68" d="M247.595 156.291l-25.489 10.54-1.06-2.548 25.488-10.538z"/>
            <path fill="#C26853" d="M234.292 161.791l-12.186 5.04-1.06-2.548 12.185-5.039z"/>
            <path fill="#A3A398" d="M243.577 170.172l.94-.39-3.579-8.589-.94.388z"/>
            <path fill="#A3A398" d="M241.921 165.272l.39.937 4.684-1.936-.39-.937z"/>
            <path fill="#70B08D" d="M197.229 183.129a4.037 4.037 0 0 1-1.347 5.662 3.993 3.993 0 0 1-1.899.565c-.06.003-.119.005-.176.005a3.427 3.427 0 0 1-1.144 1.475 2.56 2.56 0 0 1-.21.15 3.5 3.5 0 0 1-4.822-1.05 3.47 3.47 0 0 1-.534-2.245 2.895 2.895 0 0 1-.82-4.957 2.472 2.472 0 0 1 .502-4.573 2.487 2.487 0 0 1 2.759 1.048c.02.032.038.067.06.1l.003-.002a2.926 2.926 0 0 1 4.03.878c.22.344.361.713.422 1.086 1.25.08 2.448.727 3.176 1.858"/>
            <path fill="#51A175" d="M186.78 178.161l7.204 11.195a4.14 4.14 0 0 1-.176.005 3.43 3.43 0 0 1-1.145 1.475 2.573 2.573 0 0 1-.21.15 3.5 3.5 0 0 1-4.822-1.05 3.47 3.47 0 0 1-.534-2.245 2.897 2.897 0 0 1-.819-4.957 2.472 2.472 0 0 1 .502-4.573"/>
            <path fill="#5C9174" d="M196.003 186.577c.4.622.322 1.447-.12 2.214-.342.202-.702.35-1.066.446a4.119 4.119 0 0 1-1.01.124c-.088.214-.195.42-.325.616a3.315 3.315 0 0 1-.819.859c-.875.08-1.656-.196-2.054-.814-.567-.882-.172-2.185.885-3.136.177-.168.384-.325.605-.467.221-.141.447-.26.68-.351 1.306-.555 2.657-.372 3.224.51"/>
            <path fill="#8A7A58" d="M192.778 186.068l4.122 6.406-1.283.82-4.123-6.408c.177-.168.384-.325.605-.467.222-.141.447-.26.68-.351"/>
            <path fill="#FFF3E3" d="M228.415 176.93l-18.004 7.445-14.167-34.002 18.004-7.443z"/>
            <path fill="#5D8079" d="M211.184 142.28l-3.42 1.415-2.317-5.557 3.42-1.415z"/>
            <path fill="#53736C" d="M209.7 142.893l-1.937.802-2.316-5.56 1.937-.799z"/>
            <path fill="#7EADA3" d="M210.07 137.94l-4.605 1.904-.61-1.462 4.605-1.905z"/>
            <path fill="#FFE3BD" d="M219.413 180.653l-9.002 3.722-14.167-34.002 9.002-3.721z"/>
            <path fill="#FF7070" d="M214.855 138.846l-21.943 9.072 1.363 3.27 21.942-9.072z"/>
            <path fill="#CF5B5B" d="M203.884 143.383l-10.972 4.536 1.363 3.27 10.97-4.537z"/>
            <path fill="#689299" d="M203.41 157.493l4.083-1.687-1.527-3.666a2.212 2.212 0 0 0-2.888-1.189 2.197 2.197 0 0 0-1.194 2.876l1.527 3.666z"/>
            <path fill="#CCF7FF" d="M203.624 156.57l3.062-1.267-1.146-2.748a1.66 1.66 0 0 0-2.166-.892 1.647 1.647 0 0 0-.895 2.157l1.145 2.75z"/>
            <path fill="#689299" d="M205.043 156.325l.467-.193-2.083-4.998-.466.193z"/>
            <path fill="#689299" d="M202.148 153.664l.194.463 3.513-1.452-.193-.465zM202.77 155.158l.194.463 3.514-1.452-.194-.465zM210.167 154.7l4.082-1.687-1.527-3.666a2.212 2.212 0 0 0-2.888-1.19 2.197 2.197 0 0 0-1.194 2.877l1.527 3.666z"/>
            <path fill="#CCF7FF" d="M210.38 153.776l3.062-1.266-1.146-2.748a1.66 1.66 0 0 0-2.166-.892 1.647 1.647 0 0 0-.895 2.157l1.145 2.75z"/>
            <path fill="#689299" d="M211.8 153.532l.466-.194-2.083-4.997-.466.193z"/>
            <path fill="#689299" d="M208.904 150.87l.193.464 3.514-1.453-.193-.464zM209.526 152.364l.194.464 3.513-1.453-.192-.464zM207.384 167.027l4.08-1.688-1.526-3.665a2.213 2.213 0 0 0-2.888-1.19 2.198 2.198 0 0 0-1.194 2.877l1.528 3.666z"/>
            <path fill="#CCF7FF" d="M207.597 166.103l3.061-1.265-1.145-2.75a1.66 1.66 0 0 0-2.166-.89 1.648 1.648 0 0 0-.896 2.157l1.146 2.748z"/>
            <path fill="#689299" d="M209.016 165.859l.466-.194-2.082-4.997-.467.193z"/>
            <path fill="#689299" d="M206.12 163.197l.194.465 3.514-1.454-.194-.464zM206.743 164.691l.193.465 3.514-1.454-.193-.464zM214.139 164.233l4.082-1.687-1.527-3.666a2.213 2.213 0 0 0-2.888-1.189 2.198 2.198 0 0 0-1.194 2.877l1.527 3.665z"/>
            <path fill="#CCF7FF" d="M214.353 163.31l3.06-1.265-1.144-2.75a1.66 1.66 0 0 0-2.167-.891 1.647 1.647 0 0 0-.895 2.157l1.146 2.749z"/>
            <path fill="#689299" d="M215.772 163.066l.466-.194-2.082-4.997-.467.193z"/>
            <path fill="#689299" d="M212.876 160.404l.194.464 3.513-1.453-.193-.465zM213.499 161.898l.193.465 3.514-1.454-.193-.464zM211.823 177.682l4.081-1.687-1.527-3.666a2.213 2.213 0 0 0-2.888-1.189 2.198 2.198 0 0 0-1.193 2.877l1.527 3.665z"/>
            <path fill="#CCF7FF" d="M212.036 176.759l3.062-1.265-1.146-2.75a1.66 1.66 0 0 0-2.166-.891 1.65 1.65 0 0 0-.895 2.157l1.145 2.749z"/>
            <path fill="#689299" d="M213.455 176.515l.467-.194-2.083-4.997-.466.192z"/>
            <path fill="#689299" d="M210.56 173.853l.193.464 3.514-1.453-.193-.465zM211.183 175.347l.193.464 3.514-1.453-.194-.465zM218.58 174.889l4.08-1.687-1.527-3.666a2.213 2.213 0 0 0-2.888-1.189 2.198 2.198 0 0 0-1.193 2.877l1.527 3.665z"/>
            <path fill="#CCF7FF" d="M218.792 173.966l3.062-1.266-1.146-2.749a1.66 1.66 0 0 0-2.166-.891 1.648 1.648 0 0 0-.895 2.156l1.145 2.75z"/>
            <path fill="#689299" d="M220.211 173.721l.467-.193-2.083-4.997-.466.192z"/>
            <path fill="#689299" d="M217.316 171.06l.193.464 3.514-1.454-.194-.464zM217.939 172.554l.193.464 3.514-1.453-.194-.465z"/>
            <path fill="#785C76" d="M281.154 150.76l-.81.178-8.136-36.593.81-.18z"/>
            <path fill="#785C76" d="M258.403 137.008l-.18-.808 36.735-8.104.18.807z"/>
            <path fill="#785C76" d="M266.92 148.577l-.7-.444 20.222-31.606.7.444z"/>
            <path fill="#785C76" d="M260.594 122.828l.446-.697 31.728 20.144-.446.697z"/>
            <path fill="#785C76" d="M280.386 149.22c-9.238 2.038-18.388-3.775-20.433-12.978-2.047-9.204 3.784-18.316 13.023-20.355 9.238-2.037 18.386 3.77 20.432 12.974 2.047 9.202-3.783 18.32-13.022 20.358m-7.776-34.975c-10.149 2.239-16.555 12.252-14.307 22.362 2.248 10.114 12.3 16.497 22.449 14.258 10.154-2.241 16.556-12.253 14.307-22.367-2.248-10.11-12.295-16.494-22.449-14.253"/>
            <path fill="#7F8694" d="M278.76 141.906c-5.184 1.143-10.317-2.118-11.466-7.283-1.148-5.164 2.123-10.278 7.308-11.422 5.184-1.143 10.317 2.116 11.466 7.28 1.148 5.165-2.124 10.281-7.307 11.425m-4.364-19.628c-5.696 1.257-9.291 6.876-8.029 12.55 1.261 5.675 6.903 9.257 12.597 8 5.698-1.257 9.29-6.875 8.028-12.552-1.26-5.673-6.899-9.254-12.596-7.998"/>
            <path fill="#C45E5E" d="M276.236 116.214l.779 3.5a1.945 1.945 0 0 1-1.487 2.315l-2.266.5a1.948 1.948 0 0 1-2.324-1.475l-.777-3.5.538-.118.39 1.747 1.573-.347-.388-1.748.544-.12.388 1.748 2.874-.635-.388-1.746.544-.121z"/>
            <path fill="#A14D4D" d="M274.03 118.534l.811 3.647-1.58.349a1.948 1.948 0 0 1-2.322-1.476l-.779-3.5.54-.118.388 1.747 1.574-.347-.389-1.748.545-.12.389 1.747.824-.181z"/>
            <path fill="#DED8CA" d="M275.223 115.403l-4.49.991a.81.81 0 0 0-.618.966l.08.36 6.077-1.34-.08-.361a.813.813 0 0 0-.97-.616"/>
            <path fill="#A773B5" d="M282.23 143.176l.779 3.5a1.943 1.943 0 0 1-1.486 2.315l-2.267.5a1.946 1.946 0 0 1-2.323-1.475l-.778-3.5.539-.118.388 1.747 1.575-.347-.388-1.748.544-.12.388 1.747 2.874-.634-.388-1.746.544-.121z"/>
            <path fill="#81598C" d="M280.025 145.496l.811 3.647-1.58.349a1.948 1.948 0 0 1-2.323-1.476l-.777-3.5.538-.119.39 1.748 1.572-.347-.387-1.748.543-.12.39 1.747.823-.181z"/>
            <path fill="#DED8CA" d="M281.217 142.365l-4.489.992a.809.809 0 0 0-.618.965l.08.36 6.078-1.34-.082-.361a.813.813 0 0 0-.969-.616"/>
            <path fill="#9DC45E" d="M287.386 118.068l.778 3.5a1.943 1.943 0 0 1-1.486 2.316l-2.266.5a1.948 1.948 0 0 1-2.324-1.476l-.778-3.499.539-.119.389 1.747 1.574-.346-.389-1.748.545-.12.388 1.747 2.874-.635-.388-1.746.544-.12z"/>
            <path fill="#759146" d="M285.18 120.388l.81 3.647-1.579.35a1.948 1.948 0 0 1-2.323-1.477l-.778-3.499.539-.119.388 1.747 1.575-.346-.39-1.748.546-.12.388 1.747.824-.182z"/>
            <path fill="#DED8CA" d="M286.372 117.258l-4.49.99a.81.81 0 0 0-.618.967l.08.36 6.078-1.341-.08-.36a.813.813 0 0 0-.97-.616"/>
            <path fill="#C45E5E" d="M271.467 141.326l.778 3.5a1.945 1.945 0 0 1-1.486 2.316l-2.266.5a1.947 1.947 0 0 1-2.323-1.476l-.778-3.499.538-.119.389 1.747 1.574-.346-.388-1.748.544-.12.388 1.747 2.875-.635-.389-1.746.544-.12z"/>
            <path fill="#A14D4D" d="M269.261 143.646l.811 3.647-1.58.35a1.948 1.948 0 0 1-2.322-1.477l-.778-3.499.539-.119.388 1.747 1.574-.346-.388-1.748.544-.121.389 1.748.823-.182z"/>
            <path fill="#DED8CA" d="M270.454 140.516l-4.49.99a.809.809 0 0 0-.617.966l.079.36 6.077-1.34-.08-.36a.813.813 0 0 0-.97-.616"/>
            <path fill="#DBBF69" d="M267.282 122.504l.779 3.5a1.945 1.945 0 0 1-1.486 2.315l-2.267.5a1.947 1.947 0 0 1-2.324-1.475l-.777-3.5.539-.119.388 1.748 1.575-.347-.39-1.747.546-.121.387 1.748 2.874-.635-.388-1.747.544-.12z"/>
            <path fill="#B09954" d="M265.077 124.823l.81 3.647-1.579.35a1.947 1.947 0 0 1-2.323-1.476l-.778-3.5.538-.12.389 1.749 1.574-.347-.389-1.748.545-.12.39 1.748.823-.183z"/>
            <path fill="#DED8CA" d="M266.269 121.693l-4.49.991a.81.81 0 0 0-.618.966l.08.36 6.077-1.34-.08-.36a.813.813 0 0 0-.969-.617"/>
            <path fill="#5EC1C4" d="M291.57 136.89l.779 3.5a1.943 1.943 0 0 1-1.486 2.316l-2.267.5a1.946 1.946 0 0 1-2.323-1.474l-.778-3.5.539-.12.388 1.748 1.575-.347-.388-1.748.544-.12.387 1.747 2.875-.634-.389-1.747.544-.12z"/>
            <path fill="#4D9EA1" d="M289.365 139.21l.811 3.648-1.58.349a1.947 1.947 0 0 1-2.323-1.476l-.778-3.5.54-.119.387 1.748 1.574-.347-.388-1.748.544-.12.39 1.747.823-.181z"/>
            <path fill="#DED8CA" d="M290.557 136.08l-4.49.992a.809.809 0 0 0-.617.965l.08.36 6.077-1.34-.08-.36a.813.813 0 0 0-.97-.616"/>
            <path fill="#7784AB" d="M292.684 126.71l.778 3.5a1.943 1.943 0 0 1-1.486 2.315l-2.266.5a1.946 1.946 0 0 1-2.323-1.474l-.779-3.5.539-.12.389 1.749 1.574-.348-.388-1.748.544-.12.388 1.748 2.875-.634-.39-1.747.545-.121z"/>
            <path fill="#5D6685" d="M290.479 129.03l.81 3.647-1.58.35a1.947 1.947 0 0 1-2.322-1.476l-.779-3.5.54-.12.388 1.749 1.574-.348-.389-1.748.544-.12.39 1.748.824-.182z"/>
            <path fill="#DED8CA" d="M291.67 125.9l-4.489.991a.809.809 0 0 0-.618.966l.08.36 6.078-1.34-.081-.361a.813.813 0 0 0-.97-.616"/>
            <path fill="#9DC45E" d="M265.7 132.664l.78 3.499a1.945 1.945 0 0 1-1.487 2.316l-2.266.5a1.947 1.947 0 0 1-2.323-1.475l-.779-3.5.539-.119.389 1.747 1.574-.346-.388-1.748.544-.12.388 1.747 2.875-.634-.39-1.747.545-.12z"/>
            <path fill="#759146" d="M263.496 134.984l.81 3.647-1.58.349a1.948 1.948 0 0 1-2.322-1.476l-.779-3.5.539-.119.389 1.747 1.574-.346-.389-1.748.544-.12.389 1.747.825-.181z"/>
            <path fill="#DED8CA" d="M264.687 131.853l-4.489.99a.809.809 0 0 0-.618.966l.08.36 6.078-1.34-.081-.36a.813.813 0 0 0-.97-.616"/>
            <path fill="#785C76" d="M289.748 158.04l-1.014.47-12.101-25.902 1.013-.47z"/>
            <path fill="#785C76" d="M275.642 161.152h1.118l-.01-28.57h-1.118z"/>
            <path fill="#8285A8" d="M270.36 162.331l21.736-4.794-6.266-7.259-12.867 2.84z"/>
            <path fill="#FFF7CC" d="M272.406 161.88l17.643-3.892-5.431-7.443-10.443 2.305z"/>
            <path fill="#8285A8" d="M274.657 161.383l13.142-2.899-4.513-7.645-7.779 1.717z"/>
            <path fill="#FFF7CC" d="M277.15 160.833l8.154-1.798-3.494-7.87-4.827 1.066z"/>
            <path fill="#8285A8" d="M279.636 160.284l3.183-.702-2.48-8.092-1.885.416zM286.436 148.567l-14.748 3.254.334 1.504 14.748-3.255z"/>
            <path fill="#FFF7CC" d="M274.985 151.093l-1.649.364.335 1.504 1.648-.364zM278.23 150.378l-1.65.363.335 1.504 1.65-.364zM281.474 149.662l-1.65.364.335 1.503 1.649-.364zM284.718 148.946l-1.65.364.335 1.503 1.65-.364z"/>
            <path fill="#8285A8" d="M277.297 142.254c.482 6.743-4.806 9.39-4.806 9.39l6.57-1.45 6.572-1.45s-5.915-.175-8.336-6.49"/>
            <path fill="#7A4D4D" d="M280.442 156.402c.214 3-2.138 4.177-2.138 4.177l2.923-.645 2.922-.645s-2.63-.078-3.707-2.887"/>
            <path fill="#FFF7CC" d="M277.297 142.254c.85 6.662-2.312 8.84-2.312 8.84l4.077-.9 4.078-.9s-3.79-.645-5.843-7.04"/>
            <path fill="#8285A8" d="M277.297 142.254c1.217 6.58.174 8.29.174 8.29l1.59-.35 1.593-.352s-1.67-1.111-3.357-7.588"/>
            <path fill="#FF7878" d="M248.343 167.189l29.295-6.463-8.446-9.781-17.34 3.825z"/>
            <path fill="#FFF7CC" d="M251.102 166.58l23.777-5.246-7.32-10.029-14.074 3.104z"/>
            <path fill="#FF7878" d="M254.135 165.912l17.711-3.909-6.082-10.302-10.484 2.313z"/>
            <path fill="#FFF7CC" d="M257.496 165.17l10.989-2.425-4.71-10.605-6.505 1.435z"/>
            <path fill="#FF7878" d="M260.846 164.43l4.288-.946-3.343-10.906-2.538.56zM270.009 148.638l-19.877 4.385.45 2.027 19.878-4.385z"/>
            <path fill="#FFF7CC" d="M254.577 152.043l-2.223.49.451 2.026 2.223-.49zM258.95 151.078l-2.222.49.45 2.027 2.222-.49zM263.322 150.114l-2.222.49.45 2.026 2.223-.49zM267.694 149.149l-2.222.49.451 2.026 2.222-.49z"/>
            <path fill="#FF7878" d="M257.693 140.13c.65 9.087-6.477 12.654-6.477 12.654l8.855-1.954 8.857-1.953s-7.972-.237-11.235-8.747"/>
            <path fill="#7A4D4D" d="M261.931 159.198c.29 4.041-2.88 5.628-2.88 5.628l3.938-.869 3.94-.869s-3.547-.105-4.998-3.89"/>
            <path fill="#FFF7CC" d="M257.693 140.13c1.144 8.977-3.116 11.913-3.116 11.913l5.494-1.213 5.495-1.211s-5.106-.87-7.873-9.489"/>
            <path fill="#FF7878" d="M257.693 140.13c1.64 8.869.234 11.173.234 11.173l2.144-.473 2.145-.473s-2.25-1.498-4.523-10.227"/>
            <path fill="#8285A8" d="M340.886 161.46l21.825 4.382-2.78-9.164-12.919-2.594z"/>
            <path fill="#FFF7CC" d="M342.942 161.873l17.713 3.556-1.941-8.995-10.485-2.105z"/>
            <path fill="#8285A8" d="M345.201 162.326l13.195 2.65-1.02-8.81-7.81-1.569z"/>
            <path fill="#FFF7CC" d="M347.705 162.828l8.187 1.645.003-8.605-4.846-.974z"/>
            <path fill="#8285A8" d="M350.2 163.33l3.196.641 1.022-8.4-1.892-.38z"/>
            <path fill="#8285A8" d="M361.18 155.358l-14.807-2.973-.306 1.51 14.807 2.973z"/>
            <path fill="#FFF7CC" d="M349.684 153.05l-1.656-.333-.306 1.51 1.656.333zM352.941 153.703l-1.655-.332-.306 1.51 1.655.332zM356.198 154.358l-1.655-.333-.306 1.51 1.656.332zM359.456 155.012l-1.655-.333-.306 1.51 1.655.333z"/>
            <path fill="#8285A8" d="M355.39 145.9c-2.3 6.359-8.21 6.646-8.21 6.646l6.597 1.326 6.597 1.325s-5.336-2.547-4.984-9.298"/>
            <path fill="#7A4D4D" d="M352.515 160.105c-1.023 2.829-3.652 2.956-3.652 2.956l2.935.59 2.934.589s-2.374-1.133-2.217-4.135"/>
            <path fill="#FFF7CC" d="M355.39 145.9c-1.93 6.433-5.706 7.15-5.706 7.15l4.093.822 4.094.822s-3.203-2.119-2.481-8.795"/>
            <path fill="#8285A8" d="M355.39 145.9c-1.562 6.508-3.21 7.651-3.21 7.651l1.597.32 1.597.322s-1.074-1.69.016-8.294"/>
            <path fill="#FF7878" d="M318.78 157.02l29.414 5.907-3.746-12.35-17.41-3.495z"/>
            <path fill="#FFF7CC" d="M321.55 157.577l23.874 4.794-2.616-12.123-14.131-2.837z"/>
            <path fill="#FF7878" d="M324.595 158.188l17.783 3.57-1.372-11.873-10.527-2.112z"/>
            <path fill="#FFF7CC" d="M327.97 158.867l11.034 2.215.004-11.598-6.531-1.31z"/>
            <path fill="#FF7878" d="M331.334 159.542l4.307.864 1.376-11.32-2.55-.513z"/>
            <path fill="#FF7878" d="M346.131 148.798l-19.956-4.007-.412 2.035 19.957 4.007z"/>
            <path fill="#FFF7CC" d="M330.637 145.687l-2.231-.45-.412 2.036 2.232.449zM335.027 146.568l-2.231-.448-.411 2.035 2.23.448zM339.417 147.45l-2.231-.448-.412 2.034 2.232.449zM343.808 148.33l-2.232-.447-.411 2.035 2.23.448z"/>
            <path fill="#FF7878" d="M338.328 136.05c-3.1 8.57-11.066 8.959-11.066 8.959l8.892 1.785 8.892 1.786s-7.193-3.431-6.718-12.53"/>
            <path fill="#7A4D4D" d="M334.453 155.195c-1.379 3.813-4.921 3.985-4.921 3.985l3.955.794 3.954.794s-3.2-1.527-2.988-5.573"/>
            <path fill="#FFF7CC" d="M338.328 136.05c-2.602 8.67-7.69 9.637-7.69 9.637l5.516 1.107 5.517 1.108s-4.317-2.854-3.343-11.852"/>
            <path fill="#FF7878" d="M338.328 136.05c-2.106 8.771-4.327 10.312-4.327 10.312l2.153.432 2.153.433s-1.449-2.279.021-11.177"/>
            <path fill="#A24700" d="M215.018 179.07l-10.325 5.848.836 1.467 10.326-5.85z"/>
            <path fill="#853A00" d="M210.228 181.784l-5.535 3.134.837 1.467 5.535-3.136z"/>
            <path fill="#5FA24F" d="M215.022 179.071l-10.326 5.85a2.234 2.234 0 0 1 .84-3.058l6.412-3.634a2.258 2.258 0 0 1 3.074.842"/>
            <path fill="#569448" d="M209.115 179.834l1.114 1.952-5.533 3.134a2.23 2.23 0 0 1 .84-3.058l3.58-2.028z"/>
            <path fill="#5FA24F" d="M225.18 170.498c-12.054 4.808-5.632-14.01-5.632-14.01s17.685 9.202 5.631 14.01"/>
            <path fill="#569448" d="M219.548 156.489l5.63 14.01c-12.053 4.807-5.63-14.01-5.63-14.01"/>
            <path fill="#6CB859" d="M224.864 169.715c-8.26 3.294-3.859-9.601-3.859-9.601s12.12 6.305 3.86 9.6"/>
            <path fill="#4D8540" d="M227.089 174.734l-.357.141-4.325-10.76.356-.143z"/>
            <path fill="#4D8540" d="M223.858 166.998l-.353-.15 1.405-3.269.352.15z"/>
            <path fill="#4D8540" d="M223.861 166.705l-.15.352-3.282-1.399.151-.352zM224.857 169.484l-.353-.15 1.405-3.27.353.152z"/>
            <path fill="#4D8540" d="M224.86 169.191l-.15.352-3.282-1.4.152-.35z"/>
            <g transform="translate(148.327 155.854)">
                <mask id="e" fill="#fff">
                    <use xlink:href="#d"/>
                </mask>
                <path fill="#6F9140" d="M248.154 43.266c-12.152-39.244-77.022-54.152-144.894-33.3C35.39 30.82-9.78 79.539 2.37 118.785c12.15 39.243 77.022 54.151 144.893 33.298 67.872-20.853 113.042-69.572 100.89-108.816" mask="url(#e)"/>
            </g>
            <path fill="#86A65A" d="M388.143 206.892c-11.337-36.616-71.156-50.744-133.61-31.556-62.452 19.19-103.89 64.428-92.553 101.044 11.338 36.617 71.157 50.745 133.61 31.556 62.454-19.188 103.891-64.427 92.553-101.044"/>
            <path fill="#95B867" d="M372.138 217.514c-10.447-33.74-61.656-47.96-114.38-31.762-52.723 16.2-86.994 56.683-76.547 90.424 10.447 33.74 61.656 47.96 114.379 31.76 52.723-16.199 86.995-56.683 76.548-90.422"/>
            <path fill="#8CBCFF" d="M297.374 153.148l.295 2.643-10.627 1.18-.804-7.18 9.087-1.01.222.478 1.543 3.281z"/>
            <path fill="#749CD4" d="M297.4 153.384l.27 2.407-10.628 1.18-.27-2.407z"/>
            <path fill="#5B697D" d="M290.487 156.59a1.113 1.113 0 0 0-1.23-.98 1.11 1.11 0 0 0-.984 1.226 1.113 1.113 0 0 0 2.214-.246"/>
            <path fill="#9DADC2" d="M289.947 156.65a.57.57 0 0 0-1.133.126.57.57 0 0 0 1.133-.126"/>
            <path fill="#5B697D" d="M295.822 155.997a1.113 1.113 0 0 0-1.23-.98 1.11 1.11 0 1 0 .247 2.205 1.11 1.11 0 0 0 .983-1.225"/>
            <path fill="#9DADC2" d="M295.282 156.057a.57.57 0 0 0-1.133.126.57.57 0 0 0 1.133-.126"/>
            <path fill="#6A727D" d="M297.954 155.76l-1.679.187-.09-.81 1.678-.187zM288.05 156.861l-1.302.144-.09-.81 1.3-.145z"/>
            <path fill="#FFFDD4" d="M296.604 153.97l.851-.094-.08-.726-.852.095z"/>
            <path fill="#737D8C" d="M297.091 152.54l-1.457.162-.382-3.411.297-.033zM292.997 152.994l2.198-.244-.374-3.337-2.197.244zM289.245 153.41l2.985-.33-.373-3.338-2.985.332zM286.677 153.697l1.828-.204-.374-3.337-1.828.203z"/>
            <path fill="#6A727D" d="M290.31 154.171l-.505.056a.185.185 0 1 1-.04-.368l.504-.057a.185.185 0 1 1 .041.369M293.867 153.776l-.505.056a.185.185 0 1 1-.041-.368l.505-.057a.187.187 0 0 1 .205.164.186.186 0 0 1-.164.205"/>
            <path fill="#FFE969" d="M179.399 200.037l1.832 1.936-7.78 7.307-4.977-5.256 6.653-6.249.465.248 3.213 1.699z"/>
            <path fill="#D6C458" d="M179.563 200.21l1.668 1.763-7.78 7.307-1.669-1.762z"/>
            <path fill="#5B697D" d="M175.974 206.912a1.116 1.116 0 0 0-1.575-.046 1.107 1.107 0 0 0-.046 1.569 1.116 1.116 0 0 0 1.574.046c.448-.42.468-1.122.047-1.569"/>
            <path fill="#9DADC2" d="M175.578 207.284a.572.572 0 0 0-.806-.024.566.566 0 0 0-.023.803.572.572 0 0 0 .805.024.567.567 0 0 0 .024-.803"/>
            <path fill="#5B697D" d="M179.88 203.244a1.117 1.117 0 0 0-1.575-.047 1.108 1.108 0 0 0-.046 1.57 1.117 1.117 0 0 0 1.574.045 1.107 1.107 0 0 0 .046-1.568"/>
            <path fill="#9DADC2" d="M179.484 203.615a.572.572 0 0 0-.807-.023.567.567 0 0 0-.023.802.572.572 0 0 0 .806.024.566.566 0 0 0 .024-.803"/>
            <path fill="#6A727D" d="M181.44 201.778l-1.23 1.154-.56-.593 1.228-1.154zM174.189 208.589l-.953.894-.561-.592.953-.896z"/>
            <path fill="#FFFDD4" d="M179.28 201.156l.624-.586-.503-.531-.624.586z"/>
            <path fill="#737D8C" d="M178.807 199.72l-1.067 1.002-2.364-2.496.217-.204zM175.81 202.536l1.608-1.51-2.313-2.444-1.608 1.511zM173.063 205.116l2.185-2.052-2.312-2.444-2.186 2.053zM171.182 206.882l1.338-1.257-2.312-2.443-1.338 1.257z"/>
            <path fill="#6A727D" d="M174.372 205.086l-.37.346a.187.187 0 0 1-.262-.007.185.185 0 0 1 .007-.262l.37-.348a.187.187 0 0 1 .255.27M176.976 202.64l-.37.347a.186.186 0 0 1-.255-.27l.37-.348a.187.187 0 0 1 .263.008.185.185 0 0 1-.008.263"/>
            <path fill="#FFF" d="M161.74 139.123l.043.075c.58.977.254 2.237-.72 2.81l-18.47 10.867a6.211 6.211 0 0 1-5.975.179 6.14 6.14 0 0 1-2.5-2.352l-.153-.26 21.014-12.364a3.225 3.225 0 0 1 2.496-.326 3.28 3.28 0 0 1 1.319.727l.13-.077a2.064 2.064 0 0 1 2.815.721"/>
            <path fill="#DBEAFF" d="M161.74 139.123l.043.075c.58.977.254 2.237-.72 2.81l-18.47 10.867a6.211 6.211 0 0 1-5.975.179l24.629-14.492c.191.154.36.34.492.561"/>
            <path fill="#7992B5" d="M133.963 150.444l-3.283-3.006 1.935-1.137c.967-.57 2.093-.716 2.971-.386l3.707 1.393-5.33 3.136zM133.212 153.18a1.266 1.266 0 0 0 1.728.444l5.15-3.03c.3-.177.4-.562.223-.861a.634.634 0 0 0-.865-.222l-6.236 3.67z"/>
            <path fill="#B4C7E0" d="M148.62 150.093l3.996-2.352-1.376-2.32-3.996 2.352a1.344 1.344 0 0 0-.476 1.845c.38.64 1.209.853 1.852.475"/>
            <path fill="#707C8A" d="M152.37 146.32c.38.644.49 1.28.248 1.423-.137.08-.357-.008-.585-.224a2.782 2.782 0 0 1-.546-.68 2.759 2.759 0 0 1-.33-.798c-.077-.297-.051-.537.085-.618.243-.142.75.26 1.128.897"/>
            <path fill="#CFE5FF" d="M151.928 146.58c.246.415.317.831.162.922a.128.128 0 0 1-.056.017 2.726 2.726 0 0 1-.546-.68 2.701 2.701 0 0 1-.331-.798.13.13 0 0 1 .042-.041c.155-.092.483.164.73.58"/>
            <path fill="#53647D" d="M142.657 151.634l2.51-3.983 7.491-4.408-2.718 4.104z"/>
            <path fill="#404E61" d="M143.2 151.91l7.575-4.456a.505.505 0 0 0 .18-.693l-.01-.014a.51.51 0 0 0-.695-.178l-8.447 4.971.008.014c.285.48.907.64 1.39.356M158.793 138.479l-1.353.796a.857.857 0 0 1-1.17-.305l-.223-.377 1.428-.84c.482.133.938.382 1.318.726M152.709 142.06l.28-.165a.646.646 0 0 0 .228-.887.65.65 0 0 0-.89-.227l-.278.165a.645.645 0 0 0-.23.885.65.65 0 0 0 .89.228M150.224 143.521l.279-.164a.645.645 0 0 0 .229-.886.652.652 0 0 0-.89-.228l-.28.165a.645.645 0 0 0-.228.885.65.65 0 0 0 .89.228M147.738 144.984l.28-.164a.645.645 0 0 0 .228-.886.651.651 0 0 0-.889-.228l-.279.165a.645.645 0 0 0-.23.884.65.65 0 0 0 .89.229M145.252 146.446l.28-.164a.646.646 0 0 0 .229-.886.651.651 0 0 0-.89-.228l-.279.165a.645.645 0 0 0-.229.885.65.65 0 0 0 .89.228M142.767 147.908l.28-.163a.647.647 0 1 0-.66-1.115l-.28.165a.646.646 0 0 0-.229.886.65.65 0 0 0 .89.227"/>
            <path fill="#FFF" d="M94.918 224.023l-.78.852a3.423 3.423 0 0 0-5.066-.018 3.392 3.392 0 0 0 .493 5.023l-.78.854a2.25 2.25 0 0 0 .15 3.184 2.27 2.27 0 0 0 3.195-.15l6.133-6.712a2.247 2.247 0 0 0-.15-3.184 2.267 2.267 0 0 0-3.195.15M121.464 198.803l-.78.853a3.424 3.424 0 0 0-5.067-.018 3.392 3.392 0 0 0 .494 5.023l-.78.854a2.247 2.247 0 0 0 .15 3.183 2.268 2.268 0 0 0 3.195-.15l6.133-6.712a2.247 2.247 0 0 0-.15-3.183 2.267 2.267 0 0 0-3.195.15M164.699 155.155l-.917.706a3.424 3.424 0 0 0-4.986-.894 3.393 3.393 0 0 0-.39 5.032l-.917.706a2.248 2.248 0 0 0-.406 3.161 2.268 2.268 0 0 0 3.173.406l7.21-5.55a2.247 2.247 0 0 0 .405-3.161 2.268 2.268 0 0 0-3.172-.406M215.178 112.442l-1.1.364a3.417 3.417 0 0 0-4.408-2.489 3.398 3.398 0 0 0-2.039 4.62l-1.1.364a2.252 2.252 0 0 0-1.434 2.849 2.263 2.263 0 0 0 2.86 1.429l8.646-2.86a2.251 2.251 0 0 0 1.435-2.848 2.265 2.265 0 0 0-2.86-1.429M231.514 122.657l-1.1.363a3.416 3.416 0 0 0-4.407-2.488 3.397 3.397 0 0 0-2.04 4.62l-1.1.363a2.252 2.252 0 0 0-1.435 2.848 2.264 2.264 0 0 0 2.86 1.43l8.647-2.859a2.25 2.25 0 0 0 1.434-2.848 2.263 2.263 0 0 0-2.859-1.43M183.373 121.283a5.85 5.85 0 0 0-.208-.41c-1.502-2.63-4.86-3.55-7.5-2.053a5.469 5.469 0 0 0-2.776 4.763 3.512 3.512 0 0 0-2.017 4.5l-1.048.595a3.263 3.263 0 0 0-1.23 4.46 3.29 3.29 0 0 0 4.477 1.225l12.34-6.994a3.263 3.263 0 0 0 1.23-4.46 3.285 3.285 0 0 0-3.268-1.626M105.232 196.984a5.228 5.228 0 0 0-.325-.327 5.514 5.514 0 0 0-7.77.364 5.46 5.46 0 0 0-1.157 5.386 3.486 3.486 0 0 0-.367.343 3.51 3.51 0 0 0-.151 4.559l-.812.887a3.261 3.261 0 0 0 .218 4.62 3.293 3.293 0 0 0 4.639-.217l9.557-10.46a3.26 3.26 0 0 0-.218-4.619 3.293 3.293 0 0 0-3.614-.536M244.488 103.268a5.49 5.49 0 0 0-.123-.443c-.957-2.871-4.069-4.426-6.952-3.474a5.48 5.48 0 0 0-3.658 4.132 3.39 3.39 0 0 0-.488.12 3.518 3.518 0 0 0-2.373 3.9l-1.144.378a3.268 3.268 0 0 0-2.081 4.134 3.286 3.286 0 0 0 4.15 2.074l13.475-4.455a3.267 3.267 0 0 0-.806-6.366M342.696 126.873l-1.151-.13a3.405 3.405 0 0 0-2.953-4.101 3.412 3.412 0 0 0-3.797 3.343l-1.152-.13a2.26 2.26 0 0 0-2.502 1.986 2.254 2.254 0 0 0 1.994 2.491l9.053 1.019a2.26 2.26 0 0 0 2.502-1.986 2.255 2.255 0 0 0-1.994-2.492M362.638 114.694a5.5 5.5 0 0 0 .075-.452c.341-3.007-1.83-5.719-4.848-6.06a5.502 5.502 0 0 0-5.06 2.222 3.782 3.782 0 0 0-.493-.096 3.534 3.534 0 0 0-3.797 2.55l-1.198-.136a3.281 3.281 0 0 0-3.63 2.884 3.274 3.274 0 0 0 2.893 3.617l14.108 1.587a3.281 3.281 0 0 0 3.632-2.882 3.268 3.268 0 0 0-1.682-3.234"/>
        </g>
        <text fill="#FFF" font-family="SFUIDisplay-Heavy, SF UI Display" font-size="25" font-weight="600" letter-spacing="-.603" mask="url(#c)">
            <tspan x="14" y="84">Với Xtrip du lịch </tspan> <tspan x="14" y="114">thật dễ dàng</tspan>
        </text>
        <path fill="#FFF" fill-opacity=".5" d="M61.82 156.403a.528.528 0 0 1-.011-1.055c.53-.01 1.06-.016 1.591-.016l.536.002a.527.527 0 0 1-.004 1.054h-.004l-.528-.001c-.523 0-1.047.005-1.57.016h-.01zm6.862.172l-.039-.001a69.201 69.201 0 0 0-2.093-.12.527.527 0 0 1-.504-.55.534.534 0 0 1 .55-.504c.708.03 1.417.07 2.124.122a.527.527 0 0 1-.038 1.053zm-11.611.06a.527.527 0 0 1-.04-1.052c.706-.055 1.413-.101 2.121-.138a.526.526 0 1 1 .055 1.053 84.157 84.157 0 0 0-2.136.138zm16.337.456a.482.482 0 0 1-.077-.006c-.68-.1-1.379-.19-2.078-.27a.527.527 0 1 1 .118-1.047c.712.08 1.422.172 2.114.274a.527.527 0 0 1-.077 1.049zm-21.066.035a.528.528 0 0 1-.067-1.05c.701-.091 1.405-.174 2.11-.25a.526.526 0 1 1 .112 1.05c-.698.074-1.393.156-2.087.245a.497.497 0 0 1-.068.005zm-4.7.722a.527.527 0 0 1-.09-1.046 100.27 100.27 0 0 1 2.094-.35.526.526 0 1 1 .163 1.042c-.695.108-1.385.224-2.073.347a.556.556 0 0 1-.093.007zm30.438.119a.543.543 0 0 1-.12-.013c-.667-.155-1.356-.3-2.047-.433a.528.528 0 0 1 .198-1.035c.704.135 1.406.283 2.087.44a.527.527 0 0 1-.118 1.041zm-35.097.843a.527.527 0 0 1-.121-1.04c.71-.17 1.406-.324 2.079-.465a.527.527 0 0 1 .215 1.032c-.663.14-1.349.292-2.05.458a.517.517 0 0 1-.123.015zm39.69.383a.536.536 0 0 1-.145-.02c-.674-.193-1.35-.383-2.03-.57a.527.527 0 1 1 .282-1.017c.682.189 1.362.379 2.038.573a.527.527 0 0 1-.145 1.034zm-44.273.89a.528.528 0 0 1-.162-1.03c.662-.213 1.35-.42 2.044-.615a.528.528 0 0 1 .285 1.015c-.682.192-1.357.395-2.005.604a.542.542 0 0 1-.162.025zm48.83.468a.525.525 0 0 1-.156-.024c-.67-.208-1.341-.413-2.016-.615a.527.527 0 0 1 .302-1.01c.679.203 1.354.409 2.027.618a.527.527 0 0 1-.156 1.03zm-75.273.825a.528.528 0 0 1-.043-1.053c.72-.057 1.44-.096 2.14-.115a.52.52 0 0 1 .541.512.527.527 0 0 1-.512.542 39.877 39.877 0 0 0-2.126.114zm6.857.087a.498.498 0 0 1-.062-.004 30.08 30.08 0 0 0-2.07-.17.528.528 0 0 1 .052-1.054c.726.035 1.447.095 2.142.177a.528.528 0 0 1-.062 1.05zm15.139.304a.527.527 0 0 1-.216-1.01c.634-.28 1.3-.556 1.98-.817a.527.527 0 1 1 .378.984c-.663.255-1.311.523-1.928.797a.528.528 0 0 1-.214.046zm-26.712.238a.527.527 0 0 1-.094-1.046c.706-.13 1.416-.245 2.109-.342a.527.527 0 1 1 .146 1.045c-.678.095-1.374.207-2.065.334a.546.546 0 0 1-.096.009zm84.512.013a.53.53 0 0 1-.17-.028c-.664-.225-1.33-.446-1.998-.665a.527.527 0 0 1 .326-1.002c.673.219 1.343.442 2.012.669a.527.527 0 0 1-.17 1.026zm-68.255.305a.523.523 0 0 1-.12-.013 55.076 55.076 0 0 0-2.05-.439.527.527 0 1 1 .2-1.036c.678.132 1.381.282 2.09.448a.527.527 0 0 1-.12 1.04zm-20.894.737a.528.528 0 0 1-.137-1.037 60.263 60.263 0 0 1 2.069-.52.528.528 0 0 1 .239 1.028c-.666.154-1.35.326-2.033.51a.521.521 0 0 1-.138.019zm25.481.537a.53.53 0 0 1-.162-.026 55.418 55.418 0 0 0-2.006-.607.527.527 0 0 1 .286-1.015c.693.196 1.38.403 2.045.619a.528.528 0 0 1-.163 1.029zm68.148.013a.52.52 0 0 1-.184-.033 160.81 160.81 0 0 0-1.978-.721.527.527 0 1 1 .354-.993c.667.237 1.33.479 1.992.726a.527.527 0 0 1-.184 1.021zm-98.172.849a.527.527 0 0 1-.172-1.026c.668-.23 1.343-.453 2.023-.665a.528.528 0 0 1 .314 1.006c-.67.21-1.334.428-1.993.656a.528.528 0 0 1-.172.029zm34.468.837a.52.52 0 0 1-.216-.048 38.069 38.069 0 0 0-1.925-.804.527.527 0 0 1-.337-.51.527.527 0 0 1-.571-.886c.58-.38 1.202-.75 1.85-1.104a.527.527 0 0 1 .506.926c-.357.194-.706.395-1.044.6.676.261 1.334.536 1.955.818a.527.527 0 0 1-.218 1.008zm68.133.042a.53.53 0 0 1-.2-.04 145.11 145.11 0 0 0-1.954-.782.526.526 0 1 1 .385-.982c.658.258 1.314.521 1.968.788a.527.527 0 0 1-.2 1.016zm-107.043.81a.529.529 0 0 1-.202-1.015c.65-.27 1.308-.533 1.974-.789a.527.527 0 1 1 .378.984c-.657.253-1.307.513-1.948.78a.529.529 0 0 1-.202.04zm32.509.907a.526.526 0 0 1-.39-.883c.472-.516 1-1.024 1.57-1.509a.527.527 0 1 1 .683.804c-.536.456-1.032.932-1.474 1.416a.526.526 0 0 1-.39.172zm78.902.156a.523.523 0 0 1-.216-.046c-.64-.288-1.283-.57-1.926-.848a.527.527 0 1 1 .417-.969c.648.28 1.296.565 1.941.855a.527.527 0 0 1-.216 1.008zm-68.355.408a.523.523 0 0 1-.305-.098 20.199 20.199 0 0 0-1.74-1.102.527.527 0 1 1 .52-.917c.66.375 1.277.765 1.832 1.16a.528.528 0 0 1-.307.957zm-47.392.478a.527.527 0 0 1-.23-1.002 84.206 84.206 0 0 1 1.925-.903.528.528 0 0 1 .436.96c-.647.293-1.28.591-1.902.892a.524.524 0 0 1-.23.053zm120.046 1.14a.527.527 0 0 1-.233-.054c-.63-.311-1.261-.617-1.894-.916a.527.527 0 1 1 .451-.953c.638.302 1.274.61 1.91.923a.528.528 0 0 1-.234 1zm-124.221 1.132a.529.529 0 0 1-.276-.978 49.044 49.044 0 0 1 1.847-1.073.527.527 0 1 1 .51.923c-.597.329-1.204.683-1.807 1.05a.528.528 0 0 1-.274.078zm54.827.656a.527.527 0 0 1-.462-.272 7.923 7.923 0 0 0-1.178-1.582.527.527 0 1 1 .767-.724c.547.58.995 1.184 1.333 1.796a.527.527 0 0 1-.46.782zm-16.331.02a.527.527 0 0 1-.49-.719c.26-.674.589-1.337.975-1.971a.527.527 0 0 1 .9.549 11.475 11.475 0 0 0-.894 1.804.527.527 0 0 1-.491.337zm89.948.374a.522.522 0 0 1-.25-.062l-.47-.252c-.463-.249-.927-.493-1.39-.734a.528.528 0 0 1 .486-.936c.468.243.935.49 1.402.74l.472.253a.528.528 0 0 1-.25.991zm-132.392 1.6a.526.526 0 0 1-.312-.953 60.522 60.522 0 0 1 1.742-1.23.528.528 0 0 1 .593.873c-.568.386-1.144.793-1.711 1.208a.523.523 0 0 1-.312.102zm136.568.678a.518.518 0 0 1-.257-.067c-.62-.346-1.237-.685-1.847-1.018a.527.527 0 0 1 .506-.926c.612.335 1.232.675 1.855 1.023a.527.527 0 0 1-.257.988zm-77.303 1.912a.527.527 0 0 1-.505-.68 5.6 5.6 0 0 0 .245-1.603c0-.1-.003-.2-.009-.298a.527.527 0 0 1 .494-.559.518.518 0 0 1 .558.494c.008.12.012.241.012.363 0 .625-.098 1.267-.29 1.907a.528.528 0 0 1-.505.376zm-17.354.08a.528.528 0 0 1-.511-.4c-.12-.48-.18-.985-.18-1.502 0-.254.014-.517.043-.78a.527.527 0 1 1 1.048.115c-.024.226-.037.45-.037.665 0 .43.05.85.15 1.246a.528.528 0 0 1-.513.655zm-45.64.279a.527.527 0 0 1-.342-.929c.54-.458 1.088-.91 1.644-1.354a.527.527 0 0 1 .658.824c-.548.437-1.088.882-1.618 1.333a.526.526 0 0 1-.341.126zm144.417.102a.523.523 0 0 1-.27-.075c-.606-.362-1.211-.717-1.816-1.065a.527.527 0 1 1 .528-.914c.608.352 1.219.71 1.828 1.074a.527.527 0 0 1-.27.98zm4.03 2.522c-.1 0-.2-.028-.29-.087a99.585 99.585 0 0 0-1.768-1.137.528.528 0 0 1 .56-.893c.6.377 1.196.76 1.788 1.149a.528.528 0 0 1-.29.968zm-151.964.573a.527.527 0 0 1-.362-.911l.342-.325a72.83 72.83 0 0 1 1.202-1.128.527.527 0 1 1 .713.777c-.402.368-.797.74-1.185 1.112l-.349.331a.524.524 0 0 1-.36.144zm63.656.103a.528.528 0 0 1-.28-.975 6.512 6.512 0 0 0 1.491-1.253.528.528 0 0 1 .797.692 7.565 7.565 0 0 1-1.73 1.456.528.528 0 0 1-.278.08zm-11.633.05a.52.52 0 0 1-.27-.074 7.523 7.523 0 0 1-1.755-1.43.528.528 0 0 1 .787-.702c.41.46.919.873 1.51 1.227a.528.528 0 0 1-.272.98zm7.143 1.395a.528.528 0 0 1-.053-1.052c.685-.07 1.352-.198 1.983-.378a.528.528 0 0 1 .29 1.013c-.69.198-1.418.337-2.165.415a.646.646 0 0 1-.055.002zm-2.636.007a12.935 12.935 0 0 1-2.217-.4.527.527 0 1 1 .28-1.018c.634.175 1.303.298 1.988.366a.526.526 0 0 1-.051 1.052zm99.331.599a.527.527 0 0 1-.315-.105 72.694 72.694 0 0 0-1.699-1.232.527.527 0 1 1 .607-.863c.581.41 1.156.826 1.723 1.25a.527.527 0 0 1-.316.95zm-159.273 1.161a.526.526 0 0 1-.381-.891c.454-.476.947-.971 1.506-1.513a.527.527 0 1 1 .734.757 54.576 54.576 0 0 0-1.478 1.484.522.522 0 0 1-.38.163zm162.971 1.83a.527.527 0 0 1-.35-.132 52.238 52.238 0 0 0-1.596-1.352.527.527 0 1 1 .667-.818c.563.459 1.11.924 1.628 1.38a.528.528 0 0 1-.349.922zm-165.96 1.861a.527.527 0 0 1-.447-.807c.345-.551.774-1.145 1.274-1.764a.529.529 0 0 1 .82.662 17.186 17.186 0 0 0-1.2 1.661.527.527 0 0 1-.448.248zm169.357 1.464a.524.524 0 0 1-.39-.172c-.455-.5-.941-1.006-1.445-1.504a.527.527 0 0 1 .742-.75c.517.511 1.015 1.03 1.483 1.545a.527.527 0 0 1-.39.881z" mask="url(#c)" transform="scale(1 -1) rotate(1 19702.29 0)"/>
        <path fill="#FFF" fill-opacity=".4" d="M368.679-20.102a.442.442 0 0 1-.369-.197c-.207-.311-.698-.784-1.15-1.206a.443.443 0 0 1 .604-.647c.594.554 1.04.998 1.282 1.362a.442.442 0 0 1-.367.688zm1.892 3.499a.443.443 0 0 1-.412-.282l-.101-.254c-.163-.398-.37-.82-.63-1.291a.443.443 0 0 1 .773-.43c.279.502.5.956.676 1.388l.106.265a.442.442 0 0 1-.412.604zm-41.517 1.765a.446.446 0 0 1-.11-.013 9.91 9.91 0 0 0-1.666-.275.442.442 0 1 1 .064-.883 10.832 10.832 0 0 1 1.821.3.442.442 0 0 1-.109.871zm-5.68.177a.443.443 0 0 1-.122-.868 13.687 13.687 0 0 1 1.787-.388.442.442 0 1 1 .127.876c-.54.079-1.103.2-1.671.363a.43.43 0 0 1-.122.017zm9.257 1.515a.437.437 0 0 1-.26-.085c-.462-.336-.95-.632-1.447-.881a.442.442 0 1 1 .396-.791c.54.27 1.07.592 1.57.956a.442.442 0 0 1-.26.8zm-12.924.022a.442.442 0 0 1-.213-.83 20.615 20.615 0 0 1 1.623-.8.442.442 0 0 1 .354.81c-.515.226-1.037.483-1.552.765a.442.442 0 0 1-.212.055zm51.887.361a.442.442 0 0 1-.437-.377 17.32 17.32 0 0 0-.339-1.692.443.443 0 0 1 .858-.217 18.3 18.3 0 0 1 .356 1.778.443.443 0 0 1-.438.508zm-55.198 1.85a.442.442 0 0 1-.276-.788c.47-.376.958-.736 1.451-1.073a.443.443 0 0 1 .499.732c-.475.323-.945.67-1.399 1.032a.44.44 0 0 1-.275.097zm19.018.595a.442.442 0 0 1-.36-.185c-.337-.47-.703-.913-1.087-1.32a.443.443 0 1 1 .643-.608c.412.436.803.911 1.162 1.412a.442.442 0 0 1-.358.7zm36.437 1.526a.442.442 0 0 1-.442-.44 36.707 36.707 0 0 0-.044-1.75.443.443 0 0 1 .884-.044c.028.542.042 1.128.045 1.79a.442.442 0 0 1-.441.444h-.002zm-58.342.62a.443.443 0 0 1-.334-.733c.386-.442.806-.883 1.249-1.31a.442.442 0 1 1 .614.637c-.425.41-.827.832-1.195 1.255a.443.443 0 0 1-.334.151zM337.261-6.8a.442.442 0 0 1-.416-.29 14.76 14.76 0 0 0-.683-1.578.442.442 0 0 1 .79-.399c.271.538.515 1.1.725 1.672a.443.443 0 0 1-.416.595zm-25.989 1.916a.443.443 0 0 1-.393-.645c.275-.537.585-1.065.919-1.57a.443.443 0 0 1 .738.489c-.317.477-.609.977-.87 1.485a.443.443 0 0 1-.394.241zm60.5.076l-.032-.001a.442.442 0 0 1-.41-.472c.027-.388.043-.779.048-1.162l.01-.584a.45.45 0 0 1 .449-.435c.244.004.439.205.435.45l-.009.582c-.006.399-.023.806-.05 1.21a.443.443 0 0 1-.442.412zm-33.64 1.884a.442.442 0 0 1-.44-.403 14.563 14.563 0 0 0-.255-1.698.441.441 0 1 1 .866-.182c.126.595.216 1.201.27 1.801a.442.442 0 0 1-.441.482zM309.917-1.15a.443.443 0 0 1-.432-.54c.133-.589.302-1.177.5-1.749a.442.442 0 1 1 .835.29c-.187.54-.346 1.097-.472 1.655a.443.443 0 0 1-.431.344zm61.222.264a.441.441 0 0 1-.429-.552c.143-.558.264-1.128.362-1.695a.443.443 0 0 1 .872.15 22.68 22.68 0 0 1-.376 1.764c-.051.2-.23.333-.429.333zm-33.158 1.934a.443.443 0 0 1-.439-.501c.077-.576.136-1.159.175-1.732a.442.442 0 1 1 .883.06 27.77 27.77 0 0 1-.18 1.79.443.443 0 0 1-.439.383zm-28.458 1.756a.443.443 0 0 1-.442-.43 16.936 16.936 0 0 1 .057-1.817.437.437 0 0 1 .478-.404c.244.02.424.235.403.478a16.082 16.082 0 0 0-.053 1.72.442.442 0 0 1-.432.453h-.01zm60.298.057a.441.441 0 0 1-.403-.624 23.4 23.4 0 0 0 .654-1.608.443.443 0 0 1 .832.303 23.978 23.978 0 0 1-.68 1.668.44.44 0 0 1-.403.26zm-32.638 2.085a.442.442 0 0 1-.427-.56c.155-.561.294-1.131.414-1.694a.442.442 0 1 1 .865.185c-.123.58-.266 1.166-.426 1.744a.442.442 0 0 1-.426.325zm30.714 1.401a.443.443 0 0 1-.369-.686c.321-.487.626-.987.908-1.486a.442.442 0 1 1 .77.434 26.479 26.479 0 0 1-.94 1.54.44.44 0 0 1-.37.198zm-57.82.393a.443.443 0 0 1-.428-.33 17.717 17.717 0 0 1-.369-1.777.442.442 0 1 1 .875-.135c.087.565.205 1.133.35 1.688a.444.444 0 0 1-.428.554zm25.818 1.973a.443.443 0 0 1-.41-.61c.222-.542.43-1.092.62-1.633a.443.443 0 0 1 .835.292 36.92 36.92 0 0 1-.635 1.676.443.443 0 0 1-.41.275zm29.584.794a.44.44 0 0 1-.332-.735 29.7 29.7 0 0 0 1.112-1.342.442.442 0 1 1 .698.545c-.364.466-.75.93-1.147 1.382a.44.44 0 0 1-.331.15zm-53.968.942a.443.443 0 0 1-.393-.238 18.46 18.46 0 0 1-.757-1.648.442.442 0 1 1 .82-.33c.213.53.455 1.058.722 1.57a.442.442 0 0 1-.392.646zm22.7 1.874a.444.444 0 0 1-.391-.648c.273-.521.537-1.048.783-1.568a.443.443 0 0 1 .8.38c-.252.53-.52 1.068-.8 1.6a.441.441 0 0 1-.392.236zm28.454 0a.442.442 0 0 1-.293-.773c.435-.386.864-.788 1.275-1.192a.443.443 0 0 1 .622.63c-.423.415-.863.828-1.31 1.224a.44.44 0 0 1-.294.112zm-48.956 1.439a.442.442 0 0 1-.343-.164c-.366-.45-.72-.921-1.05-1.4l-.033-.048a.442.442 0 0 1 .733-.496l.025.037c.32.464.66.917 1.011 1.349a.443.443 0 0 1-.343.722zm45.834 1.034a.443.443 0 0 1-.256-.803c.475-.336.948-.688 1.405-1.045a.442.442 0 1 1 .544.698c-.467.365-.951.725-1.437 1.069a.443.443 0 0 1-.256.081zm-27.321.979a.443.443 0 0 1-.375-.677c.311-.497.615-.998.91-1.504a.443.443 0 0 1 .765.446c-.3.513-.609 1.022-.925 1.527a.442.442 0 0 1-.375.208zm-15.73.83a.439.439 0 0 1-.285-.105c-.458-.389-.905-.801-1.328-1.224a.443.443 0 0 1 .625-.626c.407.407.836.802 1.275 1.176a.442.442 0 0 1-.286.78zm39.688.326a.442.442 0 0 1-.22-.827 40.53 40.53 0 0 0 1.505-.897.443.443 0 0 1 .47.75c-.499.312-1.016.62-1.537.916a.44.44 0 0 1-.218.058zm-3.56 1.807a.442.442 0 0 1-.181-.846 44.12 44.12 0 0 0 1.586-.754.443.443 0 0 1 .396.791c-.531.266-1.076.524-1.619.77a.436.436 0 0 1-.181.039zm-32.88.164a.438.438 0 0 1-.223-.06 23.818 23.818 0 0 1-1.522-.969.443.443 0 0 1 .504-.728c.47.325.962.64 1.465.933a.443.443 0 0 1-.224.824zm10.262.18a.442.442 0 0 1-.358-.702c.312-.432.618-.87.919-1.313l.087-.129a.442.442 0 1 1 .73.5l-.085.126c-.306.45-.617.894-.933 1.334a.443.443 0 0 1-.36.184zm18.913 1.13a.442.442 0 0 1-.145-.86 46.476 46.476 0 0 0 1.647-.609.442.442 0 1 1 .323.823c-.552.217-1.117.426-1.68.62a.428.428 0 0 1-.145.026zm-25.59.412a.442.442 0 0 1-.16-.03 26.473 26.473 0 0 1-1.654-.706.442.442 0 0 1 .375-.801c.52.243 1.058.473 1.6.682a.443.443 0 0 1-.16.855zm21.773.727a.442.442 0 0 1-.107-.87c.56-.141 1.129-.296 1.691-.46a.442.442 0 1 1 .25.848c-.575.168-1.155.326-1.726.47a.432.432 0 0 1-.108.012zm-3.9.795a.443.443 0 0 1-.068-.88c.57-.089 1.15-.192 1.724-.305a.442.442 0 1 1 .172.868c-.585.116-1.176.22-1.758.312a.462.462 0 0 1-.07.005zm-13.632.077a.44.44 0 0 1-.442-.431.428.428 0 0 1-.096-.011 29.877 29.877 0 0 1-1.736-.46.442.442 0 1 1 .252-.848c.546.162 1.114.312 1.686.446.13.03.232.115.29.224.273-.333.542-.67.808-1.009a.442.442 0 1 1 .696.546 61.04 61.04 0 0 1-1.117 1.384.444.444 0 0 1-.34.159zm3.488.227l-.047-.003c-.6-.063-1.198-.143-1.778-.236a.442.442 0 0 1 .14-.873c.564.09 1.146.167 1.731.23a.441.441 0 0 1-.046.882zm6.187.127a.443.443 0 0 1-.026-.884 41.083 41.083 0 0 0 1.746-.143.45.45 0 0 1 .486.394.443.443 0 0 1-.395.486c-.596.061-1.196.11-1.784.146h-.027zm-2.361.072c-.55 0-1.103-.012-1.64-.036a.443.443 0 0 1 .038-.884 37.57 37.57 0 0 0 1.602.035h.146c.25.016.444.194.446.438a.442.442 0 0 1-.439.447h-.153zm-9.96 2.542a.442.442 0 0 1-.32-.747 58.54 58.54 0 0 0 1.192-1.289.442.442 0 1 1 .659.591c-.397.442-.8.878-1.21 1.308a.44.44 0 0 1-.32.137zm-2.838 2.794a.443.443 0 0 1-.3-.768c.43-.398.856-.801 1.275-1.21a.442.442 0 1 1 .618.632c-.425.415-.856.824-1.293 1.228a.44.44 0 0 1-.3.118zm-3.007 2.617a.443.443 0 0 1-.28-.784c.454-.372.903-.75 1.347-1.134a.443.443 0 0 1 .58.67c-.45.388-.906.77-1.367 1.148a.442.442 0 0 1-.28.1zm-3.155 2.444a.443.443 0 0 1-.262-.799c.476-.348.946-.7 1.412-1.058a.443.443 0 0 1 .539.701c-.472.362-.947.72-1.428 1.071a.442.442 0 0 1-.26.085zm-3.283 2.275a.442.442 0 0 1-.243-.812c.493-.324.981-.652 1.466-.985a.442.442 0 0 1 .501.729c-.49.337-.983.668-1.482.995a.435.435 0 0 1-.242.073zm-3.391 2.11a.443.443 0 0 1-.226-.823 87.93 87.93 0 0 0 1.513-.915.441.441 0 1 1 .465.753c-.506.313-1.015.62-1.527.923a.441.441 0 0 1-.225.062zm-3.484 1.956a.443.443 0 0 1-.21-.833 93.38 93.38 0 0 0 1.553-.847.442.442 0 1 1 .431.773c-.519.29-1.04.574-1.566.855a.442.442 0 0 1-.208.052zm-3.562 1.808a.442.442 0 0 1-.193-.84c.531-.257 1.06-.518 1.586-.783a.442.442 0 1 1 .398.79c-.53.267-1.063.53-1.599.79a.441.441 0 0 1-.192.043zm-3.627 1.672a.443.443 0 0 1-.178-.848c.54-.236 1.077-.478 1.613-.724a.443.443 0 0 1 .369.805c-.54.248-1.082.49-1.627.73a.442.442 0 0 1-.177.037zm-3.682 1.542a.443.443 0 0 1-.164-.853c.548-.218 1.093-.44 1.637-.667a.442.442 0 1 1 .34.816c-.548.228-1.098.453-1.649.673a.438.438 0 0 1-.164.031zm-3.728 1.423a.443.443 0 0 1-.151-.858c.553-.202 1.105-.407 1.656-.616a.441.441 0 1 1 .314.828c-.554.21-1.11.417-1.668.62a.444.444 0 0 1-.15.026zm-3.766 1.311a.443.443 0 0 1-.14-.862c.56-.185 1.117-.375 1.674-.567a.442.442 0 0 1 .29.835c-.56.195-1.122.385-1.684.572a.44.44 0 0 1-.14.022zM283.6 48.35a.443.443 0 0 1-.129-.865c.564-.172 1.126-.346 1.687-.523a.443.443 0 0 1 .266.844c-.564.178-1.13.353-1.695.525a.447.447 0 0 1-.13.02zm-3.823 1.11a.443.443 0 0 1-.118-.868 193.97 193.97 0 0 0 1.697-.48.443.443 0 0 1 .245.85c-.568.163-1.137.325-1.706.482a.442.442 0 0 1-.118.016zm-108.656.616a.435.435 0 0 1-.165-.032 23.414 23.414 0 0 1-1.648-.738.442.442 0 1 1 .393-.792c.491.244 1.024.482 1.586.71a.442.442 0 0 1-.166.852zm104.811.404a.443.443 0 0 1-.108-.87c.568-.146 1.138-.293 1.707-.442a.442.442 0 1 1 .225.855c-.572.15-1.143.299-1.715.444a.467.467 0 0 1-.109.013zm-101.028.84a.431.431 0 0 1-.115-.016 39.233 39.233 0 0 1-1.719-.502.443.443 0 0 1 .269-.844c.534.17 1.1.336 1.68.492a.442.442 0 0 1-.115.87zm97.16.099a.443.443 0 0 1-.1-.873 209.83 209.83 0 0 0 1.721-.407.442.442 0 1 1 .208.86c-.577.139-1.153.275-1.728.409a.466.466 0 0 1-.1.011zm-93.27.765a.444.444 0 0 1-.08-.008 53.903 53.903 0 0 1-1.752-.347.443.443 0 0 1 .188-.865c.556.12 1.136.235 1.723.341a.443.443 0 0 1-.078.879zm89.38.098a.443.443 0 0 1-.091-.875c.575-.122 1.15-.247 1.728-.374a.443.443 0 0 1 .19.864c-.58.128-1.157.253-1.735.375a.439.439 0 0 1-.092.01zm-85.436.474a.48.48 0 0 1-.05-.002 63.969 63.969 0 0 1-1.77-.224.443.443 0 0 1 .124-.876 60.17 60.17 0 0 0 1.745.22.443.443 0 0 1-.049.882zm3.973.308h-.026l-.636-.035a51.184 51.184 0 0 1-1.139-.07.442.442 0 1 1 .065-.883c.386.028.76.052 1.12.07l.64.034a.442.442 0 0 1-.024.884zm77.557.01a.443.443 0 0 1-.084-.877c.577-.112 1.155-.226 1.734-.343a.443.443 0 0 1 .175.868c-.581.117-1.162.232-1.74.344a.423.423 0 0 1-.085.008zm-73.583.264l-.037-.001c-.587-.048-1.174-.093-1.76-.135a.442.442 0 1 1 .062-.882c.59.042 1.18.087 1.77.135a.442.442 0 0 1-.035.883zm3.968.356c-.015 0-.029 0-.044-.002-.587-.057-1.173-.112-1.76-.166a.443.443 0 0 1 .08-.881c.589.054 1.177.11 1.766.167a.441.441 0 0 1-.042.882zm65.696.105a.442.442 0 0 1-.077-.877c.578-.103 1.158-.208 1.74-.315a.443.443 0 0 1 .16.87c-.583.108-1.166.213-1.746.315a.424.424 0 0 1-.077.007zm-61.733.299l-.047-.003c-.586-.062-1.173-.122-1.76-.182a.443.443 0 0 1 .09-.88c.588.059 1.175.12 1.763.183a.442.442 0 0 1-.046.882zm57.803.366a.443.443 0 0 1-.07-.879c.58-.094 1.161-.19 1.745-.288a.443.443 0 0 1 .147.873c-.586.099-1.17.195-1.75.288a.434.434 0 0 1-.072.006zm-53.84.051c-.016 0-.032 0-.047-.003l-1.761-.184a.442.442 0 1 1 .092-.88l1.761.185a.443.443 0 0 1-.046.882zm3.965.397c-.014 0-.028 0-.043-.002-.587-.056-1.176-.113-1.764-.172a.442.442 0 0 1 .088-.88c.587.058 1.174.116 1.76.171a.442.442 0 0 1-.041.883zm45.936.16a.443.443 0 0 1-.062-.88l1.747-.262a.442.442 0 1 1 .134.875l-1.755.263a.44.44 0 0 1-.064.005zm-41.968.183l-.035-.001-1.767-.146a.442.442 0 0 1-.403-.478.438.438 0 0 1 .479-.403l1.761.144a.442.442 0 0 1-.035.884zm3.972.3c-.01 0-.021 0-.032-.002-.59-.042-1.18-.084-1.767-.129a.443.443 0 0 1 .066-.882l1.764.13a.442.442 0 0 1-.03.883zm34.042.008a.442.442 0 0 1-.046-.882c.586-.062 1.17-.128 1.753-.2a.442.442 0 0 1 .107.878c-.587.073-1.176.14-1.767.202a.554.554 0 0 1-.047.002zm-30.068.254l-.027-.001c-.591-.036-1.18-.073-1.769-.112a.443.443 0 0 1-.413-.47.447.447 0 0 1 .471-.413c.587.039 1.175.076 1.765.112a.442.442 0 0 1-.027.884zm26.1.1a.443.443 0 0 1-.033-.884c.588-.043 1.175-.09 1.76-.14a.439.439 0 0 1 .478.402.441.441 0 0 1-.402.479 128.006 128.006 0 0 1-1.804.142zm-22.122.115h-.022c-.59-.028-1.182-.058-1.77-.09a.442.442 0 0 1 .047-.884c.587.032 1.176.061 1.765.09a.443.443 0 0 1-.02.884zm18.143.116a.442.442 0 0 1-.02-.884c.59-.026 1.178-.056 1.764-.089a.443.443 0 0 1 .05.884c-.59.033-1.182.063-1.774.089h-.02zm-14.163.043h-.014c-.591-.02-1.182-.04-1.773-.064a.442.442 0 0 1 .034-.884c.589.023 1.178.044 1.767.063a.443.443 0 0 1-.014.885zm10.18.081a.443.443 0 0 1-.008-.884c.59-.011 1.178-.026 1.766-.043a.45.45 0 0 1 .455.43.442.442 0 0 1-.429.455c-.591.017-1.183.031-1.775.042h-.009zm-6.197.012h-.007c-.591-.008-1.182-.02-1.773-.033a.443.443 0 0 1-.433-.452c.006-.245.223-.428.453-.433.589.014 1.177.025 1.766.033a.443.443 0 0 1-.006.885zm2.817.02l-.604-.001a.442.442 0 0 1 .001-.885h.001l.602.001c.388 0 .776-.001 1.165-.004h.003a.443.443 0 0 1 .002.885c-.39.003-.78.004-1.17.004z" mask="url(#c)" transform="rotate(30 270.678 17.016)"/>
        <path fill="#FFF" fill-opacity=".4" d="M7.677 175.668a.432.432 0 0 1-.223-.061l-.304-.18a135.61 135.61 0 0 1-1.21-.716.44.44 0 1 1 .454-.753c.402.241.802.477 1.201.712l.306.18a.44.44 0 0 1-.224.818m3.328 2.122a.439.439 0 0 1-.258-.084 27.524 27.524 0 0 0-1.43-.968.44.44 0 0 1 .472-.742 28.4 28.4 0 0 1 1.475.999.44.44 0 0 1-.259.795m2.962 2.603a.437.437 0 0 1-.313-.131 61.005 61.005 0 0 0-.674-.675 18.667 18.667 0 0 0-.564-.533.44.44 0 0 1 .59-.652c.198.18.395.366.591.559.23.226.458.455.684.685a.44.44 0 0 1-.314.747m2.679 2.901a.438.438 0 0 1-.332-.151 67.728 67.728 0 0 0-1.16-1.301.44.44 0 1 1 .647-.593c.399.434.79.873 1.177 1.318a.44.44 0 0 1-.332.727m2.506 3.052a.438.438 0 0 1-.347-.17 73.88 73.88 0 0 0-1.086-1.365.439.439 0 1 1 .68-.555c.373.456.74.917 1.1 1.381a.44.44 0 0 1-.347.71m2.346 3.176a.439.439 0 0 1-.36-.187c-.335-.476-.674-.95-1.018-1.418a.44.44 0 0 1 .708-.52c.348.474.691.952 1.03 1.433a.44.44 0 0 1-.36.692m2.18 3.292a.438.438 0 0 1-.377-.21c-.3-.494-.613-.988-.931-1.469a.44.44 0 0 1 .732-.485c.325.49.644.993.95 1.496a.44.44 0 0 1-.375.668m1.917 3.452a.439.439 0 0 1-.392-.242 49.567 49.567 0 0 0-.811-1.54.44.44 0 0 1 .77-.423c.282.513.56 1.04.825 1.568a.44.44 0 0 1-.392.637m1.636 3.593a.44.44 0 0 1-.407-.274 49.984 49.984 0 0 0-.686-1.599.44.44 0 0 1 .802-.36c.24.535.475 1.082.698 1.627a.44.44 0 0 1-.407.606m1.352 3.71a.44.44 0 0 1-.419-.306 48.222 48.222 0 0 0-.56-1.647.44.44 0 0 1 .828-.297c.201.558.392 1.123.569 1.677a.44.44 0 0 1-.418.573m1.054 3.805a.44.44 0 0 1-.428-.339 47.363 47.363 0 0 0-.427-1.686.44.44 0 0 1 .848-.232c.156.571.302 1.149.435 1.718a.44.44 0 0 1-.428.54m.741 3.878a.44.44 0 0 1-.434-.375 46.381 46.381 0 0 0-.287-1.715.439.439 0 1 1 .864-.161c.107.578.206 1.166.292 1.747a.44.44 0 0 1-.435.504m.408 3.927a.44.44 0 0 1-.438-.413c-.034-.571-.08-1.154-.137-1.732a.44.44 0 0 1 .874-.087c.058.59.106 1.184.14 1.767a.44.44 0 0 1-.439.465m.055 3.949h-.013a.44.44 0 0 1-.427-.452l.016-.71c.004-.236.006-.472.006-.708l-.001-.322a.439.439 0 0 1 .435-.442h.004a.44.44 0 0 1 .44.436v.328a43.992 43.992 0 0 1-.021 1.442.44.44 0 0 1-.44.428m-.226 3.943c-.014 0-.027 0-.04-.002a.44.44 0 0 1-.399-.477c.053-.581.097-1.16.132-1.737a.44.44 0 0 1 .877.053c-.035.585-.08 1.173-.133 1.763a.44.44 0 0 1-.437.4m-11.705 1.887l-.035-.001a28.32 28.32 0 0 0-1.725-.08.44.44 0 0 1 .006-.879h.007c.586.009 1.184.037 1.78.082a.44.44 0 0 1-.033.878m-5.693.15a.44.44 0 0 1-.06-.874c.586-.08 1.184-.14 1.777-.18a.44.44 0 0 1 .058.878c-.573.038-1.15.096-1.716.172a.393.393 0 0 1-.06.005m9.6.399a.429.429 0 0 1-.087-.009 32.87 32.87 0 0 0-1.705-.3.44.44 0 1 1 .129-.87c.578.087 1.167.19 1.75.309a.44.44 0 0 1-.086.87m-13.455.438a.44.44 0 0 1-.125-.86 25.266 25.266 0 0 1 1.724-.455.44.44 0 0 1 .195.857 23.99 23.99 0 0 0-1.67.44.437.437 0 0 1-.124.018m17.275.555a.441.441 0 0 1-.132-.02c-.56-.177-1.12-.34-1.667-.486a.44.44 0 0 1 .227-.849c.56.15 1.132.316 1.703.496a.44.44 0 0 1-.131.86m-20.995.776a.44.44 0 0 1-.172-.844 32.811 32.811 0 0 1 1.656-.654.438.438 0 1 1 .3.826c-.552.201-1.094.415-1.611.636a.436.436 0 0 1-.173.036m24.703.578a.437.437 0 0 1-.169-.034 46.514 46.514 0 0 0-1.618-.636.44.44 0 1 1 .306-.824c.268.1.54.203.812.31a.437.437 0 0 1-.012-.203c.1-.56.19-1.137.269-1.717a.44.44 0 0 1 .87.119 45.23 45.23 0 0 1-.274 1.751.438.438 0 0 1-.215.306l.199.082a.44.44 0 0 1-.168.846M2.14 229.103a.439.439 0 0 1-.237-.81 21.576 21.576 0 0 1 1.548-.9.44.44 0 0 1 .41.777c-.522.277-1.023.567-1.485.863a.436.436 0 0 1-.236.07m31.79.405a.436.436 0 0 1-.197-.047c-.518-.26-1.04-.514-1.568-.76a.44.44 0 0 1 .37-.797c.536.25 1.067.507 1.593.772a.44.44 0 0 1-.198.832m-4.73 1.326a.439.439 0 0 1-.421-.563c.159-.543.309-1.106.444-1.675a.439.439 0 1 1 .855.203 33.466 33.466 0 0 1-.457 1.72.44.44 0 0 1-.421.315m8.194.57a.438.438 0 0 1-.227-.063c-.3-.181-.604-.358-.91-.531a65.169 65.169 0 0 0-.597-.333.439.439 0 1 1 .424-.77 50.662 50.662 0 0 1 1.538.882.44.44 0 0 1-.228.815m-38.26.24a.438.438 0 0 1-.335-.724 11.73 11.73 0 0 1 1.29-1.287.44.44 0 0 1 .573.666c-.448.386-.85.786-1.193 1.19a.438.438 0 0 1-.335.155m41.527 1.975a.44.44 0 0 1-.264-.088c-.465-.35-.94-.69-1.41-1.014a.44.44 0 0 1 .499-.724c.48.33.964.679 1.44 1.036a.44.44 0 0 1-.265.79m-12.833.917a.44.44 0 0 1-.399-.623c.234-.51.457-1.045.664-1.592a.439.439 0 1 1 .822.31 26.02 26.02 0 0 1-.687 1.648.44.44 0 0 1-.4.257m-30.39.614a.44.44 0 0 1-.435-.508 6.833 6.833 0 0 1 .544-1.786.44.44 0 0 1 .8.367 5.915 5.915 0 0 0-.474 1.555.44.44 0 0 1-.434.372m46.279.968a.44.44 0 0 1-.291-.11 53.486 53.486 0 0 0-1.323-1.132.439.439 0 1 1 .56-.677c.453.375.902.759 1.345 1.15a.44.44 0 0 1-.291.769m-17.836 1.846a.44.44 0 0 1-.36-.691c.321-.46.631-.947.921-1.448a.44.44 0 1 1 .76.44 21.111 21.111 0 0 1-.96 1.511.44.44 0 0 1-.361.188m20.71.86a.44.44 0 0 1-.31-.128 69.378 69.378 0 0 0-1.25-1.217.44.44 0 1 1 .605-.637c.427.404.849.815 1.266 1.231a.44.44 0 0 1-.31.751m-48.608.184a.44.44 0 0 1-.405-.271 8.762 8.762 0 0 1-.534-1.766.439.439 0 1 1 .864-.16 7.86 7.86 0 0 0 .48 1.588.44.44 0 0 1-.405.609m25.321 1.938a.439.439 0 0 1-.3-.76c.413-.386.814-.8 1.193-1.228a.44.44 0 0 1 .659.581c-.397.45-.818.883-1.251 1.289a.438.438 0 0 1-.3.118m26.019.729a.438.438 0 0 1-.323-.142c-.395-.428-.793-.854-1.195-1.276a.44.44 0 0 1 .636-.606c.406.426.807.855 1.205 1.287a.44.44 0 0 1-.323.737m-49.248.662a.438.438 0 0 1-.333-.153 13.885 13.885 0 0 1-.984-1.29l-.104-.156a.44.44 0 0 1 .734-.483l.097.145c.288.427.599.834.923 1.21a.44.44 0 0 1-.333.727m20.09.995a.44.44 0 0 1-.233-.812c.489-.305.968-.63 1.423-.967a.44.44 0 1 1 .522.706c-.474.351-.972.69-1.48 1.007a.437.437 0 0 1-.232.066m31.792 1.287a.439.439 0 0 1-.33-.15c-.384-.44-.77-.877-1.158-1.314a.439.439 0 1 1 .655-.585c.391.44.78.88 1.164 1.32a.44.44 0 0 1-.33.73m-48.872.243a.438.438 0 0 1-.222-.06 12.192 12.192 0 0 1-1.495-1.036.44.44 0 0 1 .552-.683c.438.354.905.677 1.388.96a.44.44 0 0 1-.223.819m13.562.256a.44.44 0 0 1-.164-.848c.529-.212 1.057-.449 1.57-.703a.44.44 0 0 1 .39.787c-.533.265-1.082.511-1.632.732a.449.449 0 0 1-.164.032m-3.784 1.116a.44.44 0 0 1-.081-.871 19.322 19.322 0 0 0 1.669-.397.44.44 0 0 1 .241.845c-.581.166-1.169.305-1.746.415a.45.45 0 0 1-.083.008m-6.103.025a.447.447 0 0 1-.09-.009 13.05 13.05 0 0 1-1.747-.489.44.44 0 1 1 .296-.827c.522.186 1.07.34 1.63.455a.44.44 0 0 1-.09.87m2.895.288c-.248 0-.495-.006-.74-.017a.44.44 0 0 1-.418-.46.446.446 0 0 1 .46-.418c.559.027 1.129.02 1.704-.017a.44.44 0 0 1 .057.877 16.67 16.67 0 0 1-1.063.035m44.883 1.063a.44.44 0 0 1-.334-.153c-.378-.443-.76-.887-1.142-1.332a.44.44 0 1 1 .666-.573c.384.445.765.89 1.144 1.333a.44.44 0 0 1-.334.725m2.56 3.008a.439.439 0 0 1-.338-.16c-.37-.447-.745-.892-1.125-1.333l-.018-.023a.44.44 0 0 1 .693-.541c.38.442.756.888 1.127 1.338a.439.439 0 0 1-.338.719m2.454 3.094a.438.438 0 0 1-.35-.174 97.373 97.373 0 0 0-1.07-1.381.44.44 0 1 1 .69-.545c.364.462.724.927 1.08 1.395a.44.44 0 0 1-.35.705m2.326 3.192a.439.439 0 0 1-.36-.187c-.335-.478-.672-.953-1.014-1.425a.44.44 0 0 1 .712-.515c.345.475.685.954 1.021 1.436a.44.44 0 0 1-.36.691m2.195 3.284a.439.439 0 0 1-.371-.203c-.314-.49-.633-.978-.955-1.463a.44.44 0 1 1 .732-.487c.325.49.646.982.963 1.477a.44.44 0 0 1-.37.676m2.064 3.367a.438.438 0 0 1-.38-.217 97.155 97.155 0 0 0-.896-1.5.439.439 0 1 1 .75-.457c.305.501.607 1.005.904 1.513a.44.44 0 0 1-.378.66M68.073 267a.44.44 0 0 1-.388-.232 93.92 93.92 0 0 0-.84-1.533.44.44 0 0 1 .768-.429c.287.513.569 1.029.847 1.547a.44.44 0 0 1-.387.647" mask="url(#c)" transform="rotate(-30 32.756 220.447)"/>
    </g>
</svg>
