<svg xmlns="http://www.w3.org/2000/svg" width="28" height="28" viewBox="0 0 28 28">
    <g fill="none" fill-rule="evenodd">
        <rect width="28" height="28" fill="#2196F3" rx="14"/>
        <path fill="#FFF" d="M21.207 8.906c0-.62-.492-1.113-1.112-1.113h-6.079c-.62 0-1.14.494-1.14 1.113V15.684l.798-.72c.037-.035.078-.065.108-.093.364-.336.458-.39.933-.38.064.002.142.002.236.002h5.144c.62 0 1.112-.502 1.112-1.121V8.906zm.793 0v4.465a1.907 1.907 0 0 1-1.905 1.916h-5.144l-.253-.002a2.127 2.127 0 0 0-.186 0 2.643 2.643 0 0 0-.193.17l-.104.095-1.456 1.326a.404.404 0 1 1-.676-.293v-4.206H7.927c-.62 0-1.134.508-1.134 1.128v4.465c0 .62.514 1.107 1.134 1.107h5.747c.099 0 .191.046.264.112l1.186 1.094v-3.77a.397.397 0 1 1 .793 0v4.669a.391.391 0 0 1-.39.392.4.4 0 0 1-.268-.108l-1.74-1.595H7.928C6.87 19.87 6 19.027 6 17.97v-4.466c0-1.057.87-1.92 1.927-1.92h4.156V8.905c0-1.057.876-1.906 1.933-1.906h6.08A1.9 1.9 0 0 1 22 8.906zm-11.65 6.336a.397.397 0 1 0 0 .794h.032a.397.397 0 1 0 0-.794h-.033zm-1.38 0a.397.397 0 1 0 0 .794h.034a.397.397 0 1 0 0-.794H8.97zm7.996-2.763a.39.39 0 0 0-.387.397v.003c0 .219.168.395.387.395a.398.398 0 0 0 0-.795zm1.276-2.043c0 .485-.353.78-.611.996-.098.082-.28.231-.279.287a.39.39 0 0 1-.393.394h-.004a.392.392 0 0 1-.396-.388c-.004-.43.31-.686.562-.898.198-.166.327-.283.327-.39a.393.393 0 0 0-.785 0 .397.397 0 1 1-.793 0 1.186 1.186 0 1 1 2.372-.001z"/>
    </g>
</svg>
