<svg xmlns="http://www.w3.org/2000/svg" width="28" height="28" viewBox="0 0 28 28">
    <g fill="none" fill-rule="evenodd">
        <rect width="28" height="28" fill="#3F51B5" rx="14"/>
        <path fill="#FFF" d="M18.455 15.927a2.529 2.529 0 0 0-2.148 1.18l-4.398-2.67a2.525 2.525 0 0 0 0-1.88l4.4-2.649A2.543 2.543 0 0 0 21 8.545 2.548 2.548 0 0 0 18.455 6a2.548 2.548 0 0 0-2.546 2.545c0 .32.062.625.17.907l-4.405 2.653A2.544 2.544 0 0 0 7 13.498a2.544 2.544 0 1 0 4.673 1.393l4.405 2.673a2.542 2.542 0 0 0 2.377 3.454c.68 0 1.319-.265 1.8-.746.48-.48.745-1.12.745-1.8 0-.68-.265-1.319-.746-1.8a2.529 2.529 0 0 0-1.8-.745"/>
    </g>
</svg>
