<svg xmlns="http://www.w3.org/2000/svg" width="24" height="24" viewBox="0 0 24 24">
    <g fill="none" fill-rule="evenodd">
        <path d="M0 0h24v24H0z"/>
        <path fill="#00BF8F" d="M15.62 17.526l-.581 1.375-2.4-1.013.58-1.375 2.4 1.013zm3.045-2.96h-.367v-2.2h.367a1.1 1.1 0 0 1 0 2.2zm-3.236 5.295l-3.75-1.583 1.15-2.726 3.75 1.582-1.15 2.727zM6.567 8.333a.367.367 0 1 1 0-.733h9.166a.366.366 0 0 1 0 .733h-.15c.093.215.15.463.15.733 0 .823-.484 1.467-1.101 1.467-.616 0-1.1-.644-1.1-1.467 0-.27.057-.518.15-.733H6.566zm2.566-5.866a.367.367 0 1 1 0-.734H9.5v.734h-.367zm1.1 2.933h2.2V3.2h-2.2v2.2zm0-2.933h.733v-.734h-.733v.734zm1.467 0h.733v-.734H11.7v.734zm1.466-.734h.367a.367.367 0 0 1 0 .733h-.367v-.733zm5.5 9.9h-.368V7.18c0-.982-.799-1.781-1.78-1.781h-3.352V3.2h.367a1.1 1.1 0 0 0 0-2.2h-4.4a1.1 1.1 0 0 0 0 2.2H9.5v2.2H5.78C4.798 5.4 4 6.2 4 7.18v12.938c0 .74.455 1.376 1.1 1.645v.252c0 .542.442.985.984.985H8.15a.987.987 0 0 0 .984-.985v-.116h4.033v.115c0 .543.442.985.984.985h2.064a.986.986 0 0 0 .985-.985v-.251a1.783 1.783 0 0 0 1.1-1.645V15.3h.366a1.835 1.835 0 0 0 1.833-1.833 1.835 1.835 0 0 0-1.833-1.833z"/>
    </g>
</svg>
