<svg xmlns="http://www.w3.org/2000/svg" width="22" height="22" viewBox="0 0 22 22">
    <g fill="none" fill-rule="evenodd">
        <path d="M-1-1h24v24H-1z"/>
        <path fill="#00BF8F" d="M17.181 13.329c-.32 0-.58-.274-.58-.612 0-.34.26-.613.58-.613.321 0 .58.274.58.613 0 .338-.26.612-.58.612zm3.466-2.674H17.03c-.536 0-1.023.234-1.374.608a2.12 2.12 0 0 0-.565 1.454c0 1.137.868 2.061 1.938 2.061h4.258v-4.123h-.639zm-1.289 8.2a.258.258 0 0 1-.258.258h-.773a.258.258 0 0 1 0-.515h.516v-.516a.257.257 0 1 1 .515 0v.773zm-2.73.258h-1.7a.257.257 0 0 1 0-.515h1.7a.257.257 0 0 1 0 .515zm-3.398 0h-1.699a.257.257 0 0 1-.257-.258c0-.142.114-.257.257-.257h1.7a.258.258 0 1 1 0 .515zM9.832 6.838h-1.7a.258.258 0 0 1 0-.516h1.7a.257.257 0 1 1 0 .516zm0 12.275h-1.7a.258.258 0 0 1 0-.515h1.7a.258.258 0 0 1 0 .515zm-3.398 0H4.735a.258.258 0 1 1 0-.515h1.699a.258.258 0 1 1 0 .515zM3.112 6.822a.239.239 0 0 1-.077.015H2.52v.516a.257.257 0 0 1-.515 0v-.774c0-.142.115-.257.257-.257h.773c.052 0 .097.018.138.044.07.046.12.122.12.213a.256.256 0 0 1-.18.243zm-.077 12.29h-.773a.258.258 0 0 1-.257-.257v-.773a.257.257 0 0 1 .515 0v.516h.515a.258.258 0 1 1 0 .515zm-1.03-4.095a.257.257 0 1 1 .515 0v1.531a.257.257 0 1 1-.515 0v-1.531zm0-3.066a.257.257 0 0 1 .515 0v1.532a.258.258 0 0 1-.515 0v-1.532zm0-3.066c0-.11.068-.202.165-.238a.25.25 0 0 1 .092-.02c.143 0 .258.116.258.258v1.533a.258.258 0 1 1-.515 0V8.885zm2.73-2.563h1.699a.257.257 0 1 1 0 .515H4.735a.258.258 0 0 1 0-.515zm11.893.516h-1.7a.258.258 0 0 1 0-.516h1.7c.142 0 .257.115.257.258a.256.256 0 0 1-.257.258zm-3.14-.259a.257.257 0 0 1-.257.258h-1.7a.257.257 0 0 1-.256-.258c0-.142.114-.257.256-.257h1.7c.141 0 .256.115.256.257zm4.84-.257h.772c.143 0 .258.115.258.257v.774a.257.257 0 0 1-.515 0v-.516h-.516a.258.258 0 0 1 0-.515zm1.03 10.227a.257.257 0 0 1-.515 0v-1.255H17.03c-1.353 0-2.455-1.156-2.455-2.577 0-.407.097-.785.258-1.128.399-.856 1.23-1.45 2.196-1.45H18.84V8.884c0-.142.117-.258.258-.258.141 0 .257.116.257.258v1.255h1.289v-3.56c0-.854-.692-1.546-1.547-1.546h-.473V2.344a.771.771 0 0 0-.94-.754L1.733 5.099a.769.769 0 0 0-.444.287c-.348.282-.575.71-.575 1.193v12.275c0 .854.693 1.547 1.547 1.547h16.837c.855 0 1.547-.693 1.547-1.547v-3.56h-1.288v1.255h.001z"/>
    </g>
</svg>
