<svg xmlns="http://www.w3.org/2000/svg" width="40" height="40" viewBox="0 0 40 40">
    <g fill="none" fill-rule="evenodd">
        <rect width="40" height="40" fill="#F39C12" rx="20"/>
        <path fill="#FFF" d="M19.487 22.893c-.571.256-.97.828-.97 1.494h3.276c0-.705-.447-1.304-1.071-1.534a1.197 1.197 0 1 0-1.235.04zm-2.975 2.346h1.393a3.223 3.223 0 0 1 .2-5.035h-1.593v-1.593h6.975v1.593h-1.539a3.226 3.226 0 0 1 .2 5.035h1.34v1.593h-6.976v-1.593zM32 17.169v11.106c0 .4-.324.724-.724.724H8.724A.724.724 0 0 1 8 28.275V17.168c0-.4.324-.724.724-.724h1.653l-.184 1.41a.942.942 0 0 0 .265.783.929.929 0 0 0 .66.274l.6-.078a1.694 1.694 0 0 1-2.27 1.247v5.172a1.694 1.694 0 0 1 2.14 2.3l16.78-.001a1.692 1.692 0 0 1 2.183-2.283v-5.203a1.695 1.695 0 0 1-2.231-2.172H18.125a.936.936 0 0 0 .09-1.448h6.472a5.746 5.746 0 0 0-.937-1.242c-2.163-2.163-5.628-2.235-7.885-.229l-.872.873 2.595 1.125a.21.21 0 0 1 .125.223.21.21 0 0 1-.182.18l-6.462.844a.21.21 0 0 1-.236-.236l.845-6.462a.209.209 0 0 1 .18-.182.211.211 0 0 1 .222.125l1.125 2.595.634-.63-.01-.01c.226-.226.463-.434.707-.628.161-.13.345-.272.497-.366 3.22-2.187 7.65-1.857 10.5.994a8.252 8.252 0 0 1 1.922 3.025h3.821c.399 0 .724.324.724.724z"/>
    </g>
</svg>
