<svg xmlns="http://www.w3.org/2000/svg" width="40" height="40" viewBox="0 0 40 40">
    <g fill="none" fill-rule="evenodd">
        <rect width="40" height="40" fill="#F39C12" rx="20"/>
        <g fill="#FFF">
            <path d="M18.077 26.156c-4.453 0-8.062-3.612-8.062-8.07 0-4.456 3.609-8.07 8.062-8.07 4.451 0 8.061 3.614 8.061 8.07 0 4.458-3.61 8.07-8.061 8.07zM32 30.574l-6.112-6.118a10.049 10.049 0 0 0 2.265-6.37C28.153 12.517 23.643 8 18.077 8 12.512 8 8 12.516 8 18.087c0 5.57 4.512 10.087 10.077 10.087 2.425 0 4.65-.859 6.39-2.289L30.573 32 32 30.574z"/>
            <path d="M20.13 21.2a.246.246 0 0 0 .191.092h1.559a.246.246 0 0 0 .245-.246c-.004-2.19-.46-3.89-1.353-5.056-.687-.896-1.387-1.122-1.416-1.132a.245.245 0 0 0-.277.372c.004.007.44.662.78 1.699.31.95.602 2.425.223 4.062-.017.073 0 .15.047.208zm-3.357-5.759c.117-.247.301-.44.543-.565.264-.137.842-.12 1.29-.082-.339-.265-.848-.582-1.364-.59-.333-.006-.622.115-.88.373a1.837 1.837 0 0 0-.553 1.342l.964-.478zm.704-.253a.882.882 0 0 0-.443.552c-.09.306-.102.823.27 1.629.131-.63.46-1.648 1.258-2.225a6.861 6.861 0 0 0-.55-.026c-.237 0-.437.02-.535.07zm2.12-2.025c.074-.066.159-.12.25-.164L20.33 12a1.836 1.836 0 0 0-1.342.554c-.258.257-.38.545-.374.88.007.411.211.82.428 1.14.103-.478.292-1.179.554-1.41zm-.208 1.473c.717-.43 1.372-.383 1.821-.248.22.065.407.155.556.242-.245-.925-.72-1.233-1.003-1.335a1.068 1.068 0 0 0-.362-.065.877.877 0 0 0-.572.196c-.158.14-.328.7-.44 1.21zm3.219 6.873h-9.265a.246.246 0 1 0 0 .491h9.265a.246.246 0 1 0 0-.491zm-8.352-.217h5.123c.136 0 .246-.11.246-.246a2.81 2.81 0 0 0-2.807-2.807 2.81 2.81 0 0 0-2.808 2.807c0 .136.11.246.246.246z"/>
        </g>
    </g>
</svg>
