<svg xmlns="http://www.w3.org/2000/svg" width="40" height="40" viewBox="0 0 40 40">
    <g fill="none" fill-rule="evenodd">
        <rect width="40" height="40" fill="#E74C3C" rx="20"/>
        <path fill="#FFF" d="M30.728 25.152c.352-.472.563-.961.564-1.31a.485.485 0 0 0-.067-.269.208.208 0 0 0-.039-.05.224.224 0 0 0-.045-.035.478.478 0 0 0-.272-.068c-.348 0-.838.21-1.31.564-.38.285-.762.686-1.29 1.243l-.283.297-1.022-.306.003-.003a.228.228 0 0 0 0-.323l-.185-.185a.23.23 0 0 0-.325 0l-.276.276-.146-.043a.222.222 0 0 0 .048-.14.225.225 0 0 0-.067-.163l-.185-.185a.23.23 0 0 0-.324 0l-.253.254-1.04-.312a.275.275 0 0 0-.266.067l-.365.366a.215.215 0 0 0-.064.15.21.21 0 0 0 .111.189l2.186 1.22c.01.007.041.03.053.041l.623.623a24.726 24.726 0 0 0-1.616 1.867l-1.69-.153a.312.312 0 0 0-.239.085l-.17.17a.208.208 0 0 0 .058.342l1.189.565c.01.005.037.024.045.032l.099.098a.723.723 0 0 0-.047.229.3.3 0 0 0 .082.22l.005.003a.301.301 0 0 0 .22.083.731.731 0 0 0 .227-.047l.1.1a.27.27 0 0 1 .03.044l.565 1.187a.21.21 0 0 0 .19.125c.056 0 .11-.023.15-.063l.175-.176a.31.31 0 0 0 .083-.23l-.154-1.697.141-.108a24.655 24.655 0 0 0 1.726-1.507l.623.624c.01.01.034.041.04.054l1.22 2.181a.212.212 0 0 0 .34.05l.368-.367a.279.279 0 0 0 .065-.264l-.311-1.04.253-.253a.23.23 0 0 0 0-.323l-.185-.186a.229.229 0 0 0-.303-.02l-.043-.145.276-.276a.23.23 0 0 0 0-.324l-.185-.185a.23.23 0 0 0-.324 0l-.002.002-.306-1.022.302-.287c.554-.526.954-.906 1.239-1.286zm-7.037 5.761l-.001-.001-.006-.005a.368.368 0 0 1-.101-.268.884.884 0 0 1 .058-.281l-.121-.12a.338.338 0 0 0-.056-.04l-1.248-.593H10.394V10.091h2.788V8.697h-2.788c-.77 0-1.394.624-1.394 1.394v19.514c0 .77.624 1.394 1.394 1.394H23.85a.346.346 0 0 1-.159-.086zm-8.419-20.125h6.97a.697.697 0 0 0 .697-.697V8.697A.697.697 0 0 0 22.242 8h-6.97a.697.697 0 0 0-.696.697v1.394c0 .385.312.697.696.697zM27.121 24.09a.274.274 0 0 1 0 .264v.084l1.203.361.19-.2V10.091c0-.77-.624-1.394-1.393-1.394h-2.788v1.394h2.788V24.09zm-13.94 1.522h7.702V23.52h-7.701v2.09zm0-4.37h11.152v-2.09H13.182v2.09zm0-4.182h11.152v-2.09H13.182v2.09z"/>
    </g>
</svg>
