<svg xmlns="http://www.w3.org/2000/svg" width="40" height="40" viewBox="0 0 40 40">
    <g fill="none" fill-rule="evenodd">
        <rect width="40" height="40" fill="#E74C3C" rx="20"/>
        <path fill="#FFF" d="M25.203 14.087h2.516c.225 0 .404.164.428.384a.434.434 0 0 1-.428.483h-5.032a.422.422 0 0 1-.409-.296c-.057-.178-.004-.38.15-.48a.541.541 0 0 1 .277-.088c.832-.006 1.665-.003 2.498-.003zm-4.49-4.845l.03-.085a.566.566 0 0 1 .504-.398.565.565 0 0 1 .53.319.588.588 0 0 1-.076.633c-.017.021-.034.04-.053.065l1.242.784c.157.099.314.199.471.296.09.054.158.039.207-.053.475-.89.95-1.782 1.428-2.682-.208-.108-.34-.273-.353-.518a.565.565 0 0 1 .17-.44.55.55 0 0 1 .824.049c.235.299.152.649-.224.913l.369.694 1.032 1.939c.08.149.13.163.27.075l1.599-1.009.076-.051a.606.606 0 0 1-.187-.4.571.571 0 0 1 .458-.604.56.56 0 0 1 .64.405l.023.068v.199c-.092.298-.277.472-.595.475-.012.034-.024.068-.033.102l-.936 3.309c-.04.143-.089.182-.23.182h-5.383c-.15 0-.198-.037-.239-.182l-.759-2.685c-.068-.243-.137-.484-.207-.727-.238 0-.418-.097-.53-.31-.028-.051-.046-.11-.067-.164v-.199zm-4.217 18.446l-1.127 3.18c-.128.364-.058.778.166 1.093.223.316.59.498.977.498h9.26c.387 0 .738-.182.961-.498a1.22 1.22 0 0 0 .166-1.093l-1.127-3.18h-1.126l1.242 3.528a.153.153 0 0 1-.016.133c-.019.025-.059.05-.116.05h-9.244c-.057 0-.097-.025-.115-.05a.151.151 0 0 1-.017-.133l1.226-3.528h-1.11zm.53-9.012l.828 2.65h5.4a.53.53 0 0 0 .53-.53v-.414c0-.945-.76-1.706-1.706-1.706h-5.052zM12.073 8.62a1.857 1.857 0 0 0-.762.099 1.95 1.95 0 0 0-1.226 2.402l4.158 13.418a3.718 3.718 0 0 0 3.545 2.618h7.852a1.864 1.864 0 0 0 1.855-1.856 1.863 1.863 0 0 0-1.855-1.855H18.35a.544.544 0 0 1-.514-.381L13.78 9.979a1.957 1.957 0 0 0-1.706-1.358z"/>
    </g>
</svg>
