<svg xmlns="http://www.w3.org/2000/svg" width="56" height="56" viewBox="0 0 56 56">
    <g fill="none" fill-rule="evenodd">
        <rect width="56" height="56" fill="#E74C3C" rx="28"/>
        <path fill="#FFF" d="M41.028 19.057c1.231-1.649 1.968-3.36 1.972-4.583-.002-.396-.08-.705-.232-.936a.747.747 0 0 0-.136-.174.787.787 0 0 0-.16-.125c-.242-.161-.553-.239-.949-.239-1.22.002-2.931.739-4.58 1.972-1.333.997-2.666 2.402-4.51 4.347l-.991 1.04-3.574-1.071.01-.01a.796.796 0 0 0 .232-.56.797.797 0 0 0-.234-.569l-.645-.646a.804.804 0 0 0-1.134-.002l-.966.966-.511-.152a.78.78 0 0 0 .169-.487.787.787 0 0 0-.233-.57l-.649-.648a.802.802 0 0 0-1.13.001l-.887.886-3.633-1.089a.962.962 0 0 0-.932.235l-1.278 1.278a.753.753 0 0 0-.225.528.733.733 0 0 0 .39.657l7.642 4.269c.037.02.145.1.185.14l2.179 2.178c-2.038 2.147-3.853 4.226-5.268 6.035a33.5 33.5 0 0 0-.38.494l-5.912-.537a.8.8 0 0 0-.102-.006 1.09 1.09 0 0 0-.732.303l-.596.595a.727.727 0 0 0 .202 1.195l4.159 1.975a.97.97 0 0 1 .159.115l.345.342a2.524 2.524 0 0 0-.166.8c0 .31.099.575.29.766l.015.013.004.003c.196.19.45.287.765.287.226-.004.487-.057.793-.165l.35.35c.027.028.092.12.11.156l1.97 4.15c.12.264.38.436.663.436h.004a.74.74 0 0 0 .526-.222l.61-.612a1.087 1.087 0 0 0 .289-.805l-.539-5.933c.162-.122.326-.247.494-.378 1.812-1.417 3.891-3.234 6.034-5.269l2.18 2.183c.035.033.118.142.142.187l4.26 7.627a.741.741 0 0 0 1.19.175l1.287-1.286a.976.976 0 0 0 .228-.922l-1.088-3.635.885-.887a.8.8 0 0 0 .001-1.13l-.65-.649a.802.802 0 0 0-1.056-.066l-.152-.509.966-.967a.807.807 0 0 0 0-1.13l-.646-.647a.802.802 0 0 0-1.135-.001l-.007.006-1.07-3.573c.37-.353.72-.688 1.056-1.004 1.938-1.84 3.337-3.167 4.332-4.496"/>
    </g>
</svg>
