<svg xmlns="http://www.w3.org/2000/svg" xmlns:xlink="http://www.w3.org/1999/xlink" width="375" height="227" viewBox="0 0 375 227">
    <defs>
        <path id="a" d="M0 0h375v227H0z"/>
        <path id="c" d="M0 277h416.542V0H0z"/>
        <path id="e" d="M20.64 11.956L.086 58.456h52.573L26.372.26z"/>
        <linearGradient id="f" x1="107.143%" x2="33.32%" y1="50%" y2="50%">
            <stop offset="0%" stop-color="#38AAF2"/>
            <stop offset="100%" stop-color="#425EA8"/>
        </linearGradient>
        <path id="h" d="M.224 58.456h21.692L13.473.26z"/>
        <path id="j" d="M26.463.087L.432 58.456h73.134L99.597.087z"/>
        <linearGradient id="k" x1="33.084%" x2="52.952%" y1="73.77%" y2="45.851%">
            <stop offset="0%" stop-color="#677CD4"/>
            <stop offset="100%" stop-color="#60B6FF"/>
        </linearGradient>
        <path id="m" d="M.143 1.663L36.45 62.45h47.43C71.802 8.305 35.773.135 15.123.136 6.197.136.144 1.663.144 1.663"/>
        <linearGradient id="n" x1="50%" x2="50%" y1="126.543%" y2="59.712%">
            <stop offset="0%" stop-color="#FF9E54"/>
            <stop offset="100%" stop-color="#FFD154"/>
        </linearGradient>
        <path id="p" d="M.453 61.449h82.208S77.397 23.474 46.072.539C12.77 14.642.453 61.449.453 61.449"/>
        <linearGradient id="q" x1="24.317%" x2="90.912%" y1="50%" y2="50%">
            <stop offset="0%" stop-color="#F28938"/>
            <stop offset="100%" stop-color="#C8503A"/>
        </linearGradient>
        <path id="s" d="M29.476.492C23.69.81 5.674 4.785.294 41.452h52.164s0-32.124-21.176-40.942c0 0-.347-.041-.968-.041-.24 0-.52.006-.838.023"/>
        <linearGradient id="t" x1="-22.05%" x2="45.323%" y1="52.783%" y2="50.919%">
            <stop offset="0%" stop-color="#F28938"/>
            <stop offset="100%" stop-color="#C8503A"/>
        </linearGradient>
        <path id="v" d="M0 277h416.542V0H0z"/>
    </defs>
    <g fill="none" fill-rule="evenodd">
        <mask id="b" fill="#fff">
            <use xlink:href="#a"/>
        </mask>
        <use fill="#F5F5F5" xlink:href="#a"/>
        <g mask="url(#b)">
            <path fill="#E0B38F" d="M48 169h19V-10H48z"/>
            <g transform="translate(-21 -41)">
                <path fill="#EDDCCF" d="M68.893 95.67v115.513h6.283v-47.895s-1.99 18.727-1.99 17.07c0-1.658-.498-60.678.331-64.728.83-4.05-.664-26.755-.664-26.755l-3.96 6.795z"/>
                <mask id="d" fill="#fff">
                    <use xlink:href="#c"/>
                </mask>
                <path fill="#E0B38F" d="M297.667 198.132h20.157V18.696h-20.157z" mask="url(#d)"/>
                <path fill="#E5D9D0" d="M321.837 201.53h5.784V22.093h-5.784z" mask="url(#d)"/>
                <path fill="#E0B38F" d="M335.117 209.443h18.165V30.007h-18.165z" mask="url(#d)"/>
                <path fill="#EDDCCF" d="M335.117 209.443V70.486h6.118s1.223 49.214 0 55.015c-1.224 5.8.32 15.993.544 25.688.223 9.696 0 58.254 0 58.254h-6.662zM342.974 132.462s.705 9.447.87 11.767c.166 2.32-.663 36.129 0 40.272.664 4.142 1.45 10.109 1.45 10.109s.956-47.233-2.32-62.148" mask="url(#d)"/>
                <path fill="#EDDCCF" d="M353.171 190.268s.041 2.983-2.944 4.848c-2.987 1.864-5.93 1.243-5.143 4.475.788 3.231-5.64 1.74-6.967 5.096s2.156 4.847 2.156 4.847h18.413s3.36-4.227 0-8.204c-3.359-3.978-5.515-11.062-5.515-11.062" mask="url(#d)"/>
                <path fill="#E5D9D0" d="M164.62 205.347h9.392V25.912h-9.392zM231.466 205.347h6.508V25.912h-6.508zM178.461 205.347h5.784V25.912h-5.784zM250.464 208.727h5.784V29.292h-5.784zM94.403 209.443h5.784V30.008h-5.784zM222.688 207.206h3.61V27.77h-3.61zM124.424 209.443h5.784V30.008h-5.784zM104.871 211.134h3.277V31.7h-3.277zM112.047 211.134h1.449V31.7h-1.45zM242.923 198.132h3.4V18.696h-3.4z" mask="url(#d)"/>
                <path fill="#E0B38F" d="M141.799 209.443h18.167V30.008h-18.167z" mask="url(#d)"/>
                <path fill="#EDDCCF" d="M141.799 66.17s5.62 15.661 6.118 38.532c.498 22.87.746 43.67 0 55.022-.747 11.353 0 20.053 0 20.053l1.99 29.666H141.8V66.17z" mask="url(#d)"/>
                <path fill="#EDDCCF" d="M150.882 121.417s-.726 19.496-.975 23.475c-.248 3.978-.912 20.716-.912 24.03s.912 19.059.912 19.059.54-21.544.975-24.03c.435-2.487 0-42.534 0-42.534" mask="url(#d)"/>
                <path fill="#E0B38F" d="M275.649 108.414s5.39-12.744 9.786-14.65c4.396-1.905 13.023-15.413 13.023-15.413l11.362-11.684v1.74s-8.376 10.359-9.952 13.59c-1.577 3.231-10.942 12.361-13.433 15.545-2.492 3.182-7.635 18.678-7.635 18.678l-3.151-7.806z" mask="url(#d)"/>
                <path fill="#E0B38F" d="M262.209 204.115h18.167V24.68h-18.167z" mask="url(#d)"/>
                <path fill="#EDDCCF" d="M262.209 204.115h5.062V32.75h-5.062z" mask="url(#d)"/>
                <path fill="#EDDCCF" d="M262.209 151.189s-1.325-8.203-6.55-11.187c-5.226-2.983-8.46-10.938-11.446-12.181v-.745s3.623 2.267 6.47 7.043c2.245 3.767 6.552 4.06 8.791 6.132 2.24 2.072 4.562 6.63 4.562 6.63l-1.827 4.308z" mask="url(#d)"/>
                <path fill="#E0B38F" d="M278.717 139.132s2.82-9.653 8.129-12.057c5.307-2.403 11.28-15.992 15.924-15.164v-1.326s-2.572-.227-5.557 3.937c-2.986 4.163-8.025 10.627-11.944 11.497-3.918.87-7.402 10.628-7.402 10.628l.85 2.485zM157 143.732s1.492-8.826 7.34-9.323c5.847-.497 6.345-12.34 10.077-14.684 3.732-2.345 8.584-2.759 8.584-2.759v-.58s-6.594-.78-10.575 3.34c-3.981 4.118-3.732 12.197-8.957 12.819-5.226.621-7.838 4.723-7.838 4.723l1.368 6.464z" mask="url(#d)"/>
                <path fill="#EDDCCF" d="M269.261 125.501s-.165 66.292 0 68.447c0 0 2.157-57.178 0-68.447M297.667 198.132V68.408s5.186 3.977 5.103 11.186c-.082 7.21.415 18.644 1.162 22.87.746 4.227-.83 12.052-1.162 18.953-.331 6.901.811 17.094 1.36 24.304.548 7.208 0 52.41 0 52.41h-6.463zM306.42 198.132V85.063l1.244-5.469v118.538zM143.687 118.218s-3.203-4.654-7.183-4.654c-3.978 0-7.666-7.175-11.063-5.623-3.397 1.55-5.144 2.423-5.144 2.423s5.24-3.975 6.406-3.587c1.164.387 7.084 5.888 9.22 5.706 2.135-.18 7.764 2.342 7.764 2.342v3.393z" mask="url(#d)"/>
                <path fill="#E0B38F" d="M339.722 133.71s-4.106-5.966-9.208-5.966c-5.1 0-9.828-9.198-14.183-7.209-4.354 1.989-6.593 3.108-6.593 3.108s6.718-5.097 8.211-4.6c1.493.497 9.081 7.548 11.819 7.316 2.738-.231 9.954 3 9.954 3v4.351z" mask="url(#d)"/>
                <path fill="#E5D9D0" d="M127.824 143.312s-2.053-2.983-4.603-2.983c-2.551 0-4.915-4.6-7.092-3.604a114.348 114.348 0 0 0-3.297 1.554s3.359-2.55 4.106-2.3c.746.248 4.541 3.773 5.91 3.658 1.368-.116 4.976 1.5 4.976 1.5v2.175zM236.92 111.216s-1.818-2.644-4.078-2.644c-2.26 0-4.355-4.075-6.284-3.194-1.93.881-2.92 1.377-2.92 1.377s2.975-2.258 3.637-2.038c.662.22 4.024 3.344 5.236 3.242 1.213-.103 4.41 1.329 4.41 1.329v1.928zM223.997 136.967s-1.819-2.643-4.08-2.643c-2.26 0-4.353-4.076-6.283-3.195-1.929.882-2.922 1.377-2.922 1.377s2.977-2.258 3.639-2.038c.661.22 4.023 3.345 5.236 3.242 1.212-.102 4.41 1.33 4.41 1.33v1.927z" mask="url(#d)"/>
                <path fill="#E0B38F" d="M84.631 156.615s7.133-5.966 9.29-3.48c2.157 2.486 11.446-5.078 12.608-3.45 1.16 1.627 6.303 1.959 6.303 1.959s-5.358-1.865-5.972-2.652c-1.275-1.636-9.207 3.978-11.446 2.735-2.24-1.243-11.197 1.906-11.197 1.906l.414 2.982zM74.015 149.697s-3.356-14.542-10.731-15.754c-4.541-.746-10.492-.528-11.82-1.523-1.326-.994-5.815-9.736-5.815-9.736s5.64 9.446 9.455 9.446c3.815 0 14.1 1.243 15.759 5.677 1.659 4.432 5.474 7.25 5.474 7.25l-2.322 4.64zM80.986 128.184s6.968-7.576 8.337-7.641c1.368-.066 6.47 1.053 8.584-.936 2.115-1.989 5.35-3.977 5.35-3.977v.684s-4.852 3.542-5.724 4.723c-.87 1.18-6.096-.187-8.149 1.43-2.052 1.615-7.153 7.27-7.153 7.27l-1.245-1.553z" mask="url(#d)"/>
                <path fill="#E5D9D0" d="M180.16 152.284s3.277-3.563 3.92-3.593c.644-.03 3.043.495 4.037-.44.995-.935 2.515-1.87 2.515-1.87v.32s-2.28 1.667-2.69 2.222c-.41.556-2.867-.088-3.832.672-.966.76-3.364 3.42-3.364 3.42l-.585-.731zM233.74 122.311s3.277-3.561 3.92-3.593c.644-.03 3.043.495 4.037-.44.995-.934 2.516-1.87 2.516-1.87v.321s-2.282 1.667-2.691 2.222c-.41.556-2.867-.088-3.832.671-.966.76-3.365 3.42-3.365 3.42l-.585-.73z" mask="url(#d)"/>
                <path fill="#EDDCCF" d="M75.176 159.31s.166-18.645 0-21.503c-.165-2.86-.165-15.62 0-18.935.166-3.315.074-13.92.074-13.92s2.082 3.644 1.088 7.125c-.996 3.48.003 32.58-1.162 47.233" mask="url(#d)"/>
                <path fill="#E0B38F" d="M351.16 119.859s-4.14-6.509 7.232-14.23c11.373-7.722 14.574-23.275 21.862-26.474l.772-4.523s-5.078 2.427-9.384 9.156c-4.307 6.728-7.673 14.67-15.845 16.932-8.17 2.262-9.109 12.298-9.109 12.298l4.471 6.84zM155.486 120.156s2.323-10.578 13.934-11.455c11.613-.877 16.921-23.085 25.216-27.394 8.293-4.309 12.275-17.227 12.275-17.227l-2.986-.837s-6.138 14.93-14.266 16.248c-8.128 1.319-9.422 20.811-23.556 24.023-14.134 3.213-16.09 10.441-16.09 10.441l5.473 6.2zM167.363 145.435s.786-3.833 2.86-4.58c2.074-.745 1.079-3.065 1.079-3.065s4.979 6.09-3.94 7.645M138.78 134.821s-1.995-2.098-1.571-3.67c.424-1.574-1.406-1.951-1.406-1.951s5.806-.442 2.977 5.621M92.992 134.604s3.909.243 4.937 2.191c1.029 1.947 3.19.638 3.19.638s-5.342 5.776-8.127-2.83M284.257 141.368s3.908.244 4.936 2.191c1.03 1.947 3.19.638 3.19.638s-5.342 5.776-8.126-2.829" mask="url(#d)"/>
                <path fill="#E0B38F" d="M355.718 110.058s4.165-2.393 6.537-1.095c2.371 1.298 3.697-1.502 3.697-1.502s-1.556 9.522-10.234 2.597M217.509 123.148s2.81-3.893 5.507-3.686c2.696.208 2.75-2.89 2.75-2.89s2.505 9.32-8.257 6.576M282.843 114.438s1.01-1.277 1.921-1.166c.91.11.975-.938.975-.938s.708 3.194-2.896 2.104" mask="url(#d)"/>
                <path fill="#EDDCCF" d="M228.338 57.053s-17.251.497-7.299 15.247c0 0-11.28 6.463.996 14.75 12.275 8.286 27.454-1.657 30.978 8.452 3.525 10.11 24.76 12.098 32.722 2.155 7.961-9.944-16.299-14.526-8.98-17.04 7.32-2.517 45.308 8.09 38.341-7.488-6.967-15.579 33.51-.829 20.238-12.595-13.271-11.767 7.63-20.864-24.22-22.696-31.85-1.833-76.306 0-76.306 0s-28.699 1.814-6.47 19.215M42.593 49.736s-17.252.497-7.3 15.248c0 0-11.279 6.462.995 14.749 12.276 8.286 27.455-1.657 30.98 8.452 3.525 10.11 24.758 12.098 32.721 2.155 7.962-9.944-16.298-14.526-8.979-17.04 7.32-2.517 45.308 8.09 38.34-7.488-6.967-15.579 33.51-.828 20.238-12.595-13.27-11.767 7.632-20.863-24.219-22.696-31.849-1.833-76.307 0-76.307 0s-28.698 1.814-6.47 19.215" mask="url(#d)"/>
                <path fill="#EDDCCF" d="M166.128 58.33s13.934 6.96 1.244 17.65c-12.69 10.69 15.676 2.486 12.69 14.42-2.985 11.931-16.256 4.225-31.767 8.451-15.51 4.226-.332 14.994-25.961 11.847-25.63-3.146.996-21.957-13.436-22.744-14.432-.787-21.896 10.897-40.062 9.903-18.166-.995-18.91-13.176-4.728-16.656 0 0-21.565-6.96-3.815-14.916 17.75-7.955 5.06-15.413 21.482-15.413 16.423 0 84.353 7.458 84.353 7.458M376.882 47.863s13.935 6.96 1.245 17.65c-12.69 10.689 15.676 2.485 12.69 14.418-2.986 11.932-16.257 4.226-31.767 8.452-15.51 4.226-.331 14.994-25.96 11.848-25.63-3.147.994-21.958-13.438-22.744-14.431-.788-4.372 15.62-22.539 14.625-18.165-.994-49.123-9.198-22.25-21.379 0 0-21.564-6.96-3.814-14.916 17.749-7.954 5.06-15.413 21.482-15.413s84.351 7.459 84.351 7.459" mask="url(#d)"/>
                <path fill="#EDDCCF" d="M254.636 47.863s13.934 6.96 1.244 17.65c-12.691 10.689 15.676 2.485 12.69 14.418-2.986 11.932-16.257 4.226-31.767 8.452-15.51 4.226-.332 14.994-25.962 11.848-25.628-3.147.996-21.958-13.436-22.744-14.432-.788-4.372 15.62-22.538 14.625-18.166-.994-49.124-9.198-22.251-21.379 0 0-21.565-6.96-3.815-14.916 17.749-7.954 5.06-15.413 21.482-15.413 16.423 0 84.353 7.459 84.353 7.459" mask="url(#d)"/>
                <path fill="#EDDCCF" d="M91.422 30.008s-15.187-7.914 36.402-7.914c51.59 0 68.422-4.023 67.752 7.914-.669 11.936 1.54-14.76 40.666-14.76 39.127 0 95.514-3.167 98.875 2.304 0 0 30.341 2.178 26.185 15.2-4.156 13.02 7.414 21.074-4.104 25.392-11.518 4.318-195.56 17.97-221.395 5.099-25.835-12.872-44.381-33.235-44.381-33.235" mask="url(#d)"/>
                <path fill="#E5E1BC" d="M79.301 207.223s-59.412.11-51.513 9.074c7.899 8.962-12.53 11.402 5.176 16.304 17.704 4.903 64.147 5.302 44.738 15.307-19.408 10.005 64.491 14.358 65.985 5.923 1.493-8.436 27.773-12.662 50.178-5.923 22.403 6.74 54.543-.065 72.247 3.745s78.31 4.545 71.703-5.074c-6.606-9.62 79.462-23.861 30.436-35.38-49.027-11.52-288.95-3.976-288.95-3.976" mask="url(#d)"/>
                <path fill="#FFF" d="M258.285 254.966s-1.737-7.638-6.026-12.442c0 0 5.6 4.585 7.6 11.422 0 0 .57-4.038-1.37-7.835 0 0 3.18 3.957 3.07 7.63-.108 3.674-3.274 1.225-3.274 1.225" mask="url(#d)"/>
                <path fill="#8D89A8" d="M59.457 217.585l35.416-59.371-.107-.237-35.523 59.482z" mask="url(#d)"/>
                <path fill="#F0E1DA" d="M109.464 187.11s.629-3.717 3.092-3.925c2.463-.21 2.672-5.197 4.244-6.186 1.572-.987 3.616-1.162 3.616-1.162v-.244s-2.778-.328-4.454 1.406c-1.677 1.736-1.573 5.138-3.773 5.4-2.202.263-3.301 1.99-3.301 1.99l.576 2.722z" mask="url(#d)"/>
                <path fill="#EDDCCF" d="M254.27 197.827s-10.056-9.204 0-12.557c10.057-3.354 6.479-12.426 11.078-11.06 4.6 1.368 1.861 8.826 7.647 9.198 5.784.374 8.273-.04 8.397 6.879.125 6.919 1.618 4.308 7.59 7.54 5.971 3.232 8.957 4.451 5.848 6.576-3.111 2.125-35.864.944-35.864.944l-4.695-7.52z" mask="url(#d)"/>
                <path fill="#EDDCCF" d="M276.562 189.599s-2.033-5.966 3.461-5.303c0 0 4.466-3.647 6.391.993 0 0 4.745-2.816 5.077 2.652.332 5.47 6.304 1.493 6.635 6.796 0 0 6.95-.498 5.051 4.474 0 0 9.547-.663 8.718 6.463h-32.68l-2.653-16.075zM83.498 211.183s-1.825-3.55 2.157-5.836c0 0-2.987-6.759 3.068-7.754 0 0 3.069-4.64 5.226-2.486 0 0 8.21-.994 9.081 4.972 0 0 6.783-.995 6.783 3.48 0 0 18.002.166 18.002 7.624H83.498z" mask="url(#d)"/>
            </g>
            <g transform="translate(121 116)">
                <mask id="g" fill="#fff">
                    <use xlink:href="#e"/>
                </mask>
                <path fill="url(#f)" d="M20.64 11.956L.086 58.456h52.573L26.372.26z" mask="url(#g)"/>
            </g>
            <g transform="translate(134 116)">
                <mask id="i" fill="#fff">
                    <use xlink:href="#h"/>
                </mask>
                <path d="M.224 58.456h21.692L13.473.26z" mask="url(#i)"/>
            </g>
            <g transform="translate(47 116)">
                <mask id="l" fill="#fff">
                    <use xlink:href="#j"/>
                </mask>
                <path fill="url(#k)" d="M26.463.087L.432 58.456h73.134L99.597.087z" mask="url(#l)"/>
            </g>
            <g fill="#8D89A8">
                <path d="M113.243 175.86l33.75-59.538-.108-.235-33.858 59.65z"/>
                <path d="M185.282 174.57l.207-.138-38.605-58.345-.103.243z"/>
            </g>
            <g transform="translate(244 112)">
                <mask id="o" fill="#fff">
                    <use xlink:href="#m"/>
                </mask>
                <path fill="url(#n)" d="M.143 1.663L36.45 62.45h47.43C71.802 8.305 35.773.135 15.123.136 6.197.136.144 1.663.144 1.663" mask="url(#o)"/>
            </g>
            <g transform="translate(197 113)">
                <mask id="r" fill="#fff">
                    <use xlink:href="#p"/>
                </mask>
                <path fill="url(#q)" d="M.453 61.449h82.208S77.397 23.474 46.072.539C12.77 14.642.453 61.449.453 61.449" mask="url(#r)"/>
            </g>
            <g transform="translate(210 133)">
                <mask id="u" fill="#fff">
                    <use xlink:href="#s"/>
                </mask>
                <path fill="url(#t)" d="M29.476.492C23.69.81 5.674 4.785.294 41.452h52.164s0-32.124-21.176-40.942c0 0-.347-.041-.968-.041-.24 0-.52.006-.838.023" mask="url(#u)"/>
            </g>
            <g transform="translate(-21 -41)">
                <path fill="#8D89A8" d="M213.268 216.097c5.284-25.386 18.983-41.251 29.544-50.09 11.017-9.22 20.998-12.92 21.826-13.217 19.468 11.798 29.619 28.371 34.707 40.2 5.518 12.828 6.437 22.992 6.445 23.092l.248-.021c-.009-.101-.93-10.304-6.464-23.169-3.25-7.554-7.432-14.538-12.43-20.756-6.246-7.773-13.792-14.363-22.428-19.589l-.05-.031-.055.02c-.103.035-10.47 3.668-21.95 13.274a86.39 86.39 0 0 0-17.25 19.52c-5.879 9.14-10.047 19.475-12.387 30.716l.244.05z"/>
                <path fill="#8D89A8" d="M354.396 216.095l.244-.045c-3.296-17.528-10.08-31.774-20.162-42.344-8.068-8.457-18.252-14.593-30.27-18.237-20.454-6.2-39.389-2.972-39.579-2.938l.044.244c.188-.032 19.074-3.25 39.472 2.935 18.816 5.705 42.808 20.814 50.25 60.385"/>
                <path fill="#A64330" d="M253.972 216.072h5.656l2.7-40.503s-.662-.08-1.795-.018a.057.057 0 0 0-.01.018c-.221.462-5.394 33.167-6.551 40.503"/>
                <mask id="w" fill="#fff">
                    <use xlink:href="#v"/>
                </mask>
                <path fill="#4B4570" d="M134.064 217.662h.995v-6.339h-.995zM206.339 217.522h.996v-6.338h-.996zM212.648 217.522h.996v-6.338h-.996zM305.54 217.522h.995v-6.338h-.995zM354.02 217.522h.996v-6.338h-.995zM59.105 217.719h.995v-6.34h-.995z" mask="url(#w)"/>
                <path fill="#E5E1BC" d="M150.482 216.045s-.613-2.193.766-4.847c0 0-.714 2.347 0 3.828 0 0 .511.254.971-1.404 0 0 .05 1.658-.408 2.423-.46.767 2.196-.969 2.246-4.591 0 0 .734 4.307-1.855 5.393-2.588 1.086-1.72-.802-1.72-.802M334.538 217.02s-1.737-7.638-6.027-12.441c0 0 5.601 4.583 7.602 11.42 0 0 .569-4.038-1.37-7.835 0 0 3.179 3.957 3.07 7.631-.108 3.673-3.275 1.224-3.275 1.224" mask="url(#w)"/>
                <path fill="#EEA886" d="M114.755 244.467v-1.865c0-.186 1.897-.155 1.897-.155s.125 1.818.25 2.15c.124.336-2.147-.13-2.147-.13" mask="url(#w)"/>
                <path fill="#A15427" d="M116.085 244.332s-.752-.34-1.252-.323c-.5.018-.447.325-.572.51-.125.186-1.304 1.972-1.626 2.294-.322.321-1.465.66-1.305 1.463.161.804 1.608 1.124 3.396.892 1.786-.23 2.662-1.892 2.948-2.266.286-.375-.679-2.786-.965-2.955-.285-.17-.624.385-.624.385" mask="url(#w)"/>
                <path fill="#EEA886" d="M99.265 244.156l.451-1.554 1.975.296s-.466 2.128-.357 2.36c.109.234-2.069-1.102-2.069-1.102" mask="url(#w)"/>
                <path fill="#1C2F54" d="M105.132 181.84s-1.141 5.647-.498 11.266c.641 5.621-.622 14.556-.622 14.556l6.342-9.234-5.222-16.589z" mask="url(#w)"/>
                <path fill="#E67939" d="M106.023 203.918s-1.539 7.108-1.892 8.898c-.355 1.79-1.345 10.458-1.451 11.932-.106 1.474-1.607 7.027-1.536 7.553.07.527-2.438 10.962-2.438 10.962s2.684.327 3.393.045c.484-.193 3.468-9.748 3.468-12.38 0-3.638 2.137-8.388 2.446-9.217 3.05-8.15 3.61-10.086 4.033-10.577 0 0 .065.665.21 1.77.166 1.27.894 10.342 1.212 11.536.319 1.192.072 5.227.249 7.263.177 2.036.505 11.32.505 11.32s2.438.068 3.142-.33c.235-.134.207-9.979.243-12.4.035-2.422.073-5.76.142-6.809.655-10.033 2.265-11.467-.27-18.569-4.75-13.297-11.456-.997-11.456-.997" mask="url(#w)"/>
                <path fill="#FFF8F1" d="M104.785 183.121s-1.64 6.72-1.264 8.051c.377 1.332 2.315 2.671 2.39 2.853.076.18 1.297 4.052 1.251 4.71-.047.66-1.139 5.183-1.139 5.183s5.827 4.223 12.06-1.278c0 0-2.19-6.295-2.232-6.944-.042-.65-.221-5.5-.004-6.091.215-.59.612-6.436.333-7.008-.281-.572-3.43-2.157-5.826-2.641-2.397-.486-5.569 3.165-5.569 3.165" mask="url(#w)"/>
                <path fill="#406ABD" d="M120.084 213.191c-.057-1.153-1.228-3.89-2.716-7.104-.345-.745-.706-1.517-1.075-2.3l-.834-1.765c-1.818-3.853-3.635-7.755-4.32-10.133-1.538-5.345.032-11.852.032-11.852h.002c1.802.307 4.246 1.337 4.853 2.131v.001a.522.522 0 0 1 .068.125c.212.385.771 2.047 1.396 3.277 0 0-.841.62-1.43 1.997-.248.58-.434 1.214-.462 1.845a3.237 3.237 0 0 0 .137 1.108c.766 2.407 1.603 5.051 1.603 5.051.01.233.043.48.098.74v.006c.113.533.31 1.12.557 1.742l.09.222v.003c.427 1.039.984 2.17 1.524 3.312.88 1.865 1.717 3.76 1.874 5.342.35 3.5-1.397 6.252-1.397 6.252" mask="url(#w)"/>
                <path fill="#1C2F54" d="M118.083 198.285c-1.558-1.655-3.637-9.579-3.637-9.579.438-.044.82.234 1.152.707 1.302 1.856 1.82 6.714 1.838 6.899v.006c.113.533.309 1.12.557 1.743l.09.221v.003" mask="url(#w)"/>
                <path fill="#EEA886" d="M125.96 199.909s.87.336 1.285-.103c.316-.335.868-.951.954-1.13.08-.165.553-.82.645-.48.091.34-.446 1.85-.688 2.034-.24.184 1.048.487 1.235.732.188.247-.475 2.412-1.333 2.099-.856-.313-1.484-1.199-1.63-1.272-.249-.121-1.214-.524-1.214-.524l.747-1.356z" mask="url(#w)"/>
                <path fill="#EEA886" d="M129.21 200.84s2.558 1.14 2.664 1.364c.104.223.032.362-.212.267a659.626 659.626 0 0 1-2.505-1.027s2.795 1.875 2.92 2.037c.073.095-.05.373-.186.335-.135-.039-3.012-1.732-3.012-1.732s2.606 1.755 2.67 1.924c.057.148-.119.376-.321.26-.203-.116-2.714-1.603-2.714-1.603s1.78 1.396 1.786 1.58c.005.16-.114.355-.571-.023-.457-.376-1.629-1.148-1.629-1.148l1.11-2.233z" mask="url(#w)"/>
                <path fill="#406ABD" d="M118.326 188.46c.51 2.45 1.475 5.972 1.725 6.404.112.194.536.532 1.118 1.017.844.707 5.545 4.057 5.545 4.057.02.842-1.128 2.01-1.128 2.01a92.337 92.337 0 0 0-4.059-2.325c-1.962-1.057-3.38-2.109-3.748-2.665-.687-1.038-3.078-7.356-3.561-8.947-.187-.612-.398-1.636-.588-2.663a113.194 113.194 0 0 1-.548-3.29v-.001s1.016-1.33 2.877.033c0 0 1.318 1.339 2.367 6.37" mask="url(#w)"/>
                <path fill="#E8586E" d="M122.049 230.776c-1.127 0-2.044.854-2.044 1.903 0 1.05.917 1.904 2.044 1.904 1.125 0 2.042-.854 2.042-1.904 0-1.049-.917-1.903-2.042-1.903m0 4.345c-1.467 0-2.659-1.095-2.659-2.442 0-1.345 1.192-2.44 2.659-2.44 1.465 0 2.657 1.095 2.657 2.44 0 1.347-1.192 2.442-2.657 2.442" mask="url(#w)"/>
                <path fill="#AD4253" d="M115.41 247.908h13.276v-6.619h-13.275z" mask="url(#w)"/>
                <path fill="#F55D74" d="M116.022 249.145s-.057-1.485 0-9.464c.058-8.29 6.098-8.166 6.098-8.166s6.038-.124 6.097 8.166c.057 7.979 0 9.464 0 9.464h-12.195z" mask="url(#w)"/>
                <path fill="#FF6179" d="M117.4 247.908h9.44v-6.619h-9.44z" mask="url(#w)"/>
                <path fill="#C24A5C" d="M117.4 243.129h9.44v-1.84h-9.44z" mask="url(#w)"/>
                <path fill="#A15427" d="M100.888 244.726s-.677-.603-1.016-.675c-.338-.07-.66-.053-.802.107-.143.161-.553.801-.776.998-.222.196-1.808 1.726-2.182 1.833-.374.107-1.996.017-1.907.962.09.943 1.407 1.352 3.76 1.139 2.352-.214 2.067-.766 3.385-1.05 1.32-.285 1.408-.944 1.177-1.745-.231-.8-1.165-1.599-1.07-1.811.097-.215-.569.242-.569.242" mask="url(#w)"/>
                <path fill="#51578C" d="M101.195 179.508l3.045-4.5-2.726-1.319-2.613 4.589z" mask="url(#w)"/>
                <path fill="#D5CAE3" d="M101.21 179.116l2.637-3.895-2.36-1.141-2.261 3.971z" mask="url(#w)"/>
                <path fill="#E3A080" d="M98.974 180.135s.558-.285.212-.91c-.345-.625-.111-.848-.111-.848l2.548 1.36s-.77 1.167-1.066 1.282c-.295.114-1.797-.44-1.583-.884" mask="url(#w)"/>
                <path fill="#E3A080" d="M101.623 179.737s1.064-1.079 1.154-1.223c.09-.143.522-.793.677-1.152.153-.358-.746-.05-.933.33a1.519 1.519 0 0 1-.57.643c-.167.116-1.265.462-1.406.826-.144.364 1.078.576 1.078.576M99.36 177.872s.197.148.263-.099c.064-.245-.071-.737-.346-.54-.276.196.082.639.082.639M99.58 177.117s.145.353.293.14c.148-.212.18-.874-.145-.775-.327.1-.149.635-.149.635M99.983 176.447s.113.44.3.258c.14-.138.175-.993-.151-.892-.326.098-.149.634-.149.634" mask="url(#w)"/>
                <path fill="#406ABD" d="M106.208 180.855l-.472 1.75-1.365 5.069s-.455.371-1.097.89c-1.417 1.146-4.62 3.288-4.964 3.41-.45.159-2.726.223-2.875-1.328-.149-1.55 3.436-10.492 3.436-10.492 1.106-.268 2.26.24 2.26.24l-1.822 7.167c.026-.017 1.29-.83 2.341-2.36.546-.794 1.739-1.923 2.766-2.83a55.652 55.652 0 0 1 1.792-1.516" mask="url(#w)"/>
                <path fill="#454442" d="M102.156 170.062s-2.55 1.624-2.097 3.914c.702 3.543 3.317 4.57 3.534 6.84.217 2.273-.793 3.085-.793 3.085l3.948-3.491-4.592-10.348z" mask="url(#w)"/>
                <path fill="#EEA886" d="M110.184 179.788c-.337 3.622-2.29 6.258-3.049 6.66-.76.4-1.601-3.77-1.186-4.508.111-.198.129-.485.096-.799-.064-.596-.31-1.29-.457-1.66-.065-.163-.109-.263-.109-.263s2.464-4.773 2.964-2.254c.499 2.52 1.741 2.824 1.741 2.824" mask="url(#w)"/>
                <path fill="#C48A6F" d="M107.8 178.486c-.01.03-.618 1.953-1.755 2.655-.064-.596-.31-1.29-.457-1.66l2.212-.995z" mask="url(#w)"/>
                <path fill="#EEA886" d="M100.984 171.25s.276 4.819 1.71 6.97c2.302 3.45 3.398 2.293 4.853.613 2.103-2.428-.783-8.637-.783-8.637l-5.78 1.054z" mask="url(#w)"/>
                <path fill="#454442" d="M100.888 175.134s1.528.365 3.723-.962c2.179-1.316 3.06 3.73 3.584 3.864.523.135.82-5.495-.364-6.81-1.182-1.317-3.304-2.926-5.416-1.577-2.314 1.477-2.65 3.48-1.527 5.485" mask="url(#w)"/>
                <path fill="#454442" d="M101.481 170.468s.796-1.341 3.179-1.459c1.812-.09 4.652 1.762 4.967 5.482.403 4.766 2.624 5.647 3.63 6.116 1.006.467-3.43.167-4.768-1.906-.608-.942-1.414-2.326-1.701-3.305-.286-.977-2.442-4.708-4.016-4.01-1.572.697-1.29-.918-1.29-.918" mask="url(#w)"/>
                <path fill="#EEA886" d="M106.35 175.527c-.205-.606.699-1.254 1.038-.792.338.463.237 2.121-.326 1.94-.562-.18-.712-1.148-.712-1.148" mask="url(#w)"/>
                <path fill="#406ABD" d="M106.027 181.002s.13.57-.034 1.526c-.26 1.527-.87 3.918-.945 5.64-.12 2.8 1.544 7.623-.389 18.42-.32.527-.665 1.103-1.022 1.705.01-.088 1.417-12.71.26-15.789-.643-1.72-.71-1.634-.623-3.94.067-1.777.1-3.423.826-5.812.696-.616 1.633-1.51 1.927-1.75" mask="url(#w)"/>
                <path fill="#1C2F54" d="M99.309 187.56l-.75 2.385 1.637-3.087z" mask="url(#w)"/>
                <path fill="#FFF" d="M121.56 162.46h-10.877v9.538l1.66-1.66h9.218z" mask="url(#w)"/>
                <path fill="#8A5939" d="M311.502 210.591l2.024.297 3.137-21.453-2.024-.297z" mask="url(#w)"/>
                <path fill="#F2F2F2" d="M313.952 193.815l2.025.296.62-4.225-2.025-.297z" mask="url(#w)"/>
                <path fill="#F2F2F2" d="M315.72 189.743s4.975 1.233 9.099-.792c0 0 1.688 3.88-1.208 8.118 0 0-3.413-2.32-8.58-3.097l.689-4.229z" mask="url(#w)"/>
                <path fill="#EEBBA2" d="M293.61 182.678l-7.79 10.179s-.862 1.298-2.297 4.02c-1.875 3.56-3.556 7.486-3.556 7.486s1.035 1.232 1.738.821c1.138-.663 7.114-9.534 7.176-10.214.062-.68 6.153-6.787 6.153-6.787s-.02-5.106-1.423-5.505" mask="url(#w)"/>
                <path fill="#323657" d="M292.705 180.766l-1.467 11.912-1.144 9.282s-5.951 1.582-5.746-2.902c.098-2.13.43-4.31.89-6.38 1.173-5.301 3.164-9.878 4.107-11.03 1.311-1.604 3.36-.882 3.36-.882" mask="url(#w)"/>
                <path fill="#6DBD7D" d="M291.237 192.678l-1.144 9.282s-6.175 1.6-5.969-2.883c.098-2.13.619-4.333 1.113-6.399h6z" mask="url(#w)"/>
                <path fill="#3F74A0" d="M277.925 240.163s-.14.78.401 1.819c.538 1.04 2.956 3.692 2.79 4.78-.167 1.09-2.96.96-4.715-.956-1.753-1.917-4.36-3.907-4.263-4.367.097-.46 2.727-2.852 3.642-3.17.914-.317 2.145 1.894 2.145 1.894M315.545 241.785s1.402.612 2.638.78c1.236.168 4.214-.322 5.06.49.845.81-.978 3.159-3.72 3.51-2.743.35-6.256.929-6.598.564-.341-.366-.626-3.65-.343-4.64.284-.99 2.963-.704 2.963-.704" mask="url(#w)"/>
                <path fill="#EEBBA2" d="M297.25 178.694s-.006 2.244.333 3.098c.339.855-4.758-1.527-4.758-1.527s.471-2.613-.078-4.132c-.55-1.518 4.502 2.56 4.502 2.56" mask="url(#w)"/>
                <path fill="#E6435C" d="M310.067 219.26l-6.267 4.18s-1.32-.92-2.87-2.09c-.38-.287-.773-.588-1.165-.894-1.312-1.027-2.601-2.11-3.27-2.881-1.684-1.943 2.002-14.221 6.655-8.743 0 0 5.68 7.193 6.917 10.429" mask="url(#w)"/>
                <path fill="#E6435C" d="M302.78 207.375s-2.451 12.758-5.337 17.33c0 0-5.662-1.048-7.914-1.93 0 0 .063-9.632.28-12.171.204-2.368 12.97-3.23 12.97-3.23" mask="url(#w)"/>
                <path fill="#EDDCCF" d="M304.558 207.038c-.136.441-.614 2.39-1.074 2.42l-13.674 1.146s.646-10.595-.377-16.216c-.68-3.736.305-9.799 2.546-13.071.272-.398.555-.75.846-1.052 0 0 4.744 1.465 4.98 1.513.076.016.553.478 1.173 1.237 1.289 1.578 3.19 4.435 3.376 7.208.273 4.107 2.316 6.918 2.672 11.545.207 2.696.045 3.599-.468 5.27" mask="url(#w)"/>
                <path fill="#EEBBA2" d="M312.869 199.408c-.015.035-.055.073-.119.112-.225.142-.75.31-1.46.49-2.902.723-8.93 1.58-10.705 1.257-2.332-.424-6.974-10.87-6.974-10.87l4.258-2.693 3.499 7.086c.326.66.848 1.203 1.498 1.547.687.366 1.605.76 2.402.788 1.536.052 3.683.066 5.24.069a299.365 299.365 0 0 0 2.004-.003s.642 1.546.357 2.217M315.228 240.275l.317 1.51-2.963.704-.447-1.556zM278.888 239.138l-.987 1.063-2.222-1.892 1.022-1.183z" mask="url(#w)"/>
                <path fill="#EEBBA2" d="M312.42 197.193s.717-.441 1.019-1.085c.3-.642 1.527-.905 2.103-.683.574.22 1.278-.129 1.501.267.223.396-.44.92-.36 1.285.08.364.579 2.05-.787 2.485-1.365.437-2.567-.097-3.268.132-.7.227-.207-2.401-.207-2.401" mask="url(#w)"/>
                <path fill="#E6435C" d="M310.067 219.26s1.192 3.296 4.023 14.118c0 0 1.637 5.986 1.918 6.665.28.678-5.051 1.85-5.063 1.137-.012-.716-5.668-15.007-7.145-17.74-1.3-2.405 6.267-4.18 6.267-4.18M297.58 224.438c-1.708 3.822-18.307 15.114-18.307 15.114-.741-.454-2.621-1.67-3.196-2.334-.69-.797 3.471-4.771 3.471-4.771 9.352-10.787 10.004-12.134 10.004-12.134s1.007.042 2.538.25c.22.031.445.064.675.101 2.84.46 5.852 1.45 4.815 3.774" mask="url(#w)"/>
                <path fill="#EDDAD3" d="M300.205 190.984l-5.846 2.507s-.17-.405-.392-1.033l5.85-2.61c.256.67.388 1.136.388 1.136" mask="url(#w)"/>
                <path fill="#EDDCCF" d="M298.978 183.015c-4.242-.665-6.999-1.698-6.999-1.698a7.97 7.97 0 0 1 .845-1.052s4.744 1.466 4.98 1.513c.077.016.555.478 1.174 1.237" mask="url(#w)"/>
                <path fill="#EEBBA2" d="M298.792 171.439s1.293 2.19 1.298 2.65c.004.459-.55.46-.26.941.29.48.881 1.38.596 1.671-.284.292-.963.15-1.104.775-.142.625-.93 2.528-1.8 2.524-.869-.004-3.856-1.509-4.056-2.122-.199-.612-1.335-4.03-1.695-4.687-.362-.658 5.93-3.83 6.476-2.792l.545 1.04z" mask="url(#w)"/>
                <path fill="#163342" d="M298.676 171.217s.936-.454.6-1.378c-.332-.924-1.128-2.152-2.954-1.562-1.826.588-3.207 1.837-4.47 2.04-1.26.205-1.554 1.433-.444 3.722 1.11 2.289 1.585 3.417 1.585 3.417s.35-1.976.83-1.9c.479.077 1.25-1.225 1.25-1.225l.126.337.853-.057s-1.112-2.399-.524-2.702c.59-.303 3.057-.424 3.148-.692" mask="url(#w)"/>
                <path fill="#163342" d="M296.052 174.611s.565 2.052 1.032 2.074c.468.023 2.065.285 2.362.52 0 0 .234.178.135.475-.099.298-.38 2.073.185 2.663 0 0-.402.633-2.416-.072-2.015-.705-3.076-1.659-3.076-1.659s1.444-2.748.926-3.944l.852-.057z" mask="url(#w)"/>
                <path fill="#EEBBA2" d="M295.071 173.98s-.587-1.107-1.652-.337c-.776.56.254 2.428 1.058 2.391.802-.038 1.03-1.082.594-2.053" mask="url(#w)"/>
                <path fill="#323657" d="M298.465 187.633c-.44-2.023-1.89-3.59-4.082-4.414-1.08-.405-2.306-.599-3.225-.54-.116.237-.23.505-.336.757a4.21 4.21 0 0 1 .698-.062c.718 0 1.664.14 2.605.493 1.133.427 3.116 1.5 3.64 3.91.203.935.025 1.766-.545 2.54-1.607 2.178-5.847 3.182-7.869 3.547.024.18.051.355.082.524l.03.167c2.107-.372 6.56-1.423 8.338-3.834.685-.928.908-1.967.664-3.088" mask="url(#w)"/>
                <path fill="#EDDCCF" d="M300.205 190.984l-5.846 2.507s-.17-.405-.392-1.033c-.626-1.78-1.656-5.338-.317-6.438 3.196-2.629 5.336 1.66 6.166 3.828.257.67.39 1.136.39 1.136" mask="url(#w)"/>
                <path fill="#EEBBA2" d="M282.618 204.101s-.454.968.1 1.513c.473.464.746 1.282.831 1.532.114.337.905 1.344.418 1.376-.487.034-1.388-1.623-1.655-1.953-.266-.33-.693 1.145-1.046 1.316-.352.17-3.467-1.116-3.023-2.073.445-.958 1.726-1.431 1.794-1.61.068-.182.567-1.282.567-1.282l2.014 1.181z" mask="url(#w)"/>
                <path fill="#EEBBA2" d="M281.44 207.693s-1.62 2.813-1.941 2.888c-.32.077-.521-.042-.385-.313.137-.27 1.46-2.773 1.46-2.773s-2.676 2.93-2.91 3.043c-.136.066-.536-.146-.482-.299.055-.154 2.47-3.223 2.47-3.223s-2.506 2.73-2.748 2.769c-.212.034-.541-.227-.375-.443.166-.217 2.287-2.895 2.287-2.895s-2.003 1.86-2.259 1.786c-.157-.046-.51-.216.028-.68.54-.464 1.64-1.695 1.64-1.695l3.216 1.835z" mask="url(#w)"/>
                <path fill="#962C3C" d="M300.93 221.35c-.38-.287-1.092-.84-1.483-1.145 0 0 1.583-3.812 2.154-6.595 0 0 .614 3.936-.67 7.74" mask="url(#w)"/>
                <path fill="#555E96" d="M202.143 233.98s1.32 1.386 2.66 1.676c1.342.29 2.279.66 2.29 1.455.01.796-3.859 1.319-5.392.518-2.29-1.195-2.524-.836-2.776-1.433-.255-.598.304-2.197.288-2.387-.021-.235 2.93.172 2.93.172" mask="url(#w)"/>
                <path fill="#2F6B8C" d="M201.994 233.318s.175.65.148.662c-.025.014-3.02.35-2.93-.17.074-.423.179-.882.179-.882l2.603.39z" mask="url(#w)"/>
                <path fill="#555E96" d="M187.226 234.343s.971 1.35 2.27 1.66c1.282.307 2.112.89 2.175 1.663.063.773-3.02 1.784-5.186.428-1.424-.891-1.955-.842-2.242-1.409-.287-.565.15-2.153.122-2.338-.036-.226 2.861-.004 2.861-.004" mask="url(#w)"/>
                <path fill="#2F6B8C" d="M187.187 233.675s.064.653.04.667c-.025.014-2.88.52-2.863.005.014-.408.182-.915.182-.915l2.64.243z" mask="url(#w)"/>
                <path fill="#2F3245" d="M198.973 194.342s1.387 10.065 1.955 13.467c.661 3.98.886 7.266 1.071 9.326.232 2.59.54 15.844.704 16.6.162.758-4.041.365-4.041.365s-1.364-16.974-2.056-19.731c-.644-2.57-3.07-13.538-3.946-13.268-1.825.563-2.388 13.268-2.823 15.295-.436 2.025-1.602 17.97-1.602 17.97s-3.965.636-4.763 0c0 0 .625-14.218.903-18.016.106-1.447-.916-17.326 1.533-23.73 1.295-3.384 13.065 1.722 13.065 1.722" mask="url(#w)"/>
                <path fill="#F5B45D" d="M209.306 186.423s-8.67-1.144-10.123-2.118c-.672-.45-1.272-1.822-1.76-3.355a32.566 32.566 0 0 1-.443-1.54v-.002a50.005 50.005 0 0 1-.852-3.938s-1.92-5.142 1.406-5.91c0 0 1.296.327 1.842 1.613s1.34 3.15 1.596 3.982c.175.572 1.602 6.015 1.734 6.183.132.169.844.79 2.032 1.114 1.936.528 5.098.595 5.098.595l-.53 3.376z" mask="url(#w)"/>
                <path fill="#EEA987" d="M190.678 163.855l.001.003c.164.797.41 1.574.72 2.26 1.076 2.368 4.692 3.29 6.064-2.173.26-1.034.332-1.906.289-2.639-.158-2.608-1.805-3.431-1.805-3.431-1.272-.381-3.605-.605-4.76.891-.822 1.063-.91 3.132-.509 5.09" mask="url(#w)"/>
                <path fill="#665249" d="M190.678 163.855l.001.003s.174.095 1.17-1.096c.2-.239.255-.02.342-.127l1.168-.159s-.63-2.017.868-2.174c1.527-.16 3.525 1.004 3.525 1.004.95-3.928-.965-3.265-.965-3.265-.947-.65-4.986-1.089-6.142.407-.82 1.064-.369 3.45.033 5.407" mask="url(#w)"/>
                <path fill="#EEA987" d="M192.606 161.869c.01-.386-.639-.875-1.135-.162-.498.712.33 1.794.643 1.686.313-.107.478-.887.492-1.524" mask="url(#w)"/>
                <path fill="#F5B45D" d="M194.337 168.747s3.14.645 3.546 1.006c.442.384 1.325 4.263 1.372 5.31.045 1.046-.223 5.357-.665 6.986-.443 1.627.603 10.742.883 12.997 0 0-8.299 2.017-15.095 1.133 0 0 1.855-9.94 1.582-12.17-.348-2.858-1.48-9.087-1.48-9.087s.786-4.838 1.514-5.15c2.408-1.034 4.416-.995 4.416-.995l3.927-.03z" mask="url(#w)"/>
                <path fill="#EEA886" d="M194.732 169.426s-.96.757-4.182-.66c0 0 .495-1.888.322-4.125-.167-2.149 3.825 2.473 3.825 2.473a23.95 23.95 0 0 0-.014 1.56c.015.506.049.752.049.752" mask="url(#w)"/>
                <path fill="#EEA886" d="M195.026 168.897s.738 1.096-.29 1.283c-1.03.187-3.181-.011-4.326-1.403 0 0 3.17-.3 4.616.12" mask="url(#w)"/>
                <path fill="#DBDFF0" d="M199.863 175.155s-2.538 13.54-8.666 21.27c0 0 6.193 2.852 17.345 0 0 0 7.745-13.249 8.527-20.701 0 0-7.66 1.53-17.206-.57" mask="url(#w)"/>
                <path fill="#BDC9F2" d="M200.266 176.654s-2.297 12.26-7.847 19.258c0 0 5.609 2.583 15.706 0 0 0 7.013-11.995 7.721-18.742 0 0-6.936 1.385-15.58-.516" mask="url(#w)"/>
                <path fill="#A77860" d="M194.683 168.673c-2.242-.108-2.978-2.015-2.978-2.015 1.111 1.569 2.972 1.233 2.972 1.233v.051c-.003.286 0 .53.006.731" mask="url(#w)"/>
                <path fill="#EEA886" d="M192.873 188.477s.257.196.51.165c.44-.053.9-.632 1.394-.207.496.425-.316 2.557-.646 2.832-.33.276-1.154-.062-2.085-1.093-.932-1.03.827-1.697.827-1.697" mask="url(#w)"/>
                <path fill="#EEA987" d="M194.592 188.319s.913.237 1.898.64c.864.353 1.804.946 1.808 1.168.004.244-.915-.21-1.794-.496-.809-.263-.692-.06-.692-.06s-.03-.059.798.42c.89.513 1.754 1.142 1.73 1.405-.01.128-.075.174-.427.046.188.121.182.196.142.289-.207.48-1.627-.048-2.19-.257.432.163.732.336.434.542-.34.235-2.315-.612-3.05-.839-.802-.248 1.343-2.858 1.343-2.858M213.143 187.532s.862-.18 1.118-.55c.257-.37.363-.265.668-.75.303-.485.578-1.838.272-2.3-.306-.461-.84-.264-.84-.264s-1.6 1.058-1.218 3.864" mask="url(#w)"/>
                <path fill="#A87F25" d="M188.257 175.504s-1.317 6.196-.806 6.602c.51.408 3.65 4.252 4.322 4.75.673.5-6.433-3.797-6.67-4.75-.24-.952 3.154-6.602 3.154-6.602" mask="url(#w)"/>
                <path fill="#F5B45D" d="M187.732 169.64c.497.142.756.974.787 3.455.03 2.48-.732 3.694-1.004 4.294-.271.6-1.727 4.276-1.364 4.707.363.433 3.662 3.135 3.858 3.362.198.226 3.856 2.967 3.856 2.967l-1.497 2.558s-7.815-5.016-8.436-5.532c-.621-.516-2.431-1.551-1.985-3.592.452-2.075 1.165-6.902 1.334-7.29.17-.388 1.169-5.863 4.451-4.93" mask="url(#w)"/>
                <path fill="#FFE0E5" d="M251.686 171.673c.105-.77.093-1.544-.027-1.656-.235-.207-1.622-1.157-2.322-1.63l.225-.332c.083.056 2.049 1.387 2.361 1.662.35.309.228 1.51.158 2.011l-.395-.055z" mask="url(#w)"/>
                <path fill="#FF556F" d="M249.795 171.207l-.696 6.277 2.72.604 2.026-5.984z" mask="url(#w)"/>
                <path fill="#3B3B40" d="M236.794 162.24s-2.728-.092-3.598 2.142c-.87 2.233-.214 3.945.034 4.76.65 2.124.702 2.896.388 4.177-.277 1.136-.534 1.724-.855 2.786-.321 1.063.214.944.26 1.022.048.079 10.438 2.314 10.438 2.314s-.33-2.658-1.017-3.704c-.506-.768-1.26-1.03-.692-3.306.57-2.278.932-3.335.612-4.986-.37-1.914-.602-3.111-2.404-4.364a4.837 4.837 0 0 0-3.166-.841" mask="url(#w)"/>
                <path fill="#323657" d="M233.723 190.71a14.724 14.724 0 0 1-1.14 4.912s-2.23.92-3.305-.475c-.425-.548-.794-2.396-.95-4.752-.241-3.627.83-8.811 2.187-11.971 0 0 3.587 5.517 3.208 12.287" mask="url(#w)"/>
                <path fill="#323657" d="M233.723 190.71a14.724 14.724 0 0 1-1.14 4.912s-2.23.92-3.305-.475c-.425-.548-.794-2.396-.95-4.752l5.395.316z" mask="url(#w)"/>
                <path fill="#EEA886" d="M253.094 175.977s.415-1.01.567-1.24c.154-.232-.324-.731-.624-.13-.301.6-.484.984-.484.984l.541.386z" mask="url(#w)"/>
                <path fill="#EEA886" d="M253.25 176.637s.179-.378-.44-1.009c-.822-.838-1.973-1.807-2.246-1.766-.391.06-.314.37.24.807.551.438.735.58.735.58s-1.188-.568-1.517-.522c-.33.046-.47.38-.29.51.182.13.644.337.644.337s-.528-.172-.656.018c-.096.142-.197.357.263.63 0 0-.472.247-.056.67.416.423.47.68.405 1.23-.064.55.285 1.417.285 1.417l1.603-.178s.294-1.437.502-1.773c.21-.335.527-.95.527-.95" mask="url(#w)"/>
                <path fill="#FFD255" d="M243.147 185.782c.733 1.098 1.693 2.259 2.467 2.248.5-.008 6.782-8.085 6.78-8.491-.003-.457-2.312-1.089-2.312-1.089s-1.103 1.908-2.115 2.713c-1.012.805-2.245 2.524-2.499 2.701-.254.177-1.174-1.796-1.174-1.796-.304-.951-.678-2.635-1.563-4.193-.885-1.56-2.871-2.237-2.871-2.237-3.868 1.735 2.158 8.234 2.158 8.234s.778 1.408 1.129 1.91" mask="url(#w)"/>
                <path fill="#FFD255" d="M238.952 174.073s3.039 2.189 4.053 7.41c0 0-2.854-5.583-3.785-6.577 0 0-.392-.376-.268-.833M243.686 182.82s-.04 12.113 0 14.907c.039 2.794-3.545-6.713-3.545-6.713s1.911-5.926 3.545-8.194" mask="url(#w)"/>
                <path fill="#C2B2AD" d="M227.748 211.92s8.679-.945 13.985 2.098c5.305 3.042-4.961-9.01-4.961-9.01s-8.904 3.503-9.024 6.912" mask="url(#w)"/>
                <path fill="#EDDAD3" d="M246.4 238.323s.46 1.22 1.098 1.511c.638.29 2.084 1.63 2.665 1.727.58.097 1.973.206 2.05.94.078.735-.072 1.401-2.878 1.014-2.805-.386-5.456-1.681-5.456-1.681s-.565-2.84.347-4.242c.912-1.402 2.174.73 2.174.73" mask="url(#w)"/>
                <path fill="#EEA886" d="M246.4 238.323l-.524-1.751h-2.005v1.866s3.033 1.138 2.53-.115" mask="url(#w)"/>
                <path fill="#EDDAD3" d="M228.813 235.023s.198 1.266.509 1.65c.311.384.761 2.205 1.396 2.787.635.582 2.191 1.893 1.715 2.547-.476.656-3.807-.186-4.997-2.212-1.19-2.025-1.597-2.256-1.446-2.806.152-.55 1.28-2.669 1.253-2.924-.027-.257 1.57.958 1.57.958" mask="url(#w)"/>
                <path fill="#EEA886" d="M229.3 234.113c-.02 0-.402.575-.487.91-.084.336-.82.468-1.411-.26 0 0-.184-.264-.159-.699.026-.435.523-1.463.523-1.463l1.534 1.512z" mask="url(#w)"/>
                <path fill="#292C47" d="M237.595 205.327c.104.505.774 2.618 1.523 4.967l.654 2.045c.473 1.482.923 2.901 1.23 3.922.169.556.295.995.36 1.262.432 1.764-.054 4.533-.21 6.846-.158 2.315 2.34 13.696 2.34 13.696.588.276 3.2-.452 3.2-.452-.431-.823-1.013-14.993-.776-15.893.235-.903.392-3.412.156-4.394a3.851 3.851 0 0 1-.077-.786c-.02-1.238.236-3.284.39-5.527.198-2.824-.9-9.842-1.059-10.471a6.322 6.322 0 0 0-.066-.237c-.289-.985-1.22-3.78-1.22-3.78-1.888-.561-3.31-.663-4.371-.447-1.405.286-2.178 1.128-2.564 2.198-.923 2.552.354 6.395.49 7.05" mask="url(#w)"/>
                <path fill="#292C47" d="M226.864 233.755l2.579 1.095c.324-1.569 7.523-12.464 7.997-13.68.474-1.216.979-3.57.979-4.431 0-.155.01-.415.032-.752.084-1.308.324-3.774.668-5.693.063-.358.13-.696.202-1.006.38-1.656.446-7.312.45-10.638.002-1.48-.008-2.499-.008-2.499l-.094-.073c-.716-.54-5.307-3.84-6.907-.756a9.23 9.23 0 0 0-.867 2.602c-.514 2.794-.896 6.372-.482 9.24.355 2.454 1.123 5.229 1.646 7.757.286 1.378.539 2.869.217 3.426-.903 1.567-1.785 2.896-3.61 8.43-.595 1.8-2.802 6.978-2.802 6.978" mask="url(#w)"/>
                <path fill="#EB4747" d="M233.494 190.486c-.42 1.673-2.55 10.03-2.496 10.526.018.186 2.356.577 4.503.954 3.573.628 8.185-.709 9.76-1.661 0-.002-.002-.002-.002-.002-.032-.123-2.143-7.997-2.3-8.904-.156-.915.191-4.345.27-5.313.03-.359.183-.871.362-1.423v-.002c.305-.934.685-1.985.664-2.593a3.637 3.637 0 0 0-.319-1.335c-.213-.497-.518-1-.88-1.561-.21-.328-.43-.66-.653-.984-.719-1.056-1.438-2.013-1.79-2.343a5.846 5.846 0 0 0-.722-.576h-.003a3.786 3.786 0 0 0-.667-.363c-.048-.02-.074-.028-.074-.028l-3.114-.497s-.333.12-.802.28c-.575.195-1.355.45-1.98.612v.001c-.096.025-.189.049-.276.07 0 0-.532.197-1.093.83-.537.603-1.102 1.592-1.119 3.602-.013 1.77 2.025 6.004 2.338 7.31.314 1.308.812 1.726.393 3.4" mask="url(#w)"/>
                <path fill="#EDDAD3" d="M239.888 175.268l1.806 2.843 1.666 2.622c-.005-.014-.116-.411-.304-1.561a43.33 43.33 0 0 1-.114-.74 1.926 1.926 0 0 0-.054-.241c-.713-1.642-2.916-2.88-2.997-2.922h-.003" mask="url(#w)"/>
                <path fill="#EEA886" d="M235.352 174.72s.09-3.684-.225-4.276c-.315-.593 3.803 2.465 3.803 2.465s-.014.146-.02.25a3.9 3.9 0 0 0 .024.743c.003.036.006.076.012.12.049.479.178.995.384 1.425.453.947-3.978-.727-3.978-.727" mask="url(#w)"/>
                <path fill="#FFD255" d="M242.88 178.172h.001s.097.199.175 1l-.653-.985s-1.165-1.67-1.564-2.103c-.4-.435-.948-.815-.948-.815s2.293 1.102 2.99 2.903" mask="url(#w)"/>
                <path fill="#EEA886" d="M239.147 174.878s2.088 3.207 1.38 3.487c-.707.28-4.532-.374-6.158-3.42 0 0 2.431-1.247 4.778-.067" mask="url(#w)"/>
                <path fill="#2F4563" d="M243.225 186.14l.007-.073a.097.097 0 0 0-.003.019l-.004.054" mask="url(#w)"/>
                <path fill="#EDDAD3" d="M234.207 180.484s-2.66-.945-3.488-1.008c0 0 .62-4.733 3.367-4.258 2.746.475.121 5.266.121 5.266" mask="url(#w)"/>
                <path fill="#EB4747" d="M238.984 174.299s-.162.609-3.62-.453l-.163.784s-.458.069-1.706.579c0 0 6.237 5.87 7.179 3.474.942-2.396-1.453-3.777-1.453-3.777l-.237-.607z" mask="url(#w)"/>
                <path fill="#EB4747" d="M239.22 174.906l4.716 5.826c-.213-.496-.519-1-.88-1.56-.21-.328-.43-.66-.653-.984-.72-1.055-1.438-2.013-1.79-2.343a5.846 5.846 0 0 0-.722-.576h-.003a3.786 3.786 0 0 0-.667-.363z" mask="url(#w)"/>
                <path fill="#FFD255" d="M243.232 186.067c.306-.936 1.121-3.087 1.062-4-.03-.462-.17-.896-.357-1.334h-.001a11.359 11.359 0 0 0-.88-1.613c-.21-.327-.589-.88-.81-1.204-.72-1.055-1.282-1.751-1.634-2.082a5.98 5.98 0 0 0-.723-.59c-.002-.002 0 0 0 0-.313-.21-.552-.292-.668-.338 0 0 4.968 4.48 4.011 11.16" mask="url(#w)"/>
                <path fill="#EEA886" d="M232.537 194.814s.34.524.55.629c.211.104.452.596.452.596l-1.347.988s-.492-1.163-1.11-1.528c-.617-.365 1.455-.685 1.455-.685" mask="url(#w)"/>
                <path fill="#FFD255" d="M230.497 178.017s1.102-3.164 3.388-2.176c2.197.952-.764 4.813-1.029 5.287-.266.474-2.75 4.28-3 4.793-.79 1.622-.525 2.427-.257 3.205.903 2.61 2.666 5.05 3.095 5.471.428.42-1.324 1.931-2.017 1.458-.922-.632-2.574-3.922-3.029-4.668-.556-.915-1.957-2.562-.964-5.426.67-1.928 3.813-7.944 3.813-7.944" mask="url(#w)"/>
                <path fill="#DBCAC3" d="M233.89 195.072l-2.892 2.32s2.269 3.408 3.357 1.976c1.089-1.433-.465-4.296-.465-4.296" mask="url(#w)"/>
                <path fill="#FFD255" d="M239.915 181.969h.001c-.477-5.092-4.553-8.17-4.553-8.17l-.157.756c-4.194 1.183-4.293 2.114-4.487 4.92-.075 1.077.227 2.513.616 4.06.158.627.33 1.273.497 1.92.495 1.913.948 3.837.86 5.344-.192 3.273-8.945 17.67-8.945 17.67 0 3.043 7.584 7.398 7.584 7.398-.354-4.01 9.266-29.858 8.584-33.898" mask="url(#w)"/>
                <path fill="#B3933C" d="M231.832 185.455c1.307-1.533 2.076-6.013 2.076-6.013-.778 2.188-2.573 4.093-2.573 4.093.158.627.33 1.273.497 1.92" mask="url(#w)"/>
                <path fill="#151624" d="M239.118 210.294l.654 2.045c1.05-4.052 1.233-8.569 1.233-8.569-.319 2.519-1.887 6.524-1.887 6.524" mask="url(#w)"/>
                <path fill="#323657" d="M231.335 188.906l-.136-.22.136.22zm.136.221l-.272-.442c.039-.023 2.927-1.841 3.474-5.108.398-2.372-.566-4.965-2.75-7.629l.462-.317c2.287 2.787 3.227 5.51 2.8 8.038-.591 3.508-3.587 5.38-3.714 5.458z" mask="url(#w)"/>
                <path fill="#323657" d="M231.922 175.949s.139-.203.463-.317c0 0-.06.305-.463.317" mask="url(#w)"/>
                <path fill="#EEA987" d="M238.92 163.67s3.009 1.961 2.031 6.705c-.978 4.743-4.53 2.134-4.916 1.867-.385-.27-1.579-3.238-1.625-4.533-.044-1.22-.68-6.108 4.51-4.04" mask="url(#w)"/>
                <path fill="#3B3B40" d="M238.714 164.62c-.315-.092-1.374 1.954-1.944 2.458-.57.505-1.617 1.77-1.72 3.159-.103 1.389-1.275-3.033-.87-4.673.407-1.64.947-4.046 4.614-2.138 3.667 1.908 2.718 5.318 2.718 5.318s-1.213-3.655-2.798-4.123" mask="url(#w)"/>
                <path fill="#EEA987" d="M236.172 167.895c-.097-.561-1.336-1.035-1.318-.193.018.844.703 1.817 1.09 1.756.387-.062.318-1.044.228-1.563" mask="url(#w)"/>
                <path fill="#A87860" d="M238.933 173.902h-.006c-2.178-.026-2.892-1.66-2.892-1.66 1.508 1.137 2.715.948 2.874.916a3.9 3.9 0 0 0 .024.744" mask="url(#w)"/>
                <path fill="#452A20" d="M55.31 222.921s-1.533 1.366-2.42 1.427c-.888.062-5.074.6-5.258.661-.183.062-.118 1.377-.118 1.377s5.468 1.397 7.55.51l.133.387s2.42.378 2.542.163c.123-.215.3-2.496.035-3.25-.265-.756-2.465-1.275-2.465-1.275" mask="url(#w)"/>
                <path fill="#0F151F" d="M55.818 221.97l-.508.951 2.464 1.274.685-.908z" mask="url(#w)"/>
                <path fill="#452A20" d="M43.92 219.321s-1.874-.424-2.383-1.152c-.51-.73-3.212-4.224-3.359-4.35-.147-.126-1.243.607-1.243.607s1.614 5.404 3.448 6.73l-.265.314s.921 2.267 1.169 2.262c.246-.006 2.296-1.028 2.808-1.644.512-.616-.174-2.767-.174-2.767" mask="url(#w)"/>
                <path fill="#0F151F" d="M44.997 219.268l-1.076.053.174 2.767 1.132.12z" mask="url(#w)"/>
                <path fill="#995D33" d="M44.294 218.905l.368 3.917s11.602-.904 13.845-1.041c2.241-.135 5.188-.55 7.31-.427 1.357.076 8.704.131 13.942.144.926.003 1.786.003 2.536.003h.002c1.652 0 2.764-.01 2.857-.025.368-.06 3.583-5.63-10.859-6.762 0 0-9.133 1.742-10.807 1.988-1.674.244-9.222 1.54-11.115 1.597-1.891.057-8.079.606-8.079.606" mask="url(#w)"/>
                <path fill="#3C6399" d="M85.856 207.082h9.748c-.304-.726-.486-1.17-.486-1.17a9.839 9.839 0 0 0-.095-.353h-9.12l-.047 1.523z" mask="url(#w)"/>
                <path fill="#285173" d="M80.118 195.042s-3.247 1.122-3.921 1.98c-.673.856.47 8.343.47 8.343l-.082 7.466s7.678 3.916 11.803 4.16c0 0 1.142-5.752 1.101-8.322-.04-2.57.409-7.874.409-7.874s-.409-4.08.408-5.344c0 0-4.491-1.55-6.085-1.592-1.592-.04-4.103 1.183-4.103 1.183" mask="url(#w)"/>
                <path fill="#285173" d="M90.306 195.452s1.934 1.875 2.506 2.728c.64.956 4.694 7.177 4.572 7.88-.123.705-.704 1.286-2.573 1.806-1.868.52-8.115 2.295-8.115 2.295l-1.133-2.479s6.493-1.79 7.197-2.257c.705-.465-2.894-4.227-2.894-4.227s-1.461-4.67.44-5.746M76.197 197.022s-4.08 5.887-4.6 6.438c-.52.55 3.186 1.653 3.186 1.653s1.898-3.777 2.388-4.046c.49-.269.656-4.15-.974-4.045" mask="url(#w)"/>
                <path fill="#A36336" d="M88.361 217.963s.272 3.517-2.383 3.802c-2.654.286-5.577-.53-9.405-2.569-3.826-2.041-8.94-4.326-9.814-3.958-.872.367-7.774 8.957-7.774 8.957l-4.002-1.817s7.432-10.108 7.758-10.95c.328-.841 1.798-3.25 3.31-3.106 1.51.144 22.318 7.82 22.318 7.82l-.008 1.82z" mask="url(#w)"/>
                <path fill="#EEA886" d="M79.403 183.294c-1.52.139-3.042 2.12-2.369 5.485.675 3.367 2.39 5.283 3.962 5.08 1.572-.203 2.018-1.57 2.806-3.508.788-1.938.774-5.305-.026-5.895-.8-.592-1.494-1.428-4.373-1.162" mask="url(#w)"/>
                <path fill="#EEA886" d="M79.934 193.308s.409 1.49.307 2.346c0 0 2.327 1.02 3.94-.98 0 0-.613-3.17-.123-5.103.49-1.933-4.124 3.737-4.124 3.737" mask="url(#w)"/>
                <path fill="#283B54" d="M76.87 188.588s2.08-1.034 3.162-1.218c1.082-.183 2.087.288 1.842 1.328l.653.266s1.195.611 1.404 1.306c0 0 .754-3.204.818-4.34.07-1.241-1.221-3.147-5.08-2.881-3.86.264-2.78 5.084-2.798 5.54" mask="url(#w)"/>
                <path fill="#EEA886" d="M82.323 188.23c.086-.441.776-1.163 1.184-.45.408.714-.45 1.918-.898 1.918-.45 0-.408-.836-.286-1.468" mask="url(#w)"/>
                <path fill="#FCBC79" d="M72.879 202.736c.895-1.655 2.892-4.077 6.172-1.575 4.665 3.557 5.164-.663 11.002 1.634 4.127 1.624 6.41 5.965 4.608 10.422l-.064.168a8.65 8.65 0 0 1-.815 1.547c-2.15 3.223-6.13 4.137-9.733 2.72-5.837-2.298-4.463-5.98-9.002-6.59-5.127-.69.77-4.558.77-4.558l-3.497-2.506s.181-.563.559-1.262" mask="url(#w)"/>
                <path fill="#E0A76C" d="M74.029 204.885l-1.363-.976.061-.158c.09-.222.229-.536.416-.882.543-1.003 1.47-2.248 2.808-2.475.892-.151 1.875.177 2.922.975 2.59 1.976 4.045 1.642 5.584 1.288 1.333-.307 2.843-.653 5.493.39 4.183 1.645 6.089 5.971 4.435 10.062l-.066.17a8.201 8.201 0 0 1-.788 1.498c-1.995 2.992-5.765 4.045-9.381 2.623-2.842-1.12-3.914-2.562-4.858-3.835-.977-1.315-1.822-2.452-4.217-2.775-.737-.1-1.648-.325-1.804-.839-.263-.872 1.531-2.439 2.723-3.22l.319-.21-2.284-1.636zm-1.909-1.208c-.052.137-.08.22-.082.228l-.06.185 3.35 2.4c-.86.61-3.012 2.288-2.622 3.583.199.656.977 1.08 2.315 1.26 2.13.285 2.863 1.275 3.793 2.528.945 1.273 2.12 2.857 5.133 4.042 3.888 1.53 7.942.397 10.087-2.818a8.685 8.685 0 0 0 .838-1.592l.066-.171c.877-2.17.846-4.472-.09-6.477-.905-1.94-2.573-3.467-4.694-4.302-2.835-1.115-4.445-.745-5.865-.419-1.512.349-2.706.623-5.06-1.173-1.193-.909-2.34-1.278-3.412-1.097-1.56.265-2.603 1.641-3.202 2.748-.242.45-.405.842-.495 1.075z" mask="url(#w)"/>
                <path fill="#56361B" d="M88.234 212.948l2.135-5.278.977.383-.319.792.25.098-1.591 3.94-.46 1.138-.252-.099-.32.792-.978-.386z" mask="url(#w)"/>
                <path fill="#C9954A" d="M52.539 195.487l.144-.358-.309-.243.171-.424.452.039.354.278-.172.424-.395-.034-.144.358-.05-.02zM53.48 195.38l.172-.425.45.04.005.004.35.275-.171.423-.394-.034-.134.33-.024-.009-.078-.03.134-.331zM54.586 195.875l.172-.425.451.04.003.004.35.273-.171.425-.394-.035-.122.302-.1-.04.121-.302z" mask="url(#w)"/>
                <path fill="#392412" d="M79.301 207.223a2.2 2.2 0 0 1 4.086 1.627 2.201 2.201 0 0 1-4.086-1.627" mask="url(#w)"/>
                <path fill="#63402A" d="M51.035 197.256l3.906 1.43c.03.013.062.017.093.018h.129l.164.003h.056l.037.003c.01.002.021.004.032.008a.132.132 0 0 1 .033.01l1.045.433.111.046.79.327.11.045.426.177.11.046 1.143.473.11.047.017.006.111.046 1.27.526.11.046 1.27.526.111.045 1.27.528.11.046 1.27.524.11.046 1.323.548.112.046 1.322.548.11.047 1.514.626.112.046 1.513.628.113.046 1.09.452.111.046 1.092.451.11.047.794.328.111.046.75.31.112.047.778.323.11.045.717.298.11.044.719.298.111.046.717.299.111.046.76.313.013.006.992-2.455-.014-.005-.77-.286-.112-.043-.728-.271-.113-.043-.728-.27-.112-.042-.728-.272-.112-.042-.79-.295-.112-.042-.761-.283-.112-.042-.806-.3-.112-.042-1.108-.413-.112-.041-1.107-.413-.112-.043-1.537-.573-.113-.041-1.536-.573-.113-.042-1.342-.5-.112-.042-1.342-.5-.113-.042-1.287-.481-.112-.042-1.288-.48-.114-.042-1.287-.48-.112-.042-1.289-.481-.113-.042-.015-.006-.113-.041-1.159-.432-.113-.041-.432-.162-.112-.043-.8-.298-.113-.042-1.06-.397a.136.136 0 0 1-.032-.013.412.412 0 0 1-.058-.04l-.04-.038-.12-.11-.094-.087a.305.305 0 0 0-.08-.05l-3.832-1.613c-.176-.075-.397.052-.488.277l-.51 1.265c-.093.226-.021.467.159.532" mask="url(#w)"/>
                <path fill="#CEBFAE" d="M61.561 199.16l-.722 1.786-.11-.046.72-1.782zM59.22 200.275l.11.047.702-1.733-.113-.041zM57.43 199.534l.11.046.676-1.667-.113-.043zM55.327 198.707h.056l.037.003c.01.002.021.004.032.008l.646-1.598a.11.11 0 0 1-.028-.017.198.198 0 0 1-.03-.023l-.04-.038-.673 1.665zM62.961 199.682l-.742 1.836-.11-.046.74-1.832zM64.362 200.204l-.763 1.886-.11-.047.76-1.881zM65.762 200.727l-.782 1.934-.111-.046.78-1.93zM67.216 201.27l-.802 1.985-.112-.046.802-1.982zM68.67 201.811l-.823 2.039-.112-.047.823-2.034zM70.32 202.425l-.848 2.097-.111-.046.846-2.092zM71.969 203.041l-.871 2.155-.112-.046.87-2.151zM73.188 203.494l-.89 2.2-.11-.046.888-2.195zM74.296 203.908l.112.042-.906 2.242-.11-.047zM75.326 204.292l-.92 2.274-.11-.046.918-2.27zM76.2 204.618l-.932 2.305-.112-.045.931-2.303zM77.101 204.954l-.945 2.337-.11-.045.943-2.334zM77.941 205.268l-.957 2.366-.11-.045.955-2.363zM78.67 205.538l.112.043-.968 2.397-.112-.047zM79.623 205.894l-.982 2.427-.11-.046.979-2.423zM80.42 206.192l-.992 2.455-.028-.01.992-2.456z" mask="url(#w)"/>
                <path fill="#CCBEA9" d="M54.56 197.122l-2.203-.992.042-.09 2.187.985 1.44.161 34.014 13.058-.037.092-33.998-13.053z" mask="url(#w)"/>
                <path fill="#CCBEA9" d="M54.555 197.12l.036-.092 1.305.502 33.949 13.195-.036.092-33.95-13.195z" mask="url(#w)"/>
                <path fill="#CCBEA9" d="M52.354 196.127l.05-.086 3.358 1.833 33.889 13.333-.038.091-33.892-13.334zM52.678 197.222l.035-.093 2.907 1.086 33.837 13.473-.038.09-33.835-13.471z" mask="url(#w)"/>
                <path fill="#CCBEA9" d="M53.769 197.681l.048-.072 1.67.949 33.775 13.611-.037.092-33.781-13.614z" mask="url(#w)"/>
                <path fill="#E6AA54" d="M53.516 197.678c.05-.124.2-.18.335-.127h.003c.021.01.041.022.058.033a.222.222 0 0 1 .04.036.151.151 0 0 1 .021.025.243.243 0 0 1 .047.155.212.212 0 0 1-.016.07c-.05.12-.197.18-.33.129l-.005-.001c-.135-.054-.203-.197-.153-.32M53.457 196.602h-.005c-.134-.053-.203-.197-.153-.32.05-.123.2-.18.335-.127l.004.001.03.015c.09.05.142.141.135.233v.002a.227.227 0 0 1-.006.038c-.001.007-.004.011-.005.017l-.004.013c-.004.01-.01.02-.015.029a.232.232 0 0 1-.057.065.268.268 0 0 1-.237.042l-.022-.008M54.75 196.627h.003c.133.055.2.196.15.318-.049.122-.196.179-.33.129h-.004c-.135-.054-.204-.198-.154-.321.05-.123.2-.18.334-.126" mask="url(#w)"/>
                <path fill="#FAC478" d="M90.198 210.36c-.035.09-.144.13-.242.092-.098-.038-.148-.143-.112-.231.037-.09.145-.13.243-.092.099.039.147.141.111.23M90.004 210.84c-.036.09-.145.131-.242.093-.098-.038-.148-.142-.112-.232.037-.088.145-.129.243-.092.097.039.147.143.11.231M89.81 211.322c-.037.09-.145.13-.243.092-.097-.039-.147-.143-.111-.23.036-.091.144-.131.242-.093.098.039.147.142.111.231M89.614 211.803c-.035.09-.144.13-.241.092-.098-.037-.148-.142-.113-.231.037-.09.146-.13.243-.092.097.038.148.142.111.23M89.42 212.285c-.036.089-.145.13-.242.091-.098-.038-.148-.142-.112-.23.037-.09.146-.131.243-.094.098.04.147.143.111.233" mask="url(#w)"/>
                <path fill="#EEA886" d="M86.74 208.164s-.532.091-.964-.134c-.433-.226-1.098-.784-1.41-.586-.313.199-1.215.423-1.415.42-.2-.003-.075.19.184.366s-1.446.45-1.475.944c-.029.496.043 1.079.609 1.487.564.41 2.355.075 2.746-.127.392-.2 2.226-1.129 2.97-1.07.742.058-1.245-1.3-1.245-1.3" mask="url(#w)"/>
                <path fill="#285173" d="M85.563 207.682s7.07-2.198 7.132-2.747c.061-.55-2.83-3.737-2.83-3.737l5.175.53s2.526 3.613 2.526 4.697c0 1.196-10.87 3.736-10.87 3.736l-1.133-2.479z" mask="url(#w)"/>
                <path fill="#A77860" d="M80.82 193.937c.127 0 .272-.012.426-.045.5-.102 1.205-.448 1.728-1.508l-.092-.044c-.398.807-.97 1.31-1.652 1.452-.516.108-.92-.028-.923-.03l-.034.097c.013.005.227.078.547.078" mask="url(#w)"/>
                <path fill="#EEA886" d="M74.347 206.537s-3.115-.482-5.768-1.502c-2.652-1.02-4.689-1.165-5.77-1.889-1.078-.725-1.402-2.202-1.029-2.479.375-.275 2.693.4 3.175.969.48.571.023.965.86 1.318.837.35 8.532 3.583 8.532 3.583" mask="url(#w)"/>
                <path fill="#285173" d="M66.131 203.086s-.036 1.201-.313 1.81c0 0 7.736 1.678 8.529 1.64l-8.216-3.45z" mask="url(#w)"/>
                <path fill="#4D3925" d="M73.902 217.836c.122.092 4.009 3.037 5.857 3.662.926.002 1.786.002 2.536.002-.103-.022-2.344-.55-8.393-3.664" mask="url(#w)"/>
                <path fill="#FFF" d="M156.415 248.382s-.75-4.16-5.533-7.489c0 0 4.92.202 6.554 5.682 0 0 .204-2.898.817-5.699 0 0-.204 2.872.818 5.7 1.02 2.827-2.656 1.806-2.656 1.806" mask="url(#w)"/>
            </g>
        </g>
    </g>
</svg>
