<svg xmlns="http://www.w3.org/2000/svg" width="24" height="24" viewBox="0 0 24 24">
    <path fill="#B5B5B5" fill-rule="evenodd" d="M16.298 14.708l-1.594 1.591s-2.518-2.704-2.707-2.704c-.185 0-2.705 2.704-2.705 2.704l-1.593-1.591s2.706-2.483 2.706-2.704c0-.225-2.706-2.708-2.706-2.708l1.593-1.594s2.541 2.704 2.705 2.704c.166 0 2.707-2.704 2.707-2.704l1.594 1.594s-2.707 2.52-2.707 2.708c0 .18 2.707 2.704 2.707 2.704M11.998 2C6.476 2 2 6.478 2 12c0 5.523 4.476 10 9.998 10C17.523 22 22 17.522 22 12S17.523 2 11.998 2"/>
</svg>
