<svg xmlns="http://www.w3.org/2000/svg" xmlns:xlink="http://www.w3.org/1999/xlink" width="64" height="64" viewBox="0 0 64 64">
    <defs>
        <filter id="a" width="126.6%" height="126.6%" x="-13.3%" y="-10.2%" filterUnits="objectBoundingBox">
            <feOffset dy="2" in="SourceAlpha" result="shadowOffsetOuter1"/>
            <feGaussianBlur in="shadowOffsetOuter1" result="shadowBlurOuter1" stdDeviation="2.5"/>
            <feColorMatrix in="shadowBlurOuter1" result="shadowMatrixOuter1" values="0 0 0 0 0 0 0 0 0 0 0 0 0 0 0 0 0 0 0.1 0"/>
            <feMerge>
                <feMergeNode in="shadowMatrixOuter1"/>
                <feMergeNode in="SourceGraphic"/>
            </feMerge>
        </filter>
        <rect id="b" width="64" height="63.679" y=".002" rx="31.839"/>
    </defs>
    <g fill="none" fill-rule="evenodd" filter="url(#a)">
        <mask id="c" fill="#fff">
            <use xlink:href="#b"/>
        </mask>
        <use fill="#FFF" xlink:href="#b"/>
        <path fill="#F26522" d="M50.356 32.132l-1.79-3.73a3.384 3.384 0 0 1-4.18-1.642c-.745-1.64-.296-3.431 1.195-4.327l-2.237-4.477c-.897-1.79-2.835-2.389-4.477-1.641l-23.58 11.64c-1.789.896-2.385 2.835-1.64 4.476l2.09 4.328c1.641-.598 3.432.15 4.177 1.791.746 1.64.299 3.431-1.192 4.327l1.787 3.731c.898 1.79 2.838 2.387 4.478 1.642l23.58-11.64c1.94-.745 2.534-2.836 1.789-4.478zM20.362 30.94c-.15 0-.298.15-.298.15a.82.82 0 0 1-.746-.45l-.15-.745c-.151-.447 0-.894.448-1.043.448-.151.893 0 1.045.447l.299.745c0 .298-.15.746-.598.896zm1.64 3.432c-.148 0-.297.149-.297.149a.821.821 0 0 1-.745-.448l-.299-.745c-.152-.448 0-.896.448-1.046.447-.149.893 0 1.044.45l.298.745c.15.298 0 .745-.449.895zm1.643 3.432c-.15 0-.15.15-.298.15a.818.818 0 0 1-.746-.448l-.3-.746c-.148-.449 0-.896.448-1.045.449-.15.898 0 1.045.447l.298.746c.148.3 0 .747-.447.898v-.002zm1.64 3.283c-.147.15-.147.15-.298.15a.823.823 0 0 1-.745-.448l-.299-.745c-.149-.45 0-.898.448-1.046.449-.149.896 0 1.045.448l.297.745c.152.3 0 .746-.446.896h-.002zm1.642 3.433c-.147.15-.147.15-.297.15a.82.82 0 0 1-.745-.45l-.3-.745c-.149-.448 0-.895.447-1.044.448-.15.897 0 1.046.447l.298.746c.149.298 0 .745-.447.896h-.002zm-.745-12.983c-.45-.746 0-1.642.745-2.09l6.716-3.283c.746-.447 1.643-.149 2.09.746.447.745.148 1.643-.746 2.09l-6.716 3.282c-.895.299-1.791 0-2.09-.745zm16.863.149l-12.089 5.969c-.745.447-1.64.15-2.087-.746-.448-.745-.152-1.643.745-2.089l12.087-5.968c.746-.45 1.643-.151 2.09.745.3.745 0 1.642-.746 2.089z" mask="url(#c)"/>
    </g>
</svg>
