<svg xmlns="http://www.w3.org/2000/svg" xmlns:xlink="http://www.w3.org/1999/xlink" width="172" height="172" viewBox="0 0 172 172">
    <defs>
        <circle id="a" cx="86" cy="86" r="86"/>
    </defs>
    <g fill="none" fill-rule="evenodd">
        <mask id="b" fill="#fff">
            <use xlink:href="#a"/>
        </mask>
        <use fill="#00BF8F" fill-opacity=".15" xlink:href="#a"/>
        <g mask="url(#b)">
            <path fill="#FFF" d="M28.34 136.934h116.556V39.23H28.34z"/>
            <path fill="#00BF8F" d="M28.34 51.5h116.556V39.23H28.34z"/>
            <path fill="#DFF1F1" d="M51.442 67.06h13.017V59.58H51.442zM89.665 67.06h13.018V59.58H89.665zM108.777 67.06h13.018V59.58h-13.018zM70.554 67.06H83.57V59.58H70.554zM32.33 67.06h13.017V59.58H32.33zM127.89 67.06h13.016V59.58H127.89zM51.356 80.127h13.017v-7.48H51.356zM89.58 80.127h13.017v-7.48H89.579zM108.691 80.127h13.018v-7.48H108.69z"/>
            <path fill="#FEBC90" d="M70.468 80.127h13.017v-7.48H70.468z"/>
            <path fill="#DFF1F1" d="M32.244 80.127H45.26v-7.48H32.244zM127.803 80.127h13.017v-7.48h-13.017zM51.27 93.194h13.017v-7.48H51.27zM89.493 93.194h13.018v-7.48H89.493zM108.605 93.194h13.018v-7.48h-13.018zM70.381 93.194H83.4v-7.48H70.38z"/>
            <path fill="#9BD7E1" d="M32.158 93.194h13.017v-7.48H32.158z"/>
            <path fill="#DFF1F1" d="M127.717 93.194h13.017v-7.48h-13.017zM51.184 106.262H64.2V98.78H51.184zM89.407 106.262h13.018V98.78H89.407zM108.52 106.262h13.017V98.78h-13.018zM70.295 106.262h13.018V98.78H70.295zM32.072 106.262h13.017V98.78H32.072zM127.631 106.262h13.017V98.78h-13.017zM51.098 119.329h13.017v-7.482H51.098zM89.321 119.329h13.018v-7.482H89.32zM108.433 119.329h13.017v-7.482h-13.017zM70.21 119.329h13.017v-7.482H70.21zM31.986 119.329h13.017v-7.482H31.986zM127.545 119.329h13.017v-7.482h-13.017z"/>
            <path fill="#00BF8F" d="M28.34 136.934h116.556v-9.083H28.34z"/>
            <path fill="#E95920" d="M76.704 66.064c-.123.152-.074.504.26.452l.267-.584-.527.132z"/>
            <path fill="#E95920" d="M77.286 66.556a.816.816 0 0 0 .174-.238.556.556 0 0 0 .044-.35c-.068.12-.106.152-.146.19a.704.704 0 0 0-.15.235c-.098.02-.163-.11-.142-.21-.019.034-.055.011-.095.006-.04-.005-.083.002-.112.086.117.22.27.253.447.1.03.065-.009.132-.02.181M84.888 71.726l-.149-.59c-.012.195.046.392.15.59M86.677 76.999c-.063-.397-.264-.558-.439-.573.144.364.276.665.44.573M86.114 77.932c.072-.204.108-.377.16-.563-.189.208-.298.42-.16.563"/>
            <path fill="#E95920" d="M84.752 71.197s.09.147.182.293l.158.296c.587-.088-.021-.336-.34-.589M79.146 66.141c-.215.013-.406.125-.59.296.176-.019.345-.026.517-.013.023-.097.043-.183.073-.283M83.524 69.724l-.174-.317c-.127.07-.267.184-.415.326l.296-.01.293.001zM81.543 68.758c.105.111.422-.38.59-.573-.182.164-.324.2-.449.161-.054.099-.1.23-.14.412M79.454 66.868l-.294.03-.295.039c.156-.032.407-.033.59-.069M84.25 70.424a1.703 1.703 0 0 0-.337.512c.157-.132.263-.31.336-.512M75.7 67.055c-.007.118.022.19.024.291.108-.173.136-.292-.023-.29M78.33 67.707l-.321.059c-.021.18-.044.356-.03.53l.352-.59zM85.637 79.365c.026-.029.03-.04.049-.068-.075-.487-.103-.228-.05.068M73.575 84.363c.176.166-.032.215-.214.268-.182.054-.341.117-.054.321-.012-.06.18-.14.312-.24.131-.1.201-.217-.044-.349"/>
            <path fill="#E95920" d="M78.7 66.177c.197.041.395.102.588.192-.256-.154-.438-.213-.589-.192M73.214 84.683l-.003.013.248.226-.245-.239M84.09 82.558c.2.11.395.117.588.11-.102-.091-.26-.14-.589-.11M86.051 80.1l-.454.59c.238-.214.367-.41.454-.59M83.733 83.773c-.248.148-.407.06-.589.541a.38.38 0 0 0 .162.048c.01-.28.097-.507.427-.59M81.932 84.666c.09.082.19.124.285.187.094-.092.207-.188.304-.28l-.589.093zM70.571 68.21c.199.117.348.267.477.423-.242-.38.66-.844-.477-.422"/>
            <path fill="#E95920" d="M78.665 66.758c.158-.362.318-.52.553-.544a4.143 4.143 0 0 0-.49-.045c-.086.215-.137.428-.063.589M84.31 84.772l-.292.3c-.073.074-.145.15-.203.2l-.094.09c.184-.129.392-.355.59-.59M64.889 78.586l-.373-.59c.034.256.145.47.373.59M83.365 85.627c-.207-.23-.387-.244-.556-.151-.015.172-.036.331-.033.535l.589-.384zM70.705 68.209c-.008-.004-.011-.014-.011-.014s.003.01.01.014"/>
            <path fill="#E95920" d="M68.136 70.907c-.046.063-.088.054-.118.035.027-.023.057-.053.095-.095l-.006-.02a.233.233 0 0 1 .029.08m-1.504-.123c.05-.04.105-.096.165-.154.05.027.075.08.036.114-.002-.022-.031-.019-.07-.006-.038.013-.087.035-.13.046m.375-.336l-.003-.003c.049-.048.09-.09.118-.115a3.109 3.109 0 0 0-.115.118m5.348-3.096c-.26.054-.077.225-.106.353-.29.127-.175-.116-.304-.194a.501.501 0 0 0-.122.092c-.037.036-.07.074-.103.11-.064.072-.124.135-.195.15-.02-.03-.05-.035-.03-.085a.43.43 0 0 1-.16.123c-.065.031-.14.056-.214.082a.955.955 0 0 0-.216.095.46.46 0 0 0-.165.157.123.123 0 0 1-.046-.04c.07.087.11.185.126.258-.054.02-.094.067-.13.096-.038.03-.071.04-.115-.017.068-.02.055-.074.073-.124l-.048.048-.047.048c-.17-.144.134-.12.087-.254-.052.033-.103.076-.154.12l-.151.128a1.11 1.11 0 0 1-.147.106.348.348 0 0 1-.143.053c-.054-.08.039-.136.11-.18.07-.041.12-.072-.027-.106l.147-.018c.073-.009.147-.016.147-.016-.312-.205.172-.04-.13-.272a.907.907 0 0 0-.372.169c-.09.062-.18.126-.365.179-.035.132.09.13.056.262-.102.098-.187.133-.264.135a.332.332 0 0 1-.11-.017.815.815 0 0 1-.101-.04c-.129-.06-.243-.119-.36.089-.014.08-.001.177-.022.258-.02.081-.075.143-.227.16l-.014-.116-.013-.118c-.165.087-.17.18-.184.262a.187.187 0 0 1-.048.11.228.228 0 0 1-.069.046.595.595 0 0 1-.119.038c.006-.053.056-.11.099-.148.042-.04.076-.064.045-.06-.152-.005-.173.047-.175.11-.003.064.012.14-.067.194l-.14-.134a2.404 2.404 0 0 0-.225.208c-.037.038-.074.076-.11.116l-.106.122c-.036.04-.07.083-.106.124l-.106.125c-.07.085-.144.165-.218.245-.02-.058-.003-.153-.119-.127-.175.221-.39.423-.614.621-.223.198-.456.39-.666.58l.004.134c0 .033.003.067.004.091l.003.042c-.029.038-.113.032-.109-.03-.173.142.08.068.076.188-.056.106-.166.083-.166-.01a6.607 6.607 0 0 1-.211.716c-.095.252-.202.494-.358.645l-.009-.046-.007-.044a.264.264 0 0 0-.048.185c.006.057.028.111.048.162.01.026.02.051.026.076a.26.26 0 0 1 .013.075c0 .05-.02.101-.078.157l-.011-.06c-.07.15-.113.315-.156.478-.034.166-.07.331-.093.493a6.06 6.06 0 0 1-.02.12l-.012.059-.01.058a2.738 2.738 0 0 1-.048.227l-.029.108a1.597 1.597 0 0 1-.12.302c.06.026.081.08.086.146.003.034 0 .07-.002.108l-.006.058-.005.06c-.01.156-.011.308.157.32a1.98 1.98 0 0 1-.091.213c-.026.053-.05.094-.07.139a.848.848 0 0 0-.052.17 1.778 1.778 0 0 0-.035.307c.004.072.063.117.128.164.067.047.142.094.176.176l-.169.038.112.098c.027.025.057.049.078.066l.036.03-.086.084-.085.086.04.075c.02.038.042.075.042.075-.008-.066.042-.155.092-.157a.575.575 0 0 1 .064.194c.01.07.01.142.001.21-.013.133-.05.244-.092.26l.05.085c.03.05.074.116.117.181l.118.178.056.08c-.069.012-.13-.073-.198-.134.035.03.058.055.074.076.016.02.023.035.025.048.003.026-.016.04-.036.054-.04.028-.082.055.049.163.021-.052.103-.02.138-.026a.378.378 0 0 0 0 .153 1.225 1.225 0 0 0 .141.367c.035.06.072.118.109.169l-.127.01c.02.053.046.105.073.156a4.2 4.2 0 0 0 .18.308c.035.05.069.102.103.153.034.051.071.1.108.151l.11.152c.073.102.15.202.22.308-.057-.182.139-.261.235-.154l-.115.152c.147.011-.033-.162.192-.086.09.16-.094.223-.206.17l.185.147c-.035.044-.09.017-.154.047.073.005.097.11.134.216.018.052.04.104.072.142.032.038.075.06.135.055l-.033.045c.16.198.3.324.428.441l.196.17.05.044.053.046.11.098c.057-.054.109-.046.168-.027.058.02.127.049.214.043.047.058.092.123.14.188.048.065.097.132.15.199l.04.05a2.221 2.221 0 0 0 .227.232c.033.029.07.055.106.08.25.087.138-.063.284-.073-.071.129.232.32.02.3.184.114.304.18.441.248.069.033.143.062.232.097.045.017.093.036.147.053l.178.058c-.021-.08-.065-.134-.011-.16.095.028.161.162.116.215h-.03a.853.853 0 0 1 .333.131c.035.021.07.044.104.068.069.048.135.103.201.159.067.055.133.113.198.17.264.224.532.428.812.374l-.03.004.08.005c.05.004.114.009.18.011l.259.011c.103.05.062.063.011.083-.05.02-.111.043-.046.113a1.19 1.19 0 0 1 .379.024c.109.023.205.06.297.099.094.037.183.075.279.102.096.027.198.04.314.03a.503.503 0 0 0 .287.256c.064.027.134.046.209.062.074.015.152.028.231.038l.239.029c.079.01.157.02.231.035a.862.862 0 0 1 .385.162l-.01-.102c.133-.076.133.08.216.116 0-.079-.113-.108-.032-.15.504.019 1.008.117 1.52.225.51.109 1.029.225 1.541.283.188.018.244-.11.31-.212.068-.102.143-.175.38-.057l-.135.185c.38-.11.77-.116 1.163-.136.099-.007.197-.012.295-.02.099-.01.197-.02.294-.035a2.374 2.374 0 0 0 .568-.16c-.038.05-.03.104-.105.116a.292.292 0 0 0 .171.028.713.713 0 0 0 .353-.151c.038-.035.059-.07.054-.096.12-.016.05.09.136.127a.202.202 0 0 0 .137-.027c.045-.023.088-.055.13-.085.082-.059.153-.115.217-.065.02.016-.032.056-.06.076a.323.323 0 0 1 .112-.065c.048-.02.103-.036.15-.058.094-.042.157-.085.08-.14.154-.014.28-.09.4-.156.03-.016.058-.034.087-.051.028-.017.057-.032.086-.046a.601.601 0 0 1 .181-.054.213.213 0 0 1 .1-.127c.047-.03.105-.052.156-.078.104-.049.194-.1.147-.216.06.113.197.083.331-.003a.992.992 0 0 0 .18-.163.58.58 0 0 0 .108-.177c-.002.1.177-.04.187.087a.809.809 0 0 0 .188-.218c.036-.068.033-.13-.024-.164a.44.44 0 0 0 .16-.044.394.394 0 0 0 .117-.088.727.727 0 0 0 .086-.115c.025-.04.047-.081.067-.122a.681.681 0 0 1 .135-.205c.053-.05.125-.074.235-.054.152-.286.286-.558.411-.823.123-.265.237-.52.347-.77.104.07.034.205-.035.335-.071.13-.139.254-.022.316.1-.253.138-.472.184-.68.023-.105.052-.205.09-.307.035-.103.087-.206.155-.315.087-.106.069.116.085.175a2.887 2.887 0 0 1 .125-.368c.047-.117.095-.231.144-.344.046-.113.088-.226.122-.34.031-.116.052-.233.057-.352.022.008.03.063.033.114.023-.088.102-.19-.01-.215l.003.094c-.052.021-.09.003-.121-.035a.532.532 0 0 1-.077-.162c-.042-.126-.068-.265-.11-.285.138.118.187.017.244-.072.057-.088.122-.165.29.006-.004-.064-.037-.15-.115-.155.042-.08.092-.097.156.012.008-.167-.025-.228-.05-.284-.026-.055-.046-.105-.015-.248.054.013.063.075.12.118-.037-.084-.075-.168-.092-.259a.537.537 0 0 1 .028-.308c.03.02.078 0 .065.072a1.1 1.1 0 0 0-.004-.304 3.325 3.325 0 0 0-.022-.144c-.008-.047-.02-.095-.028-.142a2.165 2.165 0 0 1-.034-.289.97.97 0 0 1 .043-.315c.233.152.087-.151.297-.166l-.025-.127-.028-.127-.104.097c.004-.109-.03-.213-.058-.311-.029-.099-.052-.192-.018-.286l.088.16-.022-.204c-.005-.05-.014-.101-.019-.14l-.008-.063-.035.116-.025.08-.012.036c-.027-.054-.058-.079-.088-.09-.03-.012-.057-.01-.08-.011-.045-.001-.07-.012-.047-.154.012.028.01-.025.02-.1.011-.074.028-.17.086-.231-.036-.05-.074-.1-.098-.159a.319.319 0 0 1-.019-.204c.062-.048.233.008.274-.023-.046-.022-.075-.064-.096-.116a1.152 1.152 0 0 1-.053-.18c-.016-.063-.03-.127-.057-.182a.252.252 0 0 0-.112-.124c.05.036.159.021.179.003l-.155-.064c.028-.106.048-.124.136-.124-.015-.151-.076-.115-.127-.088-.051.027-.092.045-.071-.14.017.025.035.008.067.06-.003-.182-.067-.346-.126-.505a1.704 1.704 0 0 1-.139-.48c.087-.077.12-.011.149.054.03.066.05.132.121.053a2.908 2.908 0 0 0-.157-.336c-.063-.11-.129-.218-.194-.325a5.064 5.064 0 0 1-.188-.32 1.917 1.917 0 0 1-.14-.323 20.125 20.125 0 0 0 .012.087c-.147.029-.15-.061-.141-.181.003-.06.01-.128 0-.19a.217.217 0 0 0-.094-.153c.045.041.181-.005.145-.004-.097-.31-.363-.551-.694-.902l.095.01a.746.746 0 0 0-.054-.154 2.11 2.11 0 0 0-.09-.16l-.098-.158c-.032-.05-.062-.1-.085-.145-.097-.004-.154-.104-.202.018a.85.85 0 0 0-.014-.133.764.764 0 0 0-.143-.319 1.467 1.467 0 0 0-.33-.295 9.664 9.664 0 0 1-.177-.127 1.344 1.344 0 0 1-.163-.134.809.809 0 0 1-.13-.163.68.68 0 0 1-.082-.21c.047.045.158.063.121.026l-.06-.045-.061-.045c-.023-.015-.048-.032-.072-.05l-.196-.134c-.06.121-.007.1-.005.24a.43.43 0 0 1-.314-.102c.211.072.137-.155.115-.27-.014.04-.066.052-.087.087-.007-.083-.024-.114-.047-.12-.023-.004-.051.018-.083.04-.065.043-.143.088-.22-.076l.057-.042a.702.702 0 0 0-.091-.03c-.032-.01-.064-.016-.095-.025a.353.353 0 0 1-.167-.089c.047-.153.145.024.227-.068a.332.332 0 0 0-.138-.049 1.297 1.297 0 0 0-.078-.01l-.079-.007c-.103-.011-.19-.036-.215-.146.087.012.18.078.269.092a.508.508 0 0 0-.075-.22c-.03-.04-.063-.06-.113-.11l.009.01-.11-.122-.077-.085c-.02-.024-.035-.038-.035-.038a1.058 1.058 0 0 0 .042.085.46.46 0 0 1-.249.052.425.425 0 0 1-.176-.07c-.054-.035-.11-.071-.177-.097a.446.446 0 0 0-.244-.022.894.894 0 0 0 .181-.041c.03-.014.036-.028.033-.045-.007-.034-.049-.078.004-.146-.048-.081-.132-.187-.078-.212-.1.023-.142-.032-.196-.082-.055-.05-.121-.096-.262-.056.008-.026-.027-.046-.054-.073-.027-.025-.044-.058.002-.112-.2-.047.001.106-.045.16-.178.019-.311-.11-.473-.23a.941.941 0 0 0-.264-.16.584.584 0 0 0-.331-.035 1.08 1.08 0 0 0-.446.053 2.344 2.344 0 0 1-.188.046c-.066.014-.14.022-.227.02-.042-.058-.007-.1.04-.126.048-.026.106-.038.106-.038-.156-.132-.3-.152-.485-.136.046-.036.02-.086-.018-.158-.144-.017-.138.173-.303.053.044-.052.105-.138.187-.182-.178.009-.362.08-.54.095-.03-.102.128-.122.2-.171l-.167.002a1.74 1.74 0 0 0-.179.016c-.115.017-.214.05-.254.122l.058.035.058.036c-.07-.004-.018-.133.039-.152.185-.09.231.09.23.144l-.127.016c.018.084.058.127.11.146a.37.37 0 0 0 .191.006c.144-.026.313-.076.432-.04l-.077.102-.075.102.143-.066.1-.044.046-.02c.037.073.039.207-.085.211.07.078.111.067.15.058.039-.01.076-.02.13.063.01.024 0 .032-.017.037l.18-.019c-.045.038-.02.165-.108.104a.374.374 0 0 0 .185.088c.06.012.118.01.17.007.105-.006.187-.015.21.088l-.028.005c.208.034.234-.002.25-.057.01-.028.017-.06.044-.09.028-.03.078-.06.17-.077a16.092 16.092 0 0 0 .04.47l.104-.142c.038.022.111.068.07.125.193-.043.004-.08.134-.143a.337.337 0 0 0 .14.125c.056.032.12.056.176.08.114.05.201.108.16.24.126-.082-.132-.18.107-.16-.038.145.024.163.11.171.086.01.196.011.247.116-.126.103-.242-.052-.143.156.056-.042.102-.049.143-.035.04.015.074.05.106.093.063.084.118.19.196.213.057-.084.141-.056.244.005.052.03.106.07.164.108.058.038.122.072.185.098-.026.023.06.12.17.235.108.12.242.258.311.366l-.027.021c.083-.064.169-.048.254-.005.084.045.168.118.253.163-.088.087-.146.101-.257.077l.13.113c.074-.021.137-.01.236.05l-.137.082a.837.837 0 0 0 .147.097c.052.03.108.058.163.091.111.064.214.15.278.293.059-.042.092-.153.145-.234.052-.08.128-.13.274-.041-.05.061-.14.158-.22.118.027.012.114.03.126.093l-.181-.008c.048.14.128-.02.192.071-.084.072-.005.113-.082.159-.026-.014-.028-.101-.088-.104a.659.659 0 0 1 .078.18.301.301 0 0 1 .001.17c.042-.048.114-.095.182-.035.077.086.064.122.036.154-.027.032-.068.06-.05.13.094-.004.12.16.254.063.04.054-.015.11-.035.158.032.013.069.047.108.087.039.04.08.086.117.126.074.078.143.124.178.02l-.008-.033c.006.003.01.009.017.013v-.001a.706.706 0 0 1 .212.223c.027.043.05.089.073.135.023.047.04.096.059.145l.107.29a1.306 1.306 0 0 0 .141.263l-.05.025c.08.09.147.201.21.306.033.052.066.102.102.145a.524.524 0 0 0 .117.109c.026.065-.031.19-.104.186.054.074.095.112.124.165a.323.323 0 0 1 .035.096c.008.041.014.091.013.16-.037-.035-.06-.046-.074-.048-.014-.002-.019.006-.02.01-.005.01 0 .007-.035-.11.009.058.012.106.013.149.001.043.002.08.01.115.006.036.02.07.045.107a.762.762 0 0 0 .116.124c-.08-.02-.11.036-.111.105a.366.366 0 0 0 .06.202l.027-.09.025-.091c.057.11.07.219.087.326l-.195-.008a.554.554 0 0 0 .04.328c.02.049.048.095.077.14.027.046.057.09.086.134.028.044.055.088.078.132a.483.483 0 0 1 .045.134.325.325 0 0 1-.033.211.467.467 0 0 1-.05.075c.072.051.087-.014.104-.082.014-.068.031-.139.116-.096a.349.349 0 0 1-.007.083.579.579 0 0 1-.025.085 1.11 1.11 0 0 1-.079.16c-.056.099-.117.177-.113.21-.037.149.039.209.115.273.038.032.077.064.104.108a.225.225 0 0 1 .03.077.263.263 0 0 1-.002.102c.065-.042.24-.093.312.142a.24.24 0 0 1-.05.135.216.216 0 0 1-.1.07c-.072.024-.149.003-.176-.064-.007-.052.012-.077.035-.076-.027-.069-.06-.158-.128-.07l.068.025a.38.38 0 0 0-.035.107l-.029.126c-.02.078-.044.133-.099.1.065.159.11.069.143-.052-.045.138-.05.244-.048.351a1.11 1.11 0 0 1-.037.356c.04-.043.12-.08.116-.035-.013.051-.02.092-.025.126a.31.31 0 0 0-.003.08.105.105 0 0 0 .044.079c.043.032.102.05.103.194-.118.15-.233-.082-.181.209-.088.163-.178.013-.225-.06.012.034.02.066.022.097a.36.36 0 0 1-.005.09.523.523 0 0 1-.06.16c-.027.048-.06.092-.09.133a.488.488 0 0 0-.064.11l-.03-.138c.018.083.005.146-.006.21l.144-.05c-.019.037-.03.071-.045.095-.015.023-.032.036-.059.03.035.048.092.044.151.05.06.006.12.022.162.114-.044.046-.042.129-.054.2-.013.072-.037.132-.126.129.068-.155.023-.156-.035-.153-.029.001-.06.003-.083-.012-.022-.015-.034-.048-.028-.117.011.057-.006.12-.047.19-.022.007-.033-.02-.038-.042-.225.263.162.186.072.502-.085-.067-.2.02-.197.076.04-.123.177-.014.214.125-.069.09-.07.149-.064.198.007.05.027.09.004.142l.076-.109c.08.072.033.17.013.323-.076-.015-.006-.147-.055-.108.014.027.02.052.02.075a.144.144 0 0 1-.02.065.503.503 0 0 1-.107.117c-.083.076-.181.153-.172.28-.102.072-.175-.063-.252.003.006.14-.054.188-.116.235a.867.867 0 0 0-.046.037.273.273 0 0 0-.043.045.276.276 0 0 0-.052.151c.153-.007.131-.036.162.193l.005-.019.013-.05.039-.15c.014-.054.029-.107.037-.149.01-.04.015-.068.015-.068l.01.053c.005.031.013.074.018.116l.023.17a.662.662 0 0 0 .056-.198c.01-.066.02-.124.047-.156.042.169.017.144.145.13-.065.022-.1.056-.12.098a.388.388 0 0 0-.033.142c-.005.051-.008.104-.024.153a.21.21 0 0 1-.102.123l-.288-.163a.417.417 0 0 0-.14.18c-.03.066-.047.14-.063.218-.019.077-.037.158-.069.239a.692.692 0 0 1-.155.232l.06-.039.06-.038c.04.058.01.116-.038.172-.047.057-.106.117-.125.187-.081-.076-.163-.034-.251-.03.034.02-.01.08-.049.15-.037.072-.065.159.008.244l-.115.022-.114.021a.39.39 0 0 0-.075.08.302.302 0 0 0-.041.085c-.018.058-.02.12-.024.18-.006.122-.011.25-.143.347-.006-.078-.049-.105-.078-.14-.03-.034-.045-.075 0-.178-.075.071-.157.119-.106.176-.023-.002-.041.016-.058.044-.018.027-.034.065-.052.102a.458.458 0 0 1-.063.103c-.025.026-.054.041-.09.036-.003.065.058.166-.042.232-.025-.01-.033-.043-.033-.043.033.043-.107.17.05.206a.61.61 0 0 0-.321.047 1.985 1.985 0 0 0-.284.17c-.046.03-.094.059-.14.086a.728.728 0 0 1-.142.067.512.512 0 0 1-.143.028.333.333 0 0 1-.142-.026c-.048.031-.1.063-.153.095-.026.016-.054.03-.082.045l-.083.043c-.11.06-.226.103-.324.14.003-.035-.016-.053.025-.054-.076-.001-.12.016-.147.048-.028.032-.04.076-.055.12a.265.265 0 0 1-.064.121c-.036.03-.09.048-.18.04-.206-.135.152-.135.033-.176-.033-.086-.072-.12-.117-.126a.16.16 0 0 0-.071.01.648.648 0 0 0-.08.034c-.057.027-.118.06-.181.075a.236.236 0 0 1-.193-.033l.05-.03a.185.185 0 0 0-.143-.009.727.727 0 0 0-.156.072l-.085.047c-.03.016-.06.03-.092.043a.537.537 0 0 1-.201.044s.01-.033-.003-.055a.887.887 0 0 1-.373.226c-.15.054-.311.087-.45.117.083-.144.124-.08.067-.222-.123.025.044.232-.205.277-.083-.075-.263-.143-.287-.297l.116-.005c.03 0 .059-.002.08-.003l.037-.002c-.06-.098-.135-.097-.211-.074-.075.022-.152.065-.213.047l.016-.087a.658.658 0 0 0-.213.048c-.057.023-.104.051-.152.079a.593.593 0 0 1-.388.088l.037.067c-.221.21-.172-.13-.39.022l-.053-.224c-.07.023-.195.068-.334.112-.14.041-.294.081-.42.09.156-.15.452-.212.637-.299a1.99 1.99 0 0 0-.294.002c-.109.01-.211.034-.252.085.058-.017.131-.065.183-.027a.775.775 0 0 1-.309.169.953.953 0 0 1-.379.024c.047-.21-.128-.255-.333-.296-.103-.02-.214-.04-.308-.076s-.171-.09-.207-.18a1.086 1.086 0 0 1-.364-.002 1.777 1.777 0 0 1-.354-.093c-.118-.038-.237-.086-.36-.127-.062-.02-.124-.041-.189-.059a2.481 2.481 0 0 0-.198-.047c.028.093.033.137.023.157-.01.02-.036.016-.066.01-.06-.011-.14-.026-.165.144-.133-.01-.18-.028-.186-.053l-.166-.15a5.163 5.163 0 0 1-.112-.104l-.05-.048c-.061-.122.139-.038.148-.116-.262-.103-.073-.172-.223-.31 0 .128-.144.139-.281.047l.167.217c-.215.028-.276-.065-.333-.161-.058-.097-.115-.189-.329-.171l.153-.06c-.105-.004-.279-.066-.459-.11a1.843 1.843 0 0 0-.137-.026.869.869 0 0 0-.134-.012.477.477 0 0 0-.245.06c-.017-.052-.022-.156.068-.143a1.65 1.65 0 0 0-.352-.131 4.626 4.626 0 0 0-.192-.047l-.191-.047a1.958 1.958 0 0 1-.353-.12.645.645 0 0 1-.253-.196l.074-.054c-.09-.022-.214.055-.267-.075.023-.026.075-.052.042-.078-.027 0-.098.002-.17-.014-.07-.014-.145-.042-.182-.095l.137-.023a.829.829 0 0 0-.389-.23 1.533 1.533 0 0 0-.135-.033c-.183-.036-.372-.059-.546-.161.078-.095.06-.217.01-.331a1.463 1.463 0 0 0-.088-.167 2.633 2.633 0 0 0-.091-.135l.028-.021a1.99 1.99 0 0 0-.208-.189l-.036-.027-.035-.027a2.155 2.155 0 0 0-.219-.143l-.073-.046c-.098-.06-.201-.115-.3-.182a2.235 2.235 0 0 1-.297-.22.52.52 0 0 0-.018-.157.955.955 0 0 0-.1-.25l-.046-.087a3.976 3.976 0 0 0-.104-.18c-.143-.244-.303-.507-.348-.76-.005.087-.175.08-.24.012-.005-.064-.077-.118-.125-.167-.046-.048-.066-.092.04-.131l.014.039a.258.258 0 0 0 .069-.132.298.298 0 0 0-.01-.135.848.848 0 0 0-.053-.135c-.02-.044-.04-.09-.056-.132l-.285.082a.74.74 0 0 0 .007-.443 1.496 1.496 0 0 0-.071-.21c-.014-.035-.03-.069-.046-.103a5.057 5.057 0 0 0-.045-.101c-.03-.067-.062-.133-.085-.197a1.18 1.18 0 0 1-.054-.184.367.367 0 0 1 0-.165.283.283 0 0 1 .078-.14.444.444 0 0 1-.06-.08c-.017-.03-.03-.06-.045-.091a.699.699 0 0 0-.1-.176l.157-.015.002-.215-.002-.096v-.095c-.002-.064-.008-.13-.014-.204a4.102 4.102 0 0 0-.024-.253l.115.077a.144.144 0 0 0-.018-.073.252.252 0 0 0-.05-.063c-.042-.04-.099-.074-.157-.11a1.063 1.063 0 0 1-.16-.111c-.044-.04-.07-.086-.07-.139l.12-.024.12-.024a.944.944 0 0 1 .018-.144c.01-.048.023-.095.036-.142l.02-.07a.934.934 0 0 1 .022-.07 3.52 3.52 0 0 0 .063-.208l.008-.035.01-.035a.948.948 0 0 0 .026-.286.736.736 0 0 0-.024-.153c.032.015.095.044.089.105.013-.042.04-.103.068-.169.03-.065.064-.136.084-.203.02-.068.033-.13.018-.18-.015-.049-.055-.086-.137-.1.05.018.085.004.108-.03a.214.214 0 0 0 .028-.065.54.54 0 0 0 .02-.086l.01-.102c0-.036.004-.072.005-.108.004-.072.004-.144.008-.201l.125.098c-.05-.122-.084-.194-.1-.264a.52.52 0 0 1 .035-.267c.05-.042.135.018.06.066.087-.066.075-.118.066-.175-.008-.058-.01-.12.091-.201l.034.13a.571.571 0 0 0 .062-.1.154.154 0 0 0 .016-.072c-.001-.045-.022-.089-.037-.17.014-.072.082-.148.162-.196.082-.048.176-.068.24-.036a.26.26 0 0 1-.037-.155c.004-.059.028-.118.085-.151.051.022.045.077.044.105a.539.539 0 0 0 .167-.161c.04-.057.067-.116.092-.172a.622.622 0 0 1 .09-.15.272.272 0 0 1 .064-.055.295.295 0 0 1 .09-.033c.04.034.069.042.094.04-.103.092-.191.18-.256.239-.062.06-.1.094-.098.082.053.05.122.038.18.048.058.01.105.042.119.172.01-.05.018-.111.032-.176a1.64 1.64 0 0 1 .051-.2.803.803 0 0 1 .085-.181.334.334 0 0 1 .13-.117.168.168 0 0 1 .055.018l-.006.027a.172.172 0 0 0 .088-.106c.067-.027.11-.042.164-.081.047.038.106.01.163-.033.06-.043.118-.104.163-.135-.102-.12.031-.186-.157-.21.021-.001-.006.028-.06.08-.011.013-.025.027-.028.041a.176.176 0 0 1-.003-.015l-.21.181c.017-.116.048-.23.201-.236a2.372 2.372 0 0 1-.026-.3c.258.08.567.012.676.104.115-.13.279-.247.417-.376.07-.063.134-.132.185-.204a.587.587 0 0 0 .102-.245c.071-.08.14.023.194.048-.037.052-.1.079-.107.13a.84.84 0 0 1 .137-.114c.053-.038.111-.074.163-.113.104-.076.187-.157.167-.261.134-.009.12.05.112.088-.009.038-.013.057.137-.027l-.018.077a.794.794 0 0 0 .249-.026.795.795 0 0 0 .203-.09c.062-.04.12-.083.177-.133l.172-.15c.057-.052.116-.102.18-.148a.97.97 0 0 1 .203-.115.794.794 0 0 1 .526-.029c-.057-.012-.085-.017-.105-.047a3.828 3.828 0 0 0 .81-.144 8.76 8.76 0 0 0 .161-.042l.161-.044.081-.022.081-.02a9.15 9.15 0 0 1 .325-.076 3.66 3.66 0 0 1 .494-.062h.165c.111.006.221.017.332.041.249.032.26-.102.398-.219l.07.163.235-.218c.174-.09.34.002.515.075.176.073.36.133.58-.017l-.066-.11c.166.01.52-.1.499.033.016-.022.048-.121.116-.065l.01.088.398-.173c.318.049-.032.353.428.348.17-.042.476-.279.41-.335-.07-.001-.18-.047-.19-.135l.156-.053c.017-.262.127-.534-.268-.698l-.262.171-.093-.122.227-.018c-.134-.113-.212-.004-.3.072a.218.218 0 0 0-.12-.133l-.252.262c-.038-.1.108-.209-.073-.255-.118.122.131.222-.07.308-.136-.11-.104-.21-.25-.1-.025-.065.004-.11.063-.143-.131.089-.357.056-.418.199-.145-.137-.455.07-.46-.177-.038.061-.225.213-.348.233.101-.157-.016-.151-.155-.147-.139.006-.3.013-.285-.148-.072.14-.222.184-.39.219-.084.017-.173.03-.258.051a.778.778 0 0 0-.237.098c.014-.023.042-.07.07-.06-.172.001-.232-.072-.349-.107.009.22-.246.31-.365.466-.12-.088-.1-.156-.06-.227.039-.07.096-.142.047-.237.02.087-.064.143-.14.199-.076.054-.144.104-.096.17-.18-.1-.147-.038-.262-.202.023.273-.14.074-.238.266-.127-.043-.156-.103-.18-.136-.013-.016-.025-.025-.049-.022a.343.343 0 0 0-.117.053c-.069-.027-.053-.077-.02-.12a.408.408 0 0 1 .056-.057l.03-.023"/>
            <path fill="#E95920" d="M68.474 70.942c.066-.098.073-.19.18-.291a3.553 3.553 0 0 0-.589-.009c.03.196.06.39.095.575l.314-.275M84.735 71.313l.029.11a.67.67 0 0 1 .069-.316c-.027.103-.07.132-.098.206M64.38 77.944l.407-.09-.45-.41zM83.369 69.245c.053-.146.068-.331-.015-.57-.057.092-.029.313.015.57M82.87 68.403l-.59-.59c.234.282.426.459.59.59M82.107 67.389c-.25.186-.389.356-.515.512.004.008.009.01.01.018l.505-.53zM86.707 80.382a.67.67 0 0 0-.056.26c.004.644.087.226.056-.26M86.85 75.947c.216.192.43.382.574.588.043-.342.034-.607-.574-.588M84.254 84.777c-.002-.011-.01-.011-.014-.026-.09.08-.176.142-.27.218l.284-.192z"/>
            <path fill="#E95920" d="M87.09 76.671c.288-.229.208-.418-.074-.589-.054.187-.208.406.074.59M78.327 66.094l-.461-.14a.464.464 0 0 1-.095.251l.556-.11z"/>
            <path fill="#E95920" d="M78.269 65.978l-.55.11c.24.037.449.057.55-.11"/>
            <path fill="#E95920" d="M77.608 66.306l.294-.136.203-.093.092-.039c-.194-.06-.431-.163-.59.268M79.034 66.783l.303-.536c-.111.097-.214.27-.303.536"/>
            <path fill="#E95920" d="M79.652 66.763c-.142-.117-.318-.552-.548-.557l-.04.124c.069-.1.17.061.276.22.106.159.216.314.312.213M80.83 67.831l-.223-.2c-.056-.05-.113-.097-.156-.133l-.072-.06c.042.181.093.42-.138.325.12.185.176.255.205.264.03.008.031-.048.037-.114.012-.133.04-.306.347-.082M81.65 68.17c-.719-.284-.205.389-.324.515.543.016.68.02.324-.515M86.035 73.016l-.589.28c.267.777.223-.142.589-.28M86.967 74.454l.22-.504-.589-.085zM86.024 75.098l-.202-.15.59.589zM82.118 84.417l.501.484c.132-.104.102-.32-.005-.457a.323.323 0 0 0-.21-.13c-.086-.01-.184.015-.286.103M77.857 85.65c-.108-.475-.398-.8-.589-.368.235.096.466.477.59.368M66.14 78.62l.486.265-.59-.589z"/>
            <path fill="#DBA27D" d="M53.534 82.162c-.602.113-14.145 11.478-32.971 14.873l14.28-24.84 18.69 9.967z"/>
            <path fill="#F8C09D" d="M18.874 82.238L29.13 70.755s.842-.845 2.04-1.578a6.127 6.127 0 0 1 4.174-.819l19.068 3.07-8.507 6.168-9.432-1.99s-1.276-.252-2.513 2.291l-3.777 6.463c-1.327 2.27-1.077 5.148.668 7.114.315.355.67.67 1.067.916L19.72 97.966l-2.15-8.524s-1.303-4.23 1.304-7.204"/>
            <path fill="#E7B26A" d="M55.418 70.914s8.064-.958 8.244-.631c.18.327-5.673 6.631-5.673 6.631l-1.937-2.47-.634-3.53z"/>
            <path fill="#FFD833" d="M55.463 70.895L20.367 86.06l2.535 5.835 35.11-14.99s.326-.963-.55-1.14c0 0 .531-.842-.548-1.162 0 0 .5-.804-.537-1.35 0 0 .496-.797-.413-1.124 0 0 .441-.57-.501-1.234"/>
            <path fill="#F8C09D" d="M38.689 90.401c.794-.638 3.749-3.39 5.32-6.6l3.348-6.513s1.22-2.138 3.732-1.977c.116.007.23.027.343.058.648.177 2.855.935 3.617 3.202.085.254.111.524.076.79-.08.597-.39 1.803-1.51 3.84l-8.952 17.795s-2.458 4.382-4.98 6.874a1.785 1.785 0 0 0-.111.12c-.343.406-2.306 2.716-3.513 3.627-.197.148-.36.335-.48.55l-1.462 2.625a.092.092 0 0 1-.125.035l-13.998-7.742.854-1.543c.205-.37.27-.803.182-1.217l-1.338-6.353 11.344-5.184c.26-.119.585-.28.847-.395.235-.103 1.41 2.34 6.806-1.992"/>
            <path fill="#282928" d="M60.508 70.456s3.07-.373 3.138-.192c.083.225-1.96 2.45-1.96 2.45l-1.178-2.258z"/>
            <path fill="#FFA130" d="M56.364 73.25s.497-.798-.412-1.125c0 0 .44-.57-.502-1.234L20.354 86.056l1.228 2.826 35.384-15.034c-.078-.202-.253-.415-.602-.599"/>
            <path fill="#0D2E41" d="M16.527 87.685l4.922-2.1 2.503 5.862-4.921 2.101c-1.773.757-3.787.058-4.476-1.555-.688-1.612.2-3.55 1.972-4.308"/>
            <path fill="#092330" d="M21.472 85.575l-4.921 2.1c-1.773.758-2.661 2.697-1.973 4.309.017.04.035.077.054.115l8.08-3.622-1.24-2.902z"/>
            <path fill="#FBF8EC" d="M35.99 116.902l-20.094-10.684 1.322-2.486 20.094 10.684z"/>
            <path fill="#092330" d="M36.705 116.776L24.55 138.768l-2.502 4.527a85.423 85.423 0 0 1-10.626-14.148 84.776 84.776 0 0 1-4.355-8.26l8.655-15.678 9.741 5.37.437.241 10.766 5.935.038.021z"/>
            <path fill="#0D2E41" d="M36.667 116.755L24.55 138.768l-2.496 4.534-.006-.007a85.443 85.443 0 0 1-8.35-10.562L25.9 110.82l10.766 5.935z"/>
        </g>
    </g>
</svg>
