<svg xmlns="http://www.w3.org/2000/svg" width="24" height="24" viewBox="0 0 24 24">
    <g fill="none" fill-rule="evenodd">
        <path d="M0 0h24v24H0z"/>
        <path fill="#757575" d="M12 8.833c-2.625 0-5.046.866-7 2.334L6.75 13.5A8.693 8.693 0 0 1 12 11.75c1.974 0 3.792.651 5.25 1.75L19 11.167a11.606 11.606 0 0 0-7-2.334M12 3A17.43 17.43 0 0 0 1.5 6.5l1.75 2.333A14.517 14.517 0 0 1 12 5.917c3.286 0 6.32 1.089 8.75 2.916L22.5 6.5A17.43 17.43 0 0 0 12 3m0 17.5l3.5-4.667a5.824 5.824 0 0 0-3.5-1.166 5.824 5.824 0 0 0-3.5 1.166L12 20.5"/>
    </g>
</svg>
