<svg xmlns="http://www.w3.org/2000/svg" width="24" height="24" viewBox="0 0 24 24">
    <g fill="none" fill-rule="evenodd">
        <path d="M0 0h24v24H0z"/>
        <path fill="#FFF" d="M15.485 8.157h1.831V6.326h-1.831v1.83zm0 3.139h1.831V9.465h-1.831v1.83zm0 3.139h1.831v-1.831h-1.831v1.83zm-3.226 4.185h3.226v-1.83h-3.226v1.83zm-1.832-4.185h1.832v-1.831h-1.832v1.83zm0-3.14h1.832v-1.83h-1.832v1.83zm0-3.138h1.832V6.326h-1.832v1.83zm2.53 6.278h1.83v-1.831h-1.83v1.83zm0-3.14h1.83v-1.83h-1.83v1.83zm0-3.138h1.83V6.326h-1.83v1.83zm-4.218 3.118v3.324H8.22V7.052h.52v4.223zM6.62 9.478c-.5 0-.79-.377-.79-.856 0-.503.32-.88.817-.88.516 0 .798.387.798.85 0 .551-.334.886-.826.886zm.661.792h-.458v1.361H6.44v-1.36H5.99v-.32H7.28v.32zm-1.118 5.724v-1.68h.382v1.36h.668v.32h-1.05zm.971-3.2v.308h-.618v.4h.69v.31H6.134v-1.68h1.038v.312h-.656v.35h.618zM5.94 5.587h.382v.646h.626v-.646h.378v1.68h-.378v-.702h-.626v.703H5.94v-1.68zM18.92 18.546V4H8.739v2.497H8.22V4.852H5.052V16.78H8.22v-1.626h.52v3.392H5V20h14.75v-1.454h-.831zM6.636 8.044c-.257 0-.406.244-.406.57 0 .33.154.562.408.562.257 0 .404-.244.404-.571 0-.302-.144-.561-.406-.561z"/>
    </g>
</svg>
