<svg xmlns="http://www.w3.org/2000/svg" width="260" height="120" viewBox="0 0 260 120">
    <g fill="none" fill-rule="evenodd">
        <path fill="#F3F4F4" d="M143.34-142L-84 85.34 136.66 306 364 78.66z"/>
        <path fill="#00BF8F" d="M99.323 36L111 47.677 87.677 71 76 59.323zM195.185 21L219 44.815 179.815 84 156 60.185z"/>
        <path fill="#56CCF2" d="M73.865 89L99 114.135 67.135 146 42 120.865zM230.586 31L248 48.415 211.414 85 194 67.586z"/>
        <path fill="#ECECEC" d="M80 82.98l.98-.98L220 221.02l-.98.98zM147 68.98l.98-.98L189 109.02l-.98.98zM115-114.014l.986-.986L337 106.014l-.986.986zM-25 25.995l.995-.995L57 106.005l-.995.995z"/>
        <path fill="#ECECEC" d="M59 227.018L207.018 79l.982.982L59.983 228zM152 233.018L335.018 50l.982.982L152.982 234zM97 266.017L324.016 39l.984.983L97.984 267z"/>
        <path fill="#FFF" d="M175 41.019L176.019 40 200 63.981 198.981 65z"/>
        <path fill="#ECECEC" d="M17-15.025l.975-.975L84 50.024l-.975.976zM-16 17l1-1 54 54-1 1z"/>
        <path fill="#FFF" d="M-19 150.538L208.538-77 211-74.538-16.538 153zM45 214.538L272.538-13 275-10.538 47.462 217z"/>
        <path fill="#ECECEC" d="M36 206.01L169.01 73l.99.99L36.99 207zM-31 138.017L196.017-89l.983.983L-30.017 139zM91 104.03L121.03 74l.97.97L91.97 105z"/>
        <path fill="#FFF" d="M63 232.537L290.538 5 293 7.463 65.463 235z"/>
        <path fill="#FFF" d="M119 73.455L121.455 71 247 196.545 244.545 199z"/>
        <path fill="#FEE379" d="M103.315 81.087c-6.807 0-12.438-2.78-15.569-5.42l-.175-.16L7.238-4.91l3.933-3.936 80.233 80.316c1.224.974 14.322 10.757 29.27-4.202L236.754-48.933l3.932 3.936L124.605 71.204c-7.399 7.407-14.868 9.883-21.29 9.883"/>
        <path fill="#FEE379" d="M-4.96 163.683L222.065-63.636l3.932 3.936L-1.026 167.619zM-57.711 110.881l227.023-227.32 3.933 3.936-227.023 227.32zM79.152 247.876l227.023-227.32 3.933 3.935-227.023 227.32z"/>
        <path fill="#FFF" d="M22.356 191.027L249.41-36.26l2.458 2.46L24.813 193.487z"/>
        <path fill="#FEE379" d="M-8.293 10.64l3.932-3.937 220.36 220.586-3.932 3.936zM47.037-44.746l3.932-3.936 220.36 220.586-3.932 3.936zM100.605-98.368l3.932-3.936 220.36 220.586-3.932 3.936zM-41.413 43.793l3.932-3.936 220.36 220.586-3.932 3.936zM89.226 64.229c5.011 0 9.074 4.066 9.074 9.082 0 5.016-4.063 9.082-9.074 9.082-5.01 0-9.073-4.066-9.073-9.082 0-5.016 4.062-9.082 9.073-9.082"/>
        <path fill="#FFF" d="M89.226 70.199a3.11 3.11 0 0 1 3.11 3.112 3.111 3.111 0 0 1-3.11 3.112 3.11 3.11 0 0 1-3.109-3.112 3.11 3.11 0 0 1 3.11-3.112M194.635 69.338l2.456-2.46 89.586 89.677-2.457 2.46z"/>
    </g>
</svg>
