<svg xmlns="http://www.w3.org/2000/svg" width="16" height="16" viewBox="0 0 16 16">
    <g fill="none" fill-rule="evenodd">
        <path d="M0 0h16v16H0z"/>
        <path fill="#A7A7A7" d="M8.33 1.585L9.733 6.16l4.585-.005c.191 0 .348.159.348.359a.38.38 0 0 1-.142.292L10.81 9.623l1.425 4.574a.36.36 0 0 1-.22.451.338.338 0 0 1-.333-.067l-3.68-2.817-3.705 2.833a.332.332 0 0 1-.48-.077.368.368 0 0 1-.049-.323h-.005l1.43-4.574-3.715-2.818a.368.368 0 0 1-.079-.503.327.327 0 0 1 .304-.149l4.561.005 1.41-4.573a.344.344 0 0 1 .43-.236c.113.041.19.128.225.236"/>
    </g>
</svg>
