<svg xmlns="http://www.w3.org/2000/svg" width="36" height="36" viewBox="0 0 36 36">
    <g fill="none" fill-rule="evenodd">
        <circle cx="18" cy="18" r="18" fill="#FFF"/>
        <path fill="#363636" d="M22.5 9c-1.74 0-3.41.81-4.5 2.08C16.91 9.81 15.24 9 13.5 9 10.42 9 8 11.41 8 14.5c0 3.77 3.4 6.86 8.55 11.53L18 27.35l1.45-1.32C24.6 21.36 28 18.27 28 14.5c0-3.09-2.42-5.5-5.5-5.5m-4.4 15.55l-.1.1-.11-.1C13.14 20.24 10 17.39 10 14.5c0-2 1.5-3.5 3.5-3.5 1.54 0 3.04 1 3.57 2.36h1.86C19.46 12 20.96 11 22.5 11c2 0 3.5 1.5 3.5 3.5 0 2.89-3.14 5.74-7.9 10.05"/>
    </g>
</svg>
