<svg xmlns="http://www.w3.org/2000/svg" width="24" height="24" viewBox="0 0 24 24">
    <g fill="none" fill-rule="evenodd">
        <path d="M0 0h24v24H0z"/>
        <path fill="#FFF" d="M16.8 8.8h2.4V7.2h-2.4v1.6zm0-4.4h2.4V2.8h-2.4v1.6zm0 8.8h2.4v-1.6h-2.4v1.6zm-12 0h2.4v-1.6H4.8v1.6zm0-4.4h2.4V7.2H4.8v1.6zm0-4.4h2.4V2.8H4.8v1.6zm6 4.4h2.4V7.2h-2.4v1.6zm0 4.4h2.4v-1.6h-2.4v1.6zm0-8.8h2.4V2.8h-2.4v1.6zm12.4 18.8H.8v-.8h22.4v.8zM4 11.2a.4.4 0 0 1 .4-.4h3.2a.4.4 0 0 1 .4.4v2.4a.4.4 0 0 1-.4.4H4.4a.4.4 0 0 1-.4-.4v-2.4zm0-4.4a.4.4 0 0 1 .4-.4h3.2a.4.4 0 0 1 .4.4v2.4a.4.4 0 0 1-.4.4H4.4a.4.4 0 0 1-.4-.4V6.8zm0-4.4a.4.4 0 0 1 .4-.4h3.2a.4.4 0 0 1 .4.4v2.4a.4.4 0 0 1-.4.4H4.4a.4.4 0 0 1-.4-.4V2.4zm4.4 14.8a.4.4 0 0 1 .4-.4h6.4a.4.4 0 0 1 .4.4v4.4h-.8v-4h-2.4v4h-.8v-4H9.2v4h-.8v-4.4zm1.2-2h4.8a.4.4 0 1 1 0 .8H9.6a.4.4 0 1 1 0-.8zm.4-4a.4.4 0 0 1 .4-.4h3.2a.4.4 0 0 1 .4.4v2.4a.4.4 0 0 1-.4.4h-3.2a.4.4 0 0 1-.4-.4v-2.4zm0-4.4a.4.4 0 0 1 .4-.4h3.2a.4.4 0 0 1 .4.4v2.4a.4.4 0 0 1-.4.4h-3.2a.4.4 0 0 1-.4-.4V6.8zm0-4.4a.4.4 0 0 1 .4-.4h3.2a.4.4 0 0 1 .4.4v2.4a.4.4 0 0 1-.4.4h-3.2a.4.4 0 0 1-.4-.4V2.4zm6 8.8a.4.4 0 0 1 .4-.4h3.2a.4.4 0 0 1 .4.4v2.4a.4.4 0 0 1-.4.4h-3.2a.4.4 0 0 1-.4-.4v-2.4zm0-4.4a.4.4 0 0 1 .4-.4h3.2a.4.4 0 0 1 .4.4v2.4a.4.4 0 0 1-.4.4h-3.2a.4.4 0 0 1-.4-.4V6.8zm0-4.4a.4.4 0 0 1 .4-.4h3.2a.4.4 0 0 1 .4.4v2.4a.4.4 0 0 1-.4.4h-3.2a.4.4 0 0 1-.4-.4V2.4zm7.6 19.2h-1.2V.4A.4.4 0 0 0 22 0H2a.4.4 0 0 0-.4.4v21.2H.4a.4.4 0 0 0-.4.4v1.6a.4.4 0 0 0 .4.4h23.2a.4.4 0 0 0 .4-.4V22a.4.4 0 0 0-.4-.4z"/>
    </g>
</svg>
