<svg xmlns="http://www.w3.org/2000/svg" width="24" height="24" viewBox="0 0 24 24">
    <g fill="none" fill-rule="evenodd">
        <path d="M0 0h24v24H0z"/>
        <path fill="#FFF" d="M16.875 22.078a.59.59 0 0 0 .462.223h3.74a.59.59 0 0 0 .589-.59c-.011-5.255-1.104-9.337-3.248-12.134-1.65-2.152-3.328-2.695-3.399-2.717a.589.589 0 0 0-.664.892c.01.016 1.058 1.588 1.872 4.077.746 2.279 1.444 5.82.535 9.75a.59.59 0 0 0 .113.5zM8.821 8.26a2.884 2.884 0 0 1 1.303-1.357c.633-.327 2.022-.289 3.094-.196-.81-.636-2.035-1.397-3.271-1.419-.801-.013-1.494.28-2.112.897a4.408 4.408 0 0 0-1.328 3.221L8.821 8.26zm1.69-.609c-.52.268-.886.726-1.063 1.325-.217.734-.246 1.977.647 3.91.315-1.51 1.103-3.955 3.02-5.34a16.505 16.505 0 0 0-1.32-.062c-.57 0-1.05.046-1.285.167zm5.086-4.858a2.58 2.58 0 0 1 .601-.393L17.357 0a4.407 4.407 0 0 0-3.221 1.328c-.618.618-.911 1.309-.897 2.112.018.988.507 1.968 1.028 2.736.246-1.147.7-2.828 1.33-3.385zm-.499 3.534c1.721-1.033 3.294-.918 4.372-.596.525.157.977.374 1.334.582-.59-2.22-1.727-2.96-2.407-3.205a2.562 2.562 0 0 0-.87-.154c-.574 0-1.069.201-1.373.47-.379.335-.786 1.679-1.056 2.903zm7.726 16.495H.59A.59.59 0 1 0 .59 24h22.234a.59.59 0 1 0 0-1.18zM2.779 22.3h12.296a.59.59 0 0 0 .59-.59 6.745 6.745 0 0 0-6.738-6.737 6.745 6.745 0 0 0-6.737 6.738c0 .325.264.59.59.59z"/>
    </g>
</svg>
