<svg xmlns="http://www.w3.org/2000/svg" xmlns:xlink="http://www.w3.org/1999/xlink" width="250" height="250" viewBox="0 0 250 250">
    <defs>
        <path id="a" d="M0 180.014h156.723V0H0z"/>
    </defs>
    <g fill="none" fill-rule="evenodd">
        <path d="M43.75 5.357h196.429v196.429H43.75z"/>
        <path fill="#FFF" d="M123.886 10.28h2.227V0h-2.227v10.28zm21.4 7.028l2.184.436 1.003-5.041-2.185-.435-1.003 5.04zm-43.76-4.605l1.003 5.04 2.186-.435-1.003-5.04-2.185.435zm66.346 5.884l2.058.852 1.967-4.748-2.058-.853-1.967 4.749zm-89.77-3.896l1.967 4.748 2.058-.852-1.966-4.749-2.059.853zm45.784 26.43h2.227v-20.56h-2.227v20.56zm61.066-7.852l1.853 1.238 2.856-4.274-1.853-1.237-2.856 4.273zM60.34 30.233l2.856 4.274 1.852-1.238-2.856-4.273-1.852 1.237zm97.698 12.098l2.058.852 3.934-9.497-2.059-.853-3.933 9.498zM85.97 33.686l3.935 9.497 2.058-.852-3.935-9.498-2.058.853zm119.36 9.407l1.577 1.576 7.268-7.27-1.575-1.574-7.27 7.268zM35.824 37.4l7.27 7.27 1.574-1.577-7.269-7.268-1.575 1.575zm147.7 27.5l1.575 1.576 14.538-14.538-1.575-1.576-14.539 14.539zM50.362 51.939L64.9 66.476l1.575-1.575-14.538-14.539-1.575 1.576zm165.13 11.257l1.238 1.853 4.273-2.857-1.237-1.852-4.274 2.856zM28.996 62.19l4.273 2.857 1.238-1.853-4.274-2.856-1.237 1.852zM230.56 80.07l.854 2.058 4.747-1.967-.853-2.058-4.748 1.967zm-216.723.091l4.75 1.967.853-2.058-4.75-1.967-.853 2.058zm192.98 9.744l.852 2.058 9.497-3.934-.852-2.059-9.498 3.935zM32.832 88.03l9.498 3.934.852-2.059-9.498-3.934-.852 2.059zm199.423 14.5l.436 2.186 5.04-1.003-.435-2.185-5.04 1.003zm-219.988 1.183l5.04 1.003.435-2.185-5.041-1.003-.434 2.185zm227.45 22.401H250v-2.228h-10.28v2.228zm-30.84 0h20.561v-2.228h-20.56v2.228zm-188.317 0h20.56v-2.228h-20.56v2.228zm-20.561 0h10.28v-2.228H0v2.228zm232.256 21.357l5.041 1.004.435-2.186-5.04-1.003-.436 2.185zm-219.988-1.182l.434 2.186 5.041-1.004-.435-2.185-5.04 1.003zm194.548 13.807l9.498 3.935.852-2.06-9.497-3.933-.853 2.058zM32.833 161.97l.852 2.058 9.498-3.934-.852-2.058-9.498 3.934zm197.727 7.96l4.748 1.966.853-2.058-4.748-1.967-.853 2.058zm-216.723-.092l.854 2.058 4.749-1.967-.854-2.058-4.749 1.967zm169.686 15.26l14.539 14.538 1.575-1.576-14.538-14.538-1.576 1.576zm-133.16 12.962l1.575 1.576 14.538-14.538-1.575-1.576-14.538 14.538zm165.13-11.257l4.274 2.857 1.237-1.853-4.273-2.856-1.238 1.852zm-186.497 1.004l1.237 1.853 4.274-2.857-1.238-1.852-4.273 2.856zm176.334 19.098l7.27 7.27 1.575-1.576-7.268-7.269-1.577 1.575zM35.824 212.6l1.575 1.576 7.27-7.27-1.576-1.575-7.269 7.27zm122.213-4.932l3.933 9.498 2.06-.852-3.935-9.497-2.058.851zm-72.067 8.646l2.058.852 3.935-9.498-2.058-.851-3.935 9.497zm37.916 13.125h2.227v-20.56h-2.227v20.56zm61.066-12.708l2.856 4.273 1.853-1.238-2.856-4.273-1.853 1.238zM60.34 219.766l1.852 1.238 2.856-4.273-1.852-1.238-2.856 4.273zm107.533 11.647l1.967 4.748 2.058-.852-1.967-4.748-2.058.852zm-89.77 3.896l2.059.852 1.966-4.748-2.058-.852-1.967 4.748zm67.183-2.619l1.003 5.041 2.185-.434-1.003-5.041-2.185.434zm-43.758 4.607l2.185.434 1.003-5.04-2.186-.435-1.002 5.041zM123.886 250h2.227v-10.282h-2.227V250z" opacity=".45"/>
        <g transform="translate(63.393 13.542)">
            <path fill="#575756" d="M17.819 76.796a8.44 8.44 0 0 1 8.44-8.44h54.334a8.44 8.44 0 0 1 8.44 8.44v94.777a8.44 8.44 0 0 1-8.44 8.44H26.258a8.44 8.44 0 0 1-8.44-8.44V76.796z"/>
            <path fill="#B1B1B1" d="M41.627 125.503h-9.812c-.932 0-1.688.756-1.688 1.689v5.415c0 .933.756 1.688 1.688 1.688h9.812c.932 0 1.689-.755 1.689-1.688v-5.415a1.69 1.69 0 0 0-1.69-1.689M41.627 137.812h-9.812c-.932 0-1.688.756-1.688 1.688v5.416c0 .932.756 1.688 1.688 1.688h9.812c.932 0 1.689-.756 1.689-1.688V139.5c0-.932-.757-1.688-1.69-1.688M41.627 150.12h-9.812c-.932 0-1.688.757-1.688 1.69v5.415c0 .932.756 1.688 1.688 1.688h9.812c.932 0 1.689-.756 1.689-1.688v-5.416a1.69 1.69 0 0 0-1.69-1.688"/>
            <path fill="#F15C4F" d="M41.627 162.43h-9.812c-.932 0-1.688.756-1.688 1.688v5.415c0 .933.756 1.688 1.688 1.688h9.812c.932 0 1.689-.755 1.689-1.688v-5.415c0-.932-.757-1.688-1.69-1.688"/>
            <path fill="#B1B1B1" d="M58.332 125.503H48.52c-.933 0-1.688.756-1.688 1.689v5.415c0 .933.755 1.688 1.688 1.688h9.812c.932 0 1.688-.755 1.688-1.688v-5.415c0-.933-.756-1.689-1.688-1.689M58.332 137.812H48.52c-.933 0-1.688.756-1.688 1.688v5.416c0 .932.755 1.688 1.688 1.688h9.812c.932 0 1.688-.756 1.688-1.688V139.5c0-.932-.756-1.688-1.688-1.688M58.332 150.12H48.52c-.933 0-1.688.757-1.688 1.69v5.415c0 .932.755 1.688 1.688 1.688h9.812c.932 0 1.688-.756 1.688-1.688v-5.416c0-.932-.756-1.688-1.688-1.688"/>
            <path fill="#FED667" d="M58.332 162.43H48.52c-.933 0-1.688.756-1.688 1.688v5.415c0 .933.755 1.688 1.688 1.688h9.812c.932 0 1.688-.755 1.688-1.688v-5.415c0-.932-.756-1.688-1.688-1.688"/>
            <path fill="#B1B1B1" d="M75.036 125.503h-9.811c-.932 0-1.688.756-1.688 1.689v5.415c0 .933.756 1.688 1.688 1.688h9.811c.933 0 1.69-.755 1.69-1.688v-5.415a1.69 1.69 0 0 0-1.69-1.689M75.036 137.812h-9.811c-.932 0-1.688.756-1.688 1.688v5.416c0 .932.756 1.688 1.688 1.688h9.811c.933 0 1.69-.756 1.69-1.688V139.5c0-.932-.757-1.688-1.69-1.688M75.036 150.12h-9.811c-.932 0-1.688.757-1.688 1.69v5.415c0 .932.756 1.688 1.688 1.688h9.811c.933 0 1.69-.756 1.69-1.688v-5.416a1.69 1.69 0 0 0-1.69-1.688"/>
            <path fill="#6BD863" d="M75.036 162.43h-9.811c-.932 0-1.688.756-1.688 1.688v5.415c0 .933.756 1.688 1.688 1.688h9.811c.933 0 1.69-.755 1.69-1.688v-5.415c0-.932-.757-1.688-1.69-1.688"/>
            <mask id="b" fill="#fff">
                <use xlink:href="#a"/>
            </mask>
            <path fill="#3C3C3B" d="M30.83 74.217h45.191v-2.93h-45.19z" mask="url(#b)"/>
            <path fill="#6BD863" d="M26.61 81.367v31.124a4.22 4.22 0 0 0 4.22 4.22h45.191a4.22 4.22 0 0 0 4.22-4.22V81.367a4.22 4.22 0 0 0-4.22-4.22h-45.19a4.22 4.22 0 0 0-4.22 4.22" mask="url(#b)"/>
            <path fill="#FFF" d="M47.36 103.882l2.071 2.072L65.41 89.977l-2.073-2.072z" mask="url(#b)"/>
            <path fill="#FFF" d="M51.504 103.882l-7.99-7.989-2.071 2.073 5.916 5.916z" mask="url(#b)"/>
            <path fill="#F5F5F5" d="M0 0v55.52a8.44 8.44 0 0 0 8.44 8.44h30.89V0H0z" mask="url(#b)"/>
            <path fill="#D9D9D9" d="M53.426 63.96V33.187H25.32a8.44 8.44 0 0 0-8.44 8.44v22.331h36.545z" mask="url(#b)"/>
            <path fill="#D9D9D9" d="M18.346 63.96H8.44a8.44 8.44 0 0 0 8.44-8.44h1.466v8.44z" mask="url(#b)"/>
            <path fill="#FFF" d="M33.76 33.188v39.564h39.33V41.628a8.44 8.44 0 0 0-8.44-8.44H33.76z" mask="url(#b)"/>
            <path fill="#FFF" d="M35.226 33.188h-9.905a8.44 8.44 0 0 1 8.44 8.44h1.465v-8.44z" mask="url(#b)"/>
            <path fill="#D9D9D9" d="M38.157 44.91h30.538v-1.465H38.157zM38.157 50.772h30.538v-1.465H38.157zM38.157 56.633h30.538v-1.465H38.157zM38.157 62.495h30.538v-1.466H38.157z" mask="url(#b)"/>
            <path fill="#FFF" d="M17.819 87.539a5.53 5.53 0 0 1 4.396-4.396 5.533 5.533 0 0 1-4.396-4.396 5.533 5.533 0 0 1-4.396 4.396 5.53 5.53 0 0 1 4.396 4.396M11.442 79.367a3.234 3.234 0 0 1 2.571-2.571 3.235 3.235 0 0 1-2.571-2.571 3.235 3.235 0 0 1-2.572 2.571 3.235 3.235 0 0 1 2.572 2.571M126.295 119.165h-1.466c0-7.327-5.961-13.288-13.288-13.288-7.328 0-13.29 5.96-13.29 13.288h-1.465c0-8.136 6.62-14.754 14.755-14.754 8.135 0 14.754 6.618 14.754 14.754" mask="url(#b)"/>
            <path fill="#FFF" d="M120.433 119.165h-1.465c0-4.096-3.332-7.427-7.427-7.427s-7.428 3.331-7.428 7.427h-1.465c0-4.903 3.99-8.892 8.893-8.892 4.903 0 8.892 3.989 8.892 8.892" mask="url(#b)"/>
            <path fill="#FFF" d="M114.572 119.165h-1.465c0-.863-.703-1.566-1.566-1.566-.864 0-1.567.703-1.567 1.566h-1.465a3.035 3.035 0 0 1 3.032-3.031 3.035 3.035 0 0 1 3.031 3.03" mask="url(#b)"/>
            <path fill="#3C3C3B" d="M76.725 127.086v30.244a4.22 4.22 0 0 0 4.22 4.22h53.103a4.22 4.22 0 0 0 4.22-4.22v-30.244a4.22 4.22 0 0 0-4.22-4.22H80.944a4.22 4.22 0 0 0-4.22 4.22" mask="url(#b)"/>
            <path fill="#B1B1B1" d="M108.73 154.609h10.056v-3.7H108.73zM121.253 154.609h10.055v-3.7h-10.055zM83.684 154.609H93.74v-3.7H83.684zM96.207 154.609h10.056v-3.7H96.207z" mask="url(#b)"/>
            <path fill="#FED667" d="M127.957 136.717c0-.34.276-.616.616-.616h2.736v-2.53h-2.736a.616.616 0 1 1 0-1.234h2.736v-1.05a1.48 1.48 0 0 0-1.48-1.48h-7.096a1.48 1.48 0 0 0-1.48 1.48v1.05h2.735a.617.617 0 0 1 0 1.234h-2.735v2.53h2.735a.617.617 0 1 1 0 1.233h-2.735v1.05c0 .817.663 1.48 1.48 1.48h7.096a1.48 1.48 0 0 0 1.48-1.48v-1.05h-2.736a.616.616 0 0 1-.616-.617" mask="url(#b)"/>
            <path fill="#FFF" d="M83.684 133.508h22.58v-3.7h-22.58zM141.969 156.962v-1.465c7.327 0 13.288-5.961 13.288-13.289 0-7.327-5.961-13.289-13.288-13.289v-1.465c8.135 0 14.753 6.618 14.753 14.754 0 8.135-6.618 14.754-14.753 14.754" mask="url(#b)"/>
            <path fill="#FFF" d="M141.969 151.1v-1.465c4.095 0 7.427-3.332 7.427-7.427s-3.332-7.428-7.427-7.428v-1.465c4.903 0 8.892 3.99 8.892 8.893 0 4.904-3.99 8.893-8.892 8.893" mask="url(#b)"/>
            <path fill="#FFF" d="M141.969 145.24v-1.466c.863 0 1.565-.703 1.565-1.566 0-.863-.702-1.566-1.565-1.566v-1.466c1.67 0 3.03 1.361 3.03 3.032a3.035 3.035 0 0 1-3.03 3.031" mask="url(#b)"/>
        </g>
    </g>
</svg>
