<svg xmlns="http://www.w3.org/2000/svg" xmlns:xlink="http://www.w3.org/1999/xlink" width="250" height="250" viewBox="0 0 250 250">
    <defs>
        <path id="a" d="M.227.183h31v112.175h-31V.183z"/>
        <path id="c" d="M0 28.71V.184h104.386V28.71z"/>
        <path id="e" d="M0 143.545h160.269V.276H0z"/>
    </defs>
    <g fill="none" fill-rule="evenodd">
        <path d="M43.75 5.357h196.429v196.429H43.75z"/>
        <path fill="#FFF" d="M123.886 10.28h2.227V0h-2.227v10.28zm21.4 7.028l2.184.436 1.003-5.041-2.185-.435-1.003 5.04zm-43.76-4.605l1.003 5.04 2.186-.435-1.003-5.04-2.185.435zm66.346 5.884l2.058.852 1.967-4.748-2.058-.853-1.967 4.749zm-89.77-3.896l1.967 4.748 2.058-.852-1.966-4.749-2.059.853zm45.784 26.43h2.227v-20.56h-2.227v20.56zm61.066-7.852l1.853 1.238 2.856-4.274-1.853-1.237-2.856 4.273zM60.34 30.233l2.856 4.274 1.852-1.238-2.856-4.273-1.852 1.237zm97.698 12.098l2.058.852 3.934-9.497-2.059-.853-3.933 9.498zM85.97 33.686l3.935 9.497 2.058-.852-3.935-9.498-2.058.853zm119.36 9.407l1.577 1.576 7.268-7.27-1.575-1.574-7.27 7.268zM35.824 37.4l7.27 7.27 1.574-1.577-7.269-7.268-1.575 1.575zm147.7 27.5l1.575 1.576 14.538-14.538-1.575-1.576-14.539 14.539zM50.362 51.939L64.9 66.476l1.575-1.575-14.538-14.539-1.575 1.576zm165.13 11.257l1.238 1.853 4.273-2.857-1.237-1.852-4.274 2.856zM28.996 62.19l4.273 2.857 1.238-1.853-4.274-2.856-1.237 1.852zM230.56 80.07l.854 2.058 4.747-1.967-.853-2.058-4.748 1.967zm-216.723.091l4.75 1.967.853-2.058-4.75-1.967-.853 2.058zm192.98 9.744l.852 2.058 9.497-3.934-.852-2.059-9.498 3.935zM32.832 88.03l9.498 3.934.852-2.059-9.498-3.934-.852 2.059zm199.423 14.5l.436 2.186 5.04-1.003-.435-2.185-5.04 1.003zm-219.988 1.183l5.04 1.003.435-2.185-5.041-1.003-.434 2.185zm227.45 22.401H250v-2.228h-10.28v2.228zm-30.84 0h20.561v-2.228h-20.56v2.228zm-188.317 0h20.56v-2.228h-20.56v2.228zm-20.561 0h10.28v-2.228H0v2.228zm232.256 21.357l5.041 1.004.435-2.186-5.04-1.003-.436 2.185zm-219.988-1.182l.434 2.186 5.041-1.004-.435-2.185-5.04 1.003zm194.548 13.807l9.498 3.935.852-2.06-9.497-3.933-.853 2.058zM32.833 161.97l.852 2.058 9.498-3.934-.852-2.058-9.498 3.934zm197.727 7.96l4.748 1.966.853-2.058-4.748-1.967-.853 2.058zm-216.723-.092l.854 2.058 4.749-1.967-.854-2.058-4.749 1.967zm169.686 15.26l14.539 14.538 1.575-1.576-14.538-14.538-1.576 1.576zm-133.16 12.962l1.575 1.576 14.538-14.538-1.575-1.576-14.538 14.538zm165.13-11.257l4.274 2.857 1.237-1.853-4.273-2.856-1.238 1.852zm-186.497 1.004l1.237 1.853 4.274-2.857-1.238-1.852-4.273 2.856zm176.334 19.098l7.27 7.27 1.575-1.576-7.268-7.269-1.577 1.575zM35.824 212.6l1.575 1.576 7.27-7.27-1.576-1.575-7.269 7.27zm122.213-4.932l3.933 9.498 2.06-.852-3.935-9.497-2.058.851zm-72.067 8.646l2.058.852 3.935-9.498-2.058-.851-3.935 9.497zm37.916 13.125h2.227v-20.56h-2.227v20.56zm61.066-12.708l2.856 4.273 1.853-1.238-2.856-4.273-1.853 1.238zM60.34 219.766l1.852 1.238 2.856-4.273-1.852-1.238-2.856 4.273zm107.533 11.647l1.967 4.748 2.058-.852-1.967-4.748-2.058.852zm-89.77 3.896l2.059.852 1.966-4.748-2.058-.852-1.967 4.748zm67.183-2.619l1.003 5.041 2.185-.434-1.003-5.041-2.185.434zm-43.758 4.607l2.185.434 1.003-5.04-2.186-.435-1.002 5.041zM123.886 250h2.227v-10.282h-2.227V250z" opacity=".45"/>
        <g transform="translate(43.75 52.679)">
            <path fill="#FFF" d="M20.492 12.394C20.492 5.702 25.917.276 32.61.276h93.975c-6.13 0-11.1 4.97-11.1 11.1v121.952a9.63 9.63 0 0 1-9.629 9.63H20.492V12.394z"/>
            <path fill="#C4C4C4" d="M157.586 101.944V32.339h-21.05V102.5c0 5.495 4.455 9.95 9.95 9.95h.016c5.932 0 10.776-4.652 11.084-10.507"/>
            <g transform="translate(115.259 .093)">
                <mask id="b" fill="#fff">
                    <use xlink:href="#a"/>
                </mask>
                <path fill="#E0E0E0" d="M21.277 102.407V10.133c0-5.495-4.455-9.95-9.95-9.95-6.13 0-11.1 4.97-11.1 11.1v101.075h31c-5.495 0-9.95-4.455-9.95-9.95" mask="url(#b)"/>
            </g>
            <g transform="translate(0 114.247)">
                <mask id="d" fill="#fff">
                    <use xlink:href="#c"/>
                </mask>
                <path fill="#E0E0E0" d="M94.435 18.76V.183H0V18.76c0 5.496 4.455 9.95 9.95 9.95h94.436c-5.496 0-9.95-4.454-9.95-9.95" mask="url(#d)"/>
            </g>
            <path fill="#FFB073" d="M34.04 20.047a.99.99 0 0 0-.99.989v8.96a.99.99 0 0 0 .99.99H43a.99.99 0 0 0 .99-.99v-8.96a.99.99 0 0 0-.99-.99h-8.96zM43 32.367h-8.96a2.373 2.373 0 0 1-2.371-2.37v-8.961a2.374 2.374 0 0 1 2.37-2.371h8.962a2.374 2.374 0 0 1 2.37 2.37v8.962a2.374 2.374 0 0 1-2.37 2.37z"/>
            <path fill="#4CAF50" d="M38.715 30.29l-4.813-7.192 1.837-1.23 2.586 3.864L43.67 13.73l2.02.9z"/>
            <path fill="#FFB073" d="M34.04 44.298a.99.99 0 0 0-.99.989v8.96a.99.99 0 0 0 .99.99H43a.99.99 0 0 0 .99-.99v-8.96a.99.99 0 0 0-.99-.989h-8.96zM43 56.618h-8.96a2.373 2.373 0 0 1-2.371-2.37v-8.961a2.374 2.374 0 0 1 2.37-2.371h8.962a2.374 2.374 0 0 1 2.37 2.37v8.962a2.374 2.374 0 0 1-2.37 2.37z"/>
            <path fill="#4CAF50" d="M38.715 54.542l-4.813-7.192 1.837-1.23 2.586 3.863 5.345-12.001 2.02.9z"/>
            <path fill="#FFB073" d="M34.04 68.55a.99.99 0 0 0-.99.988V78.5a.99.99 0 0 0 .99.989H43a.99.99 0 0 0 .99-.989v-8.96a.99.99 0 0 0-.99-.99h-8.96zM43 80.87h-8.96a2.373 2.373 0 0 1-2.371-2.371v-8.96a2.374 2.374 0 0 1 2.37-2.372h8.962a2.374 2.374 0 0 1 2.37 2.371V78.5a2.374 2.374 0 0 1-2.37 2.371z"/>
            <path fill="#4CAF50" d="M38.715 78.793l-4.813-7.192 1.837-1.23 2.586 3.864 5.345-12.002 2.02.9z"/>
            <path fill="#FFB073" d="M34.04 92.8a.99.99 0 0 0-.99.99v8.96a.99.99 0 0 0 .99.99H43a.99.99 0 0 0 .99-.99v-8.96a.99.99 0 0 0-.99-.99h-8.96zM43 105.122h-8.96a2.373 2.373 0 0 1-2.371-2.37V93.79a2.374 2.374 0 0 1 2.37-2.371h8.962a2.374 2.374 0 0 1 2.37 2.37v8.961a2.374 2.374 0 0 1-2.37 2.371z"/>
            <mask id="f" fill="#fff">
                <use xlink:href="#e"/>
            </mask>
            <path fill="#E0E0E0" d="M52.193 103.183h52.193v-3.665H52.193zM52.193 97.023h28.495v-3.666H52.193zM52.193 78.931h52.193v-3.665H52.193zM52.193 72.771h28.495v-3.665H52.193zM52.193 54.68h52.193v-3.665H52.193zM52.193 48.52h28.495v-3.665H52.193zM52.193 30.429h52.193v-3.665H52.193zM52.193 24.269h28.495v-3.666H52.193z" mask="url(#f)"/>
            <path fill="#4FB9C1" d="M87.532 71.645c-.153.08-.3.18-.47.21-.17.031-.374-.03-.44-.19-.095-.23.12-.56-.076-.714-.179-.14-.418.085-.644.102-.143.011-.268-.068-.358-.183l-.234 2.58a.222.222 0 0 0 .34.207l2.653-1.694a.958.958 0 0 0-.013-.357c-.099-.34-.557-.067-.758.039" mask="url(#f)"/>
            <path fill="#FED3A6" d="M86.728 61.486l-1.184 9.384c.09.115.214.194.358.183.226-.017.465-.242.644-.102.197.153-.02.484.076.715.066.16.27.22.44.19.17-.032.317-.13.47-.211.2-.106.659-.38.757-.039.032.11.027.233.014.357l7.324-5.07-8.899-5.407z" mask="url(#f)"/>
            <path fill="#FFC197" d="M88.72 64.642l-1.992-3.156 25.083-41.27 2.856 1.735z" mask="url(#f)"/>
            <path fill="#FFB073" d="M91.947 66.603l-.942-2.14-2.334.149 25.946-42.691 3.276 1.99z" mask="url(#f)"/>
            <path fill="#FFA05F" d="M95.627 66.894l-3.68-.291 25.946-42.691 2.817 1.712z" mask="url(#f)"/>
            <path fill="#F47187" d="M119.097 12.46a2.199 2.199 0 0 0-3.02.736l-2.37 3.9 2.906 1.766 3.512-5.778-1.028-.625z" mask="url(#f)"/>
            <path fill="#EA546D" d="M124.228 15.578l-.891-.542-3.511 5.778 2.77 1.684 2.37-3.9c.63-1.037.3-2.39-.738-3.02" mask="url(#f)"/>
            <path fill="#F26273" d="M120.124 13.084l-3.51 5.778 3.212 1.952 3.511-5.778z" mask="url(#f)"/>
            <path fill="#323D5B" d="M116.59 18.847l-1.923 3.104 3.246 1.973 1.904-3.115z" mask="url(#f)"/>
            <path fill="#394766" d="M113.707 17.095l-1.896 3.12 2.856 1.736 1.922-3.104z" mask="url(#f)"/>
            <path fill="#29344C" d="M122.596 22.498l-2.78-1.69-1.903 3.116 2.786 1.693z" mask="url(#f)"/>
            <path fill="#ABBEC6" d="M127.643 88.421h7.546v-6.268h-7.546z" mask="url(#f)"/>
            <path fill="#FFF" d="M136.561 83.247h-10.29v-3.696c0-1.037.84-1.878 1.877-1.878h6.536c1.037 0 1.877.84 1.877 1.878v3.696z" mask="url(#f)"/>
            <path fill="#EAEEF1" d="M134.684 77.673h-1.406v5.574h3.283v-3.696c0-1.037-.84-1.878-1.877-1.878" mask="url(#f)" style="mix-blend-mode:multiply"/>
            <path fill="#ABBEC6" d="M146.071 92.15l-3.878-2.149 2.302-4.154 3.878 2.15z" mask="url(#f)"/>
            <path fill="#FFF" d="M148.677 89.112l-5.29-2.93 1.817-3.278a1.451 1.451 0 0 1 1.973-.566l2.75 1.524c.701.388.955 1.272.566 1.973l-1.816 3.277z" mask="url(#f)"/>
            <path fill="#FF524F" d="M102.564 114.693c0 15.934 12.917 28.852 28.852 28.852s28.853-12.918 28.853-28.852c0-15.935-12.918-28.853-28.853-28.853-15.935 0-28.852 12.918-28.852 28.853" mask="url(#f)"/>
            <path fill="#FF524F" d="M131.416 85.84c15.935 0 28.853 12.918 28.853 28.853 0 15.934-12.918 28.852-28.853 28.852" mask="url(#f)"/>
            <path fill="#FFF" d="M156.749 114.693c0 13.99-11.342 25.332-25.333 25.332-13.99 0-25.333-11.342-25.333-25.332 0-13.991 11.342-25.333 25.333-25.333 13.991 0 25.333 11.342 25.333 25.333" mask="url(#f)"/>
            <path fill="#EAEEF1" d="M146.065 114.693c0 8.09-6.558 14.649-14.649 14.649-8.09 0-14.65-6.559-14.65-14.65 0-8.09 6.56-14.649 14.65-14.649s14.65 6.56 14.65 14.65" mask="url(#f)"/>
            <path fill="#EAEEF1" d="M131.416 134.504a19.682 19.682 0 0 1-14.009-5.803 19.68 19.68 0 0 1-5.802-14.008 19.68 19.68 0 0 1 5.802-14.009 19.681 19.681 0 0 1 14.01-5.803v.83c-5.071 0-9.838 1.974-13.423 5.56a18.858 18.858 0 0 0-5.56 13.422c0 5.07 1.975 9.837 5.56 13.422a18.859 18.859 0 0 0 13.422 5.56c5.07 0 9.837-1.975 13.422-5.56l.587.586a19.682 19.682 0 0 1-14.009 5.803" mask="url(#f)"/>
            <path fill="#6D909D" d="M130.725 91.2h1.382v-1.912h-1.382zM130.725 140.098h1.382v-1.912h-1.382zM154.91 115.384h1.912v-1.382h-1.913zM106.01 115.384h1.913v-1.382h-1.912zM114.315 98.57l-1.352-1.353.978-.977 1.352 1.352zM148.892 133.145l-1.352-1.352.977-.977 1.352 1.352zM148.517 98.57l-.977-.978 1.352-1.352.977.977zM113.94 133.145l-.977-.977 1.352-1.352.978.977z" mask="url(#f)"/>
            <path fill="#EAEEF1" d="M131.416 85.84c15.935 0 28.853 12.918 28.853 28.853 0 15.934-12.918 28.852-28.853 28.852" mask="url(#f)" style="mix-blend-mode:multiply"/>
            <path fill="#FA0" d="M145.132 129.514a1.105 1.105 0 0 1-.782-1.887 18.172 18.172 0 0 0 5.357-12.934c0-4.886-1.902-9.48-5.357-12.934a18.173 18.173 0 0 0-12.934-5.358 1.105 1.105 0 1 1 0-2.21 20.367 20.367 0 0 1 14.497 6.004 20.367 20.367 0 0 1 6.006 14.498 20.368 20.368 0 0 1-6.006 14.497 1.102 1.102 0 0 1-.781.324" mask="url(#f)"/>
        </g>
    </g>
</svg>
