<svg xmlns="http://www.w3.org/2000/svg" xmlns:xlink="http://www.w3.org/1999/xlink" width="250" height="257" viewBox="0 0 250 257">
    <defs>
        <path id="a" d="M0 162.5h180.993V.227H0z"/>
        <path id="c" d="M0 196.89h219.297V.276H0z"/>
    </defs>
    <g fill="none" fill-rule="evenodd">
        <path d="M43.75 5.357h196.429v196.429H43.75z"/>
        <path fill="#FFF" d="M123.886 10.28h2.227V0h-2.227v10.28zm21.4 7.028l2.184.436 1.003-5.041-2.185-.435-1.003 5.04zm-43.76-4.605l1.003 5.04 2.186-.435-1.003-5.04-2.185.435zm66.346 5.884l2.058.852 1.967-4.748-2.058-.853-1.967 4.749zm-89.77-3.896l1.967 4.748 2.058-.852-1.966-4.749-2.059.853zm45.784 26.43h2.227v-20.56h-2.227v20.56zm61.066-7.852l1.853 1.238 2.856-4.274-1.853-1.237-2.856 4.273zM60.34 30.233l2.856 4.274 1.852-1.238-2.856-4.273-1.852 1.237zm97.698 12.098l2.058.852 3.934-9.497-2.059-.853-3.933 9.498zM85.97 33.686l3.935 9.497 2.058-.852-3.935-9.498-2.058.853zm119.36 9.407l1.577 1.576 7.268-7.27-1.575-1.574-7.27 7.268zM35.824 37.4l7.27 7.27 1.574-1.577-7.269-7.268-1.575 1.575zm147.7 27.5l1.575 1.576 14.538-14.538-1.575-1.576-14.539 14.539zM50.362 51.939L64.9 66.476l1.575-1.575-14.538-14.539-1.575 1.576zm165.13 11.257l1.238 1.853 4.273-2.857-1.237-1.852-4.274 2.856zM28.996 62.19l4.273 2.857 1.238-1.853-4.274-2.856-1.237 1.852zM230.56 80.07l.854 2.058 4.747-1.967-.853-2.058-4.748 1.967zm-216.723.091l4.75 1.967.853-2.058-4.75-1.967-.853 2.058zm192.98 9.744l.852 2.058 9.497-3.934-.852-2.059-9.498 3.935zM32.832 88.03l9.498 3.934.852-2.059-9.498-3.934-.852 2.059zm199.423 14.5l.436 2.186 5.04-1.003-.435-2.185-5.04 1.003zm-219.988 1.183l5.04 1.003.435-2.185-5.041-1.003-.434 2.185zm227.45 22.401H250v-2.228h-10.28v2.228zm-30.84 0h20.561v-2.228h-20.56v2.228zm-188.317 0h20.56v-2.228h-20.56v2.228zm-20.561 0h10.28v-2.228H0v2.228zm232.256 21.357l5.041 1.004.435-2.186-5.04-1.003-.436 2.185zm-219.988-1.182l.434 2.186 5.041-1.004-.435-2.185-5.04 1.003zm194.548 13.807l9.498 3.935.852-2.06-9.497-3.933-.853 2.058zM32.833 161.97l.852 2.058 9.498-3.934-.852-2.058-9.498 3.934zm197.727 7.96l4.748 1.966.853-2.058-4.748-1.967-.853 2.058zm-216.723-.092l.854 2.058 4.749-1.967-.854-2.058-4.749 1.967zm169.686 15.26l14.539 14.538 1.575-1.576-14.538-14.538-1.576 1.576zm-133.16 12.962l1.575 1.576 14.538-14.538-1.575-1.576-14.538 14.538zm165.13-11.257l4.274 2.857 1.237-1.853-4.273-2.856-1.238 1.852zm-186.497 1.004l1.237 1.853 4.274-2.857-1.238-1.852-4.273 2.856zm176.334 19.098l7.27 7.27 1.575-1.576-7.268-7.269-1.577 1.575zM35.824 212.6l1.575 1.576 7.27-7.27-1.576-1.575-7.269 7.27zm122.213-4.932l3.933 9.498 2.06-.852-3.935-9.497-2.058.851zm-72.067 8.646l2.058.852 3.935-9.498-2.058-.851-3.935 9.497zm37.916 13.125h2.227v-20.56h-2.227v20.56zm61.066-12.708l2.856 4.273 1.853-1.238-2.856-4.273-1.853 1.238zM60.34 219.766l1.852 1.238 2.856-4.273-1.852-1.238-2.856 4.273zm107.533 11.647l1.967 4.748 2.058-.852-1.967-4.748-2.058.852zm-89.77 3.896l2.059.852 1.966-4.748-2.058-.852-1.967 4.748zm67.183-2.619l1.003 5.041 2.185-.434-1.003-5.041-2.185.434zm-43.758 4.607l2.185.434 1.003-5.04-2.186-.435-1.002 5.041zM123.886 250h2.227v-10.282h-2.227V250z" opacity=".45"/>
        <g transform="translate(25.893 59.464)">
            <path fill="#596571" d="M166.231 98.576H29.294a4.201 4.201 0 0 1-4.201-4.201V4.429A4.201 4.201 0 0 1 29.294.228h136.937a4.2 4.2 0 0 1 4.202 4.201v89.946a4.2 4.2 0 0 1-4.202 4.2z"/>
            <path fill="#BCE1AC" d="M159.868 90.174H35.658a3.639 3.639 0 0 1-3.639-3.639V12.27c0-2.01 1.63-3.64 3.639-3.64h124.21c2.01 0 3.639 1.63 3.639 3.64v74.266c0 2.01-1.63 3.639-3.64 3.639"/>
            <path fill="#464F59" d="M174.123 103.846H21.403c-.851 0-1.637-.429-2.055-1.122l-4.507-7.476c-.887-1.47.25-3.288 2.054-3.288H178.63c1.805 0 2.941 1.818 2.055 3.288l-4.508 7.476c-.417.693-1.203 1.122-2.054 1.122"/>
            <mask id="b" fill="#fff">
                <use xlink:href="#a"/>
            </mask>
            <path fill="#0180DC" d="M38.265 17.77h118.542v-5.28H38.265z" mask="url(#b)"/>
            <path fill="#FFF" d="M38.265 84.552h118.542V17.77H38.265z" mask="url(#b)"/>
            <path fill="#F64747" d="M154.025 15.244a1.42 1.42 0 1 1-2.838 0 1.42 1.42 0 0 1 2.838 0" mask="url(#b)"/>
            <path fill="#DFB43E" d="M150.335 15.244a1.42 1.42 0 1 1-2.839 0 1.42 1.42 0 0 1 2.839 0" mask="url(#b)"/>
            <path fill="#AE9C9C" d="M146.645 15.244a1.42 1.42 0 1 1-2.839 0 1.42 1.42 0 0 1 2.839 0" mask="url(#b)"/>
            <path fill="#5CAEF7" d="M42.239 41.218h19.643V21.574H42.239z" mask="url(#b)"/>
            <path fill="#F0F1F2" d="M76.756 22.655h16.181v-1.081h-16.18zM76.756 28.843h16.181v-1.08h-16.18zM76.756 35.03h16.181v-1.08h-16.18zM76.756 41.218h16.181v-1.081h-16.18zM96.343 22.655h53.651v-1.081h-53.65zM96.343 28.843h53.651v-1.08h-53.65zM96.343 35.03h53.651v-1.08h-53.65zM96.343 41.218h53.651v-1.081h-53.65z" mask="url(#b)"/>
            <path fill="#BCE1AC" d="M49.165 49.401h33.553v-2.677H49.165zM87.402 49.401h56.404v-2.677H87.402z" mask="url(#b)"/>
            <path fill="#5CAEF7" d="M42.239 61.997h21.8v-5.336h-21.8zM66.424 61.997h21.801v-5.336h-21.8zM90.61 61.997h21.8v-5.336h-21.8zM114.795 61.997h21.801v-5.336h-21.8zM138.98 61.997h13.853v-5.336h-13.852z" mask="url(#b)"/>
            <path fill="#F94848" d="M142.228 79.937H110.98a2.317 2.317 0 0 1-2.317-2.316v-6.473a2.316 2.316 0 0 1 2.317-2.315h31.248a2.316 2.316 0 0 1 2.316 2.315v6.473a2.316 2.316 0 0 1-2.316 2.316" mask="url(#b)"/>
        </g>
        <text fill="#FFF" font-family="LucidaGrande, Lucida Grande" font-size="10.716" letter-spacing="-.084" transform="translate(25.893 58.929)">
            <tspan x="118.75" y="79.048">P</tspan> <tspan x="124.589" y="79.048" letter-spacing="-.03">A</tspan> <tspan x="118.75" y="91.048">Y</tspan>
        </text>
        <g transform="translate(25.893 59.577)">
            <path fill="#F8AC66" d="M64.804 121.752s12.857 15.426 13.105 15.759c.247.332-17.806 10.499-17.806 10.499s-10.385-7.29-10.572-7.4c-.19-.111 15.273-18.858 15.273-18.858z"/>
            <path fill="#0180DC" d="M147.706 149.959H63.019a2.582 2.582 0 0 1-2.581-2.582v-50.95a2.582 2.582 0 0 1 2.581-2.581h84.687a2.582 2.582 0 0 1 2.581 2.581v50.95a2.582 2.582 0 0 1-2.581 2.582"/>
            <mask id="d" fill="#fff">
                <use xlink:href="#c"/>
            </mask>
            <path fill="#0786DC" d="M60.437 145.783h89.85v-.949h-89.85zM60.437 142.116h89.85v-.949h-89.85zM60.437 138.448h89.85v-.949h-89.85zM60.437 134.781h89.85v-.949h-89.85zM60.437 131.114h89.85v-.95h-89.85zM60.437 127.447h89.85v-.95h-89.85zM60.437 123.78h89.85v-.95h-89.85zM60.437 120.112h89.85v-.95h-89.85zM60.437 116.445h89.85v-.95h-89.85zM60.437 112.777h89.85v-.95h-89.85zM60.437 109.11h89.85v-.95h-89.85zM60.437 105.443h89.85v-.95h-89.85zM60.437 101.776h89.85v-.95h-89.85zM60.437 98.108h89.85v-.95h-89.85z" mask="url(#d)"/>
            <path fill="#464F59" d="M60.437 111.976h89.85v-9.524h-89.85z" mask="url(#d)"/>
            <path fill="#FFF" d="M64.654 124.484h64.547v-7.144H64.654zM131.723 124.484h14.001v-7.144h-14.001z" mask="url(#d)"/>
            <path fill="#FF8C3F" d="M142.507 138.285a4.899 4.899 0 1 1-9.797-.001 4.899 4.899 0 0 1 9.797 0" mask="url(#d)"/>
            <path fill="#00D3F1" d="M135.255 138.285a4.899 4.899 0 1 1-9.798-.001 4.899 4.899 0 0 1 9.798 0" mask="url(#d)"/>
        </g>
        <text fill="#464F59" font-family="LucidaGrande, Lucida Grande" font-size="4.278" letter-spacing=".5" transform="translate(25.893 58.929)">
            <tspan x="70.672" y="122.937">1234 5678 </tspan> <tspan x="70.672" y="127.937">9012</tspan>
        </text>
        <text fill="#464F59" font-family="LucidaGrande, Lucida Grande" font-size="4.278" letter-spacing=".5" transform="translate(25.893 58.929)">
            <tspan x="133.704" y="122.937">12</tspan> <tspan x="133.704" y="127.937">3</tspan>
        </text>
        <path fill="#FFD195" d="M79.545 238.356l11.385-8.46a10.136 10.136 0 0 0 3.584-4.962c.64-1.936 1.485-4.578 2.214-6.87a20.777 20.777 0 0 1 5.275-8.563l13.683-13.384a6.025 6.025 0 0 0-7.94-9.042l-22.97 18.073c-3.804-2.45-4.25-7.841-.9-10.882l2.462-2.106-.029-20.374L60.25 182.98a6.541 6.541 0 0 0-4.175 4.046l-18.89 53.316 36.152 11.64 6.208-13.626z"/>
        <path fill="#F786A1" d="M30.09 236.993l48.917 15.1-1.363 4.375H25.893v-5.8z"/>
        <path fill="#FFE9D9" d="M105.95 190.649l5.135 7.026 3.13-2.705a4.066 4.066 0 0 0 1.315-3.938l-.103-.47a4.065 4.065 0 0 0-6.527-2.298l-2.95 2.385z"/>
        <path fill="#FFE1D8" d="M110.05 192.629c1.622 2.05 1.036 5.045 1.036 5.045l-5.136-7.025s2.479-.07 4.1 1.98"/>
    </g>
</svg>
