<svg xmlns="http://www.w3.org/2000/svg" width="32" height="32" viewBox="0 0 32 32">
    <g fill="none" fill-rule="evenodd">
        <path d="M0 0h32v32H0z"/>
        <path fill="#FFF" d="M10.687 20.74l-3.383 3.336a.44.44 0 0 0 .306.754.457.457 0 0 0 .313-.124l3.383-3.336a.44.44 0 0 0 .006-.625.44.44 0 0 0-.625-.006M24.068 7.3l-3.336 3.384a.445.445 0 0 0 .318.754c.118 0 .23-.047.313-.135l3.336-3.384a.445.445 0 0 0-.006-.625.445.445 0 0 0-.625.006m5.807 2.217a.443.443 0 0 0-.006-.62L23.102 2.13a.442.442 0 0 0-.625 0c-.36.353-.849.554-1.38.554-.53 0-1.02-.195-1.379-.554a.442.442 0 0 0-.625 0L2.128 19.095a.445.445 0 0 0 0 .625c.749.748.749 2.01 0 2.758a.445.445 0 0 0 0 .625l6.767 6.767c.171.171.448.171.62.006.783-.743 2.021-.748 2.764-.006a.437.437 0 0 0 .625 0l16.965-16.918c.17-.17.17-.442.006-.619a2.037 2.037 0 0 1 0-2.817m-14.46 2.116c.33-.295.825-.283 1.102.03l.03.029c.306.277.318.772.023 1.102-.294.29-.784.266-1.102-.053a.853.853 0 0 1-.254-.583.706.706 0 0 1 .2-.525m.65 2.246c.418 0 .825-.16 1.137-.466 0-.006.006-.012.012-.017.625-.684.595-1.734-.06-2.347-.612-.654-1.656-.683-2.345-.059-.006 0-.012.006-.018.012-.637.643-.619 1.698.047 2.364.342.342.79.513 1.226.513m-.04 6.726a.783.783 0 0 1-.79-.79c0-.442.347-.79.79-.79.406 0 .748.365.748.79 0 .424-.342.79-.749.79m0-2.458a1.68 1.68 0 0 0-1.674 1.674c0 .92.749 1.674 1.674 1.674.896 0 1.633-.755 1.633-1.674 0-.92-.731-1.674-1.633-1.674M22.4 15.58H9.597c-.242 0-.442.2-.442.443 0 .241.2.442.442.442H22.4c.242 0 .442-.2.442-.442s-.2-.443-.442-.443"/>
    </g>
</svg>
