<svg xmlns="http://www.w3.org/2000/svg" width="28" height="28" viewBox="0 0 28 28">
    <g fill="none" fill-rule="evenodd">
        <path d="M0 0h28v28H0z"/>
        <path fill="#00BF8F" d="M19.546 18.152a3.042 3.042 0 0 1-3.044-3.044 3.042 3.042 0 0 1 3.044-3.043 3.042 3.042 0 1 1 0 6.087m-5.542-3.462a.989.989 0 1 1 .001-1.978.989.989 0 0 1 0 1.978m-5.542 3.462a3.042 3.042 0 0 1-3.044-3.044 3.042 3.042 0 0 1 3.044-3.043 3.042 3.042 0 1 1 0 6.087m14.18-6.255a5.12 5.12 0 0 0-.353-.308l-1.682-1.427a4.412 4.412 0 0 0-2.256-.808l.09.09-1.021-1.026h-.008a1.601 1.601 0 0 0-2.6.69 1.463 1.463 0 0 0-.702-.226c-.041-.004-.086-.004-.127-.004a1.49 1.49 0 0 0-.792.23 1.603 1.603 0 0 0-2.6-.686h-.009L9.562 9.448l.09-.09a4.436 4.436 0 0 0-2.256.808l-1.681 1.427A4.443 4.443 0 0 0 4 15.108a4.467 4.467 0 0 0 4.463 4.463 4.467 4.467 0 0 0 4.425-3.913c.329.189.71.295 1.112.295.406 0 .783-.106 1.112-.295a4.47 4.47 0 0 0 4.425 3.909A4.467 4.467 0 0 0 24 15.104a4.423 4.423 0 0 0-1.358-3.207"/>
    </g>
</svg>
