<svg xmlns="http://www.w3.org/2000/svg" width="40" height="40" viewBox="0 0 40 40">
    <g fill="none" fill-rule="evenodd">
        <rect width="40" height="40" fill="#3F51B5" rx="20"/>
        <path fill="#FFF" d="M32 22.24c0 .302-.24.541-.544.541h-2.88a2.218 2.218 0 0 0-.168-.491 31.983 31.983 0 0 1-.534-.99c-.378-.727-.933-1.767-1.519-2.856h5.103a.537.537 0 0 1 .542.538v3.258zm-1.271 8.365c-.185-.58-1.547-.61-2.156-1.473-.622-.852-.111-1.294.102-1.5 2.48-1.389 2.054 2.973 2.054 2.973zm-3.157-3.535l-.852-1.343a.524.524 0 0 1 .194-.772l.815-.42a.597.597 0 0 1 .802.263l.678 1.292a.637.637 0 0 1-.229.837l-.586.35c-.266.164-.641.07-.822-.207zm-1.858-2.997c-.575-.283-3.411-6.792-4.126-8.488-.738-1.7-2.925-6.223-2.218-6.573.504-.25 2.317 3.312 3.679 5.446 1.355 2.137 4.195 7.646 4.547 8.275.348.632-.332 1.151-.721 1.313-.379.158-.594.306-1.161.027zm-8.164-1.292l2.507-4.34h1.441l2.037 4.34H17.55zm-5.012 4.923l-1.419-.807a.545.545 0 0 1-.2-.742l6.584-11.406a.547.547 0 0 1 .743-.207l1.425.81a.554.554 0 0 1 .2.745L13.287 27.51a.546.546 0 0 1-.749.194zm-.438 1.198l-1.837 1.254c-.248.168-.422.056-.388-.233l.247-2.134c.034-.299.278-.416.537-.272l1.419.816c.258.143.269.403.022.57zM8 22.24v-3.258a.55.55 0 0 1 .55-.54h5.753l-2.507 4.34H8.55A.545.545 0 0 1 8 22.24z"/>
    </g>
</svg>
