<svg xmlns="http://www.w3.org/2000/svg" width="40" height="40" viewBox="0 0 40 40">
    <g fill="none" fill-rule="evenodd">
        <rect width="40" height="40" fill="#3F51B5" rx="20"/>
        <path fill="#FFF" d="M24 25c-1.103 0-2-1.122-2-2.5s.897-2.5 2-2.5 2 1.122 2 2.5-.897 2.5-2 2.5zm-5.5 0a.5.5 0 0 1-.416-.777l6-9a.5.5 0 1 1 .832.554l-6 9A.5.5 0 0 1 18.5 25zM17 17.5c0-1.378.897-2.5 2-2.5s2 1.122 2 2.5-.897 2.5-2 2.5-2-1.122-2-2.5zm-2-3a.5.5 0 1 1-1 0v-1.125a.5.5 0 1 1 1 0V14.5zm0 4a.5.5 0 1 1-1 0v-1a.5.5 0 1 1 1 0v1zm0 4a.5.5 0 1 1-1 0v-1a.5.5 0 1 1 1 0v1zm0 4a.5.5 0 1 1-1 0v-1a.5.5 0 1 1 1 0v1zm16.5-9a.5.5 0 0 0 .5-.5v-4c0-1.103-.897-2-2-2H10c-1.103 0-2 .897-2 2v4a.5.5 0 0 0 .5.5c1.378 0 2.5 1.122 2.5 2.5s-1.122 2.5-2.5 2.5a.5.5 0 0 0-.5.5v4c0 1.103.897 2 2 2h20c1.103 0 2-.897 2-2v-4a.5.5 0 0 0-.5-.5A2.503 2.503 0 0 1 29 20c0-1.378 1.122-2.5 2.5-2.5zm-11.5 0c0-.813-.458-1.5-1-1.5s-1 .687-1 1.5.458 1.5 1 1.5 1-.687 1-1.5zm4 3.5c-.542 0-1 .687-1 1.5s.458 1.5 1 1.5 1-.687 1-1.5-.458-1.5-1-1.5z"/>
    </g>
</svg>
