<svg xmlns="http://www.w3.org/2000/svg" width="40" height="40" viewBox="0 0 40 40">
    <g fill="none" fill-rule="evenodd">
        <rect width="40" height="40" fill="#3F51B5" rx="20"/>
        <path fill="#FFF" d="M8.75 19.25h8.845c.266-.41.571-.791.905-1.146v-.542c0-.31-.335-.562-.75-.562h-9c-.415 0-.75.252-.75.562v1.125c0 .311.335.563.75.563m0 3h7.644A8.135 8.135 0 0 1 17.16 20H8.75c-.415 0-.75.252-.75.562v1.126c0 .31.335.562.75.562m0-6h9c.415 0 .75-.252.75-.563v-1.125c0-.31-.335-.562-.75-.562h-9c-.415 0-.75.252-.75.562v1.125c0 .311.335.563.75.563m11.25 0h1.084a8.172 8.172 0 0 1 3.416-.75c1.219 0 2.375.272 3.416.75H29c.415 0 .75-.252.75-.563v-1.125c0-.31-.335-.562-.75-.562h-9c-.415 0-.75.252-.75.562v1.125c0 .311.335.563.75.563m-11.25 9h7.644a8.176 8.176 0 0 1-.144-1.5c0-.253.015-.502.038-.75H8.75c-.415 0-.75.252-.75.563v1.124c0 .311.335.563.75.563m9 3.75h-9c-.415 0-.75.252-.75.562v1.125c0 .311.335.563.75.563h9c.415 0 .75-.252.75-.563v-1.125c0-.31-.335-.562-.75-.562m-9-.75h8.845A8.233 8.233 0 0 1 16.569 26H8.75c-.414 0-.749.252-.749.563v1.124c0 .31.335.563.75.563m11.25-15h9c.415 0 .75-.252.75-.563v-1.125c0-.31-.335-.562-.75-.562h-9c-.415 0-.75.252-.75.562v1.126c0 .31.335.562.75.562m0-3h9c.415 0 .75-.252.75-.563V8.562c0-.31-.335-.562-.75-.562h-9c-.415 0-.75.252-.75.562v1.125c0 .31.335.563.75.563m10.5 13.5c0-3.31-2.69-6-6-6-3.309 0-6 2.69-6 6 0 3.309 2.691 6 6 6 3.31 0 6-2.691 6-6m1.5 0a7.5 7.5 0 0 1-7.5 7.5 7.5 7.5 0 0 1-7.5-7.5 7.5 7.5 0 0 1 7.5-7.5 7.5 7.5 0 0 1 7.5 7.5m-5.262.277c.172.29.258.628.258 1.016 0 .595-.177 1.09-.532 1.487-.354.397-.865.632-1.535.702v1.018h-.852v-1.014c-1.115-.114-1.805-.763-2.072-1.944l1.319-.344c.121.743.526 1.115 1.212 1.115.321 0 .559-.079.71-.239a.805.805 0 0 0 .227-.576c0-.233-.076-.41-.227-.528-.151-.12-.488-.273-1.01-.457-.468-.163-.835-.323-1.098-.484a1.808 1.808 0 0 1-.642-.665 1.966 1.966 0 0 1-.248-1c0-.499.148-.948.441-1.347.295-.398.756-.641 1.388-.73v-.787h.852v.787c.952.114 1.57.653 1.852 1.617l-1.177.482c-.228-.66-.581-.992-1.062-.992-.24 0-.433.073-.578.221a.735.735 0 0 0-.22.538c0 .214.07.378.21.493.142.115.442.257.903.425.506.185.904.36 1.191.525.289.164.517.392.69.68"/>
    </g>
</svg>
