<svg xmlns="http://www.w3.org/2000/svg" width="56" height="56" viewBox="0 0 56 56">
    <g fill="none" fill-rule="evenodd">
        <rect width="56" height="56" fill="#3F51B5" rx="28"/>
        <path fill="#FFF" d="M36.98 27a23.752 23.752 0 0 0-.492-4h3.516a13 13 0 0 1 .958 4H36.98zm3.024 6h-3.516c.268-1.264.438-2.606.492-4h3.98a12.942 12.942 0 0 1-.956 4zm-6.396 6.73c.968-1.286 1.772-2.894 2.358-4.73h2.99a13.042 13.042 0 0 1-5.348 4.73zM29 40.872V35h4.9c-1.074 3.114-2.846 5.322-4.9 5.872zM29 29h5.98a22.17 22.17 0 0 1-.52 4H29v-4zm0-6h5.46c.284 1.246.458 2.592.52 4H29v-4zm0-7.87c2.054.548 3.826 2.756 4.9 5.87H29v-5.87zM38.956 21h-2.99c-.586-1.836-1.386-3.446-2.358-4.73A13.056 13.056 0 0 1 38.956 21zM27 21h-4.9c1.074-3.114 2.844-5.322 4.9-5.87V21zm0 6h-5.98c.058-1.408.236-2.754.518-4H27v4zm0 6h-5.462a22.353 22.353 0 0 1-.518-4H27v4zm0 7.872c-2.056-.55-3.826-2.758-4.9-5.872H27v5.872zM17.042 35h2.994c.584 1.836 1.386 3.446 2.354 4.73A13.054 13.054 0 0 1 17.042 35zm-2.004-6h3.982c.054 1.394.224 2.736.492 4h-3.516a12.887 12.887 0 0 1-.958-4zm.958-6h3.516a23.752 23.752 0 0 0-.492 4h-3.982c.106-1.408.438-2.754.958-4zm6.394-6.73c-.966 1.284-1.768 2.894-2.352 4.73h-2.996a13.068 13.068 0 0 1 5.348-4.73zM42.964 27C42.472 19.512 36.488 13.526 29 13.034V13h-2v.034c-7.488.492-13.474 6.478-13.966 13.966H13v2h.034c.492 7.488 6.478 13.472 13.966 13.964V43h2v-.036c7.488-.492 13.472-6.476 13.964-13.964H43v-2h-.036z"/>
    </g>
</svg>
