<svg id="Layer_1" data-name="Layer 1" xmlns="http://www.w3.org/2000/svg" xmlns:xlink="http://www.w3.org/1999/xlink" viewBox="0 0 160 50"><defs><style>.cls-1{fill:#a6a6a6;}.cls-10,.cls-2,.cls-9{fill:#fff;}.cls-3{fill:url(#linear-gradient);}.cls-4{fill:url(#linear-gradient-2);}.cls-5{fill:url(#linear-gradient-3);}.cls-6{fill:url(#linear-gradient-4);}.cls-7{opacity:0.2;}.cls-7,.cls-8,.cls-9{isolation:isolate;}.cls-8{opacity:0.12;}.cls-9{opacity:0.25;}.cls-10{stroke:#fff;stroke-miterlimit:10;stroke-width:0.2px;}</style><linearGradient id="linear-gradient" x1="25.84" y1="40.39" x2="5.94" y2="20.49" gradientTransform="matrix(1, 0, 0, -1, 0, 52)" gradientUnits="userSpaceOnUse"><stop offset="0" stop-color="#00a0ff"/><stop offset="0.01" stop-color="#00a1ff"/><stop offset="0.26" stop-color="#00beff"/><stop offset="0.51" stop-color="#00d2ff"/><stop offset="0.76" stop-color="#00dfff"/><stop offset="1" stop-color="#00e3ff"/></linearGradient><linearGradient id="linear-gradient-2" x1="40.09" y1="27" x2="11.42" y2="27" gradientTransform="matrix(1, 0, 0, -1, 0, 52)" gradientUnits="userSpaceOnUse"><stop offset="0" stop-color="#ffe000"/><stop offset="0.41" stop-color="#ffbd00"/><stop offset="0.78" stop-color="orange"/><stop offset="1" stop-color="#ff9c00"/></linearGradient><linearGradient id="linear-gradient-3" x1="29.42" y1="24.28" x2="2.44" y2="-2.7" gradientTransform="matrix(1, 0, 0, -1, 0, 52)" gradientUnits="userSpaceOnUse"><stop offset="0" stop-color="#ff3a44"/><stop offset="1" stop-color="#c31162"/></linearGradient><linearGradient id="linear-gradient-4" x1="8.64" y1="50.5" x2="20.68" y2="38.45" gradientTransform="matrix(1, 0, 0, -1, 0, 52)" gradientUnits="userSpaceOnUse"><stop offset="0" stop-color="#32a071"/><stop offset="0.07" stop-color="#2da771"/><stop offset="0.48" stop-color="#15cf74"/><stop offset="0.8" stop-color="#06e775"/><stop offset="1" stop-color="#00f076"/></linearGradient></defs><title>google_download</title><path d="M154.12,50H6A5.94,5.94,0,0,1,.09,44.07L0,5.92A6,6,0,0,1,6,0h148.1A6,6,0,0,1,160,5.92l0,38.15A5.93,5.93,0,0,1,154.12,50Z"/><path class="cls-1" d="M154.07.94a5,5,0,0,1,5,5l.05,38.15a5,5,0,0,1-5,5H6a5,5,0,0,1-5-5L1,5.92a5,5,0,0,1,5-5h148.1m0-.94H6A5.94,5.94,0,0,0,0,5.92l0,38.15A5.94,5.94,0,0,0,6,50h148.1A5.93,5.93,0,0,0,160,44.07l0-38.15A5.94,5.94,0,0,0,154.07,0Z"/><path class="cls-2" d="M80.73,27.08a5,5,0,1,0,5.06,5A5,5,0,0,0,80.73,27.08Zm0,8.1a3.07,3.07,0,1,1,2.84-3.06A2.93,2.93,0,0,1,80.73,35.18Zm-11-8.1a5,5,0,1,0,5.06,5A5,5,0,0,0,69.69,27.08Zm0,8.1a3.07,3.07,0,1,1,2.85-3.06A2.92,2.92,0,0,1,69.69,35.18ZM56.57,28.62v2.14h5.11a4.45,4.45,0,0,1-1.16,2.7,5.26,5.26,0,0,1-4,1.56,5.69,5.69,0,0,1,0-11.38,5.42,5.42,0,0,1,3.85,1.53l1.51-1.51a7.47,7.47,0,0,0-5.36-2.16,7.83,7.83,0,1,0,0,15.66A6.92,6.92,0,0,0,63.88,30a6.74,6.74,0,0,0-.12-1.34Zm53.68,1.67a4.68,4.68,0,0,0-4.32-3.21,4.79,4.79,0,0,0-4.75,5,4.93,4.93,0,0,0,5,5,5,5,0,0,0,4.2-2.23l-1.72-1.15a2.87,2.87,0,0,1-2.48,1.4,2.56,2.56,0,0,1-2.44-1.53l6.74-2.79ZM103.38,32A2.76,2.76,0,0,1,106,29a1.94,1.94,0,0,1,1.87,1.06ZM97.9,36.86h2.21V22H97.9ZM94.27,28.2H94.2a3.52,3.52,0,0,0-2.66-1.12,5,5,0,0,0,0,10.08A3.46,3.46,0,0,0,94.2,36h.07v.72c0,1.93-1,3-2.69,3A2.78,2.78,0,0,1,89,37.91l-1.93.8a4.81,4.81,0,0,0,4.47,3c2.6,0,4.79-1.53,4.79-5.25V27.38h-2.1Zm-2.54,7a3.07,3.07,0,0,1,0-6.12,2.84,2.84,0,0,1,2.69,3.08A2.82,2.82,0,0,1,91.73,35.18ZM120.62,22h-5.3V36.86h2.21V31.24h3.09a4.61,4.61,0,1,0,0-9.21Zm.06,7.15h-3.15V24.1h3.15a2.54,2.54,0,1,1,0,5.08Zm13.66-2.13a4.17,4.17,0,0,0-4,2.27l2,.82a2.1,2.1,0,0,1,2-1.09A2.13,2.13,0,0,1,136.7,31v.15a4.88,4.88,0,0,0-2.3-.57c-2.12,0-4.27,1.16-4.27,3.34a3.42,3.42,0,0,0,3.68,3.26,3.14,3.14,0,0,0,2.82-1.45h.07v1.14h2.14V31.15C138.84,28.52,136.87,27.05,134.34,27.05Zm-.27,8.12c-.72,0-1.73-.36-1.73-1.26,0-1.14,1.26-1.58,2.34-1.58a3.9,3.9,0,0,1,2,.5A2.67,2.67,0,0,1,134.07,35.17Zm12.54-7.8-2.53,6.43H144l-2.63-6.43H139l3.94,9-2.25,5H143l6.08-14ZM126.7,36.86h2.21V22H126.7Z"/><path class="cls-3" d="M12.36,10.22a2.42,2.42,0,0,0-.54,1.67V38.11a2.41,2.41,0,0,0,.54,1.67l.09.08L27.13,25.17v-.34L12.45,10.14Z"/><path class="cls-4" d="M32,30.07l-4.89-4.9v-.34L32,19.93l.11.06,5.8,3.3c1.66.94,1.66,2.48,0,3.42L32.13,30Z"/><path class="cls-5" d="M32.13,30l-5-5L12.36,39.78a1.93,1.93,0,0,0,2.47.07L32.13,30"/><path class="cls-6" d="M32.13,20l-17.3-9.84a1.94,1.94,0,0,0-2.47.07L27.13,25Z"/><path class="cls-7" d="M32,29.9,14.83,39.68a2,2,0,0,1-2.38,0h0l-.09.09h0l.09.08h0a2,2,0,0,0,2.38,0L32.13,30Z"/><path class="cls-8" d="M12.36,39.61a2.42,2.42,0,0,1-.54-1.67v.17a2.41,2.41,0,0,0,.54,1.67l.09-.09Z"/><path class="cls-8" d="M37.93,26.54,32,29.9l.11.11,5.8-3.3A2.07,2.07,0,0,0,39.17,25h0A2.22,2.22,0,0,1,37.93,26.54Z"/><path class="cls-9" d="M14.83,10.33l23.1,13.13A2.22,2.22,0,0,1,39.17,25h0a2.07,2.07,0,0,0-1.24-1.71L14.83,10.15c-1.66-.94-3-.16-3,1.74v.17C11.82,10.17,13.17,9.38,14.83,10.33Z"/><path class="cls-10" d="M51.76,16.34h-.87v-6H49V9.55h4.67v.83h-1.9Z"/><path class="cls-10" d="M55,14.33l-.66,2H53.5L55.67,10h1l2.18,6.39H58l-.69-2Zm2.09-.64-.62-1.84c-.14-.42-.24-.8-.33-1.17h0c-.1.38-.2.77-.33,1.16l-.62,1.85ZM56,9.5c.15-.41.49-.49.49-.8a.28.28,0,0,0-.31-.29.67.67,0,0,0-.48.33l-.31-.19a1,1,0,0,1,.94-.64.73.73,0,0,1,.78.69c0,.48-.42.58-.68,1Z"/><path class="cls-10" d="M59.8,16.34V9.55h.87v6.79Z"/><path class="cls-10" d="M64.12,16.34V9.55h1.06l3.3,5.28h0l0-1.31v-4h.88v6.79h-.92L65,10.8h0l0,1.31v4.23Z"/><path class="cls-10" d="M76.39,13.08c0,2.2-1.33,3.37-3,3.37s-2.87-1.31-2.87-3.25,1.26-3.35,3-3.35S76.39,11.18,76.39,13.08Zm-5,.1c0,1.37.74,2.59,2,2.59s2-1.2,2-2.65c0-1.27-.66-2.6-2-2.6S71.44,11.78,71.44,13.18ZM73.79,8.5l1,1.08h-.7l-.6-.65h0l-.6.65h-.68l1-1.08ZM73,17.57a.49.49,0,0,1,.49-.47.47.47,0,0,1,.45.47.49.49,0,0,1-.46.49A.5.5,0,0,1,73,17.57Z"/><path class="cls-10" d="M77.62,16.34V9.55h.88v6.79Z"/><path class="cls-10" d="M82,16.34V9.55H84A3.23,3.23,0,0,1,87.46,13a3.32,3.32,0,0,1-.94,2.45,3.36,3.36,0,0,1-2.5.94Zm.87-.83H84a2.56,2.56,0,0,0,1.87-.68A2.53,2.53,0,0,0,86.57,13,2.36,2.36,0,0,0,84,10.38h-1.2Z"/><path class="cls-10" d="M91.09,16.49a2.33,2.33,0,0,1-1.81-.74,2.66,2.66,0,0,1-.7-1.93V9.55h.87v4.31a2,2,0,0,0,.42,1.3,1.74,1.74,0,0,0,2.44,0,2,2,0,0,0,.42-1.3V9.55h.87v4.27a2.72,2.72,0,0,1-.68,1.94A2.36,2.36,0,0,1,91.09,16.49Z"/><path class="cls-10" d="M95.09,16.34V9.55h1.06l3.3,5.28h0l0-1.31v-4h.87v6.79h-.91L96,10.8h0l0,1.31v4.23Z"/><path class="cls-10" d="M108.41,13.22a3.07,3.07,0,0,1-.84,2.27,3.28,3.28,0,0,1-2.49,1A3.5,3.5,0,0,1,101.55,13a3.5,3.5,0,0,1,3.53-3.55,3.49,3.49,0,0,1,1.39.28,2.92,2.92,0,0,1,1.06.76l-.6.6a2.28,2.28,0,0,0-1.85-.81,2.56,2.56,0,0,0-1.86.76,2.59,2.59,0,0,0-.78,2,2.63,2.63,0,0,0,2.64,2.71A2.55,2.55,0,0,0,107,14.9a2.13,2.13,0,0,0,.57-1.38h-2.46v-.81h3.28A2.32,2.32,0,0,1,108.41,13.22Z"/><path class="cls-10" d="M113.87,16.34H113v-6h-1.9V9.55h4.67v.83h-1.9Z"/><path class="cls-10" d="M116.74,16.34V9.55h2.31a2.16,2.16,0,0,1,1.5.57,1.89,1.89,0,0,1,.63,1.45,1.91,1.91,0,0,1-.47,1.26,2,2,0,0,1-1.16.69v0l1.9,2.76v0h-1l-1.83-2.75h-1v2.75Zm.87-3.56H119a1.29,1.29,0,0,0,.9-.35,1.09,1.09,0,0,0,.37-.86,1.21,1.21,0,0,0-.33-.82,1.14,1.14,0,0,0-.88-.37h-1.46Z"/><path class="cls-10" d="M126.4,10.38h-3.1v2.16h2.79v.81H123.3v2.16h3.1v.83h-4V9.55h4ZM123.06,9v0l1-1.12h.76l1,1.12V9h-.84l-.48-.57h-.07L123.9,9Z"/><path class="cls-10" d="M127.66,16.34V9.55h1.06l3.3,5.28h0l0-1.31v-4h.88v6.79H132l-3.45-5.54h0l0,1.31v4.23Z"/></svg>