<svg xmlns="http://www.w3.org/2000/svg" xmlns:xlink="http://www.w3.org/1999/xlink" width="161" height="50" viewBox="0 0 161 50">
    <defs>
        <path id="a" d="M0 50V0h160v50z"/>
        <path id="c" d="M0 50h149.58V0H0z"/>
    </defs>
    <g fill="none" fill-rule="evenodd" transform="translate(1)">
        <g>
            <mask id="b" fill="#fff">
                <use xlink:href="#a"/>
            </mask>
            <path fill="#A6A6A6" d="M147.259 0H12.749c-.49 0-.975 0-1.464.002-.41.003-.816.01-1.23.017a19.04 19.04 0 0 0-2.679.22 9.428 9.428 0 0 0-2.541.783c-.799.384-1.53.88-2.164 1.474a7.884 7.884 0 0 0-1.575 2.026 7.874 7.874 0 0 0-.836 2.38C.11 7.728.03 8.565.02 9.403c-.012.383-.014.768-.02 1.15V39.45c.006.388.008.763.02 1.152.01.839.09 1.675.24 2.503a7.81 7.81 0 0 0 .836 2.38A7.793 7.793 0 0 0 2.671 47.5a8.4 8.4 0 0 0 2.164 1.474c.8.38 1.658.646 2.541.789.887.135 1.783.21 2.68.22.413.01.82.015 1.229.015H148.709c.407 0 .824-.005 1.232-.014.896-.011 1.79-.085 2.674-.221a9.592 9.592 0 0 0 2.551-.79 8.401 8.401 0 0 0 2.162-1.473 8.004 8.004 0 0 0 1.58-2.017 7.864 7.864 0 0 0 .828-2.38c.149-.828.233-1.664.249-2.503.004-.389.004-.764.004-1.152.01-.454.01-.907.01-1.368V11.92c0-.458 0-.911-.01-1.365 0-.383 0-.768-.004-1.151-.016-.838-.1-1.674-.249-2.503a7.869 7.869 0 0 0-.827-2.379c-.825-1.502-2.134-2.727-3.743-3.5a9.537 9.537 0 0 0-2.55-.783 18.584 18.584 0 0 0-2.675-.22c-.408-.007-.825-.014-1.233-.017-.48-.002-.97-.002-1.45-.002" mask="url(#b)"/>
        </g>
        <path fill="#000" d="M11.237 48.907c-.409 0-.807-.005-1.211-.014a18.441 18.441 0 0 1-2.505-.204 8.265 8.265 0 0 1-2.22-.685 7.236 7.236 0 0 1-1.872-1.27 6.738 6.738 0 0 1-1.368-1.746 6.875 6.875 0 0 1-.727-2.071 14.496 14.496 0 0 1-.223-2.344c-.008-.264-.02-1.141-.02-1.141V10.556s.012-.865.02-1.12a14.6 14.6 0 0 1 .221-2.34 6.89 6.89 0 0 1 .73-2.077 6.762 6.762 0 0 1 1.36-1.747A7.44 7.44 0 0 1 5.3 1.994a8.184 8.184 0 0 1 2.216-.68c.83-.126 1.67-.195 2.512-.205l1.209-.015h137.701l1.224.015c.835.01 1.667.078 2.49.204a8.295 8.295 0 0 1 2.238.685c1.393.669 2.522 1.726 3.236 3.025.35.649.593 1.344.718 2.061.138.78.218 1.568.232 2.36.004.353.004.733.004 1.112.011.468.011.915.011 1.365v26.16c0 .455 0 .898-.01 1.345 0 .406 0 .778-.006 1.162-.015.776-.091 1.55-.228 2.316a6.888 6.888 0 0 1-.723 2.088 6.94 6.94 0 0 1-1.362 1.732 7.238 7.238 0 0 1-1.876 1.278 8.228 8.228 0 0 1-2.233.687c-.83.127-1.667.194-2.506.204-.393.009-.803.014-1.202.014l-1.452.002-136.256-.002z"/>
        <path fill="#FFF" d="M30.961 25.376a6.184 6.184 0 0 1 2.945-5.19 6.333 6.333 0 0 0-4.988-2.698c-2.1-.22-4.134 1.257-5.204 1.257-1.09 0-2.736-1.234-4.51-1.198a6.643 6.643 0 0 0-5.591 3.41c-2.418 4.185-.615 10.337 1.7 13.72 1.16 1.657 2.513 3.508 4.286 3.441 1.733-.072 2.381-1.105 4.474-1.105 2.073 0 2.68 1.105 4.488 1.064 1.86-.031 3.033-1.663 4.151-3.336a13.756 13.756 0 0 0 1.898-3.866 5.976 5.976 0 0 1-3.649-5.499M27.546 15.264A6.092 6.092 0 0 0 28.94 10.9a6.2 6.2 0 0 0-4.01 2.075 5.801 5.801 0 0 0-1.43 4.201 5.123 5.123 0 0 0 4.046-1.912M47.574 31.99h4.69l-2.313-6.81h-.063l-2.314 6.81zm5.304 1.935H46.96l-1.42 4.195h-2.507l5.605-15.522h2.604l5.603 15.522h-2.548l-1.42-4.195zM66.562 32.463c0-2.291-1.184-3.798-2.991-3.798-1.775 0-2.97 1.538-2.97 3.798 0 2.28 1.195 3.807 2.97 3.807 1.807 0 2.99-1.495 2.99-3.807m2.388 0c0 3.516-1.882 5.776-4.722 5.776a3.837 3.837 0 0 1-3.561-1.98h-.054v5.605h-2.323v-15.06h2.25v1.883h.042a4.013 4.013 0 0 1 3.603-2.002c2.873 0 4.765 2.27 4.765 5.778M79.019 32.463c0-2.291-1.184-3.798-2.992-3.798-1.775 0-2.969 1.538-2.969 3.798 0 2.28 1.194 3.807 2.97 3.807 1.807 0 2.99-1.495 2.99-3.807m2.388 0c0 3.516-1.883 5.776-4.723 5.776a3.835 3.835 0 0 1-3.56-1.98h-.055v5.605h-2.323v-15.06h2.248v1.883h.043a4.013 4.013 0 0 1 3.604-2.002c2.873 0 4.766 2.27 4.766 5.778M89.639 33.796c.172 1.538 1.667 2.55 3.71 2.55 1.958 0 3.367-1.011 3.367-2.399 0-1.205-.85-1.926-2.861-2.42l-2.011-.485c-2.852-.689-4.174-2.021-4.174-4.185 0-2.679 2.334-4.519 5.647-4.519 3.28 0 5.53 1.84 5.605 4.519h-2.345c-.14-1.55-1.42-2.485-3.293-2.485-1.87 0-3.15.946-3.15 2.324 0 1.097.817 1.743 2.817 2.237l1.71.42c3.185.754 4.509 2.033 4.509 4.304 0 2.904-2.315 4.723-5.994 4.723-3.442 0-5.766-1.777-5.915-4.584h2.378zM104.183 24.125v2.678h2.153v1.84h-2.153v6.24c0 .968.432 1.42 1.378 1.42.255-.005.51-.023.764-.053v1.828a6.578 6.578 0 0 1-1.29.108c-2.292 0-3.185-.861-3.185-3.056v-6.487h-1.647v-1.84h1.645v-2.678h2.335zM115.95 32.463c0-2.443-1.12-3.884-3-3.884-1.883 0-3.002 1.453-3.002 3.884 0 2.452 1.12 3.882 3.002 3.882 1.88 0 3-1.43 3-3.882m-8.368 0c0-3.562 2.096-5.799 5.368-5.799 3.28 0 5.368 2.237 5.368 5.799 0 3.57-2.077 5.798-5.368 5.798-3.292 0-5.368-2.228-5.368-5.798M120.233 26.803h2.215v1.927h.054a2.7 2.7 0 0 1 2.722-2.045c.268-.002.535.029.797.087v2.173a3.214 3.214 0 0 0-1.044-.14 2.34 2.34 0 0 0-2.421 2.604v6.712h-2.323V26.803zM128.878 31.419h5.658a2.72 2.72 0 0 0-2.775-2.872 2.863 2.863 0 0 0-2.883 2.847v.025zm7.853 3.378c-.313 2.055-2.313 3.465-4.873 3.465-3.292 0-5.336-2.207-5.336-5.745 0-3.55 2.055-5.853 5.239-5.853 3.13 0 5.1 2.151 5.1 5.582v.797h-7.994v.14a2.947 2.947 0 0 0 3.045 3.206 2.563 2.563 0 0 0 2.614-1.593h2.205zM46.48 18.372v-6.405h-2.345v-1.054h5.846v1.054h-2.342v6.405zM52.054 10.019c.237-.08.484-.121.734-.119.74 0 1.219.393 1.219 1.014a1.35 1.35 0 0 1-.986 1.199l-.424-.548c.336-.109.574-.331.574-.554 0-.227-.223-.392-.538-.392a1.39 1.39 0 0 0-.579.109v-.71zm1.902 6.28v-.47l-1.374.087c-.775.053-1.126.317-1.126.813 0 .506.438.801 1.042.801.73.074 1.38-.457 1.455-1.186l.003-.045zm-3.618.481c0-1.012.754-1.597 2.094-1.68l1.524-.087v-.487c0-.595-.393-.93-1.152-.93-.62 0-1.05.228-1.173.625h-1.075c.114-.966 1.022-1.586 2.3-1.586 1.411 0 2.206.703 2.206 1.891v3.847h-1.069v-.792h-.089a1.893 1.893 0 0 1-1.69.884 1.702 1.702 0 0 1-1.876-1.685z"/>
        <mask id="d" fill="#fff">
            <use xlink:href="#c"/>
        </mask>
        <path fill="#FFF" d="M56.821 18.373h1.108v-5.63H56.82v5.63zm-.165-7.294a.72.72 0 1 1 .719.677.684.684 0 0 1-.718-.648v-.03zM65.513 18.372h-1.194l-2.031-5.629h1.187l1.401 4.44h.09l1.394-4.44h1.179zM72.297 10.123L71.145 8.5h1.157l.988 1.623h-.993zm-2.838 4.916h2.843a1.358 1.358 0 0 0-1.253-1.455c-.044-.004-.088-.004-.132-.004a1.44 1.44 0 0 0-1.458 1.421v.038zm3.516-3.066h-1.159l-.852-1.054h-.083l-.852 1.054H68.87l1.446-1.71h1.21l1.448 1.71zm.391 4.88a2.286 2.286 0 0 1-2.439 1.628 2.557 2.557 0 0 1-2.6-2.906 2.597 2.597 0 0 1 2.595-2.94c1.567 0 2.512 1.07 2.512 2.838v.387h-3.975v.063a1.489 1.489 0 0 0 1.5 1.612 1.35 1.35 0 0 0 1.338-.682h1.07zM79.482 11.342v1.428h1.22v.935h-1.22V16.6c0 .588.243.847.797.847.14 0 .282-.01.423-.026v.926c-.2.035-.402.054-.605.056-1.235 0-1.727-.435-1.727-1.52v-3.178h-.893v-.935h.893v-1.428h1.112zM82.17 12.743h1.068v.863h.084c.245-.614.858-1 1.52-.956.166-.002.331.014.495.046v1.096a3.137 3.137 0 0 0-.62-.066 1.317 1.317 0 0 0-1.436 1.322v3.324h-1.112v-5.629zM87.272 15.038h2.842a1.36 1.36 0 0 0-1.254-1.455c-.044-.003-.088-.003-.13-.003a1.44 1.44 0 0 0-1.458 1.458zm3.51-3.065H89.64l-.867-1.132h-.081l-.864 1.132h-1.147l1.447-1.788h1.209l1.444 1.788zm.397 4.88a2.284 2.284 0 0 1-2.439 1.628 2.555 2.555 0 0 1-2.6-2.905 2.594 2.594 0 0 1 2.596-2.941c1.566 0 2.51 1.07 2.51 2.837v.388h-3.974v.062a1.487 1.487 0 0 0 1.498 1.613 1.352 1.352 0 0 0 1.34-.683h1.07zM92.738 12.743h1.069v.894h.084a1.686 1.686 0 0 1 1.68-1.002 1.831 1.831 0 0 1 1.947 2.094v3.643h-1.11v-3.365c0-.905-.394-1.354-1.215-1.354a1.29 1.29 0 0 0-1.344 1.427v3.292h-1.111v-5.629z" mask="url(#d)"/>
    </g>
</svg>
