<svg xmlns="http://www.w3.org/2000/svg" width="24" height="24" viewBox="0 0 24 24">
    <g fill="none" fill-rule="evenodd">
        <path d="M0 0h24v24H0z"/>
        <path fill="#BDBDBD" d="M15.125 11.375h2.5V9.5h-2.5v1.875zm0 3.125h2.5v-1.875h-2.5V14.5zm0 3.125h2.5V15.75h-2.5v1.875zm-4.375-6.25h2.5V9.5h-2.5v1.875zm0 3.125h2.5v-1.875h-2.5V14.5zm0 3.125h2.5V15.75h-2.5v1.875zm-4.375 0h2.5V15.75h-2.5v1.875zm0-3.125h2.5v-1.875h-2.5V14.5zm0-3.125h2.5V9.5h-2.5v1.875zm14.375 8.958c0 .23-.187.417-.416.417H3.667a.417.417 0 0 1-.417-.417V5.541c0-.23.187-.416.417-.416h2.708v1.25a.625.625 0 1 0 1.25 0v-1.25h3.75v1.25a.625.625 0 1 0 1.25 0v-1.25h3.75v1.25a.624.624 0 1 0 1.25 0v-1.25h2.709c.23 0 .416.187.416.416v14.792zm-.416-16.458h-2.709v-1.25a.624.624 0 1 0-1.25 0v1.25h-3.75v-1.25a.625.625 0 1 0-1.25 0v1.25h-3.75v-1.25a.625.625 0 1 0-1.25 0v1.25H3.667C2.747 3.875 2 4.621 2 5.541v14.792C2 21.253 2.746 22 3.667 22h16.667c.92 0 1.666-.746 1.666-1.667V5.541c0-.92-.746-1.666-1.666-1.666z"/>
    </g>
</svg>
