<svg xmlns="http://www.w3.org/2000/svg" width="28" height="28" viewBox="0 0 28 28">
    <path fill="#FFF" fill-rule="evenodd" d="M14.193 24.164c-5.998 0-10.876-4.898-10.876-10.92 0-6.02 4.88-10.92 10.876-10.92 5.993 0 10.875 4.9 10.875 10.92 0 6.022-4.882 10.92-10.875 10.92zm0-23.164C7.47 1 2 6.493 2 13.243c0 6.752 5.47 12.244 12.193 12.244 6.721 0 12.19-5.492 12.19-12.244C26.383 6.493 20.914 1 14.193 1zm6.482 18.434l-2.272-3.617a.586.586 0 0 0-.812-.186l-1.157.985c-.565.272-1.088-.297-2.02-1.496l-1.942-3.08c-.39-.793-.698-1.6-.157-2.007l1.332-.704v-.002a.594.594 0 0 0 .182-.817v-.001l-2.271-3.62a.581.581 0 0 0-.809-.185l-1.186.935c-.7.613-2.409 3.454 1.317 9.537 3.86 6.314 7.37 6.174 8.246 5.73l1.366-.649v-.002a.592.592 0 0 0 .183-.82z"/>
</svg>
