<svg xmlns="http://www.w3.org/2000/svg" width="20" height="20" viewBox="0 0 20 20">
    <g fill="none" fill-rule="evenodd">
        <path d="M0 0h20v20H0z"/>
        <path fill="#757575" d="M10.625 3.75c-3.791 0-6.875 2.362-6.875 5.268 0 1.3.628 2.55 1.768 3.52l.232.198-.014.306c-.04.866-.17 1.603-.386 2.208.861-.315 1.654-.866 2.138-1.242l.257-.204.312.098a8.626 8.626 0 0 0 2.568.383c3.79 0 6.875-2.363 6.875-5.268 0-2.904-3.085-5.267-6.875-5.267M4.103 16.746H2.53l1.141-1.078c.43-.407.71-1.248.797-2.39C3.197 12.097 2.5 10.596 2.5 9.019 2.5 5.424 6.145 2.5 10.625 2.5s8.125 2.924 8.125 6.518c0 3.593-3.645 6.517-8.125 6.517a9.954 9.954 0 0 1-2.626-.348c-1.018.752-2.446 1.56-3.896 1.56"/>
    </g>
</svg>
