<svg xmlns="http://www.w3.org/2000/svg" width="72" height="72" viewBox="0 0 72 72">
    <g fill="none" fill-rule="evenodd">
        <path d="M0 0h72v72H0z"/>
        <path fill="#FFF" d="M53.593 44.432l1.708-8.473-2.832.936-1.083 5.206-3.997-3.54-2.832.937 6.434 5.767 1.54 4.643 2.624-.874-1.562-4.602zm-4.039 6.476L40.581 40.83l-2.54.833-1.167 13.45 2.79-.936.25-2.895 4.914-1.644 1.936 2.186 2.79-.916zm-13.2-17.823l1.749 5.288 1.457-.478-1.749-5.289 1.853-.603-.416-1.27-5.163 1.707.416 1.27 1.853-.625zM34.5 49.305c-.604-1.833-1.645-3.082-3.103-3.727-1.457-.646-3.247-.625-5.35.062l-4.143 1.374 3.914 11.764 4.018-1.333c2.249-.728 3.748-1.811 4.476-3.248.73-1.436.792-3.06.188-4.893zm-13.325-6.33c.874.437 1.811.479 2.769.167.979-.313 1.686-.896 2.124-1.77.458-.875.52-1.79.187-2.748-.312-.958-.916-1.666-1.79-2.083-.875-.437-1.812-.478-2.77-.166-.978.312-1.686.895-2.123 1.77-.438.874-.5 1.79-.188 2.748.312.958.916 1.666 1.79 2.082zm-3.415-8.474l3.06-1.02c1.708-.583 2.853-1.416 3.415-2.499.562-1.082.604-2.332.146-3.726-.458-1.395-1.25-2.353-2.373-2.853-1.125-.5-2.478-.479-4.081.042l-3.165 1.062 2.998 8.994zm11.43 3.998l2.874-.958-.416-1.291-2.874.958-.479-1.416 3.04-1-.416-1.29L26.423 35l2.165 6.537 1.457-.478-.853-2.561zm-4.56-16.261l2.978 8.973 6.621-2.207-.583-1.77-4.601 1.541-.625-1.853 4.019-1.332-.563-1.707-4.018 1.332-.625-1.853 4.477-1.478-.604-1.79-6.475 2.144zm10.224 6.558l2.123-.708.188-2.207 3.768-1.25 1.479 1.667 2.144-.708-6.87-7.704-1.937.646-.895 10.264zM42.6 16.283l2.978 8.974 5.85-1.916-.604-1.79-3.83 1.27-2.395-7.204-1.999.666zm.479 17.552l2.603-.854.853 2.582 1.458-.479-2.166-6.538-1.457.48.916 2.748-2.603.853-.916-2.727-1.457.479 2.165 6.516 1.458-.478-.854-2.582zm9.057-7.391l-4.664 1.561 2.166 6.538 4.81-1.603-.438-1.291-3.352 1.124-.459-1.353 2.936-.979-.416-1.25-2.936.98-.458-1.354 3.248-1.083-.437-1.29zm16.365 13.158l-5.476 5.476a5.089 5.089 0 0 0-1.499 3.602v7.745a5.11 5.11 0 0 1-5.101 5.101H48.68a5.089 5.089 0 0 0-3.602 1.5L39.602 68.5a5.078 5.078 0 0 1-7.204 0l-5.476-5.476a5.089 5.089 0 0 0-3.602-1.499h-7.745a5.11 5.11 0 0 1-5.101-5.1V48.68a5.089 5.089 0 0 0-1.5-3.602L3.5 39.602a5.077 5.077 0 0 1 0-7.204l5.476-5.476a5.09 5.09 0 0 0 1.499-3.602v-7.745a5.11 5.11 0 0 1 5.1-5.1h7.746a5.09 5.09 0 0 0 3.602-1.5l5.476-5.476a5.077 5.077 0 0 1 7.204 0l5.476 5.476a5.09 5.09 0 0 0 3.602 1.5h7.745a5.11 5.11 0 0 1 5.101 5.1v7.745a5.09 5.09 0 0 0 1.5 3.602l5.475 5.476a5.077 5.077 0 0 1 0 7.204zM40.123 48.66l2.956-1-2.603-2.914-.353 3.914zm-16.574-6.788a1.9 1.9 0 0 0 1.166-1.061c.23-.542.25-1.104.063-1.687a2.23 2.23 0 0 0-1.062-1.312 1.931 1.931 0 0 0-1.583-.166 1.877 1.877 0 0 0-1.165 1.083 2.35 2.35 0 0 0-.063 1.686c.187.583.541 1.02 1.062 1.312.52.291 1.041.333 1.582.145zM22.3 30.233c.334-.625.355-1.374.064-2.27-.292-.874-.77-1.478-1.416-1.79-.646-.312-1.478-.292-2.499.041l-1.124.375 1.811 5.455 1.27-.416c.937-.292 1.562-.77 1.895-1.395zm15.304-9.349l-.27 2.978 2.248-.75-1.978-2.228zm-5.726 29.357c.396 1.145.354 2.145-.083 2.957-.437.833-1.27 1.437-2.457 1.79l-1.665.562-2.374-7.14 1.458-.48c1.332-.437 2.415-.458 3.269-.041.853.416 1.478 1.207 1.852 2.352z"/>
    </g>
</svg>
