<svg xmlns="http://www.w3.org/2000/svg" width="24" height="24" viewBox="0 0 24 24">
    <g fill="none" fill-rule="evenodd" opacity=".7">
        <path d="M0 0h24v24H0z"/>
        <path fill="#FFF" d="M16.745 9.19V7.622c0-.62-.9-1.122-2.009-1.122-1.11 0-2.009.503-2.009 1.122v1.044s1.285.079 2.019.148c.814.077 2 .376 2 .376zm-5.472-.524V7.622c0-.62-.9-1.122-2.01-1.122-1.109 0-2.008.503-2.008 1.122V9.19s1.185-.299 2-.376c.733-.07 2.018-.148 2.018-.148zM2 15.896v1.792h2.088v2.468H5.88v-2.468h12.24v2.468h1.792v-2.468H22v-1.792H2zM17.966 5.792v4.474c-1.155-.299-3.15-.667-5.966-.667-2.816 0-4.811.368-5.966.667V5.792h11.932zm3.994 9.001l-2.202-3.485V4.896L18.862 4H5.138l-.896.896v6.412L2.04 14.793h19.92z"/>
    </g>
</svg>
