<svg xmlns="http://www.w3.org/2000/svg" width="17" height="17" viewBox="0 0 17 17">
    <g fill="none" fill-rule="evenodd">
        <path d="M.364.364h16v16h-16z"/>
        <path fill="#FFF" d="M14.885 9.538c0-.314-.124-.606-.34-.822.244-.266.369-.624.335-.996-.061-.663-.659-1.182-1.361-1.182h-3.223c.16-.485.415-1.374.415-2.087 0-1.132-.961-2.087-1.565-2.087-.542 0-.929.305-.946.317a.262.262 0 0 0-.097.204v1.77L6.6 7.91l-.062.032v5.592c.424.2.962.308 1.304.308h4.789c.568 0 1.065-.383 1.182-.912.06-.271.025-.545-.094-.783a1.169 1.169 0 0 0 .522-1.566c.386-.194.644-.591.644-1.043zM3.668 7.58c-.719 0-1.304.585-1.304 1.304v4.174c0 .72.585 1.305 1.304 1.305h1.565c.294 0 .564-.1.783-.264V7.58H3.668z"/>
    </g>
</svg>
