<svg xmlns="http://www.w3.org/2000/svg" width="20" height="20" viewBox="0 0 20 20">
    <g fill="none" fill-rule="evenodd">
        <path d="M0 0h20v20H0z"/>
        <path fill="#757575" d="M2.861 16.334h2.514V8.898H2.86v7.436zM6.236 9.09c.052.004.104 0 .156-.013.135-.04 3.25-.94 3.25-3.758v-2.43c.334-.053.886-.07 1.282.225.379.279.57.81.57 1.57v2.87c0 .24.191.431.43.431h3.828c.756 0 1.37.605 1.387 1.357l-.909 5.78v.013c-.117.957-.726 1.44-1.814 1.44H7.623a1.388 1.388 0 0 1-1.387-1.388V9.09zM2 8.889v7.458c0 .47.383.848.848.848h2.536a.851.851 0 0 0 .7-.365c.404.379.943.613 1.54.613h6.792c1.523 0 2.492-.8 2.666-2.192l.914-5.81C18 9.42 18 9.398 18 9.376a2.251 2.251 0 0 0-2.248-2.248h-3.397v-2.44c0-1.057-.309-1.818-.922-2.27-.97-.71-2.296-.305-2.353-.287a.43.43 0 0 0-.3.408v2.775c0 2.161-2.514 2.9-2.618 2.931a.348.348 0 0 0-.144.074.848.848 0 0 0-.63-.283h-2.54A.85.85 0 0 0 2 8.89z"/>
    </g>
</svg>
