<svg xmlns="http://www.w3.org/2000/svg" width="24" height="24" viewBox="0 0 24 24">
    <g fill="none" fill-rule="evenodd">
        <path d="M0 0h24v24H0z"/>
        <path fill="#FFF" d="M12.068 12.74a3.676 3.676 0 0 1-3.671-3.672 3.676 3.676 0 0 1 3.671-3.671 3.676 3.676 0 0 1 3.672 3.671 3.676 3.676 0 0 1-3.672 3.672m0-10.74C8.171 2 5 5.171 5 9.069c0 1.016.208 1.987.618 2.885 1.767 3.867 5.156 7.95 6.152 9.11a.393.393 0 0 0 .597 0c.996-1.16 4.384-5.242 6.152-9.11.41-.898.618-1.869.618-2.885C19.137 5.17 15.966 2 12.068 2"/>
    </g>
</svg>
