<svg xmlns="http://www.w3.org/2000/svg" xmlns:xlink="http://www.w3.org/1999/xlink" width="160" height="50" viewBox="0 0 160 50">
    <defs>
        <path id="a" d="M0 0v27.875h27.876V0z"/>
    </defs>
    <g fill="none" fill-rule="evenodd">
        <rect width="160" height="50" fill="#000" rx="5"/>
        <path fill="#A6A6A6" d="M154.074 0H5.926C2.666 0 0 2.813 0 6.25v37.5C0 47.188 2.667 50 5.926 50h148.148c3.26 0 5.926-2.813 5.926-6.25V6.25c0-3.438-2.667-6.25-5.926-6.25m0 1c2.745 0 4.978 2.355 4.978 5.25v37.5c0 2.895-2.233 5.25-4.978 5.25H5.926C3.18 49 .948 46.645.948 43.75V6.25C.948 3.355 3.181 1 5.926 1h148.148"/>
        <g transform="translate(10 11)">
            <mask id="b" fill="#fff">
                <use xlink:href="#a"/>
            </mask>
            <path fill="#FFF" d="M7.433 18.584H5.575a1.859 1.859 0 0 0-1.859 1.858V22.3c0 1.027.833 1.86 1.859 1.86h1.858a1.858 1.858 0 0 0 1.858-1.86v-1.858a1.858 1.858 0 0 0-1.858-1.858zM22.3 20.442a.93.93 0 1 0 0-1.858.93.93 0 0 0 0 1.858zm4.646-5.575a.93.93 0 0 0-.929.93V22.3H22.3a.925.925 0 0 0-.464.125.93.93 0 0 0-1.394.805v2.787h-2.787V24.16a.93.93 0 0 0-1.859 0v2.787c0 .514.417.93.93.93h4.645a.93.93 0 0 0 .93-.93V24.16h4.645a.93.93 0 0 0 .93-.93v-7.432a.93.93 0 0 0-.93-.93zm-10.22 3.717a.93.93 0 1 0 0 1.858h1.858a.928.928 0 0 0 .928-.93v-2.786h.93a.93.93 0 0 0 0-1.859h-3.716a.93.93 0 0 0 0 1.859h.929v1.858h-.93zM22.3 3.717h-1.858a1.858 1.858 0 0 0-1.858 1.858v1.858c0 1.027.831 1.86 1.858 1.86H22.3a1.859 1.859 0 0 0 1.859-1.86V5.575A1.859 1.859 0 0 0 22.3 3.717zm3.717 4.646a2.788 2.788 0 0 1-2.787 2.788h-3.718a2.787 2.787 0 0 1-2.786-2.788V4.646a2.787 2.787 0 0 1 2.786-2.788h3.718a2.788 2.788 0 0 1 2.787 2.788v3.717zM24.16 0h-5.575a3.716 3.716 0 0 0-3.716 3.717v5.575a3.716 3.716 0 0 0 3.716 3.717h5.575a3.717 3.717 0 0 0 3.717-3.717V3.717A3.717 3.717 0 0 0 24.16 0zM11.15 8.363a2.788 2.788 0 0 1-2.788 2.788H4.646a2.788 2.788 0 0 1-2.788-2.788V4.646a2.788 2.788 0 0 1 2.788-2.788h3.717a2.788 2.788 0 0 1 2.788 2.788v3.717zM9.29 0H3.716A3.717 3.717 0 0 0 0 3.717v5.575a3.717 3.717 0 0 0 3.716 3.717h5.575a3.717 3.717 0 0 0 3.718-3.717V3.717A3.717 3.717 0 0 0 9.29 0zM7.433 3.717H5.575a1.859 1.859 0 0 0-1.859 1.858v1.858c0 1.027.833 1.86 1.859 1.86h1.858a1.858 1.858 0 0 0 1.858-1.86V5.575a1.858 1.858 0 0 0-1.858-1.858zm19.513 22.3a.93.93 0 1 0 0 1.859.93.93 0 0 0 0-1.859zM11.151 23.23a2.788 2.788 0 0 1-2.788 2.788H4.646a2.788 2.788 0 0 1-2.788-2.788v-3.717a2.787 2.787 0 0 1 2.788-2.787h3.717a2.787 2.787 0 0 1 2.788 2.787v3.717zm-1.86-8.363H3.716A3.717 3.717 0 0 0 0 18.584v5.575a3.717 3.717 0 0 0 3.716 3.716h5.575a3.717 3.717 0 0 0 3.718-3.716v-5.575a3.717 3.717 0 0 0-3.718-3.717z" mask="url(#b)"/>
        </g>
        <text fill="#FFF" font-family="Roboto-Medium, Roboto" font-size="18" font-weight="400">
            <tspan x="47" y="38">Quét Qrcode</tspan>
        </text>
        <text fill="#FFF" font-family="Roboto-Regular, Roboto" font-size="12">
            <tspan x="47" y="19">Tải bằng cách</tspan>
        </text>
    </g>
</svg>
