<svg xmlns="http://www.w3.org/2000/svg" width="72" height="72" viewBox="0 0 72 72">
    <g fill="none" fill-rule="evenodd">
        <path d="M0 0h72v72H0z"/>
        <path fill="#FFF" d="M34.079 27.974a4.242 4.242 0 0 0-4.237-4.237 4.242 4.242 0 0 0-4.237 4.237 4.242 4.242 0 0 0 4.237 4.237 4.242 4.242 0 0 0 4.237-4.237zm-8.474-12.106a4.242 4.242 0 0 0 4.237 4.237 4.242 4.242 0 0 0 4.237-4.237 4.242 4.242 0 0 0-4.237-4.236 4.242 4.242 0 0 0-4.237 4.236zm10.714 4.46a7.936 7.936 0 0 1-1.24 1.407 1.842 1.842 0 0 1 0 .372c.489.438.924.934 1.292 1.48l3.249-1.624-3.3-1.634zm-1.03 13.315V54a1.21 1.21 0 0 1-2.42 0V35.236a7.81 7.81 0 0 1-1.211.392V54a1.21 1.21 0 0 1-2.421 0V35.817a7.813 7.813 0 0 1-3.632-1.218V53.36a1.815 1.815 0 1 1-3.631 0V32.244c0-.522.222-.992.575-1.323a7.855 7.855 0 0 1 2.272-9 7.855 7.855 0 0 1-2.847-6.054c0-4.338 3.53-7.868 7.868-7.868 4.339 0 7.869 3.53 7.869 7.868 0 .36-.027.714-.074 1.06l6.055 2.998 12.575-6.287a1.817 1.817 0 0 1 1.624 3.249l-9.895 4.947c.002.029.005.057.005.086 0 .045-.004.09-.007.135l9.897 4.899a1.817 1.817 0 0 1-1.624 3.248L43.7 23.983l-6.052 3.025a7.844 7.844 0 0 1-2.36 6.635zm17.553 19.718V32.245a1.816 1.816 0 1 0-3.631 0V53.36a1.816 1.816 0 0 0 3.631 0zm-12.105 0V32.245a1.816 1.816 0 1 0-3.632 0V53.36a1.816 1.816 0 0 0 3.632 0zm-21.79-22.932a1.816 1.816 0 0 0-1.815 1.816V53.36a1.816 1.816 0 0 0 3.631 0V32.246a1.816 1.816 0 0 0-1.816-1.816zm24.21 1.176V54a1.21 1.21 0 0 0 2.422 0V31.605a1.211 1.211 0 0 0-2.421 0zm14.527 0V54a1.21 1.21 0 0 0 2.421 0V31.605a1.211 1.211 0 0 0-2.42 0zm-2.42-1.21c-.67 0-1.211.542-1.211 1.21V54a1.21 1.21 0 0 0 2.42 0V31.605c0-.668-.542-1.21-1.21-1.21zm-42.37 1.21V54a1.21 1.21 0 0 0 2.422 0V31.605a1.211 1.211 0 0 0-2.421 0zm56.29-1.09a1.816 1.816 0 0 0-1.816 1.817v6.779a1.816 1.816 0 1 0 3.632 0v-6.78a1.816 1.816 0 0 0-1.816-1.815zm0 13.56a1.816 1.816 0 0 0-1.816 1.815v6.778a1.816 1.816 0 1 0 3.632 0V45.89a1.816 1.816 0 0 0-1.816-1.816zm0-23.97h-3.631a1.816 1.816 0 1 0 0 3.632h1.815v1.816a1.816 1.816 0 1 0 3.632 0V21.92a1.816 1.816 0 0 0-1.816-1.816zm-10.087 0H52.64a1.816 1.816 0 1 0 0 3.632h6.456a1.816 1.816 0 1 0 0-3.632zm-45.193 3.632h6.456a1.816 1.816 0 1 0 0-3.632h-6.456a1.816 1.816 0 1 0 0 3.632zm-6.457-3.632H3.816A1.816 1.816 0 0 0 2 21.921v3.632a1.816 1.816 0 1 0 3.632 0v-1.816h1.815a1.816 1.816 0 1 0 0-3.632zm-3.631 20.82a1.815 1.815 0 0 0 1.816-1.815v-6.778a1.816 1.816 0 1 0-3.632 0v6.778c0 1.003.813 1.816 1.816 1.816zm0 13.56a1.816 1.816 0 0 0 1.816-1.817V45.89a1.816 1.816 0 1 0-3.632 0v6.78c0 1.002.813 1.815 1.816 1.815zm3.631 6.778H5.632v-1.816a1.816 1.816 0 1 0-3.632 0v3.632c0 1.003.813 1.816 1.816 1.816h3.631a1.816 1.816 0 1 0 0-3.632zm38.737 0h-6.456a1.816 1.816 0 1 0 0 3.632h6.456a1.816 1.816 0 1 0 0-3.632zm12.912 0H52.64a1.816 1.816 0 1 0 0 3.632h6.456a1.816 1.816 0 1 0 0-3.632zm-25.824 0h-6.457a1.816 1.816 0 1 0 0 3.632h6.457a1.816 1.816 0 1 0 0-3.632zm-12.913 0h-6.456a1.816 1.816 0 1 0 0 3.632h6.456a1.816 1.816 0 1 0 0-3.632zM71 59.447v3.632a1.816 1.816 0 0 1-1.816 1.816h-3.631a1.816 1.816 0 1 1 0-3.632h1.815v-1.816a1.816 1.816 0 1 1 3.632 0z"/>
    </g>
</svg>
