<svg xmlns="http://www.w3.org/2000/svg" width="72" height="72" viewBox="0 0 72 72">
    <g fill="none" fill-rule="evenodd">
        <path d="M0 0h72v72H0z"/>
        <path fill="#FFF" d="M14.973 21.742c0-1.428.92-2.635 2.193-3.089v10.563a3.286 3.286 0 0 1-2.193-3.088v-4.386zm4.387-3.29h2.193v10.967H19.36V18.452zM35.81 4.194c7.042 0 13 5.213 14.065 12.064h-2v2.194h-2.627a6.277 6.277 0 0 1-5.235-2.803l-.642-.965-3.345 2.51a6.332 6.332 0 0 1-3.776 1.258h-1.923a8.747 8.747 0 0 0-6.581 2.99v-5.184h-2C22.81 9.407 28.77 4.194 35.81 4.194zM50.07 32.71c0 1.668-1.25 3.034-2.861 3.247a11.958 11.958 0 0 0 2.361-4.344h.5v1.097zm0-4.543v-9.715h2.194v10.967h-2.194v-1.252zm-5.084 6.98l-.853.853h-11.61v2.194h9.416l-1.23 1.229a3.269 3.269 0 0 1-2.327.964h-5.14c-.879 0-1.706-.342-2.327-.964l-4.276-4.276a9.81 9.81 0 0 1-2.891-6.98v-.941c0-3.63 2.951-6.58 6.58-6.58h1.924a8.545 8.545 0 0 0 5.094-1.698l1.55-1.163a8.464 8.464 0 0 0 6.354 2.86h2.627v7.522a9.81 9.81 0 0 1-2.891 6.98zm9.472-16.492a3.283 3.283 0 0 1 2.193 3.087v4.387c0 1.428-.92 2.634-2.193 3.089V18.655zM18.263 31.613h3.79a12.001 12.001 0 0 0 3.034 5.085l4.276 4.276a5.45 5.45 0 0 0 3.879 1.607h5.14a5.45 5.45 0 0 0 3.877-1.607l2.78-2.78h1.74a5.49 5.49 0 0 0 5.484-5.484v-1.097h1.097a5.49 5.49 0 0 0 5.484-5.484v-4.387a5.49 5.49 0 0 0-5.484-5.484h-1.278C50.998 8.187 44.052 2 35.812 2S20.623 8.187 19.54 16.258h-1.278a5.49 5.49 0 0 0-5.484 5.484v4.387a5.49 5.49 0 0 0 5.484 5.484zm20.839 34h2.193v-2.194h-2.193v2.194zm0-7.678h2.193v-2.193h-2.193v2.193zm16.014 9.871c.243-.79.437-1.854.437-3.29 0-3.701-2.411-6.156-2.515-6.26l-1.55 1.552c.018.02 1.872 1.904 1.872 4.708 0 1.82-.362 2.828-.591 3.29h-15.86V49.161h-2.194v18.645H18.859c-.238-.476-.596-1.482-.596-3.29 0-2.77 1.857-4.692 1.876-4.712l-.78-.772-.775-.775c-.103.103-2.515 2.558-2.515 6.26 0 1.435.195 2.499.438 3.29H8.591l1.99-11.952a9.854 9.854 0 0 1 6.616-7.742l4.009-1.336.062-.002v-.019l4.993-1.664 2.43 9.721 6.538-7.845h1.165l6.538 7.845 2.43-9.72 4.985 1.66-.002.028c.03.002.06.001.09.004l3.99 1.329a9.854 9.854 0 0 1 6.616 7.742l1.991 11.95h-7.916zm8.09-12.312a12.04 12.04 0 0 0-8.086-9.462l-1.126-.375a10.13 10.13 0 0 0 2.472-2.469l.575-.863-.828-.622a9.89 9.89 0 0 1-3.125-3.95l-2.012.88a12.109 12.109 0 0 0 2.944 4.1c-.692.756-1.91 1.777-3.264 1.845l-5.074-1.691v-1.403H43.49v2.06l-1.637 6.546-4.43-5.316H34.2l-4.43 5.316-1.636-6.545v-2.061H25.94v1.403l-5.07 1.69c-1.368-.04-2.578-1.083-3.27-1.842a12.131 12.131 0 0 0 3.953-8.929H19.36a9.918 9.918 0 0 1-3.95 7.897l-.829.622.575.863c.062.093.984 1.45 2.47 2.47l-1.124.374a12.04 12.04 0 0 0-8.086 9.462L6 70h59.622l-2.416-14.506z"/>
    </g>
</svg>
