<svg xmlns="http://www.w3.org/2000/svg" width="72" height="72" viewBox="0 0 72 72">
    <g fill="none" fill-rule="evenodd">
        <path d="M0 0h72v72H0z"/>
        <g fill="#FFF">
            <path d="M6.75 12.375h2.625V9.75H6.75v2.625zm28.875 5.25H43.5V15h-7.875v2.625zm0-5.25H43.5V9.75h-7.875v2.625zm-25.53 15.806l13.123-13.123 1.856 1.856L11.95 30.037l-1.856-1.856zm11.092-.056a1.313 1.313 0 1 1 0-2.625 1.313 1.313 0 0 1 0 2.625zm0-5.25a3.938 3.938 0 1 0 0 7.875 3.938 3.938 0 0 0 0-7.875zm-7.875-5.25a1.313 1.313 0 1 1 0 2.625 1.313 1.313 0 0 1 0-2.625zm0 5.25a3.938 3.938 0 1 0 0-7.875 3.938 3.938 0 0 0 0 7.875zM61.875 41.25h-42V36h42v5.25zM59.25 64.875H46.125v-21H59.25v21zm-21 0h5.25v-21h-5.25v21zm-2.625 0H22.5v-21h13.125v21zm3.61-31.5H29.39a5.355 5.355 0 0 1 4.921-2.625 5.355 5.355 0 0 1 4.922 2.625zm-20.673 0c-.724 0-1.312.588-1.312 1.312v2.625H5.437A1.313 1.313 0 0 1 4.125 36V8.437c0-.724.588-1.312 1.312-1.312h39.375c.725 0 1.313.588 1.313 1.312V28.23a8.138 8.138 0 0 0-5.25 2.848 8.374 8.374 0 0 0-6.563-2.953c-3.806 0-6.982 2.257-7.717 5.25h-8.033zm28.875-2.625a5.355 5.355 0 0 1 4.922 2.625h-9.844a5.355 5.355 0 0 1 4.922-2.625zm15.75 2.625h-8.032a7.402 7.402 0 0 0-6.405-5.145V8.437A3.938 3.938 0 0 0 44.812 4.5H5.437A3.938 3.938 0 0 0 1.5 8.437V36a3.938 3.938 0 0 0 3.937 3.937H17.25v2.625c0 .725.588 1.313 1.312 1.313h1.313v22.312c0 .725.588 1.313 1.313 1.313h39.374c.725 0 1.313-.588 1.313-1.313V43.875h1.312c.725 0 1.313-.588 1.313-1.313v-7.875c0-.725-.588-1.312-1.313-1.312zM60.244 12.058c-.182.232-.34.466-.477.7A6.293 6.293 0 0 0 57.5 10.5a6.292 6.292 0 0 0 2.267-2.258 6.296 6.296 0 0 0 2.267 2.258 6.295 6.295 0 0 0-1.79 1.558m4.53-2.424c-.593-.08-2.087-.41-3.155-1.77a4.787 4.787 0 0 1-.981-2.556.874.874 0 0 0-1.743 0 4.789 4.789 0 0 1-.98 2.556c-1.068 1.36-2.563 1.69-3.156 1.77a.874.874 0 0 0 0 1.732c.593.079 2.088.41 3.155 1.77.759.967.94 2.017.982 2.556a.874.874 0 0 0 1.742 0c.041-.54.223-1.589.981-2.556 1.068-1.361 2.563-1.691 3.156-1.77a.874.874 0 0 0 0-1.732M67.622 20.279c-.09.116-.17.233-.239.35A3.185 3.185 0 0 0 66.25 19.5a3.146 3.146 0 0 0 1.133-1.129 3.148 3.148 0 0 0 1.134 1.129c-.307.18-.62.43-.895.779m2.266-1.212c-.297-.04-1.045-.205-1.578-.885a2.393 2.393 0 0 1-.49-1.278.437.437 0 0 0-.872 0c-.02.27-.112.794-.49 1.278-.535.68-1.282.846-1.579.885a.437.437 0 0 0 0 .866c.297.04 1.044.205 1.578.885.38.484.47 1.009.49 1.278a.437.437 0 0 0 .872 0c.02-.27.112-.794.49-1.278.535-.68 1.282-.846 1.579-.885a.437.437 0 0 0 0-.866"/>
            <path d="M5.403 49.724a3.98 3.98 0 0 0-.299.437 3.933 3.933 0 0 0-1.417-1.411 3.932 3.932 0 0 0 1.417-1.411 3.935 3.935 0 0 0 1.417 1.411 3.935 3.935 0 0 0-1.118.974m2.831-1.515c-.37-.05-1.305-.256-1.972-1.107a2.992 2.992 0 0 1-.613-1.597.546.546 0 0 0-1.09 0c-.025.337-.139.993-.613 1.597-.667.851-1.601 1.057-1.972 1.107a.546.546 0 0 0 0 1.082c.371.05 1.305.256 1.972 1.107.474.604.588 1.26.614 1.597a.546.546 0 0 0 1.089 0c.026-.337.14-.993.613-1.597.667-.851 1.602-1.057 1.973-1.107a.546.546 0 0 0 0-1.082"/>
        </g>
    </g>
</svg>
