<svg xmlns="http://www.w3.org/2000/svg" width="24" height="24" viewBox="0 0 24 24">
    <g fill="none" fill-rule="evenodd" opacity=".7">
        <path d="M0 0h24v24H0z"/>
        <path fill="#FFF" d="M22.305 11.133l-.237-.667a.4.4 0 0 0-.376-.266H6.156a.4.4 0 0 0-.377.266l-.237.667a.2.2 0 0 0 .188.267h16.387a.2.2 0 0 0 .188-.267zM20.6 9.128l-.262-.673a.4.4 0 0 0-.373-.255H18.4v-1a.2.2 0 0 0-.2-.2h-.4a.2.2 0 0 0-.2.2v1h-2v-1a.2.2 0 0 0-.2-.2H15a.2.2 0 0 0-.2.2v1h-2v-1a.2.2 0 0 0-.2-.2h-.4a.2.2 0 0 0-.2.2v1h-1.66a.4.4 0 0 0-.372.255l-.262.672a.2.2 0 0 0 .187.273h10.52a.2.2 0 0 0 .187-.272zm.6 4.472a.2.2 0 0 1-.2.2h-.4a.2.2 0 0 1-.2-.2v-.4c0-.11.09-.2.2-.2h.4c.11 0 .2.09.2.2v.4zm-1.6 0a.2.2 0 0 1-.2.2H19a.2.2 0 0 1-.2-.2v-.4c0-.11.09-.2.2-.2h.4c.11 0 .2.09.2.2v.4zm-1.6 0a.2.2 0 0 1-.2.2h-.4a.2.2 0 0 1-.2-.2v-.4c0-.11.09-.2.2-.2h.4c.11 0 .2.09.2.2v.4zm-1.6 0a.2.2 0 0 1-.2.2h-.4a.2.2 0 0 1-.2-.2v-.4c0-.11.09-.2.2-.2h.4c.11 0 .2.09.2.2v.4zm-1.6 0a.2.2 0 0 1-.2.2h-.4a.2.2 0 0 1-.2-.2v-.4c0-.11.09-.2.2-.2h.4c.11 0 .2.09.2.2v.4zm-1.6 0a.2.2 0 0 1-.2.2h-.4a.2.2 0 0 1-.2-.2v-.4c0-.11.09-.2.2-.2h.4c.11 0 .2.09.2.2v.4zm-1.6 0a.2.2 0 0 1-.2.2H11a.2.2 0 0 1-.2-.2v-.4c0-.11.09-.2.2-.2h.4c.11 0 .2.09.2.2v.4zm-1.6 0a.2.2 0 0 1-.2.2h-.4a.2.2 0 0 1-.2-.2v-.4c0-.11.09-.2.2-.2h.4c.11 0 .2.09.2.2v.4zm-1.6 0a.2.2 0 0 1-.2.2h-.4a.2.2 0 0 1-.2-.2v-.4c0-.11.09-.2.2-.2h.4c.11 0 .2.09.2.2v.4zm-1.6 0a.2.2 0 0 1-.2.2h-.4a.2.2 0 0 1-.2-.2v-.4c0-.11.09-.2.2-.2h.4c.11 0 .2.09.2.2v.4zm-1.6 0a.2.2 0 0 1-.2.2h-.4a.2.2 0 0 1-.2-.2v-.4c0-.11.09-.2.2-.2H5c.11 0 .2.09.2.2v.4zm18.4-1.4H.4a.4.4 0 0 0-.323.635l3.2 4.4a.398.398 0 0 0 .323.165h18.003c.06 0 .12-.014.173-.04C23.735 16.381 24 14.406 24 12.602a.401.401 0 0 0-.4-.403z"/>
    </g>
</svg>
