<svg xmlns="http://www.w3.org/2000/svg" width="24" height="24" viewBox="0 0 24 24">
    <g fill="none" fill-rule="evenodd" opacity=".7">
        <path d="M0 0h24v24H0z"/>
        <path fill="#FFF" d="M16.17 21.8c.1.126.253.2.414.2h3.354a.529.529 0 0 0 .528-.53c-.01-4.712-.99-8.373-2.912-10.881-1.48-1.93-2.985-2.417-3.048-2.437a.528.528 0 0 0-.596.8c.01.015.949 1.425 1.679 3.656.669 2.044 1.295 5.22.48 8.744a.529.529 0 0 0 .101.448zM8.947 9.407c.251-.532.648-.949 1.168-1.217.569-.294 1.813-.26 2.775-.176-.727-.57-1.824-1.252-2.933-1.272-.719-.012-1.34.25-1.894.804a3.953 3.953 0 0 0-1.191 2.889l2.075-1.028zm1.515-.546c-.465.24-.794.65-.953 1.188-.194.659-.22 1.773.58 3.506.283-1.353.99-3.546 2.709-4.789-.4-.033-.813-.055-1.184-.055-.51 0-.942.041-1.152.15zm4.562-4.357c.16-.142.343-.26.539-.353l1.04-2.15a3.952 3.952 0 0 0-2.89 1.19c-.554.555-.817 1.174-.804 1.895.016.886.455 1.765.922 2.453.22-1.028.627-2.536 1.193-3.035zm-.447 3.17c1.543-.927 2.953-.824 3.92-.535.471.14.876.335 1.197.522-.529-1.992-1.55-2.654-2.16-2.874a2.298 2.298 0 0 0-.78-.14c-.514 0-.958.182-1.23.423-.34.3-.706 1.505-.947 2.604zM3.529 22h11.027a.529.529 0 0 0 .529-.529 6.05 6.05 0 0 0-6.043-6.042A6.05 6.05 0 0 0 3 21.47c0 .292.237.529.529.529z"/>
    </g>
</svg>
