<svg xmlns="http://www.w3.org/2000/svg" width="24" height="24" viewBox="0 0 24 24">
    <g fill="none" fill-rule="evenodd">
        <rect width="24" height="24" fill="#000" fill-opacity=".75" rx="12"/>
        <path fill="#FFF" d="M17.054 15.315a2.34 2.34 0 0 0-1.575.619l-5.73-3.335c.04-.185.073-.37.073-.563a2.63 2.63 0 0 0-.073-.562l5.666-3.303a2.4 2.4 0 0 0 1.64.65 2.41 2.41 0 1 0-2.412-2.41c0 .193.033.378.073.562L9.05 10.276a2.4 2.4 0 0 0-1.64-.65 2.41 2.41 0 1 0 0 4.821 2.4 2.4 0 0 0 1.64-.65l5.722 3.334c-.04.169-.064.345-.064.53A2.342 2.342 0 0 0 17.054 20a2.342 2.342 0 1 0 0-4.685"/>
    </g>
</svg>
