<svg xmlns="http://www.w3.org/2000/svg" width="120" height="120" viewBox="0 0 120 120">
    <path fill="#FFF" fill-rule="evenodd" d="M54.858 103.764H32.874c-9.62 0-17.445-7.967-17.445-17.762V34.25c0-9.794 7.826-17.76 17.445-17.76H83.7c9.619 0 17.445 7.966 17.445 17.76v20.64c0 .963.768 1.745 1.714 1.745s1.714-.782 1.714-1.745V34.25C104.573 22.53 95.21 13 83.7 13H32.874C21.364 13 12 22.532 12 34.25V86c0 11.72 9.364 21.253 20.874 21.253h21.984c.946 0 1.714-.779 1.714-1.746 0-.965-.768-1.743-1.714-1.743zm-9.996-27.317L34.15 89.167l-6.55-5.003a1.693 1.693 0 0 0-2.4.349 1.761 1.761 0 0 0 .342 2.44l7.836 5.987a1.694 1.694 0 0 0 2.331-.264l11.756-13.961a1.767 1.767 0 0 0-.185-2.46 1.697 1.697 0 0 0-2.42.192zm2.419-26.372a1.689 1.689 0 0 0-2.417.19L34.152 62.986 27.6 57.982a1.696 1.696 0 0 0-2.4.35 1.765 1.765 0 0 0 .343 2.443l7.836 5.985c.309.236.669.347 1.029.347.485 0 .965-.206 1.303-.61l11.755-13.964c.615-.73.533-1.83-.185-2.458zm0-24.436a1.689 1.689 0 0 0-2.417.19L34.152 38.55 27.6 33.545a1.696 1.696 0 0 0-2.4.349 1.765 1.765 0 0 0 .343 2.443l7.836 5.984c.309.237.669.35 1.029.35.485 0 .965-.209 1.303-.612l11.755-13.964c.615-.73.533-1.829-.185-2.457zm43.578 34.488c0-.965-.768-1.745-1.715-1.745H58.287c-.947 0-1.715.78-1.715 1.745 0 .966.768 1.746 1.715 1.746h30.857c.947 0 1.715-.782 1.715-1.746zM58.287 33.945c-.947 0-1.715.78-1.715 1.746 0 .965.768 1.745 1.715 1.745h30.857c.947 0 1.715-.78 1.715-1.745 0-.965-.768-1.746-1.715-1.746H58.287zm45.79 39.327l-4.866 4.956-7.274-7.405 4.867-4.955a1.671 1.671 0 0 1 2.39-.002l4.886 4.977a1.74 1.74 0 0 1-.002 2.43zm-33.67 21.256l5.52 5.623-7.591 2.108 2.07-7.73zm1.548-3.36l17.56-17.877 7.274 7.405-17.56 17.878-7.274-7.406zm34.547-22.795l-4.886-4.976a5.06 5.06 0 0 0-7.236 0L67.997 90.263l-3.637 13.576-.89.906a1.767 1.767 0 0 0-.01 2.454l-.008.033.032-.009a1.69 1.69 0 0 0 1.199.505c.439 0 .878-.171 1.212-.512l.891-.91 13.334-3.701 26.384-26.865c1.995-2.031 1.995-5.335-.002-7.367z"/>
</svg>
