<svg xmlns="http://www.w3.org/2000/svg" width="24" height="24" viewBox="0 0 24 24">
    <g fill="none" fill-rule="evenodd">
        <path d="M0 0h24v24H0z"/>
        <path fill="#00BF8F" d="M18.14 3h-9c-.707 0-1.285.58-1.285 1.285V5.57h1.286V4.285h9v11.572h-1.286v1.286h1.286c.707 0 1.285-.58 1.285-1.286V4.285A1.287 1.287 0 0 0 18.14 3zM5.286 19.715h9V8.143h-9v11.572zm9-12.858h-9C4.577 6.857 4 7.437 4 8.143v11.572C4 20.423 4.58 21 5.285 21h9c.708 0 1.285-.58 1.285-1.285V8.143a1.29 1.29 0 0 0-1.285-1.286z"/>
    </g>
</svg>
