<svg xmlns="http://www.w3.org/2000/svg" xmlns:xlink="http://www.w3.org/1999/xlink" width="172" height="172" viewBox="0 0 172 172">
    <defs>
        <circle id="a" cx="86" cy="86" r="86"/>
        <path id="c" d="M0 .09h59.925V10H0z"/>
        <path id="e" d="M0 0h59.925v9.91H0z"/>
        <path id="g" d="M0 96h96V0H0z"/>
    </defs>
    <g fill="none" fill-rule="evenodd">
        <mask id="b" fill="#fff">
            <use xlink:href="#a"/>
        </mask>
        <use fill="#00BF8F" fill-opacity=".15" xlink:href="#a"/>
        <g mask="url(#b)">
            <g transform="translate(38 38)">
                <g transform="translate(0 86)">
                    <mask id="d" fill="#fff">
                        <use xlink:href="#c"/>
                    </mask>
                    <path fill="#4A4A4A" d="M0 3.388C0 7.045 2.978 10 6.662 10h46.601c3.684 0 6.662-2.955 6.662-6.612V.09H0v3.298z" mask="url(#d)"/>
                </g>
                <mask id="f" fill="#fff">
                    <use xlink:href="#e"/>
                </mask>
                <path fill="#4A4A4A" d="M59.925 6.612C59.925 2.955 56.947 0 53.263 0H6.662C2.978 0 0 2.955 0 6.612V9.91h59.925V6.612z" mask="url(#f)"/>
                <path fill="#00BF8F" d="M46 23v16.984c-.015-3.759-2.984-6.781-6.608-6.75-2.984.015-5.568 2.101-6.325 5.078A5.918 5.918 0 0 0 32.86 40H23V26.406C23 24.519 24.47 23 26.282 23H46zM46 40v33H26.282A3.29 3.29 0 0 1 23 69.704V40h9.86c0 .552.073 1.104.207 1.64.92 3.534 4.514 5.637 8.018 4.713A6.593 6.593 0 0 0 46 40M59.328 40c0 .552-.075 1.104-.21 1.64-.935 3.534-4.579 5.637-8.133 4.713-2.922-.761-4.97-3.355-4.985-6.353v33h46.671C94.51 73 96 71.524 96 69.704V40H59.328zm25 26.41c-1.837 0-3.328-1.478-3.328-3.297 0-1.819 1.491-3.295 3.328-3.295 1.838 0 3.329 1.476 3.329 3.295 0 1.805-1.491 3.28-3.329 3.296zm-10-13.213c-1.837 0-3.328-1.476-3.328-3.295 0-1.82 1.49-3.296 3.329-3.296 1.837 0 3.327 1.476 3.327 3.296 0 1.819-1.49 3.295-3.327 3.295zM96 26.394V40H59.328c0-.568-.075-1.136-.21-1.69-.935-3.639-4.579-5.804-8.133-4.852-2.922.783-4.97 3.456-4.985 6.542V23h46.671C94.51 23 96 24.52 96 26.394"/>
                <path fill="#FFC67B" d="M23 70"/>
                <path fill="#00BF8F" d="M78 49.5a3.5 3.5 0 1 1-7 0 3.5 3.5 0 0 1 7 0M88 63.5a3.5 3.5 0 1 1-7 0 3.5 3.5 0 0 1 7 0M46 39.5a6.5 6.5 0 1 1-13 0 6.5 6.5 0 0 1 13 0M59 39.5a6.5 6.5 0 1 1-13 0 6.5 6.5 0 0 1 13 0"/>
                <mask id="h" fill="#fff">
                    <use xlink:href="#g"/>
                </mask>
                <path fill="#FFD195" d="M30 86h30V73H30zM46.663 23H60V10H30v13z" mask="url(#h)"/>
                <path fill="#FFC67B" d="M23.343 69.477V26.523c0-1.822 1.491-3.299 3.33-3.299H30V10H0v76h30V72.776h-3.328c-1.838 0-3.329-1.477-3.329-3.299" mask="url(#h)"/>
                <path fill="#F1F2F2" d="M34.371 92H24.63C23.734 92 23 91.324 23 90.5s.734-1.5 1.629-1.5h9.742c.895 0 1.629.676 1.629 1.5s-.719 1.5-1.629 1.5M6.629 28A1.634 1.634 0 0 1 5 26.372v-9.744C5 15.734 5.734 15 6.629 15h9.742c.895 0 1.629.734 1.629 1.628 0 .896-.734 1.63-1.629 1.63H8.243v8.114c0 .894-.72 1.628-1.614 1.628M16.371 81H6.63A1.634 1.634 0 0 1 5 79.372v-9.744C5 68.734 5.734 68 6.629 68c.894 0 1.628.734 1.628 1.628v8.115h8.114c.895 0 1.629.733 1.629 1.629 0 .894-.734 1.628-1.629 1.628M75 48.328c-.919 0-1.672.753-1.672 1.672 0 .919.753 1.672 1.672 1.672.919 0 1.672-.753 1.672-1.672 0-.919-.753-1.672-1.672-1.672M75 55c-2.756 0-5-2.244-5-5s2.244-5 5-5 5 2.244 5 5-2.244 5-5 5M84 61.344c-.919 0-1.672.753-1.672 1.671 0 .919.753 1.672 1.672 1.672.919 0 1.672-.753 1.672-1.672 0-.918-.753-1.671-1.672-1.671M84 68c-2.756 0-5-2.244-5-5s2.244-5 5-5 5 2.244 5 5c0 2.771-2.23 5-5 5M96 38v3H59.631c-.074 0-.15 0-.209-.013-.91-.123-1.538-.883-1.404-1.697.104-.666.672-1.182 1.404-1.277.075-.013.15-.013.21-.013H96zM39.5 34.381a5.11 5.11 0 0 0-5.103 5.104 5.11 5.11 0 0 0 5.103 5.103 5.11 5.11 0 0 0 5.103-5.103A5.11 5.11 0 0 0 39.5 34.38M39.5 48a8.499 8.499 0 0 1-8.5-8.5c0-4.688 3.812-8.5 8.5-8.5 4.688 0 8.5 3.812 8.5 8.5 0 4.688-3.812 8.5-8.5 8.5" mask="url(#h)"/>
                <path fill="#F1F2F2" d="M53.5 34.381a5.11 5.11 0 0 0-5.103 5.104 5.11 5.11 0 0 0 5.103 5.103 5.11 5.11 0 0 0 5.103-5.103A5.11 5.11 0 0 0 53.5 34.38M53.5 48a8.499 8.499 0 0 1-8.5-8.5c0-4.688 3.812-8.5 8.5-8.5 4.688 0 8.5 3.812 8.5 8.5 0 4.688-3.796 8.5-8.5 8.5" mask="url(#h)"/>
                <path fill="#F1F2F2" d="M45 73h3V23h-3zM35 39.493c0 .76-.635 1.384-1.488 1.493-.078.014-.155.014-.217.014H23v-3h10.295c.077 0 .155 0 .217.014.853.08 1.488.72 1.488 1.48M69.659 67A1.665 1.665 0 0 1 68 65.34c0-.433.18-.851.478-1.165L87.193 45.46a1.67 1.67 0 0 1 2.347.045 1.67 1.67 0 0 1 0 2.302L70.825 66.522A1.642 1.642 0 0 1 69.66 67M39.371 6H29.63C28.734 6 28 5.324 28 4.5S28.734 3 29.629 3h9.742C40.266 3 41 3.676 41 4.5S40.266 6 39.371 6M23.25 6h-3.5C18.788 6 18 5.324 18 4.5S18.788 3 19.75 3h3.5c.962 0 1.75.676 1.75 1.5S24.212 6 23.25 6" mask="url(#h)"/>
            </g>
        </g>
    </g>
</svg>
