<svg xmlns="http://www.w3.org/2000/svg" width="30" height="33" viewBox="0 0 30 33">
    <g fill="#FFF" fill-rule="evenodd">
        <path d="M31 17.786c-2.223-3.428-4.977-6.499-8.463-8.686l3.388-.547-.02-.835.469.762 3.377-.547s-5.053-3.168-7.385.792L23.59 4.2l-1.055-.49 1.2-.05.436-1.609-.885-.054 1.11-.778.33-1.219s-5.817 2.766-3.014 8.277C17 2.85 12.1 5.484 12.1 5.484l2.442.882 1.176-.902-.769 1.049 1.934.697.613-.764-.175.757.576-.24-.298.505 4.431 1.6-.009.006C12.556 6.87 12 14.414 12 14.414l2.745-1.415.138-1.293.258 1.09 3.262-1.683.231-1 .26.747 2.886-1.487c-5.286 5.681-1.936 9.772-1.936 9.772l.678-2.94-.86-.623.955.212.44-1.908-.566-.444.447.099-.531-.612.818.234.88-3.808C25.932 12.952 28.959 17.833 31 23v-5.214zM6.19 32.382c-.717-2.868-.99-5.805-.446-8.634L3.82 25.1l-.426-.446.17.626-1.919 1.348s.789-4.1 3.987-3.16l-2.957-1.772.253-.767-.606.555-1.052-.63.4-.457-.944.13-.796-.477s4.26-1.368 5.784 2.868c-.556-5.117 3.191-6.11 3.191-6.11l-.721 1.642-1.04.098.92.176-.571 1.3-.696-.103.48.312-.404.153.408.12-1.308 2.98c.003-.002.005-.002.008-.002 3.428-5.73 7.639-2.057 7.639-2.057l-2.068.588-.742-.609.445.694-2.458.7-.634-.41.264.515-2.173.619c5.527.411 6.044 4.17 6.044 4.17l-1.865-1.208.09-.742-.351.573-1.21-.784.042-.506-.165.268-.062-.577-.273.518-2.417-1.565c.028 3.732 1.115 7.748 2.828 11.436L6.19 32.382z"/>
    </g>
</svg>
