<svg xmlns="http://www.w3.org/2000/svg" width="87" height="60" viewBox="0 0 87 60">
    <g fill="none" fill-rule="evenodd">
        <path fill="#FFF" d="M49.116 25.271l.43-.105a.221.221 0 0 0-.106-.429l-.428.105a.221.221 0 0 0 .104.43zm2.574-.656l.428-.116a.22.22 0 1 0-.116-.426l-.427.115a.221.221 0 0 0 .115.427zm2.558-.719l.425-.126a.221.221 0 1 0-.126-.423l-.423.125a.221.221 0 0 0 .124.424zm5.061-1.62l.419-.146a.22.22 0 1 0-.147-.417l-.417.145a.221.221 0 0 0 .145.418zm-2.52.84l.42-.135a.22.22 0 1 0-.135-.42l-.42.134a.222.222 0 0 0-.144.278c.038.117.163.18.278.144zm-10.262 2.75l.432-.094a.221.221 0 1 0-.096-.432l-.43.094a.22.22 0 0 0-.17.263c.026.12.14.196.264.17zm-2.17.449a.221.221 0 0 0-.085-.434l-.433.084a.221.221 0 0 0-.175.26c.023.12.142.196.259.174l.434-.084zm-10.511 1.547a.22.22 0 1 0-.043-.44l-.44.043a.221.221 0 1 0 .042.44l.441-.043zm-2.647.229a.222.222 0 0 0 .204-.237.222.222 0 0 0-.237-.204l-.44.032a.22.22 0 0 0-.205.236.228.228 0 0 0 .236.205l.442-.032zm7.92-.877a.222.222 0 0 0-.063-.437l-.437.063a.222.222 0 0 0 .063.438l.438-.064zm-2.632.355a.22.22 0 1 0-.053-.438l-.439.053a.22.22 0 1 0 .053.439l.439-.054zm5.257-.773a.222.222 0 0 0-.075-.436l-.435.074a.221.221 0 0 0 .074.436l.436-.074zm18.474 23.098a.221.221 0 0 0-.283-.34l-.34.286a.222.222 0 0 0-.026.312l.005.003h.333l.311-.26zM84.16 39.722a.22.22 0 0 0-.024-.44h-.024l-.441.051a.221.221 0 0 0-.193.246.227.227 0 0 0 .245.194l.437-.051zm-5.629.983l.429-.1a.222.222 0 0 0-.1-.432l-.432.102a.221.221 0 0 0 .103.43zm-2.548.689c.14-.043.281-.084.422-.125a.221.221 0 1 0-.123-.425l-.426.127a.221.221 0 1 0 .127.423zm5.564-1.305a.221.221 0 0 0-.073-.436l-.438.076a.221.221 0 0 0-.179.257c.022.12.144.2.257.178.144-.026.289-.051.433-.075zM62.145 20.79a.223.223 0 0 0-.079.015l-.412.155a.22.22 0 1 0 .155.414l.414-.156a.221.221 0 0 0-.078-.428zM0 11.987l.145.088c.104.062.24.029.304-.076a.222.222 0 0 0-.076-.303L0 11.472v.515zm86.779 27.077h-.012c-.148.008-.295.016-.443.026a.22.22 0 1 0 .027.44l.44-.025a.221.221 0 0 0-.012-.441zm-59.099.334a.22.22 0 1 0-.418.14c.046.139.09.277.133.415a.22.22 0 0 0 .422-.13c-.043-.141-.089-.284-.137-.425zm34.351 8.512l-.356.266a.221.221 0 1 0 .267.352l.352-.263a.221.221 0 0 0-.263-.355zm2.063-.909c.121-.081.243-.162.367-.242a.221.221 0 0 0-.242-.37c-.124.081-.248.163-.37.245a.221.221 0 0 0 .245.367zm6.937-3.79l.405-.173a.22.22 0 1 0-.173-.408l-.408.175a.221.221 0 0 0 .176.406zm2.45-.981l.414-.15a.22.22 0 0 0-.149-.416l-.417.15a.221.221 0 0 0 .152.416zm-4.835 2.107c.13-.067.261-.133.392-.198a.221.221 0 0 0-.195-.396l-.398.2a.22.22 0 0 0-.096.297.222.222 0 0 0 .297.097zm-2.316 1.265l.38-.22a.22.22 0 1 0-.218-.384l-.385.223a.22.22 0 0 0 .223.381zm-39.138 4.281a.22.22 0 1 0-.399-.19c-.062.13-.127.26-.193.39a.208.208 0 0 0-.021.072h.478c.045-.09.092-.18.135-.272zM11.23 19.696a.22.22 0 0 0-.03-.311l-.341-.282a.22.22 0 0 0-.28.341l.34.28a.22.22 0 0 0 .31-.028zm-1.25 8.252h.003a.221.221 0 0 0 .003-.442l-.443-.005H9.54a.221.221 0 0 0-.002.442l.441.005zm4.884-5.35a.22.22 0 0 0-.312.012.221.221 0 0 0 .012.313l.323.3a.22.22 0 1 0 .301-.322l-.324-.302zm-.022 5.087a.22.22 0 0 0-.011.441l.441.023a.215.215 0 0 0 .232-.21.22.22 0 0 0-.21-.231l-.441-.023h-.011zm12.84 19.56c-.035.14-.073.28-.114.42a.22.22 0 1 0 .425.123c.042-.144.081-.289.118-.434a.221.221 0 0 0-.428-.109zm-14.441-25.82a.22.22 0 0 0-.02-.312l-.333-.292a.22.22 0 0 0-.312.02.222.222 0 0 0 .021.313l.332.29a.22.22 0 0 0 .312-.02zm-1.048 6.139a.221.221 0 0 0-.009.442l.441.018c.126.015.225-.09.23-.212a.221.221 0 0 0-.212-.23l-.442-.018h-.008zM2.39 13.474a.221.221 0 0 0 .239-.372l-.373-.24a.221.221 0 0 0-.238.373l.372.238zm-.982 14.922c.023.12.142.2.26.175.142-.028.286-.055.43-.08a.22.22 0 1 0-.079-.436l-.437.082a.221.221 0 0 0-.174.26zM4.59 14.94a.22.22 0 1 0 .25-.363l-.365-.25a.22.22 0 0 0-.307.058.221.221 0 0 0 .058.307l.364.248zm2.06.914a.221.221 0 0 0-.259.358l.356.26a.221.221 0 0 0 .261-.356l-.358-.262zm-2.625 12.13a.223.223 0 0 0 .244.196c.145-.016.29-.03.436-.044a.221.221 0 0 0-.042-.44c-.147.014-.295.029-.442.045a.221.221 0 0 0-.196.243zm2.643-.21a.22.22 0 0 0 .23.213l.44-.017a.221.221 0 0 0-.007-.442h-.007l-.444.017a.221.221 0 0 0-.212.23zm2.5-9.744a.221.221 0 0 0-.04-.31l-.35-.273a.22.22 0 0 0-.31.04.22.22 0 0 0 .04.31l.349.27a.22.22 0 0 0 .31-.037zm16.723 10.33a.221.221 0 0 0-.007-.443h-.005l-.441.011a.221.221 0 0 0-.217.226c.003.122.111.207.226.216l.444-.01zm.85 9.26a.221.221 0 0 0 .107-.294 27.818 27.818 0 0 0-.191-.401.222.222 0 0 0-.398.194c.065.131.127.263.189.394a.222.222 0 0 0 .294.107zm2.014-9.594a.22.22 0 0 0-.22-.21h-.011l-.442.022a.221.221 0 0 0-.21.23c.006.123.11.222.231.211l.442-.021a.221.221 0 0 0 .21-.232zm-.524 17.317a.227.227 0 0 0 .236-.205c.011-.15.018-.3.025-.449a.22.22 0 0 0-.213-.229h-.008a.221.221 0 0 0-.221.213c-.006.144-.013.289-.024.434a.221.221 0 0 0 .205.236zM17.102 25.06a.22.22 0 0 0-.001-.313l-.315-.311a.22.22 0 0 0-.312.002.22.22 0 0 0 .002.312l.313.31a.221.221 0 0 0 .313 0zM28.39 42.447a15.15 15.15 0 0 0-.064-.445.22.22 0 0 0-.436.07c.023.143.043.287.061.43a.223.223 0 0 0 .248.192.22.22 0 0 0 .19-.247zm-3.34-7.928a.22.22 0 0 0-.07.304l.23.374a.221.221 0 0 0 .378-.228 24.252 24.252 0 0 0-.233-.38.22.22 0 0 0-.304-.07zm-4.247-6.365a.221.221 0 0 0-.216-.227l-.441-.01h-.006a.221.221 0 0 0-.054.435.221.221 0 0 0 .044.224l.294.328c.08.092.221.1.311.018a.22.22 0 0 0 .018-.312l-.216-.242.04.001c.132-.008.224-.094.226-.215zm-1.855-1.19a.221.221 0 0 0 .01-.313l-.307-.321a.222.222 0 0 0-.312-.007.221.221 0 0 0-.007.312l.304.32a.22.22 0 0 0 .312.008zm-1.026 1.315c.138.01.225-.089.23-.21a.221.221 0 0 0-.21-.231l-.441-.02h-.011a.221.221 0 0 0-.01.44l.442.021zm4.533 2.664a.221.221 0 0 0 .031-.312l-.284-.343a.22.22 0 0 0-.31-.028.22.22 0 0 0-.029.311l.281.34a.22.22 0 0 0 .311.032zm.779-2.99l-.23.001h-.212a.221.221 0 0 0-.001.442h.443a.22.22 0 0 0 0-.442zm.521 5.05a.22.22 0 1 0 .358-.26l-.262-.359a.22.22 0 0 0-.309-.047.221.221 0 0 0-.046.31l.259.355zm56.973-19.305c.34.78-1.039 2.318-2.708 2.833-.415.128-1.077.344-1.881.608l-.793 3.983c.746-.426.961-.295 1.173.192.267.612.12.844-1.45 1.197l-.643 3.226c-.115.566-.832.93-.889.8-.048-.109-.246-6.447-.307-8.445-1.796.583-3.687 1.182-5.03 1.552-.106.515-.32 1.57-.404 2.1-.103.647-.748.99-.794.885-.037-.086-.084-2.003-.1-2.668-.322.06-.519.07-.544.01-.026-.059.114-.197.378-.393-.478-.463-1.852-1.8-1.89-1.887-.045-.104.645-.344 1.189.02.447.299 1.365.86 1.814 1.132 1.185-.734 2.91-1.713 4.56-2.634-1.425-1.403-5.938-5.857-5.986-5.967-.057-.13.699-.408 1.191-.107l2.803 1.72c1.326-.91 1.597-.86 1.864-.249.213.487.162.733-.657.991l3.46 2.126c.74-.41 1.35-.749 1.725-.966 1.512-.874 3.578-.84 3.919-.06z"/>
        <path fill="#F5F5F5" d="M38 66.94c-1.156 0-2.093-.922-2.093-2.062 0-1.14.937-2.06 2.093-2.06s2.093.92 2.093 2.06c0 1.14-.937 2.062-2.093 2.062m-4.42-55.97h8.84c.28 0 .506.223.506.5a.502.502 0 0 1-.507.498h-8.838a.502.502 0 0 1-.507-.498c0-.277.227-.5.507-.5M51.814 8H24.186C21.884 8 20 9.853 20 12.12v52.758C20 67.146 21.884 69 24.186 69h27.628C54.116 69 56 67.15 56 64.88V12.12C56 9.853 54.116 8 51.814 8"/>
        <path fill="#FFF" d="M53 15v47H23V15"/>
        <path fill="#CCC" d="M38 34.48c-2.25 0-4.23-1.17-5.4-2.88 0-1.8 3.6-2.79 5.4-2.79 1.8 0 5.4.99 5.4 2.79-1.17 1.71-3.15 2.88-5.4 2.88m0-12.78c1.53 0 2.7 1.17 2.7 2.7 0 1.53-1.17 2.7-2.7 2.7-1.53 0-2.7-1.17-2.7-2.7 0-1.53 1.17-2.7 2.7-2.7m0-2.7c-4.95 0-9 4.05-9 9s4.05 9 9 9 9-4.05 9-9-4.05-9-9-9"/>
        <path fill="#E0E0E0" d="M28 41h20v2H28zM28 45h11v2H28z"/>
    </g>
</svg>
