<svg xmlns="http://www.w3.org/2000/svg" width="40" height="40" viewBox="0 0 40 40">
    <g fill="none" fill-rule="evenodd">
        <rect width="40" height="40" fill="#1ABC9C" rx="20"/>
        <path fill="#FFF" d="M24.584 26.045c-.366-.19-.584-.43-.584-.645 0-.214.218-.455.584-.645a.4.4 0 1 0-.368-.71c-.655.34-1.016.82-1.016 1.355s.36 1.016 1.016 1.355c.366.19.584.43.584.645 0 .215-.218.455-.584.645a.4.4 0 1 0 .368.71c.655-.34 1.016-.82 1.016-1.355 0-.534-.36-1.015-1.016-1.355m-8.8 0c-.366-.19-.584-.43-.584-.645 0-.214.218-.455.584-.645a.4.4 0 1 0-.368-.71c-.655.34-1.016.82-1.016 1.355s.36 1.016 1.016 1.355c.366.19.584.43.584.645 0 .215-.218.455-.584.645a.4.4 0 1 0 .368.71c.655-.34 1.016-.82 1.016-1.355 0-.534-.36-1.015-1.016-1.355m4.4-.8c-.366-.19-.584-.43-.584-.645 0-.214.218-.455.584-.645a.4.4 0 1 0-.368-.71c-.655.34-1.016.82-1.016 1.355s.36 1.016 1.016 1.355c.366.19.584.43.584.645 0 .215-.218.455-.584.645a.4.4 0 1 0 .368.71c.655-.34 1.016-.82 1.016-1.355 0-.534-.36-1.015-1.016-1.355M30 19.2H10a.4.4 0 1 1 0-.8h20a.4.4 0 1 1 0 .8m0 1.6H10a.4.4 0 1 1 0-.8h20a.4.4 0 1 1 0 .8m-11.6-6h3.2a.4.4 0 1 1 0 .8h-3.2a.4.4 0 1 1 0-.8M30.8 12H9.2c-.662 0-1.2.538-1.2 1.2v8c0 .662.538 1.2 1.2 1.2h21.6c.662 0 1.2-.538 1.2-1.2v-8c0-.662-.538-1.2-1.2-1.2"/>
    </g>
</svg>
