<svg xmlns="http://www.w3.org/2000/svg" width="40" height="40" viewBox="0 0 40 40">
    <g fill="none" fill-rule="evenodd">
        <rect width="40" height="40" fill="#1ABC9C" rx="20"/>
        <g fill="#FFF">
            <path d="M18.077 26.156c-4.453 0-8.062-3.612-8.062-8.07 0-4.456 3.609-8.07 8.062-8.07 4.451 0 8.061 3.614 8.061 8.07 0 4.458-3.61 8.07-8.061 8.07zM32 30.574l-6.112-6.118a10.049 10.049 0 0 0 2.265-6.37C28.153 12.517 23.643 8 18.077 8 12.512 8 8 12.516 8 18.087c0 5.57 4.512 10.087 10.077 10.087 2.425 0 4.65-.859 6.39-2.289L30.573 32 32 30.574z"/>
            <path d="M20 16.667h1V16h-1v.667zm0-1.834h1v-.666h-1v.666zm0 3.667h1v-.667h-1v.667zm-5 0h1v-.667h-1v.667zm0-1.833h1V16h-1v.667zm0-1.834h1v-.666h-1v.666zm2.5 1.834h1V16h-1v.667zm0 1.833h1v-.667h-1v.667zm0-3.667h1v-.666h-1v.666zm5.167 7.834h-9.334v-.334h9.334v.334zm-8-5c0-.093.074-.167.166-.167h1.334c.092 0 .166.075.166.167v1a.167.167 0 0 1-.166.166h-1.334a.167.167 0 0 1-.166-.166v-1zm0-1.834c0-.092.074-.166.166-.166h1.334c.092 0 .166.074.166.166v1a.167.167 0 0 1-.166.167h-1.334a.167.167 0 0 1-.166-.167v-1zm0-1.833c0-.092.074-.167.166-.167h1.334c.092 0 .166.075.166.167v1a.167.167 0 0 1-.166.167h-1.334a.167.167 0 0 1-.166-.167v-1zm1.833 6.167c0-.092.075-.167.167-.167h2.666c.093 0 .167.075.167.167V22h-.333v-1.667h-1V22h-.334v-1.667h-1V22H16.5v-1.833zm.5-.834h2a.167.167 0 1 1 0 .334h-2a.167.167 0 1 1 0-.334zm.167-1.666c0-.093.074-.167.166-.167h1.334c.092 0 .166.075.166.167v1a.167.167 0 0 1-.166.166h-1.334a.167.167 0 0 1-.166-.166v-1zm0-1.834c0-.092.074-.166.166-.166h1.334c.092 0 .166.074.166.166v1a.167.167 0 0 1-.166.167h-1.334a.167.167 0 0 1-.166-.167v-1zm0-1.833c0-.092.074-.167.166-.167h1.334c.092 0 .166.075.166.167v1a.167.167 0 0 1-.166.167h-1.334a.167.167 0 0 1-.166-.167v-1zm2.5 3.667c0-.093.074-.167.166-.167h1.334c.092 0 .166.075.166.167v1a.167.167 0 0 1-.166.166h-1.334a.167.167 0 0 1-.166-.166v-1zm0-1.834c0-.092.074-.166.166-.166h1.334c.092 0 .166.074.166.166v1a.167.167 0 0 1-.166.167h-1.334a.167.167 0 0 1-.166-.167v-1zm0-1.833c0-.092.074-.167.166-.167h1.334c.092 0 .166.075.166.167v1a.167.167 0 0 1-.166.167h-1.334a.167.167 0 0 1-.166-.167v-1zm3.166 8h-.5v-8.833a.167.167 0 0 0-.166-.167h-8.334a.167.167 0 0 0-.166.167V22h-.5a.167.167 0 0 0-.167.167v.666c0 .093.075.167.167.167h9.666a.167.167 0 0 0 .167-.167v-.666a.166.166 0 0 0-.167-.167z"/>
        </g>
    </g>
</svg>
