<svg xmlns="http://www.w3.org/2000/svg" width="40" height="40" viewBox="0 0 40 40">
    <g fill="none" fill-rule="evenodd">
        <rect width="40" height="40" fill="#1ABC9C" rx="20"/>
        <path fill="#FFF" d="M27.85 9h-2.682a.216.216 0 0 0-.216.216v1.791c.372-.212.926-.347 1.546-.347.632 0 1.196.14 1.568.36V9.216A.216.216 0 0 0 27.85 9zm-15.499.58a1.77 1.77 0 1 0 0 3.542 1.77 1.77 0 0 0 0-3.542zm8.524 7.5a.854.854 0 0 0-.994-.685l-2.47.453-1.356-2.387a1.532 1.532 0 0 0-1.33-.775h-4.672c-1.109 0-2.016.902-2.022 2.012L8 21.974a.854.854 0 0 0 .85.859h.004c.47 0 .852-.38.855-.85l.031-6.277a.17.17 0 0 1 .34.001v14.36a1.025 1.025 0 0 0 2.05 0v-8.194h.443v8.195a1.025 1.025 0 0 0 2.05 0c0-13.463-.018-5.954-.019-14.513a.043.043 0 0 1 .08-.021l1.54 2.686c.18.317.54.484.897.419l3.068-.564a.854.854 0 0 0 .686-.994zm10.307 2.526H15.45v1.636h15.732a.818.818 0 0 0 0-1.636zm-4.683-1.64a.28.28 0 0 1 0-.56c.147 0 .28.121.28.28 0 .16-.134.28-.28.28zm3.973-2.094a1.864 1.864 0 0 0-1.86-1.851h-.806l-.974 2.545.23-1.082a.324.324 0 0 0-.033-.223l-.316-.574.28-.51a.114.114 0 0 0-.1-.17h-.769a.114.114 0 0 0-.1.17l.28.51-.316.576c-.074.134-.053.198.167 1.303-.493-1.263-.3-.786-.964-2.545h-.799c-1.02 0-1.854.83-1.86 1.85l-.013 2.753h1.572l.013-2.744a.152.152 0 0 1 .304 0v2.745h4.163v-2.746a.164.164 0 0 1 .329 0l.014 2.746h1.572l-.014-2.753zm-2.337-4.094c-.377-.222-.727-.5-1.637-.5-.892 0-1.25.272-1.614.48a1.628 1.628 0 1 0 3.25.02zm-6.573 2.856l-.975-.298a.354.354 0 0 0-.442.234l-.299.976a1.698 1.698 0 0 1 1.585.72l.365-1.19a.354.354 0 0 0-.234-.442zM18.25 26.851h1.395v-.77h-1.395v.77zm2.998 0h-.861v-.779a.734.734 0 0 0-.733-.732h-1.412a.734.734 0 0 0-.733.732v.779h-.862a.556.556 0 0 0-.555.555v3.131c0 .307.248.556.555.556h4.601a.556.556 0 0 0 .556-.556v-3.13a.556.556 0 0 0-.556-.556z"/>
    </g>
</svg>
