<svg xmlns="http://www.w3.org/2000/svg" width="40" height="40" viewBox="0 0 40 40">
    <g fill="none" fill-rule="evenodd">
        <rect width="40" height="40" fill="#3F51B5" rx="20"/>
        <path fill="#FFF" d="M14.388 26.167a.497.497 0 0 0-.61-.345l-1.777.494a.497.497 0 0 0-.345.61l.493 1.777a.497.497 0 0 0 .61.345l1.778-.494a.497.497 0 0 0 .345-.61l-.494-1.777zm12.918-.381a.22.22 0 0 1-.023.17.219.219 0 0 1-.134.106l-15.22 4.224a.23.23 0 0 1-.276-.156l-1.548-5.578 15.653-4.344.954 3.44.594 2.138zM9.155 20.29l4.212-1.168 9.939-2.758 1.07-.297a.23.23 0 0 1 .276.156l.125.452.394 1.418-15.653 4.344-.52-1.87a.228.228 0 0 1 .157-.277zm18.21.528l.376-1.78a.497.497 0 0 1 .587-.381l1.78.377c.266.056.438.32.381.587l-.376 1.779a.497.497 0 0 1-.587.382l-1.78-.377a.497.497 0 0 1-.381-.587zm-1.758-4.86a1.219 1.219 0 0 0-1.496-.846l-2.907.807-6.852-1.45-.754 3.56-4.708 1.307a1.219 1.219 0 0 0-.846 1.496l2.654 9.562a1.219 1.219 0 0 0 1.495.846l15.221-4.224a1.219 1.219 0 0 0 .846-1.496l-.455-1.642 1.707.361c.648.138 1.29-.28 1.427-.928l1.08-5.104-6.15-1.3-.262-.949zm6.439-3.693l-15.312-3.24a1.207 1.207 0 0 0-1.427.929l-.29 1.87 17.666 3.738.291-1.87a1.207 1.207 0 0 0-.928-1.427z"/>
    </g>
</svg>
