<svg xmlns="http://www.w3.org/2000/svg" width="56" height="56" viewBox="0 0 56 56">
    <g fill="none" fill-rule="evenodd">
        <rect width="56" height="56" fill="#F39C12" rx="28"/>
        <path fill="#FFF" d="M34.5 41.438c.15.187.376.297.616.297H40.1a.786.786 0 0 0 .786-.788c-.014-7.006-1.47-12.449-4.33-16.178-2.199-2.869-4.437-3.593-4.531-3.622a.785.785 0 0 0-.886 1.19c.014.02 1.41 2.117 2.496 5.435.994 3.038 1.925 7.76.714 13a.786.786 0 0 0 .15.666zM23.762 23.012a3.845 3.845 0 0 1 1.736-1.81c.845-.436 2.696-.385 4.126-.261-1.081-.848-2.713-1.862-4.362-1.891-1.067-.018-1.991.372-2.815 1.196-1.56 1.56-1.787 3.32-1.771 4.294l3.086-1.528zm2.252-.812c-.691.357-1.181.968-1.417 1.766-.289.98-.328 2.637.864 5.214.419-2.013 1.47-5.273 4.025-7.12a21.956 21.956 0 0 0-1.76-.082c-.759 0-1.4.061-1.712.222zm6.782-6.478c.239-.211.51-.385.802-.524l1.544-3.197c-.974-.017-2.734.21-4.294 1.771-.824.824-1.215 1.745-1.196 2.815.024 1.318.677 2.625 1.37 3.649.329-1.53.933-3.771 1.774-4.514zm-.665 4.713c2.294-1.378 4.391-1.224 5.83-.795.7.21 1.301.499 1.778.776-.786-2.96-2.304-3.946-3.21-4.273a3.416 3.416 0 0 0-1.16-.206c-.765 0-1.425.269-1.83.627-.506.446-1.049 2.239-1.408 3.871zm10.3 21.993H12.787a.786.786 0 1 0 0 1.572h29.646a.786.786 0 1 0 0-1.572zm-26.725-.693H32.1a.786.786 0 0 0 .786-.786c0-4.954-4.03-8.984-8.984-8.984-4.953 0-8.983 4.03-8.983 8.984 0 .434.352.786.786.786z"/>
    </g>
</svg>
