<svg xmlns="http://www.w3.org/2000/svg" width="24" height="24" viewBox="0 0 24 24">
    <g fill="none" fill-rule="evenodd">
        <path d="M0 0h24v24H0z"/>
        <path fill="#FFF" d="M18.75 19.376c-.957-1.132-2.672-1.996-4.744-2.348-.203-1.214-.565-1.78-.574-1.796a.865.865 0 0 1 .566-.051c.265.06.446.2.555.378.032.052.114.034.123-.026a.68.68 0 0 0-.02-.292.76.76 0 0 0-.554-.545.735.735 0 0 0-.5.07c.138-.119.309-.215.517-.283.448-.144.84-.073 1.144.12a.065.065 0 0 0 .098-.073 1.071 1.071 0 0 0-.338-.526c-.314-.277-.751-.396-1.149-.265a1.158 1.158 0 0 0-.346.184l.024-.028c.292-.345.644-.493.99-.502.076-.001.11-.1.052-.148a1.062 1.062 0 0 0-.47-.225c-.443-.094-.909.039-1.19.393a1.162 1.162 0 0 0-.212.416 1.16 1.16 0 0 0-.415-.215c-.435-.123-.89.04-1.195.375a1.06 1.06 0 0 0-.248.445c-.021.077.068.14.135.096.285-.19.654-.272 1.087-.165l.036.01a1.159 1.159 0 0 0-.389.052c-.4.125-.685.477-.779.885-.054.235-.034.434.027.608.022.063.109.065.135.003.137-.329.411-.607.853-.749.208-.067.403-.088.584-.071a.733.733 0 0 0-.447.234.76.76 0 0 0-.131.766.674.674 0 0 0 .154.25c.042.043.118.01.114-.05a.835.835 0 0 1 .23-.63c.14-.156.298-.256.458-.278 0 0 .255.625.29 1.527a12.77 12.77 0 0 0-1.304-.068c-1.089 0-2.124.136-3.061.382.194-4.233 2.8-7.038 2.802-7.052.321.212.592.537.768.993.228.593.189 1.13-.017 1.573-.06.127.08.26.207.202.19-.089.375-.222.544-.42.418-.492.58-1.18.343-1.78a1.716 1.716 0 0 0-.783-.88c.407.114.817.32 1.216.636.848.674 1.218 1.508 1.248 2.338.005.155.196.225.296.105.276-.33.484-.75.559-1.307.13-.968-.204-1.972-.974-2.573a2.696 2.696 0 0 0-.805-.434l.085.008c1.036.121 1.774.602 2.24 1.253.108.152.355.087.372-.099a2.472 2.472 0 0 0-.175-1.175c-.39-.98-1.25-1.713-2.3-1.802a2.711 2.711 0 0 0-1.085.128 2.7 2.7 0 0 0-.12-1.083c-.323-1.004-1.23-1.676-2.273-1.835a2.472 2.472 0 0 0-1.213.104c-.167.058-.174.3-.011.365.75.303 1.396.916 1.753 1.91.01.026.018.053.027.08a2.694 2.694 0 0 0-.605-.686c-.76-.614-1.812-.712-2.726-.367-.543.205-.91.514-1.17.871a.153.153 0 0 0 .153.241c.826-.172 1.737-.005 2.598.68.399.316.692.669.894 1.04a1.713 1.713 0 0 0-1.034-.564c-.638-.095-1.272.218-1.655.737a1.581 1.581 0 0 0-.286.62c-.029.139.135.245.247.157.385-.299.897-.457 1.525-.369.515.073.91.284 1.193.576-.05.043-3.194 2.388-5.253 9.57-.125.119-.242.243-.35.37a.385.385 0 0 0 .294.633h13.067c.322.002.506-.378.298-.624"/>
    </g>
</svg>
