<svg id="Layer_1" data-name="Layer 1" xmlns="http://www.w3.org/2000/svg" viewBox="0 0 16 16"><defs><style>.cls-1{fill:none;}.cls-2{fill:#424242;}</style></defs><title>phuong tien</title><path class="cls-1" d="M0,0H16V16H0Z"/><path class="cls-2" d="M11.65,5.43V2.7a.89.89,0,0,0-.89-.89H5.24a.89.89,0,0,0-.89.89V5.43a9.49,9.49,0,0,1,7.3,0ZM8.36,2.85h2.47V4.16H8.36ZM7.64,4.16H5.17V2.85H7.64Z"/><path class="cls-2" d="M11.78,6A9.28,9.28,0,0,0,8,5.15,9.28,9.28,0,0,0,4.22,6,.42.42,0,0,0,4,6.36v4.53a.38.38,0,0,0,.12.29.4.4,0,0,0,.29.12h.92l-.18.46-1,2.43h1l.29-.74h5.12l.29.74h1l-1-2.43-.18-.46h.92a.4.4,0,0,0,.29-.12.38.38,0,0,0,.12-.29V6.36A.42.42,0,0,0,11.78,6ZM8,6.13A.82.82,0,1,1,7.18,7,.82.82,0,0,1,8,6.13ZM6.3,11.3H9.7l.18.44H6.12ZM5.62,13l.32-.8h4.12l.32.8Z"/></svg>