<svg id="Layer_1" data-name="Layer 1" xmlns="http://www.w3.org/2000/svg" viewBox="0 0 16 16"><defs><style>.cls-1{fill:none;}.cls-2{fill:#424242;}</style></defs><title>phuong tien</title><path class="cls-1" d="M0,0H16V16H0Z"/><path class="cls-2" d="M11.91,7.53l-.75-1.41a.85.85,0,0,0-.69-.41H3.3a.47.47,0,0,0-.47.47V7.47a.47.47,0,0,0,.47.47h8.36C11.92,7.94,12,7.76,11.91,7.53Zm-.82-.07H4.68a.34.34,0,0,1-.34-.34V6.54a.34.34,0,0,1,.34-.34h5.73a.63.63,0,0,1,.5.3l.36.66A.19.19,0,0,1,11.09,7.46Z"/><path class="cls-2" d="M9.69,5.17,9.2,4.24A.57.57,0,0,0,8.74,4H4a.31.31,0,0,0-.31.31v.85A.31.31,0,0,0,4,5.44H9.53C9.7,5.44,9.77,5.32,9.69,5.17Z"/><path class="cls-2" d="M1.85,8.8l.7,2.65a.93.93,0,0,0,.82.58H12a1.13,1.13,0,0,0,.9-.54l1.27-2.72a.34.34,0,0,0-.32-.54H2.26A.4.4,0,0,0,1.85,8.8Zm8.24.83a.58.58,0,1,1,.58.58A.58.58,0,0,1,10.09,9.63Zm-1.7,0a.58.58,0,1,1,.58.58A.58.58,0,0,1,8.39,9.63Zm-1.7,0a.58.58,0,1,1,.58.58A.58.58,0,0,1,6.69,9.63ZM5,9.63a.58.58,0,1,1,.58.58A.58.58,0,0,1,5,9.63Zm-1.7,0a.58.58,0,1,1,.58.58A.58.58,0,0,1,3.29,9.63Z"/></svg>