<svg xmlns="http://www.w3.org/2000/svg" viewBox="0 0 16 16"><defs><style>.cls-1{fill:none;}.cls-2{fill:#424242;}</style></defs><title>phuong tien</title><g id="Layer_2" data-name="Layer 2"><path class="cls-1" d="M0,0H16V16H0Z"/><path class="cls-2" d="M4.29,9.27a1.24,1.24,0,1,0,0,2.48,1.24,1.24,0,1,0,0-2.48Zm0,1.78a.54.54,0,1,1,.54-.54A.54.54,0,0,1,4.29,11.05Z"/><path class="cls-2" d="M11.56,9.27a1.24,1.24,0,1,0,1.24,1.24A1.24,1.24,0,0,0,11.56,9.27Zm0,1.78a.54.54,0,1,1,.54-.54A.54.54,0,0,1,11.56,11.05Z"/><path class="cls-2" d="M13.93,4.25H2.81A1,1,0,0,0,1.93,5L1.48,6.6a9,9,0,0,0-.15,1.47v1.7a.74.74,0,0,0,.74.74h.76a1.46,1.46,0,0,1,2.92,0H10.1a1.46,1.46,0,0,1,2.92,0h.91a.74.74,0,0,0,.74-.74V5A.75.75,0,0,0,13.93,4.25ZM4.41,7.38H2.68L3,6.73a.22.22,0,0,0-.12-.29.22.22,0,0,0-.29.12l-.34.8a.44.44,0,0,1-.32-.53l.4-1.59a.68.68,0,0,1,.65-.54H4.41V7.38Zm3.29,0H4.85V4.7H7.7Zm3.3,0H8.15V4.7H11Zm3.21-.56a.56.56,0,0,1-.55.56H11.44V4.7h2.22a.55.55,0,0,1,.55.55Z"/></g></svg>