<svg id="Layer_1" data-name="Layer 1" xmlns="http://www.w3.org/2000/svg" viewBox="0 0 16 16"><defs><style>.cls-1{fill:none;}.cls-2{fill:#424242;}</style></defs><title>phuong tien</title><path class="cls-1" d="M0,0H16V16H0Z"/><path class="cls-2" d="M4.34,7.94H12.7a.47.47,0,0,0,.47-.47V6.18a.47.47,0,0,0-.47-.47H5.53a.85.85,0,0,0-.69.41L4.09,7.53C4,7.76,4.08,7.94,4.34,7.94Zm.39-.78.36-.66a.63.63,0,0,1,.5-.3h5.73a.34.34,0,0,1,.34.34v.58a.34.34,0,0,1-.34.34H4.91A.19.19,0,0,1,4.73,7.16Z"/><path class="cls-2" d="M6.47,5.44H12a.31.31,0,0,0,.31-.31V4.28A.31.31,0,0,0,12,4H7.26a.57.57,0,0,0-.46.27l-.49.93C6.23,5.32,6.3,5.44,6.47,5.44Z"/><path class="cls-2" d="M13.74,8.23H2.2a.34.34,0,0,0-.32.54l1.27,2.72a1.13,1.13,0,0,0,.9.54h8.58a.93.93,0,0,0,.82-.58l.7-2.65A.4.4,0,0,0,13.74,8.23Zm-8.41,2a.58.58,0,1,1,.58-.58A.58.58,0,0,1,5.33,10.21Zm1.7,0a.58.58,0,1,1,.58-.58A.58.58,0,0,1,7,10.21Zm1.7,0a.58.58,0,1,1,.58-.58A.58.58,0,0,1,8.73,10.21Zm1.7,0A.58.58,0,1,1,11,9.63.58.58,0,0,1,10.43,10.21Zm1.7,0a.58.58,0,1,1,.58-.58A.58.58,0,0,1,12.13,10.21Z"/></svg>