<?xml version="1.0" encoding="UTF-8"?>
<svg width="126px" height="90px" viewBox="0 0 126 90" version="1.1" xmlns="http://www.w3.org/2000/svg" xmlns:xlink="http://www.w3.org/1999/xlink">
    <!-- Generator: Sketch 47.1 (45422) - http://www.bohemiancoding.com/sketch -->
    <title>hint</title>
    <desc>Created with Sketch.</desc>
    <defs>
        <polygon id="path-1" points="0.7906 37 62.5426 37 62.5426 0.6481 0.7906 0.6481 0.7906 37"></polygon>
        <polygon id="path-3" points="0 39.5079 0 0.445 78.126 0.445 78.126 78.5708 0 78.5708"></polygon>
    </defs>
    <g id="Page-1" stroke="none" stroke-width="1" fill="none" fill-rule="evenodd">
        <g id="hints" transform="translate(0.000000, -1.000000)">
            <g id="Page-1">
                <g id="Group-3" transform="translate(63.000000, 53.555200)">
                    <mask id="mask-2" fill="white">
                        <use xlink:href="#path-1"></use>
                    </mask>
                    <g id="Clip-2"></g>
                    <path d="M50.3066,30.7441 L2.6456,15.0951 C2.0436,15.6551 1.4276,16.2011 0.7906,16.7231 L62.5426,37.0001 L12.4666,0.6481 C12.2016,1.3271 11.9176,1.9971 11.6166,2.6581 L50.3066,30.7441 Z" id="Fill-1" fill="#00BF8E" mask="url(#mask-2)"></path>
                </g>
                <path d="M39.063,77 C59.43,77 76,60.43 76,40.063 C76,19.696 59.43,3.126 39.063,3.126 C18.696,3.126 2.126,19.696 2.126,40.063 C2.126,60.43 18.696,77 39.063,77" id="Fill-4" fill="#FFFFFF"></path>
                <g id="Group-8" transform="translate(0.000000, 0.555200)">
                    <mask id="mask-4" fill="white">
                        <use xlink:href="#path-3"></use>
                    </mask>
                    <g id="Clip-7"></g>
                    <path d="M39.063,2.5708 C59.43,2.5708 76,19.1408 76,39.5078 C76,59.8748 59.43,76.4448 39.063,76.4448 C18.696,76.4448 2.126,59.8748 2.126,39.5078 C2.126,19.1408 18.696,2.5708 39.063,2.5708 M65.646,68.0948 C69.4,64.6018 72.463,60.3808 74.617,55.6578 C74.918,54.9978 75.201,54.3278 75.466,53.6478 C77.177,49.2598 78.126,44.4938 78.126,39.5078 C78.126,17.9678 60.602,0.4448 39.063,0.4448 C17.524,0.4448 0,17.9678 0,39.5078 C0,61.0478 17.524,78.5708 39.063,78.5708 C48.438,78.5708 57.051,75.2488 63.791,69.7228 C64.427,69.2008 65.043,68.6548 65.646,68.0948" id="Fill-6" fill="#00BF8E" mask="url(#mask-4)"></path>
                </g>
            </g>
            <text id="Tìm-tour" font-family="SFUIText-Medium, SF UI Text" font-size="15" font-weight="400" line-spacing="16" fill="#00BF8F">
                <tspan x="25.4135742" y="38">Tìm</tspan>
                <tspan x="24" y="54">tour</tspan>
            </text>
        </g>
    </g>
</svg>