<svg xmlns="http://www.w3.org/2000/svg" width="14" height="14" viewBox="0 0 14 14">
    <g fill="none" fill-rule="evenodd">
        <path d="M0 0h14v14H0z"/>
        <path fill="#FFF" d="M10.949 10.358L8.864 9.316a.574.574 0 0 1-.319-.516v-.738c.05-.061.103-.13.158-.208a5 5 0 0 0 .644-1.265.866.866 0 0 0 .508-.789v-.873a.87.87 0 0 0-.219-.572V3.194c.013-.12.06-.834-.456-1.424C8.732 1.26 8.005 1 7.018 1c-.986 0-1.713.26-2.162.77-.516.59-.468 1.304-.456 1.424v1.16a.87.87 0 0 0-.218.573V5.8c0 .265.12.513.326.678.2.791.619 1.388.765 1.58v.721a.577.577 0 0 1-.3.506l-1.947 1.062A1.968 1.968 0 0 0 2 12.075V13h10.036v-.882c0-.75-.417-1.425-1.087-1.76"/>
    </g>
</svg>
