<svg xmlns="http://www.w3.org/2000/svg" width="16" height="16" viewBox="0 0 16 16">
    <g fill="none" fill-rule="evenodd">
        <path d="M0 0h16v16H0z"/>
        <path fill="#00BF8F" d="M12.206 12.304a8.047 8.047 0 0 1-5.195-2.311 8.04 8.04 0 0 1-2.325-5.21 5.328 5.328 0 0 0 .207 7.314 5.329 5.329 0 0 0 7.313.207m1.093-1.346c.553-.053 1.146.733.793 1.233-.214.3-.44.58-.72.846a6.63 6.63 0 0 1-9.419 0 6.654 6.654 0 0 1 0-9.42c.267-.266.547-.505.846-.719.5-.353 1.286.24 1.233.793a6.642 6.642 0 0 0 1.925 5.342 6.632 6.632 0 0 0 5.342 1.925m1.519-3.297l-1.093.833.393 1.319-1.132-.78-1.133.78.393-1.32-1.092-.832 1.372-.033.46-1.3.46 1.3 1.372.033m-2.332-4.603l-1.685 1.293.606 2.038-1.752-1.206L7.903 6.39 8.51 4.35 6.824 3.058l2.125-.06L9.655 1l.706 1.998 2.125.06"/>
    </g>
</svg>
