<svg xmlns="http://www.w3.org/2000/svg" width="24" height="24" viewBox="0 0 24 24">
    <g fill="none" fill-rule="evenodd">
        <path d="M0 1h24v24H0z"/>
        <path fill="#F26522" d="M7.282 8.96v-.092a4.549 4.549 0 1 1 0 .097V8.96zm7.568 5.112c1.769-1.047 2.937-2.945 2.94-5.115a5.96 5.96 0 0 0-11.92.003 5.938 5.938 0 0 0 2.913 5.1c-3.362 1.27-5.738 4.457-5.774 8.205-.001-.002-.009.013-.009.029a.707.707 0 0 0 1.413 0h.004a7.414 7.414 0 1 1 14.827 0h.004a.705.705 0 1 0 1.41 0c0-.022-.008-.038-.01-.058a8.813 8.813 0 0 0-5.76-8.153l-.038-.01z"/>
    </g>
</svg>
