<svg xmlns="http://www.w3.org/2000/svg" width="24" height="24" viewBox="0 0 24 24">
    <path fill="#FFF" fill-rule="evenodd" d="M13.855 16.315a.688.688 0 0 1 0 .97.688.688 0 0 1-.97 0l-4.8-4.8a.689.689 0 0 1 0-.97l4.8-4.8a.689.689 0 0 1 .97 0 .688.688 0 0 1 0 .97L9.541 12l4.314 4.315zM12 24c6.628 0 12-5.372 12-12S18.628 0 12 0 0 5.372 0 12s5.372 12 12 12zm0-1.373c-5.87 0-10.627-4.76-10.627-10.627C1.373 6.132 6.129 1.373 12 1.373c5.87 0 10.627 4.756 10.627 10.627 0 5.87-4.756 10.627-10.627 10.627z"/>
</svg>
