<svg xmlns="http://www.w3.org/2000/svg" width="24" height="24" viewBox="0 0 24 24">
    <path fill="#FFF" fill-rule="evenodd" d="M10.145 16.315a.688.688 0 0 0 0 .97.688.688 0 0 0 .97 0l4.8-4.8a.689.689 0 0 0 0-.97l-4.8-4.8a.689.689 0 0 0-.97 0 .688.688 0 0 0 0 .97L14.459 12l-4.314 4.315zM12 24C5.372 24 0 18.628 0 12S5.372 0 12 0s12 5.372 12 12-5.372 12-12 12zm0-1.373c5.87 0 10.627-4.76 10.627-10.627 0-5.868-4.756-10.627-10.627-10.627C6.13 1.373 1.373 6.129 1.373 12c0 5.87 4.756 10.627 10.627 10.627z"/>
</svg>
