<svg xmlns="http://www.w3.org/2000/svg" width="24" height="24" viewBox="0 0 24 24">
    <g fill="none" fill-rule="evenodd">
        <rect width="24" height="24" fill="#FA0" rx="12"/>
        <path fill="#FFF" d="M18.854 6.412a.464.464 0 0 0-.511-.41L5.555 7.425a.463.463 0 1 0 .102.92l6.019-.668v2.136h.648V7.604l6.121-.68a.463.463 0 0 0 .41-.512zM7.941 18.317h1.441v-3.939H6.3a7.649 7.649 0 0 0 1.084 3.623c.118.196.33.316.558.316zm6.677-8.526v3.939H17.7a7.648 7.648 0 0 0-1.084-3.623.652.652 0 0 0-.558-.315h-1.441zm0 8.526h1.44c.23 0 .441-.12.559-.316a7.648 7.648 0 0 0 1.084-3.623h-3.083v3.939zm-4.587 0h1.645V9.812H10.03v8.505zm2.293 0h1.645V9.812h-1.645v8.505zM6.3 13.73h3.083V9.79h-1.44c-.23 0-.441.12-.559.316A7.648 7.648 0 0 0 6.3 13.73z"/>
    </g>
</svg>
