<svg xmlns="http://www.w3.org/2000/svg" width="24" height="24" viewBox="0 0 24 24">
    <g fill="none" fill-rule="evenodd">
        <rect width="24" height="24" fill="#2196F3" rx="12"/>
        <path fill="#FFF" d="M8.5 13.736l1.486-1.486c.13-.129.339-.129.468 0l.62.62.446-.447-1.568-2.465a.491.491 0 0 0-.437-.23.494.494 0 0 0-.42.26l-1.571 2.879.977.869zm2.807-.165a.331.331 0 0 1-.467 0l-.62-.619-1.472 1.473a.33.33 0 0 1-.454.013l-1.095-.976-2.056 3.77h5.76L12.6 14.12l-.716-1.125-.577.576zm2.392 1.924l1.493-.747a.331.331 0 0 1 .382.062l.619.62.693-.675-1.635-2.57a.493.493 0 0 0-.437-.23.494.494 0 0 0-.42.258l-1.405 2.575.71.707zm-.737-2.039l.85-1.56a1.15 1.15 0 0 1 .98-.603c.412-.014.794.186 1.017.536l1.38 2.17a4.21 4.21 0 0 0 1.668-3.356 4.22 4.22 0 0 0-4.214-4.214 4.22 4.22 0 0 0-4.097 3.23l2.416 3.797zm5.5 3.776l-1.22-1.917-.815.816a.33.33 0 0 1-.468 0l-.685-.684-1.493.746a.33.33 0 0 1-.382-.062l-.74-.74-1.003 1.84h6.806z"/>
    </g>
</svg>
