<svg xmlns="http://www.w3.org/2000/svg" width="24" height="24" viewBox="0 0 24 24">
    <g fill="none" fill-rule="evenodd">
        <rect width="24" height="24" fill="#8BC34A" rx="12"/>
        <path fill="#FFF" d="M14.066 16.143H14l1.394-2.174a5.282 5.282 0 0 1-1.54 1.007l-.749 1.167h-.924v-.772c-.124.009-.25.02-.376.02-.127 0-.252-.011-.377-.02v.772h-.924l-.748-1.167a5.282 5.282 0 0 1-1.54-1.007l1.393 2.174h-.064a.376.376 0 1 0 0 .754h.376v.402c0 .623.507 1.13 1.13 1.13h1.507c.623 0 1.13-.507 1.13-1.13v-.402h.377a.376.376 0 1 0 0-.754m-.723-10.298c.67.99 1.1 2.6 1.1 4.272 0 1.67-.43 3.257-1.1 4.246a4.518 4.518 0 0 0 2.983-4.246 4.55 4.55 0 0 0-2.983-4.272m-1.537-.274c-.891 0-1.884 2.104-1.884 4.546 0 2.441.993 4.52 1.884 4.52.89 0 1.883-2.079 1.883-4.52 0-2.442-.992-4.546-1.883-4.546m-1.538.274a4.55 4.55 0 0 0-2.982 4.272 4.518 4.518 0 0 0 2.982 4.246c-.668-.99-1.099-2.575-1.099-4.246 0-1.671.43-3.283 1.1-4.272"/>
    </g>
</svg>
