<svg xmlns="http://www.w3.org/2000/svg" xmlns:xlink="http://www.w3.org/1999/xlink" width="50" height="58" viewBox="0 0 50 58">
    <defs>
        <path id="a" d="M.274.327h45.308v66.931H.274z"/>
    </defs>
    <g fill="none" fill-rule="evenodd">
        <path fill="#DC2028" d="M0-12.82V58l24.787-11.456L49.574 58v-70.82z"/>
        <g transform="translate(2.479 -14)">
            <mask id="b" fill="#fff">
                <use xlink:href="#a"/>
            </mask>
            <path fill="#EFEFEF" d="M.274.592h.478V.326H.274v.266zm44.83 1.536h.478V.326h-.478v1.802zM.274 4.196h.478V2.394H.274v1.802zm44.83 1.537h.478V3.93h-.478v1.803zM.274 7.8h.478V5.998H.274V7.8zm44.83 1.537h.478V7.535h-.478v1.802zM.274 11.404h.478V9.602H.274v1.802zm44.83 1.537h.478v-1.802h-.478v1.802zM.274 15.009h.478v-1.803H.274v1.803zm44.83 1.536h.478v-1.802h-.478v1.802zM.274 18.613h.478V16.81H.274v1.802zm44.83 1.536h.478v-1.802h-.478v1.802zM.274 22.217h.478v-1.802H.274v1.802zm44.83 1.537h.478V21.95h-.478v1.803zM.274 25.82h.478V24.02H.274v1.802zm44.83 1.537h.478v-1.802h-.478v1.802zM.274 29.425h.478v-1.802H.274v1.802zm44.83 1.537h.478V29.16h-.478v1.802zM.274 33.03h.478v-1.802H.274v1.802zm44.83 1.536h.478v-1.802h-.478v1.802zM.274 36.634h.478v-1.802H.274v1.802zm44.83 1.536h.478v-1.802h-.478v1.802zM.274 40.238h.478v-1.802H.274v1.802zm44.83 1.537h.478v-1.802h-.478v1.802zM.274 43.842h.478V42.04H.274v1.802zm44.83 1.537h.478v-1.802h-.478v1.802zM.274 47.446h.478v-1.802H.274v1.802zm44.83 1.537h.478v-1.802h-.478v1.802zM.274 51.051h.478v-1.802H.274v1.802zm44.83 1.536h.478v-1.802h-.478v1.802zM.274 54.655h.478v-1.802H.274v1.802zm44.83 1.537h.478v-1.803h-.478v1.803zm-23.733 1.595l-.21-.405.643-.295a2.66 2.66 0 0 1 1.28-.241l-.03.45a2.185 2.185 0 0 0-1.04.196l-.643.295zm-21.097.472h.478v-1.802H.274v1.802zm26.182.434l-1.718-.79.209-.404 1.717.789-.208.405zm-8.52.673l-.21-.405 1.718-.79.209.405-1.718.79zm27.168.43h.478v-1.802h-.478v1.802zm-15.213.475l-1.718-.789.21-.405 1.717.79-.21.404zm-15.391.673l-.209-.405 1.718-.789.209.405-1.718.79zm18.826.906l-1.717-.79.209-.404 1.717.79-.209.404zm-33.052.013h.478v-1.802H.274v1.802zm10.79.66l-.208-.405 1.717-.79.21.406-1.718.789zm34.04.877h.478v-1.802h-.478V63.4zm-8.342.028l-1.718-.79.209-.403 1.718.789-.21.404zm-29.133.673l-.209-.404 1.718-.79.209.405-1.718.789zm32.568.906l-1.718-.79.21-.404 1.717.789-.209.405zm-39.923.46h.478v-1.802H.274v1.803zm3.92.213l-.209-.405 1.718-.789.209.404-1.718.79zm39.438.905l-1.717-.789.209-.405 1.717.79-.209.404zm1.472.42h.478v-1.803h-.478v1.802zM.76 67.257l-.21-.405 1.719-.788.209.404-1.718.79z" mask="url(#b)"/>
        </g>
    </g>
</svg>
