<svg xmlns="http://www.w3.org/2000/svg" xmlns:xlink="http://www.w3.org/1999/xlink" width="142" height="142" viewBox="0 0 142 142">
    <defs>
        <rect id="b" width="130" height="130" x="6" y="7" rx="65"/>
        <filter id="a" width="114.6%" height="114.6%" x="-7.3%" y="-8.1%" filterUnits="objectBoundingBox">
            <feMorphology in="SourceAlpha" operator="dilate" radius=".5" result="shadowSpreadOuter1"/>
            <feOffset dy="-1" in="shadowSpreadOuter1" result="shadowOffsetOuter1"/>
            <feGaussianBlur in="shadowOffsetOuter1" result="shadowBlurOuter1" stdDeviation="2.5"/>
            <feColorMatrix in="shadowBlurOuter1" values="0 0 0 0 0 0 0 0 0 0 0 0 0 0 0 0 0 0 0.15 0"/>
        </filter>
        <path id="c" d="M0 80h80.8V0H0z"/>
    </defs>
    <g fill="none" fill-rule="evenodd">
        <g>
            <use fill="#000" filter="url(#a)" xlink:href="#b"/>
            <use fill="#FFF" xlink:href="#b"/>
        </g>
        <path fill="#5FD696" d="M79.6 58.434H58.439v-18.33h50.226v18.33h-20.33"/>
        <g transform="translate(31.1 32)">
            <path fill="#FDD1A3" d="M75.344 38.758c-1.985 0-3.593 1.592-3.593 3.557v-1.212c0-2.12-1.737-3.84-3.878-3.84-1.984 0-3.593 1.593-3.593 3.558 0-1.965-1.609-3.558-3.593-3.558h-.285a3.588 3.588 0 0 0-3.485 2.688V24.52c0-2.203-1.803-3.989-4.027-3.989-2.225 0-4.028 1.786-4.028 3.988V49.53H44.47c-2.684 0-4.86 2.153-4.86 4.81v.001c0 2.457 1.87 4.52 4.336 4.784l6.82 1.248c5.04.995 4.521 3.814 4.521 7.595v2.652H74.29v-4.567c3.515-.67 4.932-2.444 4.932-4.527V42.598c0-2.12-1.737-3.84-3.878-3.84"/>
            <mask id="d" fill="#fff">
                <use xlink:href="#c"/>
            </mask>
            <path fill="#0082A0" d="M53.65 78.438h22.772V70.62H53.65z" mask="url(#d)"/>
            <path fill="#FED271" d="M27.339 14.315c0 7.043-5.767 12.753-12.88 12.753-7.114 0-12.88-5.71-12.88-12.753S7.344 1.563 14.458 1.563c7.113 0 12.88 5.71 12.88 12.752" mask="url(#d)"/>
            <path fill="#FCBD38" d="M14.458 20.818c-3.621 0-6.567-2.917-6.567-6.503 0-3.586 2.946-6.502 6.567-6.502 3.622 0 6.568 2.916 6.568 6.502s-2.946 6.503-6.568 6.503" mask="url(#d)"/>
            <path fill="#000" d="M14.458 9.375c-2.751 0-4.99 2.216-4.99 4.94s2.239 4.94 4.99 4.94c2.752 0 4.99-2.216 4.99-4.94s-2.238-4.94-4.99-4.94m0 13.005c-4.491 0-8.145-3.618-8.145-8.065 0-4.447 3.654-8.065 8.145-8.065 4.492 0 8.146 3.618 8.146 8.065 0 4.447-3.654 8.065-8.146 8.065" mask="url(#d)"/>
            <path fill="#FED271" d="M39.87 59.48c0 10.47-8.571 18.957-19.145 18.957-10.575 0-19.147-8.486-19.147-18.956 0-10.47 8.572-18.957 19.147-18.957 10.574 0 19.145 8.487 19.145 18.957" mask="url(#d)"/>
            <path fill="#FCBD38" d="M20.725 71.935c-6.936 0-12.58-5.587-12.58-12.454 0-6.867 5.644-12.454 12.58-12.454 6.935 0 12.578 5.587 12.578 12.454 0 6.867-5.643 12.454-12.578 12.454" mask="url(#d)"/>
            <path fill="#000" d="M20.725 48.59c-6.066 0-11.001 4.885-11.001 10.89 0 6.006 4.935 10.892 11 10.892 6.066 0 11-4.886 11-10.891 0-6.006-4.934-10.892-11-10.892m0 24.908c-7.806 0-14.156-6.288-14.156-14.016 0-7.729 6.35-14.017 14.157-14.017 7.805 0 14.156 6.288 14.156 14.017 0 7.728-6.35 14.016-14.156 14.016" mask="url(#d)"/>
            <path fill="#000" d="M21.44 60.78v2.303c.589-.137 1.058-.463 1.058-1.082 0-.567-.434-.928-1.059-1.22zm-.974-3.179v-2.045c-.78.154-1.11.55-1.11.963 0 .498.45.807 1.11 1.082zm-.173 7.941c-2.083-.069-3.784-1.135-3.784-2.235 0-.584.52-1.444 1.18-1.444.73 0 1.32 1.015 2.604 1.238v-2.784c-1.597-.602-3.472-1.341-3.472-3.54 0-2.184 1.632-3.232 3.472-3.49v-.481c0-.24.277-.464.66-.464.33 0 .66.223.66.464v.43c1.076.034 3.107.309 3.107 1.495 0 .464-.313 1.41-1.076 1.41-.574 0-.904-.55-2.032-.637v2.51c1.58.584 3.42 1.392 3.42 3.713 0 2.13-1.388 3.42-3.42 3.746v.499c0 .24-.33.463-.66.463-.382 0-.659-.223-.659-.463v-.43zM71.232 22.095a1.598 1.598 0 0 1-1.313-.695 1.534 1.534 0 0 1-.265-.867c0-.101.01-.205.03-.307a1.568 1.568 0 0 1 1.24-1.225 1.557 1.557 0 0 1 .91.09c.095.039.187.086.274.142a1.523 1.523 0 0 1 .58.702 1.57 1.57 0 0 1 .122.598 1.537 1.537 0 0 1-.121.597 1.544 1.544 0 0 1-.581.701 1.719 1.719 0 0 1-.273.144 1.592 1.592 0 0 1-.603.12" mask="url(#d)"/>
            <path fill="#000" d="M77.644 61.525c0 1.524-1.229 2.53-3.653 2.993a1.567 1.567 0 0 0-1.28 1.534v3.005H56.866s.003-1.731.007-2.04c.04-3.289.086-7.016-5.799-8.177a.352.352 0 0 0-.022-.004l-6.82-1.248a1.48 1.48 0 0 0-.116-.017 3.256 3.256 0 0 1-2.928-3.231c0-.868.341-1.684.962-2.298a3.277 3.277 0 0 1 2.32-.951h4.391c.42 0 .82-.165 1.116-.457.296-.293.463-.69.463-1.105V27.996h1.335c.872 0 1.579-.7 1.579-1.562a1.57 1.57 0 0 0-1.579-1.563H50.44v-.35c0-1.338 1.099-2.426 2.45-2.426 1.35 0 2.449 1.088 2.449 2.426v15.43c0 .789.594 1.454 1.384 1.55.79.098 1.53-.404 1.724-1.169a2.007 2.007 0 0 1 1.954-1.506h.286c1.11 0 2.014.895 2.014 1.995a1.57 1.57 0 0 0 1.579 1.562c.871 0 1.578-.699 1.578-1.562 0-1.1.903-1.995 2.015-1.995 1.268 0 2.3 1.021 2.3 2.278v1.212a1.57 1.57 0 0 0 1.577 1.562c.872 0 1.579-.7 1.579-1.562 0-1.1.904-1.996 2.015-1.996 1.268 0 2.3 1.022 2.3 2.278v18.927zm-22.416 15.35h19.616v-4.693H55.228v4.693zm-34.503 0c-9.688 0-17.569-7.803-17.569-17.394 0-9.592 7.881-17.394 17.569-17.394 9.687 0 17.567 7.802 17.567 17.394 0 9.59-7.88 17.394-17.567 17.394zm8.192-52.004v-2.776h18.931a5.47 5.47 0 0 0-.565 2.425v.351H28.917zm-14.459.634c-6.231 0-11.302-5.02-11.302-11.19s5.07-11.19 11.302-11.19c6.232 0 11.302 5.02 11.302 11.19s-5.07 11.19-11.302 11.19zM28.917 9.667h47.07V24.87H58.494v-.35a5.47 5.47 0 0 0-.564-2.426h6.514c.872 0 1.578-.7 1.578-1.562a1.57 1.57 0 0 0-1.578-1.563H28.917V9.667zm46.427 27.528c-1.09 0-2.102.336-2.936.908a5.47 5.47 0 0 0-4.535-2.402c-1.394 0-2.662.55-3.593 1.441a5.18 5.18 0 0 0-3.593-1.44h-.286c-.668 0-1.313.126-1.906.358v-8.063h19.07c.871 0 1.577-.7 1.577-1.563V8.104a1.57 1.57 0 0 0-1.578-1.562H27.338c-.232 0-.454.05-.653.14A14.495 14.495 0 0 0 14.458 0C6.486 0 0 6.422 0 14.315S6.486 28.63 14.458 28.63c4.57 0 8.651-2.11 11.302-5.397v3.2a1.57 1.57 0 0 0 1.578 1.563h19.945v19.97H44.47a6.429 6.429 0 0 0-5.124 2.513 20.769 20.769 0 0 0-18.621-11.517C9.297 38.962 0 48.166 0 59.48 0 70.795 9.297 80 20.725 80c11.262 0 20.455-8.941 20.718-20.03a6.482 6.482 0 0 0 2.27.7l6.754 1.237c3.304.654 3.29 1.77 3.25 5.072-.004.322-.008 2.078-.008 2.078h-.059c-.872 0-1.578.7-1.578 1.562v7.818A1.57 1.57 0 0 0 53.65 80h22.772c.872 0 1.578-.7 1.578-1.563V70.62a1.57 1.57 0 0 0-1.578-1.562h-.554v-1.78c4.422-1.324 4.931-4.406 4.931-5.752V42.598c.001-2.979-2.447-5.403-5.455-5.403z" mask="url(#d)"/>
        </g>
    </g>
</svg>
