<svg xmlns="http://www.w3.org/2000/svg" xmlns:xlink="http://www.w3.org/1999/xlink" width="142" height="142" viewBox="0 0 142 142">
    <defs>
        <rect id="b" width="130" height="130" rx="65"/>
        <filter id="a" width="114.6%" height="114.6%" x="-7.3%" y="-8.1%" filterUnits="objectBoundingBox">
            <feMorphology in="SourceAlpha" operator="dilate" radius=".5" result="shadowSpreadOuter1"/>
            <feOffset dy="-1" in="shadowSpreadOuter1" result="shadowOffsetOuter1"/>
            <feGaussianBlur in="shadowOffsetOuter1" result="shadowBlurOuter1" stdDeviation="2.5"/>
            <feColorMatrix in="shadowBlurOuter1" values="0 0 0 0 0 0 0 0 0 0 0 0 0 0 0 0 0 0 0.15 0"/>
        </filter>
        <path id="c" d="M0 100h101V0H0z"/>
    </defs>
    <g fill="none" fill-rule="evenodd">
        <g transform="translate(6 7)">
            <use fill="#000" filter="url(#a)" xlink:href="#b"/>
            <use fill="#FFF" xlink:href="#b"/>
        </g>
        <path fill="#92E0C0" d="M28.145 59.097H55.84V39.742H28.145z"/>
        <path fill="#0FA196" d="M28.145 59.097H55.84v-6.452H28.145z"/>
        <path fill="#92E0C0" d="M21.629 102.645h34.21V57.484h-34.21z"/>
        <g transform="translate(20 22)">
            <path fill="#FEA82F" d="M29.323 41.936c8.997 0 16.29 7.22 16.29 16.129 0 8.907-7.293 16.129-16.29 16.129s-16.29-7.222-16.29-16.13c0-8.907 7.293-16.128 16.29-16.128"/>
            <path fill="#FF8031" d="M29.323 70.968c-8.447 0-15.392-6.366-16.21-14.516-.051.53-.08 1.067-.08 1.613 0 8.908 7.292 16.129 16.29 16.129 8.997 0 16.29-7.221 16.29-16.13 0-.545-.03-1.082-.082-1.612-.817 8.15-7.762 14.516-16.208 14.516"/>
            <path fill="#8C95A4" d="M89.597 66.13v25.806c0 3.562-2.918 6.451-6.516 6.451H40.726c-3.599 0-6.516-2.889-6.516-6.451V8.065c0-3.563 2.917-6.452 6.516-6.452H83.08c3.598 0 6.516 2.889 6.516 6.452V66.129z"/>
            <mask id="d" fill="#fff">
                <use xlink:href="#c"/>
            </mask>
            <path fill="#39C3FC" d="M34.21 85.484h55.387V14.516H34.21z" mask="url(#d)"/>
            <path fill="#148CE0" d="M89.597 38.71H50.5c-.9 0-1.629.722-1.629 1.613v29.032c0 .89.73 1.613 1.629 1.613h39.097V38.71z" mask="url(#d)"/>
            <path fill="#ECECEC" d="M97.742 66.13H52.129c-.9 0-1.629-.724-1.629-1.614V35.484c0-.89.73-1.613 1.629-1.613h45.613c.9 0 1.629.723 1.629 1.613v29.032c0 .89-.73 1.613-1.63 1.613" mask="url(#d)"/>
            <path fill="#798699" d="M50.5 46.774h48.871v-6.451H50.5z" mask="url(#d)"/>
            <path fill="#148CE0" d="M34.21 85.484h55.387v-4.839H34.21z" mask="url(#d)"/>
            <path fill="#000" d="M52.129 93.548h19.548v-3.225H52.13zM39.097 77.42h3.258V29.031h-3.258z" mask="url(#d)"/>
            <path fill="#000" d="M52.129 64.516V48.387h45.613l.002 16.13H52.129zm35.839 19.355h-52.13V16.129h52.13v16.13H52.129c-1.797 0-3.258 1.446-3.258 3.225v29.032c0 1.78 1.461 3.226 3.258 3.226h35.839v16.129zM83.08 96.774H40.726c-2.695 0-4.887-2.17-4.887-4.838v-4.84h52.129v4.84c0 2.667-2.193 4.838-4.887 4.838zM3.258 79.032V37.097h29.323v3.53a18.151 18.151 0 0 0-3.258-.304c-9.88 0-17.92 7.96-17.92 17.742s8.04 17.741 17.92 17.741c1.1 0 2.187-.11 3.258-.304v3.53H3.258zm6.516-45.161h22.807V19.355H9.774V33.87zm22.807 22.877a4.875 4.875 0 0 0-1.63-.296h-3.257c-.9 0-1.63-.725-1.63-1.613 0-.889.73-1.613 1.63-1.613h3.258c.899 0 1.629.724 1.629 1.613v1.91zm0-6.451A4.875 4.875 0 0 0 30.95 50v-3.226h-3.257V50c-2.695 0-4.888 2.171-4.888 4.839 0 2.667 2.193 4.838 4.888 4.838h3.258c.899 0 1.629.725 1.629 1.613 0 .89-.73 1.613-1.63 1.613h-3.257c-.9 0-1.63-.724-1.63-1.613h-3.258c0 2.668 2.193 4.84 4.888 4.84v3.225h3.258v-3.226a4.87 4.87 0 0 0 1.629-.297v6.347c-1.067.239-2.152.402-3.258.402-8.085 0-14.662-6.513-14.662-14.516 0-8.004 6.577-14.517 14.662-14.517 1.106 0 2.19.163 3.258.404v6.345zm8.145-47.071H83.08c2.694 0 4.887 2.17 4.887 4.839v4.838h-52.13V8.065c0-2.668 2.193-4.84 4.888-4.84zM52.129 45.16h45.613v-3.225H52.129v3.225zm0-6.451h45.613v-3.226H52.129v3.226zm45.613-6.452h-6.516V8.065C91.226 3.618 87.572 0 83.08 0H40.726c-4.491 0-8.145 3.618-8.145 8.065v8.064H6.516v17.742H0v48.387h32.58v9.678c0 4.446 3.655 8.064 8.146 8.064H83.08c4.49 0 8.145-3.618 8.145-8.064V67.742h6.516c1.797 0 3.258-1.447 3.258-3.226V35.484c0-1.78-1.461-3.226-3.258-3.226z" mask="url(#d)"/>
            <path fill="#000" d="M55.387 61.29h8.145v-3.225h-8.145zM9.774 43.548h3.258v-3.225H6.516v6.451h3.258zM13.032 22.58v6.452h3.258v-3.226h3.258v-3.225zM9.774 69.355H6.516v6.451h6.516v-3.225H9.774zM91.226 61.29h3.258v-3.225h-3.258zM84.71 61.29h3.258v-3.225H84.71zM39.097 25.806h3.258v-3.225h-3.258z" mask="url(#d)"/>
        </g>
    </g>
</svg>
