<svg xmlns="http://www.w3.org/2000/svg" xmlns:xlink="http://www.w3.org/1999/xlink" width="100" height="100" viewBox="0 0 100 100">
    <defs>
        <path id="a" d="M.118.036h52.616v52.545H.118z"/>
    </defs>
    <g fill="none" fill-rule="evenodd">
        <path fill="#FF7258" d="M92.94 42.995v35.147c0 .993-.805 1.798-1.797 1.798h-80.06a1.798 1.798 0 0 1-1.798-1.798V42.995c0-.993.805-1.798 1.798-1.798h80.06c.993 0 1.797.805 1.797 1.798"/>
        <path fill="#F95D48" d="M92.94 41.197v19.801l-4.362 1.227-4.338 4.225a4.953 4.953 0 0 1-4.675 1.254l-5.872-1.495-5.873 1.495c-.405.101-.815.15-1.222.15a4.952 4.952 0 0 1-3.455-1.404l-4.338-4.225-5.832-1.639a4.95 4.95 0 0 1-3.428-3.423l-1.639-5.823-4.23-4.329a4.946 4.946 0 0 1-1.255-4.684l.288-1.13H92.94z"/>
        <path fill="#00ABE0" d="M83.655 52.12v35.148c0 .992-.805 1.797-1.797 1.797H1.798A1.798 1.798 0 0 1 0 87.268V52.12c0-.992.805-1.797 1.798-1.797h80.06c.992 0 1.797.804 1.797 1.797"/>
        <path fill="#099DD1" d="M83.655 50.322v16.614a4.938 4.938 0 0 1-2.87.919c-.407 0-.817-.05-1.22-.151l-5.872-1.495-5.873 1.495a4.953 4.953 0 0 1-4.677-1.254l-4.338-4.225-5.832-1.639a4.95 4.95 0 0 1-3.428-3.423l-1.639-5.824-.995-1.017h36.744z"/>
        <g transform="translate(47.266 10.159)">
            <mask id="b" fill="#fff">
                <use xlink:href="#a"/>
            </mask>
            <path fill="#FF7258" d="M26.806 1.58L32.685.083a1.538 1.538 0 0 1 1.452.388l4.342 4.23c.184.18.41.31.658.38l5.839 1.64c.516.144.919.547 1.064 1.063l1.642 5.83c.07.247.2.473.38.657l4.235 4.335c.375.383.522.934.39 1.454L51.19 25.93c-.064.249-.064.51 0 .76l1.497 5.867a1.538 1.538 0 0 1-.39 1.454l-4.234 4.334c-.18.184-.311.41-.38.658l-1.643 5.83a1.537 1.537 0 0 1-1.064 1.063l-5.84 1.64c-.247.07-.473.2-.656.38l-4.343 4.23c-.383.373-.933.52-1.452.388l-5.88-1.495a1.54 1.54 0 0 0-.757 0l-5.88 1.495a1.538 1.538 0 0 1-1.452-.388l-4.342-4.23c-.184-.18-.41-.31-.658-.38l-5.839-1.64a1.537 1.537 0 0 1-1.064-1.063l-1.642-5.83c-.07-.247-.2-.473-.38-.658L.555 34.01a1.538 1.538 0 0 1-.39-1.454l1.497-5.867c.063-.25.063-.51 0-.76L.166 20.06c-.132-.52.015-1.07.39-1.454l4.235-4.335c.18-.184.31-.41.38-.658l1.642-5.829a1.538 1.538 0 0 1 1.064-1.064l5.84-1.64c.247-.069.473-.2.657-.378l4.342-4.23c.383-.374.933-.521 1.452-.39l5.88 1.496c.248.063.509.063.758 0" mask="url(#b)"/>
        </g>
        <path fill="#EFEFEF" d="M30.24 60.811v17.333c0 .993-.805 1.798-1.798 1.798h-17.36a1.798 1.798 0 0 1-1.797-1.798V60.811c0-.992.805-1.797 1.798-1.797h17.36c.992 0 1.797.804 1.797 1.797"/>
        <path fill="#E2E2E2" d="M30.24 60.811v.585l-8.092 8.08-2.384 2.382-8.095 8.084h-.586a1.798 1.798 0 0 1-1.798-1.798v-.584l8.095-8.081 2.384-2.382 8.094-8.083h.584c.993 0 1.798.804 1.798 1.797"/>
        <path fill="#E2E2E2" d="M30.24 77.557v.587c0 .993-.805 1.798-1.798 1.798h-.584l-8.094-8.084-2.384-2.38-8.095-8.082v-.585c0-.992.805-1.797 1.798-1.797h.587l8.094 8.083 2.384 2.38 8.092 8.08zM65.914 71.717H37.217a1.685 1.685 0 1 1 0-3.37h28.697a1.685 1.685 0 1 1 0 3.37"/>
        <path fill="#EFEFEF" d="M65.914 77.775H37.217a1.685 1.685 0 1 1 0-3.37h28.697a1.685 1.685 0 1 1 0 3.37M64.57 29.395a1.8 1.8 0 0 1 1.797-1.798 1.8 1.8 0 0 1 1.798 1.798 1.8 1.8 0 0 1-1.798 1.798 1.8 1.8 0 0 1-1.798-1.798m6.967 0a5.174 5.174 0 0 0-5.169-5.169 5.174 5.174 0 0 0-5.168 5.169 5.174 5.174 0 0 0 5.168 5.168 5.174 5.174 0 0 0 5.169-5.168M79.85 46.923a1.8 1.8 0 0 1-1.797-1.798 1.8 1.8 0 0 1 1.797-1.797 1.8 1.8 0 0 1 1.798 1.797 1.8 1.8 0 0 1-1.798 1.798m0-6.966a5.174 5.174 0 0 0-5.168 5.168 5.174 5.174 0 0 0 5.168 5.169 5.174 5.174 0 0 0 5.169-5.169 5.174 5.174 0 0 0-5.169-5.168M82.506 27.862a1.686 1.686 0 0 0-2.383 0L63.71 44.274a1.685 1.685 0 1 0 2.384 2.383l16.412-16.41a1.686 1.686 0 0 0 0-2.385"/>
    </g>
</svg>
