<svg xmlns="http://www.w3.org/2000/svg" xmlns:xlink="http://www.w3.org/1999/xlink" width="100" height="100" viewBox="0 0 100 100">
    <defs>
        <path id="a" d="M0 80h80V0H0z"/>
    </defs>
    <g fill="none" fill-rule="evenodd">
        <path fill="#5FD696" d="M58.02 36.434H37.069v-18.33h49.728v18.33h-20.13"/>
        <g transform="translate(10 10)">
            <path fill="#FDD1A3" d="M74.598 38.758a3.557 3.557 0 0 0-3.557 3.557v-1.212a3.84 3.84 0 0 0-3.84-3.84 3.557 3.557 0 0 0-3.557 3.558 3.558 3.558 0 0 0-3.558-3.558h-.282a3.56 3.56 0 0 0-3.45 2.688V24.52a3.988 3.988 0 1 0-7.976 0v25.008H44.03a4.812 4.812 0 0 0-4.812 4.81v.001a4.812 4.812 0 0 0 4.293 4.784l6.752 1.248c4.99.995 4.477 3.814 4.477 7.595v2.652h18.815v-4.567c3.48-.67 4.882-2.444 4.882-4.527V42.598a3.84 3.84 0 0 0-3.84-3.84"/>
            <mask id="b" fill="#fff">
                <use xlink:href="#a"/>
            </mask>
            <path fill="#0082A0" d="M53.119 78.438h22.546V70.62H53.12z" mask="url(#b)"/>
            <path fill="#FED271" d="M27.068 14.315c0 7.043-5.71 12.753-12.753 12.753S1.563 21.358 1.563 14.315 7.273 1.563 14.315 1.563c7.043 0 12.753 5.71 12.753 12.752" mask="url(#b)"/>
            <path fill="#FCBD38" d="M14.315 20.818a6.51 6.51 0 0 1-6.502-6.503 6.51 6.51 0 0 1 6.502-6.502 6.51 6.51 0 0 1 6.503 6.502 6.51 6.51 0 0 1-6.503 6.503" mask="url(#b)"/>
            <path fill="#000" d="M14.315 9.375a4.946 4.946 0 0 0-4.94 4.94 4.946 4.946 0 0 0 4.94 4.94 4.946 4.946 0 0 0 4.94-4.94 4.946 4.946 0 0 0-4.94-4.94m0 13.005c-4.447 0-8.065-3.618-8.065-8.065 0-4.447 3.618-8.065 8.065-8.065 4.447 0 8.065 3.618 8.065 8.065 0 4.447-3.618 8.065-8.065 8.065" mask="url(#b)"/>
            <path fill="#FED271" d="M39.476 59.48c0 10.47-8.487 18.957-18.957 18.957S1.562 69.951 1.562 59.481c0-10.47 8.487-18.957 18.957-18.957s18.957 8.487 18.957 18.957" mask="url(#b)"/>
            <path fill="#FCBD38" d="M20.52 71.935c-6.868 0-12.455-5.587-12.455-12.454 0-6.867 5.587-12.454 12.454-12.454 6.867 0 12.454 5.587 12.454 12.454 0 6.867-5.587 12.454-12.454 12.454" mask="url(#b)"/>
            <path fill="#000" d="M20.52 48.59c-6.007 0-10.892 4.885-10.892 10.89 0 6.006 4.885 10.892 10.891 10.892s10.892-4.886 10.892-10.891c0-6.006-4.886-10.892-10.892-10.892m0 24.908c-7.728 0-14.016-6.288-14.016-14.016 0-7.729 6.287-14.017 14.016-14.017s14.017 6.288 14.017 14.017c0 7.728-6.288 14.016-14.017 14.016" mask="url(#b)"/>
            <path fill="#000" d="M21.227 60.78v2.303c.584-.137 1.048-.463 1.048-1.082 0-.567-.43-.928-1.048-1.22zm-.963-3.179v-2.045c-.774.154-1.1.55-1.1.963 0 .498.447.807 1.1 1.082zm-.172 7.941c-2.062-.069-3.747-1.135-3.747-2.235 0-.584.516-1.444 1.169-1.444.722 0 1.306 1.015 2.578 1.238v-2.784c-1.581-.602-3.437-1.341-3.437-3.54 0-2.184 1.615-3.232 3.437-3.49v-.481c0-.24.275-.464.653-.464.327 0 .653.223.653.464v.43c1.066.034 3.077.309 3.077 1.495 0 .464-.31 1.41-1.066 1.41-.567 0-.894-.55-2.01-.637v2.51c1.564.584 3.385 1.392 3.385 3.713 0 2.13-1.375 3.42-3.386 3.746v.499c0 .24-.326.463-.653.463-.378 0-.653-.223-.653-.463v-.43zM70.527 22.095a1.567 1.567 0 0 1-.87-.264 1.566 1.566 0 0 1-.43-.43 1.54 1.54 0 0 1-.234-.564 1.561 1.561 0 0 1 .09-.902 1.573 1.573 0 0 1 .575-.702A1.666 1.666 0 0 1 70.22 19a1.526 1.526 0 0 1 .904.09c.093.039.184.086.27.142a1.52 1.52 0 0 1 .43.433 1.584 1.584 0 0 1 .265.867 1.552 1.552 0 0 1-.12.597 1.55 1.55 0 0 1-.845.845 1.561 1.561 0 0 1-.597.12" mask="url(#b)"/>
            <path fill="#000" d="M76.875 61.525c0 1.524-1.216 2.53-3.616 2.993a1.563 1.563 0 0 0-1.267 1.534v3.005h-15.69s.004-1.731.008-2.04c.04-3.289.085-7.016-5.742-8.177a.345.345 0 0 0-.021-.004l-6.752-1.248a1.452 1.452 0 0 0-.116-.017 3.244 3.244 0 0 1-2.899-3.231c0-.868.338-1.684.952-2.298a3.228 3.228 0 0 1 2.298-.951h4.348a1.563 1.563 0 0 0 1.562-1.562V27.996h1.323a1.562 1.562 0 1 0 0-3.125H49.94v-.35a2.428 2.428 0 0 1 2.426-2.426 2.428 2.428 0 0 1 2.425 2.426v15.43a1.563 1.563 0 0 0 3.078.381 1.99 1.99 0 0 1 1.934-1.506h.283c1.1 0 1.995.895 1.995 1.995a1.562 1.562 0 1 0 3.125 0c0-1.1.894-1.995 1.995-1.995a2.28 2.28 0 0 1 2.277 2.278v1.212a1.563 1.563 0 0 0 3.125 0c0-1.1.895-1.996 1.995-1.996a2.28 2.28 0 0 1 2.277 2.278v18.927zm-22.194 15.35h19.422v-4.693H54.68v4.693zm-34.162 0c-9.591 0-17.394-7.803-17.394-17.394 0-9.592 7.803-17.394 17.394-17.394 9.591 0 17.394 7.802 17.394 17.394 0 9.59-7.803 17.394-17.394 17.394zM28.63 24.87v-2.776h18.744a5.515 5.515 0 0 0-.559 2.425v.351H28.63zm-14.315.634c-6.17 0-11.19-5.02-11.19-11.19s5.02-11.19 11.19-11.19 11.19 5.02 11.19 11.19-5.02 11.19-11.19 11.19zM28.63 9.667h46.604V24.87H57.916v-.35c0-.87-.2-1.693-.558-2.426h6.449a1.562 1.562 0 1 0 0-3.125H28.63V9.667zm45.968 27.528c-1.079 0-2.081.336-2.907.908a5.402 5.402 0 0 0-4.49-2.402c-1.38 0-2.636.55-3.558 1.441a5.101 5.101 0 0 0-3.557-1.44h-.283c-.662 0-1.3.126-1.887.358v-8.063h18.88c.863 0 1.563-.7 1.563-1.563V8.104c0-.862-.7-1.562-1.563-1.562H27.068c-.23 0-.45.05-.647.14C23.88 2.67 19.404 0 14.315 0 6.422 0 0 6.422 0 14.315S6.422 28.63 14.315 28.63c4.524 0 8.565-2.11 11.19-5.397v3.2c0 .864.7 1.563 1.563 1.563h19.747v19.97H44.03a6.333 6.333 0 0 0-4.507 1.866c-.205.205-.394.42-.567.647-3.34-6.815-10.35-11.517-18.437-11.517C9.205 38.962 0 48.166 0 59.48 0 70.795 9.205 80 20.52 80c11.15 0 20.252-8.941 20.513-20.03.68.362 1.439.605 2.247.7l6.688 1.237c3.27.654 3.257 1.77 3.217 5.072-.004.322-.008 2.078-.008 2.078h-.058c-.863 0-1.563.7-1.563 1.562v7.818c0 .864.7 1.563 1.563 1.563h22.546c.863 0 1.563-.7 1.563-1.563V70.62c0-.862-.7-1.562-1.563-1.562h-.548v-1.78c4.378-1.324 4.882-4.406 4.882-5.752V42.598a5.408 5.408 0 0 0-5.401-5.403z" mask="url(#b)"/>
        </g>
    </g>
</svg>
