<svg xmlns="http://www.w3.org/2000/svg" xmlns:xlink="http://www.w3.org/1999/xlink" width="100" height="100" viewBox="0 0 100 100">
    <defs>
        <path id="a" d="M0 100h100V0H0z"/>
    </defs>
    <g fill="none" fill-rule="evenodd">
        <path fill="#92E0C0" d="M8.065 37.097h27.419V17.742H8.064z"/>
        <path fill="#0FA196" d="M8.065 37.097h27.419v-6.452H8.064z"/>
        <path fill="#92E0C0" d="M1.613 80.645h33.87V35.484H1.614z"/>
        <path fill="#FEA82F" d="M29.032 41.936c8.908 0 16.13 7.22 16.13 16.129 0 8.907-7.222 16.129-16.13 16.129-8.908 0-16.129-7.222-16.129-16.13 0-8.907 7.221-16.128 16.13-16.128"/>
        <path fill="#FF8031" d="M29.032 70.968c-8.363 0-15.238-6.366-16.048-14.516a16.64 16.64 0 0 0-.08 1.613c0 8.908 7.22 16.129 16.128 16.129 8.908 0 16.13-7.221 16.13-16.13 0-.545-.03-1.082-.081-1.612-.81 8.15-7.686 14.516-16.049 14.516"/>
        <path fill="#8C95A4" d="M88.71 66.13v25.806a6.452 6.452 0 0 1-6.452 6.451H40.323a6.452 6.452 0 0 1-6.452-6.451V8.065a6.452 6.452 0 0 1 6.452-6.452h41.935a6.452 6.452 0 0 1 6.452 6.452V66.129z"/>
        <mask id="b" fill="#fff">
            <use xlink:href="#a"/>
        </mask>
        <path fill="#39C3FC" d="M33.871 85.484H88.71V14.516H33.87z" mask="url(#b)"/>
        <path fill="#148CE0" d="M88.71 38.71H50c-.89 0-1.613.722-1.613 1.613v29.032c0 .89.723 1.613 1.613 1.613h38.71V38.71z" mask="url(#b)"/>
        <path fill="#ECECEC" d="M96.774 66.13H51.613c-.89 0-1.613-.724-1.613-1.614V35.484c0-.89.723-1.613 1.613-1.613h45.161c.89 0 1.613.723 1.613 1.613v29.032c0 .89-.722 1.613-1.613 1.613" mask="url(#b)"/>
        <path fill="#798699" d="M50 46.774h48.387v-6.451H50z" mask="url(#b)"/>
        <path fill="#148CE0" d="M33.871 85.484H88.71v-4.839H33.87z" mask="url(#b)"/>
        <path fill="#000" d="M51.613 93.548h19.355v-3.225H51.613zM38.71 77.42h3.225V29.031H38.71z" mask="url(#b)"/>
        <path fill="#000" d="M51.613 64.516V48.387h45.161l.002 16.13H51.613zm35.484 19.355H35.484V16.129h51.613v16.13H51.613a3.23 3.23 0 0 0-3.226 3.225v29.032a3.23 3.23 0 0 0 3.226 3.226h35.484v16.129zm-4.839 12.903H40.323a4.845 4.845 0 0 1-4.84-4.838v-4.84h51.614v4.84a4.845 4.845 0 0 1-4.839 4.838zM3.226 79.032V37.097h29.032v3.53a17.799 17.799 0 0 0-3.226-.304c-9.782 0-17.742 7.96-17.742 17.742s7.96 17.741 17.742 17.741c1.089 0 2.166-.11 3.226-.304v3.53H3.226zm6.451-45.161h22.581V19.355H9.678V33.87zm22.581 22.877a4.784 4.784 0 0 0-1.613-.296H27.42c-.89 0-1.613-.725-1.613-1.613 0-.889.723-1.613 1.613-1.613h3.226c.89 0 1.613.724 1.613 1.613v1.91zm0-6.451A4.784 4.784 0 0 0 30.645 50v-3.226H27.42V50a4.845 4.845 0 0 0-4.838 4.839 4.845 4.845 0 0 0 4.838 4.838h3.226c.89 0 1.613.725 1.613 1.613 0 .89-.723 1.613-1.613 1.613H27.42c-.89 0-1.613-.724-1.613-1.613h-3.225a4.845 4.845 0 0 0 4.838 4.84v3.225h3.226v-3.226a4.78 4.78 0 0 0 1.613-.297v6.347c-1.056.239-2.13.402-3.226.402-8.005 0-14.516-6.513-14.516-14.516 0-8.004 6.511-14.517 14.516-14.517 1.095 0 2.17.163 3.226.404v6.345zm8.065-47.071h41.935a4.845 4.845 0 0 1 4.839 4.839v4.838H35.484V8.065a4.845 4.845 0 0 1 4.839-4.84zm11.29 41.935h45.161v-3.225H51.613v3.225zm0-6.451h45.161v-3.226H51.613v3.226zm45.161-6.452h-6.451V8.065C90.323 3.618 86.705 0 82.258 0H40.323c-4.447 0-8.065 3.618-8.065 8.065v8.064H6.452v17.742H0v48.387h32.258v9.678c0 4.446 3.618 8.064 8.065 8.064h41.935c4.447 0 8.065-3.618 8.065-8.064V67.742h6.451A3.23 3.23 0 0 0 100 64.516V35.484a3.23 3.23 0 0 0-3.226-3.226z" mask="url(#b)"/>
        <path fill="#000" d="M54.839 61.29h8.064v-3.225H54.84zM9.677 43.548h3.226v-3.225H6.452v6.451h3.225zM12.903 22.58v6.452h3.226v-3.226h3.226v-3.225zM9.677 69.355H6.452v6.451h6.451v-3.225H9.677zM90.323 61.29h3.225v-3.225h-3.225zM83.871 61.29h3.226v-3.225H83.87zM38.71 25.806h3.225v-3.225H38.71z" mask="url(#b)"/>
    </g>
</svg>
