<svg xmlns="http://www.w3.org/2000/svg" xmlns:xlink="http://www.w3.org/1999/xlink" width="100" height="100" viewBox="0 0 100 100">
    <defs>
        <path id="a" d="M0 .126h56.11V62.5H0z"/>
    </defs>
    <g fill="none" fill-rule="evenodd">
        <path fill="#FF8E8E" d="M78.432 11.563h-30c-5.523 0-10 4.477-10 10v12.343c0 5.523 4.477 10 10 10h14.15v5.953l5.952-5.953h9.898c5.523 0 10-4.477 10-10V21.563c0-5.523-4.477-10-10-10"/>
        <path fill="#98E3FF" d="M17.62 30.92l-1.857 2.364c-6.158 7.844-5.485 19.052 1.566 26.104l17.017 17.017c7.052 7.052 18.26 7.724 26.105 1.566l2.364-1.856a4.526 4.526 0 0 0 .406-6.76l-8.65-8.65a4.526 4.526 0 0 0-6.401 0l-2.814 2.814a3.402 3.402 0 0 1-4.812 0L30.208 53.183a3.403 3.403 0 0 1 0-4.812l2.814-2.814a4.526 4.526 0 0 0 0-6.4l-8.643-8.643a4.526 4.526 0 0 0-6.76.405"/>
        <path fill="#FFF" d="M54.57 60.705a4.525 4.525 0 0 0-6.4 0l-2.768 2.769L60.139 78.21c.104-.078.208-.158.312-.239l2.364-1.856a4.526 4.526 0 0 0 .405-6.76l-8.65-8.65zM30.254 48.326l2.768-2.769a4.526 4.526 0 0 0 0-6.4l-8.643-8.643a4.526 4.526 0 0 0-6.76.406l-1.856 2.364c-.08.103-.16.207-.239.312l14.73 14.73z"/>
        <path fill="#FFF" d="M45.705 63.897l14.188 14.188 2.922-1.97a4.526 4.526 0 0 0 .406-6.76l-8.65-8.65a4.526 4.526 0 0 0-6.401 0l-2.465 3.192zM30.201 48.393L16.038 34.23l1.582-3.31a4.526 4.526 0 0 1 6.76-.406l8.643 8.643a4.526 4.526 0 0 1 0 6.4L30.2 48.393z"/>
        <g transform="translate(10 27.5)">
            <mask id="b" fill="#fff">
                <use xlink:href="#a"/>
            </mask>
            <path fill="#000" d="M52.978 45.233a2.927 2.927 0 0 1-1.128 2.153l-1.65 1.296L37.55 36.033l1.724-1.723a2.966 2.966 0 0 1 4.19 0l8.65 8.65c.608.608.915 1.415.863 2.273zM25.451 47.8L8.434 30.783C2.487 24.837 1.473 15.658 5.71 8.611l12.457 12.457a4.943 4.943 0 0 0-.518 2.21c0 1.326.517 2.573 1.455 3.51l10.335 10.336a4.933 4.933 0 0 0 3.511 1.454c.78 0 1.531-.18 2.21-.517l12.464 12.464c-7.047 4.236-16.226 3.222-22.173-2.725zM11.001 3.256a2.924 2.924 0 0 1 2.274.863l8.643 8.643c.56.56.868 1.304.868 2.095 0 .792-.309 1.536-.868 2.095l-1.724 1.724L7.553 6.035l1.295-1.65a2.927 2.927 0 0 1 2.154-1.129zM45.676 32.1a6.095 6.095 0 0 0-8.61 0l-2.814 2.814c-.347.348-.81.54-1.301.54-.491 0-.954-.192-1.301-.54L21.313 24.578a1.828 1.828 0 0 1-.539-1.3c0-.455.166-.884.465-1.22l.067-.06a1.6 1.6 0 0 0 .114-.129l2.708-2.707a6.095 6.095 0 0 0 0-8.61l-8.643-8.643a6.092 6.092 0 0 0-9.094.546L4.535 4.819c-6.64 8.458-5.914 20.57 1.69 28.174L23.242 50.01a21.235 21.235 0 0 0 15.048 6.225c3.719 0 7.45-.971 10.783-2.936 1.01 1.248.954 2.735.528 3.763-.464 1.118-1.616 2.313-3.462 2.313H35.706a1.562 1.562 0 1 0 0 3.125h10.433c2.832 0 5.265-1.625 6.349-4.242.955-2.306.624-4.809-.839-6.741l2.131-1.673a6.093 6.093 0 0 0 2.318-4.425 6.092 6.092 0 0 0-1.772-4.67l-8.65-8.649z" mask="url(#b)"/>
        </g>
        <path fill="#000" d="M23.516 55.802a1.563 1.563 0 0 0-2.21 2.21l9.429 9.428c.305.306.705.458 1.105.458s.8-.152 1.104-.458c.61-.61.61-1.6 0-2.21l-9.428-9.428zM36.743 69.676c-.411 0-.814.167-1.105.458-.29.29-.458.694-.458 1.105 0 .41.168.814.458 1.104.29.291.693.458 1.105.458.41 0 .814-.167 1.105-.458.29-.29.457-.693.457-1.104 0-.411-.167-.814-.457-1.105a1.574 1.574 0 0 0-1.105-.458M86.87 33.906c0 4.653-3.786 8.438-8.438 8.438h-9.898c-.414 0-.812.164-1.105.457l-3.285 3.285v-2.18c0-.863-.7-1.562-1.562-1.562h-14.15c-4.652 0-8.438-3.785-8.438-8.438V21.563c0-4.653 3.786-8.438 8.438-8.438h30c4.652 0 8.437 3.785 8.437 8.438v12.343zM78.431 10h-30c-6.376 0-11.563 5.187-11.563 11.563v12.343c0 6.376 5.187 11.563 11.563 11.563h12.587v4.39a1.563 1.563 0 0 0 2.668 1.105l5.494-5.495h9.25c6.376 0 11.563-5.187 11.563-11.563V21.563C89.994 15.186 84.807 10 78.432 10z"/>
        <path fill="#000" d="M53.672 31.797h-3.293c1.88-1.812 3.788-4.195 3.788-6.41 0-2.895-1.945-4.84-4.84-4.84a4.846 4.846 0 0 0-4.84 4.84 1.563 1.563 0 0 0 3.125 0c0-.946.77-1.715 1.715-1.715 1.538 0 1.715.978 1.715 1.715 0 1.71-3.518 5.008-5.896 6.698a1.563 1.563 0 0 0 .904 2.837h7.622a1.563 1.563 0 0 0 0-3.125"/>
        <path fill="#000" d="M61.476 25.023c-.863 0-1.563.699-1.563 1.562v1.091h-1.528l2.727-4.794a1.562 1.562 0 1 0-2.716-1.545l-4.055 7.129a1.563 1.563 0 0 0 1.358 2.335h4.214v2.558a1.563 1.563 0 0 0 3.125 0v-6.774c0-.863-.7-1.563-1.562-1.563M71.575 20.651a1.562 1.562 0 0 0-2.02.897l-4.327 11.25a1.563 1.563 0 0 0 2.916 1.122l4.328-11.25a1.562 1.562 0 0 0-.897-2.019M80.814 20.547H75.32a1.562 1.562 0 1 0 0 3.125h3.245l-3.402 9.143a1.562 1.562 0 1 0 2.929 1.09l4.186-11.25a1.562 1.562 0 0 0-1.464-2.108M37.277 83.457a1.563 1.563 0 0 0-2.21 2.21l3.875 3.875a1.558 1.558 0 0 0 2.21 0c.61-.61.61-1.6 0-2.21l-3.875-3.875zM29.369 83.457a1.563 1.563 0 0 0-2.21 2.21l3.875 3.875a1.558 1.558 0 0 0 2.21 0c.61-.61.61-1.6 0-2.21l-3.875-3.875zM21.46 83.457a1.563 1.563 0 0 0-2.21 2.21l3.875 3.875a1.558 1.558 0 0 0 2.21 0c.61-.61.61-1.6 0-2.21l-3.875-3.875z"/>
    </g>
</svg>
