<svg xmlns="http://www.w3.org/2000/svg" width="64" height="64" viewBox="0 0 64 64">
    <path fill="#D71416" fill-rule="evenodd" d="M32 60.25C16.423 60.25 3.75 47.577 3.75 32S16.423 3.75 32 3.75 60.25 16.423 60.25 32 47.577 60.25 32 60.25M54.627 9.373C60.671 15.417 64 23.453 64 32c0 8.547-3.329 16.583-9.373 22.627C48.583 60.671 40.547 64 32 64c-8.548 0-16.584-3.329-22.627-9.373C3.329 48.583 0 40.547 0 32c0-8.547 3.329-16.584 9.373-22.627C15.416 3.329 23.453 0 32 0c8.547 0 16.583 3.329 22.627 9.373zm-11.98 9.294L32 29.314 21.352 18.667l-2.685 2.685L29.314 32 18.667 42.648l2.685 2.685L32 34.686l10.648 10.647 2.685-2.685L34.686 32l10.647-10.648-2.685-2.685z"/>
</svg>
