<svg xmlns="http://www.w3.org/2000/svg" width="64" height="64" viewBox="0 0 64 64">
    <path fill="#00BF8F" fill-rule="evenodd" d="M47.288 21.732a1.875 1.875 0 0 0-2.651 0L28.079 38.29l-8.716-8.716a1.875 1.875 0 0 0-2.651 2.652l10.041 10.041c.366.366.846.55 1.326.55.48 0 .96-.184 1.326-.55l17.883-17.883a1.875 1.875 0 0 0 0-2.652M32 60.25C16.423 60.25 3.75 47.577 3.75 32S16.423 3.75 32 3.75 60.25 16.423 60.25 32 47.577 60.25 32 60.25M54.627 9.373C48.583 3.329 40.547 0 32 0 23.452 0 15.416 3.329 9.373 9.373 3.329 15.416 0 23.453 0 32c0 8.547 3.329 16.583 9.373 22.627C15.416 60.671 23.453 64 32 64c8.547 0 16.583-3.329 22.627-9.373C60.671 48.583 64 40.547 64 32c0-8.547-3.329-16.583-9.373-22.627"/>
</svg>
