<svg xmlns="http://www.w3.org/2000/svg" width="24" height="24" viewBox="0 0 24 24">
    <g fill="none" fill-rule="evenodd">
        <path d="M0 0h24v24H0z"/>
        <path fill="#FFF" d="M4.565 19.664h3.13v-3.072h-3.13v3.072zm0-3.841h3.13V12.75h-3.13v3.072zm0-3.839h3.13V8.912h-3.13v3.072zm3.913 7.68h3.13v-3.072h-3.13v3.072zm0-3.841h3.13V12.75h-3.13v3.072zm0-3.839h3.13V8.912h-3.13v3.072zm3.913 7.68h3.13v-3.072h-3.13v3.072zm0-3.841h3.13V12.75h-3.13v3.072zm0-3.839h3.13V8.912h-3.13v3.072zm3.913 7.68h3.13v-3.072h-3.13v3.072zm0-3.841h3.13V12.75h-3.13v3.072zm0-3.839h3.13V8.912h-3.13v3.072zM3 20.431c0 .425.351.768.782.768h16.434a.775.775 0 0 0 .783-.768V7.376H3V20.43zM17.086 4.304v1.537h-.002V2H15.52v2.304H8.479v1.537V2H6.914v3.84-1.536H3v2.303h18V4.304h-3.914z"/>
    </g>
</svg>
