<svg xmlns="http://www.w3.org/2000/svg" width="24" height="24" viewBox="0 0 24 24">
    <g fill="none" fill-rule="evenodd">
        <path d="M0 0h24v24H0z"/>
        <path fill="#00BF8F" d="M20.847 9.82a.55.55 0 0 1-.498-.331l-.014.004c-1.076-3.678-4.443-6.372-8.426-6.372-3.996 0-7.37 2.708-8.436 6.403H3.4l1.538.439-2.828 2.225L1 8.84l1.395.399C3.583 5.059 7.391 2 11.907 2c4.437 0 8.189 2.952 9.445 7.015a.229.229 0 0 1 .016.055c0 .003.002.006.003.008a.564.564 0 0 1-.524.742M2.733 14.175a.56.56 0 0 1 .533.416h.005c1.1 3.635 4.445 6.292 8.396 6.292 3.962 0 7.316-2.67 8.408-6.315l-1.515-.433 2.824-2.227 1.11 3.346-1.349-.383c-1.219 4.125-5.002 7.133-9.483 7.133-4.483 0-8.268-3.015-9.483-7.151l.011-.007a.564.564 0 0 1 .543-.671m14.235-1.26H13.59l-3.071 4.87h-1.23l1.537-4.87h-3.38l-.92 1.218h-.921l.613-2.131-.613-2.131h.921l.92 1.217h3.38l-1.537-4.87h1.23l3.071 4.87h3.378c.511 0 .922.41.922.914a.916.916 0 0 1-.922.914"/>
    </g>
</svg>
