<svg xmlns="http://www.w3.org/2000/svg" width="40" height="40" viewBox="0 0 40 40">
    <g fill="none" fill-rule="evenodd">
        <rect width="40" height="40" fill="#E74C3C" rx="20"/>
        <path fill="#FFF" d="M27.7 20.006l-1.287 1.203 1.159 3.87-.65.648a.183.183 0 0 1-.257 0l-1.726-3.138-1.588 1.566.252 1.234-.404.405a.137.137 0 0 1-.194 0l-2.287-2.287a.137.137 0 0 1 0-.194l.404-.405 1.212.247 1.567-1.594-3.116-1.715a.182.182 0 0 1 0-.257l.649-.65 3.843 1.151 1.211-1.294c.354-.354.912-.37 1.247-.036.333.335.317.893-.036 1.246zm-13.947-1.73h1.671v-1.439h-1.67v1.438zm0 2.875h1.671v-1.438h-1.67v1.438zm0 2.876h1.671v-1.438h-1.67v1.438zm0 2.876h1.671v-1.438h-1.67v1.438zm16.64-11.364H9.579c-.87 0-1.579.572-1.579 1.275v10.112c0 .703.708 1.275 1.58 1.275h20.813c.87 0 1.578-.572 1.578-1.275V16.814c0-.703-.708-1.275-1.578-1.275zm.682-1.604l-.235-1.338c-.19-1.077-1.344-1.775-2.577-1.557l-16.041 2.828h18.17c.235 0 .463.024.683.067z"/>
    </g>
</svg>
