<svg xmlns="http://www.w3.org/2000/svg" width="40" height="40" viewBox="0 0 40 40">
    <g fill="none" fill-rule="evenodd">
        <rect width="40" height="40" fill="#E74C3C" rx="20"/>
        <g fill="#FFF">
            <path d="M18.077 26.156c-4.453 0-8.062-3.612-8.062-8.07 0-4.456 3.609-8.07 8.062-8.07 4.451 0 8.061 3.614 8.061 8.07 0 4.458-3.61 8.07-8.061 8.07zM32 30.574l-6.112-6.118a10.049 10.049 0 0 0 2.265-6.37C28.153 12.517 23.643 8 18.077 8 12.512 8 8 12.516 8 18.087c0 5.57 4.512 10.087 10.077 10.087 2.425 0 4.65-.859 6.39-2.289L30.573 32 32 30.574z"/>
            <path d="M22.343 15.019c.41-.55.656-1.12.657-1.528a.565.565 0 0 0-.077-.312.249.249 0 0 0-.046-.058.262.262 0 0 0-.053-.041.556.556 0 0 0-.316-.08c-.407 0-.977.246-1.527.657-.444.333-.889.801-1.504 1.45l-.33.346-1.191-.357.004-.003a.265.265 0 0 0-.001-.377l-.215-.215a.268.268 0 0 0-.378 0l-.322.322-.17-.051a.26.26 0 0 0 .056-.163.262.262 0 0 0-.078-.19l-.216-.216a.267.267 0 0 0-.377 0l-.296.296-1.21-.363a.32.32 0 0 0-.31.078l-.427.426a.251.251 0 0 0-.075.176.244.244 0 0 0 .13.22l2.547 1.422a.445.445 0 0 1 .062.047l.726.726a28.768 28.768 0 0 0-1.756 2.012l-.127.164-1.97-.179a.364.364 0 0 0-.278.099l-.199.199a.242.242 0 0 0 .067.398l1.387.658a.323.323 0 0 1 .053.039l.115.114a.841.841 0 0 0-.056.266.35.35 0 0 0 .097.256l.005.004.001.001c.066.063.15.096.255.096a.848.848 0 0 0 .265-.055l.116.116c.01.01.031.04.037.052l.657 1.384c.04.088.126.145.22.145h.002a.246.246 0 0 0 .175-.074l.204-.204a.362.362 0 0 0 .096-.268l-.18-1.978.165-.126a28.728 28.728 0 0 0 2.011-1.756l.727.727a.39.39 0 0 1 .047.063l1.42 2.542a.247.247 0 0 0 .397.058l.429-.428a.325.325 0 0 0 .076-.308l-.363-1.211.295-.296a.267.267 0 0 0 0-.377l-.216-.216a.267.267 0 0 0-.352-.022l-.05-.17.321-.322a.269.269 0 0 0 0-.377l-.215-.215a.267.267 0 0 0-.378 0l-.003.001-.356-1.19c.123-.118.24-.23.352-.335.646-.613 1.112-1.056 1.444-1.5"/>
        </g>
    </g>
</svg>
