<svg xmlns="http://www.w3.org/2000/svg" width="16" height="16" viewBox="0 0 16 16">
    <g fill="none" fill-rule="evenodd">
        <path d="M0 0h16v16H0z"/>
        <path fill="#757575" d="M8.494 7.775v-4.45c0-.267-.236-.481-.507-.481a.488.488 0 0 0-.481.48v4.52c0 .009.017.043.017.069a.448.448 0 0 0 .131.387l2.616 2.568a.505.505 0 0 0 .673 0 .457.457 0 0 0 0-.67L8.494 7.775zm5.59 3.54a6.95 6.95 0 0 1-2.572 2.518 6.985 6.985 0 0 1-3.525.927c-.954 0-1.864-.18-2.73-.55a7.16 7.16 0 0 1-2.239-1.468 6.988 6.988 0 0 1-1.496-2.209 6.657 6.657 0 0 1-.55-2.689 6.66 6.66 0 0 1 .935-3.454A6.964 6.964 0 0 1 4.47 1.873 6.938 6.938 0 0 1 7.987.945c1.268 0 2.448.31 3.525.928a6.985 6.985 0 0 1 2.572 2.517 6.622 6.622 0 0 1 .945 3.454 6.682 6.682 0 0 1-.945 3.47zm1.277-6.52c-.843-1.932-2.277-3.337-4.26-4.168A7.99 7.99 0 0 0 7.987 0C6.902 0 5.87.21 4.88.627 2.915 1.456 1.475 2.86.63 4.794A7.518 7.518 0 0 0 0 7.844c0 1.065.206 2.09.63 3.058.845 1.935 2.285 3.348 4.251 4.177.99.417 2.021.626 3.106.626a7.99 7.99 0 0 0 3.114-.626c1.983-.831 3.416-2.244 4.26-4.177A7.567 7.567 0 0 0 16 7.844a7.527 7.527 0 0 0-.639-3.05z"/>
    </g>
</svg>
