<svg xmlns="http://www.w3.org/2000/svg" width="24" height="24" viewBox="0 0 24 24">
    <g fill="none" fill-rule="evenodd">
        <rect width="24" height="24" fill="#F44336" rx="12"/>
        <path fill="#FFF" d="M8.447 16.658h6.592v-9.96H8.447v9.96zm2.197-10.755c0-.077.043-.138.098-.138h2.002c.054 0 .098.062.098.138v.037c0 .077-.044.137-.098.137h-2.002c-.054 0-.098-.062-.098-.137v-.037zm3.662 12.954H9.18s-1.465 0-1.465-1.247V6.39c0-1.247 1.465-1.247 1.465-1.247h5.127s1.465 0 1.465 1.247v11.22c0 1.247-1.465 1.247-1.465 1.247zm-2.54-.47a.623.623 0 1 0-.001-1.245.623.623 0 0 0 0 1.246z"/>
    </g>
</svg>
