<svg xmlns="http://www.w3.org/2000/svg" width="42" height="42" viewBox="0 0 42 42">
    <g fill="none" fill-rule="evenodd">
        <rect width="42" height="42" fill="#2196F3" rx="21"/>
        <path fill="#FFF" d="M29.043 29.043a11.298 11.298 0 0 0 3.105-5.765c-.342.504-.67.69-.872-.437-.209-1.838-1.897-.664-2.959-1.317-1.117.754-3.628-1.464-3.201 1.037.658 1.128 3.555-1.51 2.111.877-.921 1.666-3.368 5.356-3.05 7.268.04 2.787-2.847.581-3.842-.343-.669-1.851-.228-5.088-1.977-5.994-1.9-.083-3.53-.255-4.266-2.379-.443-1.519.471-3.78 2.1-4.13 2.382-1.496 3.233 1.754 5.468 1.815.694-.727 2.585-.957 2.742-1.771-1.466-.26 1.86-1.233-.14-1.788-1.104.13-1.815 1.145-1.228 2.005-2.14.499-2.208-3.095-4.264-1.961-.052 1.792-3.357.58-1.143.217.76-.332-1.24-1.295-.16-1.12.531-.029 2.32-.655 1.836-1.077.995-.618 1.832 1.48 2.806-.047.704-1.175-.295-1.392-1.177-.797-.497-.556.878-1.758 2.09-2.278.405-.173.79-.267 1.086-.24.611.705 1.74.827 1.8-.086A11.333 11.333 0 0 0 21 9.625a11.29 11.29 0 0 0-6.787 2.244c.524.24.822.54.317.922-.393 1.17-1.985 2.739-3.383 2.517a11.25 11.25 0 0 0-1.408 4.076c1.17.387 1.44 1.154 1.19 1.41-.597.52-.964 1.258-1.153 2.065a11.29 11.29 0 0 0 3.18 6.184A11.3 11.3 0 0 0 21 32.375a11.3 11.3 0 0 0 8.043-3.332m1.15-17.235A12.915 12.915 0 0 1 34 21c0 3.472-1.352 6.737-3.808 9.192A12.915 12.915 0 0 1 21 34a12.915 12.915 0 0 1-9.192-3.808A12.915 12.915 0 0 1 8 21c0-3.472 1.352-6.737 3.808-9.192A12.915 12.915 0 0 1 21 8c3.472 0 6.737 1.352 9.192 3.808"/>
    </g>
</svg>
