<svg xmlns="http://www.w3.org/2000/svg" width="32" height="32" viewBox="0 0 32 32">
    <path fill="#00BF8F" fill-rule="evenodd" d="M21.574 11.395a.351.351 0 0 1-.352.351H19.41a.351.351 0 0 1-.352-.351V9.582c0-.194.158-.352.352-.352h1.812c.195 0 .352.158.352.352v1.813zm0 3.659a.351.351 0 0 1-.352.351H19.41a.351.351 0 0 1-.352-.351V13.24c0-.194.158-.351.352-.351h1.812c.195 0 .352.157.352.35v1.814zm0 3.659a.351.351 0 0 1-.352.351H19.41a.351.351 0 0 1-.352-.351V16.9c0-.194.158-.351.352-.351h1.812c.195 0 .352.157.352.35v1.814zm0 3.66a.351.351 0 0 1-.352.35H19.41a.351.351 0 0 1-.352-.35v-1.814c0-.194.158-.351.352-.351h1.812c.195 0 .352.157.352.35v1.814zm-4.391-10.978a.351.351 0 0 1-.352.351H15.02a.351.351 0 0 1-.352-.351V9.582c0-.194.158-.352.352-.352h1.812c.195 0 .352.158.352.352v1.813zm0 3.659a.351.351 0 0 1-.352.351H15.02a.351.351 0 0 1-.352-.351V13.24c0-.194.158-.351.352-.351h1.812c.195 0 .352.157.352.35v1.814zm0 3.659a.351.351 0 0 1-.352.351H15.02a.351.351 0 0 1-.352-.351V16.9c0-.194.158-.351.352-.351h1.812c.195 0 .352.157.352.35v1.814zm0 3.66a.351.351 0 0 1-.352.35H15.02a.351.351 0 0 1-.352-.35v-1.814c0-.194.158-.351.352-.351h1.812c.195 0 .352.157.352.35v1.814zm-4.39-10.978a.351.351 0 0 1-.352.351h-1.813a.351.351 0 0 1-.351-.351V9.582c0-.194.157-.352.351-.352h1.813c.194 0 .351.158.351.352v1.813zm0 3.659a.351.351 0 0 1-.352.351h-1.813a.351.351 0 0 1-.351-.351V13.24c0-.194.157-.351.351-.351h1.813c.194 0 .351.157.351.35v1.814zm0 3.659a.351.351 0 0 1-.352.351h-1.813a.351.351 0 0 1-.351-.351V16.9c0-.194.157-.351.351-.351h1.813c.194 0 .351.157.351.35v1.814zm0 3.66a.351.351 0 0 1-.352.35h-1.813a.351.351 0 0 1-.351-.35v-1.814c0-.194.157-.351.351-.351h1.813c.194 0 .351.157.351.35v1.814zm12.243 3.003h-1.77V8.765a.815.815 0 0 0-.814-.815H9.399a.815.815 0 0 0-.815.815v16.611h-1.77a.815.815 0 0 0-.814.815V27h6.838v-3.33c0-.195.157-.352.351-.352h1.813c.194 0 .352.157.352.351V27h1.143v-3.33c0-.195.157-.352.351-.352h1.813c.194 0 .352.157.352.351V27h6.837v-.809a.815.815 0 0 0-.814-.815zm-3.85-19.561A.815.815 0 0 0 20.37 5h-8.89a.815.815 0 0 0-.815.815v1.129h10.52V5.815z"/>
</svg>
