<svg xmlns="http://www.w3.org/2000/svg" width="36" height="36" viewBox="0 0 36 36">
    <g fill="none" fill-rule="evenodd">
        <path d="M0 0h36v36H0z"/>
        <path fill="#8BC34A" d="M24.145 15.57h1.523v-1.523h-1.523v1.523zm0 3.047h1.523v-1.523h-1.523v1.523zm0 3.047h1.523v-1.523h-1.523v1.523zm-15.336 0h7.77v-1.523h-7.77v1.523zm0-3.047h5.941v-1.523H8.809v1.523zM31 12.523V11h-5.332v1.523h-1.523V11H5v1.523a.763.763 0 0 1 0 1.524v1.523a.763.763 0 0 1 0 1.524v1.523a.763.763 0 0 1 0 1.524v1.523a.763.763 0 0 1 0 1.523v1.524h19.145v-1.523h1.523v1.523H31v-1.523a.763.763 0 0 1 0-1.524v-1.523a.763.763 0 0 1 0-1.524v-1.523a.763.763 0 0 1 0-1.524v-1.523a.763.763 0 0 1 0-1.524z"/>
    </g>
</svg>
