<svg xmlns="http://www.w3.org/2000/svg" width="42" height="42" viewBox="0 0 42 42">
    <g fill="none" fill-rule="evenodd">
        <rect width="42" height="42" fill="#F26522" rx="21"/>
        <path fill="#FFF" d="M16.56 32.74c-.01-.017-.022-.029-.044-.057a1.298 1.298 0 0 0-.053-.066c-.013-.015-.028-.038-.041-.051-.013-.014-.043.016-.06.028-.016.011-.015.02-.025.033-.01.013-.013.013-.023.018-.01.005-.01-.003-.016 0-.007.003-.007.015-.017.035-.01.02-.013.02-.03.024a.101.101 0 0 1-.052.002.814.814 0 0 0-.111 0s-.023.012-.028.025c-.005.013.016.025.021.03.005.005 0 .018 0 .038s.008.016.013.021c.005.005.043.015.09.03.046.015.016.007.033.03.016.023.021.048.03.083.008.034.033.066.048.097.014.032.034.051.046.079.011.027.016.029.02.053.004.025.015.032.013.068-.002.037-.005.053-.012.086-.006.033.02.058.02.068 0 .01.02.032.04.06.02.027.015.011.043.016.029.005.015-.033.015-.035 0-.002 0-.033-.01-.05-.01-.016 0-.01 0-.02s.011-.049.015-.064c.003-.014.01-.06.016-.085a.413.413 0 0 1 .05-.093.157.157 0 0 0 .028-.053c.01-.028.003-.043 0-.051-.003-.009-.013-.017-.014-.032 0-.015-.003-.016 0-.026a.062.062 0 0 0-.01-.043c-.009-.009.004-.04 0-.055-.002-.015 0-.046 0-.063 0-.016.01-.025.024-.033.008-.004-.008-.031-.018-.048zm1.042.701c-.021.016-.075.065-.038.08.038.017.043-.015.065 0 .021.017.043-.01.043-.037 0-.027-.005-.032-.022-.043-.016-.01-.048 0-.048 0zm.604.18c-.024.011-.085.075-.057.096.029.021 0 .042.057.037a.068.068 0 0 0 .065-.066c0-.013.01.018 0-.013-.009-.032-.065-.053-.065-.053zm-.446.344s-.077-.024-.084 0c-.007.024-.047.039-.016.078.032.038.022.048.045.043.022-.005.035-.024.055-.039.02-.014.025-.038.02-.053-.004-.015-.02-.03-.02-.03zm3.555.728c.002-.013-.042-.035-.055-.055-.013-.02-.032-.026-.04-.03-.006-.005-.068-.038-.057 0 .01.037.054.081.058.096.004.016.014.025.017.036.004.01.01.035.033.024.022-.011.04-.02.044-.033.004-.013 0-.038 0-.038zm.72-.414c-.022-.03-.103-.088-.108-.057-.006.031.021.052.037.078.016.026.07.031.07.046v-.067zm-.06-.109c-.005-.031-.014-.028-.044-.057-.03-.03-.032-.035-.041-.04-.01-.006-.048-.027-.048 0 0 .025.015.045.033.074.018.03.009.04.034.044.025.002.04.002.049 0 .009-.003.018-.02.018-.02zm.286-.573a.183.183 0 0 1 .016.055c.002.014-.027.018 0 .025.026.006.024.017.057 0 .033-.018.031-.033.055-.049a.12.12 0 0 0 .047-.053.159.159 0 0 0 .022-.064c.002-.022.004-.024-.027-.042-.03-.017-.04-.024-.071-.044-.03-.02-.041-.029-.057-.035-.015-.007-.017.002-.042-.013l-.05-.031c-.022-.013-.033-.013-.064-.027-.031-.013-.108-.03-.13-.044-.023-.013-.089-.033-.113-.046a.738.738 0 0 0-.1-.044c-.037-.013-.059-.018-.08-.027-.023-.009-.038-.013-.052-.024a.242.242 0 0 0-.064-.03c-.024-.01-.03-.023-.063-.023-.034 0-.062-.002-.071 0l-.053.011c-.038.007-.033.011-.073.011-.04 0-.12 0-.127-.002a.772.772 0 0 0-.096.03s.007.02.025.027c.017.007.08.014.117.01a.391.391 0 0 1 .125.004c.029.008.08.055.11.086.031.03.287.368.307.394.02.027.031.053.117.086.086.034.205.082.232.073.026-.009.046-.037.055-.066.009-.029.01-.066.02-.086.008-.02.006-.022.017-.042l.011-.02zm5.975-5.033c-.004-.022.005-.044-.035-.053-.04-.009-.03-.002-.062-.011-.03-.009-.068-.007-.055.018.014.024.055.066.062.072.007.007.027.027.057.049.031.022.042.03.058.035.015.005.028-.004.03-.017.003-.014.012-.02 0-.034l-.02-.028c-.01-.018-.035-.031-.035-.031zm.17-2.17c-.015-.023-.101-.017-.101 0 0 .015-.033.07 0 .074.032.006.043 0 .043 0s.064.032.059.003c-.006-.03 0-.078 0-.078zm-.152-1.04c-.019-.025-.075 0-.075 0s-.018-.004-.025.037c-.008.042-.038.063 0 .078.037.016.048.005.074-.02.026-.027.04-.068.04-.068l-.014-.026zM26.043 9.032c-.01-.007-.096-.04-.103-.063-.006-.024-.02-.037-.03-.053-.01-.017-.013-.02-.032-.04-.02-.02-.06-.043-.077-.053-.016-.01-.06-.023-.069-.026-.01-.004-.096-.01-.106 0-.01.01-.136.036-.149.043-.013.006-.056.016-.07.02-.013.003-.056.013-.092.03-.036.016-.093.03-.106.036a.242.242 0 0 1-.096.026c-.04 0-.082-.02-.082-.02s-.047-.036-.06-.04a.289.289 0 0 0-.06.004s-.02-.009-.04.015l-.042.054s-.027.01-.033 0c-.007-.01-.05-.011-.05-.054 0-.042-.05-.14-.053-.15-.003-.01-.053-.07-.08-.07-.026 0-.069.03-.082.036-.013.007-.086.033-.09.023a3.86 3.86 0 0 0-.195-.162s-.079-.053-.082-.07c-.004-.016-.017-.022-.017-.055 0-.034-.013-.077-.03-.087-.016-.01-.056-.05-.066-.052-.01-.004-.03-.01-.066 0-.036.01-.06.026-.086.026-.026 0-.05 0-.073-.017-.023-.016-.076-.04-.092-.062-.017-.024-.063-.063-.083-.083-.02-.02-.073-.053-.086-.063-.013-.01-.056.003-.076 0-.02-.003-.043.02-.056.023-.014.003-.043.017-.043-.013s-.05-.232-.044-.251c.007-.02-.007-.166 0-.199s-.002-.165-.002-.218c0-.053.007-.093 0-.136-.007-.043 0-.09-.017-.122l-.037-.07s-.023.017-.036 0a.368.368 0 0 0-.076-.06.098.098 0 0 1-.047-.05c-.006-.022-.02-.035-.02-.045 0-.01-.01-.034 0-.057s.017-.053.017-.053.007-.033.02-.043c.013-.01.023-.026.043-.026.02 0 .03-.003.053 0s.043-.013.066-.027c.023-.013.023-.013.036-.033.014-.02.024-.033.037-.07.013-.035.03-.088.04-.112.01-.023.01-.062.016-.079l.013-.036.017-.05.013-.086-.016-.023s-.03-.013-.047-.027c-.016-.013-.096-.056-.112-.072a.671.671 0 0 0-.056-.05 5.919 5.919 0 0 1-.06-.046h-.02l-.043-.033s-.026-.01-.066 0c-.04.01-.129.036-.129.036s-.208.033-.218.03c-.01-.004-.096 0-.12-.004-.023-.003-.03.01-.062-.013-.033-.023-.066-.043-.09-.07a.33.33 0 0 0-.149-.1c-.023-.002-.06.018-.089.001-.03-.016-.136-.023-.145-.026-.01-.003-.07 0-.07 0s-.007-.003-.026.013c-.02.017-.073.047-.083.053-.01.007-.017.02-.027.027-.01.006-.02.04-.046.04s-.076-.004-.1-.03c-.022-.027-.161-.126-.168-.136-.007-.01-.09-.09-.1-.096a.352.352 0 0 0-.092-.033c-.053-.013-.063.006-.09 0a1.212 1.212 0 0 1-.151-.06.832.832 0 0 1-.126-.109l-.08-.129c-.013-.023-.03-.056-.05-.076-.019-.02-.049-.043-.049-.043s-.016 0-.033-.033c-.016-.033-.01-.033-.04-.06-.03-.026-.046-.03-.072-.053-.027-.023-.04-.026-.07-.056-.03-.03-.033-.023-.043-.046-.01-.023-.01-.037-.03-.06-.02-.023-.033-.03-.052-.026a.087.087 0 0 0-.053.036c-.01.017-.027.066-.027.066s-.023.03-.043.047c-.02.016-.04.04-.066.043a.74.74 0 0 0-.122.033c-.024.01-.103.023-.116.03-.014.006-.047.026-.063.036-.017.01-.066.033-.066.033s-.03.013-.053.017a1.044 1.044 0 0 0-.202.043c-.02.016-.126.076-.132.086-.007.01-.05.06-.06.089l-.066.179c-.013.036-.023.099-.04.142a.592.592 0 0 1-.08.129c-.012.013-.118.092-.128.102-.01.01-.096.073-.096.073s-.033.03-.07.03c-.036 0-.152.003-.165.01-.013.007-.04.036-.056.053a.885.885 0 0 0-.06.07c-.007.01-.02.04-.04.062-.02.023-.04.053-.056.066-.016.014-.023.017-.06.027-.036.01-.062.007-.082.007-.02 0-.013.013-.06-.004a.462.462 0 0 1-.08-.033c-.009-.007-.052-.013-.065-.046-.013-.033-.023-.043-.033-.06-.01-.016-.007-.04-.03-.066-.023-.026-.113-.026-.136-.02-.023.007-.135.076-.135.076s-.086.076-.096.09c-.01.013-.05.063-.053.089-.004.026-.09.122-.096.136-.007.013-.033.053-.043.079-.01.026-.027.066-.03.1-.003.032-.023.134-.023.164s.026.083-.027.077c-.053-.007-.109-.017-.129-.05-.02-.033-.109-.086-.122-.112-.013-.027-.116-.103-.126-.13-.01-.026-.1-.112-.126-.138a.328.328 0 0 0-.092-.067c-.017-.003-.056-.023-.08-.013-.023.01-.04.06-.04.096a.773.773 0 0 1-.036.142s-.023.077-.026.096c-.003.02-.046.106-.056.1-.01-.007-.06.016-.076.02-.017.003-.037.005-.047-.02-.01-.027-.033-.07-.026-.103.006-.033-.006-.063-.001-.086.004-.023.02-.06-.001-.083a.232.232 0 0 1-.055-.092c-.013-.043-.023-.02-.04-.076-.016-.057-.032-.063-.032-.093s-.01-.09-.02-.1c-.01-.01-.076-.069-.123-.02a.61.61 0 0 0-.092.12 1.337 1.337 0 0 1-.037.106c-.01.023-.033.053-.046.056a2.458 2.458 0 0 0-.142.053c-.013.007-.05.056-.046.096.003.04.016.136 0 .162-.017.027-.007.07-.034.09a.505.505 0 0 1-.115.062 1.02 1.02 0 0 1-.11.01.311.311 0 0 1-.092-.02.465.465 0 0 0-.1-.023.362.362 0 0 1-.089-.013c-.01-.007-.053-.02-.06-.047-.006-.026-.02-.066-.02-.105 0-.04-.016-.156-.019-.185-.003-.03-.017-.05-.053-.083s-.053-.033-.076-.05c-.023-.016-.086-.063-.162-.073-.076-.01-.13.007-.162 0a1.253 1.253 0 0 0-.169-.01c-.05 0-.165-.01-.218-.01-.053 0-.13.01-.14.047-.01.036-.03.09-.04.126l-.019.072a.246.246 0 0 1-.04.09c-.023.026-.033.046-.05.07-.016.022-.036.045-.055.072-.02.026-.116.106-.113.129.003.023.268.443.278.457.01.013.152.178.165.201.014.024.1.024.16.09.059.066.112.135.122.155.01.02.086.106.089.12a.48.48 0 0 1 .01.072c0 .017.01.1.013.13.003.029.017.118.043.122.027.003.06.013.093.003.033-.01.03 0 .06-.017.03-.016.032-.023.049-.053a.726.726 0 0 0 .05-.102c.01-.03-.01-.04.023-.08s.063-.043.073-.03c.01.014-.004.007.016.054.02.046.046.115.046.115l.076.02c.014.004.06.007.073.017.013.01.043.003.06.066.016.063.01.073.01.126a.554.554 0 0 1-.017.162c-.013.026-.026.07-.04.073-.013.003-.092.033-.105.036a.27.27 0 0 0-.093.046c-.017.02-.04.027-.033.06.007.033-.003.083.013.083.017 0 .046-.014.06 0a.112.112 0 0 1 .03.046c.006.02.013.033-.004.076a.888.888 0 0 1-.073.155c-.01.004-.033 0-.04.017-.006.017-.042.056-.02.086.024.03.047.046.067.063.02.016.046.016.056.056.01.04.013.076.023.1.01.023.027.075.043.112.017.036.03.063.06.07a.93.93 0 0 1 .1.03c.016.006.012.016.039.059.026.043.03.063.056.106.027.043.073.135.106.178a.631.631 0 0 0 .172.133c.04.016.126.056.182.066.056.01.132.023.179.026.046.003.066.023.082 0 .017-.023.017-.036.033-.036.017 0 .05.02.053.03.004.01.004.02.004.036 0 .016-.007.033.01.05.016.016.132.072.152.082.02.01.09.06.116.076.026.017.066.06.079.083.013.023.01.05.056.06.047.01.04.01.08 0s.053-.004.053-.057c0-.052-.01-.046.013-.096s.02-.062.036-.082c.017-.02.033-.073.047-.083.013-.01-.01-.013.036-.033.046-.02.056-.023.106-.04.05-.016.165-.082.238-.092.073-.01.156-.076.189-.096a.652.652 0 0 1 .165-.05c.02 0 .096.01.136.027.04.016.139.076.172.102.033.027.046.02.08.073.032.053.006.036.052.09.046.052.07.098.103.108.033.01 0-.013.056.02s.066.033.076.056c.01.024.043.053.056.07.013.017.053.04.086.063.033.023.013-.033.033.023.02.056.047.179.043.205-.003.027-.043.086-.046.106-.003.02-.026.04-.046.05-.02.01-.083-.014-.11 0-.026.013-.069-.009-.079.002-.01.01-.01-.006-.033.024s-.04.03-.046.053c-.007.023-.017.033-.017.056s-.033.03.01.06c.043.03.04.036.086.05.046.013.05.02.103 0 .053-.02.033-.057.086-.03.053.026.096.086.145.109.05.023.096.07.106.073.01.003.037.053.04.102a.2.2 0 0 0 .09.142c.052.037.168.133.201.143.033.01.096-.007.126 0 .03.006.073.03.096.063.023.033.06.079.06.119a.63.63 0 0 1-.017.158.167.167 0 0 1-.063.083.753.753 0 0 1-.126.053c-.036.01-.112.023-.129.043-.017.02-.056.023-.066.073-.01.05-.013.09.01.142.023.053-.04.123-.066.142-.027.02-.123.06-.15.086a.763.763 0 0 0-.108.13c-.03.05-.01.082-.067.082-.056 0-.195-.02-.221-.02-.027 0-.083-.04-.113-.079-.03-.04-.09-.076-.139-.046-.05.03-.072.043-.106.043-.033 0-.148-.023-.172-.023-.023 0-.092-.037-.112-.04a2.814 2.814 0 0 0-.13-.017c-.01 0-.052-.016-.065-.01-.014.007-.043.027-.053.027-.01 0-.093-.04-.11-.04-.016 0-.036.01-.033.043a.801.801 0 0 0 .113.182c.03.04.076.1.066.126-.01.026-.086.086-.109.109-.023.023-.116.073-.116.073s-.01-.037-.03-.017a.24.24 0 0 0-.06.083c-.006.026-.032.053-.059.07-.026.016-.08.02-.082.049-.004.03.006.056.052.086l.096.06c.024.013.192.092.212.099.02.007.116.02.15.046.032.027.204.242.227.258.024.017.212.189.275.238.063.05.155.093.189.123.033.03.105.07.129.102a.765.765 0 0 0 .182.116c.03.013.062.027.086.05.023.023.066.083.099.116s.083.082.122.089c.04.007.11.026.142.02.034-.007.103.003.14.001.036-.001.036-.004.085.029.05.033.12.089.143.109.023.02.043.04.063.043.02.003.066.006.089.046.023.04.066.056.073.08.006.023-.004.06-.014.069-.01.01-.056-.01-.069.026-.013.037-.02.176-.02.206s.004.079.013.092c.01.013.033.053.047.073.013.02.072.132.086.159.013.026.066.122.082.142.017.02.004.027.05.033.046.007.066 0 .096.03s.026.05.053.076c.026.027.07.066.093.076.023.01.082-.003.102 0 .02.003.023-.006.07.004.046.01.08.026.092.052.014.027.047.163.063.172.017.01.053.017.063.05.01.033.02.07.03.076.01.007.033.013.053.017.02.003-.007-.047.02.003.026.05-.007.195-.004.245.004.05.198.388.22.406.022.017.077.064.11.08.033.015.104.039.135.076.03.038.525.596.525.596s.211.203.218.205c.006.002.104 0 .134 0 .031 0 .053.004.053.033s-.013.029.005.066c.017.038.022.042.033.07.01.03.137.323.137.323s.064.075.09.092c.026.018.08.045.08.045s.046-.011.083-.011c.038 0 .066-.014.073.01.007.025.004.042.007.062.002.02-.014.022-.014.058 0 .035-.03.139-.024.192.007.052.035.233.042.258.007.024.033.101.038.11.004.009.03.053.044.064.013.01.077.03.094.05.018.02.03.027.031.056.003.028-.013.062-.006.086.006.024-.005.042.03.088.036.046.025.075.069.088.044.013.068.022.106.011a.11.11 0 0 0 .068-.064 1.45 1.45 0 0 1 .029-.066c.004-.009-.002-.022.024-.044.027-.022.075-.024.102-.015.026.008.015.015.017.048.003.033.011.09.016.121.004.031 0 .03.03.056.032.026.034.02.051.06.018.039.031.045.04.065.009.02.03.058.05.069.02.01.063.015.08.02.018.004.055.024.064.026l.088.011.106.07s-.004-.03.022.038a.624.624 0 0 1 .038.113c0 .008-.02.044.002.07.022.027.09.06.132.082.042.022.133.053.19.092.057.04.073.047.11.07.038.025.108.054.128.074.02.02.042.026.047.042.004.015.008.008.006.046a1.783 1.783 0 0 1-.013.123.18.18 0 0 1-.035.086c-.016.016-.04.056-.078.058a.996.996 0 0 0-.16.029c-.05.013-.1.022-.11.041-.012.02-.007.036-.016.053-.01.018-.013.027-.027.033-.013.007-.009.027-.053.034-.044.006-.053-.011-.057.02-.004.03-.011.044.011.059s.062.03.093.046c.03.016.042.002.061.058.02.055.051.101.056.14.004.04.04.07.057.091.018.022.03.033.048.06.018.026.062.09.069.112.006.022.026.053.048.058.022.004.049.01.075.01.027 0 .06.016.075.023.016.006.064.066.1.095.035.028.07.037.094.044.025.006.089.015.102.044.013.028.029.06.042.095.013.035.024.048.026.068.002.02-.004.053.024.068.03.016.071.036.08.044.009.01.029.038.024.062a.128.128 0 0 1-.048.064c-.01.002-.106.016-.124.038-.017.022-.029.042-.026.072.002.031 0 .073-.007.102-.007.029-.035.055-.075.068-.04.014-.13.055-.152.062a.157.157 0 0 0-.062.04c-.011.013-.037.04-.033.08l.011.096c.002.011.007.02.042.033.035.014.112.038.121.058.01.02.022.064.018.077-.005.013-.018.024-.033.035-.016.011-.04.005-.053.049-.013.044-.031.16-.031.19 0 .028-.02.163-.02.18 0 .018.013.128.007.159-.007.03-.055.044-.058.07-.002.027-.01.051-.008.071.002.02-.01.064-.02.075a.379.379 0 0 0-.053.093.357.357 0 0 1-.038.084c-.01.015-.024.042-.053.042-.028 0-.04.015-.05.04-.011.024-.042.048-.053.072-.011.024-.038.024-.038.055s.013.053.018.077c.004.025.006.025-.009.062-.015.038-.046.166-.066.183-.02.018-.046.033-.042.075.004.042.002.05.013.09.011.04.018.065.011.087-.006.022-.037.017-.015.06.022.041.035.059.066.07.03.01.055-.009.08.017.024.027.03.022.03.056 0 .033-.004.075.007.09.01.015.01.024 0 .049-.011.024-.027.035-.011.057.015.022.024.022.015.042-.009.02-.026.024-.026.05 0 .027.002.053.04.075.037.023.116.062.132.075.015.014.006-.01.042.082.035.093.11.322.117.349.006.026.006.101.009.136.002.036-.005.25-.005.296 0 .046-.07.194-.097.247-.026.053-.192.36-.205.406a.516.516 0 0 0-.018.203c.013.055.042.183.062.22.02.038.04.013.053.086a.779.779 0 0 1 .02.155c-.002.03.002.042.006.061.005.02.01.031.007.049-.002.018-.022.029-.002.053.02.024.022.03.022.062 0 .03-.024.06-.013.08.01.019.028.041.008.056-.02.016-.044.003-.035.047.009.044.033.077.016.106-.018.028-.097.057-.082.117.015.06.015.097-.002.108-.018.01-.19.112-.205.127-.016.016.01.069-.038.064-.048-.004-.057-.01-.064-.037-.006-.027-.004-.053-.037-.057-.033-.005-.04.004-.07-.016-.032-.02-.056-.046-.08-.037a.687.687 0 0 1-.084.024c-.038.009-.08.004-.095.015s-.02.02-.033.03c-.013.008-.02.003-.042 0-.022-.005-.064-.02-.07.006a.084.084 0 0 1-.042.055c-.02.01-.036.042-.04.06-.005.017-.049.035-.06.037-.01.002-.022.002-.026.03-.005.03.013.056-.013.065-.027.009-.044-.014-.049 0-.004.013.007.048-.018.055-.024.006-.061-.011-.072.022-.011.033-.029.05-.066.06-.038.008-.062-.025-.073-.014-.011.011-.027.027-.06.036-.033.008-.06-.02-.086-.018-.026.002-.042.012-.08.02-.037.006-.083-.033-.096-.033-.014 0-.042-.017-.062.033-.02.05-.035.077-.046.101-.011.025-.014.035-.06.066s-.035.069-.09.038c-.056-.031-.073-.035-.097-.007-.025.029-.058.034-.095.018-.038-.016-.122-.005-.122-.005s-.042-.006-.048-.02c-.007-.013-.016-.02-.033-.004-.018.016-.013.05-.038.024-.024-.026-.024-.06-.057-.055-.033.005-.033.027-.046.036-.014.008-.038-.016-.051.004-.013.02-.038.024-.007.08.031.055.073.12.075.14.002.02.018.023-.02.06-.037.038-.088.066-.07.117.017.05.033.053.048.097.016.044.047.073.02.1-.026.026-.084.024-.103.008-.02-.015-.022-.046-.056-.03-.033.015-.041.05-.079.042-.037-.01-.086-.032-.104-.036-.017-.004-.024.029-.044-.007a.163.163 0 0 0-.053-.066c-.026-.02-.035-.03-.068-.035-.033-.005-.038-.009-.086-.024-.049-.016-.064-.014-.088-.016-.025-.002-.066-.002-.073-.013-.007-.011-.016-.035-.035-.04l-.067-.015s-.022-.025-.052-.016c-.031.01-.069.01-.08.062-.011.053.005.066-.029.097-.033.031-.013.07-.041.073l-.075.007c-.036.002-.076.004-.082-.005-.007-.009-.022-.03-.05-.015-.03.015-.127.066-.135.086a.203.203 0 0 0 .02.132c.024.04.052.049.068.064.015.015.015.062.024.097.009.035.011.042.005.073-.007.03.004.046.01.064.007.017.014.026.007.055-.006.029.007.08.002.115-.004.035-.004.066-.01.095-.007.028.006.055.015.07.009.015-.007.015.02.046.026.031.037.011.042.047.004.035-.027.026.022.048a.591.591 0 0 0 .097.038c.03.009.053-.005.061.017a.968.968 0 0 0 .064.126c.022.033.069.07.09.082.023.01.003.015.045.022.042.006.062-.009.082-.009.02 0 .04-.032.055.01.015.043.02.014.037.078.018.064.027.058.016.095-.011.038-.027.035-.038.055-.01.02-.02.011-.055.044s-.02.036-.009.082c.011.046.035.04.049.088.013.049.033.055.037.108.005.053.029.073-.004.062-.033-.011-.027-.027-.06-.033-.033-.007-.035-.009-.075-.002-.04.006-.064-.007-.095-.018-.03-.011-.077-.018-.09-.035-.013-.018-.024-.042-.06-.051-.035-.009-.06.011-.075-.022s-.048-.115-.072-.106c-.025.009-.02.03-.056.073-.035.042-.057.057-.072.04a.332.332 0 0 1-.04-.071c-.007-.015-.038-.013-.044-.05-.007-.038-.02-.065-.02-.065s-.02-.022-.024-.037a.39.39 0 0 0-.055-.08c-.011-.01-.018-.044-.049-.053-.03-.008-.055.005-.07.01-.016.004-.089.015-.095.02-.007.004-.036.034-.064.041-.029.007-.038.011-.089.018l-.134.015c-.044.005-.08.002-.113.009-.033.007-.04.007-.052.007-.014 0-.016-.01-.042-.01h-.027s.009.012-.033-.008-.066-.027-.068-.007c-.003.02.008.02-.014.055-.022.036-.002.036-.04.047-.037.01-.061.01-.07.024-.009.013-.006.044-.03.055-.025.011-.043.022-.073 0-.031-.022-.064-.046-.089-.048a.257.257 0 0 0-.06 0c-.01.002-.037.004-.054-.007a.493.493 0 0 0-.089-.035c-.017-.005-.061-.02-.083-.02-.023 0-.067.004-.097.006-.031.003-.049-.022-.071.01-.022.03-.075.05-.055.099.02.048.057.14.062.205.004.064 0 .108-.036.128-.035.02-.095.028-.132.055-.038.026-.057.028-.088.057-.031.029-.064.042-.082.07l-.042.07c-.029.045-.037.08-.08.087-.041.007-.072-.002-.114 0-.042.002-.048-.004-.108.003-.06.006-.062-.004-.106 0s-.07.002-.093-.01c-.022-.01-.064-.037-.09-.037a.152.152 0 0 0-.057.011c-.011.005-.053.005-.07.016-.019.01-.036.044-.043.053a.153.153 0 0 1-.046.03c-.016.007-.027.031-.033.04-.007.009-.002.016-.04.031-.037.015-.04.024-.07.044l-.031.02-.016.037s-.013.01-.006.027c.006.018-.016.04.026.042.042.002.062-.018.07-.02.01-.002.012-.006.025.02.013.026.066.08.064.093-.002.013-.02.033.004.041.025.01.07.034.082.064a.58.58 0 0 1 .024.113c.007.046-.006.075 0 .115.007.04.068.053.084.053.015 0 .035-.025.112-.069.078-.044.108-.064.15-.04.042.025.126.069.146.095.02.027.029.038.057.069.029.03.042.026.07.055.03.028.016.04.047.048.031.01.128-.009.174 0a.193.193 0 0 1 .102.051.532.532 0 0 1 .088.115c.013.028.073.055.075.09a.44.44 0 0 1-.002.097c-.004.016-.004.051-.02.038-.015-.013-.015-.02-.035-.029-.02-.009-.029-.02-.044 0-.016.02-.15.097-.157.104-.007.006-.022.015-.035.028-.013.014-.024.038-.047.049a.122.122 0 0 1-.066.015c-.03 0-.044-.017-.068.011a.714.714 0 0 0-.064.095c-.011.02-.024.031-.024.05v.047c0 .022-.007.005-.016.047a1.412 1.412 0 0 0-.017.134c0 .007-.007.044-.01.062-.001.018-.008.009-.008.033s-.029.075-.024.101c.004.027.009.04.004.069-.004.028-.004.13-.009.154-.004.024-.05.135-.055.157-.004.022-.02.18-.02.18v.36c0 .027-.015.093-.015.106 0 .013.007.095.009.115.002.02-.01.088-.01.099 0 .011.025.018.025.042 0 .024-.017.04-.022.055a.388.388 0 0 0-.01.073c0 .018-.012.022-.016.042-.005.02-.003.05-.003.075 0 .024.003.086.014.099.01.013.024.026.05.024.027-.002.033-.017.051-.024.018-.007.027-.011.044-.011.018 0 .038.002.06 0s.046-.009.055.002c.009.011.01.06.01.06s-.026-.01-.028.013c-.002.022.01.037.011.044.003.007-.004.029-.017.029-.014 0-.027-.022-.042 0-.016.022-.036.04-.062.033-.026-.007-.066-.018-.068-.009-.003.009-.014.035.002.044.015.009.024.002.029.02.004.018.002.03-.016.033-.018.002-.044-.018-.05-.011a.12.12 0 0 0-.023.04c0 .006.016.024.022.03.007.007.01.025-.004.034-.013.009-.033.004-.042.01-.009.007 0 .01-.029.038-.028.029-.048.029-.055.031-.006.002-.02-.002-.044-.013-.024-.011-.042-.016-.05-.027-.01-.01-.032-.03-.036-.015-.004.015-.013.024-.007.033.007.009-.004.006.022.023.027.017.02.008.04.021a.55.55 0 0 0 .14.027c.015 0 .065.008.094.015.029.007.03.018.075.02a.467.467 0 0 0 .154-.038c.031-.013.053-.026.069-.033.015-.006.04-.024.077 0 .037.025.048.038.077.031.029-.006.06-.044.093-.057a.26.26 0 0 0 .09-.064c.024-.027.024-.042.064-.077a.482.482 0 0 0 .093-.095c0-.011-.002-.064 0-.07.002-.007-.033-.014.002-.007.035.006.044.033.055.035a.257.257 0 0 0 .049.004c.02 0 .022.011.042-.004.02-.016.046-.013.06-.024.012-.011.065-.07.076-.084a.454.454 0 0 0 .044-.069c.011-.022.03-.046.047-.083.017-.038.01-.047.028-.067a.615.615 0 0 1 .051-.052.512.512 0 0 0 .049-.053c.006-.01.033-.03.042-.064.008-.036-.02-.058 0-.086.02-.029.044-.078.079-.095.035-.018.12-.133.15-.141.03-.01.421-.117.439-.117.018 0 .08-.027.132-.044.053-.018.285-.093.302-.095.018-.002.135-.022.153-.031.017-.009.165-.06.2-.068a.623.623 0 0 0 .128-.058c.025-.015.031-.01.04-.03.009-.02.009-.032.009-.032l-.04.01-.046.008.002-.022s.009-.004.038-.026c.028-.022.015-.027.048-.038s.062-.009.068-.03c.007-.023-.006 0 .007-.023.013-.022.015-.073.018-.084.002-.01-.007-.044 0-.044.006 0 .006.005.022-.006.015-.011 0-.047-.002-.053-.003-.007-.11-.128-.115-.14-.005-.01-.02-.043-.031-.046-.011-.002-.024.01-.03-.004-.008-.013-.034-.027-.034-.042 0-.015-.035-.192-.035-.192s.055-.02.064-.02c.008 0 .048.02.072.053.025.033.084.1.117.126.033.026.084.117.117.126.033.009.102.035.122.04.02.004.05.013.064.04.013.026 0 .028.028.056.029.03.035.047.053.051.018.005.069-.004.069-.004l.022-.013c.01-.01 0-.023.041-.007.042.015.053.02.071.015a.207.207 0 0 0 .057-.03c.016-.012.031-.023.049-.031a.154.154 0 0 0 .044-.034c.007-.008-.004-.035.013-.046.018-.01.051-.024.053-.035.002-.011.007-.016.01-.031a.626.626 0 0 0 .003-.075c0-.029.018-.022-.004-.053-.022-.03-.02-.03-.048-.064-.03-.033-.04-.03-.056-.053-.015-.022-.03-.042-.037-.062a1.007 1.007 0 0 0-.042-.099 1.41 1.41 0 0 0-.13-.163c-.02-.02-.077-.082-.113-.113-.035-.03-.097-.068-.123-.094-.027-.027-.09-.071-.106-.084-.015-.013-.029-.009-.062-.046a.797.797 0 0 0-.066-.071c-.015-.013-.05-.035-.064-.06a.193.193 0 0 1-.02-.042c-.002-.008-.006-.06-.006-.06s0-.026.006-.021c.007.004.082.028.095.048l.064.09c.013.023.146.133.19.164.044.03.183.104.22.139.038.035.077.068.14.12.06.05.074.07.096.092.022.022.042.046.082.077.04.03.04.03.062.037.022.007.037.007.05-.006.014-.013.011-.024.047-.024.035 0 .044-.01.057-.027.013-.018.04-.018.044-.033.005-.015.049.002-.01-.035-.06-.038-.1-.049-.113-.062-.014-.013-.005-.013-.033-.049a.214.214 0 0 0-.106-.077c-.051-.017-.033-.02-.106-.035-.073-.015-.12-.018-.13-.044-.011-.027-.212-.296-.216-.322a.62.62 0 0 0-.095-.15c-.018-.016-.044-.053-.078-.064a.19.19 0 0 0-.086-.013c-.02.004-.024.006-.07.006a.286.286 0 0 1-.1-.015c-.015-.007-.03-.013-.03-.022 0-.01-.018-.031-.029-.031-.011 0-.026.004-.035.004-.01 0-.084-.024-.097-.026-.013-.002-.038 0-.047-.005-.008-.004-.044-.015-.055-.03-.01-.016-.02-.023-.03-.034-.012-.01-.023-.015-.034-.028-.01-.013-.024-.018-.013-.029a.074.074 0 0 1 .022-.015s.117.068.155.083c.037.016.052.027.081.03.029.001.062.021.1.003.037-.017.046-.026.074-.035.03-.009.01-.015.07-.015.063 0 .102.002.124.002.022 0 .02.009.071-.002.05-.011.027-.029.08-.018.052.011.138.033.138.033s-.006.029.056.042c.061.013.136.038.147.04a.655.655 0 0 1 .062.026s.027.029.073.036c.046.006.068.006.101.022.033.015.036.013.064.03.029.018.04.02.07.036.032.015.052.026.071.026.02 0 .036-.002.042-.015.007-.013.005-.024.01-.038.004-.013.015-.006.004-.013a1.476 1.476 0 0 0-.036-.02s-.017 0-.03-.004c-.014-.005-.025-.046-.01-.049.016-.002.038 0 .043.007a.228.228 0 0 0 .064.044c.02.007.035.024.046-.004.01-.03.01-.049.013-.067.002-.017 0-.028.009-.055.009-.026.002-.035.013-.048.011-.013.011-.055.011-.055s-.013.004-.022-.016-.015-.044-.04-.077c-.024-.033-.044-.044-.06-.066-.015-.022-.01-.02-.032-.027-.022-.006-.042-.01-.031-.035.01-.024.01-.02.03-.06.02-.04.018-.046.027-.066.009-.02.009-.03.011-.044.002-.013-.004-.01.005-.028.008-.018.026-.038.028-.047.003-.009.007-.022.007-.037a.318.318 0 0 0-.004-.053c-.003-.007-.007-.005-.007-.027s0-.035.002-.044c.002-.009.005.005.009-.026.004-.031.004-.044.004-.044s0-.033.014-.014c.013.02.048.051.052.064.005.014.016.025.005.033-.011.01-.029 0-.033.03a.14.14 0 0 0 .004.074c.01.022.018.027.005.046-.014.02-.025.025-.027.045-.002.02 0 .057-.004.068-.005.011-.029.009-.007.06.022.05.027.061.069.136.041.075.079.117.086.117.006 0 .022.011.033-.009.01-.02.013-.044.02-.06.006-.015 0-.046.01-.041.012.004.018.037.02.053.003.015.031.092.031.092s0 .025.02.03c.02.004.057.015.068.001.011-.013.007-.022.04-.03.033-.01.04.006.046-.016.007-.022.023-.046 0-.062-.022-.015-.035-.015-.046-.033-.01-.017-.02-.017-.02-.035 0-.018.003-.027.003-.049 0-.022 0-.035-.012-.055-.01-.02-.035-.026-.013-.035.022-.009.029.002.038.026.009.025.013.075.02.084.006.009.008.016.017.016.01 0 .025-.018.025-.018s.002-.044.01-.064c.01-.02.016-.042.03-.042.012 0 .026-.018.028.024a.577.577 0 0 0 .013.108.256.256 0 0 0 .05.042c.014.007.025.02.04.011.016-.008.025-.008.031-.02a.108.108 0 0 1 .03-.033c.008-.004.023-.022.039.003.015.024.044.048.015.075-.028.026-.035.024-.064.037-.028.013-.08.016-.08.049s-.015.048.003.07c.018.022.05.029.05.029s.03-.009.034-.03c.004-.023-.004-.04.009-.056.013-.015.064-.035.075-.04a.332.332 0 0 1 .084.011c.006.002.022-.002.04-.004.017-.002.052-.009.061.01.009.02-.004.023.042.043.046.02.057.026.097.013a.819.819 0 0 0 .152-.09c.022-.018.027-.036.09-.06.065-.024.082-.037.142-.035.06.002.062 0 .101-.007.04-.006.018-.05.046-.07.03-.02.197-.113.206-.117.008-.005.068-.031.088-.04.02-.009.044-.024.084-.044.04-.02.042-.033.088-.036.046-.002.126-.033.148-.059.022-.026.06-.035.081-.046a.509.509 0 0 1 .133-.02l.112-.005a.27.27 0 0 1 .055.011.174.174 0 0 0 .075.01c.04-.003.053.024.073-.018.02-.042.011-.106.029-.153.017-.046.037-.156.053-.176.015-.02-.003-.033.055-.068.057-.036.176-.109.196-.113a.518.518 0 0 1 .13.02.55.55 0 0 0 .069.02c.013.002.017.002.02.022.002.02.017.026.033.029.015.002.033-.007.033-.02 0-.014-.018-.033 0-.038.017-.004.02-.002.033-.01.013-.01.006-.014.017-.045.011-.03.022-.07.022-.07s.049-.014.078-.025a.258.258 0 0 1 .089-.022c.03 0 .091-.01.116-.033.024-.022.046-.053.064-.075.017-.022.013-.042.044-.066.03-.024.048-.042.097-.062.048-.02.046-.026.077-.033.031-.007.132 0 .157 0 .024 0 .06.002.07.011.011.009.022.022.04.016.018-.007.026-.01.035-.027.01-.018.027-.1.038-.13.01-.031.006-.075.026-.088.02-.014.04-.018.07-.027.032-.009.036-.004.078-.022s.05-.029.064-.035c.013-.007.007-.002.029-.011.022-.009.022-.024.04-.02.017.004.028.024.054.042.027.018.027.03.053.02.027-.011.049-.025.093-.04s.064-.033.07-.055c.007-.022-.021-.024.01-.046.03-.022.015-.042.02-.062.004-.02.01-.102.01-.108 0-.007-.004-.029 0-.038.005-.009-.008-.026 0-.033l.01-.006.01-.047c.002-.006.007-.035.011-.044.005-.009-.004-.01 0-.024.005-.013-.002-.042.002-.053.003-.011-.01-.031-.01-.038 0-.006-.014-.042 0-.048.013-.007.043-.002.05.006.007.01-.002.012 0 .038s-.006.044.003.05c.008.007.006.02.017.02.011 0 .042-.006.05-.004.01.002.08.053.08.053s.033-.009.038-.029c.004-.02.017-.03.022-.044a.437.437 0 0 0 .01-.068c0-.009-.017-.029 0-.042.018-.013.051-.03.051-.03s-.013-.025 0-.036c.014-.011.011-.027.03-.033.017-.007.028-.022.028-.022l.01-.036s.016-.015.03-.008c.013.006.017.02.024.004a.211.211 0 0 0 .015-.055.275.275 0 0 0-.057-.066c-.007-.005-.049-.042-.05-.06-.003-.017-.014-.055-.01-.068.005-.013-.004-.042.007-.049.01-.006.022-.01.018-.024-.005-.013-.031-.04-.056-.002-.024.037-.03.057-.03.066 0 .009-.02.029-.034.029-.013 0-.035-.014-.037-.025-.002-.01-.013-.022-.004-.044.008-.022.01-.053.017-.068.007-.016.002-.031.016-.04.013-.009.026-.024.035-.024.009 0 .022.015.033-.002.011-.018.018-.042.029-.053.01-.011.042-.033.046-.051.004-.018-.002-.06.009-.06.01 0 .044.031.048.047.005.015 0 .033.003.05.002.018.002.02-.007.04-.009.02-.022.013-.011.033.01.02.006.038.035.051l.053.022c.007.002.016.011.029.005.013-.007.02-.038.02-.051 0-.013-.014-.029-.011-.04l.01-.037a.055.055 0 0 0 0-.033c-.004-.014-.013-.031-.03-.038-.018-.007-.051-.011-.058-.029-.006-.017-.04-.061-.044-.07l-.015-.047s.013-.09.017-.105c.005-.016.02-.062.025-.086.004-.025-.018-.014-.04-.047-.022-.033-.03-.026-.03-.046s.001-.066.008-.08c.007-.013.026-.074.03-.081.005-.007.003-.024.027-.031.025-.007.04-.007.042-.013a.122.122 0 0 0 .005-.04c-.003-.007-.036-.01-.042-.024-.007-.013-.011-.005-.011-.033v-.077c0-.018 0-.038-.011-.051-.011-.013-.033-.022-.049-.035a.169.169 0 0 1-.035-.038c-.002-.007-.016-.026-.016-.035 0-.01-.02-.036.01-.038.028-.002.076.005.09.027.013.022.042.064.06.088.017.024.03.033.032.046.003.013-.006.027.01.038a.189.189 0 0 0 .039.022c.01.004.009.017.037.017.029 0 .047-.015.047-.015s.024-.022.037-.02c.013.002.031.027.04.009a.074.074 0 0 0 0-.057c-.007-.014-.022-.01-.04-.018-.017-.009-.046-.011-.055-.03-.009-.02-.029-.065-.03-.074a.135.135 0 0 0-.02-.04l-.054-.052-.013-.027s-.024-.05-.022-.064c.002-.013.009-.048.024-.06.016-.01.011-.065-.004-.065-.016 0-.033.028-.038.035-.004.006-.03.017-.041.017-.012 0-.025-.008-.01-.046.016-.037.047-.126.058-.152a.628.628 0 0 1 .082-.108c.013-.013.061-.049.07-.06.01-.01.005-.037.027-.046.022-.009.04-.024.048-.009.01.016.04.064.042.084a.168.168 0 0 1 0 .057c-.004.016-.006.018-.01.031-.005.013-.005.031-.019.04-.013.009-.03.007-.017.018.013.01.006.01.028.013.023.002.045-.022.058-.035.013-.014.02-.018.026-.02a.122.122 0 0 1 .029 0s.002-.062.015-.007c.014.055-.008.073 0 .097.01.024.003.018.005.044.002.027-.013.031 0 .04l.029.02s-.003.006.013.024l.015.018s.009.024.016.015c.006-.009.013-.062.013-.062s-.007-.01-.011-.026c-.005-.016-.009-.027-.002-.044.006-.018-.022-.027.013-.038.035-.01.06-.004.062-.022.002-.017-.047-.055-.058-.055-.01 0-.015.016-.03.002-.016-.013-.02-.02-.025-.033-.004-.013-.018-.024-.03-.03-.014-.007-.047-.02-.06-.034-.014-.013-.036-.03-.044-.046-.01-.015-.018-.024-.02-.05a.503.503 0 0 1 0-.082.407.407 0 0 1 .077-.122c.015-.004.064-.048.077-.048.013 0 .031.002.035.01.005.01.007.018.003.036-.005.018-.018.02-.02.027-.002.006-.036.026.01.02.047-.007.063-.018.065-.047.002-.029.002-.024-.002-.06-.005-.035.013-.04-.02-.05-.033-.011-.058-.016-.075-.022-.018-.007-.051-.022-.062-.025-.011-.002-.018.003-.018-.017s-.017-.024.005-.029c.022-.004.044 0 .05-.009.007-.008.018-.02.007-.04-.01-.02-.134-.244-.146-.26-.01-.015-.044-.05-.041-.077.002-.026-.005-.101.006-.121.011-.02.029-.027.035-.06.007-.033.018-.055.003-.08-.016-.023-.031-.039-.031-.065 0-.027.024-.077.015-.102-.009-.024-.03-.046-.046-.037-.015.009-.027.048-.064.006-.038-.041-.05-.046-.053-.07-.002-.024.007-.066.011-.095.004-.029-.007-.053.007-.066.013-.013.042-.04.068-.018.027.022.033.044.049.053.015.009.028-.002.022.018-.007.02-.018.006-.022.028-.005.022-.051.02-.01.04.043.02.063.02.067.007.004-.014.004-.027.009-.051a.184.184 0 0 0 .004-.044c0-.016-.013-.02-.015-.04s-.01-.022-.002-.04c.006-.017.01-.072.004-.072-.007 0-.011-.007-.024.006-.014.013-.051.025-.058.013-.006-.01-.02-.04-.028-.05-.01-.011-.022-.002-.016-.022.007-.02.036-.049.009-.058-.026-.008-.06-.008-.068-.015a.095.095 0 0 1-.027-.03c-.009-.016-.024-.036-.024-.05 0-.013-.018-.044.002-.041.02.002.027-.003.042.02a.144.144 0 0 0 .049.044c.013.006.044.03.053.033.008.002.035.009.035.017 0 .01-.005.031.004.042.009.011.024.02.029.005.004-.016.004-.053-.002-.06-.007-.007-.011-.026-.027-.035-.015-.009-.04-.013-.057-.022a.115.115 0 0 1-.038-.029c-.004-.007-.022-.02-.022-.05 0-.032-.002-.003-.002-.06v-.022c0-.036.009-.13.009-.137 0-.007.004-.024.004-.042l-.002-.044c0-.018-.006-.02-.009-.044-.002-.024-.015-.044-.015-.062 0-.018-.009-.037 0-.048.009-.011.03-.053.03-.053s.005-.027.027-.003c.022.025.027.045.033.06.007.015.005.033.007.055s-.002.049-.002.068c0 .02-.005.014-.007.034-.002.02-.026.037 0 .053.027.015.046.028.05-.003.005-.03.005-.044.005-.06 0-.015-.004-.02 0-.043.005-.025.002-.027.01-.047a.183.183 0 0 0 .008-.068c-.002-.02-.024-.049-.038-.064-.013-.015-.02-.02-.026-.04-.007-.02-.013-.037-.013-.053 0-.015-.005-.017-.003-.03a.295.295 0 0 0 .005-.036c0-.006-.005-.02-.005-.026 0-.007-.006-.016-.004-.04s0-.053 0-.053-.024 0-.026-.018c-.003-.017-.01-.037-.031-.046-.022-.009-.033-.009-.053-.009a.1.1 0 0 1-.062-.022c-.013-.013-.049-.04-.06-.053-.01-.013-.037-.042-.03-.055.006-.013.028-.055.046-.055s.026.018.04.033c.013.016.022.027.044.046.022.02.026.027.042.027.015 0 .024-.013.024-.029 0-.015-.009-.028-.022-.057s-.022-.044-.035-.069c-.014-.024-.023-.024-.023-.044 0-.02-.002-.035.01-.053l.024-.04s.017-.039-.016-.1c-.033-.062-.088-.126-.101-.166-.014-.04-.051-.069-.051-.128 0-.06.004-.08-.009-.106-.013-.026-.029-.035-.042-.07-.013-.036-.026-.053-.026-.08 0-.026-.016-.03-.002-.048.013-.018.033-.02.026-.053-.007-.033-.013-.016-.018-.042-.004-.027-.02-.016-.013-.042a.339.339 0 0 1 .024-.066c.011-.025.025-.049.014-.084-.011-.035-.027-.088-.049-.126-.022-.037-.029-.033-.044-.064-.015-.03-.06-.075-.07-.112-.012-.038-.025-.06-.03-.089-.004-.028-.024-.26-.028-.295-.004-.035-.042-.113-.042-.157s0-.081-.006-.084c-.007-.002-.02.011-.025.034-.004.022-.004.037-.013.028-.009-.009-.033-.037-.035-.053-.002-.015-.007-.026-.013-.033-.007-.006-.051-.017-.034-.037.018-.02.025-.031.047-.025.022.007.044.025.053.007.008-.018-.025-.033.015-.064.04-.03.05-.026.057-.042.007-.015.03-.02.003-.042-.027-.022-.044-.024-.067-.055a.776.776 0 0 1-.07-.112c-.002-.014-.007-.016-.004-.049.002-.033.008-.053-.012-.07a.338.338 0 0 0-.046-.034s.013-.022 0-.028c-.013-.007-.026.002-.026-.029 0-.03-.01-.082-.016-.084-.006-.002-.048-.013-.053.025-.004.037-.048.046-.048.046s-.005.015-.002.037c.002.022.013.042.004.058-.009.015-.042.033-.042.009 0-.025-.013-.012 0-.056s.033-.06.011-.07c-.022-.011-.044-.005-.062-.029-.017-.024-.033-.035-.033-.048 0-.014-.006-.042-.006-.062 0-.02-.016-.042-.022-.044-.007-.002-.03.009-.03.03a.132.132 0 0 1-.01.047l-.035.004c-.007 0-.049-.017-.049-.017s-.018-.042-.026-.047c-.01-.004-.033-.02-.051-.024-.018-.004-.06-.006-.04-.024a.08.08 0 0 1 .05-.022c.012 0 .016-.009.034.004.018.013.03.029.049.018.017-.011.013-.013.033-.018.02-.004.028 0 .033-.006.004-.007.022-.022.006-.022-.015 0-.046-.01-.061-.003-.016.007-.04.025-.049.011-.009-.013-.013-.01-.046-.053-.033-.042-.042-.053-.049-.075-.006-.022-.053-.072-.055-.081-.002-.009-.048-.055-.068-.082-.02-.026-.086-.086-.108-.145-.022-.06-.073-.14-.078-.157-.004-.018-.044-.095-.044-.117 0-.022-.004-.035-.006-.062-.003-.026-.01-.046-.022-.046-.014 0-.034.022-.036.029-.002.006 0 .028-.022.015-.022-.013-.015 0-.022-.013-.006-.013-.006-.035.016-.046.022-.011.035-.022.035-.031a.066.066 0 0 0-.02-.047c-.018-.017-.02-.013-.046-.04a.328.328 0 0 1-.07-.085c-.007-.022-.036-.018-.045-.049-.009-.03-.046-.119-.05-.132-.005-.013-.043-.075-.043-.082 0-.006 0-.026.005-.033.004-.006.006-.026.006-.026s0-.005.031-.011a.6.6 0 0 1 .09-.011c.034-.003.06.01.074-.011a.167.167 0 0 0 .015-.062s-.002-.013-.02-.005c-.017.01-.017.015-.055.021-.037.006-.05.01-.064 0-.013-.01.013-.01-.048-.027-.062-.018-.071-.027-.075-.016-.005.011-.018.018-.011.031.006.013.008.018.022.031.013.013.015.002.022.024.006.022.006.025.002.033-.005.01-.042.016-.049.016-.006 0 .005-.011-.006 0-.011.01-.029.026-.049.029a.14.14 0 0 1-.053 0c-.009-.005-.044-.031-.048-.047-.005-.015-.036-.022-.018-.057l.042-.082c.004-.006-.004-.05.011-.057.015-.007.009-.011.037-.024.03-.014.04-.025.04-.036 0-.01-.022-.03-.046-.026s-.022.009-.046.009c-.025 0-.062.006-.078-.016-.015-.022-.037-.081-.037-.081s-.029-.069-.038-.084c-.008-.016-.037-.016-.048-.046-.011-.031-.013-.071-.04-.056-.026.016-.015.02-.037.02s-.067.002-.08-.015c-.013-.018-.04-.038-.046-.049a.276.276 0 0 0-.062-.072c-.026-.018-.207-.157-.22-.166a5.061 5.061 0 0 1-.128-.101c-.014-.011-.157-.095-.168-.106-.011-.011-.044-.036-.046-.02-.003.015.002.033.013.042.011.009.04.04.05.062.012.022.027.044.045.044.017 0 .028.013.048.024.02.011.027.009.042.029.016.02.031.042.053.048.022.007.029.005.04.016.01.01.009.026.044.05.035.025.044.02.064.031.02.011.01-.009.03.022.02.031.034.042.052.051.017.009.017-.002.041.015.025.018.04.027.049.045.009.017.02.055.013.075-.006.02-.048.02-.07.022-.022.002-.078.004-.097.002-.02-.002-.067 0-.1-.033s-.05-.044-.035-.055c.015-.011.03-.042.042-.045.011-.002.018-.002.029.01.01.01.04.03.05.017.011-.013.027-.013.005-.042-.022-.029-.366-.267-.366-.267s-.047-.033-.058-.024c-.01.009-.017.02-.026.015-.009-.004-.05-.053-.033-.061l.017-.01s0-.035-.006-.037c-.007-.002-.058-.01-.064-.015l-.051-.031s-.007-.009-.024-.007c-.018.003-.044 0-.055-.015-.011-.016-.031-.035-.051-.038-.02-.002-.033.005-.068-.013-.036-.018-.115-.035-.128-.053-.014-.017-.029-.02-.016-.033.013-.013.016-.004.035-.007a.343.343 0 0 1 .113.01c.03.01.095.039.117.048.022.009.07.033.086.042l.055.033c.013.006.007.022.013.006.007-.015.002-.033-.03-.05a13.28 13.28 0 0 1-.164-.09c-.035-.02-.093-.047-.123-.076-.031-.028-.102-.061-.12-.092-.017-.031-.046-.06-.066-.082-.02-.022-.013-.002-.048-.053-.035-.05-.064-.037-.075-.048-.011-.011-.084-.067-.11-.1-.027-.033-.06-.06-.067-.066l-.044-.044h-.035c-.009 0-.038.004-.029-.011.01-.015.016-.018.02-.026.005-.01.011-.027-.002-.042-.013-.016-.04-.029-.053-.053-.013-.025-.02-.01-.022-.044-.002-.036-.004-.04-.007-.078-.002-.037.005-.066-.022-.094-.026-.03-.458-.327-.467-.34-.01-.013-.122-.082-.155-.124-.033-.042-.057-.086-.097-.108-.04-.022-.163-.086-.185-.106-.022-.02-.121-.134-.135-.145a1.232 1.232 0 0 1-.13-.146c-.013-.026-.05-.048-.048-.073a.095.095 0 0 0-.022-.072c-.02-.025-.08-.08-.086-.106-.007-.027-.027-.064-.027-.088 0-.025-.002-.03.002-.036.005-.006-.028-.097-.028-.139 0-.042-.018-.196.002-.225.02-.028.042-.053.05-.072.01-.02.025-.042.027-.056.002-.013.009-.03 0-.046-.009-.015-.053-.04-.053-.057a.18.18 0 0 0-.03-.08c-.016-.02-.036-.035-.04-.05-.005-.016-.018-.038-.02-.051-.002-.013-.005-.02-.002-.033.002-.013 0 .004.008-.005a.118.118 0 0 0 .022-.044c0-.006-.028-.03-.028-.03s-.018-.025-.024.008c-.007.033-.003.04-.016.042-.013.002-.05 0-.05 0s-.016-.015-.023 0c-.006.016-.017.029-.017.029l-.033-.009s-.007-.024-.003-.03c.005-.007.011-.016.011-.023 0-.007-.01-.018-.017-.026a10.539 10.539 0 0 0-.126-.137l-.108-.09c-.035-.03-.077-.056-.1-.071-.021-.016-.043-.038-.061-.042-.018-.004-.044-.004-.073-.022-.029-.018-.055-.02-.081-.049-.027-.028-.13-.119-.148-.14a.736.736 0 0 1-.042-.058c-.013-.02-.022-.029-.031-.042a.216.216 0 0 1-.03-.064c-.005-.022-.005-.044-.014-.044-.009 0-.031.04-.031.06 0 .02.004.037 0 .048-.004.01.011.018-.004.01-.016-.006-.034-.021-.034-.041s-.002-.033-.006-.064c-.005-.03-.128-.203-.141-.247-.014-.044-.104-.227-.102-.25.002-.021.005-.059.011-.085.007-.027.01-.06.002-.069-.006-.008-.01-.015-.03-.026-.02-.011-.031-.007-.038-.024-.007-.018-.022-.04-.026-.066-.005-.027-.003-.036-.01-.047-.006-.01-.017-.015-.028-.03a.102.102 0 0 1-.02-.038c0-.007-.002-.011.003-.018a.1.1 0 0 0 .006-.028s-.011-.058-.018-.064c-.006-.007-.041.004-.06-.011-.017-.016-.043-.051-.043-.069 0-.018-.036-.106-.031-.119.004-.013.004-.026.018-.042.013-.015.024-.033.017-.06-.006-.026-.017-.063-.017-.081 0-.018-.005-.03.01-.049.016-.017-.01-.03.03-.024.039.007.039.013.052.024.013.011.029.03.033.014a.128.128 0 0 0 .007-.042v-.049s.004-.013.018-.004c.013.009.017.042.035.044.017.002.024.013.03 0a.099.099 0 0 0 0-.062c-.006-.015-.008-.042-.006-.077.002-.035 0-.07.002-.086.003-.015 0-.035.016-.038.015-.002.02 0 .037-.008.018-.01.022-.02.042-.038a.227.227 0 0 1 .093-.037c.015 0 .038-.016.038-.031 0-.016-.022-.027 0-.055.021-.03.02-.036.017-.044-.002-.01.005-.023-.017-.04-.023-.018-.034-.011-.038-.035l-.011-.06s-.01-.009-.022-.004c-.014.004-.027.013-.033.008-.007-.004-.03-.008-.016-.035.013-.026-.006-.033.02-.035.026-.002.03.004.042-.005.01-.008.015-.022.026-.017.011.004.021-.007.032.01.01.018.006.032.024.03.017-.003.03-.025.028-.038-.002-.013-.002-.013-.015-.038-.013-.024-.045-.026-.037-.055.008-.028.013-.234.013-.234l-.045-.028c-.006-.005-.02-.024-.008-.035.01-.011.027-.018.04-.016.013.002 0-.002.013.002.013.005.026-.022.037-.044s.033-.095.038-.101c.004-.007.004-.029.03-.042.027-.013.042-.011.067-.02a.132.132 0 0 0 .061-.049.838.838 0 0 0 .06-.128c.009-.026.02-.061.015-.079-.004-.018-.013-.035-.013-.044 0-.009-.029.002-.004-.026.024-.03.042-.038.057-.056.015-.017.013-.022.022-.05.009-.029.016-.051.024-.067.01-.015.016-.033.033-.05.018-.018.018-.031.04-.02.022.011.031.026.055.02a.35.35 0 0 1 .049-.011c.015-.002.017-.02.024-.002.007.017-.009.03.024.035.033.004.044.009.055 0 .011-.009.005-.013.03-.016.023-.002.008 0 .041 0a.375.375 0 0 0 .172-.081.802.802 0 0 1 .082-.086c.022-.02.055-.033.066-.062.01-.029-.005-.049.022-.06.026-.01.035-.006.048-.02.014-.013.018-.01.027-.028.009-.018 0-.033.024-.04.024-.006.024-.026.053-.006.029.02.027.03.053.03s.035-.01.049-.008c.013.002.017.015.037.022.02.006.035.022.06 0 .024-.022.05-.053.07-.064.02-.011.024-.013.033-.031.01-.018.011-.035.022-.04.011-.004-.002.005.011-.004a.051.051 0 0 0 .022-.038c.003-.015.005-.044.01-.05.004-.007.068-.086.074-.117.007-.031.02-.078.027-.1.006-.022.006-.03.013-.061a.275.275 0 0 0 .002-.084.176.176 0 0 0-.018-.06c-.01-.02-.037-.057-.037-.057s-.013.002-.004-.016a.226.226 0 0 1 .041-.055.253.253 0 0 0 .051-.061.288.288 0 0 0 .018-.064s.026-.014.048-.003c.022.011.018.022.04.04.022.018.022.027.038.02.015-.007.015.015.015-.007s-.02-.02.002-.053a.39.39 0 0 1 .095-.103c.03-.018.08-.06.095-.06h.106s.015-.02.004-.035c-.01-.016-.057-.018-.081-.024-.025-.007-.073-.016-.08-.04-.006-.024-.01-.049-.004-.068.006-.02.01-.126.015-.135.005-.009.007-.055.022-.004.016.05.08.11.08.11s.04 0 .05-.007c.011-.006.031-.004.036-.017.004-.014-.005-.03-.018-.034-.013-.004-.026.003-.044-.022-.018-.024-.018-.028-.029-.044-.01-.015-.024-.02-.03-.026-.007-.007-.023-.018-.027-.031-.004-.013-.02-.033-.02-.042 0-.009-.009-.037-.004-.046a.181.181 0 0 0 .015-.04c0-.007 0-.029-.013-.035-.013-.007-.035-.013-.044-.022-.01-.01-.04-.036-.049-.036-.009 0-.015-.035-.015-.035s.015-.03.024-.026l.042.024.07.026s.04.01.056.016c.015.006.028-.005.024.017-.004.023-.007.014-.02.031-.013.018-.018.018-.013.036.004.017.015.02.017.035.003.015 0 .011-.004.03-.004.02-.01.018-.007.04a.076.076 0 0 0 .023.047c.015.018.028.03.044.033.015.002.02.002.035.009.015.006.015 0 .022.017.007.018.011.018.026.053.016.036.027.038.027.038s.009-.011.011-.024c.002-.014.004-.018.004-.042 0-.025-.006-.036-.006-.062 0-.027.002-.035.013-.042.011-.007.011-.013.037-.02.027-.006.025-.015.06-.015.035 0 .057-.007.05-.02-.006-.013-.01-.016-.026-.035-.015-.02-.035-.027-.044-.04-.009-.013-.017-.02-.009-.038.01-.017-.006-.042.027-.04.033.003.044 0 .066.018.022.018.007.011.022.018.016.007.05.013.053-.011a.732.732 0 0 0 .002-.062c0-.009.058-.04.077-.044a.09.09 0 0 1 .038 0l.015.011s.02.004.027.002c.006-.002.026-.01.035-.006.009.004.022.024.02.035-.002.011-.013.024-.018.033-.004.009-.02.02-.01.033a.191.191 0 0 0 .072.038c.009 0 .053.01.068.022.016.01.016.022.036.024a.064.064 0 0 0 .061-.029.362.362 0 0 1 .146-.08.123.123 0 0 1 .064.007c.024.01.053.038.082.007.028-.03.05-.064.053-.088.002-.024.004-.035-.007-.053-.011-.018-.024-.024-.02-.049a.095.095 0 0 1 .029-.055c.015-.015.026-.017.03-.055.005-.037-.002-.07-.002-.07s-.01-.003-.004-.022c.007-.02.055-.064.068-.082.014-.018.03-.053.025-.06-.005-.006-.02 0-.038.003-.017.002-.028.006-.042-.005-.013-.01-.02-.037-.02-.044 0-.007.014-.03.04-.04.027-.008.018-.017.06-.008.042.008.06.013.066.004.006-.009-.011-.038.01-.038.023 0 .04.02.04.02s.018.011.038.007c.02-.005.029-.013.055-.009.027.004.024.009.042.013a.148.148 0 0 0 .064.003c.029-.005.044-.007.07-.014.027-.006.038-.024.04-.048.003-.025-.006-.027.007-.038.013-.01.029-.028.037-.037.01-.01 0-.053.018-.058.018-.004.046-.002.046-.002s.1.002.117-.002c.018-.004.053-.027.066-.033.014-.007.012-.02.023-.033.01-.013.004-.022.03-.038.027-.015.02-.008.036-.03.015-.023.026-.034.033-.053.006-.02.002-.016.009-.049.006-.033-.003-.07.013-.093l.044-.06.018-.043c.006-.018.004-.055.015-.073.011-.018.031-.031.038-.042.006-.011.004-.029.01-.04.007-.01.012-.026.025-.006.013.02.013.03.024.042.011.01.027.028.038.01.01-.017.02-.037.037-.035.018.003.018.014.049.022.03.01.026.005.057.007.03.002.042.007.05-.004.01-.011.005-.025.023-.036.017-.01.034-.05.034-.05zm-8.021 27.884s-.052.024-.065.051c-.013.028-.017.031 0 .055s.052.031.065.024c.012-.007.012-.045.034-.064.021-.018.008-.011.021-.032.013-.02-.055-.034-.055-.034zm8.693-15.625c0-.011-.04-.031-.042-.038-.003-.007-.03-.013-.04-.01-.01.001-.024.005-.024.023s.022.047.034.06c.013.013.037.04.055.044.017.004.027.013.032 0 .005-.013.012-.026.012-.042 0-.015-.027-.037-.027-.037zm-5.224-7.542c0 .016-.022.084 0 .095.021.01.032.074.059 0 .027-.074-.006-.09 0-.095.005-.006-.06 0-.06 0zm-.163.075s-.07.036-.07.067c0 .03.035.067.035.067s.03 0 .062-.036.043.005.032-.036c-.01-.041-.06-.062-.06-.062zm2.596-3.004a.031.031 0 0 1-.013-.026c0-.013 0-.024-.013-.022-.013.002-.02.009-.03.01a1.4 1.4 0 0 0-.052.014s-.002-.018-.013-.024c-.01-.007-.018-.016-.024-.016-.007 0-.016-.006-.02.011-.004.018-.004.03-.011.038-.007.009-.018.024-.024.015-.007-.009-.02-.036-.033-.03-.014.004-.058-.036-.02.024.037.06.035.06.06.068.024.009.032.016.041.016.009 0 .033.006.033.013a.19.19 0 0 0 .005.035c.002.007.024.02-.003.03-.026.012-.03.023-.03.023s-.007.015.033.022c.04.007.044-.015.057-.015.013 0-.015-.025.013 0 .029.024.036.046.06.033.024-.014.024-.02.024-.031s-.009-.064 0-.073c.009-.009-.01-.018.02-.022s.04-.01.05-.014c.012-.004.012-.021 0-.032-.01-.011-.07-.032-.07-.032s-.01.01-.018.012l-.006.002-.016-.029zm1.057-.17a1.842 1.842 0 0 0-.059.047.162.162 0 0 0-.032.037c-.002.007-.015.02-.017.036-.002.015.009.022 0 .035-.01.013-.001.022 0 .029 0 .006.022-.023.032-.033.01-.012.008-.027.02-.04.011-.013.02-.018.033-.031.012-.013.024-.02.034-.044.01-.024.007-.013.01-.024.002-.011-.021-.013-.021-.013zm-.044-.207c-.011.007-.027.013-.049.038-.022.024-.037.025-.042.04-.004.015-.01.015-.015.032-.004.016-.009.042-.016.051-.006.009-.022.009-.028.02-.007.011-.018.015-.011.025.006.01.026.001.046 0 .02 0 .016-.003.049-.023s.055-.02.066-.033a.231.231 0 0 0 .03-.062c.005-.015-.006-.044 0-.05.007-.007.002-.038.002-.038h-.032zm.223-.154l-.05.055a.077.077 0 0 0-.021.046c0 .011.002.018 0 .029a.096.096 0 0 1-.016.04c-.01.01-.016.017-.019.03-.002.014-.025.023 0 .023.026 0 .04-.023.047-.031.009-.01.013-.02.018-.027.005-.006.005-.01.02-.035.017-.024.01-.035.021-.046.012-.011.01-.011.014-.031.005-.02-.002-.064-.014-.053zm.542.2c-.01.038-.074.056-.084.075-.011.019-.006.028 0 .047.005.018.047.014.084 0 .037-.014.037-.025.042-.055.006-.03-.042-.067-.042-.067zm-.28-.008c-.003.015-.025.03-.037.044-.012.013-.016.01-.017.03-.001.02.015.038.027.05.012.01-.024.03 0 .037.024.006.027.013.058 0 .03-.014.038-.007.04-.025.003-.017-.017-.024 0-.037.018-.013-.002-.027 0-.033.003-.007-.019-.027-.022-.035-.003-.01-.049-.031-.049-.031zm.075-.558l-.01.005s-.065.013 0 .03c.064.019.109.004.104 0a.343.343 0 0 0-.094-.035zm-.083-.046c-.014.028-.068.051-.082.057-.015.005-.029.005-.029.034 0 .03-.04.01 0 .03.04.019.032.014.065 0 .032-.015.035-.04.046-.054.01-.015 0-.04 0-.04v-.027zm.156-.122s-.044.021-.058.035c-.013.014-.024.021-.037.033-.013.012-.038.023-.05.03-.014.007-.018.017-.018.026 0 .01.006.005.033 0 .026-.005.03.002.061-.019.031-.02.027-.03.049-.04.022-.011.037-.016.042-.023.004-.007 0-.028 0-.028s.005-.028-.022-.014zm-.655.437c-.025.01-.011.015.004.015.016 0 .005.009 0 .018a.274.274 0 0 0-.01.024c-.005.011-.014.018-.032.02-.017.002-.03-.002-.064.01-.033.014-.024.034-.07.056-.047.022-.029.044-.044.053-.016.009-.03-.022-.04-.035-.011-.013.004-.02.013-.027.009-.006 0-.024 0-.04 0-.015.011-.015.027-.021a.17.17 0 0 0 .036-.027l.001-.055c0-.024-.002-.035 0-.042.002-.007.02.009.024.018.005.008.016.002.031-.018.016-.02-.002-.02-.004-.026a.445.445 0 0 1-.013-.06c-.005-.029.013-.035.02-.046a.24.24 0 0 1 .033-.04c.013-.013 0-.027 0-.038 0-.01.017-.03.024-.028 0 0 .017.017.02.024.002.007.026.015.042.027.015.01.015.02.014.035 0 .015-.006.033 0 .04.006.006.045.024.052.033.006.008 0 .022-.003.04-.002.017.018.01.034.015.015.006.028-.018.043-.033.016-.016.043-.014.06-.029.018-.015.02-.013.058 0 .037.013-.049.049-.089.068-.04.02 0 0-.028.023-.029.023-.018.04-.027.044-.009.004-.037-.005-.044-.02l-.01-.024c-.008-.015-.038.021-.046.024l-.012.022z"/>
    </g>
</svg>
