<svg xmlns="http://www.w3.org/2000/svg" width="56" height="56" viewBox="0 0 56 56">
    <g fill="none" fill-rule="evenodd">
        <circle cx="28" cy="28" r="28" fill="#F44336"/>
        <path fill="#FFF" d="M25.971 26.592l-10.72-5.616a.455.455 0 0 1-.112-.726l1.617-1.616a.76.76 0 0 1 .707-.203l13.485 3.185 5.903-5.904c.95-.95 2.485-.95 3.435 0 .95.95.95 2.485 0 3.435l-5.863 5.762 3.144 13.626a.759.759 0 0 1-.203.707l-1.617 1.617a.455.455 0 0 1-.725-.112l-5.616-10.72-5.713 5.63.494 3.455a.759.759 0 0 1-.215.644l-1.111 1.111a.455.455 0 0 1-.72-.1l-2.428-4.42-4.48-2.489a.455.455 0 0 1-.1-.719l1.11-1.11a.759.759 0 0 1 .645-.215l3.327.536 5.758-5.757-.002-.001z"/>
    </g>
</svg>
