<svg xmlns="http://www.w3.org/2000/svg" width="42" height="42" viewBox="0 0 42 42">
    <g fill="none" fill-rule="evenodd">
        <rect width="42" height="42" fill="#FA0" rx="21"/>
        <path fill="#FFF" d="M31.048 15.484h.333a1.14 1.14 0 0 0 1.138-1.138v-2.927a1.14 1.14 0 0 0-1.138-1.139h-.333c.066.257.1.526.1.803v3.599c0 .277-.034.546-.1.802zm-2.847 9.128v5.98c0 .32-.26.58-.582.58H15.08a.581.581 0 0 1-.58-.58v-5.98c0-.32.26-.58.58-.58h12.54c.321 0 .582.26.582.58zm-1.869-6.685v1.121a.581.581 0 0 1-1.163 0v-1.12h-7.64v1.12a.581.581 0 0 1-1.162 0v-1.12h-1.571c-.645 0-1.245-.19-1.751-.516v14.266c0 .729.593 1.322 1.322 1.322h13.965c.729 0 1.322-.593 1.322-1.322V17.412a3.225 3.225 0 0 1-1.75.515h-1.572zM15.661 30.01h11.377v-4.816H15.661v4.816zM27.903 9H14.796a2.085 2.085 0 0 0-2.083 2.083v3.599c0 1.148.934 2.083 2.083 2.083h1.57v-1.827a.581.581 0 0 1 1.164 0v1.827h7.64v-1.827a.581.581 0 0 1 1.162 0v1.827h1.571a2.085 2.085 0 0 0 2.083-2.083v-3.599A2.086 2.086 0 0 0 27.903 9zm-16.585 6.484h.333a3.24 3.24 0 0 1-.1-.802v-3.599c0-.277.034-.546.1-.803h-.333a1.14 1.14 0 0 0-1.138 1.139v2.927c0 .628.51 1.138 1.138 1.138zm19.166 7.218v8.43h1.19c.504 0 .914-.41.914-.914v-5.412c0-1.16-.944-2.104-2.104-2.104zM10 24.806v5.412c0 .504.41.913.914.913h1.19v-8.429c-1.16 0-2.104.944-2.104 2.104z"/>
    </g>
</svg>
