<svg xmlns="http://www.w3.org/2000/svg" width="42" height="42" viewBox="0 0 42 42">
    <g fill="none" fill-rule="evenodd">
        <rect width="42" height="42" fill="#8BC34A" rx="21"/>
        <path fill="#FFF" d="M27.145 18.57h1.523v-1.523h-1.523v1.523zm0 3.047h1.523v-1.523h-1.523v1.523zm0 3.047h1.523v-1.523h-1.523v1.523zm-15.336 0h7.77v-1.523h-7.77v1.523zm0-3.047h5.941v-1.523h-5.941v1.523zM34 15.523V14h-5.332v1.523h-1.523V14H8v1.523a.763.763 0 0 1 0 1.524v1.523a.763.763 0 0 1 0 1.524v1.523a.763.763 0 0 1 0 1.524v1.523a.763.763 0 0 1 0 1.523v1.524h19.145v-1.523h1.523v1.523H34v-1.523a.763.763 0 0 1 0-1.524v-1.523a.763.763 0 0 1 0-1.524v-1.523a.763.763 0 0 1 0-1.524v-1.523a.763.763 0 0 1 0-1.524z"/>
    </g>
</svg>
