<svg xmlns="http://www.w3.org/2000/svg" width="36" height="36" viewBox="0 0 36 36">
    <g fill="none" fill-rule="evenodd">
        <path d="M0 0h36v36H0z"/>
        <path fill="#2196F3" d="M26.662 26.662a12.167 12.167 0 0 0 3.344-6.209c-.369.543-.721.744-.94-.47-.224-1.98-2.042-.715-3.186-1.418-1.203.81-3.907-1.577-3.448 1.116.71 1.215 3.829-1.625 2.274.945-.992 1.794-3.627 5.767-3.284 7.827.043 3-3.066.626-4.138-.37-.72-1.994-.245-5.479-2.13-6.455-2.045-.089-3.8-.275-4.593-2.561-.477-1.636.507-4.072 2.26-4.448 2.567-1.612 3.483 1.888 5.89 1.954.747-.782 2.784-1.03 2.953-1.908-1.58-.278 2.003-1.327-.151-1.924-1.189.14-1.955 1.232-1.323 2.159-2.303.537-2.377-3.333-4.591-2.113-.056 1.93-3.616.626-1.232.235.82-.358-1.336-1.395-.171-1.207.572-.03 2.497-.706 1.976-1.16 1.072-.665 1.973 1.595 3.023-.05.757-1.266-.318-1.5-1.268-.858-.535-.6.945-1.894 2.251-2.454.436-.186.851-.288 1.17-.26.657.76 1.874.892 1.937-.09A12.205 12.205 0 0 0 18 5.75c-2.67 0-5.208.848-7.31 2.417.565.259.886.58.342.992-.423 1.26-2.137 2.95-3.643 2.71a12.114 12.114 0 0 0-1.516 4.39c1.26.418 1.551 1.243 1.28 1.52-.642.56-1.037 1.354-1.24 2.223a12.16 12.16 0 0 0 3.425 6.66A12.17 12.17 0 0 0 18 30.25a12.17 12.17 0 0 0 8.662-3.588M27.9 8.101A13.908 13.908 0 0 1 32 18c0 3.739-1.456 7.254-4.1 9.898A13.908 13.908 0 0 1 18 32c-3.74 0-7.255-1.456-9.9-4.1A13.908 13.908 0 0 1 4 18c0-3.74 1.456-7.255 4.1-9.9A13.909 13.909 0 0 1 18 4c3.74 0 7.255 1.456 9.9 4.1"/>
    </g>
</svg>
