<svg xmlns="http://www.w3.org/2000/svg" width="24" height="24" viewBox="0 0 24 24">
    <g fill="none" fill-rule="evenodd">
        <path d="M0 0h24v24H0z"/>
        <path fill="#00BF8F" d="M20.462 8.923h-3.14A6.155 6.155 0 0 0 12 5.846a6.151 6.151 0 0 0-5.32 3.077H3.537V5.75c0-1.22.993-2.212 2.212-2.212h12.5c1.22 0 2.212.993 2.212 2.212v3.173zm-12.999 2.25l.008-.055c.051-.263.127-.517.22-.763l.019-.049a4.598 4.598 0 0 1 .857-1.383 4.6 4.6 0 0 1 6.866 0 4.766 4.766 0 0 1 .499.67c.14.225.26.465.359.714l.017.047c.094.246.169.5.221.764.004.018.006.037.008.055.05.269.078.544.078.827a4.616 4.616 0 0 1-9.23 0c0-.283.029-.558.078-.827zM18.25 2H5.75A3.75 3.75 0 0 0 2 5.75v12.5A3.75 3.75 0 0 0 5.75 22h12.5A3.75 3.75 0 0 0 22 18.25V5.75A3.75 3.75 0 0 0 18.25 2zM12 9.068c-.558 0-1.074.164-1.518.433.139-.043.283-.072.434-.072a1.487 1.487 0 1 1-1.487 1.488c0-.153.03-.297.073-.435A2.9 2.9 0 0 0 9.068 12 2.932 2.932 0 1 0 12 9.068zm5.385-1.683a.77.77 0 0 1-.77-.77V5.077a.77.77 0 0 1 .77-.77h1.538a.77.77 0 0 1 .77.77v1.538a.77.77 0 0 1-.77.77h-1.538z"/>
    </g>
</svg>
