<svg xmlns="http://www.w3.org/2000/svg" width="36" height="36" viewBox="0 0 36 36">
    <g fill="none" fill-rule="evenodd">
        <path d="M0 0h36v36H0z"/>
        <path fill="#F26522" d="M14.24 28.272c-.008-.015-.02-.025-.038-.05a1.136 1.136 0 0 0-.047-.057c-.011-.013-.024-.034-.036-.045-.011-.012-.038.014-.052.024-.014.01-.013.018-.022.03-.008.011-.011.011-.02.015-.009.005-.009-.003-.014 0-.006.003-.006.013-.015.03-.009.018-.011.018-.026.022a.089.089 0 0 1-.046.002c-.015-.004-.097 0-.097 0s-.02.01-.025.022c-.004.011.015.021.019.026.004.004 0 .016 0 .033s.007.014.012.019c.004.004.037.013.078.026.04.013.014.006.029.026.014.02.018.042.026.072.007.03.029.058.042.086.013.027.03.045.04.069.01.024.015.025.018.046.003.022.013.028.011.06-.001.032-.004.046-.01.075-.006.029.017.05.017.06 0 .008.018.027.035.051.017.025.013.01.038.015.025.004.013-.029.013-.03 0-.003 0-.03-.009-.044-.009-.014 0-.01 0-.019 0-.008.01-.042.013-.055.003-.013.009-.053.015-.075a.361.361 0 0 1 .044-.081.138.138 0 0 0 .024-.046c.008-.025.003-.038 0-.045-.003-.007-.012-.015-.012-.028 0-.013-.003-.014 0-.023a.054.054 0 0 0-.01-.037c-.007-.008.004-.035.001-.048-.002-.013 0-.04 0-.055s.008-.022.02-.03c.007-.003-.007-.027-.015-.041zm.912.614c-.019.014-.066.056-.033.07.033.015.038-.014.056 0 .02.015.038-.01.038-.033s-.005-.028-.019-.037c-.014-.01-.042 0-.042 0zm.528.158c-.02.009-.074.065-.05.083.025.019 0 .037.05.033a.06.06 0 0 0 .057-.058c0-.012.009.016 0-.012-.008-.028-.057-.046-.057-.046zm-.39.3s-.068-.021-.074 0c-.005.022-.04.034-.013.068.027.034.019.043.038.038.02-.004.032-.02.05-.033.017-.013.02-.035.017-.047a.073.073 0 0 0-.018-.026zm3.11.638c.003-.012-.036-.031-.048-.048-.011-.018-.027-.024-.034-.027-.006-.004-.06-.033-.05 0 .01.032.047.07.05.084.004.014.012.022.016.031.003.01.009.031.028.022.02-.01.035-.018.039-.03.004-.011 0-.032 0-.032zm.63-.363c-.02-.027-.09-.077-.094-.05-.005.028.018.046.033.068.014.023.06.028.06.041v-.059zm-.051-.095c-.006-.028-.013-.025-.04-.05-.025-.026-.028-.03-.036-.036-.007-.005-.041-.022-.041 0 0 .023.013.04.028.066.016.025.008.035.03.038a.115.115 0 0 0 .043 0c.008-.003.016-.018.016-.018zm.25-.501a.16.16 0 0 1 .013.048c.002.011-.023.015 0 .021.023.006.021.015.05 0 .03-.015.027-.029.049-.042a.105.105 0 0 0 .04-.047.139.139 0 0 0 .02-.056c.001-.019.003-.02-.024-.036l-.062-.039c-.027-.017-.036-.025-.05-.03-.013-.007-.015.001-.036-.012l-.045-.027c-.019-.012-.029-.012-.056-.024-.027-.011-.094-.027-.114-.038-.019-.012-.077-.03-.098-.04a.646.646 0 0 0-.087-.04c-.033-.01-.052-.015-.071-.023-.02-.007-.033-.011-.045-.02a.212.212 0 0 0-.056-.028c-.02-.007-.027-.019-.056-.019-.028 0-.054-.002-.061 0l-.047.01c-.032.005-.029.01-.063.01-.035 0-.105 0-.112-.003a.675.675 0 0 0-.083.027s.006.018.021.023a.32.32 0 0 0 .102.008.343.343 0 0 1 .11.004c.025.008.07.048.097.075.027.027.25.323.268.346.017.023.027.046.102.075.076.03.18.071.203.064.023-.008.04-.033.048-.058s.01-.058.018-.075c.007-.018.005-.02.015-.037l.01-.017zm5.228-4.405c-.004-.019.004-.038-.031-.046s-.027-.002-.054-.01c-.027-.007-.06-.005-.048.016.011.021.048.058.054.064a.393.393 0 0 0 .05.042c.027.02.037.027.05.03.014.005.025-.003.027-.015.002-.011.01-.017 0-.028-.01-.012-.008-.01-.017-.026a.097.097 0 0 0-.031-.027zm.149-1.899c-.014-.019-.09-.014-.09 0s-.028.061 0 .066c.029.005.039 0 .039 0s.055.028.05.002c-.004-.026 0-.068 0-.068zm-.134-.909c-.016-.022-.065 0-.065 0s-.016-.004-.023.032c-.006.037-.032.055 0 .069.033.013.042.004.065-.019a.185.185 0 0 0 .036-.059l-.013-.023zM22.538 7.527c-.01-.006-.084-.035-.09-.055-.006-.02-.018-.032-.026-.047-.009-.014-.012-.017-.03-.034-.017-.018-.051-.038-.066-.047-.014-.008-.052-.02-.06-.023-.01-.003-.085-.008-.093 0-.009.009-.119.032-.13.038-.012.006-.05.014-.061.017-.012.003-.05.012-.081.026-.032.015-.081.026-.093.032a.212.212 0 0 1-.084.023c-.035 0-.072-.017-.072-.017s-.04-.032-.052-.035c-.012-.003-.052.003-.052.003s-.018-.007-.035.014c-.018.02-.038.047-.038.047s-.023.008-.029 0c-.006-.009-.043-.01-.043-.047s-.044-.124-.047-.133c-.002-.008-.046-.06-.069-.06-.023 0-.06.026-.072.031-.012.006-.076.03-.079.02-.002-.008-.17-.141-.17-.141s-.07-.047-.073-.061c-.003-.014-.014-.02-.014-.05 0-.028-.012-.066-.026-.074-.015-.01-.05-.044-.058-.047-.009-.003-.026-.008-.058 0-.032.009-.052.023-.075.023s-.044 0-.064-.014c-.02-.015-.067-.035-.081-.055-.015-.02-.055-.055-.072-.072-.018-.018-.064-.047-.076-.055-.011-.01-.049.002-.066 0-.018-.003-.038.017-.05.02-.011.003-.037.014-.037-.012 0-.026-.044-.202-.038-.22.006-.017-.007-.145 0-.174.006-.028-.002-.144-.002-.19 0-.047.006-.082 0-.12-.006-.037 0-.077-.015-.106l-.032-.061s-.02.014-.032 0a.322.322 0 0 0-.066-.052.086.086 0 0 1-.041-.044c-.006-.02-.017-.032-.017-.04 0-.009-.009-.03 0-.05a.309.309 0 0 0 .014-.046s.006-.029.017-.037c.012-.01.02-.024.038-.024s.026-.002.046 0c.02.003.038-.011.058-.023.02-.011.02-.011.032-.029.012-.017.02-.029.032-.06.012-.032.026-.079.035-.099.008-.02.008-.055.014-.07l.012-.031.014-.044.012-.075-.015-.02s-.026-.012-.04-.023c-.015-.012-.084-.05-.098-.064a.587.587 0 0 0-.05-.043 5.18 5.18 0 0 1-.052-.041h-.017l-.038-.029s-.023-.009-.058 0l-.113.032s-.182.029-.19.026c-.01-.003-.085 0-.105-.003-.02-.003-.026.009-.055-.011-.029-.02-.058-.038-.078-.061-.02-.023-.032-.032-.046-.044a.289.289 0 0 0-.084-.043c-.02-.003-.053.014-.079 0-.026-.015-.118-.02-.127-.023-.009-.003-.06 0-.06 0s-.007-.003-.024.011c-.017.015-.064.04-.072.047-.009.005-.015.017-.023.023-.01.006-.018.035-.04.035-.024 0-.068-.003-.088-.027-.02-.023-.142-.11-.147-.118a1.18 1.18 0 0 0-.087-.084.308.308 0 0 0-.081-.03c-.047-.01-.055.007-.078 0a1.06 1.06 0 0 1-.134-.051.728.728 0 0 1-.11-.096l-.07-.113c-.01-.02-.025-.049-.043-.066-.017-.018-.043-.038-.043-.038s-.014 0-.029-.029c-.014-.029-.009-.029-.035-.052-.026-.023-.04-.026-.063-.046-.024-.02-.035-.023-.061-.05-.026-.026-.03-.02-.038-.04-.009-.02-.009-.032-.026-.052-.017-.02-.029-.026-.046-.023a.076.076 0 0 0-.046.032c-.01.014-.024.057-.024.057s-.02.027-.037.041c-.018.014-.035.035-.058.038a.647.647 0 0 0-.107.029c-.02.008-.09.02-.102.026-.011.005-.04.023-.055.031a1.038 1.038 0 0 1-.058.03s-.026.011-.046.014a.914.914 0 0 0-.176.037c-.018.015-.11.067-.116.076-.006.008-.044.052-.052.078l-.058.156c-.012.032-.02.087-.035.125a.518.518 0 0 1-.07.113c-.011.011-.104.08-.112.09-.009.008-.084.063-.084.063s-.03.026-.061.026a.992.992 0 0 0-.145.009c-.011.006-.035.032-.05.046a.775.775 0 0 0-.051.06c-.006.01-.018.036-.035.056-.017.02-.035.046-.05.058-.014.011-.02.014-.051.023-.032.009-.055.006-.073.006-.017 0-.011.011-.052-.003a.404.404 0 0 1-.07-.029c-.008-.006-.045-.012-.057-.04-.012-.03-.02-.038-.029-.053-.009-.014-.006-.034-.026-.058-.02-.023-.099-.023-.119-.017a1.26 1.26 0 0 0-.118.067s-.076.066-.084.078c-.01.011-.044.055-.047.078-.003.023-.078.107-.084.119-.005.011-.029.046-.037.07-.009.022-.023.057-.026.086-.003.029-.02.118-.02.144 0 .027.023.073-.024.067-.046-.005-.095-.014-.113-.043-.017-.03-.095-.075-.107-.099-.011-.023-.101-.09-.11-.112-.009-.024-.087-.099-.11-.122a.287.287 0 0 0-.08-.058c-.015-.003-.05-.02-.07-.012-.02.01-.035.053-.035.084 0 .032-.032.125-.032.125s-.02.066-.023.084c-.003.017-.04.092-.05.086-.008-.005-.051.015-.066.018-.014.003-.032.005-.04-.018-.01-.022-.03-.06-.024-.089.006-.029-.005-.055 0-.075.003-.02.017-.052-.001-.073a.203.203 0 0 1-.048-.08c-.011-.038-.02-.018-.035-.067-.014-.05-.029-.055-.029-.081a.218.218 0 0 0-.017-.087c-.009-.009-.066-.061-.107-.018a.534.534 0 0 0-.081.105 1.17 1.17 0 0 1-.032.092c-.009.02-.029.047-.04.05a2.15 2.15 0 0 0-.125.046c-.011.006-.043.049-.04.084.002.034.014.118 0 .142-.015.023-.006.06-.03.078a.442.442 0 0 1-.1.055.893.893 0 0 1-.096.008.272.272 0 0 1-.081-.017.406.406 0 0 0-.087-.02.317.317 0 0 1-.078-.012c-.009-.006-.047-.018-.052-.04-.006-.023-.018-.058-.018-.093 0-.035-.014-.136-.017-.162-.003-.026-.015-.043-.046-.072-.032-.03-.047-.03-.067-.044-.02-.014-.075-.055-.142-.064-.067-.008-.113.006-.142 0a1.097 1.097 0 0 0-.147-.008c-.044 0-.145-.009-.191-.009-.047 0-.113.009-.122.04-.009.032-.026.079-.035.11l-.017.064a.215.215 0 0 1-.035.078c-.02.024-.029.041-.043.061l-.05.064c-.017.023-.1.093-.098.113.003.02.235.388.243.4.009.011.133.156.145.176.012.02.087.02.139.078.052.058.098.119.107.136.009.018.075.093.078.104a.42.42 0 0 1 .009.064c0 .015.009.087.011.113.003.026.015.104.038.107.023.003.052.012.081.003.03-.009.026 0 .052-.014.026-.015.03-.02.044-.047a.635.635 0 0 0 .043-.09c.009-.026-.009-.034.02-.069.03-.035.055-.038.064-.026.009.012-.003.006.015.046.017.04.04.102.04.102l.067.017c.011.003.052.006.063.014.012.01.038.003.052.058.015.055.01.064.01.11a.485.485 0 0 1-.015.142c-.012.023-.024.061-.035.064-.012.003-.081.029-.093.032a.236.236 0 0 0-.08.04c-.015.018-.036.023-.03.052.006.03-.003.073.012.073.014 0 .04-.012.052 0 .012.011.02.023.026.04.006.018.012.03-.003.067a.777.777 0 0 1-.064.136c-.008.003-.029 0-.034.014-.006.015-.038.05-.018.076.02.026.04.04.058.055.018.014.04.014.05.049.008.035.011.066.02.087.008.02.023.066.037.098.015.032.026.055.052.06.026.007.073.021.087.027.015.006.012.014.035.052.023.038.026.055.05.093.022.037.063.118.092.156a.552.552 0 0 0 .15.116c.035.014.11.05.16.058.049.008.115.02.156.023.04.003.058.02.072 0 .015-.02.015-.032.03-.032.014 0 .043.017.046.026a.1.1 0 0 1 .002.032c0 .014-.005.029.01.043.014.015.115.064.132.073.018.008.079.052.102.066a.273.273 0 0 1 .07.073c.01.02.008.043.048.052.04.009.035.009.07 0s.046-.003.046-.05c0-.046-.009-.04.012-.083.02-.044.017-.055.032-.073.014-.017.029-.063.04-.072.012-.009-.009-.012.032-.029.04-.017.05-.02.093-.035.043-.014.144-.072.208-.08.064-.01.136-.067.165-.085a.57.57 0 0 1 .145-.043c.017 0 .084.008.118.023a.981.981 0 0 1 .151.09c.029.023.04.017.07.063.028.047.005.032.046.079.04.046.06.086.09.095.028.009 0-.012.049.017.049.03.058.03.066.05.009.02.038.046.05.06.011.015.046.035.075.055.029.02.011-.028.029.02.017.05.04.157.037.18-.002.023-.037.075-.04.093-.003.017-.023.035-.04.043-.018.009-.073-.011-.096 0-.023.012-.061-.007-.07.003-.008.009-.008-.006-.029.02-.02.026-.034.026-.04.047-.006.02-.015.029-.015.049s-.029.026.01.052c.037.026.034.032.074.044.04.011.044.017.09 0 .046-.018.029-.05.075-.027.047.024.084.076.128.096.043.02.084.06.092.064.01.003.032.046.035.09a.175.175 0 0 0 .078.124c.047.032.148.116.177.124.029.01.084-.005.11 0a.153.153 0 0 1 .084.055c.02.03.052.07.052.105a.55.55 0 0 1-.015.139.146.146 0 0 1-.055.072.659.659 0 0 1-.11.046c-.031.009-.098.02-.112.038-.015.017-.05.02-.058.064a.186.186 0 0 0 .008.124c.02.046-.034.107-.058.125-.023.017-.107.052-.13.075a.668.668 0 0 0-.095.113c-.026.043-.01.072-.058.072-.05 0-.171-.017-.194-.017-.023 0-.073-.035-.099-.07-.026-.034-.078-.066-.121-.04-.044.026-.064.037-.093.037-.029 0-.13-.02-.15-.02-.02 0-.081-.032-.099-.035a2.463 2.463 0 0 0-.113-.014c-.008 0-.046-.015-.058-.009-.011.006-.037.023-.046.023-.009 0-.081-.034-.096-.034-.014 0-.031.008-.028.037a.7.7 0 0 0 .098.16c.026.034.067.086.058.11-.009.023-.075.075-.096.095-.02.02-.101.064-.101.064s-.009-.032-.026-.015a.21.21 0 0 0-.052.073c-.006.023-.03.046-.052.06-.023.015-.07.018-.073.044-.003.026.006.049.047.075.04.026.063.04.084.052.02.012.168.081.185.087.017.006.101.017.13.04.03.024.18.212.2.226.02.015.185.165.24.209.055.043.136.08.165.107.03.026.093.06.113.09a.67.67 0 0 0 .16.101c.025.012.054.023.075.043.02.02.058.073.086.102.03.029.073.072.108.078.034.006.095.023.124.017.029-.006.09.003.122.001.032 0 .032-.004.075.025.043.03.104.078.124.096.02.017.038.035.055.037.018.003.058.006.079.041.02.035.057.05.063.07.006.02-.003.052-.011.06-.009.009-.05-.008-.061.023a.99.99 0 0 0-.017.18c0 .026.002.07.011.081.009.012.029.046.04.064.012.017.064.115.076.139.011.023.058.107.072.124.015.017.003.023.044.029.04.006.058 0 .084.026.026.026.023.044.046.067.023.023.06.058.081.066.02.009.072-.003.09 0 .017.003.02-.005.06.004.041.008.07.022.082.045.011.024.04.142.055.151.014.009.046.014.055.043.008.03.017.061.026.067a.145.145 0 0 0 .046.014c.017.003-.006-.04.017.003.024.044-.005.171-.003.215.003.043.173.34.193.355.019.015.067.056.096.07.029.013.09.034.118.067.027.033.46.52.46.52s.184.178.19.18c.006.002.09 0 .118 0 .027 0 .046.004.046.03 0 .024-.011.024.004.057s.02.037.029.062l.12.282s.056.065.079.08c.023.016.07.04.07.04s.04-.01.073-.01c.032 0 .057-.012.063.01.006.02.004.036.006.053.002.018-.012.02-.012.05 0 .031-.027.122-.02.169.005.046.03.204.036.225.006.022.029.09.033.097a.291.291 0 0 0 .038.056c.012.01.068.027.083.044.016.018.025.023.027.048.002.026-.011.054-.005.076.005.02-.004.036.027.077.03.04.02.065.06.077.038.012.06.02.092.01a.096.096 0 0 0 .06-.056l.025-.058c.004-.008-.002-.02.021-.039.023-.02.066-.021.089-.013.023.007.013.013.015.042.002.03.01.08.014.106.004.027 0 .025.027.049.027.023.029.017.044.052.016.034.027.04.035.058.008.017.027.05.044.06.018.01.054.013.07.017.015.004.048.021.056.023l.077.01.093.061s-.004-.027.019.033.033.09.033.099c0 .007-.018.038.002.061.02.024.079.052.116.072.036.019.115.046.166.08.05.036.063.041.096.063.033.02.095.046.112.063.017.018.037.023.04.037.004.013.008.008.006.04a1.56 1.56 0 0 1-.011.109.158.158 0 0 1-.031.075c-.014.013-.035.048-.068.05a.871.871 0 0 0-.14.025c-.043.012-.087.02-.097.037-.01.017-.006.03-.014.046-.007.016-.011.023-.023.029-.011.006-.007.023-.046.029-.039.006-.046-.01-.05.017-.004.027-.01.039.01.052.019.014.053.027.08.041.027.013.037.002.055.05.017.048.044.089.048.124.004.034.034.06.05.079.015.02.027.029.042.052.016.023.054.08.06.098.006.02.023.047.043.05.019.004.042.01.065.01s.052.014.066.02c.013.005.056.057.087.082.03.026.061.033.083.039.021.006.077.014.089.039.011.025.025.052.036.083.012.03.021.042.023.06.002.017-.004.046.022.06.025.013.061.03.069.038.008.008.025.033.021.054a.112.112 0 0 1-.042.056c-.008.002-.093.013-.108.033-.016.019-.025.036-.023.063a.338.338 0 0 1-.006.09c-.006.024-.031.047-.066.059-.035.012-.114.048-.133.054a.138.138 0 0 0-.054.035c-.01.011-.033.035-.029.07l.01.084c.002.01.005.018.036.03.031.01.099.032.106.05.008.017.02.055.016.067-.004.011-.016.021-.03.03-.013.01-.034.005-.045.043-.012.039-.027.141-.027.166 0 .025-.018.143-.018.158 0 .016.012.112.006.14-.006.026-.048.038-.05.061-.002.023-.01.045-.008.062s-.008.056-.017.066a.331.331 0 0 0-.047.08.313.313 0 0 1-.032.074c-.01.013-.022.037-.047.037s-.034.013-.044.034c-.01.022-.037.043-.046.064-.01.021-.033.021-.033.048s.011.047.015.068c.004.021.006.021-.007.054-.014.033-.041.145-.058.16-.018.016-.04.029-.037.066.004.036.002.044.012.079s.015.056.01.075c-.007.02-.034.015-.014.052.019.037.03.052.058.062.027.01.048-.008.07.015.02.024.026.02.026.049s-.004.065.006.079c.01.013.01.021 0 .042s-.023.031-.01.05c.014.02.021.02.014.037-.008.017-.023.021-.023.044 0 .024.002.047.034.066.033.02.103.054.116.066.014.011.006-.01.037.071.03.081.096.282.102.305.006.023.006.089.008.12.002.03-.004.218-.004.258 0 .04-.062.17-.085.216-.023.047-.168.315-.18.356a.451.451 0 0 0-.015.177c.012.048.037.16.054.193s.035.012.046.075c.012.064.02.108.018.135-.002.027.002.037.006.055.003.017.007.027.005.042-.002.015-.019.025-.002.046.018.022.02.027.02.054s-.021.052-.012.07c.01.017.025.036.008.05-.017.013-.039.002-.031.04.008.04.029.068.014.093-.016.025-.085.05-.072.102.014.053.014.085-.002.095-.015.01-.166.098-.18.112-.013.013.01.06-.032.056-.043-.004-.05-.01-.056-.033-.006-.023-.004-.046-.033-.05-.029-.004-.035.004-.062-.014-.027-.017-.048-.04-.07-.032a.601.601 0 0 1-.072.02c-.033.009-.07.005-.083.014-.014.01-.018.018-.03.025-.01.008-.017.004-.036 0-.02-.003-.056-.017-.062.006a.074.074 0 0 1-.036.048c-.018.01-.031.037-.035.053-.004.015-.043.03-.052.032-.01.002-.02.002-.023.027-.004.025.011.049-.012.056-.023.008-.039-.011-.043 0-.003.012.006.043-.015.049-.021.005-.054-.01-.064.019-.01.029-.025.044-.058.052-.032.008-.054-.021-.063-.012-.01.01-.023.024-.052.031-.03.008-.052-.017-.076-.015-.023.002-.036.01-.07.017-.032.006-.072-.029-.084-.029-.012 0-.037-.015-.054.03-.017.044-.03.067-.04.088-.01.021-.012.03-.053.058-.04.027-.03.06-.079.033-.048-.027-.064-.031-.085-.006-.02.025-.05.03-.083.016-.033-.014-.106-.004-.106-.004s-.037-.006-.042-.018c-.006-.011-.014-.017-.03-.004-.015.014-.01.045-.032.022-.021-.024-.021-.053-.05-.049-.03.004-.03.023-.04.031-.012.008-.034-.013-.045.004-.012.017-.033.021-.006.07.027.048.064.106.066.123.002.017.015.02-.018.052-.033.033-.077.058-.061.102.015.045.028.047.042.085.013.039.04.064.017.087-.023.023-.073.021-.09.008-.018-.014-.02-.04-.049-.027-.029.013-.036.045-.07.037-.032-.008-.074-.027-.09-.031-.015-.004-.021.025-.038-.006a.142.142 0 0 0-.047-.058c-.023-.017-.03-.027-.06-.03-.029-.005-.032-.009-.075-.022-.042-.014-.056-.012-.077-.014-.021-.002-.058-.002-.064-.011-.005-.01-.013-.031-.03-.035l-.058-.013s-.02-.022-.047-.014c-.027.008-.06.008-.07.054-.009.046.005.058-.024.085-.03.027-.012.062-.037.064-.025.002-.035.004-.066.005-.03.002-.065.004-.071-.003-.006-.008-.02-.027-.044-.014-.026.014-.11.058-.118.075a.177.177 0 0 0 .017.116c.021.035.047.043.06.056.013.014.013.054.021.085.008.03.01.037.004.064-.006.027.004.04.01.056.006.015.011.023.006.048-.006.025.005.07.001.1-.003.031-.003.058-.01.083-.005.025.007.049.014.062.008.014-.005.014.018.04.023.028.033.01.036.041.004.031-.023.023.02.043.042.019.058.025.085.032.027.008.046-.003.054.016.007.02.036.08.056.11.019.029.06.062.079.071.019.01.002.014.038.02.037.005.054-.008.072-.008.017 0 .034-.028.048.009.014.037.017.012.033.068.015.056.023.05.013.083s-.023.03-.032.048c-.01.018-.018.01-.049.039-.03.029-.017.03-.007.071.01.04.03.035.042.077.012.043.029.049.033.095s.025.064-.004.054c-.029-.01-.023-.023-.052-.029-.03-.006-.031-.008-.066-.002s-.056-.006-.083-.015c-.027-.01-.067-.016-.079-.031-.011-.016-.021-.037-.052-.044-.03-.008-.052.01-.066-.02-.013-.029-.042-.1-.063-.092-.022.007-.018.027-.049.063-.03.037-.05.05-.063.035a.29.29 0 0 1-.035-.062c-.006-.013-.033-.011-.039-.044-.005-.033-.017-.056-.017-.056s-.017-.02-.021-.033a.34.34 0 0 0-.048-.07c-.01-.01-.016-.038-.043-.046-.027-.007-.048.004-.062.008-.013.004-.077.014-.083.017-.005.004-.03.031-.056.037-.025.006-.032.01-.077.015l-.118.014c-.038.004-.069.002-.098.008-.029.005-.035.005-.046.005-.012 0-.014-.007-.037-.007h-.023s.008.01-.03-.008c-.036-.017-.057-.023-.059-.006-.002.018.008.018-.012.048-.019.031-.001.031-.034.041-.033.01-.054.01-.062.021-.008.012-.006.039-.027.048-.021.01-.037.02-.064 0-.027-.019-.056-.04-.077-.042a.225.225 0 0 0-.052 0c-.01.002-.033.004-.048-.006a.431.431 0 0 0-.077-.03c-.016-.004-.054-.018-.074-.018-.02 0-.058.004-.085.006-.027.002-.042-.02-.061.008-.02.026-.066.044-.049.086.018.043.05.124.054.18.004.056 0 .094-.03.112-.031.017-.084.025-.116.048-.033.023-.05.025-.078.05-.027.025-.056.037-.07.062l-.038.06c-.025.04-.032.071-.07.077-.036.006-.063-.002-.1 0-.036.002-.042-.003-.094.002-.052.006-.054-.003-.093 0-.038.004-.061.002-.08-.008-.02-.01-.057-.033-.08-.033a.133.133 0 0 0-.05.01c-.01.004-.046.004-.062.014-.015.01-.03.038-.036.046a.133.133 0 0 1-.041.027c-.013.006-.023.027-.029.035-.006.007-.002.013-.035.027-.032.013-.034.02-.061.038l-.027.018-.014.032s-.012.008-.006.024c.006.015-.013.034.023.036.037.002.054-.015.062-.017.008-.002.01-.006.021.017.012.023.058.07.056.081-.002.012-.017.03.004.037.021.008.062.029.072.056.01.027.015.058.02.098.007.04-.005.066 0 .1.007.035.06.047.074.047.014 0 .031-.021.099-.06.067-.038.094-.056.13-.034.038.02.11.06.128.082a.598.598 0 0 0 .05.06c.025.027.037.023.062.049.025.025.014.034.04.042.028.008.113-.008.153 0 .04.008.066.023.089.044a.465.465 0 0 1 .077.1c.012.026.064.049.066.08a.384.384 0 0 1-.002.085c-.004.013-.004.044-.018.033-.013-.012-.013-.018-.03-.026-.018-.007-.026-.017-.039 0-.014.018-.131.085-.137.091-.006.006-.02.014-.03.025-.012.012-.022.033-.041.043a.107.107 0 0 1-.058.013c-.027 0-.039-.015-.06.01a.625.625 0 0 0-.056.083c-.01.017-.021.027-.021.044v.04c0 .02-.006.005-.014.041a1.235 1.235 0 0 0-.015.118l-.008.054c-.002.016-.008.008-.008.03 0 .02-.025.065-.021.088.004.023.008.035.004.06-.004.025-.004.114-.008.135-.004.021-.044.118-.048.137-.004.02-.017.158-.017.158v.315c0 .023-.014.08-.014.092l.008.1c.002.018-.008.078-.008.087 0 .01.021.016.021.037 0 .021-.015.035-.02.048a.34.34 0 0 0-.009.064c0 .016-.01.02-.013.037-.004.017-.002.044-.002.065 0 .022.002.076.011.087.01.012.022.023.045.021.023-.001.029-.015.044-.02.016-.007.023-.01.039-.01.015 0 .033.002.052 0 .02-.002.04-.008.048.002s.01.052.01.052-.023-.008-.025.011c-.002.02.007.033.01.039.001.006-.004.025-.016.025s-.023-.02-.037 0c-.013.02-.03.035-.054.029-.023-.006-.058-.016-.06-.008-.002.008-.011.031.002.039.014.007.022.002.025.017.004.016.002.027-.013.029-.016.002-.039-.015-.044-.01a.105.105 0 0 0-.02.035c0 .006.014.021.02.027.005.006.007.021-.004.03-.012.007-.03.003-.037.009-.008.006 0 .007-.025.033-.025.025-.043.025-.048.027-.006.002-.018-.002-.039-.012s-.037-.014-.044-.023c-.008-.01-.027-.027-.031-.014-.004.014-.012.022-.006.03.006.007-.004.004.02.02.022.014.017.006.034.018a.48.48 0 0 0 .122.023c.013 0 .058.008.083.014.025.005.027.015.065.017a.408.408 0 0 0 .135-.033c.027-.011.047-.023.06-.029.014-.006.035-.021.068 0s.042.033.067.027c.025-.006.052-.038.081-.05a.228.228 0 0 0 .08-.056c.02-.023.02-.037.055-.067a.422.422 0 0 0 .081-.083v-.062c.002-.006-.028-.012.002-.006.031.006.039.029.049.03.01.003.025.005.042.005s.02.01.037-.004c.017-.014.04-.012.052-.021.012-.01.058-.062.067-.074a.397.397 0 0 0 .039-.06c.01-.019.025-.04.04-.073.016-.033.01-.04.026-.058a.538.538 0 0 1 .044-.046.448.448 0 0 0 .043-.046c.005-.008.028-.026.036-.056.008-.031-.017-.05 0-.076.018-.025.039-.067.07-.083.03-.015.104-.115.13-.123.028-.008.37-.103.385-.103.015 0 .07-.023.116-.038a6.83 6.83 0 0 1 .264-.083c.016-.002.118-.02.133-.027a2.29 2.29 0 0 1 .176-.06.545.545 0 0 0 .112-.05c.021-.014.027-.01.035-.027.007-.018.007-.027.007-.027l-.034.008-.04.007.001-.019s.008-.004.033-.023c.025-.02.013-.023.042-.033.03-.01.054-.008.06-.027.006-.02-.006 0 .006-.02.011-.019.013-.063.015-.073.002-.01-.005-.038 0-.038.006 0 .006.004.02-.006.013-.01 0-.04-.002-.046-.002-.006-.097-.112-.1-.122-.005-.01-.018-.039-.028-.04-.01-.002-.02.007-.027-.004-.005-.012-.029-.023-.029-.037 0-.013-.03-.168-.03-.168s.048-.017.055-.017c.008 0 .043.017.064.046a.785.785 0 0 0 .102.11c.03.023.074.102.103.11.029.008.088.031.106.035.017.004.044.011.056.035.011.023 0 .025.025.05s.03.04.046.044c.016.004.06-.004.06-.004s.01-.004.02-.011c.009-.008 0-.02.036-.006.037.013.046.017.062.013a.18.18 0 0 0 .05-.027c.013-.01.027-.019.042-.027a.135.135 0 0 0 .04-.029c.005-.007-.005-.03.01-.04.016-.01.045-.021.047-.031.002-.01.006-.013.008-.027a.548.548 0 0 0 .003-.066c0-.025.016-.019-.003-.046-.02-.027-.018-.027-.043-.056-.025-.029-.035-.027-.048-.046-.014-.02-.027-.037-.033-.054a.881.881 0 0 0-.037-.087 1.235 1.235 0 0 0-.113-.143c-.018-.017-.068-.071-.099-.098-.03-.027-.085-.06-.108-.083-.023-.023-.079-.062-.093-.074-.013-.011-.025-.007-.054-.04a.697.697 0 0 0-.057-.062c-.014-.012-.045-.03-.056-.052a.169.169 0 0 1-.018-.037c-.002-.007-.006-.052-.006-.052s0-.023.006-.02c.006.005.072.026.083.043.012.018.045.06.056.08.012.019.128.115.166.142.039.027.16.091.193.122.033.03.068.06.122.104.054.044.065.062.085.081.019.02.036.04.071.068.035.027.035.027.054.032.02.006.033.006.044-.005.012-.012.01-.022.041-.022.03 0 .039-.007.05-.023.012-.015.035-.015.039-.029.004-.013.042.002-.01-.03-.052-.033-.087-.043-.098-.055-.012-.011-.004-.011-.03-.042a.188.188 0 0 0-.092-.068c-.044-.015-.029-.017-.093-.03-.063-.014-.104-.016-.113-.04-.01-.022-.186-.258-.19-.28a.543.543 0 0 0-.083-.132c-.015-.014-.038-.046-.067-.056a.167.167 0 0 0-.075-.012c-.018.004-.022.006-.062.006a.25.25 0 0 1-.087-.013c-.013-.006-.027-.012-.027-.02 0-.007-.015-.027-.025-.027-.01 0-.023.004-.031.004s-.073-.021-.085-.023c-.011-.002-.033 0-.04-.004-.008-.004-.039-.013-.049-.027-.01-.013-.017-.02-.027-.029-.01-.01-.019-.013-.029-.025-.01-.011-.02-.015-.011-.025.01-.01.02-.013.02-.013s.101.06.134.073c.033.013.047.023.072.025.025.002.054.02.086.004.033-.016.041-.023.066-.031s.008-.014.062-.014l.108.002c.02 0 .017.008.062-.002.044-.01.023-.025.07-.015l.12.029s-.005.025.049.037c.054.011.12.032.13.034.009.002.053.023.053.023s.023.026.064.031c.04.006.06.006.089.02.029.013.03.011.056.027.025.015.035.017.061.03.028.014.045.024.062.024.018 0 .031-.002.037-.014.006-.011.004-.021.008-.033.004-.011.013-.005.004-.011a1.292 1.292 0 0 0-.031-.018s-.016 0-.027-.003c-.012-.004-.022-.04-.008-.043.013-.002.033 0 .037.006a.2.2 0 0 0 .056.039c.017.005.03.02.04-.004.01-.025.01-.043.012-.058.002-.016 0-.025.007-.048.008-.024.002-.031.012-.043.01-.011.01-.048.01-.048s-.012.004-.02-.014c-.007-.017-.013-.038-.034-.067-.022-.03-.039-.039-.053-.058-.013-.02-.01-.018-.029-.023-.019-.006-.036-.01-.027-.031l.027-.052c.018-.035.016-.04.024-.058.007-.018.007-.027.01-.039.001-.011-.005-.01.003-.025.008-.015.023-.033.025-.04.002-.008.006-.02.006-.033a.279.279 0 0 0-.004-.047c-.002-.005-.006-.003-.006-.023 0-.019 0-.03.002-.038s.004.004.008-.023.004-.039.004-.039 0-.029.011-.012c.012.018.043.045.047.056.004.012.013.022.004.03-.01.007-.025 0-.03.024a.122.122 0 0 0 .005.066c.007.02.015.023.003.04-.011.018-.02.022-.023.04-.002.017 0 .05-.004.059-.003.01-.025.008-.005.052.019.044.023.054.06.12a.32.32 0 0 0 .075.102c.006 0 .02.01.029-.008.01-.017.011-.038.017-.052.006-.013 0-.04.01-.036.01.003.015.032.017.046a.973.973 0 0 0 .027.08s0 .022.017.026c.018.004.05.014.06.002.01-.012.006-.02.035-.027.029-.008.035.006.04-.014.006-.019.02-.04 0-.054-.019-.013-.03-.013-.04-.029-.01-.015-.017-.015-.017-.03l.002-.043c0-.02 0-.03-.01-.048-.01-.018-.03-.023-.012-.031.02-.008.025.002.033.023.008.021.012.066.018.073.005.008.007.014.015.014s.021-.016.021-.016.002-.038.01-.055c.008-.018.013-.037.025-.037.012 0 .023-.016.025.021a.505.505 0 0 0 .012.095c.004.005.032.03.044.036.012.006.021.018.035.01.013-.008.021-.008.027-.017a.094.094 0 0 1 .025-.03c.008-.003.021-.019.035.003.013.02.038.042.013.065s-.03.021-.056.033c-.025.012-.07.014-.07.042 0 .03-.013.043.003.062.015.02.044.025.044.025s.025-.007.029-.027c.004-.019-.004-.034.008-.048.011-.013.056-.03.065-.035a.29.29 0 0 1 .074.01c.005.002.019-.002.034-.004.016-.002.047-.008.054.01.008.017-.003.02.037.036.04.018.05.024.085.012a.717.717 0 0 0 .133-.08c.02-.015.023-.03.08-.051.055-.021.07-.033.123-.031.052.002.054 0 .089-.006.034-.006.015-.044.04-.062.025-.017.172-.098.18-.102l.077-.035c.017-.007.038-.02.073-.038.035-.018.037-.03.077-.031.04-.002.11-.03.13-.052.019-.023.052-.031.071-.04.02-.01.08-.016.116-.018l.098-.004c.006 0 .04.006.048.01.008.003.031.01.066.007.035-.002.046.022.064-.015.017-.037.01-.093.025-.133.015-.04.033-.137.046-.155.014-.017-.002-.029.048-.06.05-.03.155-.094.172-.098a.453.453 0 0 1 .114.017.481.481 0 0 0 .06.018c.011.002.015.002.017.02.002.016.016.022.03.024.013.002.028-.006.028-.017 0-.012-.015-.03 0-.033.016-.004.018-.002.03-.01.01-.007.005-.011.015-.038.01-.027.019-.062.019-.062s.042-.012.067-.021a.226.226 0 0 1 .079-.02c.026 0 .08-.01.1-.028.022-.02.041-.047.057-.066.015-.02.011-.037.038-.058.027-.021.043-.037.085-.054.043-.017.04-.023.068-.029.027-.006.116 0 .137 0 .021 0 .052.002.062.01.01.007.019.019.034.013.016-.006.024-.007.031-.023.008-.015.024-.087.033-.114.01-.027.006-.065.023-.077.018-.012.035-.015.062-.023.027-.008.031-.004.068-.02.036-.015.044-.025.056-.03.011-.006.005-.002.025-.01.019-.008.019-.021.034-.017.016.003.026.02.049.036.023.016.023.027.046.018.023-.01.042-.022.081-.035.039-.014.056-.03.062-.048.006-.02-.02-.022.008-.04.027-.02.013-.038.017-.055.004-.017.01-.089.01-.094 0-.006-.004-.026 0-.033.003-.008-.008-.023 0-.03l.007-.005.01-.04c.002-.006.006-.031.01-.04.003-.007-.004-.009 0-.02.003-.012-.002-.037 0-.047.003-.01-.008-.027-.008-.033 0-.005-.012-.036 0-.042.011-.006.038-.002.044.006.006.008-.002.01 0 .033s-.005.038.002.044c.008.006.006.017.016.017s.036-.005.044-.003c.008.001.07.046.07.046s.028-.008.032-.025c.004-.018.016-.027.02-.039a.382.382 0 0 0 .01-.06c0-.007-.016-.025 0-.036a.44.44 0 0 1 .044-.027s-.012-.022 0-.031c.011-.01.01-.023.025-.03a.06.06 0 0 0 .025-.019l.01-.03s.013-.014.025-.008c.011.006.015.017.02.004a.185.185 0 0 0 .014-.048.241.241 0 0 0-.05-.058c-.006-.004-.042-.037-.044-.052-.002-.016-.012-.049-.008-.06.004-.012-.004-.037.006-.043.01-.006.02-.01.015-.021-.004-.012-.027-.035-.048-.002s-.027.05-.027.058-.017.025-.029.025-.03-.012-.033-.021c-.002-.01-.011-.02-.004-.039.008-.02.01-.046.016-.06.006-.013.002-.027.013-.034.012-.008.023-.022.031-.022s.02.014.03-.001c.009-.016.015-.037.024-.047.01-.01.037-.029.04-.044.005-.016-.001-.052.008-.052.01 0 .039.027.043.04.004.014 0 .03.002.045s.002.017-.006.034c-.008.018-.02.012-.01.03.01.017.006.032.031.044a.51.51 0 0 0 .047.019c.005.002.013.01.025.004.011-.006.017-.033.017-.045 0-.011-.012-.025-.01-.034l.01-.033a.048.048 0 0 0 0-.029c-.004-.012-.012-.027-.027-.033-.015-.006-.044-.01-.05-.025-.006-.015-.035-.054-.039-.062a.484.484 0 0 1-.013-.04s.011-.08.015-.093c.004-.013.018-.054.021-.075.004-.021-.015-.012-.034-.04-.02-.03-.027-.024-.027-.041 0-.018.002-.058.007-.07.006-.011.024-.065.027-.071.004-.006.002-.021.024-.027.02-.006.034-.006.036-.012a.107.107 0 0 0 .004-.034c-.002-.006-.03-.01-.037-.022-.005-.011-.01-.004-.01-.029v-.067c0-.016 0-.033-.009-.045-.01-.011-.029-.019-.042-.03a.148.148 0 0 1-.031-.033c-.002-.006-.014-.023-.014-.031s-.017-.03.008-.033c.025-.002.068.004.08.023.01.02.036.056.051.077.016.022.027.03.03.041.001.012-.007.023.007.033.013.01.025.015.035.02.01.003.007.015.032.015.026 0 .041-.014.041-.014s.021-.02.033-.017c.011.002.027.023.035.007a.065.065 0 0 0 0-.05c-.006-.011-.02-.008-.035-.015-.016-.008-.04-.01-.048-.027-.008-.018-.026-.056-.027-.064a.118.118 0 0 0-.018-.035 37.262 37.262 0 0 0-.046-.046L24.2 24.8s-.021-.045-.02-.056c.003-.012.009-.043.022-.052.014-.01.01-.058-.004-.058-.013 0-.029.025-.033.03-.003.007-.027.016-.036.016-.01 0-.021-.008-.008-.04.014-.033.04-.11.05-.134a.55.55 0 0 1 .072-.094c.011-.012.054-.043.061-.052.008-.01.004-.033.024-.04.019-.008.034-.022.042-.008.008.013.035.056.037.073a.147.147 0 0 1 0 .05c-.004.014-.006.016-.01.027-.004.012-.004.027-.015.035-.012.008-.027.006-.016.015.012.01.006.01.025.012.02.002.039-.02.05-.031.012-.012.018-.016.024-.017a.107.107 0 0 1 .025 0s.002-.054.013-.006c.012.048-.007.063 0 .085.008.021.002.015.004.038s-.011.027 0 .035l.025.017s-.002.006.012.022l.013.015s.008.021.014.014a.249.249 0 0 0 .011-.054l-.01-.024c-.003-.013-.007-.023-.001-.038.006-.016-.02-.023.011-.033.031-.01.052-.004.054-.02.002-.015-.04-.048-.05-.048-.01 0-.013.014-.027.002-.013-.011-.017-.017-.021-.029-.004-.011-.015-.02-.027-.027-.012-.005-.04-.017-.052-.029-.012-.011-.031-.027-.039-.04-.007-.014-.015-.021-.017-.044a.44.44 0 0 1 0-.072.356.356 0 0 1 .067-.106c.014-.004.056-.042.068-.042.012 0 .027.001.03.01.005.007.007.015.003.03-.004.016-.016.017-.018.023-.002.006-.03.023.01.018.04-.006.054-.016.056-.04.002-.026.002-.022-.002-.053-.004-.03.012-.035-.017-.044-.03-.01-.05-.014-.066-.02-.015-.005-.044-.02-.054-.021-.01-.002-.015.002-.015-.015 0-.018-.016-.022.003-.025.02-.004.04 0 .045-.008.006-.008.015-.018.006-.035-.01-.017-.118-.214-.128-.228-.01-.013-.038-.044-.036-.067.002-.023-.004-.089.005-.106.01-.018.026-.024.031-.052.006-.03.016-.049.002-.07-.013-.021-.027-.035-.027-.058s.021-.067.014-.089c-.008-.02-.027-.04-.04-.032-.014.007-.024.042-.057.005-.033-.036-.044-.04-.046-.061-.002-.022.006-.058.01-.083.003-.025-.006-.047.005-.058.012-.012.037-.035.06-.016.023.02.03.039.043.047.013.007.025-.002.019.015-.006.017-.015.006-.02.025-.003.02-.044.017-.007.035.037.017.054.017.058.006.004-.012.004-.024.008-.045.003-.021.003-.025.003-.038 0-.014-.011-.018-.013-.035-.002-.017-.008-.02-.002-.035.006-.015.01-.063.004-.063s-.01-.006-.021.005c-.012.012-.045.022-.05.012-.006-.01-.018-.035-.026-.045-.007-.01-.019-.001-.013-.019.006-.017.03-.042.008-.05-.024-.008-.053-.008-.06-.014a.083.083 0 0 1-.023-.027c-.008-.013-.022-.03-.022-.042 0-.012-.015-.039.002-.037.018.002.023-.002.037.018.013.019.03.033.042.038.012.006.039.027.047.03.007.001.03.007.03.015 0 .007-.003.027.004.036.008.01.022.018.026.004.003-.013.003-.046-.002-.052-.006-.006-.01-.023-.024-.03-.013-.008-.034-.012-.05-.02a.1.1 0 0 1-.033-.025c-.003-.006-.019-.018-.019-.045s-.002-.002-.002-.052v-.019c0-.03.008-.114.008-.12 0-.005.004-.02.004-.036l-.002-.039c0-.015-.006-.017-.008-.039-.002-.02-.013-.038-.013-.054 0-.015-.008-.032 0-.042a.508.508 0 0 0 .027-.046s.004-.024.023-.002c.02.021.023.038.029.052.006.013.004.029.006.048.001.02-.002.043-.002.06s-.004.012-.006.029-.023.033 0 .046c.023.014.04.025.044-.002.004-.027.004-.038.004-.052 0-.013-.004-.017 0-.038.004-.022.002-.024.008-.041a.16.16 0 0 0 .008-.06c-.002-.017-.022-.042-.033-.056-.012-.013-.018-.017-.023-.034-.006-.018-.012-.033-.012-.047 0-.013-.004-.015-.002-.027a.258.258 0 0 0 .004-.03c0-.007-.004-.018-.004-.024 0-.006-.006-.013-.004-.035.002-.02 0-.046 0-.046s-.021 0-.023-.015c-.002-.016-.008-.033-.027-.04-.02-.009-.029-.009-.046-.009a.088.088 0 0 1-.054-.019c-.012-.011-.043-.035-.052-.046-.01-.012-.033-.037-.027-.048.005-.012.025-.049.04-.049s.023.016.035.03l.038.04c.02.017.024.023.037.023.014 0 .021-.012.021-.025 0-.014-.007-.025-.019-.05l-.03-.06c-.012-.021-.02-.021-.02-.039 0-.017-.002-.03.008-.046l.02-.035s.016-.035-.013-.089c-.029-.054-.077-.11-.089-.144-.011-.035-.044-.06-.044-.112 0-.052.004-.07-.008-.093-.011-.023-.025-.03-.036-.062-.012-.03-.023-.046-.023-.07 0-.022-.014-.026-.002-.042.011-.015.029-.017.023-.046-.006-.029-.012-.013-.016-.037-.004-.023-.017-.013-.011-.036a.296.296 0 0 1 .021-.058c.01-.021.021-.043.012-.074-.01-.03-.024-.077-.043-.11-.02-.032-.025-.028-.038-.056-.014-.027-.053-.065-.062-.098-.01-.033-.022-.052-.025-.077-.004-.025-.022-.228-.025-.259-.004-.03-.037-.098-.037-.137 0-.038 0-.071-.006-.073-.006-.002-.017.01-.021.029-.004.02-.004.033-.012.025-.007-.008-.029-.033-.03-.046-.003-.014-.006-.024-.012-.03-.006-.005-.045-.015-.03-.032.016-.018.022-.027.041-.021.02.005.039.02.047.005.007-.015-.022-.029.013-.056.035-.027.045-.023.05-.036.006-.014.025-.018.002-.037-.023-.02-.038-.021-.058-.048a.68.68 0 0 1-.061-.099c-.002-.011-.006-.013-.004-.042.002-.029.008-.046-.01-.062-.017-.015-.04-.029-.04-.029s.011-.019 0-.025c-.012-.006-.023.002-.023-.025 0-.027-.008-.071-.014-.073-.006-.002-.042-.012-.046.021-.004.033-.043.04-.043.04s-.004.014-.002.033c.002.02.012.037.004.05-.008.014-.037.03-.037.008 0-.021-.011-.01 0-.048.012-.039.03-.052.01-.062-.02-.01-.038-.004-.054-.025-.015-.021-.029-.03-.029-.042 0-.012-.006-.037-.006-.054 0-.018-.013-.037-.019-.039-.006-.002-.025.008-.025.027 0 .02-.01.04-.01.04l-.03.004a.342.342 0 0 1-.043-.015s-.015-.037-.023-.04c-.008-.004-.03-.018-.045-.022s-.052-.006-.034-.021a.07.07 0 0 1 .044-.02c.01 0 .014-.007.029.005.015.011.027.025.042.015.016-.01.012-.012.03-.015.017-.004.024 0 .028-.006s.02-.02.006-.02c-.013 0-.04-.007-.054-.001-.013.005-.035.02-.042.01-.008-.012-.012-.01-.04-.047-.03-.037-.038-.046-.043-.066-.006-.02-.047-.063-.049-.071-.001-.008-.042-.048-.06-.072-.017-.023-.075-.075-.094-.127-.02-.052-.064-.122-.068-.137-.003-.015-.038-.083-.038-.102 0-.02-.004-.031-.006-.054s-.008-.04-.02-.04c-.01 0-.028.018-.03.024-.002.006 0 .025-.02.014-.019-.012-.013 0-.019-.012-.005-.011-.005-.03.014-.04.02-.01.03-.02.03-.027a.058.058 0 0 0-.017-.04c-.015-.016-.017-.012-.04-.036a.287.287 0 0 1-.062-.075c-.006-.02-.03-.015-.039-.042-.007-.027-.04-.105-.044-.116-.004-.012-.037-.066-.037-.072 0-.005 0-.023.004-.029a.078.078 0 0 0 .006-.023s0-.004.027-.01a.526.526 0 0 1 .08-.009c.028-.002.051.01.063-.01.011-.019.013-.054.013-.054s-.002-.011-.017-.004c-.015.008-.015.013-.048.019-.033.005-.045.008-.056 0-.012-.009.011-.009-.043-.024-.054-.016-.061-.023-.065-.014-.004.01-.016.016-.01.027.006.012.008.016.02.027.01.012.013.002.019.021.005.02.005.022.002.03-.004.007-.037.013-.043.013-.006 0 .004-.01-.006 0s-.025.023-.042.025a.123.123 0 0 1-.046 0c-.008-.004-.039-.027-.043-.04-.004-.014-.03-.02-.015-.05l.036-.072c.004-.006-.004-.045.01-.05.013-.006.008-.01.033-.022.025-.011.035-.02.035-.03 0-.01-.02-.027-.041-.024-.021.004-.02.008-.04.008-.022 0-.055.006-.068-.013a.47.47 0 0 1-.033-.072s-.025-.06-.033-.073c-.007-.014-.033-.014-.042-.04-.01-.028-.012-.062-.035-.049-.023.014-.013.017-.033.017-.019 0-.058.002-.07-.013-.01-.015-.034-.033-.04-.042a.241.241 0 0 0-.054-.064c-.023-.016-.181-.137-.193-.145l-.112-.089c-.011-.01-.137-.083-.146-.092-.01-.01-.039-.031-.04-.018-.003.014.001.03.01.037.01.008.035.035.045.054.01.02.023.039.039.039.015 0 .025.011.042.02.018.01.023.009.037.026.013.017.027.037.046.042.02.006.025.004.035.014.01.01.008.023.038.044.031.022.04.018.056.027.018.01.01-.007.027.02.018.027.03.036.045.044s.015-.002.037.014c.02.015.034.023.042.038.008.016.017.048.012.066-.006.017-.043.017-.062.019-.02.002-.068.004-.085.002-.018-.002-.058 0-.087-.029-.029-.029-.044-.039-.03-.048.013-.01.026-.037.036-.039.01-.002.015-.002.025.008.01.01.035.027.044.015.01-.011.023-.011.004-.036a5.844 5.844 0 0 0-.32-.234s-.04-.029-.05-.021c-.01.008-.016.017-.024.013-.007-.003-.044-.046-.028-.054l.015-.007s0-.031-.006-.033c-.006-.002-.05-.01-.056-.014a2.975 2.975 0 0 0-.044-.027s-.006-.007-.021-.005c-.016.001-.039 0-.049-.014-.01-.013-.027-.03-.044-.033-.017-.002-.03.004-.06-.011-.03-.016-.1-.031-.112-.047-.011-.015-.025-.017-.013-.029.011-.011.013-.004.03-.005a.3.3 0 0 1 .099.007c.027.01.083.035.102.043.02.007.062.029.076.036.013.008.036.024.048.03.011.005.006.019.011.005.006-.013.002-.029-.027-.044a11.622 11.622 0 0 1-.143-.08c-.03-.017-.08-.04-.108-.065-.027-.025-.088-.054-.104-.081-.015-.027-.04-.052-.058-.071-.017-.02-.011-.002-.042-.047-.031-.044-.056-.033-.066-.042-.01-.01-.073-.058-.096-.087-.023-.03-.052-.052-.058-.058a190.43 190.43 0 0 1-.039-.039h-.03c-.008 0-.033.004-.026-.01.008-.013.014-.015.018-.022.003-.008.01-.024-.002-.037-.012-.014-.035-.025-.047-.046-.011-.022-.017-.008-.019-.039l-.006-.068c-.002-.032.004-.057-.019-.083-.023-.025-.401-.285-.41-.297-.007-.011-.105-.071-.134-.108-.03-.036-.05-.075-.085-.094-.035-.02-.143-.076-.162-.093-.02-.017-.106-.118-.118-.127a1.078 1.078 0 0 1-.114-.128c-.011-.023-.044-.042-.042-.063a.083.083 0 0 0-.02-.064c-.017-.021-.07-.07-.075-.093-.006-.023-.023-.056-.023-.077 0-.021-.002-.025.002-.03.004-.007-.025-.086-.025-.122 0-.037-.016-.172.002-.197.017-.025.036-.047.044-.064s.021-.037.023-.048c.002-.012.008-.027 0-.04-.007-.014-.046-.035-.046-.05a.157.157 0 0 0-.027-.07c-.014-.018-.031-.031-.035-.045-.004-.013-.015-.033-.017-.044-.002-.012-.004-.018-.002-.03.002-.01 0 .005.008-.003a.103.103 0 0 0 .019-.039c0-.005-.025-.027-.025-.027s-.016-.02-.021.008c-.006.029-.002.035-.014.037-.012.002-.044 0-.044 0s-.014-.014-.02 0a.116.116 0 0 1-.015.025l-.029-.008s-.006-.021-.002-.027c.004-.006.01-.013.01-.02 0-.005-.01-.015-.016-.022l-.11-.12-.094-.08c-.031-.024-.068-.047-.087-.06-.02-.014-.039-.034-.054-.038-.016-.003-.039-.003-.064-.019-.025-.015-.048-.017-.071-.042-.023-.025-.114-.105-.13-.124a.644.644 0 0 1-.036-.05c-.012-.017-.02-.025-.027-.037a.19.19 0 0 1-.027-.056c-.004-.019-.004-.038-.012-.038s-.027.034-.027.052c0 .017.004.033 0 .042-.004.01.01.016-.004.01-.013-.006-.029-.02-.029-.037 0-.017-.002-.029-.006-.056-.003-.027-.111-.177-.123-.216-.012-.038-.09-.199-.089-.218.002-.02.004-.052.01-.075s.008-.052.002-.06-.01-.014-.027-.023c-.018-.01-.027-.006-.033-.021-.006-.016-.02-.035-.023-.058-.004-.023-.002-.031-.008-.04-.006-.01-.015-.014-.025-.028a.09.09 0 0 1-.017-.033c0-.005-.002-.01.002-.015.003-.006.005-.025.005-.025s-.01-.05-.015-.056c-.006-.006-.037.004-.052-.01-.016-.013-.039-.044-.039-.06 0-.015-.03-.092-.027-.104.004-.011.004-.023.016-.037.011-.013.02-.028.015-.052-.006-.023-.015-.056-.015-.071 0-.015-.004-.027.01-.042.013-.016-.01-.028.024-.022.035.006.035.012.047.022.011.01.025.025.029.011a.112.112 0 0 0 .005-.037v-.042s.004-.012.016-.004c.011.008.015.037.03.039.016.002.022.011.028 0a.086.086 0 0 0 0-.054.164.164 0 0 1-.006-.068c.002-.03 0-.062.002-.075.002-.014 0-.031.013-.033.014-.002.018 0 .033-.008.016-.007.02-.017.037-.032a.199.199 0 0 1 .08-.033c.014 0 .035-.014.034-.027 0-.014-.019-.024 0-.049s.017-.03.015-.038c-.002-.008.005-.02-.015-.035-.02-.015-.03-.01-.033-.03l-.01-.053s-.007-.008-.019-.004-.023.012-.029.008c-.006-.004-.025-.008-.013-.03.011-.024-.006-.03.017-.032.023-.002.027.004.037-.004.01-.007.013-.019.023-.015s.018-.006.027.01c.01.015.006.027.02.025.016-.002.028-.022.026-.033-.002-.012-.002-.012-.013-.033-.012-.021-.04-.023-.033-.048.007-.025.011-.205.011-.205l-.038-.025c-.006-.004-.018-.021-.008-.03.01-.01.024-.016.035-.014.011.002 0-.002.011.002.012.003.023-.02.033-.039.01-.02.03-.083.033-.089.004-.006.004-.025.027-.036.023-.012.037-.01.058-.018a.116.116 0 0 0 .054-.042.733.733 0 0 0 .052-.112c.008-.023.017-.054.014-.07-.004-.015-.012-.03-.012-.038s-.025.002-.004-.023.037-.033.05-.049c.014-.015.012-.019.02-.044.007-.025.013-.044.02-.058.008-.013.014-.029.03-.044.015-.016.015-.027.034-.018.02.01.027.023.049.018a.306.306 0 0 1 .042-.01c.014-.002.016-.017.021-.002.006.016-.007.027.022.031.029.004.038.008.048 0 .01-.008.004-.012.025-.014h.037a.328.328 0 0 0 .15-.071.702.702 0 0 1 .072-.075c.019-.018.048-.03.057-.054.01-.025-.003-.043.02-.052.023-.01.03-.006.042-.018.012-.011.016-.01.023-.025.008-.015 0-.029.022-.035.02-.005.02-.023.046-.005.025.017.023.027.046.027s.031-.01.043-.008c.011.002.015.013.033.02.017.005.03.019.052 0 .02-.02.044-.047.061-.057.018-.01.022-.011.03-.027.007-.015.009-.03.019-.035.01-.003-.002.004.01-.003a.045.045 0 0 0 .019-.033c.002-.014.003-.039.007-.045.004-.005.06-.075.066-.102.006-.027.017-.067.023-.087.006-.019.006-.027.012-.054a.241.241 0 0 0 .002-.073.154.154 0 0 0-.016-.052.77.77 0 0 0-.033-.05s-.011.002-.003-.014a.197.197 0 0 1 .036-.048.221.221 0 0 0 .045-.054c.01-.02.015-.056.015-.056s.023-.012.042-.002c.02.01.016.02.035.035.02.015.02.023.033.017.013-.006.013.014.013-.006 0-.019-.017-.017.002-.046a.342.342 0 0 1 .083-.09c.027-.016.07-.053.083-.053h.093s.014-.017.004-.03c-.01-.014-.05-.016-.071-.022-.022-.006-.064-.013-.07-.035-.006-.02-.01-.042-.004-.06.006-.017.01-.11.014-.117.004-.008.006-.048.019-.004s.07.096.07.096.034 0 .044-.005c.01-.006.027-.004.03-.016.005-.011-.003-.025-.015-.029-.011-.004-.023.002-.038-.02-.016-.02-.016-.024-.025-.038-.01-.013-.022-.017-.027-.023-.006-.006-.02-.015-.024-.027-.003-.011-.017-.029-.017-.037 0-.007-.008-.032-.004-.04a.158.158 0 0 0 .014-.035c0-.006 0-.025-.012-.03-.011-.006-.03-.012-.038-.02s-.035-.03-.043-.03c-.008 0-.013-.032-.013-.032s.013-.027.02-.023l.037.021.062.023s.035.008.048.014c.014.006.026-.004.022.015-.004.02-.006.012-.018.027-.011.016-.015.016-.011.031.004.016.013.018.015.031.002.014 0 .01-.004.027-.004.018-.01.016-.005.035.003.02.005.025.019.04.013.016.025.028.038.03.014.001.018.001.031.007.014.006.014 0 .02.016.005.015.01.015.023.046.013.03.023.033.023.033s.008-.01.01-.022c.002-.011.003-.015.003-.036 0-.021-.005-.031-.005-.054s.002-.031.011-.037c.01-.006.01-.011.033-.017.023-.006.021-.014.052-.014.031 0 .05-.006.045-.017-.006-.012-.01-.014-.024-.031-.013-.017-.03-.023-.038-.035-.008-.011-.016-.017-.008-.033.008-.015-.006-.036.023-.034.03.002.039 0 .058.015.02.016.006.01.02.016.013.005.044.011.046-.01.002-.021.002-.046.002-.054s.05-.035.067-.039a.08.08 0 0 1 .033 0l.014.01s.017.004.023.002c.006-.002.023-.01.03-.006.008.004.02.021.018.031-.002.01-.012.021-.016.029-.003.008-.017.017-.01.029a.167.167 0 0 0 .065.033c.007 0 .046.01.06.019.013.01.013.02.03.021a.056.056 0 0 0 .054-.025.317.317 0 0 1 .128-.07.108.108 0 0 1 .056.006c.02.008.046.033.071.006.025-.027.044-.056.046-.077.002-.021.004-.03-.005-.046-.01-.016-.022-.022-.018-.043a.083.083 0 0 1 .025-.048c.014-.014.023-.015.027-.048s-.002-.062-.002-.062-.01-.002-.003-.02c.005-.017.048-.055.06-.07.011-.016.024-.047.02-.053-.003-.006-.017 0-.032.002-.016.002-.025.006-.037-.004-.011-.01-.017-.033-.017-.038 0-.006.011-.027.034-.035.024-.008.016-.016.053-.008.036.008.052.012.057.004.006-.008-.01-.033.01-.033s.035.018.035.018.015.01.033.005c.017-.003.025-.011.048-.007.023.004.021.007.037.011a.13.13 0 0 0 .056.002l.061-.011c.023-.006.033-.022.035-.043.002-.021-.006-.023.006-.033l.033-.032c.007-.008 0-.047.015-.05.016-.004.04-.003.04-.003s.087.002.103-.001c.015-.004.046-.024.058-.03.011-.005.01-.017.02-.028.009-.012.003-.02.026-.033.023-.014.018-.008.031-.027.013-.02.023-.03.029-.047.006-.017.002-.013.008-.042.005-.029-.002-.062.011-.081l.039-.052s.01-.023.015-.039c.006-.015.004-.048.014-.063.01-.016.027-.027.033-.037.005-.01.003-.025.01-.035.005-.01.009-.023.02-.006.012.018.012.027.022.037.01.01.023.025.033.01.01-.016.017-.033.032-.031.016.002.016.011.043.02.027.007.023.003.05.005.027.002.037.006.044-.004.008-.01.004-.021.02-.03.015-.01.03-.045.03-.045zm-7.02 24.398s-.044.021-.056.045c-.01.024-.015.027 0 .049.015.02.046.027.057.02.011-.005.011-.04.03-.055.019-.017.007-.01.019-.029.011-.018-.05-.03-.05-.03zm7.608-13.672c0-.01-.035-.027-.037-.032-.002-.006-.026-.012-.035-.01-.008.002-.021.005-.021.021s.02.04.03.052c.01.012.032.035.047.039.016.004.024.012.029 0 .004-.012.01-.023.01-.037 0-.013-.023-.033-.023-.033zm-4.572-6.599c0 .014-.019.074 0 .084.02.009.029.065.052 0 .024-.065-.005-.08 0-.084.005-.004-.052 0-.052 0zm-.142.067s-.061.031-.061.058c0 .027.03.058.03.058s.026 0 .054-.031c.029-.032.038.004.029-.032-.01-.035-.052-.053-.052-.053zm2.272-2.63a.027.027 0 0 1-.012-.022c0-.012 0-.021-.011-.02-.012.002-.018.008-.027.01l-.045.012s-.002-.016-.011-.022c-.01-.005-.016-.013-.022-.013-.005 0-.013-.006-.017.01-.004.015-.004.025-.01.032-.005.008-.015.022-.02.014-.007-.008-.018-.032-.03-.027-.011.004-.05-.031-.017.021.033.052.03.052.052.06.021.008.029.013.037.013.007 0 .029.006.029.012s.002.025.004.03c.001.007.02.018-.002.028-.024.01-.027.02-.027.02s-.006.013.029.019c.034.005.038-.014.05-.014.011 0-.014-.021.011 0s.031.04.052.029c.022-.012.022-.017.022-.027 0-.01-.008-.056 0-.064.007-.007-.01-.015.017-.019.027-.004.035-.01.044-.012.01-.003.01-.019 0-.029a.317.317 0 0 0-.061-.028s-.01.01-.016.011l-.006.002-.013-.025zm.924-.149l-.051.042a.142.142 0 0 0-.028.033c-.002.005-.014.017-.015.03-.002.014.008.02 0 .031-.008.012-.001.02 0 .025 0 .006.02-.019.028-.028.008-.01.007-.024.017-.035.01-.012.019-.016.03-.027.01-.012.02-.018.029-.039.008-.021.006-.011.008-.021.002-.01-.018-.01-.018-.01zm-.038-.18c-.01.006-.023.011-.043.033-.019.02-.033.022-.036.035-.004.013-.01.013-.014.028-.004.014-.008.037-.013.045-.006.007-.02.007-.026.017-.005.01-.015.014-.01.022.007.009.024.001.041 0 .018 0 .014-.003.043-.02.029-.017.048-.017.058-.029a.202.202 0 0 0 .027-.054c.004-.013-.006-.039 0-.044.006-.006 0-.033 0-.033h-.027zm.195-.135a2.07 2.07 0 0 0-.044.048.067.067 0 0 0-.018.04c0 .01.002.016 0 .026a.084.084 0 0 1-.014.034c-.008.01-.014.016-.017.027-.002.012-.022.02 0 .02.023 0 .035-.02.042-.027.007-.008.011-.018.015-.023.004-.006.004-.01.018-.031.014-.022.008-.031.018-.04.01-.01.009-.01.013-.028.004-.017-.003-.056-.013-.046zm.474.175c-.009.033-.064.05-.074.066-.009.016-.004.024 0 .04.005.017.042.013.074 0 .033-.012.033-.022.037-.047.005-.026-.037-.059-.037-.059zm-.245-.007c-.002.013-.021.027-.032.038-.01.012-.014.01-.015.027-.001.018.013.033.023.043.01.01-.02.027 0 .033.022.005.024.011.051 0 .027-.012.034-.006.036-.022.002-.015-.016-.02 0-.032.015-.012-.002-.024 0-.03.002-.005-.017-.023-.02-.03-.002-.008-.043-.027-.043-.027zm.065-.488l-.008.004s-.057.011 0 .027c.056.016.095.003.09 0a.3.3 0 0 0-.082-.031zm-.072-.04c-.012.024-.06.044-.072.05-.012.004-.025.004-.025.03 0 .025-.034.008 0 .025.035.017.028.013.057 0 .028-.013.031-.034.04-.047.01-.013 0-.034 0-.034v-.024zm.137-.107s-.039.018-.05.03c-.012.013-.022.019-.033.03-.012.01-.033.02-.045.026-.011.006-.015.014-.015.022 0 .009.006.004.029 0s.027.002.054-.016c.027-.018.023-.026.042-.035.02-.01.033-.014.037-.02.004-.006 0-.025 0-.025s.005-.025-.02-.012zm-.574.382c-.02.01-.01.013.004.013s.004.008 0 .016a.24.24 0 0 0-.01.021c-.003.01-.011.015-.026.017-.016.002-.027-.002-.056.01-.03.012-.022.029-.062.048-.04.02-.025.039-.039.047-.013.007-.025-.02-.034-.031-.01-.012.003-.018.011-.023.008-.006 0-.022 0-.035 0-.014.01-.014.023-.02a.148.148 0 0 0 .032-.023l.001-.048c0-.021-.002-.03 0-.037.002-.005.017.008.021.016s.014.002.027-.016c.014-.017-.002-.017-.004-.023a.39.39 0 0 1-.011-.052c-.004-.025.011-.03.017-.04a.21.21 0 0 1 .03-.035c.01-.012 0-.023 0-.033 0-.01.015-.027.02-.025 0 0 .016.015.018.021.002.006.023.014.037.023.013.01.013.018.012.031 0 .014-.005.03 0 .035.005.006.04.021.045.029.006.008 0 .02-.002.035-.001.015.016.01.03.014.013.004.024-.016.038-.03.013-.013.037-.011.052-.025.016-.013.017-.011.05 0 .033.012-.042.043-.077.06-.035.017 0 0-.025.02s-.015.034-.023.038c-.008.004-.033-.004-.039-.017l-.01-.021c-.005-.013-.032.019-.039.02l-.01.02z"/>
    </g>
</svg>
