<svg xmlns="http://www.w3.org/2000/svg" width="42" height="42" viewBox="0 0 42 42">
    <g fill="none" fill-rule="evenodd">
        <rect width="42" height="42" fill="#00BF8F" rx="21"/>
        <path fill="#FFF" d="M26.574 16.395a.351.351 0 0 1-.352.351H24.41a.351.351 0 0 1-.352-.351v-1.813c0-.194.158-.352.352-.352h1.812c.195 0 .352.158.352.352v1.813zm0 3.659a.351.351 0 0 1-.352.351H24.41a.351.351 0 0 1-.352-.351V18.24c0-.194.158-.351.352-.351h1.812c.195 0 .352.157.352.35v1.814zm0 3.659a.351.351 0 0 1-.352.351H24.41a.351.351 0 0 1-.352-.351V21.9c0-.194.158-.351.352-.351h1.812c.195 0 .352.157.352.35v1.814zm0 3.66a.351.351 0 0 1-.352.35H24.41a.351.351 0 0 1-.352-.35v-1.814c0-.194.158-.351.352-.351h1.812c.195 0 .352.157.352.35v1.814zm-4.391-10.978a.351.351 0 0 1-.352.351H20.02a.351.351 0 0 1-.352-.351v-1.813c0-.194.158-.352.352-.352h1.812c.195 0 .352.158.352.352v1.813zm0 3.659a.351.351 0 0 1-.352.351H20.02a.351.351 0 0 1-.352-.351V18.24c0-.194.158-.351.352-.351h1.812c.195 0 .352.157.352.35v1.814zm0 3.659a.351.351 0 0 1-.352.351H20.02a.351.351 0 0 1-.352-.351V21.9c0-.194.158-.351.352-.351h1.812c.195 0 .352.157.352.35v1.814zm0 3.66a.351.351 0 0 1-.352.35H20.02a.351.351 0 0 1-.352-.35v-1.814c0-.194.158-.351.352-.351h1.812c.195 0 .352.157.352.35v1.814zm-4.39-10.978a.351.351 0 0 1-.352.351h-1.813a.351.351 0 0 1-.351-.351v-1.813c0-.194.157-.352.351-.352h1.813c.194 0 .351.158.351.352v1.813zm0 3.659a.351.351 0 0 1-.352.351h-1.813a.351.351 0 0 1-.351-.351V18.24c0-.194.157-.351.351-.351h1.813c.194 0 .351.157.351.35v1.814zm0 3.659a.351.351 0 0 1-.352.351h-1.813a.351.351 0 0 1-.351-.351V21.9c0-.194.157-.351.351-.351h1.813c.194 0 .351.157.351.35v1.814zm0 3.66a.351.351 0 0 1-.352.35h-1.813a.351.351 0 0 1-.351-.35v-1.814c0-.194.157-.351.351-.351h1.813c.194 0 .351.157.351.35v1.814zm12.243 3.003h-1.77V13.765a.815.815 0 0 0-.814-.815H14.399a.815.815 0 0 0-.815.815v16.611h-1.77a.815.815 0 0 0-.814.815V32h6.838v-3.33c0-.195.157-.352.351-.352h1.813c.194 0 .352.157.352.351V32h1.143v-3.33c0-.195.157-.352.351-.352h1.813c.194 0 .352.157.352.351V32h6.837v-.809a.815.815 0 0 0-.814-.815zm-3.85-19.561A.815.815 0 0 0 25.37 10h-8.89a.815.815 0 0 0-.815.815v1.129h10.52v-1.129z"/>
    </g>
</svg>
